<?xml version="1.0" encoding="UTF-8" standalone="no"?>
<!DOCTYPE svg PUBLIC "-//W3C//DTD SVG 1.1//EN" "http://www.w3.org/Graphics/SVG/1.1/DTD/svg11-flat.dtd"
[
<!ATTLIST g xmlns:fme CDATA #FIXED "http://www.safe.com/fme" >
<!ATTLIST path fme:district_id CDATA #IMPLIED fme:precinct_id CDATA #IMPLIED fme:id CDATA #IMPLIED >
<!ATTLIST ellipse fme:district_id CDATA #IMPLIED fme:precinct_id CDATA #IMPLIED fme:id CDATA #IMPLIED >
<!ATTLIST text fme:district_id CDATA #IMPLIED fme:precinct_id CDATA #IMPLIED fme:id CDATA #IMPLIED >
<!ATTLIST use fme:district_id CDATA #IMPLIED fme:precinct_id CDATA #IMPLIED fme:id CDATA #IMPLIED >
]>
<svg xmlns="http://www.w3.org/2000/svg"  viewBox="-0.00267281 -0.00267281 0.238669 0.165714"><g xmlns:fme="http://www.safe.com/fme" fill="none" stroke="black" stroke-width="0.00002672805623" transform="translate(0,0.160368) scale(1, -1)">
<g id="0" >
<path d="M 0.18278,0.0575613 l 0.000176053,-0.000151515 1.46831e-05,-0.000280964 0.000195557,-0.000353061 3.73346e-05,-0.000196292 -0.000103883,-0.000288904 8.1329e-05,3.35656e-05 -2.43792e-05,-0.000241777 0.000257082,-0.000145037 -1.50323e-05,-0.000110026 -0.000662821,0.000239066 -0.000164443,0.000309431 -0.000261895,-0.000113175 -0.000218159,-0.000266183 -0.000120639,-1.69512e-05 -0.000240765,0.000731827 -0.000324192,0.000237755 -0.000163733,-0.000254945 -5.48843e-05,-0.000322766 -0.000312865,0.000100396 -0.000596162,1.63084e-05 9.05306e-07,0.000442456 -0.000151986,0.000185605 4.29238e-06,0.00021126 -0.000182865,0.000250903 -2.70942e-05,-0.000129782 -0.000168935,-9.28591e-06 -0.000242391,-0.00022533 -3.43833e-05,-0.000254327 -0.000463466,-0.000127586 -1.46482e-06,-0.000133629 0.000247923,-0.000260528 -0.00049138,-6.23157e-05 -0.000231794,0.000200782 -0.000382496,0.00059406 -5.71168e-05,0.000193763 8.4484e-05,0.000321593 -4.67363e-05,0.000420318 -0.000154028,-3.94578e-07 -0.000305137,-0.000185026 -9.45765e-05,1.89261e-05 -0.000119572,0.000170857 -0.000201849,5.06101e-05 -0.000110461,1.09444e-05 -0.000202316,-0.000172424 -0.000151698,3.20905e-05 -0.000346237,0.000660546 -0.000236087,0.000170117 -0.00039452,0.000128222 -0.000147533,0.000232515 -0.000190281,0.000115517 -0.000474016,0.000172291 -7.1715e-05,0.000484658 -0.000202269,0.000283582 1.49013e-06,0.000136338 0.000119743,0.000115391 9.01369e-05,-0.000244631 6.19696e-05,6.89636e-05 -7.0678e-05,0.000218267 -8.54371e-05,4.23187e-05 -0.000120188,-6.57224e-05 -9.17248e-05,-0.000171633 5.81097e-05,-1.31731e-05 -2.06233e-05,-8.01776e-05 -0.000255881,7.12153e-05 -0.000438674,0.00194281 0.00389159,0.00478519 0.00048873,-0.000674564 -6.64657e-05,-2.82863e-05 -4.53901e-05,-0.000537765 0.000145491,0.000121473 0.000905207,-0.000111242 4.75027e-05,-0.000170198 0.000261094,-0.000141456 0.000484394,0.000232137 0.000338225,-4.10304e-05 5.70884e-05,7.35208e-05 0.00044132,-4.05263e-06 0.000238141,-7.35234e-05 0.00050845,8.47243e-05 0.000614884,-2.37114e-05 0.000151705,-3.20963e-05 6.3434e-05,-0.000157703 0.000282324,-0.000185903 -1.53808e-05,-0.000141628 -0.000531772,-0.000320186 -0.000375411,-0.00010852 -8.45589e-05,-0.000147313 -0.00035763,7.19132e-05 -0.000370062,-0.000160944 -0.000369156,0.000191212 -0.000373669,-3.99126e-05 -0.000184539,9.92167e-05 -0.000206541,-1.61641e-05 0.000190348,-1.98068e-05 -7.22105e-05,-1.1979e-05 0.000301332,-0.000163498 -5.00281e-05,-6.00409e-05 -4.99612e-05,0.000125974 -0.000154468,5.01792e-05 -0.000205751,-3.42312e-05 0.000260976,-6.19925e-05 -6.22492e-05,-0.000273937 0.00014554,0.000125985 5.85135e-05,-6.64552e-05 0.000101258,4.96378e-05 0.000141784,-0.000216213 -0.000440926,-0.000410424 -3.98846e-05,-0.000215448 -9.00997e-05,-2.26508e-05 0.000256292,-0.000128771 0.00028631,-2.62832e-06 0.000468254,0.000201581 0.000344559,-3.16486e-06 0.000341851,-6.99618e-05 -9.97675e-05,-0.000453286 4.73685e-05,0.000177453 5.77551e-06,-0.000193292 6.254e-05,0.000120426 0.000589486,-8.75896e-05 0.000192504,0.000266418 0.000200878,0.000129989 0.000116986,0.000222865 0.000594862,0.000131782 0.000321334,0.000219178 0.00029703,0.000522805 0.0001534,-5.73972e-05 0.000396921,0.000178749 0.000303171,-0.000175262 -9.90977e-05,-0.000570678 -0.000288252,-0.000353123 2.03682e-05,-0.000122994 -0.000275243,-0.000427288 -0.000367329,-0.000361426 -1.31784e-05,-0.000120879 -0.000170207,-3.45532e-05 0.000139675,-4.82406e-05 5.38166e-05,-0.000134137 0.000216075,-0.000104026 5.36799e-05,3.29164e-05 4.98244e-05,-0.000317407 -5.53093e-05,-0.000180991 -7.45296e-05,0.000405224 -4.04245e-05,-8.45087e-05 -0.000185516,9.83421e-06 -9.24688e-05,0.000120948 -0.000163713,-7.25386e-05 0.000185427,-1.796e-05 3.05792e-05,-9.23861e-05 0.000186023,3.62135e-05 4.7892e-05,-0.000313598 0.00238687,-0.00159277 0.00577748,-0.000294676 0.000385343,-0.00178181 -0.00262555,-0.000130374 0.000117526,-0.000551249 0.00112603,-0.000345394 0.00106359,-0.000900352 8.88951e-05,-0.00240797 -0.00162874,2.60926e-05 -0.00205124,0.00109197 -0.000340169,0.00119178 -0.00100123,0.000151953 -0.00264874,0.00183902 0.00093857,0.00190475 -0.00172076,0.00114827 -3.17155e-05,-0.000151457 -0.00215295,-0.0012147 -0.000364845,4.30831e-05 0.000197054,-0.000217624 -0.000293352,0.000169747 7.51907e-05,-0.000165937 0.000152626,-3.75215e-05 3.5777e-06,-0.000123742 0.000141286,-0.00017106 0.000446968,-0.000296675 5.21601e-05,-0.000105226 -0.000232601,-0.000142341 -0.000100113,5.41962e-05 1.90505e-05,-6.33842e-05 0.000725117,-0.000681196 0.000227102,-0.000357865 -4.2853e-05,-0.000126024 9.97643e-05,-8.57981e-05 z M 0.113824,0.129625 l 0.000214285,-5.8087e-05 0.00112033,0.00401278 -0.00259349,0.000386254 8.45463e-05,0.000324413 -0.00192511,0.0004899 -0.00397273,0.00127848 -0.000596994,5.47977e-05 -0.000509035,-7.16087e-05 -0.000467025,-0.000218499 -0.000355766,-0.000334778 -0.000219645,-0.000407353 -7.33528e-05,-0.000423821 6.3356e-05,-0.000424992 0.000198475,-0.000406829 0.000246262,-0.000351871 0.00022143,0.000138688 0.00082817,-0.000908795 0.000901985,-0.000690657 0.000911008,-0.000493954 0.00109554,-0.000392412 -5.75729e-05,-0.000177469 0.00488533,-0.00132418 z M 0.0863473,0.0315012 l 0.00381617,-0.00265339 0.000516596,-0.000515432 0.00135219,-0.000870196 0.00131117,-0.000470328 0.00136454,0.000381347 0.00037965,0.000202827 0.000689792,0.000497458 0.000818275,0.000941908 0.000373989,0.000727052 0.000133185,0.000434125 0.000923164,0.00402958 -0.000122623,0.000913565 0.000133321,0.00162677 -1.47792e-05,0.00112394 -0.000237799,0.00198608 -0.000717584,0.00366268 2.33391e-05,0.00116822 0.000403925,0.00214302 0.000647529,0.00175297 0.000691567,0.00152477 0.000307225,0.00156055 1.38655e-05,0.00118895 -0.000217586,0.000145176 -0.0016115,-2.78738e-05 -0.000729077,5.97047e-05 -0.000720338,0.000119007 -0.00139155,0.000411656 -0.00128931,0.000631471 -0.000593301,0.000392132 -0.00182033,0.000858935 -0.000842839,0.000580016 -0.000180936,-4.96723e-05 -0.00107763,-0.000957523 -0.000746557,-0.000538223 -0.00181753,-0.0016733 -0.00111044,-0.00139136 -0.000840916,-0.00151888 -0.000586091,-0.0017112 -0.00186526,-0.00832138 -0.000567401,-0.00346216 -2.04732e-05,-0.000588698 0.000171658,-0.000760942 0.000234769,-0.000472313 0.000514029,-0.000618541 0.000708324,-0.000489348 0.00202683,-0.000905929 0.00156676,-0.0010672 z M 0.0317775,0.0440328 l 0.000406263,-0.000300823 -0.000386865,-0.0011223 0.00613288,-0.0034291 0.00119575,-0.00115008 0.000102874,-1.8952e-05 0.00256108,-0.00310557 0.001959,-0.000748421 0.00549081,-0.00155869 -0.000218729,0.000774728 -0.000409382,0.00225351 -0.000655074,0.00109939 -0.00040321,0.000506593 -0.000942591,0.000907916 -0.000532278,0.000394479 -0.00116649,0.000655152 -0.0045724,0.00072291 -0.000715905,0.000143169 -0.00138273,0.000441218 -0.000657926,0.000295209 -0.00114683,0.000663597 -0.00441143,0.0032349 -0.000449952,-0.000508393 0.000203151,-0.000150425 z M 0.0610136,0.0353279 l -0.00470271,0.000749228 -0.000333793,-0.00152488 -0.000212094,-0.000312998 0.000202833,-0.00053306 0.000496511,-0.000114309 0.000246584,-0.000566747 -0.000249248,-0.000369686 0.000878347,-0.000675566 0.00245517,-2.46649e-05 0.000255887,-0.000403274 0.00102468,-0.000161759 1.97701e-06,-0.000157255 0.000534953,0.000196633 0.00247148,0.0019407 0.000507668,0.000234165 -0.00231434,0.00152208 -0.00126391,0.000201391 z M 0.0653205,0.0331252 l -0.000386476,0.000133194 -0.00043007,-7.22617e-05 -0.00273983,-0.00211739 -0.00193535,-0.000573485 0.000465068,-0.00138497 -0.000660505,-0.000185607 0.00109577,-0.00326325 0.00202865,0.000570057 0.000934745,-0.00278398 0.00218333,-0.000863046 0.000723985,1.56321e-05 0.000371622,0.000237269 0.000265407,0.000552956 8.37024e-05,0.00100172 0.000844844,-2.25202e-05 0.000476303,9.79318e-05 0.00017939,0.000175655 0.000220561,0.000496867 -9.11552e-05,0.000445633 0.000179153,0.000106129 0.000403582,-3.60025e-05 0.000228998,8.989e-05 0.000385619,0.000621232 8.00841e-05,0.000594326 0.00415307,-0.00238412 0.00122342,0.00178393 -0.0102839,0.0067642 z M 0.0621819,0.0364796 l -0.00795343,0.00124876 -0.000754119,-0.000447596 0.00964261,-0.00153174 0.0136861,-0.00900213 0.014394,-0.00442985 0.000432713,0.000434963 0.00116438,-0.000650779 0.000466003,-9.93727e-05 0.000453253,1.6472e-05 0.000405523,0.000111768 0.000363953,0.000198149 0.000300787,0.000272773 0.000219774,0.00033121 0.000148747,0.000535047 -5.21739e-05,0.00052256 -0.000235199,0.000478594 -0.000444561,0.000449584 -0.0094842,0.00665946 -0.000997811,0.000535468 -0.00168584,0.00050492 -0.000221431,-2.2149e-05 -0.000154679,-0.000146625 -8.4621e-05,-0.000440971 -0.00018897,-0.000308558 -0.000379363,-0.000264928 -0.00052971,-0.000120772 -0.000755482,-0.00100522 -0.00055239,0.000749626 -8.86453e-05,0.000760235 -0.00050644,-7.37258e-06 -0.000296492,7.0658e-05 -0.000372875,0.000246848 -0.000215947,0.000257549 -0.000138395,0.000547091 0.000231864,0.000697245 -0.000198084,0.000243337 -0.00193186,0.000455732 -0.0136871,0.00215002 z M 0.114832,0.0150797 l 0.00801627,-0.00311993 0.00102759,-9.66646e-05 0.000827402,-0.000309357 0.000514262,-8.40065e-05 0.000671653,7.83936e-05 0.00060371,0.000280502 0.000365343,0.000324144 0.000266574,0.000402635 0.00280919,0.00604523 0.00194961,0.00250439 0.000799262,0.000898882 0.000884137,0.000829706 0.000961894,0.000753849 0.0010319,0.000671919 0.0010936,0.000584577 0.00114649,0.000492527 0.00283597,0.000938652 0.000577701,0.000252008 0.00106434,0.000648157 0.000477062,0.000390315 0.000746584,0.000796981 0.000817286,0.00138283 0.000408819,0.00152687 -2.61959e-05,0.00157182 -0.000259477,0.00102239 -0.000445149,0.000967376 -0.00116217,0.00133221 -0.00529607,0.0050576 -0.0094992,0.00796784 -0.000723596,0.00054548 -0.00160495,0.000883351 -0.00508458,0.00214799 -0.00155855,0.000444165 -0.000153339,2.89956e-05 -4.54482e-05,-0.000115786 4.40874e-05,0.000116044 -0.00118328,0.000216279 -0.00133567,0.000128901 -0.00134294,1.51734e-05 -0.0132167,-0.000511583 -0.000172679,-0.000189605 -4.78121e-05,-0.00129452 -0.000161338,-0.00104291 -0.000270081,-0.00101351 -0.000784348,-0.00230791 -0.000378548,-0.00194473 -6.64281e-05,-0.00113762 5.28216e-05,-0.000514125 -0.000121419,-0.000392767 2.95985e-05,-0.000375371 0.000475199,-0.00317485 0.000143464,-0.000219811 4.54343e-05,-0.000382316 -2.15342e-06,-0.00179267 -0.000132651,-0.00159095 4.55332e-05,-0.000481841 -0.000350496,-0.00148164 -0.00057277,9.70004e-05 -0.000272243,-0.000998196 -0.00198819,-0.00457748 -0.000138325,-0.000835238 -2.13975e-05,-0.00090764 6.59577e-05,-0.000556978 0.000363883,-0.00129904 0.00041066,-0.000892077 0.000575008,-0.000799008 0.000457542,-0.00049379 0.00263477,-0.00188736 0.00101652,-0.000633608 0.00285621,-0.00127772 0.00930487,-0.00361258 z M 0.0923258,0.0557437 l 0.00109236,-0.000785531 0.00122278,-0.000603718 0.0013174,-0.000404232 0.00137346,-0.000192914 0.0115609,0.000338908 0.000218442,0.000137443 5.01804e-06,0.00305578 -8.06046e-05,0.000642127 -0.000326327,0.000921105 -0.00125168,0.00252325 -0.00024196,0.000839462 -7.84223e-05,0.000865169 0.000287104,0.0032046 -0.00013955,0.00103672 -0.000252384,0.000658136 -0.000752513,0.00118236 -0.00261589,0.00233765 -0.000814404,0.00117091 -0.00035488,0.000867772 -0.0001923,0.000909627 -2.43725e-05,0.0009262 8.87979e-05,0.00107252 -5.16517e-05,0.000471444 -0.000287512,0.000774424 -0.00046388,0.000582462 -0.000256985,-4.7411e-05 -0.00368106,-0.00314907 -0.0013667,-0.000823051 -0.000737604,-0.00032555 -0.00076617,-0.000264685 -0.0015939,-0.00033899 -0.00434668,-0.000238431 -0.00022055,-0.000151622 -0.000739845,-0.00845699 -3.14437e-05,-0.000788619 0.000156909,-0.00157032 0.000445307,-0.00152336 0.000720842,-0.00143243 0.000975561,-0.00130016 0.0022044,-0.00212097 z M 0.0767549,0.0349233 l 0.000948449,-6.44148e-05 0.000942809,0.0002231 0.000804126,0.000502494 0.00057003,0.000722268 0.00111229,0.00366832 0.00191554,0.00852077 0.000615383,0.00171306 0.000787942,0.00141875 0.000997779,0.00129797 0.00082229,0.000832822 0.00300195,0.00267237 7.34626e-05,0.000139034 -4.14408e-05,0.000149693 -0.00114433,0.00157187 -0.000901955,0.00167631 -0.000335315,0.000918997 -0.000377054,0.00181335 -4.24372e-05,0.00158076 0.000635062,0.00739187 0.000116788,0.00231485 -2.76579e-06,0.00210114 -6.81343e-05,0.00113709 -0.000187551,0.00112583 -0.000333834,0.00120491 -0.00278535,0.0069043 -0.000709413,0.00153326 -0.000863384,0.00146575 -0.00100977,0.00138536 -0.00533223,0.0053744 -0.00139607,0.00127901 -0.00161921,0.00124773 -0.0017323,0.00111415 -0.00183247,0.000972098 -0.00191906,0.000822612 -0.00199156,0.000666771 -0.00204969,0.000505662 -0.00209347,0.000340335 -0.00245857,0.000191869 -0.00232689,-3.17396e-05 -0.00230829,-0.000234494 -0.00632241,-0.000938292 1.1065e-05,-4.42395e-05 -0.00439695,-0.00045078 -0.00221393,-5.75046e-05 -0.00221084,0.000121365 -0.0021905,0.000299286 -0.00215307,0.000474873 -0.00108054,0.000118812 -0.000701016,0.000207567 8.1371e-05,-0.000714565 -1.67582e-05,-0.0010062 0.000744051,-0.00303752 0.0010189,-0.0029701 0.00128662,-0.00288192 0.00154532,-0.00277361 0.00179322,-0.00264592 0.00202857,-0.00249975 0.00224974,-0.00233612 0.00245518,-0.00215618 0.0026452,-0.00218737 0.00690151,-0.00470461 0.000937128,-0.000699803 0.000865951,-0.000772682 0.000788022,-0.000839535 0.000666189,-0.00084706 0.000611448,-0.000936403 0.000560731,-0.00106848 0.000710323,-0.00198119 0.000309171,-0.00170195 4.48063e-05,-0.00183783 -0.000112524,-0.00108438 -0.00021508,-0.00107135 -0.000316009,-0.00105021 -0.000414546,-0.00102114 -0.000509951,-0.000984357 -0.000591334,-0.000925701 -0.000698659,-0.00090323 -0.00632207,-0.00741564 -0.000563026,-0.000811456 -0.000216383,-0.000438473 -0.00031141,-0.00101186 8.26381e-05,-0.00056153 -0.000333961,-0.00240493 0.000211668,-0.00104836 0.000495255,-0.000965047 0.000472448,-0.000565607 0.000570693,-0.000483904 0.00193108,-0.00103861 0.0223913,-0.00351676 z M 0.0350594,0.0662588 l 0.00125958,-0.000922701 0.00687395,-0.0061029 0.00100519,-0.000770879 0.00091018,-0.000536806 0.0100785,-0.00514031 0.000254432,8.07237e-05 0.0024472,0.00288727 0.000843372,0.0011653 0.000515164,0.00089863 0.000769404,0.00190142 0.000248597,0.000988855 0.000215874,0.00201781 -0.000163347,0.00202194 -0.000537806,0.00196689 -0.000896543,0.00185427 -0.00122905,0.00168738 -0.0015256,0.00147111 -0.0078746,0.00542237 -0.00270735,0.00200796 -0.00251438,0.00220787 -0.00230379,0.00239233 -0.00207707,0.00256005 -0.0018358,0.00270985 -0.00158167,0.00284069 -0.00131644,0.00295164 -0.00104198,0.00304193 -0.000760211,0.00311092 -0.000367724,0.000920422 -0.000215212,0.00141999 -0.0014682,0.000493742 -0.000903659,0.000456299 -0.00115897,0.000276153 -0.00236279,0.000353544 -0.00350296,0.000315001 -0.000120044,-8.21704e-05 -4.49942e-05,-0.000150399 0.000865833,-0.00896955 -3.58634e-05,-0.00059162 -0.00634451,-0.0191581 -0.000104291,-0.00063724 0.000107462,-0.000658895 0.000197381,-0.000423459 0.00027559,-0.000363054 0.000759564,-0.00054347 0.0159446,-0.00663369 0.00142297,-0.000737108 z M 0.0516214,0.141526 l -0.00274693,0.00237051 -0.000937778,0.000626725 -0.000707564,0.000290406 -0.00746808,0.00240367 -0.000830784,0.000359921 -0.000749106,0.000487161 -0.000920867,0.000935512 -0.00469545,0.00636295 -0.00337068,-0.000740659 0.00278072,-0.00536733 0.000379538,-0.000502586 0.000503532,-0.000401422 0.0161458,-0.00860682 0.00025898,3.43382e-06 0.0018194,0.00105697 0.000576356,0.000433834 3.86108e-05,0.000150025 -7.57234e-05,0.000137706 z M 0.190276,0.0222685 l -0.0017164,-0.00035299 -0.00726829,-0.00230975 -0.00701936,-0.00211445 -0.00426964,-0.00157511 -0.00627829,-0.002972 -0.00438085,-0.00261328 -0.00405681,-0.00324846 -0.0113839,-0.00683547 -0.00280495,0.00123472 -0.000165841,-0.000463041 -0.000316032,-0.000495966 -0.000756871,-0.000522705 0.000548761,0.00134395 -4.4707e-05,0.00035783 -0.000637046,0.00140418 -0.000743708,0.000970761 -0.000373757,0.000305723 -0.000561369,0.00040193 -0.00142424,0.000716535 -0.0028526,0.00116544 -0.0028024,0.00104267 -0.000849097,0.000112344 -0.000216948,0.000267541 -0.00167438,-0.00022474 -0.000864129,0.000161568 -0.00042745,0.000234149 -0.000361412,0.000330508 -0.000228794,0.00033708 -0.000158294,0.000420055 -0.000163402,7.5974e-05 -7.5607e-05,0.000185469 -0.0228438,0.00885416 -2.01768e-05,-4.68344e-05 -0.000437003,0.000157678 -0.00257695,-0.000254159 -0.00537914,0.00165559 -0.00141966,0.000369458 -0.00240967,0.00130707 -0.00235642,0.00072428 -0.000391337,-0.000116247 -0.0086164,0.00265175 -0.00148159,-0.00311301 0.000544385,-0.000216625 -0.000135605,-0.000402289 4.03188e-05,-0.000239106 0.000174634,-0.000282556 -0.000377321,-0.000313113 -5.789e-05,-0.000218804 5.1373e-05,-0.000222574 -0.000301705,-0.000429152 9.37486e-05,-0.000407457 -0.000813629,-0.000626336 -2.08093e-05,-0.000304936 -0.000244423,-0.000400719 -0.000553253,0.000116918 -0.000394202,-8.9244e-05 -0.000280662,-0.000213045 -1.72316e-05,-0.000184642 -0.000144377,-0.000208044 -0.000631326,-0.000452709 -0.000360567,0.000299966 -0.000288061,2.84571e-05 -0.000168465,0.00017281 -0.000579822,-2.09539e-05 -0.000428561,-0.000349124 -0.000222329,-0.000337375 -6.56205e-05,-0.000273873 -0.00241766,0.00110429 0.000992151,0.0020871 -0.00780022,0.00310327 -0.00337476,-0.000947808 0.000938756,-0.00279583 -0.00250783,-0.000704791 -0.00713179,0.00301461 -0.00117823,0.000507495 0.000486563,0.0048361 -4.86189e-05,0.00161215 -2.06055e-05,0.000153552 -0.000447196,-8.25346e-05 -0.0003087,0.0013498 -0.00092123,0.00272331 -0.00192772,0.0005542 -0.000480919,-0.00139985 0.000565982,-0.000162711 -0.00034034,-0.000990664 -0.00162915,0.000468346 0.000201238,0.000585787 -0.00162071,0.000465899 -0.0001577,-0.000459069 -0.000294208,0.000292834 -9.05891e-05,0.000301894 -0.000306612,0.000447538 -0.000205914,0.000144652 -4.93731e-05,0.00018014 -0.000287792,0.00017673 7.4768e-05,0.000154838 -0.000149719,0.000378517 -0.000231993,0.000135852 -0.00019796,-3.5045e-05 -0.000327105,0.000116636 -0.000260468,-5.30926e-05 -0.000210385,-0.000193914 -0.000386516,0.000495438 -0.000351808,-3.63359e-05 0.000553239,0.00150085 -0.000536775,0.000650901 -0.000237657,-0.000339996 -0.00217596,0.000731581 -0.000666362,5.18351e-06 -0.000769482,-0.000702075 0.000372195,0.000776036 -0.000103767,0.00026932 -0.000453416,0.000251007 -0.000187094,2.08251e-05 -9.2235e-05,0.000160098 -0.000541282,0.000253296 -0.000400554,2.71281e-06 -0.000163028,-0.000232761 -0.000182427,0.000187813 -2.85391e-05,0.000439629 -0.000294374,0.000181363 -0.000278077,4.14403e-05 -0.000437662,0.000438101 -0.00037708,0.000117679 -0.000901751,4.94214e-05 -0.000250367,-7.68917e-05 -0.000111163,-0.00021096 -0.000196149,-3.0145e-05 -0.000250101,-0.000299532 -0.000493321,-0.00024527 -0.000234766,-0.000358092 0.000136496,-0.000382701 -0.000513873,-1.22506e-06 -0.000166676,0.00015949 0.000153194,0.000172854 3.46654e-05,0.00129591 -4.40486e-05,0.000239042 -0.000166127,0.000112495 -0.000171081,0.000260751 0.000943268,3.82774e-05 0.000259508,0.000148612 0.000248281,0.000739108 2.57849e-05,0.000541197 -0.000144263,0.000217168 -0.000482779,0.000204704 -0.000236349,0.000285648 -0.000828144,5.07997e-05 -0.000640159,-0.000322963 0.000196481,0.000441804 -0.000109676,0.000402392 -0.000262715,0.000119706 -0.000448326,-3.0013e-05 -0.0016269,0.00129379 0.000838734,0.000888514 0.00166441,-0.00131452 0.000451183,0.000446819 0.00133349,-0.000686203 0.000331311,0.000961148 -0.00942332,0.00695602 -0.000729313,0.000443282 -0.0052508,0.00215686 -0.00118394,-0.000388962 -0.00108614,0.000435663 -0.000279182,0.000974298 -0.0138148,0.00554185 0.000433376,0.000909126 0.000543068,-0.000216045 0.000395966,0.000555106 0.0206131,-0.00828092 0.00105004,-0.000562317 0.00103521,-0.000703189 0.0130604,-0.00961023 0.00148043,-0.000729797 0.00160082,-0.000471459 0.00136975,-0.000181011 0.00141061,0.000150914 0.00120836,0.000347329 0.000730682,0.000389704 0.00402596,0.0026256 0.000429709,0.000456278 0.000771444,0.00123729 0.000350911,0.00113301 0.000544573,0.000977763 0.00381498,0.00445086 -4.65289e-07,0.000137462 -0.00010561,0.000122916 -0.00988205,0.00504902 -0.00104529,0.000621204 -0.00099271,0.000768936 -0.00693353,0.0061534 -0.00135023,0.000951578 -0.00113136,0.000567332 -0.0160287,0.00667271 -0.000435928,0.000261308 -0.000457972,0.000415151 -0.000343054,0.000489149 -0.000215387,0.000532516 -8.7802e-05,0.000570354 3.06932e-05,0.000478912 0.000683065,0.00215742 -4.94256e-05,-1.38342e-05 0.00580606,0.0175071 -0.00166231,0.0172072 0.0109383,-0.00103992 0.000508418,0.00332685 0.000821284,0.00327418 0.00112802,0.00319697 0.00142632,0.0030958 0.00171395,0.00297143 0.00119541,0.00176147 0.00125479,0.00164863 0.00223629,0.00260775 0.00139222,0.00147995 0.00150388,0.00138569 0.00160792,0.00128441 0.00188772,0.00129329 8.43035e-05,0.000133399 -0.00011833,0.000234737 -0.0159391,0.00852829 -0.000395794,0.000342679 -0.000464022,0.000614131 -0.00310311,0.00598831 0.0044804,0.000984506 0.00492302,-0.00667138 0.000816619,-0.000829606 0.000664303,-0.000432013 0.000736734,-0.000319176 0.00745868,-0.00240057 0.000798005,-0.000327605 0.00105779,-0.00070674 0.00310811,-0.0026398 0.00104966,0.000386883 0.00341322,0.00103382 0.0025557,9.8193e-05 3.13778e-05,-0.000505585 0.0139063,0.0008002 0.000133265,6.36239e-05 4.54905e-05,0.000155089 0.000606485,0.000172251 0.000260535,0.000319003 0.000429019,0.000201155 0.000158906,-6.62623e-05 0.0014578,-3.52484e-05 0.00183255,-0.000242829 0.00268851,-0.00053218 0.000165423,-0.000261535 0.000378469,-0.000109 0.00577411,-0.00112348 -2.12681e-05,-0.000132716 0.0052986,-0.000860607 0.00183653,-0.000447267 0.00456106,-0.00141185 0.000633538,-4.48201e-05 0.000510707,8.10878e-05 0.000384722,0.000187504 0.000316711,0.000292209 0.000199161,0.00035872 7.5068e-05,0.000413829 -5.00058e-05,0.000351296 -0.00019142,0.000388796 -0.000482683,0.000521669 -0.000613073,0.000468793 -0.00113165,0.000570449 -0.00110983,0.000233705 -0.00510571,0.000545598 -1.62929e-05,-0.000125988 -0.00550692,0.000594742 -0.000749142,0.00014438 -0.000708626,0.000264918 -0.000937175,0.000603563 -0.00072647,0.00081061 -0.000340372,0.00062678 -0.00106083,0.00296955 -0.000317702,0.000522268 -0.000416429,0.000460684 -0.000778524,0.000542569 -0.00493379,0.00254694 -0.000921444,0.000554911 -0.00636572,0.00520815 -0.000782107,0.000422629 -0.000576915,0.000171635 -0.00060084,7.69905e-05 -0.00253582,-0.000282897 -0.00160514,1.35266e-05 0.000180662,0.000449913 0.00139239,-1.17347e-05 0.0022202,0.000283517 0.00103915,-8.51937e-05 0.000663502,-0.000194115 0.000900076,-0.000482148 0.00637315,-0.00521339 0.000860299,-0.000517903 0.00493531,-0.00254774 0.000886056,-0.000617511 0.000473945,-0.000524316 0.000361582,-0.000594405 0.000803239,-0.00213468 0.000498434,-0.00110972 0.000554424,-0.000741034 0.000750293,-0.00057937 0.000582733,-0.000275201 0.000627161,-0.000175596 0.00583092,-0.000643295 -1.62931e-05,-0.000125989 0.00521401,-0.000559467 0.00134662,-0.00033237 0.000815452,-0.000396932 0.000681008,-0.000488195 0.000583381,-0.000589519 0.000788974,-0.00106734 0.000503782,-0.000470415 0.000458642,-0.000276692 0.000967662,-0.000419244 0.000399278,-0.000275576 0.00101331,-0.00134714 0.000803394,-0.000680833 0.000637027,-0.000329048 0.00161495,-0.000595289 0.00240265,-0.000852513 0.0014886,-0.000450104 0.000566842,-0.000155277 8.44569e-05,0.000324105 0.0014967,-0.000262718 0.00151619,-0.000141235 0.00152391,-1.86532e-05 0.00151978,0.000104072 0.0116244,0.00128084 0.0103795,0.00171632 0.00127012,7.47925e-05 0.00127253,-2.18822e-05 0.00126614,-0.000118407 0.00125101,-0.00021411 0.00122723,-0.000308337 0.0217361,-0.00664251 0.00765799,-0.00241285 0.000946141,-0.000186375 0.00109245,-8.5421e-05 0.000938509,4.62764e-05 0.001262,0.000225796 0.000812585,-0.000706954 -0.00094242,-0.000257953 -0.00142499,-0.000196524 -0.00144088,2.38763e-05 -0.00141626,0.000243606 -0.00780363,0.00245179 -0.0217247,0.00663902 -0.00133055,0.00032293 -0.0012114,0.000188406 -0.00206549,0.000104035 -0.00140589,-8.49327e-05 -0.010206,-0.00169442 -0.00867109,-0.000958729 -0.00178687,-0.00590822 -0.00163819,-0.00115621 0.000744025,-0.000938236 0.00142389,-0.00240283 0.000613584,-0.000855036 0.000773482,-0.000738755 0.00237028,-0.00159019 0.000635873,-0.000499924 0.00053305,-0.000591909 0.000414544,-0.000666475 0.000373984,-0.00109617 0.000147709,-0.00223699 0.000371161,-0.00106218 0.000410887,-0.000642877 0.000527464,-0.000567339 0.00191409,-0.00156636 0.000536857,-0.000699272 0.000392294,-0.000775394 0.000291403,-0.00125129 0.000308353,-0.00345205 0.00024028,-0.000793613 0.000466197,-0.00110805 -0.000553085,-0.000194501 -0.000466203,0.00110805 -0.000270959,0.000894925 -0.000315505,0.00350427 -0.000258419,0.00110964 -0.000347885,0.000687612 -0.000476083,0.000620107 -0.00219027,0.00183816 -0.000745367,0.00105677 -0.000418547,0.00119778 -0.000100098,0.00190477 -0.000127244,0.000663627 -0.000417826,0.000933984 -0.000417908,0.00055497 -0.00080524,0.000690208 -0.00241274,0.00162095 -0.000848336,0.000810246 -0.000672965,0.000937779 -0.00149169,0.00249692 -0.000934224,0.00108807 -0.000542035,0.000483463 -0.00121291,0.000827035 -0.00135281,0.000619758 -0.00649712,0.00177733 -0.000604051,0.000243982 -0.00112917,0.00062419 -0.000996978,0.000790209 -0.000439716,0.000450376 -0.00164527,0.00232901 -0.000628362,0.000510632 -0.00127002,0.000706181 -0.000309323,0.000323583 -0.000482495,0.000783933 -0.000437849,0.00053912 -0.000927477,0.00069315 -0.00293296,0.00109442 -0.00598081,0.00129792 -0.00525272,0.000663123 -0.0101749,0.00070421 -0.000249185,3.61512e-05 -0.000237241,0.000139698 -0.000472604,-8.94865e-06 -0.000379448,0.00036029 -1.52973e-05,0.000296768 -0.0141081,-0.000811803 6.06898e-05,-0.000977871 -0.000704273,-3.5059e-05 -0.00253118,0.000105123 -0.00111376,-0.000107018 -0.00352846,-0.00107597 -0.000909176,-0.000451654 -0.0025341,-0.00154402 -0.000568855,-0.000384863 -0.000643289,-0.000689897 -0.00155763,-0.00124423 -0.00145684,-0.00134234 -0.00252966,-0.0027834 -0.00200811,-0.00249788 -0.00141991,-0.00206701 -0.00159268,-0.00274557 -0.0013415,-0.00285551 -0.00108133,-0.00294628 -0.000813934,-0.00301729 -0.000541093,-0.00306806 -0.000264643,-0.00309825 1.35643e-05,-0.00310766 0.000258137,-0.000953972 0.000136906,-0.00127958 0.00124783,-0.000410794 0.000901648,-0.000448701 0.00208828,-0.00046664 0.00212539,-0.00029502 0.00214565,-0.000121064 0.00214893,5.38518e-05 0.00287091,0.000337279 0.000937632,0.000366781 0.00728212,0.00107611 0.00199313,0.000186179 0.00228741,3.6764e-05 0.00228179,-0.000150975 0.00212147,-0.000311685 0.00235184,-0.000547109 0.00215545,-0.000700893 0.00200724,-0.000841585 0.00200411,-0.00104577 0.0019239,-0.00122942 0.0017482,-0.00134902 0.00160878,-0.00148695 0.00389169,-0.00393588 0.00219474,-0.00302753 0.000896916,-0.00152599 0.000737674,-0.0015957 0.00351506,-0.00872413 0.000372293,-0.00125731 0.000168094,-0.000871337 9.30236e-05,-0.00158027 0.000168223,-0.000165213 0.00395958,0.000112385 0.00141544,0.000301036 0.00133541,0.000524151 0.00121368,0.0007309 0.00054917,0.000436085 0.0052996,0.00462389 2.23549e-05,0.000130592 -0.00143176,0.00342794 -0.000230771,0.00111599 -0.000276004,0.00798335 0.000311552,0.00238521 0.000439781,-5.85704e-05 -0.000305122,-0.00224132 0.000315185,-0.00839576 0.000170962,-0.000671731 0.00132514,-0.00310963 0.000169479,-6.14998e-05 0.00017025,6.18663e-05 0.00270867,0.00235051 0.0015145,0.0014823 0.00300412,0.00266831 -0.000250897,-0.000418293 2.42656e-05,-0.000205435 0.000201329,-0.000168877 -0.000153133,-0.000168266 3.09353e-05,-0.000345545 0.000181348,-0.000233515 0.000228404,-8.82024e-05 0.000147696,-0.000331562 0.000486744,-0.000587993 0.000164607,-0.000383309 0.000394072,-5.52823e-05 0.000300127,-0.000223438 0.000648742,6.48247e-05 6.00643e-05,7.75586e-05 0.000168153,2.56204e-05 0.000556141,-0.000298542 0.000841812,-0.000120035 -0.0039639,9.18192e-05 -0.00153223,-0.000216612 -0.0010219,-0.000441276 -0.000690481,-0.000351541 -0.000616743,-0.000451856 -0.00499115,-0.00438956 2.84009e-05,-0.000154973 0.000546681,-0.000784717 0.000273029,-0.000787494 6.01572e-05,-0.000548787 -8.87302e-05,-0.00109217 1.99772e-05,-0.000852209 0.00017474,-0.000837293 0.000324631,-0.000799042 0.00046547,-0.000738518 0.000593334,-0.000657413 0.00231765,-0.00203536 0.00081492,-0.00127643 0.000280424,-0.000731261 0.000155051,-0.0011519 -0.000266144,-0.00280936 4.62065e-05,-0.00115144 0.000275335,-0.000907109 0.00145561,-0.00304615 0.000180557,-0.00106297 0.000128283,-0.00275154 0.000228589,-0.000123062 0.00504706,0.000164151 0.00148884,-1.68226e-05 0.00148026,-0.000146945 0.00145811,-0.000275723 0.0014226,-0.000401972 0.00137405,-0.000524537 0.00394024,-0.00171115 0.00092038,-0.000451731 0.000867397,-0.000532251 0.00932242,-0.00771234 0.00346626,-0.00303035 0.00302252,-0.00282925 0.000826154,-0.00108872 0.00065504,-0.00115965 0.000420461,-0.00122633 0.000174147,-0.00127532 -7.77649e-05,-0.00128326 -0.000132882,-0.000631676 -0.000448407,-0.00121802 -0.000894039,-0.00155214 -2.83123e-05,-0.000272154 7.20325e-05,-0.000209226 0.000243442,-0.000239264 0.00633522,-0.00313213 -0.00194928,-0.000832578 -0.00651861,0.00322175 -0.00438762,-0.0013101 -0.00109037,-0.000468415 -0.00104007,-0.00055596 -0.000981388,-0.000639025 -0.000914807,-0.000716945 -0.000840858,-0.000789088 -0.000760137,-0.000854877 -0.000673296,-0.000913781 -0.00209315,-0.00466478 -0.000968875,-0.00238139 -0.000150722,-0.000909847 0.000121509,-0.00068279 0.000189214,-0.000428287 0.000269184,-0.000390824 0.000534449,-0.000489342 0.000451061,-0.000257751 0.000839904,-0.000335341 0.00074941,-0.00069409 0.00549497,-0.00219625 0.00162309,-0.000803601 0.00156487,-0.000895051 0.000488289,-0.000205766 0.00103886,-0.000157108 0.00394382,0.000149525 0.000995704,0.000114442 0.000434833,0.000118397 0.00226276,0.00118444 0.011682,0.00693539 0.00400528,0.00212027 0.00438758,0.00200118 0.00229415,0.000918026 0.00281885,0.000967247 0.0107722,0.00307188 0.00597921,0.00164156 0.00194901,0.000468038 0.00241102,0.000383985 0.00248796,0.000180595 0.00235598,-1.29543e-05 0.00281667,-0.000201919 0.000377321,0.000152405 0.000149359,0.000284584 -2.54009e-05,0.000256708 -0.000141565,0.000204241 -0.000331888,0.000220163 -0.000669427,0.000171135 2.59402e-05,0.000168243 -0.00297465,0.000461684 -0.00112183,0.000418769 -0.00131114,0.000749929 -0.00160092,0.00125839 -0.00196974,0.00207286 -0.000669075,0.000452908 -0.00204009,0.00105246 -0.000524053,0.000366421 -0.000937439,0.000847545 -0.000768017,0.000979858 -0.000313409,0.000530927 -0.00113543,0.00236267 -0.000478984,0.000649878 -0.000603929,0.000555997 -0.00073397,0.000455666 -0.00206912,0.000857975 -0.000915871,0.000543153 -0.000731698,0.000653806 -0.0011089,0.00132594 -0.000590705,0.000445809 -0.000680577,0.00028712 -0.00379776,0.00123573 -0.000627074,0.000312572 -0.000591629,0.000468233 -0.00383932,0.00456045 -0.00217972,0.00204784 -0.000878363,0.00129289 -0.000419031,0.00102688 -0.000227365,0.00107616 -4.08171e-05,0.000860771 0.000112457,0.00304772 -0.000147779,0.00131859 -0.000284966,0.000716504 -0.000328723,0.000568043 -0.000400038,0.000521634 -0.000643845,0.000616988 -0.000748991,0.000508146 -0.000917496,0.000417248 -0.00230101,0.000514052 -0.00124596,0.000450662 -0.000821823,0.000471671 -0.00173994,0.00122811 -0.000786706,0.000380517 -0.00116354,0.000214278 -0.00250627,-0.000186589 -0.000754869,3.3553e-05 -0.000464184,0.000124131 -0.000450042,0.00026366 -0.000246628,0.00036585 -0.000138709,0.000465561 -4.69834e-05,0.000728244 0.000691134,5.77662e-06 3.53626e-05,-0.00061526 0.000120288,-0.00038919 0.000141557,-0.000161275 0.000347368,-0.000141851 0.000987579,-4.09545e-05 0.00226804,0.000181098 0.000743733,-7.60586e-05 0.000682838,-0.000180535 0.000898384,-0.000429513 0.00177825,-0.00125179 0.000661072,-0.000385975 0.00120119,-0.00044667 0.00176769,-0.000354873 0.00101521,-0.000341881 0.000908889,-0.000482398 0.000806201,-0.000616444 0.0009666,-0.00113595 0.000682322,-0.00135564 0.000220337,-0.00131057 -0.000109242,-0.00339501 0.00011579,-0.00110687 0.000488641,-0.00137713 0.000842361,-0.00122583 0.00208797,-0.00194424 0.00294357,-0.00352739 0.000117976,6.33489e-05 0.000796971,-1.07895e-05 0.000109848,0.000204878 0.000132929,5.83821e-05 0.000232255,0.000294057 0.000305542,0.00013446 0.000126296,0.000174025 0.000219069,-9.228e-06 0.00037119,0.000269307 0.000144776,-3.20267e-05 0.000166097,-0.000158641 0.000198914,-2.43956e-05 0.000179859,-0.00021553 -0.000167162,-0.000270395 0.000104666,-8.85483e-05 -3.98218e-05,-3.03371e-05 0.000368996,-2.14385e-05 0.000206929,0.000234688 0.000270284,0.000160062 0.000285265,-9.47185e-05 0.000126102,0.000155965 5.50289e-05,0.000246915 0.000266705,-0.000166789 0.000160168,0.000111406 0.000104813,0.000285287 0.000177232,-4.31624e-05 3.45257e-05,-0.000182721 -0.000243788,-0.000444745 0.000186216,-0.000201301 -0.000146827,-0.000634326 -0.000311437,-2.6041e-05 -0.000275782,-0.000211481 -0.000425963,-0.000132449 -0.000662489,-4.76869e-06 0.000296477,-6.23122e-05 -7.50929e-05,-9.59323e-05 -0.000379061,9.37698e-05 0.000319398,-0.000132955 0.000393162,-0.00033861 -0.000123456,-0.000365483 0.000201641,-0.000152168 -0.000385112,-0.00059625 0.00219032,-0.000703586 0.000754807,-0.00032332 0.00071744,-0.000533193 0.00115594,-0.00137334 0.000637255,-0.000569494 0.000825956,-0.000486225 0.00208575,-0.000867009 0.00102808,-0.000680635 0.000818657,-0.00088705 0.000384884,-0.00063635 0.000753641,-0.00157362 0.000271061,-0.000440493 0.000667511,-0.000804424 0.000815734,-0.000680536 0.000455186,-0.000286596 0.0026494,-0.00118276 0.00108574,-0.000731013 0.000925167,-0.000896978 0.00160333,-0.00224721 0.00107178,-0.000887439 0.000845113,-0.000427009 0.000916495,-0.00027767 0.00264621,-0.000369002 1.60003e-05,0.000103767 0.00126964,-0.000310384 0.00121007,-0.000448822 0.00136404,-0.00138597 0.000339671,-0.000513236 0.000628087,-0.000455385 0.000708745,-0.000395502 0.00711652,-0.00283316 0.00148927,-0.000494408 0.00178572,-0.0004513 0.00184525,-0.000318006 0.00151078,-0.000149631 0.00192099,-5.98103e-05 0.00160138,6.43793e-05 0.00144441,0.000153134 0.00339691,0.000617587 0.0026621,0.000628424 -0.00244914,-0.000994927 -0.00285467,-0.000287195 -0.00226923,-0.000499971 -0.00268243,5.48493e-07 -0.00262965,0.000189394 -0.00282757,0.000386294 -0.00224291,0.000680569 -0.00153186,0.000316977 -0.00306681,0.00121619 -0.00158128,0.000387435 -0.00112075,0.000191214 -0.00234022,0.000766417 -0.00213314,0.000395099 -0.00221789,0.000185457 -0.00246144,5.03525e-05 -0.00447645,-0.000431645 -0.000957508,-0.00020974 -0.00142974,-1.58299e-05 -0.00177529,-0.000377426 z "/>
<path d=""/>
</g></g></svg>