<?xml version="1.0" encoding="UTF-8" standalone="no"?>
<!DOCTYPE svg PUBLIC "-//W3C//DTD SVG 1.1//EN" "http://www.w3.org/Graphics/SVG/1.1/DTD/svg11-flat.dtd"
[
<!ATTLIST g xmlns:fme CDATA #FIXED "http://www.safe.com/fme" >
<!ATTLIST path fme:district_id CDATA #IMPLIED fme:precinct_id CDATA #IMPLIED fme:id CDATA #IMPLIED >
<!ATTLIST ellipse fme:district_id CDATA #IMPLIED fme:precinct_id CDATA #IMPLIED fme:id CDATA #IMPLIED >
<!ATTLIST text fme:district_id CDATA #IMPLIED fme:precinct_id CDATA #IMPLIED fme:id CDATA #IMPLIED >
<!ATTLIST use fme:district_id CDATA #IMPLIED fme:precinct_id CDATA #IMPLIED fme:id CDATA #IMPLIED >
]>
<svg xmlns="http://www.w3.org/2000/svg"  viewBox="-0.00026627 -0.00026627 0.0218342 0.0250646"><g xmlns:fme="http://www.safe.com/fme" fill="none" stroke="black" stroke-width="0.000002662703927" transform="translate(0,0.0245321) scale(1, -1)">
<g id="1" >
<path d="M 0.0212881,0.00108713 l 1.35233e-05,-0.000573364 -0.000210267,-0.000173297 -0.0115824,-0.000340466 -0.00137346,0.000192914 -0.0013174,0.000404232 -0.00122278,0.000603718 -0.00109236,0.000785531 -0.0022044,0.00212097 -0.000975561,0.00130016 -0.000720842,0.00143243 -0.000445307,0.00152336 -0.000156909,0.00157032 3.14437e-05,0.000788619 0.000727043,0.00840098 6.66012e-05,0.000137171 0.000166751,7.04597e-05 0.00434668,0.000238431 0.0015939,0.00033899 0.00076617,0.000264685 0.000737604,0.00032555 0.0013667,0.000823051 0.0036971,0.00316182 0.000167868,4.8683e-05 0.000162239,-6.71945e-05 0.000428692,-0.00062693 0.000233538,-0.000676788 5.16517e-05,-0.000471444 -8.87979e-05,-0.00107252 2.43725e-05,-0.0009262 0.0001923,-0.000909627 0.00035488,-0.000867772 0.000814404,-0.00117091 0.00261589,-0.00233765 0.000752513,-0.00118236 0.000252384,-0.000658136 0.00013955,-0.00103672 -0.000287104,-0.0032046 7.84223e-05,-0.000865169 0.00024196,-0.000839462 0.00125168,-0.00252325 0.000326327,-0.000921105 8.06046e-05,-0.000642127 -5.25958e-06,-0.00244501 z "/>
</g></g></svg>