<?xml version="1.0" encoding="UTF-8" standalone="no"?>
<!DOCTYPE svg PUBLIC "-//W3C//DTD SVG 1.1//EN" "http://www.w3.org/Graphics/SVG/1.1/DTD/svg11-flat.dtd"
[
<!ATTLIST g xmlns:fme CDATA #FIXED "http://www.safe.com/fme" >
<!ATTLIST path fme:district_id CDATA #IMPLIED fme:precinct_id CDATA #IMPLIED fme:id CDATA #IMPLIED >
<!ATTLIST ellipse fme:district_id CDATA #IMPLIED fme:precinct_id CDATA #IMPLIED fme:id CDATA #IMPLIED >
<!ATTLIST text fme:district_id CDATA #IMPLIED fme:precinct_id CDATA #IMPLIED fme:id CDATA #IMPLIED >
<!ATTLIST use fme:district_id CDATA #IMPLIED fme:precinct_id CDATA #IMPLIED fme:id CDATA #IMPLIED >
]>
<svg xmlns="http://www.w3.org/2000/svg"  viewBox="-0.00131096 -0.00131096 0.107499 0.100952"><g xmlns:fme="http://www.safe.com/fme" fill="none" stroke="black" stroke-width="0.000013109633083" transform="translate(0,0.0983302) scale(1, -1)">
<g id="AW-OH" >
<path d="M 0.0440166,0.0817647 l 0.000226934,-0.000380132 -0.00184579,-0.00241461 -0.00207427,0.00387887 0.00234682,0.00117097 0.0013463,-0.0022551 z M 0.036791,0.0512265 l 0.0023031,0.00164777 0.00041778,5.92293e-05 0.000266544,-0.000177313 0.00186272,-0.00248161 6.91458e-05,-0.000374679 -0.000132841,-0.00020523 -0.000538953,-0.00036842 -0.00220041,-0.000788542 -0.00179266,-0.000260827 -0.00390554,0.000455547 8.38956e-06,0.000216897 0.000345927,1.08705e-05 0.000273852,0.000102861 0.00302295,0.00216345 z M 0.00433408,0.0824241 l 0.000638207,5.81504e-05 0.00059806,0.000211808 0.00121755,0.00092177 0.000704642,0.000307424 0.000899566,-0.00637515 -0.00272353,0.000451663 -0.00137766,0.000125494 -0.00318918,3.21707e-05 -6.17404e-05,0.000947641 0.000130147,0.000814213 0.00026937,0.000719064 0.000905503,0.00180243 0.00198906,-1.66803e-05 z "/>
</g><g id="AW-NV-003" >
<path d="M 0.037178,0.0568374 l 0.00111426,-0.000999706 0.00357819,-0.00475166 0.000277051,-0.000252219 0.000232479,-9.42809e-05 0.000171985,0.000922323 3.27292e-06,0.000858609 -7.885e-05,0.000552397 -0.000352903,0.00128912 -1.92376e-05,0.00073322 0.000311088,0.00102835 0.000272539,0.000433817 0.000421879,0.000457706 -0.000737339,-0.000448804 -0.000690422,-0.000283305 -0.000819236,-0.000198042 -0.000678541,-6.31851e-05 -0.000670733,1.96866e-05 -0.000876654,0.000153838 -0.000808934,0.000286955 -0.000649901,0.000355184 z "/>
</g><g id="EQ-CV" >
<path d="M 0.0893012,0.0139814 l 0.00145915,0.00119993 8.72375e-05,-6.86987e-05 0.00100883,-0.00178926 0.000247513,-0.00113445 1.01e-06,-0.000685015 -0.000217341,-0.00054158 -0.000344836,-0.000476526 -0.000331707,-9.65109e-05 -0.000938829,0.000384925 -0.000228691,0.000179071 -0.000345853,0.00102656 -0.000250775,0.000458943 -0.000409485,0.000540799 -0.000475948,0.000381185 0.000739721,0.000620626 z M 0.0936125,0.0187114 l 0.000143066,-0.000200144 0.000323264,-0.00023783 0.000356434,-5.98788e-05 0.00019726,-0.000301515 0.000553106,-0.000152205 6.53748e-05,-0.000170582 0.000413932,-0.00010045 0.000477537,0.000199227 -0.000166994,-0.000152009 -1.01001e-05,-0.000251048 0.00059087,-0.000449752 0.000693342,6.62792e-05 6.6153e-05,0.000184519 0.000125228,-5.98211e-05 -5.67286e-05,0.000233032 0.000162132,0.000158824 0.000346104,5.33238e-05 0.000100833,-0.000262776 -9.87456e-05,-0.000231633 0.000137421,-7.34762e-05 -1.10851e-05,-0.000112775 0.000180151,-1.6211e-06 0.000129687,0.000125252 0.000117436,-9.58716e-05 0.000231353,0.000169487 0.000432938,9.54316e-05 -6.91273e-05,0.000456636 0.000237496,5.2041e-05 0.0001319,0.000330663 0.000146782,-0.000120969 0.000438191,5.8719e-06 0.00068969,0.000334777 0.000125084,-2.11862e-05 -1.48312e-05,-0.00108462 -4.32666e-05,-0.000121514 -0.000267109,-5.17718e-05 -0.000198958,-0.000140429 -0.000135134,-0.000172609 5.29789e-05,-0.000122382 -0.000219696,-0.000232799 -0.000147848,-0.00135331 0.000348919,-0.000142964 0.000161269,-0.000150448 0.000135922,1.68348e-05 0.00019177,0.000160811 0.000472593,1.2146e-06 0.000360104,-0.000269022 -5.08922e-05,-0.000470669 5.27334e-05,-0.000144955 -9.02995e-05,-0.000134635 0.000102911,-6.55028e-05 0.000166491,5.58491e-05 0.000412113,-5.74464e-05 0.000325793,0.000100904 0.000111179,-0.000217723 0.00017629,-0.000130268 0.000229842,2.95297e-05 0.000364532,0.000215968 7.54638e-05,7.68709e-05 -1.4625e-06,0.000321753 8.47325e-05,7.59892e-05 0.000163847,8.88194e-05 0.000167004,-7.6006e-05 0.000296887,6.72994e-05 0.000164384,0.000138479 0.000145452,-1.48597e-05 -0.000241373,-0.000182932 -0.000301994,-8.30555e-05 -0.000199639,-0.000203628 -8.57073e-05,-0.00016628 4.94892e-05,-0.000445173 -9.06541e-05,-0.000624506 -0.000229882,-0.00026205 -0.000455816,-0.000158423 -3.10011e-05,-0.000128397 0.000351488,-0.000122314 0.000344223,-0.00060624 0.000371927,-0.000390438 0.000864512,-4.75264e-05 0.000125328,-0.000734817 -0.000393667,-0.000626458 -1.50669e-05,-0.000527018 0.000142297,2.03681e-05 -1.63422e-05,-0.000142074 -0.000111297,-0.000112492 1.86661e-05,-0.000194338 0.00022921,-0.000527419 5.99845e-05,-5.0573e-06 -0.00283556,-0.00709054 -0.0024984,-0.000956795 -0.00174429,0.00941787 -0.000183115,0.000503444 -0.000362723,0.000414233 -0.000393679,0.000236666 -0.000512373,0.000157949 -0.000539575,2.8459e-05 -0.000469179,-9.69388e-05 -0.000529669,-0.000284998 -0.000324145,-0.000323129 -0.000261923,-0.000501295 -0.00243419,0.00882752 0.00148449,0.000884592 0.000425944,-0.000552972 z "/>
</g><g id="AW-NV-002" >
<path d="M 0.0388593,0.0649237 l -0.000927574,-0.000296651 -0.00110244,-0.000644534 -0.000683702,-0.000645366 -0.000669458,-0.00102801 0.000219933,0.00110672 -2.16685e-05,0.00112466 -9.08229e-05,0.000280042 -0.00151112,0.00219453 -4.80203e-05,0.000138344 5.44599e-05,0.000165397 0.00039496,0.000389842 0.000313679,-1.0641e-05 0.00294818,-0.00257275 0.000533874,-0.000203481 0.000589726,1.89632e-06 z "/>
</g><g id="10" >
<path d="M 0.00373599,0.0865882 l 0.000451107,0.000257165 0.000261606,0.000440987 0.00125155,0.000481504 3.52589e-05,0.000455629 0.000143089,0.000231323 0.000206384,0.000140489 0.000187656,-0.000412732 0.000634075,0.000105571 0.000215883,0.0003481 -3.74564e-05,-0.000286391 0.000196479,-0.000148039 0.000847074,-6.28858e-05 9.83616e-05,0.000309675 0.000167004,-9.17073e-05 -5.38118e-05,-0.000193694 0.000107967,-6.8635e-05 0.000484291,0.000271339 0.000217186,-1.31175e-05 4.63824e-05,0.000191499 0.000198888,0.000131518 4.7087e-05,-0.000228407 0.000282572,0.000103722 0.00010321,-5.05356e-05 -2.06654e-05,-9.01267e-05 -0.00021796,-6.36308e-05 -1.88334e-05,-0.000153353 -0.000230693,-0.000101902 -8.56409e-05,-0.000166335 0.000589263,-0.00033908 0.000384914,-3.25934e-05 -0.000120189,-0.000163786 3.25707e-05,-0.000284591 0.000213739,-0.000268322 0.000147027,-5.09453e-05 6.08483e-05,9.43425e-05 0.000140385,-3.73046e-05 0.00019891,0.000133773 0.000505975,-2.68452e-05 -2.14186e-05,-0.000164618 -0.000402278,-0.000597767 0.000280735,-0.000189083 7.59077e-05,-0.000562013 0.000208051,-0.000637034 0.000277371,5.20015e-05 0.00095592,-0.000220281 0.000194412,-0.000310923 -1.33421e-05,-0.000586843 -0.000146832,-0.000113893 4.79026e-05,-0.000136617 0.000194055,-0.000181147 0.000350094,1.47671e-05 -8.03161e-05,-0.000128 2.56773e-05,-0.000146956 0.000364894,-5.72654e-05 -8.41958e-06,-0.000387508 0.000210966,-0.000339253 4.57055e-05,0.00012416 0.000189762,-3.77253e-05 4.57248e-05,0.000126035 0.000229635,-1.94249e-06 -0.000359333,-0.000369452 0.000147455,-0.000397238 9.48929e-05,0.000187496 0.000188139,-0.000197996 0.000603805,-0.000117986 -5.01379e-05,-7.40739e-05 -0.00015286,2.38689e-05 5.14646e-05,-0.000282626 -0.000123164,-0.000143054 0.000656319,-0.000242851 0.000511208,-0.000119593 6.15073e-06,0.000119597 0.000160472,-3.61679e-06 9.61619e-05,0.000229453 0.000138594,3.04311e-05 4.87425e-05,-6.36236e-05 -0.000183589,-0.000328043 0.000215595,7.49292e-05 6.31682e-05,-0.000102124 -7.57382e-05,-0.000164148 0.000694103,-0.000287882 0.000118649,7.78078e-05 0.000125477,0.00044141 0.000549377,3.52257e-05 0.000391136,-0.000309591 -0.000124603,-0.000111819 0.000141234,-0.000439158 -5.68196e-05,-0.000120237 0.0001811,-0.000120002 -9.37643e-06,0.000126388 0.000131093,2.14627e-05 0.000132141,-0.000118513 2.80708e-05,-0.00015375 0.000127897,0.000193061 5.51424e-05,-0.000639028 0.000443735,-0.000132716 0.000364788,0.00033634 0.000719012,0.000418379 -6.44706e-05,0.000261009 0.000322536,6.10867e-05 0.000153333,-8.27143e-05 0.000226057,0.000131536 0.000507311,3.00897e-05 0.000269087,0.000193219 -2.42087e-05,7.47935e-05 9.34906e-05,9.27118e-05 0.00018132,-2.28098e-05 0.000171658,0.00012496 4.89701e-05,-4.09565e-05 0.000249749,0.000104822 0.000230705,0.00027477 -2.12855e-05,0.000183371 0.000274443,0.000184706 0.0001147,4.49527e-06 0.000107855,0.000401665 0.00021408,-6.12215e-06 9.12955e-05,9.6634e-05 -0.000105211,3.25017e-05 0.000146141,4.39052e-05 -1.94644e-06,0.000293494 0.000118935,3.96218e-05 0.000117228,-6.97179e-05 0.000112522,0.000114837 -2.73526e-05,0.000187938 7.04264e-05,0.000125821 0.000147444,-9.88259e-05 0.000162401,0.000213575 -9.38115e-05,0.000244612 9.88545e-05,9.89738e-05 -3.81852e-07,0.000275503 -8.57228e-05,0.000149159 6.94852e-05,6.49424e-05 -0.000476795,0.000191372 0.000165178,0.000215314 0.000137032,-0.000123074 7.79218e-05,5.64184e-05 -0.000299146,0.000678217 -0.000239961,5.03967e-05 -4.27956e-05,0.000109835 -0.000215471,0.000136177 -0.00019857,-2.82326e-06 0.000104877,0.000112551 -7.7026e-05,9.02083e-05 -0.000112249,-3.37909e-06 4.94924e-05,7.7786e-05 -0.000211879,0.000335899 -0.000141713,3.58933e-05 -6.23141e-05,0.000185647 7.94829e-05,5.09624e-05 -9.79179e-05,0.000214246 -0.000170233,0.000122434 -6.50976e-05,-8.74889e-05 -0.000202019,4.68704e-05 -0.000208355,0.000394582 -0.000775142,2.69138e-05 -0.000132513,8.23979e-05 -0.000139565,-0.000125234 -9.23618e-05,0.000145267 -2.51751e-05,-4.71938e-05 -0.000524369,0.000160227 0.000241675,0.000317144 -9.58741e-05,0.000127615 -0.000728883,-0.000229854 -0.00022855,-0.000133509 -9.53926e-05,-0.000152701 -0.00013782,4.63211e-05 -2.82547e-05,0.000135691 -0.000332396,-0.000146173 -0.00018771,-2.9212e-06 -9.23495e-06,6.3289e-05 0.000565747,0.000266098 8.04394e-05,0.000139283 0.000416032,0.000113856 0.000130101,0.000165951 0.000779558,0.000406499 0.000375563,0.000296209 -0.000553275,0.000752923 -0.000264181,0.000152865 -0.000185783,0.00035877 -0.00015201,-3.70858e-05 -2.88054e-05,8.15155e-05 -0.000255694,-0.000131021 -0.000816841,5.66039e-05 -0.000601925,-0.000180006 -0.000224702,0.000245719 -0.000765807,0.000218704 -0.000350782,-1.05705e-05 -6.07983e-05,-0.000150738 -0.000133733,-3.72441e-05 -0.000304002,-2.45134e-05 -6.11379e-05,5.92137e-05 -6.76388e-06,0.00030708 0.000183326,5.71417e-05 0.000405749,7.33159e-05 0.000898838,-7.62387e-06 6.30277e-05,0.000151855 -0.000233177,0.000115976 -0.000138415,0.000231441 -0.000365555,-5.92953e-06 2.66178e-05,0.000189406 -8.0114e-05,0.000136131 0.000111075,-5.45703e-06 0.00114237,0.000626927 0.000225102,3.64668e-05 0.000106978,-0.000165707 0.000359884,-0.000115728 0.000164895,0.000911911 -8.38701e-05,0.000200104 -0.000506901,0.000286544 -4.32104e-05,0.000122273 -0.000413069,0.000291643 -0.000338098,0.00076738 -0.000189673,0.000651132 -0.000867029,0.0007117 -0.000145738,0.000240533 -0.00019309,0.000441853 -0.000106542,0.000696219 -0.000164123,0.000376139 5.77173e-05,0.000333623 -3.96191e-05,0.000476672 0.000326614,6.04418e-05 0.000203543,-0.000385504 0.000167123,-8.04303e-05 -1.36533e-05,-0.000128563 0.000152369,-0.000317345 0.000755553,-0.000503064 0.000206838,-6.04508e-05 7.99328e-05,-0.00015419 0.000261808,2.29258e-06 0.000391267,-0.000138773 0.000204635,-0.000277155 0.00048325,0.000406763 0.000626884,0.000202364 2.14552e-05,0.000166874 0.000116248,1.70718e-05 -4.27039e-05,-0.000313432 0.000135143,-0.000310429 -0.000201792,-0.000657479 3.52285e-05,-0.000664009 1.28645e-05,-0.000191998 0.000210469,-0.000353154 0.00022868,-0.000111379 0.000104857,4.67816e-05 8.06984e-05,0.000164112 0.000167529,-3.98027e-05 0.000110008,-0.000353108 0.00027441,-6.68915e-05 0.000120603,5.45005e-05 0.00023852,-0.000101361 0.000161569,0.00010247 0.000135177,-0.0003185 0.00134654,-0.000366332 0.000940233,2.48719e-05 0.00123235,0.000157004 5.61272e-05,0.000123669 0.000411429,0.000162945 0.00021766,0.000249361 0.00024082,5.55682e-05 0.000210254,0.00034915 0.00033224,0.000128097 0.000170437,0.000244612 -7.78656e-05,0.000355095 0.000212741,0.000275855 8.79792e-05,0.000392055 -3.24242e-05,0.000210226 -0.000375514,0.000470515 -0.00015765,0.000522833 -0.000183525,-7.51871e-05 -0.000110964,0.000258304 -0.000137228,0.000105018 6.01211e-05,8.30143e-05 -0.000166354,0.000154932 0.000252232,3.17078e-05 -0.000184472,7.38164e-05 0.000385077,0.000222461 2.74421e-05,0.000268409 0.000155625,0.000244739 3.18044e-05,0.000211935 0.000100211,0.000139109 0.000118489,-5.52791e-06 0.000308846,-0.000228393 1.52744e-05,-0.000438088 -9.45373e-05,-0.000550024 0.000461424,-0.00172868 0.000243431,-0.000345224 0.00125737,-0.00117338 2.95061e-05,-0.000494648 -0.000166652,-0.000115964 -0.000148015,-0.000446581 5.00525e-05,-0.000437525 -0.000100028,-0.000362603 8.20854e-05,-0.000183561 0.000398232,-0.000179495 8.00524e-05,-0.000377146 -0.000186112,-0.000333062 -0.000138376,-7.84539e-06 -3.43726e-05,-0.000462496 -0.000234198,-0.000201171 -3.6004e-05,-0.000139658 0.000130569,-0.000272019 0.000186466,-0.000118987 6.91164e-05,-0.000276931 0.000220274,-0.000306752 0.000351308,-0.000284512 0.000855444,-0.000381334 0.00081931,-6.60677e-05 0.000280902,0.000120857 0.0001193,0.000151072 0.000173628,1.20555e-05 0.000365401,0.000177758 3.67687e-05,8.96923e-05 0.000465702,4.63838e-05 0.000137783,0.000122887 5.83695e-05,0.000396826 0.000440263,0.000966119 0.000623677,4.21186e-05 -0.000107448,0.000373962 4.18463e-06,0.000406915 7.7817e-05,0.000352022 0.000339784,0.000573593 7.85864e-05,0.000426623 -8.65401e-05,0.000963861 0.000410494,0.000233858 0.000424285,0.000132001 0.000136005,-0.000482728 0.00021964,-0.000286756 0.000407142,-9.16767e-05 0.000260715,9.94934e-05 9.35133e-05,-0.00028567 0.00016266,-5.56611e-05 0.000109539,-0.000170506 0.000296413,-3.6466e-05 0.000322305,0.000316002 0.0003123,6.51344e-05 0.000378302,-1.0043e-05 0.000576517,-0.000215229 0.000174976,-0.00029994 4.82935e-05,-0.000353107 0.00113572,-0.00138665 -0.000522175,-0.001195 0.000922807,-0.00132044 -1.80434e-05,-0.000761326 -0.000112448,-0.000391756 1.44623e-05,-0.000835587 0.00030143,-0.000220529 0.000103262,0.0001469 0.000118197,-3.26259e-05 5.87268e-06,-0.000280593 0.000535045,-0.000283941 0.000358342,0.000123324 -1.27316e-05,-0.000341669 0.000655239,-0.000330132 0.000214729,-8.87933e-07 0.000203536,9.01111e-05 0.0001748,-5.11772e-05 0.000437612,5.03939e-05 6.20492e-05,-0.000208227 0.000133291,-5.66856e-06 0.000504963,-0.000736068 -0.000113662,-0.00104929 7.99893e-05,-0.000158233 0.000679235,-9.70897e-05 0.00135868,0.000118126 0.000820691,0.000424046 0.000636386,0.000143727 0.00111811,0.000532008 0.000560159,-0.000209394 0.000172461,-0.000277887 -2.70215e-06,-0.00025978 -0.00016629,-0.000291525 -0.000716119,-0.000833995 -0.000488274,-0.000437979 -0.00117565,-0.000835541 -0.000515143,-0.000697556 -0.000610668,-0.000580647 -0.000233698,-0.000379389 -2.18403e-05,-0.000177439 0.000175043,-0.000178282 1.50833e-05,-0.000212336 0.000100624,-5.95673e-05 -0.000153224,-1.2217e-05 -1.8922e-05,-0.000157861 -0.000266755,-6.71843e-06 -4.71693e-05,-0.000500758 -9.45736e-05,-7.14208e-05 -0.000583777,-9.87888e-05 0.000132464,-8.46749e-05 -5.61673e-05,-0.000177857 0.000144318,-0.000132185 -0.000127326,-0.000134348 -0.00028878,-3.04825e-05 -0.00035544,-0.000462891 -1.61236e-05,-0.000187249 0.000228838,2.5167e-05 1.12138e-05,-0.000347753 -6.98346e-05,-6.71207e-05 -0.00016885,0.000236242 -7.54889e-05,-0.000540118 8.59378e-05,2.9831e-05 0.00015431,-0.000120984 0.000165612,1.66263e-05 -0.000181899,-0.000158708 -0.000201946,5.14132e-05 -4.70604e-05,-0.000252434 -4.98947e-05,-4.92334e-05 -3.29853e-05,0.000103781 -4.95472e-05,-0.000174321 -2.05015e-05,-0.000393615 0.000117504,-4.6167e-05 -8.98893e-05,-0.000284311 0.000142134,-0.000393394 -4.04856e-05,-9.4465e-05 -7.93458e-05,8.27281e-05 -3.20194e-05,-0.000292081 0.000283034,-0.000442488 0.00022262,-0.000139442 -7.13588e-05,-7.34132e-05 0.000263828,-0.000328116 0.000161406,-0.000151982 0.000137364,6.38945e-05 0.000107217,-0.000302408 0.000338039,-0.000309059 0.000174918,-6.40546e-05 1.04105e-05,5.1502e-05 0.000301213,-2.60994e-06 0.000145137,-0.000255905 -0.000712304,-0.00459875 -3.70182e-05,-0.000609435 0.000275959,-0.00798693 0.000230771,-0.00111599 0.00143176,-0.00342794 -6.13436e-05,-0.000186975 -0.00526061,-0.00456751 -0.00054917,-0.000436085 -0.00121368,-0.0007309 -0.00133541,-0.000524151 -0.00141544,-0.000301036 -0.000723984,-6.3631e-05 -0.00317205,-5.85242e-05 -0.000139911,4.54149e-05 -9.57722e-05,0.000148935 -0.000164507,0.00199796 -0.000464994,0.00169158 -0.00351506,0.00872413 -0.000737674,0.0015957 -0.000896916,0.00152599 -0.00219474,0.00302753 -0.00389169,0.00393588 -0.00160878,0.00148695 -0.00177973,0.00137118 -0.00189237,0.00120726 -0.00200411,0.00104577 -0.00200724,0.000841585 -0.00215545,0.000700893 -0.00235184,0.000547109 -0.00227952,0.000328234 -0.00230266,0.000138323 -0.00292801,-9.96914e-05 0.000292473,0.00251873 0.00290826,0.00608757 0.000535264,0.000305144 z "/>
</g><g id="AW-AH" >
<path d="M 0.0286181,0.0656998 l 0.000321641,-0.000375092 -0.00136773,-0.0013 -0.00109676,0.00139934 -0.00263781,0.00273465 0.000772538,0.000640445 0.00055415,0.000601687 0.00042137,0.0002814 0.0025683,0.000835707 0.000379154,0.000257765 0.000448648,-0.000829436 4.11076e-05,0.00051592 0.000397568,0.00130734 0.00112119,0.000906037 0.000310731,7.86063e-05 0.00153039,-4.8783e-05 0.00084159,-0.000251788 0.00035309,-0.000182085 0.000779644,-0.00067621 0.000374334,-0.00066066 0.000150902,-0.000547259 -5.27453e-06,-0.000794066 -0.000103906,-0.000413564 -0.000422366,-0.000756726 -0.000645716,-0.000596399 -0.000796219,-0.000377899 -0.000822948,-0.000146023 -0.00105111,0.00012932 -0.0024165,-0.00173223 z "/>
</g><g id="AW-OP" >
<path d="M 0.035982,0.0870679 l -0.000200373,7.18572e-05 -9.5281e-05,0.000195148 0.000244557,0.000759464 4.64358e-05,0.00353656 0.000144769,0.000252313 0.000227359,0.000179145 0.000279619,9.97672e-05 0.000359435,-3.48805e-07 0.000329905,-0.000130422 0.0002131,-0.000193238 0.000862623,-0.00128577 0.000355821,-0.000680915 0.000552044,-0.00142139 0.000493346,-0.00245146 0.00238446,-0.00148998 0.000131288,-0.000149628 1.24492e-05,-0.000191479 -0.000129525,-0.000176252 -0.00195735,-0.000980019 0.00197035,-0.00368452 -9.78724e-05,-9.46972e-05 0.000145326,-1.80657e-06 0.000127465,-0.000259116 -0.00227482,-0.00229538 -0.000139549,-5.46241e-06 1.0363e-05,-0.0001229 -0.00126088,-0.00125913 -0.00103006,-0.00138273 -0.000190876,-0.000142425 -0.000115071,2.89692e-05 -1.83985e-05,-0.000126586 -0.00238005,-0.00166556 -8.80778e-05,5.75987e-06 -1.4217e-06,8.3816e-05 -0.000201862,-0.000168573 -0.000927747,0.000557488 -0.000486683,0.000891649 -0.000245092,0.00167593 0.000220648,5.88491e-05 -0.000236605,0.000101647 -5.94193e-05,0.000527307 0.00101066,0.00260573 8.77542e-05,9.27557e-05 0.000145686,1.74406e-05 -0.000173759,4.07112e-05 0.000202922,0.000811971 8.39001e-06,0.000922916 -0.000232193,8.96505e-06 -0.000135876,0.000157891 0.00013314,0.000561179 -0.000428907,0.000930681 -1.19644e-05,0.000547726 0.000131642,0.000292407 0.000233673,0.000176701 0.00033085,9.36046e-05 0.000120844,-0.000167884 0.000700001,0.00191009 -4.72049e-05,0.000851569 0.000504692,0.00138688 0.000504985,9.82172e-05 -5.96775e-05,-5.42991e-06 z "/>
</g><g id="AW-SR" >
<path d="M 0.033942,0.0590286 l 0.000509481,-0.00090114 0.000700185,-0.000786876 0.000558427,-0.00044445 0.00116198,-0.000692503 0.000715746,-0.000597457 0.0012388,-0.00158186 8.66102e-05,-0.000262444 -0.000189284,-0.000348528 -0.00481555,-0.00344818 -0.000320114,-9.57933e-05 -0.00028637,9.41361e-05 -0.000160782,0.00019998 -0.000314115,0.00188772 -0.00054906,0.00171233 -0.00261522,0.00645827 -0.000535354,0.00119655 -0.000679714,0.00126836 -0.000158103,0.000577448 6.72155e-05,0.000592087 0.000284445,0.000535447 0.00296437,0.00278842 0.00173441,-0.000306957 0.00164786,-0.00241834 -5.05357e-05,-0.000322518 -0.000497044,-0.000609177 -0.000356706,-0.000584469 -0.000266829,-0.000623262 -0.000172033,-0.000650566 -7.40681e-05,-0.000665877 2.52608e-05,-0.000668913 0.000124123,-0.00065962 0.000221966,-0.000641815 z "/>
</g><g id="AW-LL" >
<path d="M 0.00726909,0.0840439 l -0.000842309,-0.000444901 -0.000767549,-0.000642625 -0.000664162,-0.000280765 -0.000499122,-7.03234e-05 -0.00208202,1.54899e-05 -0.000182164,7.94058e-05 -8.066e-05,0.000140139 0.000514316,0.00121145 0.00063526,0.00107729 0.000951351,0.000933814 0.000877965,0.00067679 0.000653258,0.000386226 0.000963424,0.000280263 0.00103066,4.03333e-06 0.000711214,-0.000173455 0.000888079,-0.000464817 0.000475654,-0.000425682 0.000426939,-0.00059439 0.000222616,-0.000522095 -7.64552e-05,-0.000326536 -0.000293032,-0.00018557 0.000375116,4.77766e-05 0.000289199,-0.00014571 0.0032108,-0.0036997 0.000667865,-0.00042685 0.00336574,-0.00124608 0.000319258,-0.000449278 0.000394379,-0.00028509 0.000486006,-0.000117701 0.000497037,6.92071e-05 0.00120639,0.000762794 0.00166874,0.000579106 0.000908658,0.000746439 0.000258461,4.79629e-05 0.000275279,-9.88039e-05 0.000260828,-0.000339086 0.00021843,-0.000552974 4.54915e-05,-0.000586454 -0.00011658,-0.000739335 0.000176493,-0.000458044 0.00510987,-0.0050566 3.78891e-05,-0.000257562 -0.000452226,-0.000396732 -0.000257067,5.78142e-07 -0.00242468,0.00239311 -0.000542766,0.000449499 -0.00140042,0.000747304 -0.00194126,0.000642951 -0.00135564,0.000224924 -0.00206459,2.16907e-05 -0.00202751,-0.000356784 -0.00189964,-0.000615637 -0.00131086,1.61864e-05 -0.00262253,0.00104832 -0.00286908,0.000830862 -0.000166075,0.000133233 -0.000105039,0.000214601 -0.000881152,0.00623722 -0.000198087,-5.9081e-05 z "/>
</g><g id="AW-NV-004" >
<path d="M 0.0427769,0.0507 l 0.000557237,0.00021496 0.00317342,0.00275931 0.000181708,0.000316656 1.11644e-05,0.000502913 -0.00153293,0.00367265 -9.03456e-05,0.000824021 -0.000200928,-0.000470752 -0.000487563,-0.000779766 -0.000499063,-0.00055913 -0.000705327,-0.000618575 -0.000279303,-0.000369683 -0.00034898,-0.000800092 -6.60336e-05,-0.000442652 3.25219e-05,-0.000582201 0.000346974,-0.00123531 8.94222e-05,-0.00067528 -3.94536e-05,-0.00108084 -0.000142524,-0.000676234 z "/>
</g><g id="AW-NT" >
<path d="M 0.0449518,0.0641011 l -6.38059e-05,-0.000204597 -0.000159198,-0.000155164 -0.000219239,-7.12744e-05 -0.000230597,2.84418e-05 -0.000938979,0.000763137 -0.000566491,0.000350948 -0.000843761,0.000369111 -0.000929098,0.000236163 -0.00110886,8.09599e-05 -0.00136399,-0.000150036 -0.000379948,8.38092e-05 -0.000269009,0.000168965 -0.00295266,0.00260682 0.000320391,0.00034475 0.000150139,-0.00013255 -0.000264962,0.00214043 0.000281182,0.000212842 -0.000153642,-3.97062e-05 -0.000142872,8.77094e-05 -1.90601e-05,0.000453842 0.00310991,0.0022114 0.00106791,0.00142525 0.00129001,0.00128429 0.000199444,4.01933e-05 -0.000121838,3.77198e-05 0.00255251,0.00254228 0.000198448,8.82123e-05 0.000210109,-6.16397e-05 0.00050182,-0.000498593 4.76092e-06,-0.000203852 -0.000358385,-0.000461956 -0.000411017,-0.000761115 -0.000246412,-0.00081838 -6.81951e-05,-0.000562912 -0.000273398,8.46414e-05 0.000243952,-0.000217286 0.000205583,-0.00128388 0.000506097,-0.00107943 0.00079601,-0.000921745 0.00108151,-0.000732872 0.000100623,-0.000179958 -0.000827863,-0.0040399 2.57523e-05,-0.00111336 -0.000154391,-0.000226633 -0.000282464,-6.77468e-05 0.000455849,-5.11278e-05 4.8124e-05,-0.00160618 z "/>
</g><g id="AW-NV-001" >
<path d="M 0.0449536,0.0604911 l -0.000117614,-0.000937708 -0.000196136,-0.000603805 -0.000461264,-0.000844378 -0.000643173,-0.000738239 -0.000796971,-0.000599837 -0.000915939,-0.000435221 -0.000994878,-0.000251586 -0.000685723,-5.99279e-05 -0.00102898,7.47134e-05 -0.000989514,0.000268697 -0.000906801,0.000450939 -0.000784459,0.000613475 -0.000627833,0.000749201 -0.00031767,0.000558904 -0.000309743,0.000900364 -9.82497e-05,0.000939573 0.000117543,0.000937719 0.000196096,0.000603819 0.000461222,0.000844407 0.000643159,0.000738272 0.000796988,0.000599869 0.000915984,0.000435247 0.000994943,0.000251601 0.000685772,5.99301e-05 0.00102906,-7.47216e-05 0.000989574,-0.000268718 0.000906838,-0.000450969 0.000784467,-0.000613508 0.000627811,-0.000749232 0.000443718,-0.000852209 0.000183603,-0.000607092 9.81767e-05,-0.000939576 z "/>
</g><g id="AW-DB" >
<path d="M 0.0323657,0.0824117 l -6.45167e-06,-0.000591376 0.000568539,-0.00113267 0.000146461,-0.00101678 -0.000161293,-0.000808587 -0.00111916,-0.00290284 3.50626e-05,-0.000728273 0.000378244,-0.000904066 -3.93321e-06,-0.000887578 -0.000121597,-0.000279937 -0.000197916,-0.000210189 -0.000180918,-1.24998e-05 -0.000118173,0.00013984 4.03887e-05,-0.000250127 -0.000140514,-6.34052e-05 -0.00105035,-5.50192e-06 -0.00543896,0.00540731 -3.90941e-05,0.000210065 0.000122799,0.000802141 -0.000112089,0.000710633 -0.00032116,0.000655205 -0.000656483,0.000665097 0.000907983,0.00112652 0.000201545,0.000361162 0.000150184,0.000659606 -9.40316e-05,0.000668238 -0.00032791,0.000603381 -0.00160228,0.00183998 -0.0014294,0.00179034 0.000250715,0.000249645 -0.000218483,-8.76909e-05 -0.000231645,0.000102178 -0.00164479,0.00231496 -0.000103183,0.000543556 0.000250587,0.00108997 0.000176909,0.000282606 0.000300743,0.00017447 0.000355056,2.60032e-05 0.0017244,-0.000557225 0.0013496,-0.000192726 0.00112604,0.000131643 0.00152138,0.000559862 0.000505011,6.44778e-06 0.000478037,-0.000148993 0.000460433,-0.000358428 0.000265393,-0.000496754 4.51354e-05,-0.000367693 -0.000105914,-0.000604854 -0.000131417,-0.000184046 -0.000196785,-7.78742e-05 0.000313868,3.86033e-05 8.74578e-05,-0.000787614 0.000318967,-0.000736007 0.000377238,-0.000484348 0.000478088,-0.000403121 0.000963884,-0.000446491 0.00063833,-0.000114027 0.000650339,8.35257e-06 -7.96954e-05,-0.000201155 0.000194717,0.00019999 0.000715689,0.000198547 0.00056315,0.000276447 0.000861002,0.000743208 0.000189059,1.28862e-05 0.000234363,-0.000138657 0.000105013,-0.000172511 -9.89555e-06,-0.000197215 -0.00220831,-0.00604763 z "/>
</g></g></svg>