<?xml version="1.0" encoding="UTF-8" standalone="no"?>
<!DOCTYPE svg PUBLIC "-//W3C//DTD SVG 1.1//EN" "http://www.w3.org/Graphics/SVG/1.1/DTD/svg11-flat.dtd"
[
<!ATTLIST g xmlns:fme CDATA #FIXED "http://www.safe.com/fme" >
<!ATTLIST path fme:district_id CDATA #IMPLIED fme:precinct_id CDATA #IMPLIED fme:id CDATA #IMPLIED >
<!ATTLIST ellipse fme:district_id CDATA #IMPLIED fme:precinct_id CDATA #IMPLIED fme:id CDATA #IMPLIED >
<!ATTLIST text fme:district_id CDATA #IMPLIED fme:precinct_id CDATA #IMPLIED fme:id CDATA #IMPLIED >
<!ATTLIST use fme:district_id CDATA #IMPLIED fme:precinct_id CDATA #IMPLIED fme:id CDATA #IMPLIED >
]>
<svg xmlns="http://www.w3.org/2000/svg"  viewBox="-0.000311494 -0.000311494 0.0255425 0.0286674"><g xmlns:fme="http://www.safe.com/fme" fill="none" stroke="black" stroke-width="0.000003114942317" transform="translate(0,0.0280444) scale(1, -1)">
<g id="11" >
<path d="M 0.00143003,0.0172417 l 0.000108522,3.35543e-05 0.000154238,-0.000115009 0.000258877,-4.93556e-05 8.11439e-05,0.000205227 0.000195359,-0.00027789 0.000540613,-0.000150067 0.00116573,0.000470138 0.000666517,-6.65872e-05 0.000760933,0.000415377 0.0002172,0.00023098 6.77142e-05,0.000249647 0.000202239,0.00018355 -7.77105e-05,0.000156249 8.75187e-05,0.000105341 0.000270109,-2.92803e-06 0.00011712,0.000198218 0.000207809,0.000116825 -4.20351e-05,0.000152632 0.000207772,0.000508387 -0.000240104,0.000417471 0.000140663,0.000229041 -7.21184e-05,0.000425039 -0.000332753,0.000294115 -7.17742e-05,0.000651998 0.00013921,0.000124871 0.000207442,5.55037e-05 0.000357158,-1.45721e-05 0.000526831,-0.00050507 0.000238084,-0.000137525 0.000273638,-4.302e-05 6.29469e-05,-0.000120196 0.000167164,-7.14398e-05 0.000192654,5.09283e-06 0.000906936,0.000305882 0.000211705,-2.87559e-05 0.000541917,0.000157127 0.000328056,0.000364072 0.000800697,0.000629442 0.000477479,0.000560714 0.000262096,0.000660989 0.000203349,0.000198979 0.000591951,0.00044094 0.000499695,2.27355e-05 0.000518312,0.000346731 0.000388915,0.000582568 0.0003299,-0.00012636 0.00011938,3.98952e-05 -0.000179391,0.00015634 0.000324438,0.000326752 1.14147e-05,0.000146637 0.000140045,0.000168085 -2.52399e-06,0.000230287 0.000203651,0.00011109 0.000216203,0.000366077 3.84272e-05,0.000367635 -0.000239614,0.00046263 8.92442e-05,3.30802e-05 -2.2679e-05,0.000192086 0.000397485,-7.99985e-06 0.000409251,0.000407275 0.00015323,1.22009e-05 5.54399e-05,-0.000129164 -0.000166394,-0.000560657 1.59129e-05,-0.000234503 0.000105507,-0.000101218 0.000318569,-9.25484e-05 0.000298381,0.000196041 0.000365052,-3.93242e-05 -0.000150187,-0.000192826 -0.000167782,1.27601e-05 -0.000172384,-0.000190374 -0.000450281,-8.18341e-05 3.81791e-05,-0.000126755 -0.000200959,-0.000560354 1.90601e-06,-0.000288976 -0.000137534,-0.000112711 -0.000175452,-0.00100507 0.00018242,-0.000350885 0.000444096,-0.00036666 0.000600662,5.50577e-06 0.000167162,-7.14496e-05 -5.61922e-05,-0.000177849 0.000603163,6.24295e-05 -5.93419e-06,-9.47627e-05 -0.000268224,-0.00014664 -8.25662e-05,-0.0003379 -0.000119984,-0.000138911 -2.82974e-05,-0.000108111 7.77293e-05,-0.000122587 -9.94921e-05,-0.000446671 0.000308537,-0.000626478 0.000173865,-0.000172765 0.000294757,-0.000138316 -6.21024e-05,-0.000322905 0.000235963,-0.000207926 0.000257014,2.03173e-05 0.00018679,-8.2911e-05 3.61559e-05,0.000150935 0.00016089,-0.000197816 0.000140852,1.00497e-05 0.000217534,-0.000211859 0.000761617,-0.000144323 0.000338166,-3.16294e-05 0.00048453,8.75201e-05 0.000319638,-0.000129233 0.000452044,0.000251117 0.000142274,-8.92952e-05 0.000492329,9.04782e-05 0.000177435,-3.31682e-05 -0.000369308,-0.000132196 -0.000130148,-0.000165908 -0.000214196,-0.00011105 -0.000199936,-0.000291652 -0.000597993,-4.21434e-05 -5.46768e-05,-0.000268161 -0.000378205,-3.95645e-05 -0.000327211,-0.000121284 -0.000333954,-0.000292795 1.6546e-05,-0.000304907 -0.000203832,-0.000129143 0.000113952,-0.000199662 -0.000181184,-8.87069e-05 6.60918e-05,-0.000289541 -0.000102748,-0.000175612 9.18608e-05,-0.000390691 0.000166478,-0.000134889 2.73478e-05,-0.00021696 8.08574e-05,-5.94059e-05 -6.27444e-05,-0.000126761 4.90139e-05,-0.000177061 0.000191207,-0.000194388 -4.02699e-05,-0.000141103 0.000213103,-0.000141043 -0.000147719,-0.000381778 0.00056875,-0.000153998 0.000428874,-0.000306278 0.000452233,-0.000198125 6.37157e-05,-4.57109e-05 -6.00617e-05,-7.62261e-05 0.000234212,-3.36671e-05 0.000349445,0.000123342 6.16462e-05,-0.000242095 0.000118744,2.1529e-05 0.000584763,-0.000273794 0.000437523,0.000280588 0.00011935,-0.000389341 0.000251397,-4.28515e-05 0.000200829,-0.000155281 -7.04144e-05,-0.000121284 0.00120339,-0.00108067 0.000182409,-2.87001e-05 8.12948e-05,-0.0002513 -6.99381e-05,-7.61374e-05 -6.23069e-05,0.000178892 -0.000339709,-0.000136966 -8.58853e-05,5.04228e-05 -0.000962897,3.97902e-06 -0.00119092,-0.0005659 -0.00102951,-0.000741695 -0.000326754,-7.73572e-05 -0.000723532,4.07512e-05 -0.000404738,0.000265877 -0.000414953,-1.44117e-05 -0.000176142,0.000155058 -0.000492011,0.000171379 -2.07471e-05,-9.46326e-05 9.7662e-05,-0.000104703 -0.00017315,-3.00837e-05 -0.000304854,0.000124583 -0.000351671,0.000368803 -5.91811e-05,7.29217e-06 -0.000138133,-0.00022228 -0.000183219,0.000186723 -0.000152594,4.64895e-05 2.06078e-05,-0.000153691 -0.000249685,-2.94135e-05 -9.97533e-05,0.00014084 -0.000280377,-0.000130732 -6.65289e-05,7.8257e-05 -0.000101044,-4.74394e-05 -2.60149e-05,-0.000126192 -0.000166331,8.41151e-05 -0.000903011,-0.00033327 -0.000412881,-7.53535e-05 -0.000254753,-0.000183857 -6.88542e-05,-0.000288504 -0.000181842,8.28629e-05 -0.000194366,-0.000169868 -0.000172297,5.11739e-05 -1.07265e-05,-8.11761e-05 -0.000373809,-9.37998e-05 -8.09025e-05,5.81318e-05 -9.80819e-05,-3.34293e-05 -0.000870996,-0.000702781 -0.000223583,-0.000403893 8.07505e-05,-0.000359166 0.000159858,-6.00932e-05 -9.01045e-05,-0.000116602 4.73576e-05,-0.00042934 -0.000377224,-0.000292703 -0.00065094,-0.000280744 -0.000336036,-2.41537e-05 -0.000218573,-0.000124511 -0.00010589,0.000262795 -0.000263898,-7.21927e-05 -0.000120584,-0.000335315 -0.0002429,-1.8603e-05 -6.01887e-05,-9.22652e-05 8.82761e-05,-0.000126552 -0.00016372,-3.20901e-05 -0.000120665,-0.000247615 -6.14291e-05,3.71945e-05 -0.000133298,-0.000155366 -0.0003728,-0.000647998 -8.41414e-05,-0.000379031 -0.00300412,-0.00266831 -0.0015145,-0.0014823 -0.00270867,-0.00235051 -0.000224469,-5.65424e-05 -0.000176078,0.000139157 -0.00113578,0.00270217 -0.00029951,0.000996209 -0.000315185,0.00839576 0.000305122,0.00224132 -0.000439781,5.85704e-05 0.000437815,0.00282655 0.000168073,-8.08334e-05 0.000107974,-2.21819e-06 3.56312e-05,0.000102474 0.000127332,-0.000102692 0.000553205,-3.47777e-05 z "/>
<path d="M 0.0149785,0.0249725 l 0.000622175,0.000337975 0.000315817,-2.7082e-05 4.45611e-05,0.000103771 0.000253315,-5.57757e-05 0.000227397,-0.00054444 4.45637e-05,-0.000322716 -8.70209e-05,-9.44335e-05 0.000187564,-6.27849e-05 -4.50882e-05,-0.000146903 -0.000165547,1.024e-05 -5.12674e-05,-0.000158011 -0.000214449,-3.2075e-05 5.35879e-05,-0.000578201 0.000129924,-0.000313199 0.000167769,-0.000128707 0.00016235,-0.000502611 0.000130782,-0.000837263 0.000260134,-0.000366073 0.000364713,-0.000305371 4.57923e-05,-0.000334888 -0.000151033,-0.000187718 -0.000291066,-0.000105015 -0.000427569,6.25102e-05 -0.000462066,-6.36212e-05 -0.000147728,0.000181691 -0.000174573,2.81755e-05 -0.000138642,-9.54975e-05 -0.000260547,-2.38197e-06 -4.11512e-05,-4.34059e-05 0.000112762,-0.000150879 -9.11249e-05,-0.000127844 -0.000229128,-5.90564e-06 -0.000265841,-0.000251859 -0.000120217,4.111e-05 -0.000129544,-0.000150576 -0.000218504,-9.22828e-06 -0.000154859,-0.000201196 -0.000209446,-0.000114283 -3.09677e-05,-0.000587598 -0.000443083,-0.000397066 -0.000149136,-0.000272916 -8.12618e-05,-1.79888e-05 -0.00012476,0.0001167 -0.000173985,-0.000138544 0.000307374,-0.000260326 0.000600139,0.000103821 0.000966295,0.000354895 0.000237346,-0.000212914 0.000340618,0.000110949 0.000477479,-1.39333e-05 0.000478952,-0.000332375 -2.9252e-05,-0.00046846 -0.000444934,-0.000398635 -0.000103273,-0.000273691 0.0002328,-0.000186082 7.27398e-05,-0.000166661 -1.15187e-05,-0.00035316 0.000101959,-0.000375944 -4.87414e-05,-0.000396726 0.0004518,2.93196e-05 0.000262532,-0.000351209 -3.68304e-05,-0.000221765 -0.00112683,-0.000778997 -0.000493655,-0.000207377 -0.000286097,-0.000284079 0.000147771,-0.000168496 0.00046891,-9.8154e-05 0.000257155,-0.000565216 -0.000256566,-4.71706e-05 -6.1413e-05,-0.000286117 -0.000250012,-9.70171e-05 -0.00020949,-0.000210121 -0.000551601,-0.000155407 -0.000192421,-0.000123605 -1.33564e-05,-8.26366e-05 -0.000176311,5.22252e-05 -0.000126973,-0.000106089 -0.000143187,4.0731e-05 -0.000254789,-0.000142791 -0.000192387,5.88265e-05 -0.000238624,-9.93286e-05 -0.000351691,0.000117887 -0.000352503,-0.000111547 -0.000153845,-0.000462634 -0.00034325,-0.000292145 -0.000207183,-0.000477576 -0.000356466,0.000408735 -0.00036941,0.000255556 -0.000432246,0.000177137 -0.000533106,7.79287e-05 -0.000450415,-3.69064e-05 -0.000507889,-0.000165659 -0.00105857,-0.000742241 -0.000460845,0.00011189 -0.000873883,-0.000147872 -0.000215085,0.000224172 -0.000264737,-1.68359e-06 -0.000143125,0.000504349 0.000260951,0.000331993 -6.09217e-05,0.000284221 0.000146591,0.000241109 -3.35628e-05,0.000129234 0.000250828,0.000197535 -2.03899e-05,0.000137095 0.000252036,0.000230704 -9.49984e-05,0.000226241 0.000506694,0.000361627 0.000387059,0.000561785 0.000114355,0.000405366 3.22287e-05,0.000800303 7.50903e-05,0.000227311 0.000321736,0.000303702 0.000527483,5.11616e-05 0.00047752,0.000314802 0.00042029,0.00016723 6.54098e-05,7.51457e-05 7.14833e-06,0.000335047 0.000136927,0.000231374 -0.000215049,0.000241453 -0.000179638,3.55942e-05 -0.0007011,-8.86409e-05 -0.000461321,0.000285253 -0.000286155,-5.68031e-05 -0.000185635,-0.000294544 -1.39121e-05,-0.000293934 -0.00028238,-0.000164423 0.000101014,-7.00751e-05 -3.78363e-05,-0.000125345 -0.000277931,3.30319e-05 -0.000101822,-0.000218486 5.60595e-05,-7.28207e-05 -3.91078e-05,-4.78605e-05 -3.99431e-05,0.000182393 -6.63805e-05,-3.92339e-05 -8.98818e-05,-0.000311716 -0.000645217,-8.33763e-05 -0.000666613,-0.000890509 -0.000220323,-0.000142102 -0.00017762,-2.40231e-05 -0.00022921,8.01149e-05 -0.000647684,0.000554278 -0.00110197,0.000120395 -0.000436721,-0.000211222 -0.000526479,0.000106198 -0.000408403,0.000767869 -9.01721e-05,0.000384559 -9.64676e-06,0.000354013 0.000231951,0.000447508 0.000440109,-0.000133886 0.000319585,-3.26366e-06 0.00202671,0.00058347 0.000499973,0.000251633 0.00147518,0.00110696 0.00022686,0.000128876 0.000104422,-7.19653e-05 -0.000477242,0.000990775 -0.000113594,0.000777795 7.10167e-05,0.000149129 0.000345015,8.73623e-05 7.06498e-05,0.000125065 0.000363657,0.000136862 0.000659641,0.000149273 0.00104265,-8.57426e-05 0.000444864,-0.000269995 -6.6465e-05,-0.000147663 0.000261363,-3.60134e-05 0.000454167,0.000871281 0.000698742,0.000289167 0.000135387,-4.19746e-05 1.28085e-05,-0.00015575 0.000134692,-6.70346e-05 6.09271e-05,0.000761218 0.000320178,0.000537775 0.000176378,0.000617513 0.000118102,0.00010957 0.000335573,0.000160004 0.000142802,0.000158839 0.000172293,-1.43534e-05 9.82923e-05,7.34263e-05 3.22448e-05,0.000180106 0.000334776,7.67022e-05 0.000188867,0.00016319 0.000430626,-9.5095e-05 4.23652e-05,-8.95744e-05 0.000264336,6.58565e-05 0.000156318,0.000250034 0.00074948,0.000359168 9.79369e-05,0.000106939 z "/>
<path d="M 0.0061201,0.00479549 l -0.00237718,-0.000485437 -0.000984116,0.000530758 -0.00198258,-0.000404901 2.07088e-05,-0.000678893 0.00143093,-0.00367042 0.00414344,0.00368037 -0.000251202,0.00102853 z "/>
<path d="M 0.00465841,0.01078 l -0.000738445,0.00282 -0.00304766,0.000548856 -0.000340999,-0.00172871 0.000235792,-0.00769 0.00205514,0.000419717 0.000984118,-0.000530758 0.00170951,0.00265037 -0.000857451,0.00351052 z "/>
<path d="M 0.00974238,0.0159544 l -3.39126e-06,0.000273495 0.000136927,0.000231374 -0.00017454,0.000218986 -0.000220147,5.80614e-05 -0.0007011,-8.86409e-05 -0.000442786,0.000278372 -0.000157513,1.30809e-05 -0.000191043,-9.6414e-05 -0.000116431,-0.000208402 -3.92516e-05,-0.000346666 -0.00028238,-0.000164423 0.000101014,-7.00751e-05 -3.78363e-05,-0.000125345 -0.000277931,3.30319e-05 -8.47249e-05,-0.000339452 -4.04129e-05,0.000182872 -7.99768e-05,-6.10642e-05 -3.67206e-05,-0.000264854 -0.00026209,-4.98721e-05 0.00100761,-0.00072249 0.000105242,0.000317696 0.000209825,0.0002111 0.00018404,9.01761e-05 0.000431804,1.01856e-05 0.00047557,0.000315339 0.00042029,0.00016723 7.59494e-05,0.000136698 z "/>
<path d="M 0.0117596,0.0101746 l -0.000326208,0.000392855 -0.000313659,0.000234458 -0.000485937,0.000214217 -0.000512542,8.28797e-05 -0.000518471,-4.19403e-05 -0.000392177,-0.000122278 -0.00114953,-0.000779302 -0.000460845,0.00011189 -0.000873883,-0.000147872 -0.000215085,0.000224172 -0.000264737,-1.68359e-06 -0.000143125,0.000504349 0.000260951,0.000331993 -6.09217e-05,0.000284221 0.000146591,0.000241109 -4.13365e-05,0.000123112 0.000258602,0.000203657 -2.03899e-05,0.000137095 0.000252036,0.000230704 -9.49984e-05,0.000226241 0.00064561,0.00109434 9.93042e-05,0.000449939 1.92912e-05,0.000731944 -0.000559617,0.000401262 -0.000501624,-3.31989e-05 -0.000715054,-0.00094634 -0.000344591,-0.00014443 -0.000195391,1.42362e-05 -0.000183045,6.60683e-05 -9.09538e-05,0.000141588 -0.0012192,0.000502553 -0.000320195,2.1899e-05 -0.000177993,-0.000178377 -0.000779208,0.000126917 -0.000284242,0.000216057 3.95535e-05,0.00022989 -0.00027036,0.00046128 -3.84507e-05,0.000341909 -0.000712005,-0.000231833 -0.000294504,-0.0014925 0.00312105,-0.000549122 0.000216827,-0.000274155 0.000397693,-0.00146243 0.00112775,-0.00463693 -0.00182174,-0.00282398 0.00239675,0.000489429 0.000277694,-0.001137 0.00224949,0.00199804 0.00136858,0.00317633 0.00150424,0.000996727 z "/>
</g></g></svg>