<?xml version="1.0" encoding="UTF-8" standalone="no"?>
<!DOCTYPE svg PUBLIC "-//W3C//DTD SVG 1.1//EN" "http://www.w3.org/Graphics/SVG/1.1/DTD/svg11-flat.dtd"
[
<!ATTLIST g xmlns:fme CDATA #FIXED "http://www.safe.com/fme" >
<!ATTLIST path fme:district_id CDATA #IMPLIED fme:precinct_id CDATA #IMPLIED fme:id CDATA #IMPLIED >
<!ATTLIST ellipse fme:district_id CDATA #IMPLIED fme:precinct_id CDATA #IMPLIED fme:id CDATA #IMPLIED >
<!ATTLIST text fme:district_id CDATA #IMPLIED fme:precinct_id CDATA #IMPLIED fme:id CDATA #IMPLIED >
<!ATTLIST use fme:district_id CDATA #IMPLIED fme:precinct_id CDATA #IMPLIED fme:id CDATA #IMPLIED >
]>
<svg xmlns="http://www.w3.org/2000/svg"  viewBox="-0.000495949 -0.000495949 0.0411226 0.0307488"><g xmlns:fme="http://www.safe.com/fme" fill="none" stroke="black" stroke-width="0.000004959488104" transform="translate(0,0.0297569) scale(1, -1)">
<g id="12" >
<path d="M 0.0140857,0.000882654 l -0.00177147,0.0010508 -0.000558958,0.000217488 -0.000609363,0.00012676 -0.000583796,-6.55485e-05 -0.000723248,-0.000376661 -0.000383953,-0.000112072 -0.00224373,-4.50993e-05 -0.00107314,-0.000348946 -0.000301267,0.000781423 -0.000137819,0.000758942 5.0008e-06,0.000769291 0.000266144,0.00280936 -6.73105e-05,0.000772476 -0.000210764,0.000750571 -0.000348013,0.000706555 -0.000624306,0.00092999 -0.00231765,0.00203536 -0.000593334,0.000657413 -0.00046547,0.000738518 -0.000324631,0.000799042 -0.00017474,0.000837293 -1.99772e-05,0.000852209 8.87302e-05,0.00109217 -6.01572e-05,0.000548787 -0.000273029,0.000787494 -0.000565054,0.000821096 4.72602e-05,0.000225387 0.00523189,0.00452051 0.000655909,0.000403111 0.00137519,0.000603823 0.00153223,0.000216612 0.00396419,-9.39176e-05 -3.59206e-05,-9.2405e-05 0.000244916,-8.18538e-05 0.000849594,-4.7324e-05 -5.58833e-05,4.78464e-05 0.00021187,0.00019229 -1.10665e-05,0.000122002 7.46748e-05,5.80411e-05 -7.179e-05,0.000217349 0.000111374,2.61146e-05 8.15699e-05,-0.000226465 -4.13669e-05,-0.00017798 0.000302099,8.53962e-05 -1.31119e-05,-0.000309801 0.000112906,-7.21992e-06 0.000695249,0.000155164 0.000257554,0.000242931 0.000133308,-1.16892e-06 6.72526e-05,-0.000128147 0.000474876,7.01854e-06 8.85769e-06,0.000161446 0.000105632,-5.05917e-05 0.000197967,4.34131e-05 0.00018415,0.000138349 0.000115747,-0.000262886 -0.000131266,-3.9483e-05 3.01795e-05,-6.68223e-05 0.000361721,4.68755e-06 9.77235e-05,-9.82808e-05 0.000236816,-6.11752e-05 0.000193378,9.65896e-06 1.44294e-05,7.27951e-05 -9.58509e-05,4.14767e-05 0.000165732,3.01496e-05 0.000161841,-0.000105266 -5.67379e-05,-7.70875e-05 0.00027992,-0.000130055 0.000245533,-6.32641e-05 0.000109189,5.31249e-05 0.00066853,-5.1026e-05 1.90134e-05,-7.01497e-05 -0.000110995,-7.18421e-05 0.000192167,-7.03617e-05 0.000649822,0.000166163 2.17786e-05,0.000188398 0.000385727,5.53013e-05 0.000309297,0.000299783 0.000232672,5.66469e-05 0.00025084,0.000282237 -5.5099e-05,1.85451e-05 4.5438e-05,0.000329195 0.000139573,-0.000109589 0.00011636,3.05803e-05 -6.27114e-05,0.000140517 4.81887e-05,0.000121481 9.67063e-05,3.97833e-05 -1.06551e-05,0.000160376 0.000207207,0.000217152 0.000287432,-0.000135725 0.000104065,3.52031e-05 4.35085e-05,-8.84258e-05 0.000449823,4.57007e-05 5.43179e-05,-0.000102946 0.000594542,2.36838e-05 0.00061682,0.000278255 7.78036e-05,6.35691e-05 -1.1309e-05,0.000107206 0.000124173,6.88867e-05 0.000403444,9.57692e-05 0.000174143,0.000124883 5.41205e-05,-1.85378e-05 -1.86498e-05,-0.000159137 0.000377839,3.85756e-05 0.00029263,-0.000151939 0.000790269,-8.50691e-05 0.000760602,9.8965e-06 6.82988e-05,7.47675e-05 0.000225257,-3.63811e-05 0.00064142,0.000223293 2.99967e-05,8.96e-05 0.000188241,5.70289e-05 0.000699449,-0.000158507 0.000366708,3.86197e-05 0.000457334,0.000346549 0.000411635,0.000605216 6.44341e-06,0.000193888 0.000257617,8.13505e-06 0.000346206,0.000262114 -0.000286925,0.00027777 7.76046e-05,0.000333421 -7.29126e-05,0.000109006 4.12233e-05,0.000162174 0.000141962,0.000116131 -0.000220821,0.000130635 2.88558e-05,0.000160026 0.000173147,3.00696e-05 9.26148e-05,-0.000113696 5.32131e-05,-0.000336838 0.000146589,8.67421e-05 0.000750182,-3.6003e-05 0.000102416,0.000111966 0.000186689,-8.96992e-05 0.000472006,4.09594e-05 2.0565e-05,7.65721e-05 -0.000268828,0.000259741 0.000187432,-1.97241e-05 0.000161548,0.000332674 0.000298431,0.000202781 5.25376e-05,-0.000167521 -5.47708e-05,-0.000507449 -0.000138681,-3.94031e-05 -2.23775e-09,-0.000465043 -0.000148987,-0.000312468 6.97751e-05,-0.000636629 0.000186529,-0.000318186 0.000480565,-0.000498119 0.000925829,-0.000255608 0.000408324,-0.000300969 0.000749579,2.18377e-05 8.46886e-05,7.00693e-05 0.000118112,-3.71709e-05 0.00027839,0.000175864 0.000681148,8.31431e-05 0.000514816,0.000475094 -0.000137477,7.34645e-05 0.000116013,0.00022923 0.000586125,0.00032437 4.73091e-06,0.000212162 0.000366307,8.47765e-05 9.81222e-05,-5.95696e-05 0.000141174,4.16334e-05 6.56791e-05,0.000139379 0.000387539,-7.9716e-06 0.000210659,7.48752e-05 0.000195306,0.000255611 0.000350702,1.0415e-05 -8.70904e-05,0.000167831 0.0001774,0.000197075 9.69169e-05,-0.000172434 0.000389107,0.000138748 -6.50738e-05,0.000379839 0.000145946,-5.30891e-05 4.22707e-06,0.000243634 6.96067e-05,4.45281e-05 0.000111463,-0.000197397 0.000120943,-3.33776e-06 3.73772e-05,-0.000198993 -0.000212277,-0.00022611 -6.64291e-05,-0.000209353 -0.00016632,-8.42992e-05 -0.000233977,-0.000408774 -0.000156541,-9.3417e-05 -0.000187525,1.07038e-05 -2.051e-05,-0.00030232 -0.000237284,-2.49722e-05 -7.27599e-05,0.000122554 -8.9885e-05,-9.40124e-05 2.97436e-05,-0.000451763 0.00011816,-3.26592e-05 0.000159008,9.33955e-05 0.000130359,-4.63132e-05 -0.000216005,-0.000113204 -0.000145737,-0.000237993 -3.42977e-05,-0.000437647 -0.00013246,-0.00011395 -6.75729e-05,-0.000341878 -0.000337878,-0.000540173 0.000142018,-0.000547828 9.78699e-05,-8.92139e-06 3.49353e-07,-0.000198662 8.05499e-05,-8.65031e-05 -0.000117314,-0.000351122 -0.000623478,-0.000355638 -0.000145312,3.29003e-05 -2.30941e-05,0.000123518 -0.000298627,-5.17491e-05 -0.000379892,-0.000201777 -3.73084e-05,-0.000170425 -7.96101e-05,3.98126e-05 -0.000114,-0.000137417 -0.000225517,-6.01923e-05 -0.000761053,-0.00105989 0.000236146,-2.90657e-05 9.47849e-05,-0.000140808 -0.000243862,5.18359e-05 -0.000176231,-8.87309e-05 -0.000250559,-0.000345424 3.92814e-06,-9.48496e-05 -0.00016844,-5.26809e-05 -6.58166e-05,-0.000152924 -0.000180639,-3.90277e-05 9.27973e-05,-9.56402e-05 -4.24462e-05,-4.47722e-05 -0.000617481,-2.61127e-05 -0.000253091,-0.000119654 -0.000157125,8.26666e-05 -0.000540378,5.77139e-05 -0.00036071,-0.000139297 -1.48758e-05,-0.000154086 -0.000356721,-0.000114221 -2.55488e-05,-8.10429e-05 -0.000167163,5.967e-05 -0.000154461,-6.77665e-05 -0.000495951,-0.000407289 -0.000276378,-0.000323448 -8.29608e-05,-0.000504254 0.00105655,-0.00178689 5.74209e-05,-0.000332081 -0.000104242,-0.000322411 -0.000187173,-0.000208515 -0.000254824,-0.000135921 -0.0045694,-0.00153345 -0.000637224,-0.000436227 -0.000565464,-0.000740578 0.000162974,-0.00074649 -4.21003e-05,-0.000426623 -0.00025018,-0.000586623 0.000157783,-0.000405149 -2.5685e-05,-0.000265157 -0.000223672,-0.000223235 -0.000828236,-0.000331927 -0.000792019,-0.000613781 0.000165516,-0.00125472 -0.000641602,-3.24463e-05 -0.000182627,0.00140904 -0.000780972,-0.000197951 -0.00104283,-7.28858e-05 -0.000700158,-0.00034041 -0.000305609,-4.95841e-05 -0.000382231,0.000123956 -0.000783477,0.000720135 -0.000304497,0.00011609 -0.00169751,-0.000180706 -0.000953939,-0.000292119 -0.000216377,-0.00014251 -0.000323201,-0.000514552 -0.000284943,-0.000107974 -0.000527593,5.21271e-05 -0.000692799,0.000197062 -0.00156963,0.000772144 -0.000479444,0.000109825 -0.000660154,-5.02835e-05 -0.000810618,-0.000165269 -5.38542e-05,-0.000105385 -0.000141215,5.08988e-05 -0.00084416,-0.000349037 -0.000317755,-0.000753906 -0.000464074,-0.000343683 -0.000350907,-0.000699571 -0.000131165,-0.000488733 -3.12577e-05,-0.000448968 0.000133056,-0.000497062 -1.57985e-05,-9.46777e-05 -0.000150476,-6.03658e-05 1.52471e-05,-0.00052853 0.000142554,-0.000129057 -7.48494e-05,-7.61027e-05 0.000164435,-9.17344e-05 -0.000247374,-0.000124972 -5.13227e-05,-0.000328585 0.000236324,-8.31875e-05 1.39624e-05,-8.13922e-05 -3.56858e-05,-0.000108049 -0.000118713,-2.154e-05 -6.58227e-05,-0.000157452 -0.000120613,-5.32461e-05 -3.02951e-05,-0.000217554 1.77032e-05,-0.000174296 0.000223087,-0.000412639 0.000606337,-0.000367948 0.000228778,-2.40156e-05 3.44675e-06,-0.000115313 0.00038959,-6.87175e-05 0.000104192,-0.000154009 0.000651677,-3.31901e-05 5.94567e-05,-0.000215999 0.000373954,-0.000257522 0.000817083,-0.000237805 0.000369476,6.50689e-05 0.000152512,-5.09987e-05 7.51799e-05,0.000107703 0.000158156,1.6677e-05 -0.000124545,-0.000107271 2.10757e-05,-6.56367e-05 0.0004602,-0.000205068 0.000759414,-1.80689e-05 0.000254588,0.000230541 0.000268414,3.24156e-05 0.000203153,0.000259189 0.000144741,5.56216e-05 0.000596137,-2.32826e-05 -9.29554e-06,-0.000463159 -0.000117454,-0.00013713 2.35472e-05,-0.000108567 -0.000166523,-0.000155664 0.000187388,-0.000303245 -0.000146706,-0.00012216 0.000340911,0.000103947 0.000359058,1.34422e-05 -7.78263e-06,0.000321738 -0.000202384,0.000482345 4.73695e-05,4.4735e-05 0.000384586,-0.000518083 0.000127204,0.000125305 0.000253304,-9.02639e-05 0.000140925,2.13392e-05 0.000144086,-0.000148002 -1.11512e-05,-0.000121808 0.000131241,-6.83906e-05 0.000338952,0.000181656 -2.06565e-05,0.000383958 0.000152225,-7.8091e-05 0.000200623,-0.000405854 7.4255e-05,0.000254447 0.000402316,0.000231249 0.000179845,0.000201597 -7.2665e-05,-0.000337988 0.000172918,1.20266e-05 0.000138217,0.000233567 0.000589101,0.00038471 -2.30492e-05,0.000821668 7.21432e-05,0.000482256 0.000235331,0.0003169 0.000395481,0.000170449 -0.00013629,0.000143811 0.000179614,0.000179021 0.000216425,-7.64006e-05 0.000252951,0.000110651 0.000246091,-7.21473e-05 0.000124932,-9.13992e-05 -2.32112e-05,-0.000172012 0.000226529,-0.000153664 9.56856e-05,-0.000203569 0.00181158,-0.00103799 0.000933502,-0.000223201 -0.000304529,0.000393772 -0.000174358,0.000427619 -5.15735e-05,0.000453937 5.45111e-05,0.000633144 0.000165314,0.000660798 0.000547983,0.000886317 3.19217e-06,0.000606148 0.000196257,2.14381e-05 -0.000218485,0.00168574 0.000332899,0.000156738 0.000294223,-9.82008e-06 0.000223521,-0.00169448 0.000449453,4.89503e-05 3.88569e-05,-0.000302398 -0.000340358,-3.65767e-05 7.49037e-05,-0.000582912 -0.000293365,-0.00110454 -0.000221157,-0.000495077 0.000607102,-0.000672152 4.56198e-05,0.000123521 0.000179815,-0.00027023 7.46309e-05,-0.00060783 -0.000168408,-0.000620391 -0.000911063,-0.00209657 -0.000390425,-8.51321e-05 -0.00047959,0.000187517 -0.000650657,0.000940164 -0.00081531,0.000993647 -0.000516687,0.000421562 -0.000533028,0.000197503 -0.000286612,-5.37535e-05 -0.000191126,-0.000129083 -0.000586173,-0.00104393 -0.000568304,-0.00060026 -0.00011157,-0.000305007 1.96907e-05,-0.000463399 -8.96861e-05,-0.000453577 -0.000171285,-0.000237764 -0.000261846,-0.000151968 -0.000366821,-3.46271e-05 -0.000561519,0.000176662 -0.00167267,0.000997548 -0.00064115,-0.000420304 -0.000443604,-0.000125294 -0.000576655,5.16429e-05 -0.000422208,0.000202004 z "/>
<path d="M 0.0135751,0.0194163 l 0.000171471,-6.96317e-05 0.000259782,0.000535543 0.00835456,-0.00326857 0.000197037,-0.000694417 -0.000135942,-0.000256671 -0.000259972,-0.000189368 -0.00117122,-0.000207566 -0.00150723,0.000132427 6.2076e-06,-0.00010075 0.000409649,-0.000276168 0.000378112,-0.000464877 0.00016757,-6.48856e-05 0.000768359,0.000117854 0.000677999,0.00026346 0.00088929,0.000503839 0.000521981,0.000626977 0.000152607,-9.97944e-05 0.00183583,0.00234677 -0.000147719,0.000201692 0.000393742,0.000285006 -4.55952e-06,9.59876e-05 0.000977903,3.88342e-05 -0.000109769,-0.000208696 0.000343099,-0.000514691 0.000227057,-0.000638617 0.000288299,-0.000245507 0.000281009,4.72417e-05 0.00137179,0.000869426 7.06768e-05,0.000187079 0.000130798,5.14458e-05 -0.000235727,0.0005463 0.000257399,1.02161e-05 0.000278965,-0.000418834 0.000376806,-0.000283247 0.00125435,4.47528e-05 2.95765e-05,0.000114962 0.00103226,-0.000222071 0.000278682,-0.000455838 3.14755e-05,-0.000255012 -9.14435e-05,-0.000242626 -0.000258073,-0.000215086 -0.00448622,-0.00150295 -0.000639193,-0.000339121 -0.000825879,-0.000985065 0.000145877,-0.000990949 -0.000215572,-0.000628654 -0.000523081,-0.000529572 -0.000793735,-0.000387596 -0.000571224,-3.75325e-05 -0.000670484,0.000221874 -0.000433959,5.99843e-05 -0.000489446,-4.2936e-05 -0.000864248,-0.000210692 -0.000941255,-1.24394e-05 -0.00433457,0.000360098 -0.000818842,-9.30953e-05 -0.00133085,-0.000356867 -0.000898147,-3.76894e-05 -0.00144246,0.000197763 -0.000164696,0.000382209 -5.51753e-05,0.000407703 5.78295e-05,0.000407395 0.000256011,0.000598861 0.00107021,0.00133488 0.000307056,0.000539802 6.30112e-05,0.000271625 -0.000119874,0.000474064 -0.000373729,0.000506814 -0.000122979,0.000348456 0.00010032,0.000288603 0.000342857,0.000194576 0.000212258,0.000244757 -5.52255e-05,0.000177415 -0.000640543,0.00041814 0.000526901,0.000494863 -0.00128985,0.000969441 0.000136659,0.000193208 0.00138956,-0.000564268 z "/>
<path d="M 0.0252276,0.0255277 l 6.24665e-05,-0.000623454 -0.000263846,-0.00050171 2.15166e-05,-0.000388585 0.000330945,-0.000508488 0.00017441,4.94544e-05 0.000646401,-0.00170611 0.000447738,-0.000311709 0.000506095,-0.00017331 0.000551361,0.00015098 0.000317131,0.000287201 0.000155046,0.00058445 0.000621429,0.000265523 0.000229487,-0.000619965 0.000153385,-0.00078998 0.00184791,0.000996628 7.78426e-05,0.000135927 0.000231513,4.63504e-05 5.35879e-06,-0.00018106 0.000623968,-0.000892938 -0.000126036,-0.000354094 0.000123708,-0.000443989 -3.65197e-05,-0.000257528 -0.000962982,-0.000816846 -0.000999157,-9.34079e-05 2.32137e-05,-0.00048911 0.000805935,3.40969e-05 0.000135065,9.71974e-05 0.000361245,-7.77133e-05 -0.000136137,-0.000529147 -8.12224e-05,1.74729e-05 -2.95765e-05,-0.000114962 -0.00125435,-4.47528e-05 -0.000376806,0.000283247 -0.000278965,0.000418834 -0.000257399,-1.02161e-05 0.000235727,-0.0005463 -0.000130798,-5.14458e-05 -7.06768e-05,-0.000187079 -0.00141396,-0.000892373 -0.000285423,-1.03993e-05 -0.000241721,0.000231611 -0.000227057,0.000638617 -0.000343099,0.000514691 0.000109769,0.000208696 -0.000503099,-1.9978e-05 0.000197029,0.000157432 6.57466e-05,0.000202019 -0.00010043,0.000361551 -0.00024093,0.000294654 -0.000324033,0.000181362 -0.00257665,0.000865672 -0.00026841,0.000533054 -3.77687e-05,0.000362069 -0.000157447,4.09717e-05 -6.70072e-05,0.000136571 7.12166e-05,0.000134778 0.000158654,3.68724e-05 2.5207e-05,0.000196722 0.000225947,0.0002018 3.8382e-05,0.000155488 -7.68228e-05,0.000465792 0.000203636,0.000392163 -7.00955e-05,0.000352865 -0.000167106,1.4678e-05 2.45946e-05,0.000234094 0.000143227,0.000171992 -0.000711118,0.000516374 -0.000320363,0.000335198 0.000470391,0.000217387 0.000511113,0.000117644 0.00139304,5.7073e-06 0.000798043,8.99778e-05 1.2122e-05,-9.92112e-05 z "/>
<path d=""/>
<path d="M 0.0335912,0.0258487 l -0.000977959,-0.000550381 -0.000835439,-0.000824923 -0.000530238,-0.00101439 -0.000146321,-0.000630047 5.65277e-06,-0.000454399 -7.78426e-05,-0.000135927 -0.00184791,-0.000996628 -0.000153385,0.00078998 -0.000229487,0.000619965 -0.000610641,-0.000254538 -0.000183202,-0.000624604 -0.000411972,-0.00030844 -0.000523161,-9.0747e-05 -0.000693831,0.000321775 -0.00017056,0.000145437 -0.000178981,0.000362898 -0.000110597,0.000508312 -0.000362225,0.000842893 -0.000174442,-4.94631e-05 -0.000352147,0.000571359 -3.14404e-07,0.000325714 0.000263846,0.00050171 -6.24665e-05,0.000623454 8.1433e-05,0.000118506 0.00137803,0.000254008 0.00144285,-1.96993e-06 0.000762546,0.000121418 0.00070823,0.000285543 0.000761859,0.000548335 0.000442934,0.000184178 0.000389792,2.62894e-05 0.000467098,-0.000122383 0.00087095,-0.000537154 0.000954615,-0.000304208 0.000127052,-0.000113105 -2.37643e-05,-0.00013847 z "/>
<path d="M 0.00371247,0.0208651 l -0.000895348,-0.000776967 -0.00104406,0.000278069 -6.57759e-06,0.000117291 0.00123224,0.00106933 0.000713745,-0.000687722 z "/>
<path d="M 0.00965185,0.0190332 l 0.000262323,4.24243e-05 0.000648099,-0.000571873 -0.00144689,-0.00135225 -0.000312983,-0.000104895 -0.00108827,3.86533e-05 -0.00159521,-0.000825233 -0.000764128,-0.000151748 -0.00446116,8.61833e-05 -4.25564e-06,0.000748546 -0.000132874,0.000586636 -0.000245586,0.000555404 -0.00051091,0.000762158 7.68314e-05,0.000170014 0.00131643,0.00114243 0.000147183,4.02045e-06 0.000537469,-0.000207201 0.000552826,-8.19071e-06 0.0070211,-0.000915081 z "/>
<path d="M 0.019415,0.0109577 l -0.0015699,-0.000170889 -0.0009976,-0.000299569 -0.000234358,-0.000164466 -0.000312136,-0.000499179 -0.000337886,-0.000105466 -0.00106357,0.000219085 -0.00164146,0.000795909 -0.000463354,0.000116869 -0.00131153,-0.000162282 -0.00020046,-4.99013e-05 -5.38552e-05,-0.000105385 -0.000141214,5.08987e-05 -0.00078008,-0.000292578 -0.000132104,-0.000155936 -0.000249731,-0.000654429 -0.000464073,-0.000343683 -0.000350907,-0.000699571 -0.00013253,-0.000493889 -2.98936e-05,-0.000443812 0.000133056,-0.000497062 -1.57985e-05,-9.46777e-05 -0.000150476,-6.03649e-05 1.52481e-05,-0.000528531 0.000142553,-0.000129057 -7.48494e-05,-7.61027e-05 0.000164435,-9.17344e-05 -0.000247374,-0.000124972 -5.13217e-05,-0.000328584 0.000236323,-8.31884e-05 1.39624e-05,-8.13922e-05 -3.56858e-05,-0.000108049 -0.000118713,-2.154e-05 -6.58227e-05,-0.000157452 -0.000120613,-5.32461e-05 -3.02951e-05,-0.000217554 1.77032e-05,-0.000174295 0.000223088,-0.00041264 0.000606337,-0.000367948 0.000228777,-2.40156e-05 3.44773e-06,-0.000115313 0.000389589,-6.87175e-05 0.000104192,-0.000154009 0.000651677,-3.31901e-05 5.85088e-05,-0.000215337 0.000374462,-0.000258038 0.000817523,-0.000237951 0.000369476,6.50689e-05 0.000152512,-5.09987e-05 7.51799e-05,0.000107703 0.000158156,1.6677e-05 -0.000124545,-0.000107271 2.10767e-05,-6.56368e-05 0.0004602,-0.000205068 0.000759413,-1.80689e-05 0.000254588,0.000230541 0.000268414,3.24156e-05 0.000203153,0.000259189 0.000144741,5.56216e-05 0.000596137,-2.32826e-05 -9.29554e-06,-0.000463159 -0.000117454,-0.00013713 2.35472e-05,-0.000108567 -0.000166523,-0.000155664 0.000187388,-0.000303245 -0.000146706,-0.000122159 0.000340911,0.000103946 0.000359058,1.34422e-05 -7.78263e-06,0.000321738 -0.000202384,0.000482345 4.73695e-05,4.4735e-05 0.000384586,-0.000518083 0.000127204,0.000125305 0.000253304,-9.02639e-05 0.000140925,2.13392e-05 0.000144086,-0.000148002 -1.11512e-05,-0.000121808 0.000131242,-6.83897e-05 0.000338951,0.000181655 -2.06565e-05,0.000383958 0.000152225,-7.8091e-05 0.000200623,-0.000405854 7.4255e-05,0.000254447 0.000402316,0.000231249 0.000179845,0.000201597 -7.2665e-05,-0.000337988 0.000172918,1.20266e-05 0.000138217,0.000233567 0.000585787,0.000378753 -2.35859e-05,0.000725186 8.12036e-05,0.000598241 0.000218274,0.000293931 0.00040733,0.000179873 -0.000136291,0.000143811 0.000179614,0.000179021 0.000216425,-7.64006e-05 0.000252951,0.000110651 0.000246091,-7.21473e-05 0.000124932,-9.13992e-05 -2.32112e-05,-0.000172012 0.00022653,-0.000153664 9.56846e-05,-0.000203569 0.00181158,-0.00103799 0.000933501,-0.000223201 -0.000385578,0.000553328 -0.000144883,0.000722001 0.000167777,0.00115727 0.000600032,0.00102299 3.19119e-06,0.000606148 0.000196257,2.14381e-05 -0.000436025,0.00336416 -0.000838096,-0.000206973 -0.000974328,-6.15013e-05 -0.000711539,-0.000342773 -0.000340287,-4.71686e-05 -0.000426996,0.000173701 -0.000762057,0.000709252 -0.000330424,7.2445e-05 z M 0.0262536,0.0116272 l -0.00018065,-0.000144942 -0.000731041,-0.000272077 -0.000884519,-0.000671422 0.00040947,-0.00310409 0.000449452,4.89494e-05 3.88569e-05,-0.000302397 -0.000340358,-3.65776e-05 7.49038e-05,-0.000582911 -0.000293365,-0.00110454 -0.000221029,-0.000507196 0.000606974,-0.000660033 4.56198e-05,0.000123521 0.000179815,-0.00027023 7.46319e-05,-0.00060783 -0.000107006,-0.000463458 -0.00048943,-0.00105544 -0.000384133,-0.00105742 -0.000183024,-0.000193929 -0.000389721,-2.00601e-05 -0.000396173,0.000175734 -0.000538938,0.000796544 -0.000965574,0.00117672 -0.000550258,0.000426241 -0.000467464,0.000153413 -0.000280061,-5.37913e-05 -0.000201406,-0.000140257 -0.000573795,-0.00102973 -0.000542831,-0.000563477 -0.000136765,-0.000327276 8.94608e-06,-0.000596493 -8.41978e-05,-0.000344693 -0.000202995,-0.000260251 -0.000377453,-0.000157835 -0.000406437,4.26914e-05 -0.000541172,0.000215306 -0.00150326,0.000916619 -0.000856035,-0.000503652 -0.000393776,-5.00729e-05 -0.000393072,5.45013e-05 -0.00221215,0.00125806 -0.000520183,0.000207778 -0.000626689,0.000134655 -0.00066591,-8.40891e-05 -0.000609069,-0.000331712 -0.000393336,-0.000129004 -0.00220155,-4.06159e-05 -0.000565158,-0.000124401 -0.000594302,-0.00023669 -0.00030741,0.000797311 -0.000146694,0.00100494 0.000279027,0.0031013 -3.88405e-05,0.000859787 -0.000108947,0.00050712 -0.000546911,9.9304e-05 0.00246073,0.000883338 0.00195403,0.00239459 0.00197889,0.000606034 0.000242864,-3.38812e-05 2.97813e-05,0.000178527 0.00144246,-0.000197763 0.000600604,-1.84419e-06 0.0016284,0.000396401 0.000656325,8.66175e-05 0.00473188,-0.000361076 0.000706465,1.98956e-05 0.000868737,0.000211412 0.000484957,4.22161e-05 0.000433959,-5.99843e-05 0.000576143,-0.000204157 0.000382376,-2.97944e-05 0.000405341,8.82525e-05 0.000461507,0.000211327 0.000390718,0.000283401 0.000343969,0.000386132 0.000168677,-9.23745e-05 -4.28024e-05,-0.000230293 0.000163951,-0.000386957 -8.4562e-05,-0.000261916 z "/>
<path d="M 0.0123916,0.0241839 l -0.000159994,-0.000430543 -0.000386477,7.46237e-05 4.08047e-05,0.000176696 -0.000483102,9.32792e-05 6.12152e-05,0.000265042 0.000927553,-0.000179098 z "/>
<path d="M 0.0147943,0.0219776 l -0.000356069,-0.00078177 0.00146213,-0.00057889 0.00135747,0.000110805 0.00237233,-0.00185796 -0.000617241,-2.45386e-05 -8.8179e-05,-0.000181551 -0.00148179,0.000601788 -0.000285685,-0.000588209 -6.93947e-05,8.69726e-06 -0.00308154,0.00119625 -0.000259782,-0.000535543 -0.00156103,0.0006339 0.000864444,0.00177827 -0.000228352,9.2608e-05 0.00012575,0.000259261 0.000315944,-0.00012813 4.45705e-05,9.18922e-05 0.000118081,0.00180016 9.41173e-05,8.16671e-05 0.00139094,-0.000167485 -0.000116711,-0.00181123 z "/>
<path d="M 0.0128118,0.0183231 l 0.000693338,-0.000500293 -4.61168e-05,-0.000179577 -0.000468591,-0.000316847 -0.000138277,-0.00027517 8.43378e-05,-0.00032915 0.000452107,-0.000664262 7.40674e-05,-0.000457048 -0.000364017,-0.000741905 -0.000926025,-0.00111346 -0.000316325,-0.000574254 -0.000141695,-0.000653587 5.51732e-05,-0.00040753 0.000164696,-0.000382209 -2.97813e-05,-0.000178527 -0.000242864,3.38812e-05 -0.00197889,-0.000606034 -0.0020111,-0.00241832 -0.000429045,0.000863117 -0.000289136,-0.000120199 -0.000482173,0.000969976 -0.000962175,-0.000399998 -0.000314133,0.000631916 0.00254837,0.00108885 0.000235585,0.000225729 0.00103221,0.00156693 0.00185328,0.00106515 0.000142259,0.000341189 -0.000203478,0.000111092 0.000675465,0.00109181 0.000142672,0.00126327 -0.000367994,7.91114e-05 -0.00103801,0.000656785 0.000664729,0.000629385 0.00109496,-0.00067331 0.00111761,0.00105315 0.000245864,-0.000184791 -0.000526901,-0.000494863 z "/>
<path d="M 0.0054787,0.00993331 l 3.06469e-05,-6.16501e-05 0.000962175,0.000399998 0.000482173,-0.000969976 0.000289136,0.000120199 0.000429045,-0.000863117 -0.00240366,-0.000859613 0.000441819,0.000224334 -0.000128241,0.000309064 -0.000678445,0.00114403 -0.000701811,0.000729463 0.000993679,0.000397529 0.000283486,-0.000570266 z "/>
<path d="M 0.0321211,0.0286863 l -1.49622e-05,-0.00140882 -0.000761003,0.000273269 -0.000767383,-5.17589e-05 1.27394e-05,0.0012009 0.00153061,-1.3583e-05 z "/>
<path d="M 0.0188929,0.0217864 l -0.000210536,-2.42283e-05 -0.000229087,-0.000182671 -0.000513934,0.000404532 0.000735091,0.000747679 0.000150561,-0.000191054 0.000424514,-0.000205823 4.61416e-05,-8.52715e-05 -0.00018842,-0.000325221 -0.000214331,-0.00013794 z "/>
<path d="M 0.0255372,0.0187372 l -0.000393742,-0.000285006 0.000147719,-0.000201692 -0.00183583,-0.00234677 -0.000152607,9.97944e-05 -0.000521981,-0.000626977 -0.00088929,-0.000503839 -0.000677999,-0.00026346 -0.000722224,-0.000118841 -0.000246499,9.53998e-05 -0.000345318,0.00043535 -0.000418822,0.000285289 2.94601e-06,9.16079e-05 0.00150725,-0.000132405 0.00117122,0.000207566 0.000259972,0.000189368 0.000135942,0.000256671 -0.000197037,0.000694417 -0.00520362,0.00206362 0.000285685,0.000588209 0.00148179,-0.000601788 8.8179e-05,0.000181551 0.000617241,2.45386e-05 -0.000842814,0.000647415 0.00545972,0.000206044 -0.000147175,0.000650652 -0.000173368,0.000269526 0.0017486,-0.000621698 0.000362934,-0.000258937 0.000190678,-0.000329781 2.00935e-05,-0.000348067 -0.0002414,-0.000232909 -0.000474804,-1.88562e-05 4.55952e-06,-9.59876e-05 z "/>
<path d="M 0.0130929,0.0190027 l -0.00111761,-0.00105315 -0.00109496,0.00067331 -0.000167219,-0.000158328 -0.000738014,0.00052744 -0.000442766,0.00105705 -2.39561e-05,0.000298539 0.000741856,0.00174737 0.000204389,0.000243562 0.000382086,0.000110092 0.000705021,-8.94294e-05 0.00150829,-0.000600318 -0.0010011,-0.00197148 0.00104398,-0.00078465 z "/>
<path d="M 0.0231416,0.0235249 l -0.000201471,-0.000346054 8.02485e-05,-0.000410549 -4.18077e-05,-0.00021073 -0.000201242,-0.000156829 -4.99124e-05,-0.000241693 -0.000202578,-8.34467e-05 -1.65645e-05,-0.000148917 0.000213726,-0.000116829 3.77687e-05,-0.000362069 0.00026841,-0.000533054 0.00088969,-0.000289012 0.000182043,-0.000251812 0.000147175,-0.000650652 -0.00545972,-0.000206044 -0.00183992,0.00145795 0.000991922,0.00100893 0.000513934,-0.000404532 0.000229193,0.000182718 0.000289028,4.60781e-05 0.000230018,0.000236636 9.41347e-05,0.000204628 -4.61416e-05,8.52715e-05 -0.000424379,0.000205719 -0.000169269,0.000238052 -1.41704e-06,0.000814485 0.00085278,-1.82193e-05 0.000799727,0.000216563 0.000585079,0.000344525 0.00103188,0.000914474 0.00026051,-2.33932e-05 0.000889946,-0.000682461 -0.000143227,-0.000171992 -2.45946e-05,-0.000234094 0.000167106,-1.4678e-05 6.79304e-05,-0.000398974 z "/>
<path d="M 0.0118452,0.023828 l 0.000386477,-7.46237e-05 0.000159994,0.000430543 0.000690814,-0.000133391 8.95252e-05,-0.000126817 -0.000146018,-0.00127234 -0.000357789,-0.000737662 -0.00118677,0.000455824 -0.000712683,7.73679e-05 -0.000413494,-0.000192964 -0.000846877,-0.00190634 6.1826e-06,-0.000240544 0.000321926,-0.000884716 -0.000159529,-2.8236e-05 -0.00685981,0.000894064 0.000895348,0.000776967 -0.000713745,0.000687722 0.00258691,0.00224013 0.00107493,0.000640952 0.00122759,0.000341967 0.00128317,1.59413e-05 0.00229277,-0.000428826 -6.12152e-05,-0.000265042 0.000483102,-9.32792e-05 -4.08047e-05,-0.000176696 z "/>
<path d="M 0.018361,0.0236324 l -1.19744e-05,-0.000109425 -0.000196519,1.79806e-05 -1.96639e-05,-0.000179694 0.000196518,-1.79805e-05 -5.32684e-06,-0.000462744 -7.71168e-05,-0.000174319 -0.00203483,-0.00207384 -0.000365205,-4.34614e-06 -0.00140867,0.00056777 0.000356012,0.000781291 0.000119184,0.0018117 0.00214023,-1.19765e-05 0.00130736,-0.000144416 z "/>
<path d="M 0.0380785,0.0255265 l -5.04411e-05,-0.000489583 -0.00017207,-0.000301219 -0.000232581,-0.000170747 -0.000968269,-0.000411814 -0.000593394,-0.000428215 -0.000538047,-0.000666677 -0.000412464,-0.000920301 -0.000356524,-0.000317607 -0.000400937,-0.000102683 -0.0014574,2.63856e-05 -0.000674719,-0.000212837 -0.000253878,-0.000184324 -0.000623968,0.000892938 -5.78646e-06,0.000573683 0.000195144,-2.73938e-05 2.99692e-05,0.0001785 -0.000195211,2.74035e-05 3.31509e-05,0.000150119 0.000425375,0.000994665 0.000731173,0.000832862 0.000839174,0.000535877 0.000240121,7.96313e-05 0.000412755,-8.03175e-05 0.000438968,0.000242479 0.00273836,0.000576706 0.00030148,-3.97462e-05 0.000319496,-0.000184752 0.000168171,-0.000231502 6.23566e-05,-0.000341531 z "/>
<path d="M 0.0387948,0.027083 l -0.00052581,-0.000886666 -0.000300693,0.000282881 -0.000316423,0.000148254 -0.000379374,5.84664e-05 -0.000498906,-7.51251e-05 0.000717991,0.00121076 0.000755264,-0.000374454 -4.23646e-05,-7.14391e-05 0.000590316,-0.000292679 z "/>
<path d="M 0.0116023,0.0170696 l -0.000146768,-0.00114213 -0.000652049,-0.00102492 -0.00012186,-2.81172e-05 -0.000192823,-0.000356408 -0.00171453,-0.000985989 -0.00112628,-0.00167518 -0.000993969,-0.00046412 -0.000434607,4.7463e-05 -0.000336361,-0.000139831 -0.000263496,-0.000337677 -0.00166947,-0.000632862 -0.00182387,0.00159159 -0.000483732,0.000611958 -0.000453348,0.000835414 -0.000341219,0.00127292 -3.12931e-05,0.000749767 6.83171e-05,0.000656672 0.00447089,-6.62815e-05 0.000477765,5.5031e-05 0.000450429,0.00015571 0.00142846,0.00076015 0.00101803,-3.56559e-05 0.000352024,7.16288e-05 0.00113308,0.00100479 0.00103801,-0.000656785 0.000319476,-6.86812e-05 2.91978e-05,-0.000198453 z "/>
</g></g></svg>