<?xml version="1.0" encoding="UTF-8" standalone="no"?>
<!DOCTYPE svg PUBLIC "-//W3C//DTD SVG 1.1//EN" "http://www.w3.org/Graphics/SVG/1.1/DTD/svg11-flat.dtd"
[
<!ATTLIST g xmlns:fme CDATA #FIXED "http://www.safe.com/fme" >
<!ATTLIST path fme:district_id CDATA #IMPLIED fme:precinct_id CDATA #IMPLIED fme:id CDATA #IMPLIED >
<!ATTLIST ellipse fme:district_id CDATA #IMPLIED fme:precinct_id CDATA #IMPLIED fme:id CDATA #IMPLIED >
<!ATTLIST text fme:district_id CDATA #IMPLIED fme:precinct_id CDATA #IMPLIED fme:id CDATA #IMPLIED >
<!ATTLIST use fme:district_id CDATA #IMPLIED fme:precinct_id CDATA #IMPLIED fme:id CDATA #IMPLIED >
]>
<svg xmlns="http://www.w3.org/2000/svg"  viewBox="-0.000361862 -0.000361862 0.0296726 0.0371084"><g xmlns:fme="http://www.safe.com/fme" fill="none" stroke="black" stroke-width="0.000003618615075" transform="translate(0,0.0363847) scale(1, -1)">
<g id="UT-S" >
<path d=""/>
</g><g id="EQ-EC" >
<path d="M 0,0.0236805 l 0.00119068,0.00131438 0.000172438,-5.86234e-05 -0.000243317,-0.000109121 2.8367e-05,-0.000246702 0.000223149,-7.20164e-05 0.000172118,0.000122665 6.7204e-06,0.000165398 0.000204275,0.000260791 0.000598938,0.00152218 0.000722485,0.00254818 0.000521678,0.0010539 0.000552987,-0.000323543 0.00151437,-0.000209909 0.00134971,-0.000529452 0.000479184,-0.000111152 -0.000271922,-0.000829934 -9.1337e-05,-8.09972e-05 7.80282e-05,-0.000127967 -0.000193861,-0.000307511 -0.000811602,-0.00233351 -0.000298523,-0.000634049 -0.00157113,-0.00204157 -0.000679426,-0.00210004 -0.00365401,0.00312861 z "/>
</g><g id="EQ-RT" >
<path d="M 0.0151808,0.0208118 l -0.000368665,-0.000946359 -0.00592824,-0.00379779 0.000930513,-0.000788897 0.00312532,-0.00304339 0.000831842,-0.00116211 0.000587188,-0.00128078 0.000322951,-0.00135674 5.86645e-05,-0.000692773 -9.00462e-05,-0.00138655 -0.00036234,-0.00134847 -0.000279897,-0.000646009 -0.000745735,-0.00120899 -0.000459694,-0.000553021 0.00522887,-0.00246039 0.00551035,0.00211603 -0.00174429,0.00941787 -0.000126798,0.000382103 -0.000228713,0.000340249 -0.000436696,0.000350547 -0.000670708,0.000237685 -0.000539575,2.8459e-05 -0.000500399,-0.000108184 -0.000435927,-0.000227853 -0.00037022,-0.000348172 -0.000278371,-0.000522151 -0.00243434,0.00882797 -0.000595049,0.000177734 z "/>
</g><g id="EQ-AR" >
<path d="M 0.00973599,0.0300591 l 0.0010633,7.01194e-05 0.00169789,-0.000584368 0.00339635,-0.00176135 0.000509138,-0.000477274 0.00024748,-0.000557187 4.5112e-06,-0.000683853 -0.00147384,-0.00525341 0.000595197,-0.000178181 0.00148449,0.000884592 2.10162e-05,0.000586511 0.000304015,0.000746873 -3.25212e-05,0.000579681 0.000412198,0.000875638 0.000683547,0.000740169 0.000737815,0.000171179 0.000352711,-6.40787e-05 -9.68029e-05,0.000179212 0.000761801,0.000148921 -6.03106e-05,0.000359483 -0.00012301,3.72254e-05 7.58819e-05,0.000170887 -0.000209015,0.000223381 -1.82667e-05,0.000123314 0.000183421,0.000237997 0.000283999,0.000171667 9.18552e-05,0.000279103 0.000480875,0.00018982 -8.21596e-05,0.000122251 1.03403e-05,0.000161931 9.0316e-05,5.87899e-05 0.000343099,1.4289e-06 0.000172039,0.000160991 0.000349629,-7.99007e-05 1.8456e-06,0.000171553 -0.000195691,0.0001643 -0.000283067,7.2529e-05 -0.000314237,-7.16705e-05 -3.41319e-05,0.000268948 -0.000337351,0.000533544 -8.482e-06,0.000359017 0.000187181,-3.78031e-05 0.000640407,0.000104856 0.000180175,0.000228643 -9.3485e-05,0.000258195 -0.000267899,0.000106255 -8.23838e-05,0.000142963 0.000132821,0.000186177 1.97527e-05,0.000230086 0.000473534,0.000194398 0.000444492,1.85736e-05 0.000324918,0.000146069 4.48985e-05,0.000108685 0.000577651,0.000216596 2.68232e-05,9.33914e-05 -0.000346923,0.000490248 7.4137e-06,0.000131248 0.000625249,7.11211e-05 0.000204837,-0.00023211 0.000492154,-0.000139886 0.000187962,3.44249e-05 9.29103e-05,-8.21074e-05 0.000475849,-4.94419e-05 1.84451e-05,0.000108193 0.000161544,0.000102387 -0.000129687,0.000105014 4.11446e-05,0.000153138 -0.000108779,0.000149517 7.89956e-05,0.000307604 0.000604227,0.00039554 0.000484671,8.14089e-05 -0.000136702,0.000141198 -0.000584158,7.75126e-05 -0.000587474,0.000456798 -0.000174734,0.000276989 9.8487e-06,0.000173805 0.000685118,0.000181123 -0.000339368,0.000459919 -0.000132699,0.000454234 -0.000733663,-8.77654e-05 -0.000118001,2.53382e-05 -3.3678e-05,8.15731e-05 -0.000104245,-5.32398e-05 8.20878e-05,0.000440063 0.000306109,0.000308179 -0.000485373,8.33883e-05 8.29574e-05,0.000139216 -0.000103419,2.35072e-05 -6.28096e-05,0.000126985 -9.59175e-05,3.24694e-05 2.36599e-05,-9.50277e-05 -0.000494518,-0.000307076 -3.20981e-05,-0.000229974 -0.000331305,-0.000297893 -0.000341248,0.000649346 -0.000171185,-0.000768262 -0.000243748,-0.000171632 -0.000174241,9.41256e-05 -0.000182322,0.000719522 -0.000145952,0.000199972 -0.000230647,0.000128495 -0.000297921,1.0683e-05 -0.000375198,0.000288846 -0.000119103,-5.76235e-05 7.11808e-05,-0.000267024 -8.54051e-05,-0.000367203 3.6214e-05,-0.000305087 -0.00013989,-0.000154509 4.52931e-05,-0.000149401 -0.000257015,-0.000487564 -8.4813e-05,-0.000357759 -0.000325241,-0.000411386 -0.000511144,-0.000191226 -0.000223159,0.000130868 -2.4164e-06,-0.000225018 -0.000815981,-0.000323295 -0.000294872,8.42361e-05 -0.000244704,0.000198598 -0.00030123,-8.5846e-06 0.000127565,-0.000303648 -0.000203716,-0.000122334 -0.000102356,-0.000337806 -0.000163379,-0.000131626 -0.000331715,-1.5402e-06 -0.000254098,-0.000444771 -0.000463721,-0.000326601 -0.000358781,4.951e-06 -8.83339e-05,8.60689e-05 -0.000236357,-7.58441e-05 -0.000842208,0.000113748 -0.00137343,1.23615e-05 -0.000476037,0.000304821 -0.000162587,-0.000615858 -0.000251874,-0.00030611 -0.000384324,-0.00015719 -0.000943601,-0.000201043 -9.28881e-05,-0.000238295 -0.0012078,-0.000692891 z "/>
</g><g id="13" >
<path d="M 0.0285443,0.0114054 l -4.11874e-06,-0.000144055 0.000142296,2.03676e-05 -1.63422e-05,-0.000142074 -0.000111296,-0.000112492 1.86667e-05,-0.000194338 0.00022921,-0.000527419 5.99841e-05,-5.05724e-06 -0.00283556,-0.00709054 -0.0083589,-0.00320982 -0.00476719,0.00236357 -0.000219262,0.000258089 -3.43678e-05,0.000378405 0.000910262,0.00160521 0.000254122,0.000599791 0.000327167,0.0012499 7.04045e-05,0.000640033 -4.83845e-05,0.00128447 -0.000298506,0.00125589 -0.000240357,0.000604524 -0.00065504,0.00115965 -0.000851247,0.00111533 -0.00299743,0.00280264 -0.00579733,0.0049843 0.00117354,0.00252197 0.0011838,0.00147761 -0.000426453,0.000436239 -0.000819841,5.8161e-05 -0.00182247,-7.28577e-05 -0.000748837,0.000197427 -0.00128723,0.00582403 0.00143521,0.00157716 0.00127392,0.000789999 0.00220021,0.000272992 0.000943425,-0.000211897 0.00212942,-0.00115096 0.00193755,-0.000882173 0.00216853,0.00121438 0.000591121,-0.000389017 0.00137343,-1.23605e-05 0.000842208,-0.000113748 0.000236357,7.58447e-05 8.83344e-05,-8.60695e-05 0.000377875,3.27629e-06 0.000444627,0.000318374 0.000254098,0.000444771 0.000331716,1.54019e-06 0.000163378,0.000131625 0.000102356,0.000337807 0.000203716,0.000122334 -0.000127565,0.000303648 0.00030123,8.58466e-06 0.000244704,-0.000198598 0.000294873,-8.42361e-05 0.000815981,0.000323295 2.41646e-06,0.000225018 0.000223159,-0.000130869 0.000441807,0.000153271 0.000214877,0.000153909 0.00052153,0.00114075 -3.74761e-05,0.000187709 0.000132073,0.000116202 -3.6214e-05,0.000305087 8.54051e-05,0.000367203 -6.61717e-05,0.000273751 0.000148648,5.05853e-05 0.000340644,-0.000288535 0.000297921,-1.06828e-05 0.000230647,-0.000128495 0.000145952,-0.000199972 0.000182322,-0.000719522 0.000174241,-9.41256e-05 0.000243748,0.000171632 0.000171185,0.000768262 0.000341248,-0.000649347 0.000331305,0.000297893 3.2098e-05,0.000229974 0.000494518,0.000307076 -2.36599e-05,9.50277e-05 0.000262146,-0.000182962 -8.29574e-05,-0.000139216 7.10897e-05,-4.57906e-05 0.000414284,-3.75977e-05 -0.000306108,-0.00030818 -8.20884e-05,-0.000440063 0.000104246,5.32398e-05 3.36779e-05,-8.15731e-05 0.000118001,-2.53383e-05 0.000733662,8.77656e-05 0.0001327,-0.000454234 0.000339367,-0.000459919 -0.000685118,-0.000181123 -9.84902e-06,-0.000173804 0.000126126,-0.000206569 0.000636081,-0.000527219 0.000584158,-7.75126e-05 0.000136702,-0.000141198 -0.000484671,-8.14089e-05 -0.000604227,-0.000395541 -7.89953e-05,-0.000307603 0.000108778,-0.000149517 -4.11447e-05,-0.000153138 0.000129688,-0.000105014 -0.000161544,-0.000102387 -1.8445e-05,-0.000108193 -0.000475849,4.94419e-05 -9.29103e-05,8.21074e-05 -0.000187962,-3.44249e-05 -0.000492153,0.000139886 -0.000204837,0.00023211 -0.000625249,-7.11211e-05 -7.41336e-06,-0.000131249 0.000346922,-0.000490248 -2.68233e-05,-9.33917e-05 -0.000577651,-0.000216596 -4.48984e-05,-0.000108685 -0.000324918,-0.000146069 -0.000444492,-1.85736e-05 -0.000473534,-0.000194398 -1.97527e-05,-0.000230086 -0.000132821,-0.000186177 8.23838e-05,-0.000142963 0.000267899,-0.000106255 9.3485e-05,-0.000258195 -0.000180174,-0.000228643 -0.000640407,-0.000104856 -0.000187181,3.78031e-05 8.48203e-06,-0.000359017 0.000337351,-0.000533544 3.41319e-05,-0.000268948 0.000314237,7.16705e-05 0.000283067,-7.2529e-05 0.000195691,-0.0001643 -1.84559e-06,-0.000171553 -0.000349629,7.99007e-05 -0.000172039,-0.000160992 -0.000343099,-1.42886e-06 -9.03156e-05,-5.879e-05 -1.03401e-05,-0.000161931 8.21591e-05,-0.000122251 -0.000480875,-0.00018982 -9.18552e-05,-0.000279103 -0.000283999,-0.000171667 -0.000183421,-0.000237997 1.8267e-05,-0.000123314 0.000209015,-0.000223381 -7.58819e-05,-0.000170887 0.00012301,-3.72254e-05 6.03106e-05,-0.000359483 -0.000761801,-0.000148922 9.68029e-05,-0.000179211 -0.000352711,6.40781e-05 -0.000737815,-0.000171179 -0.000683547,-0.000740169 -0.000412198,-0.000875638 3.25214e-05,-0.000579682 -0.000304015,-0.000746873 -2.10158e-05,-0.000586511 0.00056901,-0.000753116 0.000323264,-0.00023783 0.000356433,-5.98786e-05 0.00019726,-0.000301515 0.000513839,-0.000131535 0.000104642,-0.000191252 0.000413932,-0.000100451 0.000477538,0.000199228 -0.000166994,-0.000152009 -1.01001e-05,-0.000251048 0.00059087,-0.000449752 0.000693342,6.628e-05 6.61531e-05,0.000184519 0.000125228,-5.98211e-05 -5.67286e-05,0.000233032 0.000162132,0.000158824 0.000346104,5.33238e-05 0.000100833,-0.000262776 -9.87456e-05,-0.000231633 0.000137421,-7.34762e-05 -1.10851e-05,-0.000112775 0.000180151,-1.62107e-06 0.000129687,0.000125252 0.000117436,-9.58716e-05 0.000231353,0.000169487 0.000432938,9.54316e-05 -6.91272e-05,0.000456636 0.000237495,5.2041e-05 0.0001319,0.000330663 0.000146782,-0.000120969 0.000438191,5.8712e-06 0.00068969,0.000334777 0.000125084,-2.1186e-05 -1.48314e-05,-0.00108462 -4.32666e-05,-0.000121514 -0.000267108,-5.17718e-05 -0.000198958,-0.000140429 -0.000135134,-0.00017261 5.29789e-05,-0.000122382 -0.000219696,-0.000232799 -0.000147848,-0.00135331 0.000348919,-0.000142964 0.000161269,-0.000150448 0.000135922,1.68349e-05 0.00019177,0.000160811 0.000472593,1.21467e-06 0.000360104,-0.000269022 -5.08923e-05,-0.000470669 5.27333e-05,-0.000144955 -9.02994e-05,-0.000134635 0.000102911,-6.55024e-05 0.000166491,5.58492e-05 0.000412113,-5.74466e-05 0.000325793,0.000100903 0.000111179,-0.000217723 0.00017629,-0.000130268 0.000229842,2.95297e-05 0.000364533,0.000215968 7.5463e-05,7.68713e-05 -1.46246e-06,0.000321752 8.47325e-05,7.59893e-05 0.000163847,8.88194e-05 0.000167004,-7.6006e-05 0.000296888,6.72994e-05 0.000164384,0.000138479 0.000145452,-1.48597e-05 -0.000241373,-0.000182932 -0.000301994,-8.30555e-05 -0.000199639,-0.000203628 -8.57073e-05,-0.00016628 4.94892e-05,-0.000445173 -9.0654e-05,-0.000624506 -0.000229882,-0.00026205 -0.000455816,-0.000158423 -3.10011e-05,-0.000128397 0.000351488,-0.000122313 0.000344224,-0.00060624 0.000371927,-0.000390439 0.000864512,-4.75263e-05 0.000125328,-0.000734817 -0.000393667,-0.000626458 -1.09483e-05,-0.000382964 z "/>
</g><g id="EQ-PC" >
<path d="M 0.0158223,0.023102 l 0.000860625,0.0031578 -0.000106313,0.000706247 -0.000325426,0.000517094 -0.000361568,0.000303014 -0.00337172,0.001748 -0.00171858,0.000595091 -0.0010633,-7.01194e-05 -0.00175146,-0.00102232 -0.000491016,-3.01769e-05 -0.000271638,-0.000829066 -9.1337e-05,-8.09972e-05 7.80282e-05,-0.000127967 -0.000193861,-0.000307511 -0.000811602,-0.00233351 -0.000298523,-0.000634049 -0.00157113,-0.00204157 -0.000679426,-0.00210004 0.00522989,-0.00448427 0.00595136,0.00381861 0.000345544,0.000925546 0.000641454,0.0022902 z "/>
</g></g></svg>