<?xml version="1.0" encoding="UTF-8" standalone="no"?>
<!DOCTYPE svg PUBLIC "-//W3C//DTD SVG 1.1//EN" "http://www.w3.org/Graphics/SVG/1.1/DTD/svg11-flat.dtd"
[
<!ATTLIST g xmlns:fme CDATA #FIXED "http://www.safe.com/fme" >
<!ATTLIST path fme:district_id CDATA #IMPLIED fme:precinct_id CDATA #IMPLIED fme:id CDATA #IMPLIED >
<!ATTLIST ellipse fme:district_id CDATA #IMPLIED fme:precinct_id CDATA #IMPLIED fme:id CDATA #IMPLIED >
<!ATTLIST text fme:district_id CDATA #IMPLIED fme:precinct_id CDATA #IMPLIED fme:id CDATA #IMPLIED >
<!ATTLIST use fme:district_id CDATA #IMPLIED fme:precinct_id CDATA #IMPLIED fme:id CDATA #IMPLIED >
]>
<svg xmlns="http://www.w3.org/2000/svg"  viewBox="-0.000470272 -0.000470272 0.0385623 0.0427123"><g xmlns:fme="http://www.safe.com/fme" fill="none" stroke="black" stroke-width="0.000004702715547" transform="translate(0,0.0417718) scale(1, -1)">
<g id="14" >
<path d="M 0.0076937,0.00360995 l -0.000422598,0.000164088 0.00390499,0.00863197 -0.00623667,0.00224874 0.000198196,0.000267525 -3.28079e-05,0.000291784 0.00052696,-7.68357e-05 0.000320846,0.000151911 0.00099965,-0.000597449 0.000485015,3.07222e-05 0.000244239,0.000157458 -4.24711e-05,0.000592961 -0.000779069,0.000468183 0.00025643,-4.034e-06 0.000416809,0.000136319 -5.18082e-05,0.000422611 -0.000556722,0.000369404 -0.000191273,0.000254088 0.000682279,-2.91846e-05 0.000174284,0.000241914 -5.89021e-05,0.000291027 -0.000135995,0.000119211 -0.000870159,2.38515e-05 -0.000818006,0.000297906 0.000117413,0.000183908 3.93705e-06,0.000242352 -0.000257064,0.000250666 0.000289639,3.2512e-05 0.00100418,-0.000324027 0.000308364,1.53677e-05 0.000196264,0.00015849 -2.90067e-05,0.000349775 -0.00130941,0.000252592 -0.000180412,6.7006e-05 2.25343e-05,8.09577e-05 -0.000168489,0.00010728 -0.000295224,5.62742e-05 -0.000185041,0.000118541 0.000328178,3.47636e-05 5.81866e-05,6.2284e-05 0.000349747,-0.000159803 0.000298134,-3.65672e-05 0.00051585,0.000181752 0.000725808,0.00011171 0.000582404,0.000259958 0.000529527,7.83687e-05 0.000155397,0.000163646 4.00016e-05,0.0001684 -0.000119983,0.000261232 -0.000135104,5.70349e-05 -0.000387118,-5.03108e-05 -0.000795886,0.000403322 0.000423197,3.78512e-05 0.000492246,0.000287432 0.00027991,0.000308861 6.51237e-05,0.000343909 -0.000369963,0.000297162 -0.000516722,3.0181e-05 0.000196386,0.00024227 -5.46773e-05,0.000181546 -0.000572364,0.000703398 -0.000757891,-7.48755e-05 -0.000941607,-0.000290147 -0.000131393,9.41704e-05 -0.000222234,1.30336e-05 -0.000299419,-7.538e-05 -0.000158474,-0.000129059 -0.000344194,1.50329e-05 -0.00022825,0.000132436 0.000271941,5.4887e-05 0.000265542,0.000183791 0.000345312,0.000373847 6.18832e-05,0.000286744 -0.000198763,0.000295993 0.000105644,0.00024119 -5.92834e-05,0.000235165 -0.000494506,0.000245189 -0.00104764,-3.09362e-05 -0.000468455,8.5008e-05 -0.000161808,0.000257788 -0.000588818,0.000159386 -6.7506e-05,0.000252963 -0.000379612,0.000126953 0.00145538,5.78511e-05 0.000150894,-0.00043875 0.00020441,-0.000118186 0.00024834,5.20712e-05 -4.65485e-05,0.000358685 9.89748e-05,1.76629e-05 0.000119681,-0.00017299 0.00017654,-8.28985e-05 0.000266057,8.83006e-05 -1.69687e-05,0.000261168 0.000284546,0.00030977 2.91857e-05,0.000136931 -0.000167655,0.000141907 -6.12474e-05,0.000173218 -0.000929345,0.000500825 -0.000353,5.15112e-05 0.000204087,0.000187798 -5.18615e-05,0.000325092 0.000121785,4.47289e-05 8.69129e-05,-2.63159e-05 -2.86021e-05,-0.000178626 0.000122033,-2.40961e-05 0.000167564,-0.000263452 0.000264207,-0.000156983 0.000406523,-3.54338e-06 0.000234267,0.000191437 0.000150155,2.37392e-05 0.000563191,-0.00018732 0.000377874,5.77417e-05 7.34765e-05,6.86429e-05 2.04354e-05,0.000234666 -0.000161266,7.14897e-05 -7.88435e-05,0.000202043 0.000133749,0.000110352 0.000102759,-0.00010276 0.000198754,7.80234e-05 -0.000141184,-0.000116095 -3.94041e-05,-0.000161072 0.000104435,-0.000139551 0.000109805,3.43754e-05 0.000167482,0.00025668 4.68728e-05,0.00033005 -8.56245e-05,3.09152e-05 -6.71306e-05,0.000311726 -0.00041261,0.000195394 -1.88665e-05,8.07454e-05 0.000268158,0.000221303 0.000420374,2.14979e-05 0.000685868,-0.000255698 3.73584e-05,0.000267619 -0.000136296,1.5003e-05 -2.02008e-05,0.000115788 -0.000301738,2.97238e-05 -0.000254744,0.000165315 -0.000259696,-8.89545e-05 -0.000341148,2.16409e-06 -0.00037688,-0.000334417 -4.73315e-05,-0.000138756 0.000125397,-0.000360871 0.000286513,-0.000109591 -0.000443131,-6.20241e-05 -0.000183699,-0.0002693 -0.00076813,0.000113298 -0.000232911,-6.39498e-05 -0.000187784,0.000334642 0.000369903,-5.76737e-05 8.36359e-05,8.70396e-05 -7.47496e-05,0.000555784 0.000128255,0.000254325 0.000573817,0.000130357 0.000561082,0.000320012 0.000603283,-0.000132311 0.000397306,-0.000286074 0.000244469,6.01552e-05 -2.95344e-05,0.000252693 -0.000192474,0.00026974 0.000182642,8.83118e-05 0.000159373,0.000194671 -5.53087e-06,0.000234453 -0.000332265,0.000185529 -0.000605866,-0.000120206 -2.46674e-05,0.000383258 -0.000127123,2.94839e-05 -0.000272646,9.54546e-07 -0.000846825,-0.000249116 -0.000225861,0.000129075 -0.000243909,-5.09026e-05 -8.32142e-06,6.45138e-05 0.000485179,8.95243e-05 0.000155286,0.000104429 2.24983e-05,0.00031207 -0.000223216,0.000128792 0.000343926,0.000278896 0.000181949,-4.40375e-06 0.000389128,-0.000183466 0.000937934,-9.08403e-05 0.000146011,0.00057151 -0.000113118,5.95082e-05 -0.000141479,-0.00026074 -0.00153351,0.00020891 -0.000255639,-7.45974e-05 -0.000106506,-0.000227325 -0.000366449,1.09453e-06 -0.000177653,-8.74419e-05 -4.93244e-05,-0.000174776 0.000107512,-0.00020633 0.000450816,-0.000102946 -0.000571021,-0.00014989 -1.69306e-05,-0.000265607 0.000151056,-0.000317253 0.000235738,-1.1988e-05 8.02646e-05,6.68271e-05 0.000145591,-0.000129544 0.000288726,-7.77058e-06 0.000465911,0.000106105 0.000320731,0.000180028 8.51628e-05,-7.55393e-05 5.97514e-05,-0.000304297 0.000234527,-3.91985e-05 0.000448155,0.000103954 9.58028e-05,-5.47768e-05 -0.000236097,-0.000135203 -4.91189e-05,-0.000181152 -0.000805068,0.000199954 -0.000390066,-0.000293872 -0.000873558,-0.00022347 -0.00036627,-0.000389131 -2.32345e-05,-0.000304398 -0.000605013,0.000392662 -0.000362984,0.000148792 -0.000150574,-9.21256e-06 0.000178172,0.000270275 -5.71964e-05,0.000230975 -0.000189005,0.000115416 -0.000539405,8.74804e-05 8.19552e-05,0.000253101 -0.000132639,0.000199657 -0.000611289,3.71388e-05 -9.69526e-05,0.000195889 -0.000203691,0.000104328 -0.000314231,9.33683e-05 -0.000155307,-3.22552e-05 2.55674e-05,0.000274199 -0.000153086,0.000243806 -0.000675263,0.000245784 4.70021e-05,0.00021292 0.000400714,-8.08547e-05 0.000352678,-0.000153725 4.05543e-05,-0.000114033 0.000283902,-0.000201437 0.000997985,-0.00027992 0.000576698,3.11005e-05 0.000236471,8.97624e-05 6.28854e-05,0.000508179 0.000612422,-2.79575e-05 0.000294506,0.000169663 2.01242e-05,0.000297927 -0.000137571,9.2538e-05 -0.000228363,2.47862e-05 2.24111e-05,0.000146072 -7.69053e-05,0.000130043 -0.000312002,6.5485e-05 0.000219409,0.000156013 0.000554496,3.18468e-05 0.000250476,0.000226454 4.43036e-05,0.00020163 -0.000207711,0.000280813 -0.000715892,6.90304e-05 -0.000295842,0.000155255 0.000424477,9.09271e-06 0.000393537,0.000155769 0.000295909,4.2278e-06 0.000129006,0.000106126 4.66692e-05,0.000267533 -0.000189092,0.000171434 0.000144562,7.64282e-05 0.000745512,2.05278e-05 0.000172033,0.000110626 2.15345e-05,0.000198392 -5.47933e-05,0.00018098 -0.000359239,0.000164367 -0.000956579,-0.000135692 0.000245159,0.000608984 0.000689241,-3.81132e-05 0.000191366,0.000355261 -0.000169675,0.000229746 -0.000395599,0.000177128 -0.000327613,5.51447e-05 -0.000413412,-3.39511e-05 -0.000222826,0.000259837 7.25985e-05,6.37338e-05 1.51439e-05,0.000202956 0.000417853,-0.000349222 0.000873703,-2.38448e-05 0.000625673,-0.000259673 0.000327578,-2.85879e-06 0.00017005,0.000251608 -6.7195e-05,0.000205959 -0.000494491,0.000197821 -1.24283e-05,0.000221166 -0.000383206,0.000183606 -0.000187731,0.000217763 -0.000463853,0.000145086 0.000229849,6.42259e-05 0.000347432,-0.00019872 -2.35528e-05,-4.13112e-05 0.000361882,-6.87297e-05 0.000336979,0.000115817 7.37769e-05,0.000265107 0.000266313,-9.78716e-05 0.000242571,5.28654e-05 0.000164094,-0.000338404 0.00041011,-0.000263397 0.000319586,5.84924e-05 9.38888e-05,0.000195272 -0.000168485,0.000314063 -0.000123689,-4.72104e-05 -9.18685e-06,-0.000175686 -0.000118158,3.9148e-05 7.95831e-06,0.000166307 -0.000197545,5.04372e-05 -0.000204142,0.000443788 -0.000158376,2.76171e-05 -0.000176137,-0.000206428 -0.000162577,8.40082e-05 -0.000189819,0.000288096 -0.000119404,0.00043044 -0.000181953,-0.000521482 5.03021e-05,-0.000114629 -0.000124461,1.29922e-05 3.77733e-05,0.00034272 -0.000400571,6.71756e-05 -3.19768e-05,0.000446572 0.000228107,-0.000153262 0.000174123,1.61011e-05 0.000220109,0.000162426 0.00017277,-0.000183666 0.000131001,4.36321e-05 0.000207389,0.00011326 1.08957e-06,0.000104401 -0.000187921,0.000224759 0.000676913,-0.000114271 0.000214211,0.000202719 -0.000117442,0.000229878 6.74955e-05,4.55748e-05 0.000436925,-0.000284763 0.000218466,5.17818e-05 0.000150179,-7.04954e-05 0.000215136,2.31345e-05 0.000265862,-0.000224852 0.000472225,-2.59065e-05 0.000106959,0.00010814 7.5998e-06,0.00025206 0.000210353,5.73084e-05 4.27224e-05,0.000135289 0.000294828,-1.19729e-06 0.000276303,-0.000150046 0.000330052,-0.000236945 3.90839e-05,-0.000128587 0.000226696,-0.000214227 0.000296201,3.66117e-05 0.000187621,0.000247897 1.14591e-05,0.00021907 0.000418447,-0.000188723 0.000883013,0.00224966 0.00137602,-0.00036499 0.00148023,-0.000545024 0.00394022,-0.00171114 0.00160495,-0.000883351 0.00922605,-0.00763835 0.00197515,-0.00176709 0.00130481,-0.00134839 0.00301286,-0.00281709 0.00116217,-0.00133221 0.000598695,-0.00147352 0.000163482,-0.00103888 -3.13542e-05,-0.00104919 -0.00022528,-0.00102915 -0.000685771,-0.0014414 -0.00066979,-0.000852177 -0.00086891,-0.000774259 -0.000850387,-0.000530866 -0.000791658,-0.000369298 -0.00283597,-0.000938652 -0.00114649,-0.000492527 -0.0010936,-0.000584577 -0.0010319,-0.000671919 -0.000961894,-0.000753849 -0.000884137,-0.000829706 -0.000799262,-0.000898882 -0.00194961,-0.00250439 -0.00282702,-0.00607989 -0.000360238,-0.000485459 -0.000394345,-0.000294324 -0.000627749,-0.000232165 -0.00050712,-3.90695e-05 -0.000514262,8.40065e-05 -0.000827402,0.000309357 -0.00102759,9.66646e-05 -0.00801627,0.00311993 z "/>
</g></g></svg>