<?xml version="1.0" encoding="UTF-8" standalone="no"?>
<!DOCTYPE svg PUBLIC "-//W3C//DTD SVG 1.1//EN" "http://www.w3.org/Graphics/SVG/1.1/DTD/svg11-flat.dtd"
[
<!ATTLIST g xmlns:fme CDATA #FIXED "http://www.safe.com/fme" >
<!ATTLIST path fme:district_id CDATA #IMPLIED fme:precinct_id CDATA #IMPLIED fme:id CDATA #IMPLIED >
<!ATTLIST ellipse fme:district_id CDATA #IMPLIED fme:precinct_id CDATA #IMPLIED fme:id CDATA #IMPLIED >
<!ATTLIST text fme:district_id CDATA #IMPLIED fme:precinct_id CDATA #IMPLIED fme:id CDATA #IMPLIED >
<!ATTLIST use fme:district_id CDATA #IMPLIED fme:precinct_id CDATA #IMPLIED fme:id CDATA #IMPLIED >
]>
<svg xmlns="http://www.w3.org/2000/svg"  viewBox="-0.000425799 -0.000425799 0.0371804 0.0263995"><g xmlns:fme="http://www.safe.com/fme" fill="none" stroke="black" stroke-width="0.0000042579854" transform="translate(0,0.0255479) scale(1, -1)">
<g id="LV-QC" >
<path d="M 0.0143994,0.00886789 l -0.00103021,0.000404514 -0.00150512,0.000457938 -0.00128149,0.000274908 -0.00137995,0.000186013 -0.00162616,7.71582e-05 -0.00594972,-0.000178432 -0.000110432,0.00259341 -0.000130276,0.000747363 -0.000259042,0.000716647 -0.00112382,0.00223674 0.00067604,0.000264151 0.00062483,0.00011583 0.00190842,5.56489e-06 0.000413118,-0.000104966 0.000334374,7.5518e-06 0.000363478,0.000104011 0.000537636,0.000281852 0.000342937,1.77154e-05 0.00196157,-0.000502989 0.00182955,-0.000856332 0.000615823,5.4682e-06 0.000630677,0.000221481 0.00169448,-0.000602204 0.00057232,-2.33089e-05 -6.24941e-05,-0.000119548 8.07585e-05,-0.000113585 0.000190638,7.05825e-05 6.24602e-05,-4.24996e-05 -8.80423e-05,-0.000199884 3.5784e-05,-0.000353705 0.000169015,-0.000265162 -6.63637e-05,-0.000114098 1.39421e-05,-0.00055276 0.000280127,-0.000214667 -4.90926e-05,-0.000103456 -0.000116243,-3.32504e-05 -6.43293e-05,9.94773e-05 -0.000128708,-5.35345e-05 0.000176182,-0.000334756 -0.000203388,-0.000805653 -0.000249096,-0.000497445 -7.4225e-06,-0.000252651 0.000267357,-0.000346719 0.000211889,-0.000937579 0.000180035,-0.00035237 0.000268199,-0.000301921 0.000989773,-0.000624896 z "/>
</g><g id="LV-GC" >
<path d="M 0.012941,0.0129825 l 0.00017476,-0.000377997 0.000174279,-0.000139691 0.000331768,2.56261e-05 0.000173191,0.000108998 0.000485385,-0.000130688 6.63356e-05,1.74767e-05 0.000240922,0.00057465 0.000191267,-3.66498e-05 0.000142211,-0.000184561 0.00034492,-0.000155642 0.000134327,0.000473797 0.000438222,0.000360053 -0.000212031,0.000117451 -8.04817e-05,0.000180423 -0.000262749,0.000229852 -0.000167077,-0.000394419 -0.000185841,-7.8033e-06 -5.5676e-05,0.000136723 7.28321e-05,0.000541161 -0.000453989,1.84417e-05 -0.000190238,0.000406218 -0.000419839,-6.69161e-05 0.000264802,0.000713118 -8.07119e-05,0.000127035 -0.000179674,2.4827e-06 -0.00016892,0.000274192 -0.000181696,-9.59272e-05 -7.57243e-05,-0.000253078 -0.000115883,-8.05849e-05 -0.00012148,4.29387e-05 -4.42384e-05,0.000112361 0.000445616,0.00106343 0.000181328,0.000670614 0.000128788,0.000159215 0.000353442,0.000201696 4.40042e-05,0.00016563 -7.29938e-05,0.00030016 0.000170402,0.000190164 -1.70507e-05,0.000204086 0.000204705,6.82531e-05 0.00139967,-0.000912449 0.000550555,-0.000741656 0.000411877,-0.000376605 0.000364381,-0.000195968 0.000412794,-8.95404e-05 0.000516466,8.57783e-05 0.000397255,0.000310315 0.000278496,0.000602409 0.000168978,0.00097085 0.000472654,-0.000374429 0.000450113,-7.69082e-05 8.89274e-05,5.987e-06 0.000110128,0.000143507 0.000540636,4.2529e-06 0.000149453,0.000127357 -2.91455e-05,9.64288e-05 0.000491472,-0.000251934 1.98842e-05,-0.000422968 0.000714386,-0.000963807 0.000303581,-0.000812998 0.00035828,-0.000602356 0.00043735,-0.000115003 0.000638476,9.7947e-05 0.000442772,0.000174259 0.000353011,0.000281859 0.000104605,0.000335938 8.62368e-05,4.11215e-05 0.000157763,-3.85587e-05 0.000525132,-0.000381493 5.92739e-05,-0.000224685 0.000554685,-0.000142726 0.000340543,-0.000301666 0.000862817,0.000161863 0.00195374,-0.000238245 0.000936155,1.38541e-05 0.000945771,0.000117949 0.000444765,0.000181008 0.000468328,0.000388958 0.000488592,0.000810637 0.000422705,0.00120186 0.000314793,0.000336915 0.000432433,0.000209711 0.00066924,-0.000170852 2.73534e-05,-0.000212449 0.00016508,-2.85636e-05 -1.07402e-05,-8.11739e-05 0.000307127,-0.000133677 0.000201437,-0.000322364 0.000456037,-5.82542e-05 3.55211e-05,-0.000126897 0.000471622,4.602e-07 -0.000116737,-8.51584e-05 -1.6238e-06,-0.000365282 -9.441e-05,-0.000288116 -0.000195757,-7.04903e-05 3.79954e-05,-0.000140304 -0.000291967,-6.51159e-05 -0.000121896,-0.000319475 -0.000409882,-0.000385121 0.000116489,-0.000275961 0.000110922,-1.45362e-05 -0.000110045,-0.000134466 0.000239467,-0.000227888 -6.44008e-05,-2.32812e-05 -1.30182e-05,-0.000292076 0.000998622,-0.00207888 0.000163305,-0.000112959 -0.000162587,-0.000615858 -0.000251874,-0.00030611 -0.000384324,-0.00015719 -0.000943601,-0.000201043 -9.28881e-05,-0.000238295 -0.00269466,-0.00157306 -0.000433413,-0.000183076 -0.000686,8.68236e-05 -0.000891701,0.000387378 -0.000740041,0.000218594 -0.00125778,0.000142359 -0.000379576,0.000153253 -0.000263085,0.000197272 -0.000521678,-0.0010539 -0.000780114,-0.00271939 -0.00054131,-0.00135097 -0.000204275,-0.000260791 -6.7204e-06,-0.000165398 -0.000172118,-0.000122665 -0.000223149,7.20164e-05 -2.8367e-05,0.000246702 0.000243317,0.000109121 -0.000172438,5.86234e-05 -0.00119068,-0.00131438 -0.00171815,0.00142857 0.000494266,0.00125076 0.000182311,0.00189237 0.00025585,0.000875042 0.000331145,0.000604689 0.00102621,0.00130811 0.000625509,0.00173399 0.000684229,0.000986656 -0.00131228,0.000626666 -0.00116964,0.000293024 -0.00137793,5.74036e-05 -0.00180475,-0.000144919 -0.00113282,-0.000273519 -0.000889704,-0.000344978 -0.00289568,-0.00167199 -0.00209873,-0.000915941 -0.000254231,0.000305807 -2.68669e-05,0.000188949 0.000298992,0.00068085 0.000173599,0.000722266 z "/>
</g><g id="LV-GL" >
<path d="M 0.0339862,0.0179439 l -0.000292462,0.000317219 7.0246e-05,0.000684307 9.98855e-05,0.000107468 0.000713502,0.000241955 0.000279239,0.000259375 0.000117825,-6.20051e-05 9.32295e-05,0.000177509 -0.000102542,0.000337283 -0.000597502,0.000313504 -8.8408e-06,0.000362386 0.000219208,5.67381e-05 0.000463775,0.000433811 0.000559421,0.000143996 0.000198765,0.000120128 6.61293e-05,0.000182265 0.000111314,2.15796e-05 1.21583e-05,0.000444618 -6.29448e-05,0.000115694 -0.000152214,7.81154e-05 -0.000149955,-0.000172486 -3.65824e-05,-0.000189302 -0.000319278,-7.84167e-05 -0.000245718,0.00010604 -0.000289103,-2.6765e-05 -0.000203663,0.000114694 -0.000309403,-7.85073e-05 -0.000183556,0.000148376 -0.000315122,7.95679e-05 -0.000626203,3.4076e-06 -0.000896662,0.000338176 0.000358176,0.000395719 -3.0685e-06,0.000720278 -0.00012488,0.000244813 0.000139406,0.000109374 6.87359e-05,0.000187886 -0.000285901,-0.000181434 -0.000201798,-0.00040455 -0.000411522,-0.000163386 -0.000215017,-0.000255438 -0.000255535,-0.000119628 -0.000148403,0.000204496 -7.78644e-05,-0.000125726 -0.000264398,-2.4735e-05 6.08906e-05,-7.72971e-05 -0.000171563,-4.29746e-05 -0.0010334,0.000160222 -0.000359754,-4.60746e-05 -0.000987705,0.000356653 -0.000577249,8.35238e-05 -0.000112891,0.00121965 -0.000221285,0.00054828 -0.000701064,1.7118e-06 -0.000491346,0.000223339 -0.000204803,8.59e-06 -7.72858e-05,-7.1554e-05 -0.000100699,-0.000184221 3.67634e-05,-0.000257681 -0.000140096,-0.000174842 2.99811e-05,-0.000198926 -0.000283137,-0.000394808 0.000149589,-0.000326406 2.16286e-05,-0.000369826 -0.000769043,-0.000613798 -8.87636e-05,-0.000266357 -0.000317878,-3.10757e-05 -5.606e-05,-8.78098e-05 -0.000822026,-0.00031076 -0.000217912,-0.000480187 -0.000132837,-6.5833e-06 -1.59605e-05,-0.000108545 -0.000382742,-0.000322151 -0.000415435,-0.000183308 -0.000167119,2.89668e-05 -0.000238661,-7.38624e-05 -0.000147762,0.000181126 -8.48766e-05,-8.95491e-05 -1.8862e-06,-0.000178349 -0.00013044,3.41816e-05 -0.000131967,-0.000136503 -0.000576021,0.000184255 -2.8522e-05,0.000104097 -0.000133669,-3.49385e-05 -0.0001118,0.000165786 -0.000351427,-8.4937e-05 -2.36814e-05,9.50243e-05 -0.000118001,4.61925e-05 -0.000168655,-7.52651e-05 6.80154e-05,-0.000104446 -0.000265453,-0.000358855 -0.000331441,-6.25406e-05 -9.98036e-05,-0.000100706 -0.000130166,0.000296882 -0.000236021,-0.000377177 3.36744e-05,-8.38248e-05 0.000339049,-0.000151988 -1.58105e-05,-9.46755e-05 7.36668e-05,-3.67704e-05 5.73355e-05,-0.000648409 -5.94965e-05,-0.00049161 0.000100664,-0.000285334 -5.6851e-05,-0.000241051 0.000118833,3.28133e-05 0.000107339,-0.000120595 0.000496152,-0.000234647 0.000464409,3.20167e-05 0.000736875,-0.000408755 3.1123e-05,-0.000436427 0.00070528,-0.000945001 0.000473496,-0.0011429 0.000197518,-0.000290895 0.000300801,-0.00010043 0.000549491,2.93167e-05 0.000614977,0.000198252 0.000406497,0.000311611 0.000104608,0.000335936 9.09634e-05,4.11199e-05 0.000153034,-3.85553e-05 0.000525132,-0.000381493 5.92739e-05,-0.000224685 0.000554685,-0.000142726 0.000340543,-0.000301666 0.000862879,0.000158404 0.00201032,-0.000236362 0.000879366,1.69873e-05 0.000945919,0.000116392 0.000576831,0.000261797 0.00042804,0.000426694 0.000396804,0.000692129 0.000343442,0.00103888 0.000228324,0.000357496 0.000499177,0.000326007 0.000326209,-1.16209e-05 z "/>
</g><g id="LV-WF" >
<path d="M 0.0218315,0.00480731 l -0.00145577,0.00114863 -0.00122349,0.000775528 -0.000918493,0.000474131 -0.00383438,0.0016623 -0.000931333,0.000576583 -0.000285528,0.000293223 -0.000197821,0.000348426 -0.000235213,0.000998535 0.00126867,0.000509155 0.0010463,0.000519472 0.00264627,0.00154992 0.000608618,0.000248261 0.00127669,0.000346586 0.00172181,0.000178336 0.00178244,-8.04647e-05 0.00088592,-0.000222879 0.00144483,-0.000674136 -0.000733641,-0.0010874 -0.000595596,-0.00166622 -0.00100717,-0.00127465 -0.000363933,-0.000685818 -0.000230342,-0.000883931 -0.000142118,-0.00165728 -0.000158976,-0.000575858 -0.000367747,-0.000820454 z "/>
</g><g id="15" >
<path d="M 0.0219081,0.0212623 l 7.89844e-05,-0.000148913 0.00023866,7.38623e-05 0.000167119,-2.8967e-05 0.000400659,0.000173703 0.000397535,0.000333157 1.59456e-05,0.000107144 0.000132836,6.58225e-06 0.000217913,0.000480189 0.000822026,0.000310759 5.60601e-05,8.78101e-05 0.000317878,3.10753e-05 8.87637e-05,0.000266357 0.000769043,0.000613797 -2.16285e-05,0.000369825 -0.000149589,0.000326407 0.000283138,0.000394808 -2.99811e-05,0.000198926 0.000147836,0.000206378 -4.45038e-05,0.000226145 0.000177984,0.000255775 0.00030821,-3.43405e-05 0.000387941,-0.000197589 0.000701063,-1.71137e-06 0.000221285,-0.00054828 0.000112891,-0.00121965 0.00057725,-8.35231e-05 0.000987704,-0.000356652 0.000359754,4.60741e-05 0.0010334,-0.000160222 0.000174833,3.82237e-05 -6.41597e-05,8.2048e-05 0.000264398,2.47351e-05 7.78642e-05,0.000125726 0.000148403,-0.000204497 0.000255535,0.000119628 0.000215017,0.000255438 0.000411522,0.000163386 0.000201798,0.00040455 0.000288252,0.000178029 -7.10871e-05,-0.00018448 -0.000139406,-0.000109374 0.000120769,-0.000249401 7.18e-06,-0.000715689 -0.000374392,-0.000386323 0.000912879,-0.000347572 0.000810987,-3.66619e-05 0.000313893,-0.000194689 0.000309404,7.8507e-05 0.000203663,-0.000114694 0.000289103,2.6765e-05 0.000245719,-0.00010604 0.000205278,3.6543e-05 0.000113999,4.18735e-05 3.65823e-05,0.000189302 0.000149955,0.000172487 0.000215159,-0.00019381 -1.21583e-05,-0.000444617 -0.000111314,-2.15798e-05 -6.61294e-05,-0.000182266 -0.000198765,-0.000120128 -0.000559421,-0.000143996 -0.000463775,-0.000433811 -0.000219207,-5.67374e-05 8.84002e-06,-0.000362386 0.000597502,-0.000313505 0.000102542,-0.000337282 -9.32295e-05,-0.000177509 -0.000117825,6.20047e-05 -0.000279239,-0.000259375 -0.000713502,-0.000241954 -0.000135067,-0.000165849 1.96858e-05,-0.000460255 -5.9334e-05,-0.000124957 4.4854e-05,-0.000135457 0.000252192,-0.000222477 0.00044203,-0.000133149 2.73534e-05,-0.000212449 0.00016508,-2.85639e-05 -1.07404e-05,-8.11739e-05 0.000307127,-0.000133677 0.000201437,-0.000322363 0.000456036,-5.82542e-05 4.5545e-05,-0.000126827 0.000461599,3.89367e-07 -0.000116737,-8.51584e-05 -1.62381e-06,-0.000365282 -9.441e-05,-0.000288115 -0.000195757,-7.04903e-05 3.79954e-05,-0.000140304 -0.000291967,-6.51159e-05 -0.000121896,-0.000319475 -0.000409882,-0.000385121 0.000116489,-0.000275962 0.000110922,-1.45357e-05 -0.000110045,-0.000134467 0.000239467,-0.000227888 -7.79105e-05,-0.000130239 4.91457e-07,-0.000185119 9.51483e-05,-0.000104695 -7.7621e-05,-0.000103151 5.31852e-05,-0.000197218 0.000439927,-0.000317381 -5.6751e-05,-0.000355434 0.000151466,-0.000221725 0.000150082,-5.54073e-05 0.000151236,4.20789e-05 8.19377e-05,-0.000185847 -0.000124515,-0.000102732 1.86486e-05,-0.000165784 0.000161836,-0.000341611 -0.00216626,-0.00121311 -0.00193755,0.000882173 -0.00212942,0.00115096 -0.000943425,0.000211897 -0.00220021,-0.000272992 -0.00127392,-0.000789999 -0.00143521,-0.00157716 0.00128723,-0.00582403 0.000748837,-0.000197427 0.00182247,7.28577e-05 0.000819841,-5.8161e-05 0.000426453,-0.000436239 -0.0011838,-0.00147761 -0.00117354,-0.00252197 -0.00699136,0.00575839 -0.000867397,0.000532251 -0.00092038,0.000451731 -0.00394024,0.00171115 -0.00137405,0.000524537 -0.0014226,0.000401972 -0.00145811,0.000275723 -0.00148026,0.000146945 -0.00148884,1.68226e-05 -0.00504706,-0.000164151 -0.000217994,0.000105913 -0.000228437,0.0034821 -0.000362545,0.00102332 -0.00107152,0.00212129 0.00107314,0.000348946 0.00224373,4.50993e-05 0.000383953,0.000112072 0.000723248,0.000376661 0.000583796,6.55485e-05 0.000609363,-0.00012676 0.000558958,-0.000217488 0.00219368,-0.00125281 0.000460238,-5.92487e-05 0.00034508,4.95629e-05 0.000856092,0.000503641 0.00167267,-0.000997548 0.000500548,-0.000165894 0.000308224,-6.47752e-06 0.000334851,0.000143882 0.000215562,0.000270875 9.19724e-05,0.00045889 -1.96907e-05,0.000463399 0.00011157,0.000305007 0.000568304,0.00060026 0.000586173,0.00104393 0.000191126,0.000129083 0.000286612,5.37535e-05 0.000533028,-0.000197503 0.000516687,-0.000421562 0.00081531,-0.000993647 0.000650657,-0.000940164 0.000314253,-0.00015714 0.000394729,-2.44368e-05 0.000249068,0.000193484 0.000436342,0.00118479 0.000722547,0.00157433 -9.98773e-05,0.000359825 5.94965e-05,0.00049161 -5.73355e-05,0.000648409 -7.36668e-05,3.67705e-05 1.58105e-05,9.46755e-05 -0.000373129,0.000197439 0.000186369,0.000350525 6.97315e-05,5.80794e-05 -6.27093e-06,-0.000126365 0.000116762,-0.000163571 9.98036e-05,0.000100706 0.000331441,6.25406e-05 0.000265453,0.000358855 -6.80154e-05,0.000104446 0.000168654,7.52651e-05 0.000118001,-4.61926e-05 2.36813e-05,-9.50243e-05 0.000351427,8.49371e-05 0.0001118,-0.000165786 0.000133669,3.49385e-05 2.8522e-05,-0.000104097 0.000576021,-0.000184255 0.000129503,0.00013964 6.21947e-05,-6.48916e-05 7.07104e-05,2.75726e-05 3.7063e-05,0.000236733 0.000118478,-1.04804e-06 z "/>
</g></g></svg>