<?xml version="1.0" encoding="UTF-8" standalone="no"?>
<!DOCTYPE svg PUBLIC "-//W3C//DTD SVG 1.1//EN" "http://www.w3.org/Graphics/SVG/1.1/DTD/svg11-flat.dtd"
[
<!ATTLIST g xmlns:fme CDATA #FIXED "http://www.safe.com/fme" >
<!ATTLIST path fme:district_id CDATA #IMPLIED fme:precinct_id CDATA #IMPLIED fme:id CDATA #IMPLIED >
<!ATTLIST ellipse fme:district_id CDATA #IMPLIED fme:precinct_id CDATA #IMPLIED fme:id CDATA #IMPLIED >
<!ATTLIST text fme:district_id CDATA #IMPLIED fme:precinct_id CDATA #IMPLIED fme:id CDATA #IMPLIED >
<!ATTLIST use fme:district_id CDATA #IMPLIED fme:precinct_id CDATA #IMPLIED fme:id CDATA #IMPLIED >
]>
<svg xmlns="http://www.w3.org/2000/svg"  viewBox="-0.00036234 -0.00036234 0.0641011 0.0224651"><g xmlns:fme="http://www.safe.com/fme" fill="none" stroke="black" stroke-width="0.000003623399433" transform="translate(0,0.0217404) scale(1, -1)">
<g id="16" >
<path d="M 0.0595314,0.0192279 l 0.000400564,7.30604e-05 0.000330026,0.000389757 0.000528693,0.000279564 5.78706e-05,0.000101052 0.000387386,-0.000227066 0.0016721,-0.000132383 0.00017506,-0.000236395 0.000293361,-0.000137983 -0.0156128,-0.00434221 -0.00364313,-0.00117794 -0.00304789,-0.00119375 -0.00438758,-0.00200118 -0.00309764,-0.00161233 -0.0125897,-0.00744333 -0.00226276,-0.00118444 -0.000434833,-0.000118397 -0.000995704,-0.000114442 -0.00394382,-0.000149525 -0.00103886,0.000157108 -0.00367625,0.00190442 -0.00549497,0.00219625 -0.00074941,0.00069409 -0.000864003,0.00034652 -0.000620781,0.000394929 -0.000484744,0.000530907 -0.000376927,0.000853177 -5.46275e-05,0.000689973 0.000146482,0.000678675 0.000968875,0.00238139 0.00209315,0.00466478 0.000673296,0.000913781 0.000760137,0.000854877 0.000840858,0.000789088 0.000914807,0.000716945 0.000981388,0.000639025 0.00104007,0.00055596 0.00109037,0.000468415 0.00113189,0.000377099 0.00325574,0.000932997 0.0192118,-0.00949646 0.00604939,0.00279313 0.00298279,0.0012167 0.00462496,0.00153098 0.00620137,0.00175121 5.42372e-05,-0.000183355 0.000223758,-0.000211305 -0.000203485,-0.000160728 9.04221e-05,-0.000488342 0.000376496,-0.000306005 0.000174304,-0.000306743 0.000252155,-4.25065e-05 0.001024,7.85746e-05 0.000315389,0.000182215 0.00108363,3.06704e-05 0.00046837,0.000180804 0.000355601,2.38171e-05 0.000139862,0.000152221 0.000429623,2.31343e-05 0.000359758,0.000177285 4.45476e-06,0.000180557 0.000215351,0.000284716 9.32218e-05,-0.000274014 0.00033838,2.84869e-05 0.000248231,0.000133161 0.000158777,0.000301038 -7.90873e-05,0.000212932 0.00015283,-1.49536e-05 0.000161456,-0.000127907 0.00018398,0.000124722 -5.76649e-05,-0.000306485 z "/>
</g></g></svg>