<?xml version="1.0" encoding="UTF-8" standalone="no"?>
<!DOCTYPE svg PUBLIC "-//W3C//DTD SVG 1.1//EN" "http://www.w3.org/Graphics/SVG/1.1/DTD/svg11-flat.dtd"
[
<!ATTLIST g xmlns:fme CDATA #FIXED "http://www.safe.com/fme" >
<!ATTLIST path fme:district_id CDATA #IMPLIED fme:precinct_id CDATA #IMPLIED fme:id CDATA #IMPLIED >
<!ATTLIST ellipse fme:district_id CDATA #IMPLIED fme:precinct_id CDATA #IMPLIED fme:id CDATA #IMPLIED >
<!ATTLIST text fme:district_id CDATA #IMPLIED fme:precinct_id CDATA #IMPLIED fme:id CDATA #IMPLIED >
<!ATTLIST use fme:district_id CDATA #IMPLIED fme:precinct_id CDATA #IMPLIED fme:id CDATA #IMPLIED >
]>
<svg xmlns="http://www.w3.org/2000/svg"  viewBox="-0.000228788 -0.000228788 0.0187606 0.0384364"><g xmlns:fme="http://www.safe.com/fme" fill="none" stroke="black" stroke-width="0.000002287882834" transform="translate(0,0.0379788) scale(1, -1)">
<g id="17" >
<path d="M 0.0063636,0.00125755 l -4.64233e-05,9.5336e-05 -6.09877e-05,-0.000161985 -0.000416703,-0.000465776 -0.000855444,-0.000142138 -0.000441996,-0.000158532 -9.94897e-05,-7.13378e-05 -9.46445e-05,-0.000353116 -7.28671e-05,1.69143e-05 1.12999e-05,0.00031414 -0.000368819,0.000764567 0.000367614,0.0001267 0.000137607,0.000218181 -8.03979e-05,0.000597608 6.57112e-05,0.000689292 -4.57558e-05,0.000241514 -0.00051457,-0.000296034 -0.000403476,-0.000429782 -0.000200398,-9.11934e-05 0.000317396,0.00123242 0.00020561,0.000207632 0.000467055,0.00019262 0.000111427,0.000170559 -0.0006194,5.1666e-05 -3.20166e-05,0.000142963 7.44927e-05,0.000132968 6.7035e-05,-8.73436e-06 -1.24896e-05,0.00012292 -0.000153285,-2.4798e-05 -3.84583e-05,-8.72421e-05 7.77269e-05,-2.41821e-05 -8.57512e-05,-7.86866e-05 -0.000428109,3.09678e-05 -4.51914e-05,0.000749895 0.000166978,0.000104138 0.000155026,0.000459123 0.000119773,0.000120819 0.000584097,-3.05769e-05 0.00026835,0.000166427 8.22182e-06,0.000212129 -0.000403541,0.000476827 -5.15831e-05,0.000159395 7.9422e-05,0.000314426 0.000184702,0.000190664 -0.000369056,0.000197489 4.1022e-05,0.000323803 -0.00032934,-5.48073e-05 -0.000164607,-0.000158339 -0.000387961,-0.000819115 -0.000641637,-0.000451106 -9.27125e-05,0.000281671 0.000448416,0.000567537 0.000189772,0.000568071 0.000272644,0.000197995 7.49443e-05,0.000174502 -0.000387581,0.000310529 1.75633e-05,0.000345688 -0.000137671,5.00085e-05 -0.000751739,-4.19562e-05 -2.14514e-05,-0.000249032 0.000283378,-0.000269851 -0.000275066,-0.000239513 -0.000233419,-0.000405138 -0.000244757,-0.000175676 -5.50839e-05,1.85582e-05 -7.87143e-05,0.00066351 -0.000553342,0.000593757 0.000458724,0.000972892 0.000573393,0.000164575 0.000449621,-5.19284e-05 0.000205013,6.04505e-05 -7.80537e-05,0.000267993 0.000102536,0.000169738 -5.81736e-05,9.80501e-05 -0.000186562,0.000184997 -0.000367504,6.83421e-05 -0.000443205,0.000280327 -1.83513e-05,0.000585307 0.000736958,-4.82073e-05 0.000465568,-0.000220934 0.000115439,-0.000188868 0.000121352,0.000174985 -1.84748e-06,-0.000170649 -0.000147594,-4.5619e-05 0.000256289,-3.6635e-05 -9.65555e-05,-7.3171e-05 0.000121146,-2.63811e-05 1.88057e-05,0.000369154 -9.5305e-05,-0.000231206 -1.25585e-05,0.00048141 -0.000100778,0.000175191 0.000307573,-0.000132817 0.00047199,9.86649e-05 0.000118578,0.000192166 0.000259673,9.33637e-05 0.000159687,0.000159285 0.000155115,0.00028394 -1.3057e-05,7.05519e-05 -7.7049e-05,-9.50188e-05 -0.000536548,4.82072e-05 -0.000398874,-0.000184208 -0.000140441,6.80939e-05 1.27651e-05,8.47658e-05 0.000103965,2.79539e-05 -7.36749e-05,0.000216483 -0.000971216,-6.79589e-05 -0.000214314,0.000175315 0.000201645,0.000296163 -0.000436544,-1.59145e-05 -0.000213836,0.000128354 -0.000165639,-7.07408e-05 -0.000157615,3.21278e-05 -1.04225e-05,0.000314336 0.000127929,0.00032663 0.000653931,3.29109e-05 0.000320236,-0.000149184 0.000258503,0.000167422 0.000442001,-2.74811e-05 0.000118314,-0.000197021 -3.99856e-05,-4.56904e-05 0.000325854,-0.000268432 0.000169892,9.86928e-05 0.000135109,0.000350943 0.000141068,-1.03086e-05 0.000189047,-0.000138066 0.000326892,9.67812e-06 -1.16086e-05,0.000204182 -0.000147364,-0.00011515 3.73903e-05,0.000352731 0.000276678,0.000295479 3.28202e-05,-6.89251e-05 5.09726e-05,5.73293e-05 2.03746e-05,0.000331214 -0.0012617,4.21398e-06 -6.5467e-05,-2.83026e-05 4.09433e-05,-4.82297e-05 -0.000122684,-2.41722e-05 -0.000314314,0.000149132 -0.000525719,4.62989e-05 -2.43377e-05,0.000123028 0.000538505,0.00031388 -8.8358e-05,4.595e-05 4.74931e-05,0.000191907 0.0001532,1.57691e-05 -6.02751e-05,0.000542342 0.000121671,0.00029508 0.00055654,-0.000391524 8.19352e-05,-0.000183147 -8.00986e-05,7.92864e-05 -9.88029e-07,-9.11934e-05 -0.000150825,2.12328e-05 0.000323747,-0.000281056 0.000244951,0.000100721 4.14545e-05,0.000181126 -0.000199671,0.000524643 -9.30018e-05,-1.81198e-05 -0.000156454,0.000139576 -6.37145e-06,0.000140925 0.000335872,1.77243e-05 6.54181e-05,-6.74146e-05 -4.61939e-05,-7.18207e-05 0.00030424,-0.000168006 0.000221952,-1.73637e-05 0.000183796,0.000105789 0.000146522,-0.000144905 0.000296039,-0.000104724 4.4126e-05,0.000245214 0.000181227,0.000141931 -3.24872e-05,9.96241e-05 -0.000344301,0.0002975 -0.00050822,0.000112969 0.000285939,0.000147303 0.000199732,0.000209488 0.00048516,0.000127435 0.000184141,0.000501296 -0.000268624,0.00017491 -0.00038479,-0.000158144 -0.000185962,0.00024098 -8.38345e-05,7.98445e-06 -0.000153683,-6.00095e-05 -6.19232e-05,-0.000156559 -0.000151873,1.58253e-05 -0.000227777,-0.000388183 7.66769e-05,0.00199823 0.000268936,-0.000121182 -1.26267e-05,0.00011028 6.64065e-05,-6.74238e-05 5.53268e-05,0.000185515 -0.000135124,0.000468073 0.00012279,0.000124402 1.77695e-06,-0.000109278 9.9692e-05,8.8492e-05 0.00020765,2.88179e-05 0.000420069,-4.89614e-05 0.000306589,0.000411691 1.53841e-06,0.000141756 -0.00106069,0.000336508 -6.18155e-05,-5.54248e-05 -3.56758e-05,7.8884e-05 -0.000135253,-8.99756e-05 -0.000347682,-1.3101e-05 2.29791e-05,-6.61268e-05 -0.000309443,5.3373e-05 -0.000634381,-4.75272e-05 -0.000132093,0.000201661 -0.000134,-6.56075e-05 6.69021e-05,-9.2017e-05 -6.08231e-05,-7.59948e-05 -9.52238e-05,5.05272e-05 -8.88121e-05,-8.67859e-05 -0.000632923,-9.54037e-05 -0.000874793,-0.000275622 -0.00049296,-2.62424e-05 7.19961e-05,0.000266635 0.000373935,6.70508e-05 0.000218617,0.000129859 -3.7653e-05,0.000170103 -0.000319074,0.000167232 0.000248371,0.000233434 0.000408217,0.000132658 0.00036262,-0.000340099 9.25362e-05,6.59837e-05 0.000151976,0.000449218 0.00015617,0.000106945 0.000253788,-0.000269585 -6.95926e-06,8.67504e-05 0.000134382,9.61864e-06 -3.23471e-07,-0.0002122 0.000144705,0.000233467 0.000658448,-0.000100781 6.60971e-05,8.60882e-05 -1.8412e-05,0.000305378 0.000448923,0.000153051 0.00025028,-4.65163e-05 -3.55814e-05,-9.44915e-05 7.76592e-05,-3.14061e-05 0.000194141,0.00033054 0.000410019,2.5176e-05 0.000227117,9.36563e-05 -9.54744e-05,0.000209458 0.000173017,0.000203409 -4.41398e-05,0.00011779 -0.000395044,8.1242e-05 -0.000140714,0.000134919 -0.000142626,-0.000132349 -0.00047223,-0.000116718 -0.000181946,6.57622e-05 -6.99369e-05,0.000106284 -7.85027e-06,-8.66161e-05 -6.59108e-05,2.22694e-05 3.66371e-05,0.000100803 -5.21872e-05,1.3115e-05 -0.00011555,-0.000184969 -0.000242815,-8.44864e-05 -0.000546799,1.75966e-05 -0.00010716,4.25085e-05 -0.000108538,0.000188806 -0.000145585,5.00803e-05 -0.000342586,-0.000180205 7.23624e-05,-6.47678e-05 -2.81317e-05,-0.000136097 -0.000440664,-0.00011972 -0.000718638,1.37275e-05 -0.000603577,-0.000211259 -0.000345003,-0.000312928 -5.17107e-05,0.000148558 0.000186695,9.94473e-05 4.70531e-05,0.000151277 0.00018734,0.000159039 -0.000151967,-8.35072e-05 0.000106963,0.00012184 -0.000141107,-8.36054e-05 -3.82894e-05,0.000111414 0.000275528,0.00018804 3.54543e-05,-9.96499e-05 -0.000104696,-9.47705e-05 0.000177245,4.71586e-05 5.51253e-05,0.000349863 0.000185719,0.000191561 0.0012095,0.000273496 0.000191019,0.000224922 0.000332764,2.40413e-06 -0.000230285,-2.13921e-05 -6.65178e-05,-0.000124914 -3.90601e-05,4.00854e-05 -5.77301e-05,-0.000225225 7.20207e-05,-5.16715e-06 0.000182232,0.000234031 0.00107988,-0.000117241 0.000218644,0.000131661 0.000307682,5.68078e-05 0.000341174,0.000231684 -0.000408192,0.00032607 -0.000325492,3.09438e-05 -0.000141785,-5.47003e-05 -0.000562775,0.000275095 -0.000351651,-1.39711e-05 -0.000385042,9.37867e-05 6.20706e-05,7.89013e-05 0.00043986,4.47775e-05 0.000289864,-3.87459e-05 2.11133e-05,-5.61769e-05 0.000738719,0.000107082 0.000160281,0.000121354 0.000740292,-2.11621e-05 0.000435572,0.000104407 -0.000212133,0.000104866 -0.000116346,0.000197005 6.23716e-06,0.000483947 -0.000467235,-0.000110441 -0.000146692,3.92561e-05 -0.00015883,0.000194681 -0.000241689,-0.000162153 -0.000101678,9.3027e-05 -0.000128345,1.1635e-06 0.000224862,-0.000114913 -4.77132e-05,-0.000120568 -0.00019846,9.11954e-05 -0.000215832,-5.40292e-05 -0.000465014,9.45131e-05 0.00011083,0.000204878 0.000227084,0.00018125 0.000103238,0.000415344 -9.89608e-05,0.00016163 0.000227008,0.000174026 -0.000342361,2.38717e-05 -0.000290674,-0.000400101 -6.82189e-05,0.000173993 7.9335e-05,0.000122991 -6.4489e-06,0.000407308 -0.000168142,-0.000208874 0.000124868,0.000224617 -0.000263547,-0.000174599 -0.00012471,0.000154638 -0.000142091,-8.26914e-05 -6.04098e-05,7.45925e-05 -0.00010864,-0.000367437 3.89827e-05,-0.000229713 -0.000362174,-0.000438284 -5.80826e-05,-0.000166528 8.74469e-05,5.15819e-05 -2.66855e-05,-9.36697e-05 -0.000336873,-0.000381626 -0.000293658,-0.00012918 -0.000509857,-0.000399928 -0.000171915,0.000263423 0.000193373,0.000442524 0.000633963,0.000462918 0.000159546,0.000418448 3.79868e-05,-0.000230607 0.000120467,7.15579e-07 0.000135764,0.00059294 -0.000107371,0.00057076 -0.00025078,-8.98353e-05 -0.000190214,3.24232e-05 -0.000261593,0.000188384 -2.37844e-05,0.000174493 -9.29907e-05,-1.63155e-05 0.000119232,0.000289607 0.000944679,-0.000315213 0.00187372,-0.000382087 0.000937549,-0.000340697 0.00115623,-0.000716663 0.000920371,-0.000960814 0.000452235,-0.000745851 0.000284966,-0.000716504 0.000147779,-0.00131859 -0.000112457,-0.00304772 4.08171e-05,-0.000860771 0.000227365,-0.00107616 0.000474101,-0.00113137 0.000823294,-0.0011884 0.00217972,-0.00204784 0.00364342,-0.00435788 0.000476642,-0.000451215 0.000669374,-0.000415678 -0.00097216,-0.000853318 -6.8751e-05,0.000104782 -0.00022997,4.80975e-06 -0.000248921,-0.000103377 -0.000146593,-0.000225312 -0.000366507,-2.28404e-05 -0.000171591,-0.000435483 -0.000313635,-6.30559e-05 0.00015188,-0.000104327 -0.000471501,-0.000145594 -0.000280315,-0.000176235 -0.000421381,-0.000528922 -0.000121795,0.000147395 -0.00010403,-3.42682e-05 -0.000119801,0.000420984 0.000290402,0.000196011 0.000438136,0.000163961 5.48203e-05,0.000138561 -0.000118745,0.000155495 0.000118249,0.00025176 0.000233871,0.000262443 3.61983e-07,-0.000238393 0.000301001,0.000443332 0.000352515,0.000278516 0.000186778,0.000289058 0.000359124,0.000160162 1.99661e-05,0.000201185 0.000172549,7.06635e-05 1.30481e-05,0.000110046 0.000114152,-3.35503e-05 -7.41151e-05,8.37522e-05 4.4683e-05,0.00029487 -0.000159296,0.000148643 -0.000485535,0.000107375 -0.000603742,-0.000411671 -0.000811137,-0.000328513 -0.00011845,-0.000179518 2.88561e-05,-6.97935e-05 -0.00014925,-0.000106998 6.61376e-05,-6.03089e-07 -0.000239108,-0.000108888 -0.000350099,-0.000419409 -0.000111634,-7.10945e-06 -0.000116104,0.000216873 0.000493875,0.000386494 7.3484e-05,0.000220563 5.29312e-05,-3.47963e-05 0.000159899,0.000178237 0.000204453,0.000371071 0.000678699,0.000224072 1.48394e-05,0.000274374 0.000145299,-7.44683e-05 -0.000164076,0.000163133 -0.000649032,0.000233475 7.22259e-05,0.000104991 0.000225915,7.55965e-05 6.76523e-05,0.000228743 0.000298571,3.88134e-05 0.000203286,0.000263624 -0.000351481,0.00026959 -0.000123945,0.000312663 -0.000356879,0.000136898 -0.000297203,-0.000275411 0.000110039,-4.88621e-05 -0.000172614,-0.000257585 -0.000158776,0.000377995 -0.000267685,-1.29104e-05 -0.000220689,-0.000230057 0.000143297,-7.71575e-05 -5.2804e-05,-0.000225267 -0.000112958,-3.77991e-05 -0.000110686,0.000170771 0.000140231,9.44391e-05 -9.76266e-05,0.000191421 0.000224332,0.000473832 -3.12021e-05,0.000217003 -0.000190643,8.1201e-05 -0.000214401,0.000256598 -0.000279997,-0.000236742 2.61987e-05,-0.000223278 -0.000106121,4.61164e-05 -8.71077e-05,0.000250922 8.57647e-05,-1.16172e-05 -0.000154778,0.000473675 -0.000130805,0.00013664 -6.17711e-05,0.000311192 -0.000299281,0.000259175 -0.000101841,-0.000104723 -5.58005e-06,-0.000149846 -0.000226007,-8.37265e-05 -6.82571e-05,-0.000103223 -7.37464e-07,-0.000249219 0.000440708,-0.00123389 -0.000342994,-0.000219916 -9.9143e-05,-0.00031063 0.000185166,-0.000130814 0.000334328,-3.19399e-05 8.7004e-05,-0.000351153 0.000319795,-6.52465e-06 0.000133365,-0.000263986 -3.77983e-05,-0.000207344 0.000120718,0.000206589 5.49456e-05,-3.12023e-05 -0.000188711,-0.000466934 -0.000270234,0.000115335 0.000229095,5.13726e-06 -0.000422092,4.0867e-05 -0.000263158,0.000130621 -0.00011581,-2.78414e-05 0.000162499,-0.000308497 4.89621e-05,-0.000399569 -6.60155e-05,-7.88623e-05 -0.000177866,7.56647e-05 -0.000139697,-4.5684e-05 4.21401e-07,-0.000687181 -7.14468e-05,-0.000578168 -9.67872e-05,-0.000185136 5.2568e-05,-0.000249705 -0.00029205,1.53005e-05 0.000143078,0.000265984 -0.000142932,0.000292064 1.12065e-05,0.000304207 -0.000135449,0.000435572 0.000208672,0.000306022 9.79668e-05,0.000474986 -5.27408e-05,0.000506156 0.000149737,0.00114995 -8.8244e-05,0.000418889 -0.000188836,0.000247333 -0.00012009,0.000395701 -9.69285e-05,0.000165227 -0.000164881,8.99935e-05 -1.60609e-05,0.000338768 6.71075e-05,-2.41656e-06 7.52303e-05,0.00019978 3.00071e-05,0.00039885 -0.00019572,6.86023e-05 -0.000257057,-3.37812e-05 -0.000286772,-0.000315245 4.99998e-05,0.00096665 -0.000149797,0.000206342 -0.000211275,1.15236e-07 -5.85632e-05,6.1936e-05 1.0076e-05,0.000200373 -0.000105624,9.21626e-05 -6.54855e-05,0.000242597 -0.000357472,0.00035632 6.05542e-05,-0.00015135 -0.000118994,0.000133821 3.48901e-05,-0.000332618 -0.000129988,-6.02221e-05 -0.000218821,3.26902e-05 -0.000277673,0.000249943 -0.000206387,8.67562e-05 5.45188e-05,-0.000616336 0.000314841,-0.000281885 3.39693e-05,-0.000144787 0.000147596,-4.55878e-05 3.9027e-06,-0.000186052 4.04677e-05,8.99316e-05 1.92531e-05,-4.53246e-05 -4.49007e-05,-0.000498044 -0.000199604,-1.62462e-05 -0.000576993,0.0004152 -0.0004031,-2.70415e-05 -0.000185758,0.000259039 -0.000396423,4.24269e-05 -0.000120624,-0.000107265 0.000150289,-0.000252396 -0.000318547,-0.000150618 0.000307104,-0.000176161 -0.000108093,-0.000135371 3.28467e-05,-0.000157419 0.000717661,-7.41722e-06 -0.000250123,-0.000304747 0.000100936,2.16585e-05 8.4247e-05,-0.000151565 -0.000220106,9.59095e-05 3.02372e-05,-0.000124888 0.000507089,-3.34998e-05 0.00023186,-0.000195346 0.000435031,-0.000123147 0.000112935,-0.00032791 0.000490442,-0.000474916 -0.000161959,-0.000186351 -2.35397e-06,-0.000216697 0.000213221,-9.31402e-05 3.82696e-05,-0.000112319 -7.57483e-05,0.000206571 0.000164079,-7.28279e-05 -4.6255e-05,0.000104265 0.000251294,-0.000223518 -3.89344e-05,-0.00013058 -0.00027533,-8.05726e-05 4.90042e-05,-3.29532e-05 -0.000181858,-0.000200618 3.06679e-05,-0.00081207 9.5559e-05,-0.00020043 -0.000112309,-0.000250914 -0.000270338,0.00110591 -0.000192709,0.000254589 -0.000194161,0.000120959 0.000189575,9.3092e-05 -0.000364925,0.000214615 4.33502e-05,-0.000190022 -0.00023908,0.000166516 6.62763e-05,1.204e-05 -0.000328082,0.000152876 9.54384e-05,0.000242942 0.000164225,-0.000150485 -4.85315e-05,0.000167495 8.75275e-05,-0.000212998 -4.23621e-05,-8.26907e-05 0.000322122,-6.52323e-05 -0.000248455,0.000121452 -0.000157232,0.000612754 -0.000153367,0.000150387 -0.000237829,-8.1819e-05 -0.000165306,-0.000403943 -0.000333623,-0.000175765 -5.25366e-05,-0.000110591 0.000259499,-0.000195596 0.000334144,-0.000412992 0.000212351,-0.000446201 1.64569e-06,-0.000212218 -0.000103552,9.97015e-06 -0.000500723,0.000528282 4.47546e-05,3.02956e-05 -0.000283323,0.000365575 -8.77863e-06,-8.11898e-05 -0.000119345,0.000101315 4.57712e-05,3.29954e-05 -8.1483e-05,4.22771e-05 -9.07535e-05,0.000279848 1.00334e-05,0.000743073 -0.000117911,5.16374e-05 -0.000424824,-0.000210156 -0.00010048,-0.000344032 -0.000389673,-6.41911e-05 -0.000107943,-0.000121829 0.000175807,-0.000357373 -5.13363e-05,-0.000364344 0.000102789,-8.03954e-05 0.000132376,7.82965e-06 0.000167211,-0.000512611 6.02171e-05,9.06563e-05 -2.54155e-05,-0.000249899 -0.000113317,-7.12119e-05 -0.000274562,-1.01524e-05 0.00013478,4.75397e-05 -0.000297267,-9.94684e-06 -5.25034e-05,7.45215e-05 -0.000296025,1.35191e-05 -2.78026e-05,0.000440913 -0.000179993,-2.90707e-05 0.000128437,8.76903e-06 -0.000101579,-8.12519e-05 9.33191e-05,-4.32864e-05 -0.000150643,-5.37175e-05 -0.000173161,5.48456e-05 -0.000208131,-7.48689e-05 0.000291998,-0.00020311 -5.0511e-05,-0.000106096 -0.000189981,-3.98166e-05 9.3138e-06,-0.000142757 0.000308935,-9.76134e-05 0.000469444,-0.000499998 0.000860541,-0.000394284 -0.000209112,-0.000438765 0.000146028,8.35572e-05 -0.00013088,-0.000143292 0.000644394,0.000248799 0.000181336,-0.000575046 0.000369668,-0.000231812 0.000317795,-0.00037221 -0.000632069,6.80432e-05 0.000198015,-0.000220321 -0.000540032,-4.1281e-05 6.9376e-05,-0.000209093 -0.000145276,-0.000196438 2.46176e-05,-9.68437e-05 0.000434965,-3.6454e-05 0.000281999,-0.000122657 0.000214586,3.32691e-05 -5.5987e-06,-0.000334057 0.000121978,-0.000131138 0.0002756,1.55578e-05 0.00014985,0.000162984 8.617e-05,-6.48951e-05 -6.20641e-05,-0.000442806 -0.000452938,-7.35451e-05 -0.000489727,-0.000188796 -0.000584426,-1.15749e-07 -0.00020189,-0.00013723 8.00603e-05,-0.000173198 0.000179447,-2.05905e-05 0.000111433,-0.000102146 -0.000136595,-0.00021548 4.42711e-05,-0.000105149 0.000464995,9.33048e-05 0.000973687,-0.000153317 0.000340448,-0.000103324 0.000254175,-0.000229863 0.000150553,-0.000681322 -0.000435715,0.000421141 -0.000993808,2.70827e-05 -2.32243e-05,-0.00013885 0.000403078,-0.000335961 -0.00037591,-0.000162739 -0.000821483,-0.000559627 0.000150104,-8.6243e-05 0.000611209,-7.7785e-05 0.000672978,6.52278e-05 0.000104131,-4.69982e-05 0.000129731,-0.000235054 -0.000490952,-0.000393763 -5.39966e-05,-0.000161246 z M 0.00439616,0.0286795 l 1.35143e-05,0.000244588 -0.000119525,-0.000186738 -6.37594e-05,0.000220908 0.000159395,3.91887e-05 0.000120209,0.000158739 9.88966e-05,0.000469561 0.000174353,5.25975e-05 -1.07592e-05,0.000555437 -7.94211e-05,0.00014249 6.14351e-05,0.000292915 -0.000172438,0.000397075 8.27915e-05,0.000168108 -5.91142e-05,0.000740086 0.000167474,5.53687e-05 2.97198e-05,9.99623e-05 0.000114,-4.97962e-05 3.82875e-05,-0.000111415 8.45206e-06,0.000232895 0.000153927,8.0775e-05 -4.11049e-05,3.37838e-05 0.00061561,0.00031407 0.000368177,7.88282e-05 -0.000141033,-0.000348176 0.000108386,-0.000112052 5.11576e-05,7.35806e-05 -1.39039e-05,-0.000371003 -6.91448e-05,-9.3283e-05 -6.75758e-05,5.11813e-05 -9.9428e-05,-6.32093e-05 -0.00011526,-0.000248179 4.16771e-05,-0.000162917 -0.000252722,-0.0002677 0.000256149,0.000765217 -3.22256e-05,0.000124002 -9.99378e-05,-0.00011016 -4.67639e-05,5.82161e-05 -0.000163431,-0.000501482 -9.71722e-06,-0.000349369 0.000217677,-4.9835e-05 0.000232956,0.000266073 4.81326e-05,0.000249691 0.000335962,0.000294935 -3.16758e-05,0.000447268 0.000220624,3.95331e-05 0.000103129,-5.06016e-05 -5.14724e-05,-0.000375177 0.000133925,-0.000215226 0.000160766,-1.68118e-05 9.58912e-05,0.000101166 0.000115677,0.000558803 -1.25762e-05,0.000114794 -5.38944e-05,-5.27866e-05 -3.87962e-05,6.4465e-05 -7.17288e-05,-0.000149245 3.10794e-05,0.000315764 0.000237645,6.10492e-05 2.18468e-05,0.000193041 0.000194572,4.55201e-06 -0.000120909,-0.00013164 0.000161921,-1.47214e-06 8.24725e-05,0.000138311 0.000254789,3.10097e-06 0.000122555,0.000192125 0.000339773,9.98502e-05 0.000275651,-0.000166852 0.000155939,-6.83698e-06 9.23582e-07,8.48727e-05 -0.000138899,3.01597e-05 -0.000101287,0.000129146 0.000238365,-8.4985e-05 0.000250869,0.000217787 7.44179e-05,-5.75658e-05 -9.65969e-05,-0.000256473 -0.000197657,-0.000288061 -0.000306768,-0.000242822 -0.000100726,-0.000363892 -7.74628e-05,-4.08328e-05 9.07152e-05,0.00016984 -0.000137743,-0.000136001 -0.00022726,-1.41866e-05 6.91246e-05,-0.000544229 -0.000161584,-0.000330831 -0.000393383,-3.61545e-05 -1.54223e-05,-0.000147047 -9.79598e-05,-1.89752e-05 -0.000170222,-0.000308178 -0.00013196,-5.8398e-05 -0.00058094,-3.17436e-05 -9.42913e-05,-0.000226697 -0.000347074,-0.000318312 7.03641e-05,-0.000248962 0.000215337,-8.32252e-05 0.0004246,0.000274264 0.000569531,7.24809e-05 0.000315926,0.000177726 0.00010522,-3.97854e-05 -6.81592e-05,8.82099e-05 9.24085e-05,5.33392e-05 0.000142364,-7.44369e-05 -0.000157742,-0.000159298 -0.000231824,-7.10344e-05 -0.000276781,-0.000300889 -0.000119459,-0.000361917 3.57473e-05,-0.000254065 -7.69946e-05,-0.0003614 -0.000290678,-0.000580691 6.3827e-05,-0.000123387 0.000299613,0.00013092 0.0003789,0.000339692 0.000483798,0.000905816 5.97486e-05,4.64121e-05 0.000301446,-6.41455e-05 -6.56337e-05,0.000138755 0.000386442,0.00030621 0.00010489,-0.000160784 -4.5249e-05,-0.00034724 0.000352204,-0.000480888 9.1576e-05,-0.00047671 7.39833e-05,8.42077e-05 3.84303e-05,-9.78728e-05 0.000172264,0.000586279 -3.74463e-05,0.000369664 0.000160827,7.98048e-05 2.08273e-05,9.91393e-05 -0.00016257,0.000848485 -0.000181348,0.000393549 0.000413591,-0.000374895 0.000546017,-0.000182862 0.000235037,3.27655e-06 -2.45361e-05,0.000285568 -0.000167141,0.000247136 -0.000323059,0.00025578 0.000107884,0.000204899 -0.000110406,0.000107559 -2.80659e-06,0.000286273 0.000269441,0.000170017 8.06255e-05,-3.14362e-05 -8.03255e-06,-0.000102868 0.000209393,-8.4983e-05 -1.93394e-05,-5.31002e-05 0.00010271,1.77303e-06 -5.6369e-05,8.26858e-05 5.11795e-05,7.53848e-05 7.44983e-05,-0.000140642 -8.7092e-06,0.000288133 -9.26672e-05,0.000194987 6.75509e-05,3.731e-05 0.000153222,-0.00025604 0.000281985,-0.000219288 0.000467138,8.38276e-06 0.000173627,7.60737e-05 -5.08732e-05,0.000224405 -0.000287475,0.000259071 -2.18902e-05,0.000346948 -0.000233365,5.9919e-05 3.60948e-05,5.02384e-05 -0.000281039,0.000215667 3.56947e-05,0.00019472 0.000175485,6.52216e-05 0.000178886,-7.56761e-05 0.000197879,3.61213e-05 -7.95964e-05,-5.52595e-05 0.000327218,3.49415e-05 0.000213839,-0.000130175 0.000140698,0.000225367 -0.000100638,0.000369338 -0.000279282,0.000195787 -5.68588e-05,-5.27578e-05 -2.55354e-05,0.000103174 -0.000334337,0.00021796 -9.1069e-05,0.000522758 -0.000232394,0.000421106 -4.18226e-05,-3.21264e-05 0.000138958,0.000609154 0.000114276,-2.45196e-05 0.000170423,-0.000218271 7.84838e-05,-0.000318568 6.66682e-05,0.000227848 -6.92207e-05,0.000262498 9.9754e-05,-8.84997e-05 1.49318e-06,-0.000406359 0.000130171,0.000346464 -3.91346e-05,0.000214365 9.12862e-05,0.000131004 0.000134616,-6.08252e-05 0.000166755,-0.000463852 -5.87555e-05,-4.55164e-05 7.63452e-05,-0.000152399 -4.62599e-05,-0.000257833 0.000186718,-8.20695e-05 9.24792e-05,-0.000212143 -5.27228e-05,-3.56385e-05 0.000138943,-0.000207149 0.000112054,-4.7075e-05 2.32309e-05,4.76464e-05 6.11871e-05,-9.35663e-05 0.000142941,0.000249726 -4.79889e-05,0.000669553 0.00020654,0.00010557 -9.2166e-06,0.000241182 -5.50941e-05,1.85627e-05 -2.62192e-05,-0.000230926 -0.000147963,1.39924e-05 -2.53418e-05,-0.000150568 -4.66238e-05,7.08587e-05 -5.99597e-05,-6.5371e-05 -6.80715e-05,0.000186637 0.00019551,0.00018062 -0.000135832,0.000130367 0.000139562,-5.9968e-05 -9.93887e-05,0.000121908 6.65345e-05,0.000124908 0.000112748,-0.00016447 -4.78412e-05,0.000683096 0.000122083,0.000147879 0.000182873,-0.000343902 0.000139099,-0.000102405 2.94119e-05,7.10676e-05 0.000111069,-0.000137365 -7.56496e-05,-5.52946e-05 4.0739e-05,-6.71932e-05 -0.00020072,0.000156244 0.000335705,-0.00045456 1.84834e-05,-0.000658448 0.000103849,-7.49934e-05 0.000319917,-1.11594e-06 0.000101707,-9.0325e-05 4.59895e-05,5.19532e-05 1.53743e-05,-0.000129268 0.000130939,0.000145088 -3.40574e-05,0.000407559 0.000100164,0.000220317 -7.52155e-05,-1.55666e-05 5.79547e-05,0.000243277 -0.000194255,0.000476747 4.66566e-06,0.000427071 0.000171312,0.000315384 -2.20194e-05,0.000153709 0.000211352,9.37855e-05 -0.000202743,-2.8849e-05 -7.77947e-05,0.000109972 -3.12716e-05,0.000210682 7.37945e-05,6.61469e-05 0.000347303,-2.57484e-05 7.573e-05,6.25171e-05 7.29371e-05,-0.000193003 3.69166e-05,0.000125178 6.85327e-05,-5.39028e-05 0.000349435,0.000169276 0.000237588,0.000235313 0.000338013,2.76101e-05 -7.01823e-05,-0.000277478 -4.71562e-05,2.2103e-05 -3.25929e-05,-9.09037e-05 -5.87477e-05,4.56867e-05 -7.04e-06,-0.000101973 -0.000161028,-9.69531e-05 -0.000198962,-0.00031513 -0.000327129,-0.000296802 -0.000276248,-0.000520305 0.000128071,-0.000388553 0.000511641,0.000374578 6.80681e-05,-0.000276937 0.000110869,-0.000155425 7.54232e-05,3.45268e-05 6.42761e-05,-8.18568e-05 0.000252129,0.000301098 2.14955e-05,0.00034023 0.00011168,0.000189509 7.82575e-05,2.27618e-05 0.000114709,-0.000165393 6.13144e-05,8.46889e-06 1.00502e-05,-0.000164436 4.6722e-05,0.000118767 0.000166892,9.14806e-05 5.39606e-05,0.000238798 0.000285067,-0.000118192 0.000198231,6.77155e-05 7.84071e-05,0.000126603 -1.13418e-05,0.000226754 0.000215495,0.000381797 -0.000106358,2.62575e-05 -5.46617e-05,-0.000122306 1.99689e-06,0.000182385 9.56562e-05,7.85871e-05 -9.18242e-05,8.40756e-07 0.000152084,9.16152e-05 -5.73385e-05,-0.000186393 0.000154107,5.81275e-06 -3.4655e-05,8.15862e-05 0.000216615,0.000483824 0.000215955,-2.72617e-05 0.000373323,9.59084e-05 -0.000138867,-0.000237116 0.000240678,-2.38769e-05 -2.431e-05,-5.57625e-05 0.000235858,-0.000103296 -0.00018596,-2.89974e-05 0.000227988,-0.000100515 -0.000312723,-0.000783636 -0.00036967,-0.000303629 -0.000214591,-2.87361e-05 3.1389e-05,7.10486e-05 -0.000268669,-9.77712e-05 2.38096e-05,-0.000350577 -0.000352011,-0.00022433 -0.000267061,-0.000402094 -0.000245572,-6.27677e-05 -0.000150097,-0.00018103 -0.000701445,-0.000213912 4.14779e-05,-8.97752e-05 -0.000156404,5.47067e-05 0.000486756,-0.000275349 2.43768e-05,-0.000118514 -0.000412123,-0.000123552 3.47638e-05,-0.000252252 -0.000346918,-0.000391434 -0.000164429,-4.72581e-05 -0.000306447,5.87865e-05 -0.000145155,-0.000271376 -0.000518975,-0.000323946 0.00023366,5.74625e-05 4.42134e-05,-0.000110569 -7.37426e-05,-6.16325e-05 -0.000164124,7.10296e-05 0.000106277,-0.000123777 0.000146795,6.0062e-05 0.000694681,-4.24686e-05 -0.000265793,-0.000648625 3.77866e-05,-0.00033716 -6.37494e-05,-0.000231486 6.13817e-05,-7.55091e-05 0.000125665,2.41351e-05 0.000236392,0.000126966 0.000167892,0.000364175 0.000275155,0.000240388 0.000199528,0.000367497 4.8656e-05,0.000295735 0.000834945,0.00059375 0.000380464,0.000569012 0.000229321,0.000201976 3.73479e-05,-0.00019629 -0.000114078,-0.000138016 -8.61635e-05,6.67071e-05 -0.000261589,-0.000443681 2.99044e-05,-0.000154685 0.000237699,-2.47509e-05 -0.000213048,-0.00024908 -7.34e-05,-0.000210627 -0.00026644,-0.000165517 0.000255288,-0.000312062 9.01988e-05,-0.000239215 -0.000262086,-0.000309132 -4.26955e-05,-0.000472775 -0.00017517,-0.000126621 -0.000141424,-0.000291274 0.000378892,0.000336056 3.49898e-05,-5.08876e-05 -0.000329171,-0.000304004 0.000611858,0.000330312 0.00110322,-0.000201228 0.000430913,-0.000596551 -0.00389159,-0.00478519 0.000438674,-0.00194281 -0.000253344,-4.85014e-05 7.53476e-05,-6.20919e-05 -0.000304132,-9.29379e-05 0.000196917,-5.05607e-05 -1.30375e-06,6.14152e-05 0.000171782,-1.5698e-06 0.000234967,-0.000182745 0.000129686,-0.000239575 -2.17088e-06,-0.000198638 -0.000195771,6.49987e-05 0.000175306,-0.00013073 -4.7891e-05,-4.56147e-05 -0.000201972,0.000130071 0.000173204,-0.000232748 0.000581645,-0.000352066 -6.32613e-05,-0.00045814 0.000777517,-0.000316837 -1.35358e-05,-0.000244586 0.000189064,-0.000226574 -0.000592684,-0.000116482 0.0001376,-5.72439e-05 -0.000152369,-2.93081e-05 0.000256897,-7.27829e-05 0.000135763,-0.000225183 -0.000469841,1.15214e-05 -0.00045592,-0.000250474 -0.00052558,6.07893e-05 -0.000237664,-6.46496e-05 -0.000167708,-0.00016823 -0.000360003,0.000124289 -0.000146566,0.000140399 -0.00033013,5.7194e-05 0.000248783,-9.25707e-05 0.000190399,-0.000194979 0.000341246,-0.000124118 0.000177759,3.79394e-06 0.000214917,0.000151545 0.000296227,2.71073e-06 0.00042429,-0.000114043 0.000401682,0.000166089 0.000347138,-3.65858e-05 -0.000236825,1.20991e-05 0.000150176,-8.08367e-05 -0.000193644,-1.17737e-05 1.91916e-05,-5.0743e-05 -0.000272879,5.57719e-05 -0.000281575,-0.000197889 -0.000250222,5.10489e-05 -0.000141687,0.000134938 -0.000294193,2.68856e-06 -0.000151459,-0.000126841 -0.00015223,-1.6669e-05 -0.000381722,0.000124488 -0.000232653,0.000213424 -0.000232118,8.15826e-05 0.000480233,-0.000416149 0.000436157,-0.000112343 7.37657e-06,-0.000729918 -0.0014196,-0.000931331 -0.000114241,2.63263e-05 -9.80634e-05,0.000151694 -0.000105745,-0.000190469 -4.66499e-06,0.000205924 -4.16527e-05,-0.000288577 7.74282e-05,-5.21769e-05 -8.78395e-05,-8.76917e-05 -0.000229252,7.25248e-05 -0.000121485,0.00062959 -0.000202968,0.000219472 -1.41176e-05,0.000335138 -0.000369828,0.000490988 -0.000646182,0.000137727 -0.0001565,0.000135069 -0.000158621,-0.000150257 0.00020535,-0.000182469 0.000372465,-0.000158709 0.000278104,-0.000391724 1.4542e-05,-0.000296314 0.000154772,-0.000474579 -3.82597e-05,-0.000430378 -0.000382853,-0.000160854 -0.000360331,3.28403e-06 -0.00034131,0.000299291 -0.000241748,1.30382e-05 -0.00029931,0.000167071 -0.000107621,-9.11251e-05 -0.000599822,-0.000139018 -0.000468213,0.000160479 0.00011658,-0.000355937 -0.000396279,5.68821e-05 -0.000147148,-9.43786e-05 -1.90211e-05,-0.000205709 0.000418817,-0.000253939 7.44282e-05,0.000125742 0.000395334,3.79398e-05 0.000461827,0.00016014 0.000391371,-5.41315e-05 9.49436e-06,5.5899e-05 0.000139092,-0.000101499 -0.00022618,-0.000189374 0.000320084,-7.24457e-05 -0.000302028,-0.000354834 2.8563e-06,-0.000281759 9.88658e-05,-0.000168857 -6.26021e-05,-0.000127655 0.00012206,0.000147882 -0.000152236,-0.000199078 0.000156931,8.6161e-05 0.000166075,0.000472558 0.000426961,0.00031306 0.000677326,-0.000177742 0.000183771,0.000193371 0.000506767,0.000116379 0.00051321,-0.000107623 0.000118491,-0.000270173 -0.000102954,0.000336852 9.17136e-05,-0.000100166 1.43133e-05,4.50189e-05 0.000118628,-0.000257532 5.11057e-05,6.90639e-05 3.63849e-05,-0.000284774 -7.00911e-05,6.39684e-07 -7.65528e-05,0.000222834 -3.0717e-05,-0.000191154 -0.000641339,-0.000144045 -3.89733e-05,-4.29881e-05 0.000231854,-1.47568e-05 -0.000257045,-3.1969e-05 0.000372373,-7.56361e-05 0.000124113,-0.000116715 0.000583137,-3.24114e-05 1.51055e-05,-6.33473e-05 -0.00041094,-0.00038273 -0.000269282,-0.000158275 -0.000778218,-0.000112097 -0.000170095,-0.00020704 -0.000348323,-0.000163878 -0.000304156,8.40412e-05 -6.15106e-05,-2.74322e-05 5.26528e-05,-0.000151279 -0.000336407,-0.000157667 -0.000306598,-4.95807e-05 6.34985e-05,-6.19818e-05 0.000629092,1.77464e-05 4.31286e-05,-0.000209887 8.84924e-05,-3.33142e-05 0.000155673,0.00015209 0.000547543,0.000235204 0.000130446,1.14524e-05 7.88231e-05,-0.000195765 9.17069e-05,8.04329e-05 0.000141997,-1.5743e-05 0.000104715,0.000186867 0.000337677,2.3373e-06 0.000457388,0.000168777 0.00114873,-0.00063873 5.76676e-05,-0.000324518 -7.68199e-05,-0.000163643 0.000205601,-0.000158096 -7.42539e-05,-0.000109487 -0.000451849,-6.08883e-05 -0.000535181,-0.000278653 0.00024263,-0.00011238 0.000239507,5.37985e-05 -0.000349944,4.92478e-05 0.000324611,7.19844e-05 0.000293904,-0.000208566 0.000537811,-2.29729e-05 0.000426515,0.000272417 0.000216012,0.000252669 0.000255599,8.07384e-05 0.000376449,0.000298156 0.000225077,-2.05868e-06 0.000173427,-0.000120781 -0.000157514,-0.000229725 -0.00072194,-0.000293191 -5.50144e-05,-0.000155714 0.000362559,-6.92333e-05 0.000251768,-0.000179289 0.000194295,0.000162567 0.00017924,-4.04683e-05 0.000115265,-0.000109438 -7.13394e-05,-0.000672051 -0.000946453,4.38724e-05 -0.000223059,-8.4648e-05 -0.000335844,7.44058e-05 -0.000415418,-7.02495e-05 -0.000709299,4.9822e-05 -0.000302948,-0.000167899 2.96266e-05,-8.96666e-05 0.000359119,6.80574e-05 0.000224512,-5.35208e-05 0.000185178,-0.000400813 0.000408505,0.000160612 0.000386159,-0.000167873 0.000892695,3.77881e-05 0.000115922,-0.000301293 -0.000146718,-9.56385e-05 -0.000900789,-0.000128116 -0.000134826,3.91578e-05 -0.000471508,-0.000505882 -0.000140915,-6.64372e-05 0.000170364,-0.000129781 0.000658704,0.000199863 0.000210974,-2.72121e-05 -0.000117697,-0.000200291 -0.00067318,-0.000531128 5.55097e-05,-0.000125226 -0.000117976,-6.33489e-05 -0.00294357,0.00352739 -0.00208797,0.00194424 -0.000842361,0.00122583 -0.000367367,0.000906314 -0.000199746,0.00094917 -3.54266e-05,0.000823741 0.000111517,0.0030278 -0.00011603,0.0010614 -0.000108474,0.000421155 -0.000434449,0.000931457 -0.00053434,0.000827531 -0.00106886,0.00105656 -0.00132637,0.000774896 -0.000985217,0.000334359 -0.00174339,0.000349011 -0.00088919,0.000290803 0.000379288,0.000568354 0.000191722,1.54211e-05 -1.15445e-05,-6.31049e-05 0.000195476,8.85293e-05 0.000268341,0.000343416 -1.47506e-05,9.67538e-05 0.000101673,8.84753e-05 -4.0616e-05,7.89282e-05 0.000510782,0.000482988 0.000344885,0.000208175 0.000287042,-0.000118185 0.000202381,0.000178764 0.000247611,6.99941e-05 8.78788e-05,-9.10961e-05 -9.51273e-05,-0.000213146 1.12377e-05,-0.000238492 7.45164e-05,-4.85343e-05 0.000186612,9.04127e-05 4.2521e-05,-8.52669e-05 -2.77508e-05,-0.000464789 -8.56994e-05,1.88371e-05 8.37753e-05,-0.000469413 -0.000401601,-0.000339495 0.000101496,-1.89801e-05 0.000208244,0.000173292 7.15733e-05,-4.67017e-05 -0.00045456,-0.000215305 0.00017653,-1.96604e-05 0.000288801,0.000135539 0.000131003,-0.000211585 0.000188211,-3.5118e-05 z "/>
</g></g></svg>