<?xml version="1.0" encoding="UTF-8" standalone="no"?>
<!DOCTYPE svg PUBLIC "-//W3C//DTD SVG 1.1//EN" "http://www.w3.org/Graphics/SVG/1.1/DTD/svg11-flat.dtd"
[
<!ATTLIST g xmlns:fme CDATA #FIXED "http://www.safe.com/fme" >
<!ATTLIST path fme:district_id CDATA #IMPLIED fme:precinct_id CDATA #IMPLIED fme:id CDATA #IMPLIED >
<!ATTLIST ellipse fme:district_id CDATA #IMPLIED fme:precinct_id CDATA #IMPLIED fme:id CDATA #IMPLIED >
<!ATTLIST text fme:district_id CDATA #IMPLIED fme:precinct_id CDATA #IMPLIED fme:id CDATA #IMPLIED >
<!ATTLIST use fme:district_id CDATA #IMPLIED fme:precinct_id CDATA #IMPLIED fme:id CDATA #IMPLIED >
]>
<svg xmlns="http://www.w3.org/2000/svg"  viewBox="-0.000584166 -0.000584166 0.0612539 0.0362183"><g xmlns:fme="http://www.safe.com/fme" fill="none" stroke="black" stroke-width="0.000005841656815" transform="translate(0,0.0350499) scale(1, -1)">
<g id="19" >
<path d="M 0.0503467,0.00171476 l 0.000337355,0.000338379 0.000100902,1.44452e-05 -1.51303e-05,-0.00039718 7.08836e-05,-0.00011351 -5.57538e-05,-0.000133142 0.000421913,0.000474798 0.000140299,4.15813e-06 -3.90602e-05,-5.02167e-05 0.000294482,-7.84959e-05 -4.54674e-05,-0.000370721 0.000117572,-8.86461e-05 0.000291405,9.49053e-05 0.000722498,-0.000230434 0.000330269,3.49566e-05 0.00033263,-0.000296463 -0.000717614,-5.04366e-05 3.18725e-05,-6.71078e-05 0.000364831,-5.74592e-05 -0.000418744,3.76429e-06 0.000377686,-0.000147874 -0.000223823,-0.000147884 -0.000166544,-0.000240505 -0.000112256,3.17106e-05 -0.00012139,0.00028463 -0.000235142,0.000177293 -6.13332e-05,-0.000192689 -0.000285945,0.00022922 -0.000570755,0.00019656 -0.000611657,6.68941e-05 -0.000472958,-7.79283e-05 -9.11012e-07,-8.4873e-05 0.00012163,-7.87485e-05 -3.44315e-05,-7.91543e-05 -0.000625562,-0.000124419 -0.00035151,-0.000173834 -0.000500977,0.000256425 6.72638e-05,-0.00017488 -9.98061e-05,-4.52345e-06 3.80227e-05,4.57118e-05 -8.2988e-05,9.01399e-05 -0.000149651,-0.000139526 -0.000623081,-7.74933e-05 -0.000519458,-0.000177753 -0.000287007,0.000130794 -0.000228093,-0.000270662 -0.000438882,-3.21925e-05 -0.000149149,9.16336e-05 -0.000225433,0.00034696 -0.000257864,8.53815e-05 -0.00053241,0.000458063 -0.000221401,7.78304e-05 -0.000194742,0.000261802 -0.000365497,8.81472e-05 -4.08557e-05,-0.000126054 0.000190637,-0.000553432 -6.11448e-05,8.67325e-06 -0.000144239,0.000273993 -0.000262576,0.000199198 -0.000159383,0.000243426 -0.000225984,0.00011128 -0.000155385,0.000247905 -0.000291694,-2.99036e-05 -0.000232947,0.000106826 -4.44759e-05,8.97933e-05 -5.03183e-05,-0.000457368 -0.000208715,-2.88393e-05 -0.000184881,7.5695e-05 -0.000142588,-0.00012605 -0.000369754,0.000522519 7.22357e-05,0.000660347 -0.000230661,4.35948e-05 -0.000273814,0.000350094 -9.11936e-05,-0.000122897 3.21924e-05,-0.000130318 6.27835e-05,0.000144822 0.000161172,-0.000261499 -4.86922e-05,-2.75586e-05 -0.00015986,1.40672e-05 -5.82462e-05,9.53336e-05 -3.51351e-05,-5.29634e-05 -0.000141814,3.91899e-05 -7.87006e-05,-0.000155516 -4.43427e-05,0.000102433 -0.00028912,0.000119063 0.000278925,3.63429e-05 5.94489e-05,0.000202644 0.000216432,-0.000266506 -0.00014754,0.000428431 -4.84943e-05,-0.000101606 -0.000130975,0.000129392 -3.50318e-05,-0.000321153 -0.00027617,3.67749e-05 -2.54415e-05,-7.02068e-05 2.61904e-05,-0.000137488 0.000383542,-0.000249032 0.000153657,-0.000410426 -0.000107118,-0.000319608 -0.000593341,-6.69521e-05 -0.000164578,0.000219991 -0.000270107,4.93616e-05 -0.000114346,0.000206901 -0.000242371,-3.57675e-05 -0.000148419,6.8143e-05 4.37115e-05,0.000209105 -0.000114248,0.00058706 0.000104355,0.000338597 -1.92655e-05,0.000231338 0.000123069,0.000240907 -4.24266e-05,9.69981e-05 -0.000116676,-1.16031e-05 -5.90333e-05,-0.000163819 -0.000146766,-5.4679e-05 -8.79944e-05,-0.000286369 -0.000137505,-0.000112553 -0.000214734,0.000148196 -9.50241e-05,-1.90203e-05 5.34161e-05,-8.53568e-05 -0.000163344,-3.46663e-05 -0.00019527,0.000120933 -7.8425e-05,0.000426911 -3.23627e-05,-0.000442179 0.00020339,-0.000193244 0.00019755,-0.000556196 -0.0007178,0.000118357 -6.59625e-06,0.000493996 -0.00030543,0.000350369 6.18438e-05,0.000335364 0.000128041,0.000151467 -0.000159059,-9.6109e-05 7.73257e-05,0.000119411 -8.88297e-05,6.20784e-06 -0.000307504,-0.000215791 -0.000293986,0.000219332 -0.000133971,0.000219715 -4.24601e-05,-9.17281e-05 -0.000154157,8.62513e-05 -3.1421e-05,0.000110444 -0.000237657,3.64253e-05 0.000113905,2.96899e-05 -0.000102465,2.43882e-05 6.36458e-05,0.000505111 -0.000105281,0.000409992 -8.70186e-05,-9.1599e-06 -2.0938e-06,-0.000382851 -8.1046e-05,-0.000190715 -9.48714e-05,-4.57529e-06 -0.000181841,0.000176796 -0.000196043,4.86966e-05 -0.000108276,0.0003143 -7.38917e-05,-7.51955e-05 8.79321e-06,8.39004e-05 -0.000146134,4.90935e-06 -0.000145472,0.000160218 -3.70992e-05,-5.20444e-05 -8.6568e-05,3.32762e-05 8.08343e-06,0.00029611 -0.00018937,-6.69469e-05 -0.0004464,0.000191784 -0.000191721,0.000176882 -0.00054794,0.000210742 -0.000211301,7.2914e-06 0.000158304,-6.82251e-05 -0.000165464,6.56103e-07 0.000233346,-0.000212559 0.0005479,-0.000214354 0.00010078,-0.000183299 -0.000244391,-0.000313691 -0.000754965,-0.00016133 -7.07572e-05,0.00060029 -0.000235231,0.000826805 -0.000643619,0.001136 -0.000602992,0.000652673 -0.00187399,0.00152543 -0.000660983,0.000937141 -0.000371161,0.00106218 -0.000147709,0.00223699 -0.00021511,0.000741028 -0.000350484,0.00069652 -0.000475549,0.000631519 -0.000586623,0.000547936 -0.00269996,0.00182767 -0.000773482,0.000738755 -0.000613584,0.000855036 -0.00142389,0.00240283 -0.000744025,0.000938236 0.00163819,0.00115621 0.00178687,0.00590822 0.00702296,0.000766315 0.000218337,-0.0012148 -0.000230712,-0.000142435 0.000103317,-0.000318769 -9.84358e-05,-0.000152637 0.000231673,-4.62988e-05 8.09867e-05,0.000370413 8.31814e-05,-7.47823e-05 1.83048e-06,7.94471e-05 8.01493e-05,1.19318e-05 5.62415e-05,-9.98275e-05 -5.92498e-05,-9.06773e-05 4.9904e-05,-0.000231608 -0.000153548,5.3734e-05 -0.00011915,-0.000242752 -0.000132899,4.45209e-05 4.16406e-05,0.000107087 -8.20175e-05,-9.49907e-05 7.11279e-05,-0.000186647 3.60217e-05,4.30246e-05 -5.4136e-05,-0.000167477 0.000102692,-0.000284449 -0.000240323,6.89502e-05 2.46844e-05,9.18866e-05 -0.000137118,1.92743e-05 -0.000222646,-3.41481e-05 0.00020923,-1.99127e-05 -0.000132358,-9.09332e-05 -7.18439e-05,2.592e-05 9.33732e-05,4.79348e-05 -0.000463294,4.10193e-06 0.000239479,-5.53967e-05 -0.000330272,-2.86809e-05 -0.000313788,-0.000244643 -5.56561e-05,6.18961e-05 -0.000167699,-6.98526e-05 -6.97632e-05,3.5834e-05 -0.000539031,-0.000244458 -0.000376816,5.38997e-05 -0.000350208,-4.56657e-05 5.75465e-05,-7.00392e-05 -0.000116917,-3.23773e-05 0.000101555,-1.89575e-05 -0.000186801,-0.00010129 0.000884592,0.00013124 0.000542906,0.0002372 0.000114502,-9.14006e-06 5.38554e-05,-0.000138634 0.000101689,-6.31781e-06 -8.34655e-05,-4.53141e-05 0.000647512,0.000226338 6.52021e-06,5.59278e-05 0.00063814,-5.65098e-06 9.08362e-05,-0.000191336 -1.9485e-05,-0.00016056 -0.000324098,-0.000285184 -3.98842e-05,-0.000127872 0.000337783,0.000271518 -9.17685e-05,-0.000176174 -0.000166701,-6.89571e-05 -7.32429e-06,-0.000131772 0.000271388,0.00025224 0.000156615,-4.3828e-05 5.24252e-05,-0.00018016 0.00023411,-0.000282002 -0.000232625,-0.000137 0.000255712,-1.49074e-05 -0.000164553,-5.27216e-05 0.000332589,-3.18427e-05 0.000122118,-0.000129307 0.000221866,5.40191e-05 0.000450725,-7.08173e-05 3.64255e-05,-0.00010507 6.02658e-05,9.33768e-05 0.000797448,-7.3895e-05 9.97602e-05,-0.000187805 9.03421e-05,4.1639e-05 -1.65915e-05,-7.38981e-05 0.00019459,9.03783e-05 0.000724989,-0.000291782 0.000576184,2.19721e-05 -8.97866e-05,-8.22776e-05 3.3142e-05,-0.000227848 -0.000172658,-0.000164617 0.000119602,6.16156e-06 -2.09274e-05,-0.000109979 -8.82712e-05,-0.000125635 -0.000214796,-3.96299e-05 -0.000176435,-0.00014833 1.77602e-05,-0.00018798 0.000193092,-5.04763e-05 0.000196104,4.70199e-05 3.45453e-05,8.99924e-05 -9.45031e-05,3.15411e-05 2.82537e-05,5.57346e-05 0.000386544,0.000304487 6.51883e-05,0.000184534 0.000249123,0.000201862 -0.000158814,-0.000441958 2.42976e-05,-0.000316263 0.000152549,0.000317401 -0.000108022,-0.000403581 0.00056005,0.000641565 0.000158152,-0.000177489 -0.00011092,-0.000397233 -0.000187475,-0.000164484 -8.72662e-05,-0.000216845 3.85692e-05,-0.000181844 0.000179561,7.06432e-05 -8.02121e-05,7.47584e-05 -0.000113781,-0.000109154 0.000434606,0.000550573 -3.96505e-05,-0.000198306 -0.000234909,-0.000165868 7.16276e-05,-0.000138795 6.70493e-05,0.000173681 8.96211e-05,-2.60806e-05 0.000156123,9.6135e-05 6.76937e-05,0.000234176 0.000186034,2.90473e-05 0.000839567,-0.00038492 1.04399e-05,-0.000132833 -0.000346938,-0.000295803 0.000333151,0.000114425 -0.000318834,-0.000161507 0.000303658,3.52237e-05 2.32016e-05,-0.000233178 0.000118497,-4.66654e-06 0.000503366,0.00032782 0.00116258,-0.000572016 0.00108138,-0.000219134 9.6842e-05,-0.000182365 4.94573e-05,0.000190993 0.000405322,-0.000158027 3.24472e-05,-0.000106842 -0.000237528,-0.00013333 -0.000450847,0.000150306 -0.000355022,-3.47602e-05 -0.000517161,0.00023126 -0.000308105,1.08723e-05 -2.89791e-05,6.16616e-05 -0.000280591,-2.91832e-06 8.05948e-05,-3.86436e-05 -0.000137746,-4.03106e-05 0.000773376,-0.000198325 0.000333017,-0.000268448 -0.000483103,0.000275203 -0.000418907,8.86136e-05 -0.00019525,-5.96642e-05 0.000701778,-0.000334941 0.000294247,-0.000383685 -3.62153e-05,-6.10806e-05 0.000318255,0.000107328 0.000203373,-0.000104754 4.2019e-06,-0.000161673 -0.000169811,-0.000360585 9.34396e-05,-0.000130864 -3.87299e-05,-0.000296739 0.000341752,-0.000745306 0.000305303,-0.000272717 0.000810882,-0.000476791 0.000587994,-7.20704e-05 0.000828345,4.85869e-05 0.000429982,-0.00016006 2.84203e-05,7.10823e-05 0.000231917,-0.000206149 -1.5455e-06,-0.000144465 -0.000403219,-1.6262e-05 9.15307e-05,6.05854e-05 -0.000271077,0.000146901 -0.000570428,0.000144156 -0.000682904,-0.000212426 -0.000191626,1.71048e-06 -0.000432957,0.000159178 -0.000282803,0.000251749 -0.000449569,0.000176481 -0.000351611,-8.62609e-05 -0.000322855,1.6423e-05 -1.65566e-05,0.000114828 -0.000131392,-6.34899e-07 -0.000382147,0.000570485 -0.00069942,0.000277128 0.000382379,-0.000363699 -0.00024415,7.8929e-05 -0.000155657,0.000225328 3.66625e-05,-0.000267612 0.000203609,-0.000175188 -0.000294497,-0.000196035 0.000105861,-7.76979e-05 0.000428214,4.40445e-05 5.33262e-05,-9.43862e-05 -2.07854e-05,-9.64349e-05 -0.000274805,-0.000109523 -4.36963e-05,-0.000114291 -0.000154092,1.37231e-06 0.000670328,-4.02847e-05 0.000134342,-9.33022e-05 -0.000146642,-4.1134e-05 -0.000245811,-0.000262387 -0.000341198,5.63155e-05 -3.43442e-05,-7.10305e-05 -0.00019761,-3.65828e-06 0.000311498,-6.23714e-05 -1.62661e-05,-4.31987e-05 -0.000498089,7.30626e-05 0.000201375,-0.00010654 0.0002114,-7.64882e-08 3.00783e-05,-0.000143844 4.48534e-05,3.75262e-05 -0.000167974,-0.000189035 -0.000324639,-5.8513e-05 0.000417104,2.15699e-05 0.000156224,0.000106065 -0.000120061,-0.000142506 -0.000239012,-8.81708e-05 0.000265765,3.05135e-06 0.00095816,0.000550416 0.00062402,6.39676e-05 0.00028555,-0.000179533 -0.000107892,-0.000112815 -0.000281131,-5.43817e-05 -0.000248626,-0.000155807 -5.92024e-05,-8.61595e-05 0.000275965,0.000125765 -0.000226167,-0.000180388 0.000234286,0.000108076 0.000246506,-0.000227946 4.78941e-05,4.47225e-05 8.43785e-05,-5.4029e-05 0.000375772,0.000221493 -6.75605e-06,-0.00026271 0.000200453,0.000270012 -0.000171216,-0.000307296 0.000214069,6.49116e-05 0.000100203,0.000132749 0.000145614,-0.000147584 0.000250523,-3.65495e-05 4.74741e-05,-8.71109e-05 5.14943e-05,0.000104287 0.000124731,-6.79347e-05 -0.000182379,-0.000150075 0.000238647,5.38552e-05 9.62597e-05,-5.14269e-05 -4.97425e-05,0.000152147 0.000340505,-2.8324e-05 0.000123408,8.55851e-05 0.000332487,-3.90893e-05 5.02918e-05,-0.000100681 0.000145943,6.82265e-05 -0.000112852,-0.000114575 0.000250648,-2.48141e-05 -4.05878e-05,8.43408e-05 0.000106813,1.16875e-05 -1.00388e-05,-0.000107366 0.000802304,0.000108412 8.95883e-05,-0.000120899 -1.913e-06,-0.000178775 -8.67675e-05,1.52236e-05 -0.000219672,-0.000219269 -6.27852e-07,-5.86888e-05 5.27757e-05,3.92598e-05 -5.03727e-05,-9.16548e-05 6.90508e-05,-0.000193857 0.0003523,-0.000125957 -6.56721e-05,-0.000136667 -0.000484202,-0.000199747 -0.000299855,0.000226622 -0.00056649,0.000234421 -0.00019439,-7.2309e-05 -0.000226449,7.06496e-05 0.000123443,-9.59164e-05 -9.15385e-05,-6.1489e-05 -0.000187112,5.40442e-05 0.000105599,8.30353e-05 -0.000738363,5.08378e-05 -6.00556e-05,-7.35094e-05 0.000181156,-0.000241812 0.000620871,-0.000137379 0.000297804,-0.000233825 6.7564e-06,7.75969e-05 0.000119964,-5.1639e-05 0.000101342,-0.000315146 -0.000132685,-2.95165e-05 -0.000637249,0.000268461 -0.000190324,0.000215708 -0.000320269,0.000165397 -0.000284143,3.32372e-05 -0.00014876,-5.46583e-05 -9.9709e-05,9.84126e-05 -0.000186665,3.47104e-06 -7.43461e-05,-0.000116726 -0.000165922,3.28573e-06 -0.000200816,-0.00011921 0.000184843,1.09936e-05 -2.54838e-05,-7.38181e-05 0.000224435,-7.42409e-05 -0.000313206,-9.83419e-05 -0.000618223,-0.000447791 -0.00017275,0.000196586 -0.000529782,6.43177e-05 -4.85859e-05,-0.000109732 6.82334e-05,-0.000178497 0.000110509,0.000173293 -7.33195e-05,-0.000391245 -0.000102558,0.000109273 0.000112192,5.31801e-05 -0.000106503,1.72026e-05 -0.000170006,0.0002688 -0.000303423,0.000170659 -0.00047211,9.99204e-05 -0.000294792,0.000239208 -2.36921e-05,-0.000184 -3.58996e-05,0.000153828 -4.96373e-05,-2.30361e-05 -2.71002e-05,-0.000318515 -0.00036385,-0.00021619 -0.000107998,6.23642e-05 -2.529e-05,0.000315369 -0.000211461,-0.000284368 0.000162917,0.000271255 -0.000254141,-0.000117838 -0.000197005,0.000331344 -1.16358e-05,0.000298994 -3.47498e-05,-0.00029497 -7.37717e-05,0.00012256 4.14891e-05,0.000185648 -6.55277e-05,-3.10221e-05 -6.27619e-05,-0.000328131 -0.000647549,4.45844e-05 -0.000134581,0.000163735 4.94571e-05,0.000191898 -8.00569e-05,-9.68119e-05 -3.55386e-05,9.513e-05 -9.31653e-05,-2.8971e-05 -0.000164741,0.000207346 -0.000137125,1.7472e-05 -0.000143837,0.000129503 -0.000351582,8.54017e-06 -0.000250533,0.000407668 -6.13464e-05,-9.38832e-06 7.45898e-05,-4.58118e-05 8.93281e-05,-0.000332192 -0.000157014,0.000284031 2.50479e-05,-0.000245836 -0.000145382,-0.000201883 -0.000707308,9.20611e-05 -0.000167383,0.000424086 -4.35015e-05,0.000368807 -0.000102976,-2.25644e-05 -1.4605e-05,-7.30129e-05 0.000120219,6.48522e-05 1.48575e-05,-0.00055457 -8.81812e-05,0.00044054 -5.01045e-05,-0.000439313 -8.94825e-05,-5.4289e-05 -0.000132466,0.000177259 -0.000304882,0.000127317 -0.000327119,0.000638607 3.39785e-06,-0.00023842 0.000253131,-0.000535913 -0.000273308,0.00049636 3.49894e-05,-0.000426523 0.000247729,-0.000300184 -0.000194349,0.000117306 -0.0005523,8.43582e-05 -0.00056031,-0.000298442 -8.78205e-05,0.000288833 -5.25861e-05,-0.000208126 -2.06705e-05,0.000193424 -7.36829e-05,-0.00024135 -0.00018956,-8.32029e-05 -0.000142605,0.000152966 -0.000412033,0.000177022 -7.75601e-05,0.000231853 -0.000169691,-7.25438e-05 -0.000127554,0.000268415 -1.77576e-05,-9.10453e-05 -0.000149977,1.66778e-05 -0.000679465,0.000296774 -0.00029023,1.882e-05 -4.45487e-05,8.43723e-05 -0.000316323,-1.97788e-05 -0.000230124,9.77511e-05 -8.85636e-05,0.000219307 -0.00017296,-0.000101413 7.23117e-05,-7.46844e-05 -0.00013361,6.9808e-05 1.42768e-05,-0.000144605 -0.00054284,-0.00014149 -0.000380212,1.05811e-05 -0.000103758,-9.66075e-05 -0.000291071,0.00012628 -0.000219262,0.000284572 -7.17008e-05,-5.445e-05 4.83784e-06,8.39358e-05 -6.84171e-05,-0.000117689 -0.00038068,-3.36643e-05 4.5834e-05,-5.639e-05 -7.76557e-05,-5.71067e-05 5.87892e-05,-4.56683e-05 0.000431134,-0.000146477 0.000113036,-0.000147283 0.000398799,-0.000214821 0.000311072,8.39413e-05 0.000293436,-8.92786e-05 0.00044996,0.000139602 0.000188647,-9.64811e-05 0.00100674,-0.000175049 0.000756762,-0.000459996 -3.44773e-06,-0.000139031 0.000277504,-0.000100882 -0.000182017,-0.000210593 0.000103267,-0.000136363 0.000140853,5.47393e-05 9.7723e-05,-0.000100194 0.00025449,0.000151257 0.00010088,-0.000175171 0.000878316,0.000105097 0.000554335,0.000200971 0.000393509,-6.03763e-05 -0.000405242,-0.000207709 -0.000138904,-0.00024348 -0.000451806,-0.000313851 -0.000267103,-0.0004094 -0.000182768,-9.50019e-05 5.47489e-05,-5.37614e-05 -3.50994e-05,4.36545e-05 0.000104834,1.17136e-05 8.00197e-06,-0.000177058 0.000159087,-0.000182008 0.000152421,0.000307474 0.000344821,0.000285903 0.000205374,-9.04365e-06 0.000397529,0.000225837 0.000208814,0.000222091 0.000317036,8.74884e-05 0.000148805,-3.38274e-05 0.000193827,0.000205969 0.00022279,-4.3514e-05 0.000173039,-0.000263403 0.000111059,0.000132658 0.000524416,-1.1878e-05 0.000394312,0.000108471 7.35526e-05,-0.000143326 -0.000395012,-0.000360399 0.000447161,0.000247965 -0.000347754,-0.000282258 0.000186012,0.000121156 0.000281094,5.16835e-05 0.000296408,-8.7514e-05 0.00011823,-0.000122051 0.000267159,-5.11352e-05 1.54474e-05,-0.000126556 -0.000384241,-9.04977e-05 -0.000227364,-0.000201154 0.0002522,0.00012147 0.000181609,-1.42552e-05 -0.000154145,-4.04861e-06 -0.000147337,-0.00010705 0.000163495,4.73094e-05 4.8186e-05,-0.00020631 -0.000486862,-0.000637704 -0.000264779,-3.96996e-06 -0.000891104,-0.000473387 -0.000359072,-4.64793e-05 -0.000335711,-0.000172204 -0.000391963,-7.41823e-05 -4.94706e-06,-9.38675e-05 0.000380227,-0.000100894 -0.000185356,-5.97601e-05 -1.56589e-05,-7.93246e-05 8.64789e-05,-4.23045e-05 0.000262466,-2.76112e-05 0.000197831,0.000211352 0.000303816,-4.06208e-05 0.000281223,6.43264e-05 0.000235893,0.000167669 0.000174003,1.38065e-05 0.000340785,0.000184797 7.61988e-05,1.28683e-05 2.48942e-05,-7.42665e-05 0.000367358,8.25221e-05 0.000664266,0.000413991 0.00038271,0.000504081 0.000587574,-0.000109971 0.000477317,0.000111338 0.000333217,0.00021556 -0.000130723,-0.000587588 -0.000123586,-0.000195753 -0.000399219,-0.000198719 -0.000279277,-0.000438177 -0.000597932,-0.00030712 0.000269974,2.83021e-05 -4.49085e-05,-4.29445e-05 -0.000251457,-5.19446e-05 0.00025042,-4.55695e-05 0.000271365,6.6215e-05 -3.04804e-05,-0.000265209 0.000102134,0.000315139 -4.80482e-05,-0.000245187 0.000411764,0.000449641 0.000298907,5.51328e-05 2.53971e-05,0.000158701 0.000262638,-1.13666e-05 0.000199707,-0.000169734 -4.50864e-05,0.000125917 0.000138361,9.90009e-05 -1.15202e-05,0.000216821 0.000192917,0.000120187 0.000228603,0.000502738 0.000168523,0.000148396 0.000739755,-0.00019712 -5.48198e-05,-0.000138572 0.000118549,-0.000184364 -0.000138699,-0.000130601 0.000115633,-0.000179823 -1.5498e-06,-0.000145368 -0.000340669,-0.000266057 6.04496e-05,-7.45838e-05 0.000352281,0.000243379 -0.0003152,-0.00028615 0.000126216,-2.09901e-05 0.000100331,0.000145391 0.000174952,1.01802e-05 0.000295269,0.000177064 9.68733e-06,0.000259975 0.000125807,3.31925e-05 -0.000105475,2.08059e-05 0.000145754,5.10745e-05 -8.06669e-06,0.000169834 0.000515324,-2.98778e-05 -3.76497e-05,0.000174613 -3.85356e-05,-9.35676e-05 -0.000108101,5.24343e-05 9.48796e-05,4.57204e-06 -3.30631e-05,0.00023417 0.000134745,0.000222741 0.000267468,7.07572e-05 -0.00026543,2.76508e-05 7.39979e-05,8.42214e-05 0.000176785,-3.38253e-06 0.000213081,0.000343042 0.000219061,7.02852e-05 0.000197879,-6.31689e-05 -3.51134e-06,-0.000698884 0.000112031,-0.000239389 -2.0738e-05,-9.19201e-05 -0.000239975,-8.63521e-05 -1.28893e-05,-0.000189513 0.000156296,-7.18278e-05 5.99224e-05,-0.00021635 7.96884e-05,0.000154604 3.98837e-06,-0.000181537 0.000158008,0.000180994 0.000200407,8.12866e-05 6.91007e-06,9.20435e-05 -0.000160089,-5.79511e-06 0.000289982,5.15912e-05 -0.000108476,1.72221e-05 8.70799e-05,0.000106679 5.38523e-05,0.000417604 0.000162609,0.000426566 0.000172741,-0.000104483 6.09149e-05,-0.000123351 -4.08178e-05,-0.000214547 0.000128871,-4.99123e-05 0.000298384,0.000190575 5.62459e-05,0.000179193 0.000606261,6.77256e-05 0.000698361,0.000550903 0.000246031,9.80319e-05 0.000153921,-0.000386051 -2.81744e-05,-0.00023272 -0.000884133,-9.50361e-05 0.000127966,-0.000226892 7.83011e-05,2.45838e-05 -0.000249813,-0.000174753 -0.000154493,0.000332778 -4.80677e-05,-6.09739e-05 0.00019249,-0.000289774 0.000187417,-2.51529e-05 -0.000116748,7.50888e-05 0.000186681,-1.66865e-06 1.72092e-05,-5.34303e-05 0.000130291,8.28134e-05 0.000138613,-6.26427e-05 -1.86872e-05,-8.47141e-05 -0.000280027,-0.000136557 -0.00056211,-9.61114e-05 -0.000116063,-0.000138024 -0.000187977,-2.72164e-05 -0.000193105,-0.000137336 5.22368e-05,-0.000103408 0.000367783,-6.2883e-05 -4.97916e-05,-3.74808e-05 -0.000757969,-2.93497e-05 -8.01514e-06,0.000174349 -7.51079e-05,-0.000188055 0.000119634,-8.23375e-05 0.000913832,0.000102002 0.000378686,-5.93697e-05 0.000460858,5.00596e-05 -5.56555e-05,-0.00021622 -0.000364041,-4.91192e-05 0.000304005,-2.25834e-05 -0.000363905,-3.64786e-05 -6.81637e-05,-0.000277512 8.11086e-05,1.0111e-05 -3.43796e-05,0.000110472 0.000133503,0.000106263 -3.49442e-05,-0.000127009 0.000141285,-8.97561e-05 -5.48653e-05,-5.00771e-05 0.000408313,3.24692e-05 8.50074e-06,5.59094e-05 0.000503055,0.000116502 6.11032e-05,-1.31885e-05 -1.13077e-05,-0.000133542 -0.000550948,-0.000161223 -0.000501247,-0.000316984 -0.000373651,0.00016046 8.05263e-05,4.8042e-05 -0.00033848,0.000124025 -0.000958879,2.66235e-05 -0.000180092,-2.9094e-05 4.96e-06,-0.000275457 -0.000209594,-0.000109197 -0.000661194,0.000152184 -0.0003559,-0.000119632 -0.000677442,0.000110787 -0.000211254,-0.000172395 -0.000116011,5.16015e-05 -9.02981e-06,7.95438e-05 -0.000182003,-0.000115767 -0.000229569,5.53219e-05 4.28049e-05,-6.17848e-05 -3.42657e-05,-6.38072e-05 -5.28553e-05,4.56205e-05 -1.50023e-05,-0.000110031 0.000139322,-8.88315e-05 -0.0002055,-0.000188701 -0.000108042,5.78509e-05 4.30683e-05,5.56019e-05 -0.000287334,0.000103694 -0.000178147,0.000153289 -0.000259442,3.30117e-05 0.000239521,-0.000141193 -0.000244408,-3.93616e-05 0.000156469,-5.55726e-05 0.000157104,-0.000274103 -4.19456e-05,-4.29701e-05 -0.000220574,6.51734e-05 -0.000159265,-0.000114165 -0.000340215,-3.85095e-05 -0.000100088,-0.000122819 -2.12951e-05,-0.000237298 0.000323499,4.58826e-05 1.53745e-05,-0.000225885 0.000108134,0.000136292 -2.90407e-05,-0.000129772 0.0003703,0.00017369 9.47107e-05,-0.000103784 -5.16557e-05,-0.000212646 0.000172104,0.000114051 -5.78867e-05,-0.000148478 -0.000124816,-3.32023e-05 0.000128927,-4.44917e-05 0.000248738,0.000260556 5.04124e-05,0.000281285 0.000310082,-8.18016e-06 -3.60831e-05,4.36651e-05 0.000683362,0.00025939 -0.000190928,-0.000489526 -5.2585e-05,7.0902e-05 -2.82913e-05,-5.93454e-05 -4.32054e-05,-0.000346364 0.000160553,-4.29684e-05 0.000414536,0.000153426 4.31841e-05,6.64364e-05 -6.74633e-05,0.000157722 0.000123887,3.86272e-05 0.000144368,0.000199177 0.00055896,7.98962e-05 -0.000191394,-0.000532864 7.31958e-05,-0.000175833 -2.78006e-05,-0.000568637 0.00010247,-2.43918e-05 0.000360901,0.000311022 0.000279746,0.000111281 -5.5025e-05,0.000304799 0.000252321,0.000410415 0.000128807,3.67759e-05 7.32909e-05,-0.000166805 0.000140601,3.12525e-05 -8.7709e-05,-7.32623e-05 -9.2497e-05,3.33334e-05 1.9214e-05,-5.07391e-05 0.000185708,1.48091e-07 0.000520986,0.000501023 0.000148684,-0.000136777 -0.000142477,-0.000391529 -0.000263072,-0.000399482 -0.000183912,-0.000571758 0.000167767,-0.000107148 0.00034891,0.000205475 0.000212278,0.000268098 0.000291445,9.67252e-05 0.000485836,0.000539259 0.000351164,0.00013863 -0.000162022,-0.000371487 -0.000144743,-0.000141379 -7.70424e-05,-0.00027653 -1.29586e-05,8.13851e-05 -2.41672e-05,-0.000412451 0.00029656,2.08269e-05 0.000622804,0.000692443 2.12135e-05,-0.000325267 -8.21219e-05,-0.000104915 -9.86657e-05,-0.000727832 -1.89229e-05,7.78265e-05 -0.000146531,-0.000216311 -0.00053229,-0.000265236 0.000328309,3.40879e-05 -0.000283464,-8.95712e-05 0.000485035,-8.92174e-05 -4.51638e-05,-0.00071296 -0.000150147,-4.63585e-07 -7.43441e-05,-0.000116724 0.000341105,-0.000246857 1.22841e-05,-0.000236694 0.00025972,-5.93455e-06 7.97333e-05,-0.000118102 -7.31115e-05,0.000183058 5.43996e-05,6.7374e-06 0.000264004,-0.000159482 -0.000185662,-8.86384e-05 0.000322806,-1.82385e-05 0.000102519,-0.00020409 -0.000144697,0.000139452 -1.30484e-06,-0.000121892 0.000261178,-0.000331026 -0.000356745,7.7237e-05 -0.000417754,-8.56598e-05 -0.000361913,0.000332828 -0.000193722,8.11951e-05 -8.83157e-05,-0.000130144 6.79519e-05,-0.000203781 3.47977e-05,0.000113466 1.9174e-05,-5.43509e-05 8.83429e-06,-0.000466926 -0.000151487,-0.000125968 -0.000160137,-1.12106e-05 -3.87967e-05,0.000528597 5.54159e-05,9.43765e-06 -7.46854e-05,0.000313103 -0.00011744,0.000102185 3.62129e-05,6.10798e-05 -0.000132306,0.000189908 3.35878e-05,9.2708e-05 -0.000145928,0.000116887 -0.000213837,-0.00013715 7.44775e-06,-0.000319726 0.000144274,-0.000456397 -6.64057e-05,-2.10785e-05 -0.000222584,0.000245796 -0.000447698,0.00025503 2.54251e-05,6.84004e-05 -0.000321416,0.000333365 -0.000203121,-5.86872e-05 -0.000497269,0.000238313 -0.000246785,1.48438e-05 -0.000503645,-0.000266405 -0.000114889,0.000341453 -0.000250265,5.912e-05 -0.000267473,-0.000257677 5.83556e-05,-8.54015e-05 9.52219e-05,3.70768e-05 -5.61577e-05,-7.89627e-05 5.46937e-05,-5.82791e-05 -7.83156e-05,-2.63916e-05 -0.000134407,8.60794e-05 -0.000247872,0.000376048 -0.000191957,-3.07972e-05 -0.000281034,0.000137953 -0.000411826,7.28022e-06 -0.000177014,7.38158e-05 -7.74275e-05,0.000149683 -5.28316e-05,-0.000137688 -6.76633e-06,0.000106613 -0.000233966,-0.000265203 -9.58233e-06,0.000213192 -0.000318024,0.000374864 -0.0003286,0.000123925 -0.000540889,3.91256e-05 1.70331e-05,0.000115432 -0.000153965,1.22053e-05 3.61527e-05,5.56641e-05 -0.000262142,-3.55945e-05 -0.000165306,0.000153173 -0.000232346,7.24991e-05 -0.000328972,0.000460742 1.2301e-05,-0.000143685 -0.000100773,9.11949e-05 -5.90999e-05,-7.71322e-05 3.64846e-05,-0.000191759 -6.19392e-05,-0.000158376 -0.000200779,6.86056e-05 -4.28782e-07,0.000238394 -0.000109048,0.00014906 -0.000184125,-0.000130201 -7.43387e-05,-0.000302746 -0.000146236,-4.1191e-06 -0.000251869,0.000559384 -0.000256657,0.000201841 -3.72068e-05,-6.19762e-05 -0.000116011,0.000144606 -0.00042871,9.22986e-05 -2.15762e-05,0.000200656 -0.000296081,-6.87093e-05 -0.000350175,0.000139459 -5.66454e-05,0.000154011 -0.000122868,-0.000128941 -2.45113e-05,0.000110383 -0.00025641,-5.37118e-05 -6.63209e-05,8.00515e-05 0.000120883,3.50479e-05 -0.00017353,3.04345e-05 -0.000205073,0.00031606 -7.10384e-05,7.85369e-06 0.000139645,-0.000338055 -0.000126089,-0.000153294 -0.000141444,7.52993e-05 6.08847e-05,-0.000126959 -0.000258825,-9.52294e-05 0.000185621,-7.96608e-06 -4.01306e-05,-5.83389e-05 0.000131644,-6.79884e-05 0.000324752,7.11666e-05 0.000419181,-0.000152711 -9.45112e-05,-0.000156283 -3.17997e-05,0.000168239 -0.000152133,-0.000187377 -0.000212517,-0.000106475 -0.000256208,5.82569e-05 -0.000279049,-4.62885e-05 -0.000550766,-0.00033284 -0.000265296,-5.36358e-05 -0.000208914,4.69998e-05 -0.000170532,-0.000152902 0.000217368,9.83077e-05 0.000228744,-3.99516e-05 0.000420531,0.000114567 5.31499e-05,-6.45835e-05 0.000171197,2.91849e-05 0.000242166,0.000108019 0.000211128,-2.44462e-05 -2.20238e-05,-0.000213814 -0.00032632,-0.000219244 -4.65254e-05,-0.000102529 -0.000828579,-0.000449575 -8.2598e-05,-0.000150972 0.000206961,0.000141743 0.000171361,-4.84735e-05 -8.85969e-05,-0.000344159 0.000131521,0.000200203 -0.00020965,-0.000395461 0.000196498,0.000179762 0.000148825,0.000434828 0.000490236,0.000214181 0.000497678,0.000356786 0.000139618,0.000125181 8.75669e-05,0.000246644 0.000286623,0.000201535 0.000113766,0.000295173 0.000299284,-0.000280777 0.000736161,-0.000254856 9.01099e-05,-0.000258153 -0.000423606,-7.84125e-05 -0.00019493,-0.000217698 -0.000341425,-6.01804e-05 -0.000391535,-0.00040739 -0.000902443,-0.000522057 -0.000206986,-0.000330468 -0.000258626,-0.000170181 0.000383361,0.000196165 -5.95753e-05,-0.000122279 -0.000150702,-5.28444e-05 9.35043e-05,-3.15303e-05 0.000129107,6.56776e-05 0.000138809,0.000235354 0.000344095,0.000219087 0.000179471,-2.86809e-05 -3.49702e-05,-0.000130624 7.84017e-05,-5.84868e-05 6.31428e-05,0.000179136 9.61054e-06,-0.000211386 0.000139087,0.000354546 0.000532994,0.000240887 9.84038e-05,0.00015083 0.000362376,7.986e-05 0.000265363,0.00015296 -0.000105012,6.41417e-05 0.000376368,2.07699e-06 0.000553528,-0.0001512 0.000980929,5.73232e-06 0.000100523,-2.16624e-05 -6.95512e-05,-3.82105e-05 6.52148e-05,-9.0879e-05 -0.000124844,-0.000128921 -0.000755094,-0.000226263 -0.000177478,-0.000155545 -0.000873996,-0.000261332 -7.23597e-05,-0.000116747 -0.00024622,-2.49047e-05 0.000214116,-2.1766e-05 -3.44537e-05,-8.18667e-05 -0.000150799,3.11371e-05 6.49857e-05,-0.000112548 -0.000122127,-0.000152425 -2.76162e-05,-0.00018216 -3.27854e-05,7.52394e-05 -2.00355e-06,-0.000188708 0.000301232,0.000461466 -0.000229678,-0.000420563 0.000404958,0.000462351 0.000855725,0.000122433 0.000441103,0.000238084 0.000632339,0.000108158 0.000339901,0.000195637 -3.41079e-05,4.3647e-05 0.00015356,-5.01271e-05 -0.000242058,-0.00046921 -0.00020822,-7.40004e-05 -0.000388537,-0.000310789 -0.000245827,-8.08911e-05 -0.000246769,-0.000355393 -0.000290741,-3.17314e-05 -0.00013745,-0.000107139 0.000118233,-2.81398e-05 -1.47677e-05,-8.83623e-05 -0.000327122,-0.000295083 -5.62787e-05,-0.000183711 -0.000533562,-0.000295058 -0.000616688,-3.06482e-05 0.000624676,-5.43041e-05 -5.08884e-05,-0.000234327 7.53789e-05,0.000122138 0.00046755,0.000217986 -2.23526e-05,-0.000244513 9.34071e-05,0.000238464 -2.06172e-05,-0.000267103 0.000173351,0.000325345 0.000319566,0.000327658 0.000154096,4.37294e-07 -8.10367e-06,-0.000111899 6.92136e-05,6.60914e-06 2.35627e-05,0.000265271 0.000172546,6.34827e-05 0.000262983,0.000301069 0.000273951,3.18791e-05 0.000252428,0.000330058 0.00054386,0.000240778 0.000135808,0.00032387 -5.30146e-06,5.87417e-05 -7.56499e-05,-5.44098e-05 2.06953e-05,8.83093e-05 0.000447288,0.000447518 4.94967e-07,-0.000510196 -1.09198e-05,8.76875e-05 -5.26259e-05,-2.57186e-05 0.000128574,-0.000263012 -0.000400055,-0.000279078 -0.000191689,-0.000562666 6.83972e-05,-7.01388e-05 -0.000109547,-8.39072e-05 0.000293648,0.000119292 0.000164191,0.000299236 0.000232981,0.000173108 0.000259951,1.57467e-05 2.73296e-05,-0.000309067 0.00010173,-9.0539e-07 0.000250262,0.000219006 -3.81443e-05,3.55563e-05 -0.000250971,-0.000192813 1.86816e-06,0.000268172 0.00028329,-1.87754e-05 3.29366e-05,-6.07937e-05 0.000326016,0.000190338 4.85502e-06,8.48381e-05 0.000222914,0.000155136 0.000194617,-9.02267e-05 -0.000156259,-0.000388701 -0.000504913,-0.000293492 -0.00017981,-0.000188931 -2.15325e-05,-0.000166862 0.00029353,1.54468e-05 0.000535177,0.00035282 0.000216801,4.50245e-05 0.000151314,0.000202728 -7.75643e-05,4.40347e-05 0.000187108,0.000131976 0.000273231,-0.000220959 -0.000170251,5.93087e-05 1.09664e-05,-8.31731e-05 0.000875831,-0.0003076 -0.000392331,-0.000110279 -0.000246887,-0.000180204 -0.000690529,-0.000100401 -7.46657e-05,-0.000147426 0.000471429,0.000117704 4.37866e-05,-0.000154802 -0.000181074,-0.000122097 -0.000103817,8.30973e-05 2.70002e-05,-6.16441e-05 -0.00018025,-0.000137455 -0.000640943,-0.000174891 -0.00040314,-1.26652e-05 -7.18811e-05,-7.15997e-05 -7.19877e-05,-0.000452662 0.000507432,0.000159828 0.000286268,-1.69968e-05 6.35311e-05,0.000122241 0.000196545,-1.75039e-06 4.25526e-05,-8.52604e-05 0.000211032,-3.25815e-05 0.000127191,7.11064e-05 -5.98624e-05,3.6653e-05 9.36872e-05,7.86287e-05 0.000378475,0.000200704 -0.00016241,-3.91874e-05 1.45878e-05,7.12065e-05 0.000315816,6.76189e-05 4.18617e-05,0.000127852 0.000433922,0.00021285 0.000321242,2.06132e-05 -0.000220669,-0.000129869 -0.000105492,-0.000259121 -8.02468e-05,7.02459e-05 -0.000529923,-0.000601185 -0.000287147,-0.000158174 5.11523e-05,-0.000112427 -0.000405948,-0.000276311 4.93888e-05,-9.25453e-05 0.00022806,0.000174955 -5.78557e-05,-0.000145769 0.000127315,8.28441e-05 -2.81275e-06,-7.85353e-05 0.000256072,2.3002e-05 0.000192351,0.000160825 -2.51302e-05,5.16946e-05 0.000262591,0.000171034 0.000108116,0.000227493 8.11133e-05,1.10157e-05 8.57332e-05,0.000166289 -9.78074e-05,-1.83692e-06 0.000343658,-7.57931e-06 -5.78674e-05,3.84417e-05 0.000210324,0.000178723 0.000345114,0.000128758 0.000126962,0.000234548 4.87777e-05,0.000312903 -8.69182e-06,-7.39678e-05 0.000489586,0.000152751 -1.90398e-05,6.69914e-05 0.000111525,8.38858e-05 0.000139068,-1.93013e-05 0.00011728,-0.000209638 0.000307802,-0.00022037 -1.25852e-05,-6.8515e-05 -0.000275786,-0.000111314 6.15899e-05,-0.000152253 -0.000113471,-8.11592e-05 -0.000647599,-0.000150437 -0.000239787,-0.000440327 -0.000162588,-0.000148446 -0.000453373,4.31736e-07 8.32957e-05,-6.21463e-05 -9.51426e-05,-2.98533e-05 0.000107703,-0.000181559 0.00023644,-5.80944e-05 4.99224e-05,5.01223e-05 -0.000253023,0.000170213 0.000312369,2.24976e-05 -0.000120769,-0.000117215 0.000119034,-4.53084e-05 4.90437e-06,-9.5761e-05 -0.000271957,-0.00012309 -2.66907e-05,-9.45762e-05 -3.27131e-05,8.15611e-05 -0.000151443,-0.000307473 -0.000177373,3.95073e-05 -0.000176706,-0.00026842 -3.58111e-05,6.89467e-05 -0.000374732,-0.000220602 -0.000154091,-0.000185546 0.000116554,-0.000185249 0.000352532,-8.56001e-06 0.000413442,0.000238316 -1.30701e-05,-0.000206669 -8.10158e-05,-1.98661e-06 3.19424e-05,-0.000153794 0.000284191,-2.6012e-05 0.000377733,0.000224185 -0.00011076,0.00035767 4.88238e-05,0.000132304 0.000179068,0.000119404 0.000288634,-0.000165114 0.000192742,0.000104833 -0.000175269,0.000421456 0.000286652,0.000204227 0.000127164,0.000253509 0.000125571,-8.05843e-05 -6.16204e-05,-3.55696e-05 2.59762e-05,-0.000157353 5.34491e-05,1.03587e-05 -3.26833e-05,8.42701e-05 0.000171071,-7.46697e-05 8.62072e-05,-0.000251802 0.00025171,-0.000107898 0.000134893,0.000237185 -6.69771e-05,1.77551e-05 -0.000107421,0.000484963 0.000462607,0.000401311 -5.07503e-05,5.73419e-05 0.000389508,-6.12717e-05 -0.00013937,-0.000193801 2.89094e-05,0.000117131 -8.19244e-05,-8.68583e-05 1.75813e-05,-0.00020333 0.000126955,0.000233644 0.000153065,8.89314e-05 -0.000111117,-0.000138068 0.000128396,-1.14739e-06 -0.000191583,-8.85872e-05 6.6656e-06,-0.000115643 -0.000133784,-0.00013335 -5.63251e-05,0.000275013 -8.67435e-05,-0.000445303 7.16389e-05,0.00014113 9.37339e-05,-0.000101973 0.000276744,0.000385814 0.000158042,9.24987e-05 -8.79512e-06,0.000101214 0.000196735,0.000108407 -1.98331e-05,8.50585e-05 0.00031936,0.000121758 0.000228455,0.000211063 0.000430385,0.000158689 0.000186069,-5.76501e-05 -3.29813e-05,5.62806e-05 9.22411e-05,-5.68108e-05 0.000140654,3.66671e-05 0.000143754,-4.2824e-05 -6.11547e-05,-0.000176439 -0.000412723,-0.000169682 -0.000293718,-0.000217703 -1.42062e-05,5.70155e-05 -0.000162078,-0.000192694 -0.000330668,-0.000163194 9.98886e-05,1.17488e-05 -8.64453e-05,-0.000140094 -8.61797e-05,6.93979e-05 -0.000351649,-0.000185582 -0.000180983,-0.000298176 3.98542e-06,-0.000181537 0.000371879,4.5438e-05 0.000130677,0.000119833 0.000205876,3.96971e-05 -8.12605e-05,6.75479e-05 8.20888e-05,0.000102207 0.000491944,0.000188841 4.32187e-06,-0.000149935 -0.000118617,8.41362e-05 6.54579e-05,-6.74068e-05 -4.04145e-05,-8.45198e-05 -0.000300706,-0.000224865 3.63955e-05,-0.000291089 0.000298406,9.97333e-06 8.42575e-05,0.000120247 0.000214028,6.31009e-05 -0.000219452,-1.60968e-05 0.000285797,0.000123862 0.000293399,0.000649335 0.000108256,-3.70884e-05 0.000104465,-0.000391027 8.99622e-05,9.94269e-05 -2.32078e-05,-0.00013795 9.53659e-05,5.0617e-05 0.000251387,0.000784255 0.000253589,-0.000301161 0.00010089,-0.000355779 0.000504266,-0.000136353 0.000454998,-3.29723e-05 -0.000512619,-0.000274432 6.09924e-05,-2.31211e-05 -0.000132112,-6.92499e-05 5.7923e-05,-3.30265e-05 -4.93335e-05,-8.71483e-05 -4.65653e-05,7.89773e-05 -0.000281064,4.13458e-05 -2.94061e-05,-7.1073e-05 -9.52023e-05,5.6838e-05 -0.00047227,-0.000104131 -0.000173533,-0.000155567 -5.91013e-05,-0.000169234 -0.000114161,3.89473e-05 -0.000103932,-0.000204952 4.31277e-05,-3.10876e-05 -0.000369281,-7.97713e-05 2.71322e-05,-4.90043e-05 -0.000233351,-0.000207407 6.34258e-05,-0.000164912 0.000208878,-4.88241e-05 0.00044527,7.36733e-05 0.000124994,5.03519e-05 -9.13577e-05,4.68702e-05 0.000238196,1.4122e-05 -3.99712e-05,4.91193e-05 7.71509e-05,0.000102251 0.000365,0.000233316 0.000153085,-1.37074e-06 1.19309e-05,-0.000177093 0.000117279,-0.000116633 -0.000154169,-7.64935e-06 0.000124716,-0.000160043 0.000221774,-4.35238e-05 0.000126999,5.3042e-05 -9.54916e-05,2.97511e-05 9.16372e-05,7.14185e-05 -2.33466e-05,0.00021783 -0.000154429,-0.000216238 -8.10656e-05,0.000177712 0.000447363,0.000176591 0.000144932,-2.47763e-05 1.08451e-05,-9.40083e-05 0.000179634,0.000355975 0.000690424,0.000275545 0.000437627,0.000281421 -0.000143658,-0.000500775 -0.000392968,-0.000169851 -7.90508e-05,-0.000187114 -4.65547e-05,7.98806e-05 -6.89613e-05,-0.000351548 0.000104264,5.14389e-05 -8.72419e-05,-0.000122025 0.000147353,0.000108844 0.000343429,6.37422e-05 6.4002e-05,-0.000202844 0.000207918,-4.61112e-05 0.000148806,0.000152174 0.00012848,-8.51307e-05 0.000199098,0.000144498 0.000212709,-0.000151805 0.000139687,-0.000282305 -1.64267e-05,0.000171034 9.61003e-05,-6.49748e-05 0.00018683,0.000105779 0.000458475,-0.00016846 0.000406696,6.8587e-05 0.000501029,0.000206799 0.000663013,0.000481656 -1.27226e-06,-0.00011828 -0.000657698,-0.000538592 -0.000206186,-6.85808e-05 -0.000165967,-0.000186331 -7.25224e-05,5.30249e-05 -9.32496e-05,-0.000221298 2.4142e-05,0.000132523 -0.000291502,-0.000195137 0.000285786,3.08441e-05 0.00031567,0.000146158 -0.000279379,-0.000169962 0.000108397,-2.35484e-05 0.000556546,0.00013406 0.000523,0.000229174 -0.000291127,-0.000527439 -0.000231383,-0.000207414 -0.000300446,-0.000108368 8.9593e-05,-2.69917e-05 2.77607e-06,-0.000109287 0.000202845,0.000125499 -0.000144915,-0.000157624 0.000456016,6.27233e-05 6.29296e-05,6.53527e-05 3.56975e-05,-7.88811e-05 6.3153e-05,8.61194e-05 -5.67619e-06,-6.85763e-05 8.11022e-05,1.01068e-05 7.21777e-05,9.86801e-05 0.000206127,6.31621e-05 5.31831e-05,0.000169284 0.000368398,0.000273002 8.80631e-05,0.000473278 0.000274828,-0.000161399 0.000214113,-2.08893e-05 6.34846e-05,-0.000341902 -0.000214876,-0.000417054 0.000281257,-0.000114502 1.50632e-05,-6.87628e-05 -0.000154945,-7.98748e-05 2.49242e-06,-0.000135471 -0.00023797,6.65603e-06 0.000256035,-7.18339e-05 1.99431e-05,-7.42247e-05 -0.000283727,6.84711e-05 -0.000143838,-5.74004e-05 0.000303295,-8.58037e-05 0.000153055,-0.000187393 2.98348e-05,-0.000164613 0.000187333,-0.000122687 -3.86494e-05,7.9811e-05 5.68195e-05,4.82501e-05 -0.000126182,2.28073e-05 1.98322e-06,0.000184192 0.000110742,-0.000172565 0.000146557,3.48005e-05 0.000105047,0.000215772 0.000334507,0.000244408 0.000106127,0.000499301 0.000315371,0.000118161 0.000330749,-0.000196219 -0.000103959,-0.000114646 0.000541557,0.000117927 -0.00024201,-0.000551352 0.000145657,-0.000140373 0.000209873,4.41612e-05 -0.000158871,1.40736e-05 0.000142802,5.28925e-05 -6.57815e-05,3.67124e-05 0.000293214,7.86264e-05 5.48478e-05,-0.000226242 0.000178787,-0.00018221 0.000105539,-1.35934e-05 0.000336206,0.000401508 0.00012628,-1.37807e-05 0.000179186,0.000129317 0.00025242,-0.00022351 0.00026009,-6.19441e-05 -0.000151912,-0.000164779 0.000146818,-0.000124131 -3.50218e-05,-0.000133326 -0.000184867,-0.000106691 -0.000194347,2.16191e-05 -0.000149852,-6.54695e-05 0.000288496,-0.00035838 0.000515543,8.7453e-05 0.000144854,-0.000214413 0.000120626,1.1553e-05 0.000114636,0.000188593 3.47636e-05,0.000292255 8.73202e-05,3.71372e-05 0.000143666,-5.00586e-05 3.74441e-05,-9.96669e-05 -8.22845e-05,-2.81527e-05 0.000360788,-0.000157669 0.000231323,0.000201083 0.000338314,-4.36909e-05 0.000157724,6.2687e-05 -0.000193183,3.78651e-05 0.000149775,5.8244e-05 5.56353e-05,0.000212603 3.66152e-05,-0.000267616 0.000241327,-0.000335384 -9.45542e-05,-0.000158071 -0.000627114,-8.37296e-05 -0.000790523,-0.000307101 -0.000319234,-0.000293299 -0.000439701,0.000258611 -0.00029078,5.49968e-05 -0.000395261,0.000258208 -0.000681488,9.46375e-05 -0.000142907,0.000120483 1.83237e-05,0.000233709 -8.12464e-05,0.000159658 -1.33703e-05,-0.000140746 -3.54168e-05,0.000196268 -0.000184447,-6.7868e-05 0.000170367,4.45172e-05 -1.48197e-05,-9.19714e-05 -0.000135421,-9.61549e-06 -0.000131101,-0.000158648 -0.000116753,-1.88138e-05 -0.000200676,7.58531e-05 -5.30053e-05,0.000122381 7.2505e-05,3.72724e-05 -0.000102727,9.12244e-05 -0.000250934,-4.96376e-06 -0.00019878,6.86114e-05 8.52468e-05,2.8128e-05 -7.67135e-05,3.04895e-05 -0.000149413,-2.48413e-05 -4.60337e-05,-5.55709e-05 0.000191239,-0.00021844 -3.66827e-05,-0.000104417 9.9769e-05,9.0757e-07 -0.000146231,-9.62062e-05 0.00020775,3.06369e-05 3.93202e-05,-0.000200818 0.000652741,-0.000287613 0.000257926,-0.000262385 0.000646699,-0.000206293 5.27719e-05,3.92558e-05 4.25782e-05,-8.1653e-05 3.73403e-05,7.37085e-05 8.02767e-05,-0.000157844 0.000170753,-0.000102675 -4.74563e-05,-0.000187394 -0.00042367,-8.64789e-05 -0.000166704,0.000294975 -0.000580353,0.000405255 -0.000480369,0.000151515 -0.000412463,3.71253e-05 8.06874e-05,6.33857e-05 -0.000494424,-0.000144542 -0.000256903,0.000265986 0.000104137,3.96973e-05 -0.000766152,0.000396083 -0.000363697,-2.02064e-05 0.000121726,-6.97221e-05 -0.000523244,2.27651e-05 -3.27826e-05,7.434e-05 0.000194778,0.00011022 -8.82448e-05,6.03908e-05 0.000188367,6.51275e-05 -0.000243476,4.55328e-05 -0.00011622,0.000306256 -4.91832e-05,-0.000164805 -6.57376e-05,0.000224533 -3.76453e-05,-0.00028591 -0.000204477,-1.77401e-06 0.000107396,-0.000116548 -0.000111223,3.62163e-05 5.09846e-05,-0.000126877 -0.000118876,-0.000124447 -3.98208e-05,-0.000212748 -0.000382788,4.13653e-05 -0.000100369,0.000402733 -0.000120573,0.000177166 -0.000558118,0.000270492 -0.000266349,3.12872e-05 -2.63149e-06,0.00012283 -9.04156e-05,4.23493e-05 7.28291e-05,-0.000208342 0.000250834,-0.000188268 -0.000356268,0.00021179 -8.7738e-06,-8.11904e-05 0.000120246,-0.000115759 0.000112521,-7.33115e-06 0.000306185,-0.000368461 -3.68931e-05,-0.000124281 -0.00109862,0.000157952 -0.000119131,0.000311698 -0.000155908,0.000106146 -3.89033e-05,0.00014844 -8.09467e-05,4.3381e-06 6.97072e-06,-8.67497e-05 -6.38364e-05,0.000126088 -3.39669e-05,-3.5815e-05 -0.000121699,0.000256638 0.000125562,-0.000356905 -3.25447e-05,-0.000179403 -0.000213491,0.000170774 -0.000527315,0.000196162 -0.000395517,0.000512832 -4.27396e-05,0.000251415 -7.38982e-05,-7.5189e-05 -1.28491e-05,9.13173e-05 -0.000185414,2.60422e-05 -0.000103131,0.000146306 0.000111535,-7.32027e-06 -0.000174774,0.000189388 -0.000232346,-2.13964e-05 -9.36888e-05,-0.000170729 8.60024e-05,-8.56516e-05 4.77549e-05,3.20799e-05 0.000160802,-0.000294913 -2.46438e-05,0.000281051 -0.000129671,6.6177e-05 -2.36748e-05,9.50262e-05 0.000151573,4.19858e-05 0.000192019,-0.000331312 0.000193354,-0.000114606 -9.60231e-05,-1.99084e-05 -0.000262344,0.000220874 0.000197257,-0.000211261 -3.98862e-06,-0.000187787 9.40576e-05,-7.12761e-05 -3.27074e-05,-0.000194753 -0.000261595,-0.000170128 -0.000659397,3.75105e-05 -0.000120765,0.000252113 0.000105618,-6.36363e-06 -0.000178492,0.000118987 -0.000106437,0.000391045 -2.05844e-05,-7.7473e-05 -5.78848e-05,0.000128743 -0.000317071,9.13312e-05 4.12279e-05,6.82584e-05 -8.64852e-05,-5.15995e-05 -2.29137e-06,-0.000213989 0.000109641,-0.000276394 5.30711e-05,-2.48558e-05 1.48905e-05,9.91958e-05 -5.84486e-05,0.000260585 0.00019502,-5.14101e-05 3.73513e-05,-0.000385912 0.000191148,-0.000228362 -0.000172498,0.000125254 -0.00012068,0.000352344 -1.71146e-05,-0.000306864 4.77641e-05,3.29832e-05 8.96558e-05,-0.000297887 -0.000349735,-9.98108e-05 -0.000706033,0.000202266 9.79977e-07,-9.3017e-05 0.000159689,-0.000122429 0.000533555,-0.000167313 0.000492533,0.000152712 5.85785e-05,0.000120476 0.000204344,-0.00019507 0.000536553,-7.16268e-05 0.000360658,0.000105128 0.000256134,0.00021352 0.000439136,-0.000405767 0.000677373,-0.000295031 0.000153934,-1.40226e-05 6.71988e-05,0.000187219 -3.05026e-05,-0.000265206 0.000369619,-0.000256154 0.001148,-0.000250501 -0.000721231,7.32966e-05 -0.000194755,-1.63119e-05 4.0685e-05,-7.44104e-05 -0.000266039,-0.000124031 -0.000473397,6.56504e-05 -0.000252599,-0.000160273 -0.000312282,-0.00038368 -0.000319096,-9.82745e-05 -0.000194269,-0.000155379 -0.000523764,6.60966e-05 2.10694e-05,-6.15922e-05 -6.63055e-05,-1.20479e-05 -3.96986e-05,7.4401e-05 -0.000148936,1.9394e-05 -0.000511699,-9.83586e-05 6.25698e-05,-0.000152263 0.000465551,0.000124056 8.42772e-05,-0.000154264 9.41709e-05,0.000123769 -0.000177922,-0.000381275 0.000200987,0.00013726 9.33958e-05,0.000235747 0.000266898,-0.000164027 0.000622262,0.000184954 0.0004297,0.000280589 0.000215118,0.000257229 0.000407071,-7.95031e-05 6.38568e-05,5.99275e-05 1.4154e-05,-0.000153636 4.48788e-05,4.02319e-05 3.10487e-05,-6.35639e-05 z M 0.0177687,0.0303034 l 0.000200152,-1.69987e-05 -0.00112033,-0.00401278 -0.00509961,0.00138227 5.75729e-05,0.000177469 -0.00088254,0.000300362 -0.0007294,0.000350718 -0.00112671,0.000776727 -0.00099805,0.00105801 -0.00022143,-0.000138688 -0.000428448,0.000710371 -6.59123e-05,0.000650084 0.000218683,0.00056958 0.000461496,0.000449068 0.000609964,0.000232659 0.000719012,4.25802e-06 0.000627839,-0.000141967 0.00354382,-0.00116757 0.00192511,-0.0004899 -8.45463e-05,-0.000324413 0.00239334,-0.000369255 z M 0.0025281,0.0203763 l 0.000220754,0.000330191 -9.06333e-05,0.000214796 -0.000389056,1.60112e-05 -0.000169762,-8.07033e-05 0.000144707,0.000141421 9.14541e-06,0.000310553 8.8778e-05,0.000178026 4.16316e-05,0.000966753 0.000925125,0.000521144 0.000445745,-7.52005e-05 0.000480629,0.000144828 -3.27605e-05,7.97481e-05 -0.00032103,9.85017e-05 1.41585e-05,0.000222015 0.000104338,5.86933e-05 -7.67863e-05,2.59498e-05 -1.75395e-05,0.000308978 0.000115159,0.000244617 0.000401973,0.000466074 -0.000361436,1.30676e-05 -6.05228e-05,7.00558e-05 -0.000291354,-8.77739e-05 -0.000631002,-0.000641079 -0.000366963,-4.37768e-05 -0.000464019,-0.000257851 -0.000136289,3.88909e-06 -2.76973e-05,0.000187161 -0.000147815,3.55938e-05 -2.49439e-05,7.1553e-05 5.53718e-05,0.000195472 0.000131711,-6.43504e-05 2.75638e-05,0.000181264 0.000254554,0.000349966 1.74327e-05,0.000347504 -0.000629205,-8.66581e-05 -0.000484471,0.000152285 -3.22485e-05,0.000129408 5.40435e-05,6.72574e-05 1.31374e-05,-6.69357e-05 3.51943e-05,0.000155012 -5.21171e-05,0.000118744 -0.000332708,2.09387e-05 -0.000107012,0.000255572 1.63602e-06,0.000158011 0.000153568,0.000233452 -0.00037532,-8.70534e-05 -0.00031714,-0.000383742 -0.000149674,0.000333598 -0.000174952,0.000182113 0.000104207,4.60551e-05 6.6135e-05,-0.000100805 9.84795e-05,0.000160786 0.000650769,0.00045129 0.000293627,0.000497722 0.000201469,0.000184275 0.000107863,0.000303378 3.96062e-06,0.000954437 -0.000383646,0.00130364 0.000156619,0.000432085 0.000213413,0.000192298 6.35472e-05,0.000412121 0.00075243,0.000803271 0.00013107,0.00331803 0.000772794,-0.000715335 0.000884803,-0.00128597 0.000408607,-0.000305866 0.00097353,-0.000500794 0.000628362,-0.000510632 0.00164527,-0.00232901 0.000439716,-0.000450376 0.000996978,-0.000790209 0.00112917,-0.00062419 0.000604051,-0.000243982 0.00649712,-0.00177733 0.00135281,-0.000619758 0.00121291,-0.000827035 0.000542035,-0.000483463 0.000934224,-0.00108807 0.00149169,-0.00249692 0.000672965,-0.000937779 0.000848336,-0.000810246 0.00241274,-0.00162095 0.00080524,-0.000690208 0.000417908,-0.00055497 0.000417826,-0.000933984 0.000127244,-0.000663627 0.000100098,-0.00190477 0.000418547,-0.00119778 0.000745367,-0.00105677 0.00219027,-0.00183816 0.000476083,-0.000620107 0.000347885,-0.000687612 0.000258419,-0.00110964 0.000315505,-0.00350427 0.000636402,-0.00176349 -0.000678039,-0.00010663 -3.72069e-05,0.000336891 -0.000618457,-8.65403e-05 -0.000290085,0.000244335 -7.3894e-05,0.000203828 2.42048e-05,0.000233662 -8.735e-05,-4.07644e-05 1.81724e-06,0.000171553 0.000299023,0.0001626 0.000382234,9.2332e-05 -0.000105063,5.87224e-05 -4.79798e-05,-5.37548e-05 3.54446e-06,0.00014806 -4.06147e-05,-0.000104388 -8.8572e-05,0.000123592 -0.0004828,-7.51884e-05 0.000479177,1.29138e-05 1.24202e-05,-0.00013285 -0.0001992,-6.32516e-05 -0.00071794,1.17738e-05 -0.000366055,0.000129659 -7.60943e-05,0.000276087 -9.57323e-05,7.16795e-06 -0.00025487,-9.70749e-05 -0.000219646,-0.000222 5.28919e-05,-4.20056e-05 -0.000185863,-1.64162e-05 -0.000202811,-0.000124626 5.08519e-06,-7.95086e-05 -0.000255424,0.000130484 -0.000600753,7.21311e-05 -0.0002444,-4.11845e-05 -0.000703922,-0.000344146 -0.000101343,3.70146e-05 -0.000188679,0.000277983 0.000967246,0.000493524 1.32923e-05,-5.06852e-05 0.000526939,0.000419752 0.00033209,2.05426e-05 0.000118146,-0.00012927 0.000348854,-7.53243e-05 0.000760469,-6.72687e-06 0.000516126,0.000237435 0.000441686,0.000109867 0.000109681,9.74553e-05 -0.000495064,0.000166019 -0.000810638,-6.68719e-05 -0.000382091,0.000108127 6.60503e-05,-0.000105332 -0.00011776,7.23782e-05 -9.63253e-05,-4.88129e-05 -1.02907e-05,5.42708e-05 0.000127861,0.000322142 0.000156087,-9.07771e-05 0.000369434,0.00018907 0.000613873,4.69412e-05 0.0004831,0.000196188 -0.000368406,1.4558e-06 -0.000434602,0.000186252 -0.000770456,-9.61252e-05 -4.14675e-05,-9.17388e-05 -0.0001713,-4.00229e-05 0.000637067,9.18885e-05 0.000498238,-5.31707e-05 0.000101987,-6.95304e-05 -0.000540582,6.52846e-05 -0.000833959,-0.000123558 0.000536831,0.000513572 0.000540565,-6.70895e-05 9.78456e-05,-8.75535e-05 0.00062093,0.000153431 5.41382e-05,-1.76363e-05 -8.35926e-05,-5.88575e-05 7.80231e-05,-6.90841e-07 0.000295547,0.000206878 9.35609e-05,0.000253816 5.85597e-05,-6.64374e-05 3.33364e-05,0.000163147 0.000155239,0.00010879 -2.58624e-05,7.60807e-05 7.97003e-05,6.43096e-05 -0.000572786,0.000102597 -0.000224752,-0.000330312 -0.000157551,-4.73669e-05 -0.000312393,6.7781e-05 -8.3289e-06,0.000519296 9.59846e-05,0.000296236 0.00039573,0.000339635 0.000347985,0.000121532 2.01889e-05,0.000227376 0.00016289,0.000271262 -0.000126623,7.51672e-05 -0.000428319,-0.000245434 -0.00020524,1.9877e-05 8.43179e-06,0.00023651 0.000149368,0.000300278 -0.000227366,-0.00020387 0.000160674,0.000248707 -0.0001382,-0.000178473 -0.000227677,-4.67463e-05 -0.000213358,0.000186099 6.47703e-05,-0.000226322 -0.000157495,0.000237979 5.41789e-05,-0.00066689 -5.86921e-05,-3.92124e-05 -0.000168105,7.55331e-05 -8.5878e-05,-0.000274654 -0.000241744,-0.000256118 -0.00015764,-0.000522343 9.08598e-05,9.22049e-05 1.53643e-06,-0.00032148 -0.000220186,-0.000272563 -0.00044984,-0.000133278 0.000162473,-4.74892e-05 -0.000171081,-1.92564e-05 -4.59998e-06,-6.13631e-05 -8.9283e-05,5.6775e-05 -0.000513096,-0.000137236 -0.000444881,-0.000318439 -0.000576977,-0.000574628 -0.000302014,-0.000165291 5.53895e-05,0.000568399 0.000500129,0.000312536 0.000256504,0.000251477 0.000821374,0.000334075 0.000163981,0.00056202 -7.04788e-05,0.000247141 -9.28197e-05,2.62643e-06 -0.00034888,-0.000393332 -0.000495463,-0.000150938 1.71287e-05,-6.1555e-05 -0.000287127,-0.000158197 -0.000148785,-0.000246107 0.000100148,-5.68701e-05 -0.000336503,-6.38506e-05 -3.79891e-05,0.000143912 -8.23884e-05,-0.000132013 0.000190617,0.000466069 -1.53522e-05,-0.000331264 0.000206516,0.000288038 1.60688e-05,0.000212062 -0.000227764,3.81309e-05 -0.00039026,-0.00038394 5.26952e-05,-0.000247886 -9.50422e-05,-2.08331e-05 -0.000117394,-0.000173242 -0.000266275,-5.45391e-05 -0.000459706,-0.000507041 -0.000161642,-0.000341713 -9.19476e-05,-0.000663795 -0.000146594,-0.000226263 -0.000753388,-7.10169e-05 -0.00054055,-0.000306772 -8.07508e-05,0.000304118 -0.000282529,-9.77445e-05 -0.000277384,-0.000265748 -0.000212007,-6.04404e-05 -9.24586e-05,-0.00015089 -0.000814979,-0.000292624 -0.00019176,-0.000201488 -0.000132398,-4.25358e-06 0.000162551,0.0004293 0.000192986,0.00013014 0.000267916,0.000492486 0.000154944,8.17124e-05 0.000105261,0.000241077 0.000311674,0.000145348 2.82745e-05,0.000246269 0.00023005,0.000460309 2.05453e-05,0.000262591 0.000307347,0.000109265 -4.28661e-05,5.63633e-05 0.000108754,9.87817e-06 -1.48317e-05,9.22363e-05 0.000420409,0.000340339 0.000169545,0.000529468 3.01624e-05,0.000425046 0.000415277,0.000321419 0.000132552,-7.52142e-05 9.2118e-05,2.44718e-05 -9.41667e-05,6.22339e-05 0.000215819,-4.70525e-05 -0.000176939,8.10237e-05 -7.94636e-05,0.00014518 5.44475e-05,0.000105171 0.000531808,0.000131663 0.000217185,-0.000104857 -4.38378e-05,-3.57332e-05 7.63316e-05,-6.7495e-05 0.000336576,-0.000116747 -8.16354e-05,-6.06835e-05 0.000177396,-3.7685e-05 0.00114229,4.40963e-05 0.0002214,0.000294227 -0.000630952,0.000113931 -0.000285298,1.51605e-05 2.4897e-05,-7.42655e-05 -0.000202484,9.38928e-05 -0.000363666,-1.66568e-05 -0.000175459,3.40559e-05 -4.60731e-05,0.000126826 0.000473258,1.20783e-05 0.000253425,0.000146758 9.80121e-05,-7.22018e-05 0.000394399,2.72199e-05 0.000338288,0.000138783 0.000435867,0.000305877 -0.000305644,-4.06437e-05 3.99071e-05,3.75733e-05 0.000434613,9.36839e-05 -0.000575013,8.00285e-05 -0.000213363,-8.24627e-07 0.00019601,-5.22989e-05 -0.00021687,-5.22645e-05 -0.000724217,7.50214e-05 -3.74487e-06,-7.40126e-05 0.000159619,-3.75287e-05 -0.000241427,-3.94069e-05 -0.000488829,-0.000364109 -0.000299606,-0.000123777 -0.000969477,4.64736e-05 -0.000704562,-0.000122017 -5.46976e-05,0.000152185 9.99077e-05,0.00010748 0.00059686,0.000399283 0.00085303,-0.000130328 0.000471551,3.73785e-05 0.000183188,0.000136542 6.99236e-05,-1.95799e-05 0.000222651,0.00022559 5.20179e-05,-0.000125073 8.12551e-05,2.45667e-05 0.000158225,0.000204487 0.00023491,0.000170398 -8.28578e-05,-0.000176256 0.000305697,0.000325991 -8.72668e-05,-0.00021956 0.000614622,0.000396405 0.000169878,-1.50081e-06 0.000740961,-0.000266611 0.000222797,5.221e-05 0.000139171,8.3651e-05 -0.000356457,-8.17301e-05 -5.95981e-05,6.19305e-05 0.000434406,7.3817e-05 -0.000375446,-9.32249e-06 -8.27617e-05,0.000206615 -0.000269169,0.000139634 1.22218e-06,0.000115573 0.000204988,0.000142668 0.000892139,0.000111307 -0.00023035,7.4277e-05 0.000221914,9.49268e-06 -0.000652413,0.000192973 -4.69671e-05,0.000228873 5.53212e-05,0.000187334 -0.000108092,-0.000133591 -0.000209443,0.000183354 -5.06538e-05,-0.000119651 -8.67626e-05,1.52148e-05 -0.000167792,-0.000361521 -0.00108993,-0.000320869 -4.18828e-05,-3.7556e-05 6.88889e-05,-2.40861e-05 -0.00029849,-0.000111142 0.000119126,-3.71715e-05 -0.000579716,-0.0002712 0.000190677,3.73522e-06 -0.000768838,-0.000408595 0.000199908,3.61624e-05 -0.00021131,-0.000180541 3.40536e-05,-4.90622e-05 -0.000245871,7.58652e-06 -0.000579747,0.000380758 -0.000360707,-1.66866e-05 -0.000193837,7.12389e-05 8.50655e-05,0.000104901 -9.46256e-05,1.88938e-05 8.90805e-05,1.7275e-05 -2.00936e-05,6.15808e-05 0.000531085,0.000156052 0.000342692,0.000275101 0.00015953,4.7355e-05 0.000383041,-0.000113544 0.00045757,0.000302982 -9.15866e-05,2.60921e-05 0.000215885,5.22746e-05 -0.00042407,6.33398e-05 7.01418e-06,0.000383711 -0.000977021,-0.000292081 -0.00015987,1.40513e-05 0.000286756,0.000215997 0.000566231,0.000209919 0.0002503,0.000224444 7.92411e-05,0.000207893 0.000239961,0.000274199 0.000392401,0.000117538 4.50329e-05,-3.83234e-05 -0.000109408,-7.12739e-05 0.000108206,-4.2493e-05 -0.000369054,-5.81462e-05 0.00039661,-4.50386e-05 0.00084036,0.00025806 -0.000146258,0.000273997 -0.00088261,4.39132e-05 -0.000252594,-6.73013e-05 -0.000107347,-6.31654e-05 8.12723e-05,-6.75389e-05 -0.000289548,-0.000105805 -0.000243691,2.74338e-05 0.000143779,-0.000134912 -0.000269206,-0.000143911 -0.000313591,-4.41901e-05 4.14891e-05,0.000187457 0.000372129,0.000255878 0.000351244,0.000429436 -9.17788e-05,8.03378e-06 -0.00023878,-0.000162239 0.000323195,0.000298749 -9.65267e-05,2.61356e-05 -2.45434e-05,-7.92471e-05 -0.000285732,-0.000118481 0.000126126,0.000157815 4.10445e-05,-4.18999e-05 0.00012606,0.000151494 0.000171429,-4.21474e-05 0.000392631,0.000326128 -0.000387115,-0.000365006 3.31048e-05,-4.54419e-05 6.01958e-05,8.79624e-05 4.71629e-05,-0.000210814 -0.000216765,-0.000135343 0.000403778,7.22883e-05 -1.08605e-05,9.40074e-05 -0.000114887,-2.87849e-05 -2.94837e-05,0.000107717 0.000105854,1.53197e-05 0.000271746,0.000384084 -0.000182524,0.000207494 -0.000171428,-0.000144772 -0.000381711,-0.000133887 -0.000281868,-0.000407474 -0.000241072,-5.09765e-06 -0.000128793,0.000151033 3.53156e-05,0.000164034 0.000135943,0.000339231 1.08517e-05,-9.49103e-05 6.18183e-05,5.45375e-05 7.20124e-05,-0.000102674 3.47513e-05,0.000297682 0.000240292,0.00039881 -0.000122551,-6.14277e-06 6.07643e-05,4.82257e-05 -0.000130906,4.44987e-05 -0.000215036,-6.49249e-05 -0.000415265,-0.000411716 6.58993e-05,-2.6768e-05 -0.000123932,-0.000137066 -0.000150301,-1.49288e-05 0.00020827,-1.44782e-05 0.000150285,0.000107034 9.26909e-05,-1.52653e-05 0.000319659,0.000431522 -0.00028891,-0.000513063 7.79611e-05,-7.00854e-06 -9.81484e-07,-9.29999e-05 -4.66661e-05,7.08453e-05 -0.000115214,-0.000434228 -7.54457e-05,0.000245377 0.000113019,0.000132647 -0.00040261,-5.51448e-05 -0.000176123,-0.000309078 -0.000110961,-0.000593194 -0.000260721,-0.000369737 -0.000670381,-0.000438368 -0.000642993,-0.000839543 0.000179129,0.000501392 1.61343e-05,0.000500118 -6.45703e-05,-3.46484e-05 -7.21659e-06,6.50793e-05 7.03173e-05,0.000111353 -8.81876e-05,6.75982e-05 0.00027222,-3.85167e-05 -0.000124128,-0.000156028 0.000300807,4.97249e-05 -1.14488e-05,0.00022585 -0.0001272,0.000114898 -0.000209759,6.05418e-05 -0.000115133,-5.22631e-05 7.94888e-05,-4.94617e-05 -0.000128399,1.13043e-06 1.62055e-05,0.000225607 0.00080189,0.000919413 -8.61271e-05,7.57074e-05 -0.000718445,-0.000124608 6.22105e-05,0.000279381 -4.52786e-05,0.00020267 0.00054377,0.000233603 -0.000312298,0.000266425 0.000172874,0.00037593 8.16103e-05,5.7976e-05 1.63893e-05,-0.000131982 7.80993e-05,0.000193456 0.000247407,0.000230794 -0.000154082,1.3574e-06 9.80136e-05,0.00011472 -0.000274849,-2.28628e-05 0.000111765,0.000107375 -5.89389e-05,3.1221e-05 3.9006e-05,4.57092e-05 -0.000218619,-0.000123591 -0.000318537,-4.41508e-05 -2.81124e-05,-4.30963e-05 0.000234694,-3.81865e-05 -0.000277699,-0.000105914 -0.000294334,0.000190414 -0.000284003,4.58435e-05 -5.01009e-05,-0.000255107 9.49434e-05,1.09034e-05 9.40539e-05,-0.000448714 -0.000267357,-0.000249583 -4.95888e-05,-0.000394173 -0.000201359,-0.00017341 0.000146723,-0.00070021 -0.000366873,-0.000320045 -3.30125e-05,-0.000133353 -9.39349e-05,-9.10677e-06 -2.32562e-05,0.00032438 5.27936e-05,-5.19352e-05 9.09842e-05,0.000385682 -0.000167487,0.000416852 4.00768e-05,-0.000133996 -9.41346e-05,6.58437e-05 -8.76497e-05,-0.000256583 -0.000282139,-0.000340658 -0.000148135,-0.000372538 7.20536e-05,-9.90601e-05 0.000204878,-5.50781e-05 5.36568e-05,-0.000345417 8.0249e-05,-7.11394e-05 8.52697e-06,-0.000316124 0.000144752,-0.000136723 1.84424e-05,-0.000124776 -0.000275602,-0.000470747 -0.000193243,-0.000153617 1.73601e-05,-0.000133796 -0.000138778,-0.000328374 -0.000335344,0.000422841 -0.000333334,0.000614258 -0.000331262,5.9799e-05 -0.000224585,0.000153676 -0.000252637,-7.18272e-05 -0.000212637,6.86888e-05 0.000694885,0.000703654 3.98289e-05,0.000218176 0.000180832,0.00010045 1.91168e-05,0.000127155 9.39069e-05,-8.75128e-05 -7.09246e-05,0.000206507 -8.45142e-05,4.13774e-05 3.76372e-05,-8.43094e-05 -9.97567e-05,8.76411e-07 -2.29648e-05,0.000164547 -2.76358e-05,-9.1863e-05 -0.000174641,1.8691e-05 -6.7431e-05,0.000257044 0.000429463,0.000636452 -4.42958e-05,0.000296572 0.000222555,0.000310481 -7.82003e-05,0.000266168 7.79041e-05,0.000457135 0.000182422,0.000439059 -0.000121175,3.08639e-05 -0.000380268,-0.000184482 -0.00012618,2.45865e-05 -2.43327e-05,0.000128439 0.000702719,0.000506727 6.68607e-05,-2.94836e-05 0.000348513,0.000452046 -3.47504e-05,7.70603e-05 0.000258033,0.000114218 0.000669067,3.02346e-05 0.000373983,-0.000131516 0.000236436,3.31358e-05 0.000576076,-7.64087e-05 0.000374328,8.88087e-05 -0.0004111,-1.62451e-05 -0.000395903,0.000113651 0.000880532,-5.65162e-05 -0.000830024,0.000162625 -0.000147207,9.15956e-05 -5.55568e-05,0.000164834 -0.000246306,-0.000126058 -6.97087e-05,0.000134257 -0.000410493,0.000135449 -0.000239683,0.000221537 -3.07233e-05,8.42489e-05 0.000198154,5.60487e-05 7.42516e-05,0.000109512 -0.000343844,-0.000101723 0.000338545,0.000161367 -0.00036111,-5.28092e-05 -5.54072e-05,8.5369e-05 3.13612e-06,0.000297961 0.00029075,0.000594323 -0.000174456,0.000318486 -0.000135607,-0.000307632 -0.000246897,-0.00018204 -8.65136e-05,-0.000336057 -0.000490305,-0.000408359 -0.00045654,0.00017197 -0.000277896,0.000251669 -0.000120333,1.7311e-05 -0.00013817,0.000199873 -2.16083e-05,0.000199752 -0.000108621,-0.00018416 5.08846e-05,0.00033005 -0.000144435,-0.000302138 -0.000345044,0.000160151 -4.25521e-05,0.000274885 -0.000189326,0.000220187 -3.18772e-05,0.000256731 -0.000116176,0.000131051 6.63116e-05,1.20599e-05 -0.000163597,0.000130564 9.71999e-05,0.000507534 -3.65969e-05,0.00018363 -6.28498e-05,-0.000340781 2.57421e-05,0.000381742 -0.000116492,-0.000369206 -0.000121681,-0.000110904 4.10302e-05,-4.37039e-05 -0.00037675,5.74855e-05 -0.000225726,0.000328865 -0.000112224,3.71042e-05 -4.80754e-05,-6.27881e-05 0.000167689,-0.000399693 0.000569791,-0.000206367 -1.6828e-05,-9.7376e-05 0.000173895,-0.000278746 9.18818e-06,-0.000253823 0.00016338,-0.000245243 -8.0745e-05,-0.000163637 -0.000722136,0.000279041 -0.000211291,9.98024e-06 -0.000127349,0.000290076 -0.000138075,2.10768e-05 -0.000129401,-9.36801e-05 0.000207558,1.0822e-05 0.000208877,-0.000334135 0.00071144,-0.000168781 -0.000756078,0.000151112 -0.000167683,0.000211869 5.65827e-05,-0.000256044 0.000176997,-7.7404e-05 0.000225413,1.78888e-05 0.000373633,-0.000165818 0.000195995,-0.000337635 0.000390765,-0.000227373 0.000353995,-0.000718282 0.000234426,-0.000252189 5.42385e-05,8.53084e-05 0.000147343,-0.000172864 -0.00016983,-8.70021e-05 -0.000369199,2.31079e-05 -8.71068e-05,-0.000205119 -0.000272096,-0.000136673 -0.000136782,0.000143874 1.13156e-05,0.00032498 -0.000249398,-0.000138679 -0.000157961,0.000102522 0.000189889,2.18118e-05 0.000111592,9.11264e-05 0.000160011,-1.40432e-06 5.03943e-05,-9.2548e-05 -7.7235e-05,0.000170441 -0.000138149,1.38544e-05 -0.000119873,-0.000127174 -0.000196557,1.72466e-06 -0.000374029,0.000221807 -0.000447819,-3.21926e-05 8.43972e-05,-0.000147026 -0.000151048,0.00010246 3.82584e-05,-0.000119531 0.00022927,-0.000178998 0.000228145,-3.80689e-06 -0.000109047,-3.69695e-05 0.000127989,-0.000134766 2.66569e-05,9.27749e-05 0.00011981,-6.69698e-05 5.68936e-05,-0.000226248 -6.74852e-05,-0.000124022 0.000188563,-0.000198508 8.85715e-06,-0.000285425 0.00024793,-0.000753469 -0.000294453,8.56592e-05 -0.000306675,0.000427099 -0.000212837,0.00014454 -0.00026638,3.12317e-05 -0.000221481,0.000168093 7.91456e-05,-0.000176778 -0.000150697,0.000135868 0.000338183,-0.000531218 4.20148e-05,-0.000326351 0.00027633,-0.000777195 -0.000130244,-0.000362766 -3.43905e-06,-0.000327758 0.000413125,-0.000919263 -0.000212882,-0.000142613 -0.000149328,0.000265888 -0.000192637,0.00103382 -0.000183755,0.000185823 -0.000211019,0.000411811 -0.000184571,0.000108171 -0.000127666,0.000448103 -4.79901e-06,0.000390137 -0.000288324,0.000482018 1.0401e-05,0.0002383 -0.000113433,-7.847e-05 1.01768e-05,0.000122719 -0.000215111,-7.21614e-05 -0.000279989,0.000240844 -2.94663e-05,0.000393062 2.32097e-05,4.67526e-05 5.20891e-05,-0.00040229 6.88186e-05,-3.13047e-05 -2.48053e-05,0.000460746 4.64075e-05,-9.61242e-05 1.51057e-05,0.000121772 -0.000146403,0.00054579 -0.000136848,-0.000238999 6.36235e-05,0.000226998 0.000141525,0.000119762 -0.000120503,1.05538e-06 -0.000139824,-0.000145964 -0.000256503,-0.000722861 0.000132336,-2.96464e-06 8.34e-05,0.000134719 -0.000173922,-0.000289243 7.46316e-05,-4.21913e-05 2.81445e-05,-0.000330744 0.000513546,-0.000764822 -4.47109e-05,-0.000307531 7.76325e-05,-0.000321244 -0.000481535,0.000237191 -5.23825e-05,-9.70652e-05 4.95048e-05,-0.000366148 0.000194731,-0.000269896 0.000415485,-0.000130059 0.000112958,3.33244e-05 0.000207121,-0.000218534 -0.000228558,-0.000507289 -0.000108887,7.22907e-05 -0.000254245,-3.66021e-05 -0.00014791,-0.000163953 1.89308e-05,-7.87266e-05 2.81285e-05,4.49036e-05 0.000182453,-0.000121697 0.000182638,-9.72666e-06 -0.00012658,8.05725e-05 0.000130054,-3.18411e-05 -9.5981e-06,-0.000350279 -0.000384212,3.3649e-06 -0.000121774,6.78882e-05 8.07107e-05,-0.000121708 0.000471889,-2.58047e-05 -0.000194231,-5.97026e-05 0.000199154,-3.60583e-05 5.60556e-05,-0.000117881 -8.66213e-05,-0.000536525 0.000739654,-0.000677408 -6.43227e-05,-0.000293814 0.000142777,-0.000325428 -9.95968e-06,-0.00038459 -0.000245211,-0.000211862 -0.000765724,-0.000114294 -0.000139492,7.34614e-05 -0.000323669,0.000407377 -0.000585127,0.000153213 -0.000127225,0.000490539 0.000121529,0.000663544 -2.55513e-05,0.000295504 -4.32074e-05,0.000118671 -0.00027677,0.000170379 -1.84116e-05,0.000128387 9.55555e-05,6.95979e-05 -0.000114062,4.97598e-05 -1.26035e-05,0.000400139 -2.32368e-05,-4.94616e-05 6.96682e-05,0.000427412 0.000155555,0.000139507 -5.85714e-05,0.000255158 4.10958e-05,-3.73825e-05 0.000155027,0.00027767 -0.000496856,9.4647e-05 2.61245e-05,-0.000146514 8.29101e-05,-6.14329e-06 -3.07179e-05,8.51506e-05 0.000199062,-4.50855e-05 -0.000188665,-9.40672e-05 0.000226618,3.95553e-05 -0.000138292,-9.45079e-05 5.28324e-06,-0.000250177 -0.000167606,-0.000158365 -9.49412e-05,-0.000388362 0.000126141,0.000726714 -5.68471e-05,0.00013685 -4.31705e-05,-6.64443e-05 -7.37716e-06,0.000144544 -0.000154509,-0.000889005 -0.000404577,3.96578e-05 -0.000278365,0.000112599 2.97119e-05,-8.69476e-05 -0.000139988,2.65076e-05 0.000136936,-0.000129423 -0.000202502,9.38759e-05 -9.12286e-05,0.00015521 4.99874e-05,0.000246082 -0.000117621,-7.09902e-06 5.35472e-05,0.000114213 -4.76645e-05,-2.39644e-05 -3.27036e-05,8.42647e-05 -3.95909e-05,-0.000196508 -6.1124e-05,1.13701e-05 -2.62468e-06,-0.000251011 6.90328e-05,0.000178191 2.25643e-05,-0.000298187 0.000833144,-0.000429887 -8.5648e-05,-0.00044443 7.13893e-05,-0.000351891 -0.000342709,-0.000467466 -8.18884e-05,-0.00102961 -0.000178669,-8.33203e-05 -8.06682e-05,3.1407e-05 -0.000382212,0.000477414 -0.000325628,-0.000156986 -1.45446e-05,-6.85009e-05 0.00018053,-0.000494615 0.00042961,-0.000478731 0.000597366,-0.000305017 0.000388858,-0.000407944 0.000501992,-0.000262648 8.74386e-05,-0.000233739 -2.49985e-05,-0.000312219 9.80755e-05,-0.000255504 3.45156e-05,-0.000477086 -0.00029913,-0.000268283 -0.000356441,-8.17647e-05 -0.000502695,0.000194928 -0.000205287,0.000298881 -4.74018e-05,0.000378771 -0.000365275,0.00096308 -0.00054875,0.000420173 -0.000384101,-8.15278e-05 -0.000185564,-0.000176271 -2.55176e-06,-0.000433418 -7.27499e-05,-6.16719e-05 0.000298972,-0.00021933 8.8708e-05,-0.000396288 -7.64633e-05,-0.000322606 -0.000228184,-0.000285162 1.13562e-05,-0.000236685 0.000136648,-0.000156509 0.000308744,-0.000134534 0.000139969,-0.000405766 0.000319096,-0.000466929 -9.63419e-05,-0.000145444 -9.03154e-05,5.31628e-05 -0.000410146,-0.00011742 -0.000601789,-0.000308991 -0.000284133,0.000221005 -0.000417137,0.000158955 -0.00023746,0.000339793 -0.000468742,0.000135925 -0.000245609,0.000316385 -7.80428e-05,-1.12576e-06 9.09846e-05,-8.38691e-05 -9.44937e-05,3.15256e-05 3.29961e-05,-5.62736e-05 -8.92814e-05,0.000152482 -5.84311e-05,-1.48418e-05 4.37755e-05,-6.44946e-05 -0.000257905,0.000179236 6.65994e-07,-0.000220338 -0.000187979,0.000349293 0.000173686,0.000174572 -0.000212693,-0.000126373 1.27635e-05,-0.00010215 0.000190603,-0.000381824 5.06617e-05,2.75516e-05 0.00014194,-0.000785944 0.000270776,-0.000554996 0.000180847,-0.000180371 -7.86632e-05,-6.07183e-05 -0.000265736,0.00028044 -0.000221483,7.23642e-05 7.5079e-05,1.15176e-06 -9.41626e-05,0.000157943 -0.000227278,8.50563e-05 -0.000461037,0.000401336 0.000100871,1.17635e-05 -0.000282314,0.000206537 -0.000238718,0.000314517 3.34388e-05,8.09789e-05 -0.000114397,1.725e-05 0.00046205,0.000548613 -6.37695e-06,0.000146342 0.00041083,0.00075133 0.000290895,0.000805651 5.42792e-05,-0.00047816 6.0764e-05,-4.56796e-05 0.000324008,2.59392e-06 0.000119313,0.000264442 -6.79765e-05,0.000206477 -0.000182079,-0.000126639 -0.000105763,8.76099e-05 9.72971e-05,-0.000141716 0.000174911,0.00010232 3.74099e-06,-0.000209529 -7.80074e-05,-9.2329e-05 -0.000246783,1.4793e-05 -2.08113e-05,0.000467033 -8.62458e-05,6.48647e-05 0.000116388,0.000362895 4.89365e-05,-0.000422128 1.79161e-05,0.000581376 0.000137323,2.41502e-06 -0.000196178,3.6927e-05 6.11593e-05,0.00074986 0.000223015,0.00054708 4.25133e-05,-0.000280301 6.20742e-05,7.98258e-05 1.62567e-05,0.000800819 -0.000118565,0.000943766 0.000144654,0.00061007 0.000249716,0.00045474 0.000239481,0.000798872 -8.51916e-05,0.000733979 -0.000261012,0.000356252 7.94351e-05,0.000228669 0.000501492,0.000253883 0.000295629,2.63163e-05 6.05266e-05,0.000120474 -0.000105167,0.000428939 -0.000139615,6.26223e-05 -0.000257335,-4.83227e-05 -0.000146699,4.64297e-05 0.000717246,0.000387449 -7.95223e-05,0.000141562 0.00023994,0.000274223 0.000886092,0.000474464 0.000133023,-3.1864e-05 -0.000295476,-0.000105779 0.000161667,-3.21141e-05 0.000382802,0.000143844 -0.000384488,7.289e-05 -4.32515e-06,5.87327e-05 0.000193548,-6.20581e-06 -5.46582e-05,0.000157599 8.90847e-05,1.72817e-05 -0.000168902,1.47558e-06 9.23546e-06,-6.14846e-05 -0.000380963,3.22235e-05 0.000133885,0.0007122 0.000205141,6.3224e-05 7.95606e-05,0.000145591 -6.97391e-05,0.000132447 -0.000190753,8.47421e-05 -8.89972e-05,0.000369201 0.000485171,1.38217e-05 0.000259877,-8.71527e-05 0.00018107,-0.00016051 0.000151956,7.81357e-05 -2.60835e-05,5.62139e-05 9.46722e-05,-1.52755e-05 -0.00057492,0.00056669 3.89586e-06,0.000278089 6.03094e-05,4.89099e-06 -0.000242709,0.000123122 0.000610241,0.000637602 0.000385527,2.55255e-05 -0.000125687,0.000261162 0.000179497,0.00016097 0.000438234,0.000153289 0.000175254,-5.57129e-05 3.55829e-05,-9.24171e-05 0.000228683,4.67611e-05 1.26699e-06,0.000120991 -0.000206872,0.000243813 -0.000108597,6.36804e-06 0.000100874,-0.00017787 -0.000273544,0.00019744 -0.000162943,5.03715e-06 0.000138504,0.000397011 -5.70923e-05,0.000396915 0.000109434,0.00035663 -0.000172482,3.76286e-05 -0.000450891,-0.000135119 -0.000117505,-0.000372814 -0.000147304,-0.000105266 -0.00028762,-0.000486911 -0.000285666,-0.000111282 -0.000809965,-0.000560008 0.000321645,0.00034033 0.000401524,0.000610531 0.000183501,0.000543807 3.9316e-05,0.000547776 -0.000185973,0.000542521 -0.000222155,0.000294512 -0.000165783,0.000395156 -4.19211e-05,-4.11717e-05 -2.77646e-05,0.000179036 -0.000355899,0.000163842 -0.000128589,0.000362322 4.32234e-05,0.000165774 -0.000259237,0.000527808 5.31318e-05,0.000546753 -0.000159408,0.000154901 -0.000143552,-2.94488e-05 -0.000199805,-0.00021317 -0.000153257,-0.000296652 -0.000454368,5.77032e-06 -0.000127211,-7.29362e-05 0.000124493,9.64379e-05 -0.000238266,-1.77877e-05 -0.000261359,0.000135923 0.00019431,-0.000218414 0.000811881,-0.000110025 -0.000956167,1.01472e-05 -0.000356224,0.000227953 0.00021948,1.61464e-05 -0.000187201,4.76851e-05 -7.46313e-05,-5.17233e-05 0.000172786,-0.00019836 0.000391899,-0.000122613 0.000644709,-3.63261e-05 4.17491e-05,-6.98952e-05 0.000145441,2.13058e-05 -0.000129314,0.00010407 0.000159702,-3.20956e-05 9.19314e-07,-0.000101144 -8.92409e-05,-3.17291e-05 0.000157552,-0.00023796 -8.55807e-06,-0.000251862 -5.19756e-05,3.65735e-05 7.48099e-05,-0.000309478 -7.51427e-05,-0.000195295 0.000151629,-4.82792e-05 -0.000121847,-3.23475e-05 0.000111417,-0.000209565 0.00015619,-8.44391e-05 -6.07075e-05,-4.2814e-05 0.000363989,-0.000145852 -0.000183493,-0.000354179 -5.86937e-05,-0.000701117 -0.000301151,-0.000458804 -0.000216156,-0.00017149 -0.000106031,-3.15828e-05 -0.000220487,7.59694e-05 -0.000645543,0.000428233 -0.000280678,-1.2001e-05 -0.000410554,0.000227522 -0.000187723,0.000186751 7.15837e-06,-7.13993e-05 -7.44119e-05,6.38583e-05 -4.49308e-05,-0.000140476 -0.000809797,-7.06048e-05 -8.22955e-05,0.000255362 -0.000117884,6.33333e-05 6.69993e-05,-0.000301282 -5.12043e-05,0.000205427 -2.79776e-05,-0.000220088 -0.00019684,-2.44735e-05 -0.000308337,0.00027268 -0.000332815,9.21689e-06 0.000266145,-0.000150408 7.72542e-05,-0.000170436 -3.65567e-05,-9.53998e-05 9.5146e-05,2.9874e-05 -1.26244e-05,-7.39361e-05 0.00136372,-0.00023943 0.000272849,-0.000170335 0.000415281,-0.000437059 -4.24468e-05,-9.17359e-05 0.000120526,7.5548e-07 1.77503e-05,-9.76786e-05 0.000270955,-0.000162193 -0.000512631,-8.85405e-05 0.00056802,4.66676e-07 4.33217e-05,8.08922e-05 0.000108813,-8.04127e-05 -0.000133886,-0.000145118 -0.000134174,0.000111336 -0.000230092,7.42374e-06 3.48153e-05,-7.16404e-05 0.000145991,-2.02356e-05 2.47209e-05,-9.23214e-05 -0.000430364,-0.000156983 -9.18155e-05,-8.94998e-05 0.000131851,-4.9911e-05 -0.000162557,-5.27633e-05 0.000410418,-5.05329e-05 0.000119433,-0.000103983 -1.9568e-05,-7.65843e-05 0.000186312,0.000151886 0.000226138,-0.000102205 -4.36655e-07,-0.000231164 -0.000149275,-0.000105252 -4.09421e-05,-0.000136899 0.000237642,-0.000135716 0.000279706,-0.000837713 0.000215047,-0.000407322 -0.000517062,0.000432531 -0.000189994,6.30605e-05 0.00030282,-0.000232002 -0.000225251,9.2264e-05 0.000141828,-0.000134881 0.000140033,-2.28931e-05 8.63544e-07,-0.000106561 -0.000566875,-0.000365287 -9.55035e-05,-0.000253813 9.45214e-05,-2.97199e-05 -5.48235e-05,4.74338e-05 5.18911e-05,0.000144931 7.76803e-05,-0.000223718 0.000211816,-0.000149035 -1.88416e-06,-0.000180583 -0.000174989,-1.38254e-05 -0.000377125,0.000116162 -0.000160738,-6.81302e-05 9.97885e-05,-9.29755e-05 2.13139e-05,-0.000229548 -0.000522358,0.000303444 -0.000174724,0.0002959 -1.69407e-05,0.000270144 6.96888e-05,0.000241397 0.00013484,-0.000142043 0.000252184,-6.72131e-05 -3.14484e-05,-7.91899e-05 -0.000362332,-0.000170219 5.82854e-05,-9.44197e-05 5.85589e-05,2.65799e-05 -6.08068e-05,4.20677e-05 0.00028605,0.000149212 0.000345482,-0.000119497 -4.45414e-05,8.61731e-05 -0.000237555,4.9026e-05 4.77607e-05,0.00012781 -5.17288e-05,6.00487e-05 0.000285531,-9.00791e-05 -0.000122686,7.60181e-05 5.76733e-06,7.94137e-05 -0.000302268,8.27788e-07 -0.000215242,0.000104817 -7.9035e-05,0.000567772 -0.000346915,0.000266697 -6.54915e-05,0.000350934 -0.000326692,0.00012204 4.67442e-05,3.0295e-05 -0.000146893,0.000217999 -0.000203515,0.000187789 -9.32306e-06,0.000242988 -7.00454e-05,-0.000275708 0.000168399,-0.000334673 0.000159151,-0.000179276 0.000300502,-7.57593e-05 7.66865e-05,-0.000224612 -0.000109885,-2.25212e-05 0.000119038,-0.000141904 -0.000197324,-7.14248e-05 -3.56061e-05,-0.000383465 -7.09577e-05,-7.88462e-05 -0.00036333,0.000113329 0.00026337,5.82085e-05 6.91515e-05,0.000379561 8.05532e-05,5.16727e-05 -6.28396e-05,3.66671e-05 0.000242873,8.18643e-05 -0.000288404,9.9132e-05 -9.58586e-06,-6.67385e-05 -0.000477115,0.000854778 -9.28439e-06,-0.00013266 0.000434867,-0.000737924 -0.000105228,-0.000428912 0.000114221,0.000154322 2.66786e-05,-9.41442e-05 -8.69591e-05,-0.000192485 -0.000164634,3.2135e-05 5.7609e-05,3.02006e-05 -0.000130693,6.61535e-05 -0.00032214,0.000559051 -4.06275e-06,-0.000200431 6.18798e-05,6.08655e-05 3.78739e-05,-0.000157452 -9.30928e-05,-2.2668e-05 0.000105557,-1.35605e-05 0.000162387,-0.000247932 -9.12778e-05,0.000151595 -0.000134277,6.58645e-06 0.000300417,-0.000273514 -0.000314339,7.49754e-05 -0.000212485,-0.000294335 0.000184621,0.000464342 -0.000115303,-6.85278e-05 -6.84063e-05,-0.000308231 -8.94328e-05,-5.0693e-05 0.000243819,0.000552321 -0.000131521,-1.33037e-05 -2.4507e-05,0.000207903 -0.000126348,0.000104041 0.000122776,-0.00044715 -0.000133202,-0.000364556 -0.000218084,-7.30521e-05 -0.000294933,0.000136209 -0.000524061,4.6094e-05 -0.000203449,9.92922e-05 0.000197016,-0.000147998 -0.000370746,0.000160344 2.41493e-05,0.000422394 4.79191e-05,4.83456e-05 5.11895e-06,-7.77025e-05 5.52166e-05,0.00018012 -0.000175771,0.000386205 0.000353143,0.000141411 5.21273e-06,-6.86733e-05 -0.000274442,-0.000172797 0.000128164,-2.45918e-05 0.000245899,0.000277793 -5.48259e-05,4.74326e-05 8.85987e-07,-0.000104756 -0.000131458,8.78306e-05 -0.000200409,-8.31403e-05 -0.000105155,0.000527363 0.000110684,9.92712e-05 9.56906e-05,-1.25706e-05 2.0003e-06,0.000192322 -0.0002154,9.03658e-05 -5.63735e-06,0.000122857 -0.00013365,6.70803e-05 -0.000128122,0.000218736 8.28053e-05,-0.000111788 -9.55107e-05,-6.50892e-05 9.69812e-05,-7.85006e-05 -6.90871e-05,6.01823e-06 6.7754e-05,-0.000134233 -0.000280712,-1.56214e-05 -0.000168853,0.000481863 -8.19916e-05,-9.50059e-05 8.30991e-05,0.00020155 -0.000121352,-8.02161e-05 1.07694e-05,-0.000294472 0.000135903,-0.000230542 -1.27024e-05,0.00010847 0.000100207,-5.32444e-05 -0.000202738,-0.000307065 0.000187651,0.000186194 -1.04181e-06,-0.000100224 -0.000106101,-0.000133625 -0.000186215,-4.80478e-05 -1.47764e-05,-9.10747e-05 0.000118843,-6.60481e-05 -0.000300838,-0.000526546 -0.000390991,1.87452e-05 0.000390184,-9.63962e-05 0.00033951,0.000540658 7.05746e-06,-8.13313e-05 -0.000338456,-0.000534346 -0.000182838,-8.34565e-06 -0.000280781,0.000167686 3.63564e-05,7.64395e-05 -0.00012537,8.31211e-06 6.80299e-05,-0.000202863 0.000161098,7.63173e-06 0.000288108,-0.000128018 0.000187914,0.000116661 7.10732e-05,0.000280216 0.00010214,0.000132757 1.12243e-05,-6.05985e-05 0.000331371,0.000707783 -0.000245155,-0.000301279 -0.000133432,-6.96815e-06 0.000190701,9.94797e-05 0.000101479,0.000259183 0.000230573,-5.61831e-05 9.36648e-05,-0.000302416 -6.81855e-05,9.26984e-05 -6.68089e-05,-5.99206e-05 0.000124893,-0.000149177 -0.000191702,8.92565e-05 -0.000101127,-3.52415e-05 -0.000391672,-0.000997122 -0.000374014,-0.000153875 0.000135666,0.000127048 -0.000195919,-0.000126525 -0.000192849,7.3914e-05 -0.000193124,-0.000142804 -0.000131027,0.000129363 -0.000154092,-0.000189196 0.000274635,-0.000378934 0.000318673,-0.000228516 9.59727e-05,-0.000365645 0.00043295,-0.00035322 0.000297152,-0.00049291 9.55825e-05,-0.00030785 2.16598e-05,0.000183121 2.43202e-05,-0.000131146 5.99303e-05,6.35925e-05 4.69325e-05,-4.64607e-05 -3.8855e-05,-0.000221801 -8.27558e-05,0.000116303 9.65178e-06,-0.000401919 4.70686e-05,0.000156713 8.96647e-05,-0.000306896 0.000450612,-0.000553842 -2.89626e-05,-0.00145539 -0.000200856,-0.000317014 -0.000339898,-0.00019932 -0.000313437,-0.000504765 -0.000225815,-5.76374e-05 -0.000202154,0.000128175 -3.24753e-05,0.000106836 0.00032563,0.000727701 -9.73706e-05,4.05774e-05 0.00011811,5.40576e-05 9.12761e-05,0.000608733 -0.00026945,0.000686814 3.68437e-06,-0.000215849 8.57842e-05,-0.000110008 -9.76998e-05,8.97524e-06 3.71327e-05,-0.000133966 -0.000240709,0.000220616 -0.000338982,-0.000110836 -1.64722e-05,-0.000254503 0.000133664,-6.5273e-05 -0.000113234,0.000130112 2.10671e-05,0.000126237 0.00032506,0.000101927 0.00036512,-0.000415841 -8.2625e-05,-0.000156405 7.69881e-05,-0.000100902 -0.000226719,-0.000429666 -0.00012916,-0.000452185 -0.000349198,4.63747e-05 -0.000155126,-0.00028942 0.000174392,0.000242297 0.000199282,-2.43045e-05 2.22857e-05,-0.00032708 -0.000253124,-2.39903e-05 0.000193853,2.36017e-05 0.000245769,-0.000303736 0.000224258,-9.22469e-05 -0.000448416,-0.000566804 -3.33128e-05,-0.000164057 -0.000729493,-0.000239287 -7.12566e-06,-0.000115522 4.63898e-05,9.17038e-05 -6.63838e-06,-6.85705e-05 9.51372e-05,2.98768e-05 -0.000425787,-0.000290686 -0.000257652,-7.99391e-05 -4.27601e-05,0.000162911 5.88827e-05,5.81846e-05 -0.000355344,0.000215286 -0.000135309,0.000287424 4.0945e-05,4.29892e-05 -0.00012407,0.000132914 2.08734e-05,0.000393528 0.000581017,0.00011416 8.23486e-05,-6.03121e-05 3.14271e-05,-0.000207963 -5.13901e-07,0.000140873 0.000260144,0.000414931 -0.00026554,0.000397817 0.000181262,0.000142908 -0.000141754,-0.000143251 4.60849e-05,-3.29077e-05 0.000267213,0.000334502 0.000160412,3.74376e-05 -0.000248607,-0.000350014 0.0001863,0.000247612 0.000399046,0.000187974 -0.000199574,-3.68643e-06 -1.58266e-05,0.000378495 5.20642e-05,6.72734e-05 0.000273115,4.63922e-05 -0.00129579,-7.5449e-05 -0.000155951,0.000107003 -2.56136e-05,0.00038761 -9.93237e-05,0.000138117 3.51047e-05,0.0002417 -0.000108312,3.34468e-05 -0.000247441,-0.000142336 -0.00020641,-0.000281754 -0.000173014,-0.00010957 5.28094e-06,-0.000252886 -0.000187646,-0.000187102 -3.35814e-05,-0.000190242 -0.00013042,-9.82006e-05 -0.000287359,8.80936e-06 0.000115963,-0.00043896 -0.000454722,0.00015835 -9.80228e-05,7.30886e-05 6.40926e-05,8.43274e-05 -0.000279594,9.09141e-05 0.000129074,0.000254432 0.000111338,0.000640168 0.00024152,0.000333826 6.40726e-06,0.000141716 0.000165947,-5.33804e-07 1.58864e-05,0.000198523 -4.76446e-05,-2.21625e-05 -5.18964e-05,0.000139512 3.56783e-05,0.000201963 0.000114576,-9.92114e-07 0.000120401,-0.000201509 8.70695e-05,1.3694e-05 -0.000167774,0.000205531 -0.000153692,3.92569e-05 -8.04471e-05,0.000148789 -0.000169163,-2.38195e-05 -0.000113622,9.30897e-05 -0.000393509,-3.45203e-05 -6.36006e-05,0.000154061 0.000141389,0.00010804 -8.60694e-05,8.2918e-05 0.000332446,0.000242739 8.89109e-05,0.000382103 0.00012025,0.000165111 0.000446804,-0.000160991 0.000141608,-0.000252261 0.000165116,-8.08943e-05 9.71914e-05,-0.000153449 -0.000325083,0.000467862 -0.00031551,0.000152631 -1.00231e-05,8.13569e-05 0.000346037,-0.000161925 0.00040354,-0.000522721 -0.000324521,0.000522037 -0.000302613,0.000157937 0.000105336,6.04919e-05 -0.000197024,5.22742e-05 0.000115634,0.000291571 0.000217794,0.000140788 0.000127932,0.000620157 -5.37144e-05,0.000535945 -2.87141e-05,-0.000292324 -5.83858e-05,0.000275921 0.000525549,0.000573368 0.000436756,1.24688e-05 8.41891e-05,0.00011666 8.064e-05,-3.50131e-05 7.39663e-05,0.000273871 0.000275809,1.92805e-05 0.00015612,0.000289412 0.000204311,-0.000111938 -0.000188298,0.000322198 6.50569e-06,-0.000134604 -0.000121978,-0.000140713 -0.000128769,6.16177e-05 0.00015816,0.000105183 -3.29466e-05,6.16898e-05 -0.000253504,-5.92058e-05 -0.000123718,7.24097e-05 -0.000183612,-0.000178105 -0.000309848,3.24846e-05 -0.000996961,-0.000497947 0.000152805,0.000446565 0.000365611,0.000200911 0.000291498,0.000293659 0.000241712,-3.00877e-05 -0.000444868,0.000348801 -0.000316773,-0.000158893 -9.99285e-05,8.03296e-05 -4.91658e-06,0.0002881 -0.000131276,0.000296418 5.58767e-05,5.36961e-05 -5.46227e-05,6.72951e-05 9.25366e-05,6.42146e-05 -8.53508e-06,0.000224921 -8.60154e-05,-0.000102197 -8.05763e-05,4.13328e-05 -0.000186894,0.000458537 9.58361e-05,0.000287227 -9.81116e-06,-0.000184127 0.000116157,0.0001509 z "/>
</g></g></svg>