<?xml version="1.0" encoding="UTF-8" standalone="no"?>
<!DOCTYPE svg PUBLIC "-//W3C//DTD SVG 1.1//EN" "http://www.w3.org/Graphics/SVG/1.1/DTD/svg11-flat.dtd"
[
<!ATTLIST g xmlns:fme CDATA #FIXED "http://www.safe.com/fme" >
<!ATTLIST path fme:district_id CDATA #IMPLIED fme:precinct_id CDATA #IMPLIED fme:id CDATA #IMPLIED >
<!ATTLIST ellipse fme:district_id CDATA #IMPLIED fme:precinct_id CDATA #IMPLIED fme:id CDATA #IMPLIED >
<!ATTLIST text fme:district_id CDATA #IMPLIED fme:precinct_id CDATA #IMPLIED fme:id CDATA #IMPLIED >
<!ATTLIST use fme:district_id CDATA #IMPLIED fme:precinct_id CDATA #IMPLIED fme:id CDATA #IMPLIED >
]>
<svg xmlns="http://www.w3.org/2000/svg"  viewBox="-0.00016017 -0.00016017 0.0131339 0.0287618"><g xmlns:fme="http://www.safe.com/fme" fill="none" stroke="black" stroke-width="0.000001601695884" transform="translate(0,0.0284415) scale(1, -1)">
<g id="2" >
<path d="M 0.0116787,0.00721429 l -0.000923164,-0.00402958 -0.000133185,-0.000434125 -0.000373989,-0.000727052 -0.000818275,-0.000941908 -0.000689792,-0.000497458 -0.00037965,-0.000202827 -0.00136454,-0.000381347 -0.00131117,0.000470328 -0.00135219,0.000870196 -0.000516596,0.000515432 -0.00381617,0.00265339 0.0013564,8.88567e-05 0.00294514,0.0117468 0.00158528,0.00753696 -0.000127054,0.0022345 -0.00129527,0.00232505 0.00178953,-0.0008444 0.00122251,-0.000734243 0.00134581,-0.000523655 0.00142618,-0.000296367 0.000729077,-5.97047e-05 0.00163331,2.59228e-05 0.000202654,-0.00016225 -2.07372e-05,-0.00116993 -0.000307225,-0.00156055 -0.000691567,-0.00152477 -0.000647529,-0.00175297 -0.000403925,-0.00214302 -2.33391e-05,-0.00116822 0.000717584,-0.00366268 0.000237799,-0.00198608 1.47792e-05,-0.00112394 -0.000133321,-0.00162677 0.000122623,-0.000913565 z "/>
</g></g></svg>