<?xml version="1.0" encoding="UTF-8" standalone="no"?>
<!DOCTYPE svg PUBLIC "-//W3C//DTD SVG 1.1//EN" "http://www.w3.org/Graphics/SVG/1.1/DTD/svg11-flat.dtd"
[
<!ATTLIST g xmlns:fme CDATA #FIXED "http://www.safe.com/fme" >
<!ATTLIST path fme:district_id CDATA #IMPLIED fme:precinct_id CDATA #IMPLIED fme:id CDATA #IMPLIED >
<!ATTLIST ellipse fme:district_id CDATA #IMPLIED fme:precinct_id CDATA #IMPLIED fme:id CDATA #IMPLIED >
<!ATTLIST text fme:district_id CDATA #IMPLIED fme:precinct_id CDATA #IMPLIED fme:id CDATA #IMPLIED >
<!ATTLIST use fme:district_id CDATA #IMPLIED fme:precinct_id CDATA #IMPLIED fme:id CDATA #IMPLIED >
]>
<svg xmlns="http://www.w3.org/2000/svg"  viewBox="-0.000689594 -0.000689594 0.0565467 0.0685726"><g xmlns:fme="http://www.safe.com/fme" fill="none" stroke="black" stroke-width="0.000006895936153" transform="translate(0,0.0671934) scale(1, -1)">
<g id="20" >
<path d="M 0.0401638,0.0145474 l 0.00018582,6.78062e-06 0.000106267,-0.000135665 0.000205201,-2.79535e-05 0.000314304,-0.000177889 0.000471335,-0.000470008 0.000639961,-0.000212301 8.82478e-06,8.93211e-05 -0.000142137,1.20609e-05 0.000109109,4.24038e-05 0.000485922,-0.000204655 0.000231302,1.24537e-05 0.000189319,-0.000322198 -1.80139e-05,7.32985e-05 0.000856327,-0.000306281 -0.000115699,-0.000297895 -0.000761093,0.000152852 -0.000477456,-0.00012411 -7.78897e-05,0.000110838 -4.74057e-05,-0.000190125 -0.000417709,-0.00027001 0.000165694,-2.67119e-05 0.000228951,7.20729e-05 -0.000158201,-0.000108803 -0.000166066,-9.40489e-06 7.93805e-05,-6.20882e-05 0.000423068,0.000119162 0.000242632,-3.82119e-05 0.000333372,-0.000243976 0.000415509,-0.000134519 -0.000122276,-0.000169612 -2.22454e-05,-0.000240909 0.000468896,-0.000130466 0.000310712,-0.00033318 -5.13189e-05,-0.000951321 -0.00020949,-5.41615e-06 -1.36149e-06,-0.000131826 0.000419805,-0.000291681 0.000193847,-0.000361068 -0.000300789,-0.000428135 -0.000166864,-8.70541e-05 -0.000429397,-0.000828863 -0.000174597,-7.0735e-05 -0.000221171,0.000202375 -9.22187e-05,-0.000129237 -1.48728e-05,-0.000101009 8.50338e-05,7.39372e-06 2.58038e-05,0.000107236 0.000292143,-0.000121717 1.81711e-05,-0.000153667 -0.000626106,-0.00112877 -0.000121765,-0.000503728 -0.000250268,-0.000511651 -7.52917e-05,-0.000403896 -0.00049442,-0.000430987 1.35083e-05,0.000352055 -0.000297969,0.000610287 0.000135741,0.00109327 0.000224844,0.000728592 0.000175527,0.000161028 0.000296877,4.98155e-05 -0.000339985,-1.513e-05 -6.65923e-05,5.65599e-05 -0.0003302,-0.000119963 -9.51266e-05,6.76416e-05 -8.89429e-05,0.000380028 0.000125258,0.000459452 -1.91436e-05,0.0002512 0.000456232,-1.65728e-05 0.00013954,0.0001198 -3.17225e-05,0.000180874 -0.000485624,-5.54138e-05 -0.000271988,-0.000126786 0.000353375,0.000546884 6.09991e-05,0.000263151 0.000439257,-0.000130205 5.57082e-05,3.74459e-05 1.1332e-05,-5.06658e-05 0.000178867,0.0001014 -5.70325e-05,0.000217212 -3.40511e-05,-4.48566e-05 -0.000111706,8.8554e-05 3.39669e-05,0.000132449 -9.2043e-05,-1.63637e-05 5.50838e-05,7.26684e-05 -0.000186602,1.06383e-05 -0.000134231,0.000203429 -0.000204009,-0.000144528 0.000117084,-4.61589e-05 1.25722e-05,-0.000122014 -5.43209e-05,9.70893e-05 -1.8991e-05,-0.000117227 -5.27922e-05,5.3732e-05 -5.3863e-05,-5.01041e-05 -5.16565e-05,0.000163888 0.000214184,0.000269055 0.000106497,-1.89777e-05 0.000133408,0.000291423 0.000309353,-8.21305e-05 0.000144947,6.91846e-05 -0.000110859,0.00017072 0.00010412,0.000325086 -0.000211813,0.000152627 -6.05189e-05,0.000262392 -1.29996e-05,-0.000110957 -7.69567e-05,9.69332e-06 2.53004e-05,0.000154195 -0.000340664,-0.000367295 -7.34531e-05,6.2037e-05 5.87282e-05,4.28381e-05 -0.000225933,0.000220473 -0.000211412,1.52201e-08 -5.70936e-05,-0.000363418 0.00017577,-0.000390708 -0.00017063,-6.89644e-05 -0.000104185,-0.000139971 -3.36737e-05,-0.000391613 -0.000474505,0.000161208 -0.000257124,0.000261375 -4.32759e-05,-7.72857e-05 -8.61927e-05,7.2079e-05 0.000222327,0.000292465 -0.000112119,0.000624037 7.27603e-05,0.000158302 1.10817e-05,-7.50446e-05 4.19164e-05,4.11773e-05 3.07477e-05,0.000299532 9.62102e-06,-0.000216803 5.04671e-05,0.00029575 -0.000147198,0.000671295 4.54527e-05,-0.000190925 5.72131e-05,0.000375156 -2.79889e-06,-0.000367498 0.000140048,0.000552334 -0.000177145,0.000353696 -8.8626e-05,2.7853e-05 3.44084e-05,-0.000112268 -8.68736e-05,6.16585e-06 -6.41126e-05,-0.000181855 -0.000326371,-0.000226554 0.000156377,-6.81679e-05 -0.000112464,1.54159e-05 -9.36744e-05,-7.86581e-05 4.30202e-05,-0.000139433 -0.000206954,-0.000238418 6.89619e-05,-1.86534e-05 0.000114261,-0.000416364 -5.48468e-05,-0.000241533 5.8421e-05,1.30423e-05 1.2968e-06,-6.59303e-05 -7.8726e-05,-6.61448e-05 -8.94919e-05,3.95991e-05 3.42439e-05,0.000159537 -0.000130395,9.68401e-05 4.04899e-06,0.000201335 -9.81247e-05,0.000160676 6.05177e-05,2.47634e-05 -0.000314566,0.000344041 3.72536e-05,0.000164026 -0.00037737,1.43939e-06 -7.20568e-06,6.77871e-05 0.000203311,0.000172531 -0.000222408,-0.000108254 7.4382e-05,0.000123975 0.000107569,8.48602e-05 0.000170358,-0.000149558 -1.80184e-05,0.000169016 -0.000172127,7.37205e-05 -0.000291597,-1.55527e-05 0.000133472,-8.60298e-05 -4.58306e-05,-3.7532e-05 -0.000159899,1.40168e-05 -0.000121387,0.000108501 -0.000127177,-7.0244e-05 -0.00025762,2.20803e-05 0.000210768,-0.000158934 -0.000120627,-9.79925e-06 3.11648e-05,-4.3612e-05 0.000161521,-4.83444e-05 0.000191355,-0.000413414 0.000170832,-0.000103508 6.84008e-05,-0.000265168 0.000211456,-0.000187837 0.000132843,-0.000338865 0.000204426,-0.000102895 1.04594e-05,-0.00013554 8.43388e-05,-6.03237e-05 0.000277598,-9.63005e-05 -0.00011752,-0.000475774 -0.000236534,-4.13093e-05 -6.76014e-05,5.47616e-05 -2.85426e-05,0.000298236 -0.000261296,0.000336358 -5.45427e-05,0.000267758 -0.00123619,0.000737543 0.000168392,-0.000629034 0.000130529,-0.000179916 0.000499714,-0.000208373 0.000251945,-0.000477145 -0.000239054,-0.000190284 -6.37444e-05,4.56981e-05 -0.000426222,-4.239e-05 -0.000105665,-9.21013e-05 8.35219e-05,-0.00013978 0.000227668,-0.000148243 7.23146e-05,1.92445e-05 -4.97747e-05,5.9123e-05 0.000400922,-1.60883e-05 2.70827e-05,-5.6219e-05 0.000287599,0.000107693 0.000304288,-0.000190441 0.000527867,-0.000159858 0.000138394,-0.000375034 0.000183996,-0.000167736 -0.000193903,-0.000218664 -0.000294479,8.7416e-05 0.000169216,-0.000163996 -0.000178646,0.000111703 2.52226e-05,-0.000236804 -0.000179292,-0.000142938 -0.000377696,6.46527e-05 -0.000219924,-5.95131e-05 0.000411602,-0.000225678 0.000436858,-0.000363153 6.73879e-05,-0.000555024 -0.000107441,-0.00016884 9.52691e-06,-0.000130114 0.000187177,-0.000434149 -0.00011198,-0.000129972 -0.000383744,-4.3655e-05 -0.000271223,-0.00024509 -0.00034246,-6.38777e-05 -0.000464958,3.19896e-05 -0.000239565,0.000239548 -0.0003234,0.00102137 -0.000287905,0.000246284 -0.000139355,0.00047437 -5.337e-05,-0.00019459 -7.43302e-05,7.28785e-05 0.000139308,0.000193852 -0.00013198,-5.75618e-05 -6.32984e-05,-0.000103302 3.61765e-05,-0.00022877 -8.21684e-05,-0.000113073 0.00013701,-0.000318131 -0.000118046,-0.000528146 -0.000261278,-0.000431199 -0.000133291,-8.91562e-05 -0.000169955,-3.95935e-06 0.0001743,-5.38702e-05 -0.000137075,-7.28698e-05 0.000223615,-6.15175e-05 0.000284118,-0.000614675 -0.000307292,-0.000391072 0.000312057,-0.000298864 0.000103248,4.96817e-05 0.000187176,-5.03694e-05 0.00024785,-0.000298314 -7.39117e-05,-7.88295e-05 -3.82487e-05,0.000123137 -0.000322244,0.000172532 0.00026557,-0.000208165 1.46763e-05,-0.000206011 -0.000180081,-0.000220592 -0.000461408,-0.000200118 0.000420784,9.2106e-05 -7.9949e-05,-8.96139e-05 -0.000265519,-7.53789e-05 -0.000199482,-0.000186113 7.53946e-05,0.000223298 -0.000106502,-0.000174269 -0.000287824,-0.000131175 -0.000100845,0.000184175 -7.33314e-05,0.00113209 -0.000143613,0.000252267 2.71265e-05,0.000525315 -0.000224961,0.00118125 -0.000450165,0.00118499 -0.000115799,0.000845301 -0.000161828,0.000403224 0.000284409,8.60556e-05 -0.000199951,5.77008e-05 0.000261807,1.36699e-06 -0.000233258,8.50766e-05 3.1617e-06,0.000115557 6.78922e-05,0.000262192 0.000121876,0.000131696 0.000182987,0.000695549 0.000189336,0.00015911 -0.000226429,7.68915e-05 -0.000129912,0.00024041 0.000172493,5.81188e-05 0.000719608,-0.000152461 0.000156447,3.47774e-05 0.00011142,0.000171517 -5.88565e-05,0.000136859 -0.000378267,-8.61509e-05 -0.000197036,5.31618e-05 -0.000216896,0.000235739 -8.44937e-05,-5.07464e-05 6.56096e-05,-5.6549e-05 -0.000487239,-1.92992e-05 0.000310681,0.000335059 0.000767756,0.000591201 0.000537701,0.000122708 4.85954e-05,0.000306604 0.000161612,0.000248744 0.000202016,0.000142745 0.000255475,5.74037e-05 0.000274757,0.000299242 0.000234434,2.86875e-05 4.48648e-05,-5.63717e-05 0.000155676,5.55511e-05 5.13159e-05,9.05373e-05 -0.000154241,0.000276063 9.91436e-05,0.000130083 -0.000341061,7.42684e-05 5.29436e-05,0.000248774 -7.05991e-05,0.000147796 -0.00029482,-0.000424587 0.000252014,0.000489068 -0.00043615,-0.000333976 0.00015455,4.20164e-05 -1.76847e-05,-8.65363e-05 -0.000302778,-0.00014188 -9.77264e-05,0.000103782 3.41134e-05,0.000339236 -9.08794e-05,-0.000287277 -3.81959e-05,0.000128554 -0.000126361,9.21212e-06 -0.000156723,-0.00063798 -0.000359946,-0.00022537 0.000285116,0.000346112 8.98228e-05,0.000761363 5.22674e-05,-0.000105197 1.99435e-05,0.000210228 0.000114739,1.34628e-05 4.47116e-05,0.000505297 -0.000209266,0.000401827 9.5778e-05,0.000379342 -5.52501e-05,0.000103417 -0.000186479,-7.2445e-05 -0.000147798,0.000230631 6.59512e-05,0.000264916 -0.000310384,0.00036838 -0.000100698,7.18529e-06 8.06482e-05,6.0712e-05 -9.96449e-05,1.34973e-05 -0.000145398,-0.000112531 -9.54052e-05,-0.000343225 -0.00019347,0.000497408 -6.66839e-06,-0.000264523 -4.9653e-05,-2.48581e-05 -6.39846e-05,0.000118842 -4.95492e-05,-0.000399605 0.000108698,-9.39417e-05 -0.000558811,-6.02232e-05 0.00013525,-0.000105908 -0.000147679,5.00286e-05 -0.000217996,0.000225814 5.24144e-05,-0.000187371 -0.000198068,0.000338518 -0.000211425,0.000192346 3.98322e-05,-0.000161979 0.000421143,-0.00055083 0.000199622,5.51226e-06 0.00023603,-0.000104967 0.000470112,-0.000399548 6.55819e-05,-0.00130992 -8.82659e-05,-0.000129275 -1.05053e-05,0.000227647 -7.66813e-05,3.6778e-05 6.48964e-05,6.62654e-05 -0.000178277,-4.36207e-05 -0.000127798,-0.000130742 -0.000262698,-0.000568445 1.95638e-05,-0.00021147 -4.07294e-05,7.43955e-05 -9.48201e-05,-0.000382963 -0.0010488,-0.000734182 2.98412e-05,0.000405193 0.000264843,0.000585586 -5.57449e-05,0.000536862 0.000175164,0.000318162 7.96949e-05,6.43331e-05 1.32555e-05,-5.60998e-05 0.000393049,0.000370474 6.9943e-05,0.000461738 -0.000105437,0.000122809 -3.57535e-05,-0.000403336 -0.000280798,-0.000214313 0.000261514,0.000260532 -2.1002e-06,0.000372958 -8.47347e-05,-0.000266562 -0.000302907,-0.000154526 -0.000232537,0.000445367 -0.000175536,-0.000354279 5.79131e-05,-0.000325577 -0.000106895,-0.000115571 -3.55621e-05,-0.000288656 -0.000309275,-0.000486778 -1.69798e-05,0.000271046 0.000249903,0.000477354 0.000106878,0.000788309 -0.000154752,0.000323698 -0.000212193,0.000117402 0.000157996,-0.000200014 2.87348e-05,-0.000184459 -0.000185496,0.000312222 2.86251e-05,-0.000484255 -0.000163291,-0.000316458 -2.13728e-05,-0.000350182 -0.000198914,-0.000225853 0.000114831,2.24947e-05 -0.000180531,-0.000552898 -0.000188787,-0.000298181 -0.000374159,0.000122399 -0.00011964,0.000472392 -0.000478186,0.000383353 0.000147607,0.000135994 2.74781e-05,0.000174948 0.000231759,5.67121e-05 3.29303e-05,-6.43951e-05 3.31467e-05,0.000149615 8.70052e-05,6.4794e-06 2.49072e-05,-7.60655e-05 0.00020005,0.000240293 7.49888e-05,0.000183571 -7.64942e-06,0.000603272 -0.000158831,0.00011875 -0.000248244,-0.000701315 -0.00025667,-0.000173889 8.40585e-05,-8.83106e-05 -0.000290827,-3.63409e-05 -4.44563e-05,-0.000192862 -0.000173062,-0.000209822 3.60354e-05,0.000817813 -0.000180393,0.000521673 0.000457997,0.000442166 -0.00012806,0.000132934 -0.000383366,-3.9448e-06 -1.62725e-05,0.000340571 6.40649e-05,8.16254e-05 0.000606167,0.000150131 8.98369e-05,0.000282774 0.000342304,4.58325e-05 -4.32485e-05,-0.0001712 0.000215277,0.000183273 -6.18986e-05,0.000226281 -0.000142039,0.000118606 8.61952e-06,0.0002627 0.000286286,0.000170926 9.02096e-05,0.000318891 -5.84586e-05,7.99648e-05 -0.000120707,-1.70266e-05 -0.000564022,-0.000278715 2.82046e-05,-4.35855e-05 -0.000662239,-0.000608376 -9.79428e-06,0.000104832 0.000321018,0.000282603 0.000111774,0.000302453 0.000155081,9.34883e-05 5.88104e-05,-4.56534e-05 0.000140255,0.000189333 4.71392e-06,0.000267249 -0.000101741,9.83951e-05 8.69432e-05,1.58913e-07 -0.000163878,1.22385e-05 -0.000291209,-0.0002657 -0.000227639,-3.95907e-05 -0.000238571,-0.00014244 -4.51491e-05,-0.00016396 -0.000268318,-0.000153022 -0.000346612,-0.000659841 -0.000154783,-6.45963e-05 -2.89055e-05,0.000264827 0.000101735,0.000287189 0.000417463,0.000535524 0.000223836,0.000150694 0.00024153,0.000431376 -0.000155974,0.000108791 -0.000238681,3.99673e-05 4.15201e-05,9.89753e-05 -0.000105953,7.31462e-05 -0.000190286,-0.000154593 -0.000208333,0.000109238 -0.000272826,-0.000497029 -6.81629e-05,0.000290447 -0.000125,0.00014284 0.000143412,0.000304893 -8.25381e-05,0.000430535 0.000470223,0.00038066 0.000432073,0.000128144 0.000296512,0.000300873 -8.9133e-05,-2.09097e-05 2.54001e-05,6.8411e-05 -0.000107496,1.89794e-05 -0.000840409,3.60813e-05 -6.35495e-05,0.00151398 -0.000102956,-0.00011651 3.17431e-05,0.000108992 -0.000110203,-5.23354e-05 -0.000122493,-0.000287914 -0.000241254,-0.000211048 -0.00046611,0.000215284 -0.000277217,0.000233536 0.000401971,-0.000400754 -0.000452963,0.000341591 0.00025552,-0.00032636 2.87702e-05,-0.000278371 0.000132556,-0.000177218 -5.05026e-05,-0.000301172 -0.0010686,3.98241e-05 0.000291724,-0.000650846 -1.12543e-06,-0.000110157 -0.000230168,-0.000286997 0.000203369,-0.000111902 4.02103e-05,-0.000222482 -0.000173978,-0.000202594 -0.000345502,-0.000165011 0.000129482,-0.000284648 3.31617e-05,0.000151422 0.00031668,-0.000141765 0.000100012,-0.000461385 0.000117033,-0.000149092 -0.000190596,-8.86737e-05 -0.000391331,-9.3029e-06 -0.000422567,0.000124607 -7.24875e-05,0.000157741 -0.000371774,0.000261429 0.000142053,-2.10773e-05 -2.11437e-05,5.79725e-05 -0.000252494,4.18849e-05 9.26847e-05,7.86742e-05 -9.78162e-05,0.000289795 -0.00031181,0.000232021 -0.000146208,1.24607e-06 0.000298231,-0.000304145 -9.7746e-05,6.25118e-06 -2.24197e-05,0.000126612 -0.000127616,8.0552e-05 7.23808e-05,-0.000265197 -0.000104422,-0.000357603 0.000174698,7.97815e-05 -2.26732e-05,-9.19132e-05 0.000359194,-0.00042928 2.88756e-05,-0.000268438 0.000577639,-0.00032188 -0.000378108,-6.90159e-05 -0.000345504,0.000221473 -0.000283663,8.54942e-05 0.000605163,-0.000335658 -0.000449434,0.000202492 -7.87243e-05,-6.61513e-05 0.000114594,-9.76733e-07 0.000744205,-0.000457847 0.000567853,7.46203e-05 0.000561199,-0.000286527 -2.13897e-05,-0.000256271 0.000159528,-5.1027e-05 -5.2234e-05,-0.000470922 0.000368533,-0.000674078 0.000462856,-0.000531307 9.0126e-05,-0.000268059 -8.71061e-05,-0.000789384 -0.000189953,-0.000219614 -0.00032178,2.80318e-05 0.000369844,-0.000158475 -6.83827e-05,-0.00011771 0.000388584,-0.000354588 0.000986995,-0.00115344 -0.000323151,-9.87989e-06 -0.000411862,0.000106462 -0.000751636,0.000790228 -0.000759628,0.000492301 -0.000392562,0.000642677 -0.000419743,0.000496621 -0.000191857,0.000561499 -0.000100217,0.00102215 -0.000612114,0.000621971 -0.000262998,7.71908e-05 0.000256278,-0.000154792 0.000317135,-0.000484005 -0.000409995,0.000484796 -0.000198887,6.67113e-05 0.000389684,-0.000442181 5.68001e-05,-0.000533257 -0.000103445,-0.000165271 -0.000373848,5.73663e-05 -0.000147632,0.000248681 -0.000266306,0.00023705 -0.000211404,1.80068e-06 1.78548e-05,-0.000283696 0.000145881,-0.000323615 0.000148259,-0.000187282 0.000198572,-9.74102e-05 7.15178e-05,-0.000155926 -0.000148417,-0.000409603 -0.000219102,2.17326e-05 -0.000205563,0.000186867 -0.000344932,8.33047e-05 -0.000207273,0.000213068 -0.000238713,3.63462e-05 -3.68928e-05,0.00025767 0.000229272,0.000394468 3.85561e-05,0.000487294 -7.70123e-05,0.00039256 5.88459e-05,5.45823e-05 -0.000171868,-9.33524e-05 6.42912e-05,0.000104201 -0.000156103,-4.7724e-07 -6.12554e-05,0.000193764 -0.000105881,8.03656e-05 4.99418e-05,-0.000334537 0.000161239,-7.72248e-05 -1.22154e-05,-0.000229259 -1.80279e-05,0.000169918 -0.000145065,0.000113207 -9.46667e-05,0.000405352 0.000204519,0.000485882 -0.00011159,0.000392854 7.28289e-05,-0.000318478 -0.000264509,-0.000555806 7.95435e-05,-0.000144255 -1.06255e-05,-0.000267199 0.000144522,-0.00016648 7.62149e-05,-0.000276968 -0.000107049,-0.00051922 -0.000112374,-7.21871e-05 -8.79821e-05,-0.00029634 0.00019098,-0.000454934 -0.000688997,0.000349004 -0.000397805,0.000615621 -4.76107e-05,-1.85583e-05 0.000224316,0.00049023 -0.000134809,0.000538434 7.07681e-06,0.000501108 -0.000173913,-0.000197182 -2.34196e-05,0.000125717 0.000383303,0.000288411 7.55119e-05,0.000235945 -7.47764e-05,-0.000163711 -0.000272261,-0.000153001 -4.04527e-05,-9.17625e-05 -0.000245638,0.000521316 -8.84989e-06,0.000295358 -0.000214524,0.000278143 -0.000120284,2.45005e-05 -5.56533e-05,0.000162111 -3.49111e-05,-0.000129736 0.000306118,-0.000403536 0.000270469,-0.000799653 -0.000248313,0.000452711 -4.83656e-05,0.000295694 -0.000319223,0.000474985 0.000502382,-0.00131092 -3.98914e-05,-0.000424976 0.000114098,-0.000632171 -0.000163348,-3.29255e-05 -0.000104995,0.00026457 -0.00058592,0.000188289 -0.000351223,0.000339805 -0.000202607,-7.30926e-06 -0.000138043,0.000123981 -5.97867e-05,-5.00606e-05 -0.000181837,0.000189369 -4.27481e-05,-0.000123349 0.000331923,-0.000392014 0.000297182,-0.000116303 0.000187707,-0.000194838 0.000300691,-0.000159678 0.000137388,6.05659e-06 8.30607e-05,-0.00028425 0.00032948,-0.000243 8.30363e-05,-0.000189434 -1.65703e-07,0.000177893 8.06927e-05,-3.13882e-05 5.72045e-05,-0.000203663 -0.000397131,2.47288e-06 0.000378968,-0.000136866 0.000108348,-0.000129148 -0.000128289,0.000111257 -0.000497053,0.00018302 0.000135057,6.83836e-05 -0.000145874,3.3748e-05 -2.89278e-05,-0.000124369 0.000114597,-9.75955e-05 0.000421722,-0.000110139 0.000133582,-0.00017361 5.08541e-05,-0.000245147 0.000242242,-7.79124e-05 4.95758e-05,-0.000370654 -0.000297556,-0.000212385 0.000369757,0.000123276 -0.000313762,-0.000154455 0.000279016,4.09715e-05 8.40914e-05,-8.55977e-05 3.27046e-05,-8.69667e-05 -0.000132965,-0.000154186 4.40257e-05,-0.000139437 0.000278892,0.000125855 0.00028438,-0.000208305 0.000457511,-0.000184495 0.00150934,-0.000312652 0.000233426,-0.000360482 -0.000287184,-6.7084e-05 -0.000181334,-0.00015016 -0.000575758,-0.000173891 -0.000236652,-0.00014969 -0.000187616,8.82136e-06 2.49294e-05,-7.42587e-05 -0.000262513,-7.00058e-05 -0.000193679,0.000189473 -0.000482653,0.000140461 -0.000184777,-0.000100468 -0.000318434,-3.1606e-05 -0.000143315,-0.00010353 0.000739915,9.30375e-05 0.000380258,-0.000106178 0.000189292,-0.000135256 0.000312782,5.87418e-05 5.48773e-05,-4.38115e-05 -0.000177375,-5.26703e-05 -0.000334316,5.79289e-05 0.000105574,-0.000110162 0.000380152,-1.94901e-05 6.38906e-05,-0.000128771 -0.000140376,-0.000202884 0.000267341,5.91282e-05 0.000110509,-1.35831e-05 -0.000131695,-2.95808e-05 7.79101e-05,-1.33055e-05 0.000702921,4.99991e-05 0.000438849,-7.598e-05 0.000494059,-0.00018391 -0.000141405,-0.000109864 0.000165244,2.56813e-05 -7.24249e-05,-3.00847e-05 3.3015e-05,-5.62678e-05 0.000614942,-0.000245443 0.000120028,-0.000145505 -0.000309919,-0.000552704 -9.19477e-05,-0.000684597 -0.000503156,-0.000127549 -0.000665594,-0.000362754 -0.000679181,-4.83954e-05 -0.0002612,5.82103e-05 -4.99703e-05,-5.64639e-05 7.16964e-05,-4.12456e-05 -0.00010526,-5.32842e-05 0.000308762,-4.41671e-05 9.7815e-05,-9.56485e-05 0.000198474,8.77073e-05 -0.000132502,-0.000109038 -0.000178297,5.02806e-05 8.43385e-05,-0.000157841 0.0003097,4.79308e-05 0.00147474,-0.000406278 0.000318831,-2.52942e-05 0.000208242,7.67851e-05 7.61271e-05,-9.09499e-05 -4.90188e-05,-0.000156705 9.23559e-05,-4.95502e-05 0.000109816,-0.000274547 -0.000146193,-0.000772628 -0.00043079,-7.16164e-06 -4.4956e-05,-0.000145904 -0.000345338,-0.000152372 -0.000401342,-0.000316243 -0.00040567,3.4159e-05 0.000109828,-0.000273643 0.000246603,-0.000229659 0.000942501,-0.00018683 6.47279e-05,-0.000820481 -8.97631e-05,-0.00027736 -0.000206191,-0.000263725 -0.000233981,-8.28877e-05 -0.000383267,0.000389753 -0.000233771,0.000325268 -0.000118531,0.000582546 -0.000248339,0.000253151 -0.000198072,0.000532655 -0.000269312,0.000134132 -0.000161609,0.000233449 -0.00020433,0.000112809 -0.000129163,0.000315346 0.000536906,-0.000437112 -2.6195e-05,0.000143801 -0.000228322,8.50217e-05 -0.000652153,0.000567221 2.36742e-05,-0.000100435 -0.000138068,-7.37745e-05 -4.69285e-05,-0.000145888 -0.00080701,-0.000282098 -0.000118196,3.44172e-05 -0.000375678,0.000554931 -0.000337333,5.16295e-05 8.2433e-06,-0.000160805 -0.00016321,-0.000311956 -0.000115564,-0.000483933 -0.000242275,0.000267542 -2.3957e-05,0.00016997 -0.000192948,6.66554e-05 -0.000193171,0.000239131 -0.000236265,0.000664813 -0.000177497,0.000226356 -3.5445e-05,0.000206186 -0.000150756,0.000135828 -0.000464402,0.000963837 -0.000362559,0.00107043 -0.000431029,0.00055449 2.4095e-05,0.000135247 0.000448438,0.000284255 0.00031891,0.00046776 0.000301065,7.23943e-05 -0.000144836,3.82526e-05 -1.4148e-05,6.60395e-05 -0.000128722,-2.87068e-05 8.49048e-05,0.000188911 -0.000214401,-9.93172e-05 0.000322978,0.000284415 -0.001158,-0.000208703 0.000328339,0.000423434 3.54798e-05,0.000380768 0.00010032,-4.41953e-05 -5.06057e-06,0.000279975 0.000214527,0.000306105 0.000136573,0.000412418 -5.76114e-05,0.000163933 -0.000240338,0.000168192 -0.000143052,0.000214323 -0.000249224,-0.000415075 -0.000506611,-0.000272024 -0.000311719,-0.000343209 -0.000260095,-0.000513412 -0.000359118,0.000145718 -0.000678376,0.000520459 -0.000231625,-4.40923e-05 -0.00027531,-0.00016292 -4.08679e-05,-0.000230824 0.000228065,-0.000209622 0.000110135,-0.000245647 -0.000393227,-0.000198042 -0.000236835,-0.000266189 -1.60704e-05,-0.000123576 0.000270065,-6.18837e-05 1.3153e-05,-6.69338e-05 -0.000472445,7.62381e-05 0.0011864,-0.00040014 0.000156718,-0.000133166 5.08446e-05,-0.000246951 -0.000185129,-0.000135689 -0.00032466,-6.13648e-05 -0.000341041,7.69332e-05 -0.000500905,-0.00010051 1.35454e-05,0.000166942 -0.00024554,-0.000248056 -0.000618069,-0.00035417 0.000126315,-1.371e-05 0.00039733,-0.000371787 0.000283288,-0.000121593 -7.58874e-05,-0.000274775 -0.000106794,-0.000204982 -0.000226933,-0.000166943 -0.000576912,-0.000973983 -0.00021728,-0.000775653 -0.000231756,-0.000253593 -0.000500047,-0.000114973 -9.18208e-05,-0.000385712 -0.000385072,-0.00027307 0.00053992,-0.000631247 -0.000603445,-0.000278449 -0.000657929,9.76595e-05 -0.000234417,-2.87246e-05 -0.000141233,-9.45276e-05 -7.65603e-05,-0.000342498 9.48929e-05,-0.000287957 -0.000185439,-0.000265727 -9.6156e-06,-0.000169685 6.38633e-05,-0.000132378 0.000234254,-8.50526e-05 -8.72133e-05,-0.000125686 9.16451e-05,-2.24452e-05 3.54632e-05,-0.000107757 -0.000454221,-7.83429e-05 -0.00015436,-0.000220839 4.44265e-05,-0.000100609 0.000375791,-0.000155778 0.000177044,-0.000369921 -0.00027138,-0.000559383 -0.000113342,0.000123765 0.000270061,0.000330933 -0.000148405,0.000271251 5.68389e-05,-0.000143155 -5.58733e-05,-0.000250565 -0.000451838,-0.000332109 -0.000299792,-0.000340616 -6.86806e-05,-0.000345274 -0.00015365,-0.000248839 7.20521e-05,-6.02523e-06 -8.74177e-07,-8.66815e-05 -0.000147837,-0.000162199 0.000337245,-0.000157257 0.00034857,-1.37744e-05 2.49621e-05,-7.15482e-05 0.000430246,0.000150787 0.000236883,0.000175895 0.00018579,7.46279e-06 0.000190492,-0.000309533 0.000198798,-7.39182e-05 0.000542569,0.000121842 -2.03623e-05,0.000135623 0.00115145,6.07091e-05 0.000758823,-0.000277317 0.000680331,-0.000614381 0.000584659,-0.000209027 -1.18529e-05,-9.74246e-05 0.000154034,-6.72176e-06 -5.05582e-05,7.98926e-05 0.000181069,-6.83553e-05 0.00010536,-0.000130925 -9.76809e-06,-0.000184131 -0.000126926,-4.7688e-05 -9.25373e-05,0.00012901 -0.000109896,-2.43541e-05 -0.000214397,9.39212e-05 -0.000249662,-7.19342e-05 -0.00041374,0.000113667 -0.000235962,-8.46933e-05 -0.00125792,0.000350163 -0.000617528,-1.28447e-05 -0.000309091,-8.76913e-05 -0.000417312,-0.00043534 -2.33111e-05,-0.000351977 0.000325506,-0.000242948 0.000627128,-0.00011185 8.8299e-05,-0.000255394 0.000240062,-0.000193465 -7.50134e-05,6.05166e-06 9.09461e-06,-0.000175261 -0.00147255,0.000910022 -4.36678e-05,0.000175552 -0.000199368,0.000212986 -0.000148181,-5.56145e-07 -0.000173924,0.000189293 -0.000824975,0.00047652 -0.000840448,0.000314104 -0.000340358,4.44047e-05 -0.0001183,0.000121999 -0.000140262,1.18084e-06 -0.000142359,-0.000108969 -4.53696e-05,0.000105131 -0.000422446,-6.32675e-05 -0.00094748,-0.000406512 -0.000519485,0.000110019 0.000170378,0.000144856 0.000683607,0.000198333 0.000110489,0.000181479 0.000433064,0.000234751 0.000634108,0.00097172 0.000411776,0.000278272 0.000376163,0.000665059 5.36766e-05,0.000228912 0.000107636,9.39092e-05 -0.000135102,-0.000270668 0.000160566,0.000248781 3.50323e-05,0.000339236 0.00051303,0.000522131 6.12609e-05,1.28963e-06 -1.16581e-05,-7.84635e-05 0.000220376,8.0753e-06 -0.000145791,4.09615e-05 0.000116542,0.000193164 -0.000113326,0.000125571 -4.06011e-05,0.00047984 7.58804e-05,-0.000312178 3.81711e-06,0.000378329 0.000263044,2.66785e-05 -0.000296411,-4.72498e-06 1.45943e-05,7.57297e-05 0.000598589,0.00116796 0.000433441,0.00124791 -0.000232444,-0.000909174 -0.000302949,-0.000652127 0.000280248,0.000360646 1.38774e-05,0.000200352 0.000264905,0.000601878 0.000157753,0.000751778 0.00016951,0.000350743 0.000105041,0.000912054 -7.76459e-05,3.94847e-05 1.17977e-05,0.000385485 -0.000255563,0.000617105 0.000118729,0.000115486 -1.90087e-05,7.42071e-05 -6.88383e-05,3.12833e-05 3.96712e-05,-8.25085e-05 -8.09476e-05,6.10121e-06 -0.000100607,0.000113725 2.65194e-05,-0.0001131 -6.42092e-05,5.41836e-07 -0.000211697,0.000265465 -6.99998e-05,0.000307613 8.21881e-05,0.000116698 -0.000106887,-1.89644e-05 -7.1851e-05,0.000124318 6.05164e-05,0.000220726 -0.000105383,-0.000163458 -0.000337798,0.000594319 3.84421e-06,0.000185084 -0.000105302,0.000138145 4.81879e-05,0.000173874 -0.000107185,-0.000146286 0.000138269,-0.000199828 -6.00693e-05,-0.000176483 -0.000253253,0.000455446 -0.00060489,0.000364496 -0.000297711,0.000455819 0.000233581,0.000238232 0.000342514,0.000165976 0.000192339,0.00026296 0.000349732,0.000195713 0.000493417,4.27944e-05 8.76523e-05,7.05981e-05 2.89155e-05,-7.15816e-05 5.19342e-05,5.55483e-05 0.000121984,-5.15978e-05 0.000889149,-2.81795e-07 0.000849316,0.000456971 0.000199054,4.70802e-05 0.000249491,-4.54532e-05 0.000292808,0.000232306 1.61065e-05,0.000127188 8.6978e-05,3.77957e-06 7.34937e-05,0.000233257 0.000133819,0.000141543 8.03879e-06,0.000208527 0.000428297,-4.69673e-05 3.32762e-05,0.000164066 0.000167554,-3.9344e-05 0.000137058,7.10807e-05 6.46689e-06,5.32227e-05 -0.000209164,-6.95675e-05 -3.34324e-05,0.000113159 7.91671e-05,1.28752e-05 0.00028105,0.000436483 0.000311715,0.000927458 0.000188138,0.000236801 0.000108326,0.000940015 -0.000296935,0.000141577 0.000366328,0.000271412 2.23943e-05,0.000259876 -0.000713336,-1.18443e-06 4.81694e-05,7.36388e-05 0.000256909,3.24316e-06 -0.000290022,4.39934e-05 -0.000814124,0.000778056 -4.32846e-05,-7.90984e-05 -0.000249447,5.08722e-05 5.20556e-05,0.000262335 -0.000145543,6.71504e-05 1.10604e-06,0.000109254 0.000165849,0.000181908 0.000165896,-8.62728e-06 6.71589e-05,0.000192675 0.000272572,0.000183713 0.000431792,0.000491193 0.000955469,0.00068903 0.000564227,0.000299532 0.00018752,0.000369546 0.000159718,0.000161187 4.97612e-05,-6.18262e-05 2.4755e-05,0.000102733 0.000156897,-1.93903e-05 0.000591375,-0.00043304 0.00021427,-1.26538e-05 0.000105776,-0.000188723 0.000152287,1.31559e-05 -0.000137073,0.000414739 4.92482e-05,-0.000404061 -0.00023072,0.000241254 0.00011537,7.48736e-05 -7.11074e-05,0.000197458 -0.000134487,-1.15011e-05 0.000107865,-8.03795e-05 -2.05288e-05,-7.56783e-05 -0.000201626,9.02049e-05 -0.000184261,0.000243568 -0.000264089,-2.84626e-05 0.000263539,-2.5713e-05 0.000181242,-0.000248961 0.000165256,-7.18362e-05 -9.55378e-05,-6.78179e-05 -0.000252245,0.000262205 -0.000227735,4.88875e-05 -0.000147766,0.000140316 0.000691707,0.00039868 7.74114e-05,-0.000160489 -0.000280054,-0.000141202 0.000443253,6.12561e-05 0.000104912,0.000309744 0.000340708,-1.55336e-05 -0.000299304,0.000103677 2.27252e-05,9.73317e-05 0.000352509,-2.1052e-05 0.000719242,-0.000295068 8.85576e-05,-0.000230115 0.000308869,-0.000134462 7.77669e-05,-0.000125275 2.21044e-05,-0.00035236 0.000228308,-0.000283677 2.34631e-05,-0.000218727 -0.000160229,0.000371593 -0.000137079,0.000122167 5.2847e-06,-6.32552e-05 0.000169658,-0.000221775 0.00014678,-0.000431077 0.00020484,-0.000162476 -0.000102872,-1.17678e-05 4.99428e-05,-4.37687e-05 0.000480242,0.000104278 1.4245e-06,0.0003341 0.000102744,0.000193272 -3.26703e-05,9.05782e-05 -0.000134964,-0.000252597 4.9259e-06,-0.000292615 -5.98816e-05,-5.90892e-05 -0.000287374,1.32788e-05 -0.000153817,0.000127728 -6.93491e-05,0.000369918 8.99985e-05,-0.000282502 -7.59261e-06,0.000419059 -4.79715e-05,-5.37726e-05 -0.000148806,0.000329055 3.04808e-05,0.000471109 0.000145189,-4.84586e-06 -8.63172e-05,-3.53866e-05 4.63366e-05,-0.000106948 0.000148722,5.11103e-05 0.00015839,0.000224405 -0.000201203,0.000779372 0.0102716,-0.000718239 0.00525272,-0.000663123 0.00598081,-0.00129792 0.00252404,-0.000902804 0.000796348,-0.000429612 -0.00013107,-0.00331803 -0.000793902,-0.000801106 4.84478e-08,-0.000186018 -8.93416e-05,-0.000136483 -0.000210339,9.04448e-06 2.96992e-05,0.000196597 -0.000286307,-0.000362334 -0.000271459,-7.35034e-05 -6.71433e-05,-0.000187243 -0.000113214,-5.68127e-05 -0.0002292,-0.000572326 -0.000147623,-0.00013598 -0.000161067,-0.00105331 -0.000476054,-0.000274009 6.06738e-05,0.000230644 -0.000259535,0.000314681 -0.000264238,5.10451e-05 -0.000114295,-0.000161553 3.49037e-06,-0.000235713 -7.49326e-05,0.000205628 -0.000181928,0.000176754 -0.00144825,0.000962458 -0.000461737,0.000442841 -0.000256862,0.000383281 -0.000193323,3.05629e-05 -0.000148776,0.000134927 -0.000524369,2.25795e-05 -0.000163388,-3.65182e-05 0.000346889,-8.42593e-05 -0.000296172,2.06122e-05 0.000240032,-9.95925e-05 -4.52169e-05,-0.000169375 0.000264747,-0.000193718 0.000283936,-0.000631839 -4.34275e-05,-0.000283168 0.00062377,-0.000632964 0.000247146,-0.000462662 0.000223494,-0.000169886 -0.000213429,-3.57678e-06 5.29336e-05,5.55294e-05 -0.000165174,7.72769e-05 -0.000276129,0.000334686 -0.000418287,0.000153505 -0.000521678,0.000378339 -0.000295069,3.14385e-05 -0.000259126,0.00016387 0.000181245,-0.000243566 0.000244344,-6.44123e-05 0.000103464,-0.000121894 -0.000574968,0.000288496 0.000462019,-0.000511467 -0.000426806,9.39771e-05 -0.000311137,0.000197728 0.000264393,-0.000323746 -0.000220759,0.000243906 -0.000120331,1.90963e-05 0.000191553,-0.000297834 0.000324518,-0.000145469 0.000212854,-0.000243838 0.000208603,-8.12616e-05 -0.000326043,-2.60877e-06 -0.000661149,0.000265759 -0.000260865,-4.978e-06 -0.000167314,0.000253378 0.000121259,-0.000312579 0.000147693,-4.82276e-05 -4.22524e-05,-7.36824e-05 -0.000342076,0.000167291 -0.00031816,-4.48592e-06 0.000123081,-3.99379e-05 z M 0.000253332,0.0316789 l 0.000391102,0.000773324 0.000445025,0.000236485 0.000199677,0.000206025 0.00024449,0.000734813 -7.53184e-05,0.000570428 0.000100039,0.000122876 0.000654619,0.000247372 0.00112951,0.000109752 0.000234791,0.000159674 0.000571474,-6.34784e-05 0.000644213,9.57426e-05 0.00020052,0.000190661 0.000415548,-4.41169e-05 3.84688e-05,9.17844e-05 -8.68913e-05,6.14617e-06 0.000278594,9.33841e-05 -0.000788856,-3.49288e-05 0.000671925,0.000100022 0.000222268,-0.000103903 -9.86395e-05,0.000213937 0.000277171,5.00511e-05 0.000155881,0.000172974 -9.00405e-07,-8.96909e-05 -0.000301267,-0.000284932 0.000106323,-0.000334402 -0.000204231,0.000174934 -0.000134859,4.89761e-06 5.98342e-05,-4.38458e-05 -0.000105953,-2.25902e-05 0.000372392,-0.000209007 0.000122722,0.000118168 -8.39003e-05,0.000304114 0.000141006,6.92524e-05 8.64926e-05,0.00015098 -2.50539e-05,0.000260276 -0.000242908,-0.000180371 -0.000622798,-2.90947e-05 -0.00122949,-0.000226291 -0.000217459,0.000189646 -0.000235468,6.8793e-05 -0.000263049,-2.12774e-05 -0.000241681,-0.000156908 -0.00112524,0.000119574 -0.000967834,-4.79018e-05 -0.000231283,9.22319e-05 -0.000106001,0.000128694 -0.000165064,1.99148e-05 5.0373e-05,3.14648e-05 -8.24234e-05,4.09847e-05 -0.000431212,-3.97458e-05 2.98074e-05,0.000115336 0.000439333,6.13501e-05 0.000351703,0.00038897 0.000404434,0.000128462 0.000153016,0.000282266 0.000153114,9.44398e-05 0.000119424,0.000282547 0.000569608,0.000242664 0.000819397,0.000123182 0.000532458,0.000183371 0.000646198,0.000489439 0.000401346,-0.00018035 -0.000174777,0.000209155 0.000193033,-0.000162352 -1.78593e-05,0.000189781 0.000761281,0.00023924 8.64397e-05,0.000145563 0.000252667,0.000167648 0.000141907,-0.000235068 0.000154171,-9.61083e-05 -0.000205069,0.00034125 0.000264035,-0.000274922 -0.000131945,0.000243112 0.000520928,0.000116634 0.000966009,-0.000136333 0.000885282,9.0091e-05 0.000290543,-0.000291403 -9.23747e-07,-0.000386479 0.000208513,1.86001e-06 0.000237922,-0.000217818 -9.73075e-06,-0.000181423 0.000129016,-0.000337003 -3.0349e-05,0.000322628 6.56507e-05,-0.00015316 1.63346e-05,-0.000340571 8.35187e-06,0.000829793 -0.000297356,0.000694202 0.000674125,0.000218279 9.82623e-05,-0.000250959 2.56713e-05,-0.000590782 0.000115346,-0.000320634 6.71411e-05,-5.0797e-06 -8.2583e-05,-0.000154623 5.84214e-05,1.21508e-05 3.17618e-06,-0.00017521 0.000183962,-8.10118e-05 -0.000114145,0.000145441 -1.21775e-05,0.00016445 2.26643e-05,9.1916e-05 8.22885e-05,-0.000267079 6.41624e-05,0.00146504 8.01228e-05,8.35604e-06 7.83217e-05,-0.000170424 0.000209071,-0.000139016 0.00018852,-0.000413357 9.13858e-05,0.000145518 -6.8222e-05,0.000192011 0.000215094,-0.000227562 0.000139922,-0.000431009 9.49841e-05,-8.56822e-05 5.06994e-05,3.02754e-05 -0.000100179,6.04418e-05 -1.34705e-05,0.000428138 -2.9804e-05,-0.000211955 -5.44213e-05,0.000286711 -0.000140813,0.000146569 3.2963e-05,0.00032932 -8.85381e-05,0.000137099 0.000525564,-0.000110076 -4.14384e-05,-9.17577e-05 0.000169265,2.92769e-05 -4.00176e-05,7.69958e-05 0.000447088,1.71003e-05 -4.61241e-05,-6.64339e-05 0.000120437,-0.000109375 -0.000102138,-0.000133687 3.69808e-05,-0.00025225 0.000173841,-6.8825e-06 0.000188817,0.000204294 4.67925e-05,-0.000161129 0.000184904,-8.55377e-05 -0.000171719,2.13132e-05 -6.49242e-05,-6.89844e-05 0.000233645,-0.000249392 9.48401e-05,-0.000393607 -1.5946e-06,-0.000158013 -0.000116343,-0.000170591 -2.47007e-06,-0.000440646 0.000115388,0.000467688 0.000122262,0.000169638 -2.87397e-06,0.000498483 8.13495e-05,-0.000261654 -1.90841e-05,-0.000226494 -0.000204139,-0.000449782 1.70049e-05,-0.000175326 0.0001573,0.000410445 0.000147742,0.000148654 2.57397e-05,0.000592155 -0.000152737,0.000531352 -0.000241477,0.000256683 0.000212898,-5.32657e-05 0.000591895,-0.000586526 1.24674e-05,6.03962e-05 5.29803e-05,-3.747e-05 -1.70072e-05,0.000272851 -9.47983e-05,0.000299694 0.000238021,0.000184012 -0.000271452,0.000126001 -0.000259929,-5.03237e-06 -0.00021379,0.000160731 -0.000103763,-9.31368e-07 -8.65081e-05,0.000435978 -9.75842e-05,0.000121825 -0.000274793,-0.000106948 -0.000168702,2.67055e-05 0.000106083,0.000524655 2.81498e-06,0.000279005 -9.96615e-05,0.000111909 0.000503995,0.000395784 -0.000249229,-2.13777e-05 -0.00042392,-0.00029442 -2.6846e-05,8.14966e-05 0.000306072,0.000170798 4.53292e-05,0.000281356 2.7761e-05,-8.87284e-05 0.000122228,-2.99262e-05 -3.81113e-05,-5.56652e-05 0.000218121,7.22082e-05 -0.000222938,3.79991e-05 -5.04457e-06,8.7634e-05 0.000134718,-6.52487e-05 -0.000291824,0.000164097 -9.46636e-05,-0.000176191 5.9438e-05,-0.000181102 -0.000384361,-9.51896e-05 -4.40484e-05,0.000139434 -0.000185046,7.19929e-05 0.000142773,4.75599e-05 -0.000269168,5.91562e-05 -7.12191e-06,0.000273671 -0.000118373,0.000118387 -7.60353e-06,-0.000166089 0.00010642,-2.97923e-05 -4.92389e-05,-0.000179283 0.000248956,-0.000201661 2.66095e-05,-0.000104973 -0.000100518,2.70337e-05 -0.000273426,0.000322869 2.42149e-05,-0.000146491 0.000236872,-0.000224134 7.34812e-05,-0.000356403 6.18243e-05,5.54657e-05 -8.3379e-05,-0.000429128 -0.000235657,-0.000439585 -0.000228859,-5.94776e-05 3.01058e-05,4.57999e-05 -0.0001064,3.15979e-05 -0.000686071,6.1666e-05 0.00117901,0.00293624 0.00160514,-1.35266e-05 0.00223217,0.000285046 0.000904482,-7.91395e-05 0.000576915,-0.000171635 0.000782107,-0.000422629 0.00636572,-0.00520815 0.000921444,-0.000554911 0.00493379,-0.00254694 0.000778524,-0.000542569 0.000416429,-0.000460684 0.000317702,-0.000522268 0.00106083,-0.00296955 0.000340372,-0.00062678 0.000457931,-0.000560771 0.000560617,-0.000476549 0.000992868,-0.000523931 0.00073186,-0.000205485 0.00112721,-0.000137623 -0.000336307,-0.00190426 -0.00577411,0.00112348 -0.000378469,0.000109 -0.000165423,0.000261535 -0.00268851,0.00053218 -0.00183255,0.000242829 -0.0014578,3.52484e-05 -0.000150747,0.000109833 0.000213591,0.000211293 6.49155e-05,0.000262222 4.47153e-05,2.49039e-05 9.97134e-06,-0.000185201 3.33425e-05,0.000169481 0.000126385,-8.29867e-06 0.000343056,0.000311328 0.000227764,5.04368e-05 2.85195e-05,0.000277883 -0.000342597,0.000122111 2.11066e-05,0.000229183 -7.50802e-05,9.8163e-05 -0.000179378,-0.000150179 -0.00073657,-0.000143637 -0.000221856,-0.000271665 -0.000173795,-0.00041848 -0.000282561,-0.000127632 -0.000507395,-0.000440872 -8.7233e-05,0.000263515 2.87254e-05,0.000590321 0.000204661,0.000207759 0.000227943,0.00045679 0.000272961,0.00021982 0.000112847,0.000214859 0.000146091,-1.38833e-05 -1.27678e-06,-0.000125507 0.000194036,0.000231326 4.2918e-05,0.000333747 -0.000100902,-1.17845e-05 -9.55167e-05,0.000129038 -0.000146716,-4.75156e-05 -0.000319769,-0.000353067 7.06379e-05,-4.93623e-05 -0.000201843,-0.000124706 -0.000191895,-2.09454e-05 -5.11804e-05,0.000311068 -1.34896e-05,-0.00016062 -0.000160592,-5.19136e-05 -3.37811e-05,-0.000212822 -0.000160216,-1.48939e-05 -6.04405e-05,-0.000308314 -0.000287112,-0.000251307 -0.000538851,-0.000716929 -0.000189628,0.000202076 -0.000236065,0.000104945 -0.000358281,3.73521e-05 -0.000128506,9.13899e-05 2.89127e-05,0.000317613 0.000262586,0.0003662 -0.000196142,0.000339387 1.58443e-05,0.000490197 -0.000197635,0.000289734 -0.000162555,-5.91975e-05 -2.34946e-05,-0.000445811 -0.000284267,-0.0010532 -0.00100218,0.000165611 -0.000260364,0.000242404 0.00012285,0.000812568 -0.000136073,0.000417437 0.000149532,3.30483e-05 0.000507714,0.000472487 0.000446733,0.000109994 0.000263394,0.000348134 0.000176392,5.08793e-05 -2.05628e-05,0.000115759 -0.000280841,0.000172145 -0.000319233,-0.000300705 -0.000229505,-2.6952e-05 -0.000403154,-0.000197053 -6.32023e-05,0.000198293 0.000125752,0.000513648 -0.000117798,0.000270996 0.000103942,0.000311559 -0.000181546,-0.00036418 4.18354e-05,0.000228106 -0.000147641,-0.000138716 -5.55763e-05,-0.000414009 -0.000244958,-0.000576753 0.000144602,-0.000161056 7.28908e-05,-0.000249846 -0.000285435,-0.000151095 -0.000157143,-0.000199137 1.10507e-05,-0.000274607 0.000140347,-0.000288343 -0.00018605,-0.000516751 -0.000550848,4.80044e-05 -0.000132883,0.000147411 -0.000224782,4.88571e-05 -0.000294658,0.000466636 -0.00107308,0.000484049 -8.70865e-05,0.000377289 -0.000209648,0.000177857 -1.6747e-05,0.000298133 0.000592718,0.00057382 0.000135661,0.00032213 -4.49207e-05,0.000247803 0.000226533,0.000123603 -0.000181509,0.000127052 -7.049e-05,0.000259758 6.34525e-05,-7.63886e-05 1.26068e-06,0.000124604 -0.000146169,6.65312e-06 4.03315e-05,0.000177551 -8.80355e-05,0.00018586 3.19844e-05,-0.000159199 -8.35964e-05,3.86325e-05 -5.79326e-05,-0.000159343 4.23834e-06,-0.000167092 6.88493e-05,-3.12839e-05 -0.000282958,-0.000622489 -0.000318508,-0.000194275 -0.000230707,0.000209749 -0.000141582,0.000264873 -0.000178099,0.000855747 -0.000143406,-1.32376e-05 -0.0001843,-0.000637773 0.000153842,-0.000616245 -2.74669e-05,-0.000175854 -9.5431e-05,-5.6987e-05 -0.000279364,0.000612789 -0.000735285,0.000669911 -0.000105389,0.000326874 -0.000138007,-6.56589e-05 -0.000100033,0.000172414 -0.00038471,0.000259696 -3.42016e-05,0.000135739 7.75879e-05,-4.67072e-05 -0.000150926,0.000416655 5.63743e-05,-0.000288534 -6.42064e-05,9.98717e-05 -2.05072e-05,-7.38737e-05 -7.46605e-05,4.30704e-05 -2.20103e-05,-0.000222857 -6.48021e-05,0.000334658 -4.70114e-07,-0.000340429 0.000115764,-0.000278198 3.3993e-05,3.94458e-05 1.0854e-05,-9.94221e-05 0.00021166,-0.000175161 6.11e-05,-0.000211818 0.000703619,-0.000968536 0.000205198,-0.00101039 0.000161915,-0.000404106 -0.000104825,-0.000596003 -0.000290579,-0.00040029 -0.000575161,0.000772404 -0.000547022,0.000232167 -0.000309254,0.000323043 -0.000190968,0.000631133 -6.30857e-05,1.49794e-05 3.09797e-05,-0.000212589 -7.29118e-05,-2.63543e-05 -0.00022071,0.000257409 -1.58085e-06,0.000235246 0.000200343,0.000270569 -6.17993e-05,0.000632625 -0.000210207,2.52481e-05 -0.000367121,0.00033453 -3.57004e-05,0.000187187 -7.98646e-05,1.69263e-05 -0.000119738,0.000276425 -5.56923e-05,-3.56516e-05 -4.37234e-06,0.000154451 -0.000124951,-0.000240954 -0.000314265,-0.000201435 -7.7033e-05,-0.00016145 0.000129264,5.15362e-05 -3.71009e-05,-7.30111e-05 0.00036065,1.72219e-05 0.00019704,-0.000449549 0.000256581,-0.000227911 4.15844e-07,-0.000114035 -0.000124865,-1.688e-05 -0.00017226,0.00010271 -0.000844768,0.00020035 -0.000349091,-2.95728e-05 -0.000313021,0.000118216 7.48038e-05,-0.00012705 0.000249916,-0.000105044 0.000110676,9.9203e-05 -6.16395e-05,-0.000135736 0.000223851,5.41041e-05 0.000261898,-9.25033e-05 -0.000285974,5.65855e-05 -0.000170654,-6.99026e-05 -0.000146439,7.79868e-05 0.00011542,-0.000116555 0.000228846,5.94802e-05 0.000751479,-0.000437056 8.73303e-05,-0.000132393 -1.63708e-05,-0.000474121 0.000189386,-0.000228248 0.000106088,-0.000464421 -0.000493894,-5.43146e-05 -0.000488281,6.10571e-05 -0.00043347,0.000716117 -9.34331e-05,0.000337607 -0.000146087,1.47731e-05 -6.01295e-05,-0.00028033 -0.000606808,-1.2961e-05 -0.000360336,0.000180514 -0.000262798,0.000344852 0.000154121,-0.000395005 8.36161e-05,-3.68225e-05 3.71186e-05,5.56747e-05 3.29743e-05,-6.16814e-05 -0.000190835,-6.27365e-05 -0.000104346,0.000186218 -0.000132102,6.81081e-06 0.000111979,-4.27621e-05 0.000176701,-0.000311215 9.40753e-05,-7.75457e-05 5.10049e-05,6.09761e-05 0.000380978,-0.000237982 3.83206e-05,-0.000119519 -7.75463e-05,-0.000145636 -0.000279102,-4.64178e-05 0.000146972,-0.000254077 -5.20365e-05,-0.000327355 -0.00054518,-0.00037017 -0.000130137,-0.000364625 -0.000311165,-0.00166434 -0.000117459,-8.6606e-05 -0.000114549,6.37929e-06 -0.000100787,0.000392751 -0.000299052,0.000524447 8.61193e-05,0.000507671 -0.000127437,0.000494111 -0.000277711,0.000485439 -0.000360368,0.000322687 -3.36976e-05,0.00018656 -0.000176232,-3.55025e-05 7.39153e-05,-0.000707976 -0.000135942,-0.000352839 -0.000116681,-0.000107383 -0.000708262,0.000116102 -0.000576035,-9.81185e-05 -0.000582421,-0.000242549 -0.000580635,-0.000119289 -0.000276914,0.000325126 5.37066e-06,0.000536342 0.000524229,0.00025267 2.51116e-05,-5.77011e-05 0.000621029,0.000840921 0.000290911,0.000830138 0.000292517,0.00020163 0.000233745,0.00025269 -0.000148453,-2.40406e-05 0.000142996,7.10427e-05 -0.000848119,-3.44355e-05 -0.000289401,-8.78782e-05 -0.000517825,-0.000598876 -0.000602467,-0.000368806 -0.00020486,6.58266e-05 -3.08892e-05,0.000270258 6.9362e-05,0.000217045 -7.06267e-05,-4.72689e-05 -0.000102639,0.00050564 -4.10474e-05,-0.000152265 -0.000144904,0.000133051 -5.84878e-05,0.000178382 -0.000485049,-0.000385143 -0.000130289,1.37307e-05 -0.000287551,0.000195646 -0.000292321,1.50835e-05 -0.000157589,-0.000246109 -0.000129849,-0.000535303 -0.000211044,-8.31211e-05 -0.000403903,4.67154e-05 z M 0.0374356,0.0617226 l -0.000232872,0.000242416 0.000269846,-0.00016753 2.59861e-05,5.26335e-05 -0.000209543,0.000240574 -8.42574e-05,0.00064727 0.000297476,-9.64698e-05 -0.000180238,0.000348301 0.000329114,9.64991e-05 0.000115896,0.000313246 -0.000136305,0.000199832 -0.000322224,0.000188789 -0.000214193,0.000314279 5.38468e-06,0.000522789 0.000248339,0.000313913 0.000114227,0.000343059 5.62555e-05,-7.70783e-06 0.000196579,-0.000585027 7.10623e-05,-0.00058485 4.30281e-05,0.000339157 4.37544e-06,-0.000150838 5.5304e-05,-4.08778e-06 8.57142e-05,6.96963e-05 -2.69168e-05,7.33743e-05 -4.22876e-05,-7.54879e-05 8.65967e-06,7.30682e-05 0.000195193,0.000143703 -7.13503e-05,7.73687e-05 -1.47814e-05,0.000771286 0.000282175,-0.000239013 7.15395e-05,-0.000250746 5.09468e-05,0.000244274 5.44478e-05,-8.71563e-05 5.37548e-05,0.000133181 0.000151648,4.20384e-05 0.000180813,-0.000196604 -0.000189464,0.000124439 2.65347e-05,-0.000110394 0.00019129,-4.31848e-05 -0.000140782,0.000340739 -0.000262829,0.000198213 -4.86263e-05,0.000460044 0.000146186,-8.48236e-06 0.000475914,-0.000715659 0.000207616,-8.93787e-05 9.04146e-05,4.6177e-05 0.00130671,-0.000944056 -5.22277e-05,-0.000176537 5.23108e-05,-0.00010249 0.00015382,0.000156698 0.000260969,0.000100691 -1.49751e-05,-0.000397189 9.64336e-05,-0.000423434 -0.000112165,-0.000238327 0.000143359,0.00019652 -6.85801e-05,-0.000133052 0.000152076,8.35699e-05 0.000138981,0.00053789 0.00034638,0.00042774 0.00065965,0.000711285 0.000344621,0.000257087 0.000181417,-0.000424169 -0.000192451,-0.000260207 -0.000486517,-0.000407565 3.26041e-05,-0.000478869 6.95496e-05,3.55194e-05 -5.99161e-06,0.000185166 0.000156984,-0.000302053 -5.68531e-05,0.000427608 0.000329662,0.000148857 4.44273e-05,-0.000291148 0.000112257,-3.97983e-05 0.000215504,0.000577862 0.000221453,-0.000184318 0.000167869,-1.40924e-05 -9.24686e-05,0.000232869 3.66562e-05,0.000294963 0.000189346,0.000532937 0.000185266,-5.2169e-05 -5.778e-05,0.000146785 0.000131059,-0.00013297 -3.50727e-05,0.000335314 0.000200323,0.000542774 0.000529689,0.000185049 0.000293381,0.00027107 0.00013957,0.000306714 0.000279126,0.000230557 0.000227196,-1.18993e-05 0.000195938,-0.000166944 -8.44263e-05,-0.000326153 0.000166175,0.000203541 0.000100193,-5.95621e-05 -8.83522e-05,-0.000132878 0.000160949,8.0779e-05 -0.000158793,-0.000444705 7.65133e-05,-0.000436809 -8.60637e-05,-0.000674695 -0.000350542,-0.00035094 -0.000695483,-0.00016194 -3.99224e-05,-3.75805e-05 0.000260988,6.77231e-06 -0.000287412,-7.69774e-05 0.00104307,-0.000153505 9.13464e-05,-0.000626566 -5.17479e-05,-0.000129583 -0.000325665,-0.000144369 -0.00017224,-0.000217034 -0.000392606,-2.36932e-05 -4.21136e-05,-5.83304e-05 0.000142407,8.70106e-06 8.65858e-05,-0.000132586 -8.24673e-05,-0.000423694 0.000302849,0.000136441 0.000177663,0.000168226 0.000246147,0.000100811 0.000112358,-2.98684e-05 7.02353e-05,-0.000279633 -0.000152414,-0.000306602 -0.000121209,-6.12576e-05 2.90153e-05,-0.000156469 5.86418e-05,3.20003e-05 -3.99259e-05,-0.000133298 0.000360693,0.000282224 0.000133359,-0.000291919 -0.000164765,-0.00111648 -8.4447e-05,-4.26127e-05 5.16872e-05,-0.000162084 -0.000119609,-0.000193109 0.000525495,-0.000121939 -1.11451e-06,-0.000107447 -0.000254881,-0.000181101 0.000116926,2.96895e-05 0.000345149,-0.000263051 -0.000197162,-0.000142772 -0.000951609,-0.000275303 -0.000506069,-6.45782e-06 -7.30397e-05,-0.000181773 0.000147151,8.54148e-05 -8.70581e-05,-0.000103994 0.000224339,-1.34577e-07 5.81502e-05,-0.000110669 0.000759269,2.59373e-05 9.0352e-05,-5.49619e-05 -0.000188378,-0.00101153 -0.000121671,-0.000296935 -0.000607006,-2.00318e-05 -0.000451325,-0.000160442 -0.000841536,0.000140918 0.000245737,-0.000128543 -0.00029787,5.67541e-05 0.000154528,-6.09332e-05 0.000127564,-0.000183508 -0.000371965,5.92003e-05 -0.000167507,-4.73145e-05 3.09864e-05,-6.16715e-05 -0.00019195,-2.18196e-05 0.000482017,-2.49336e-05 -3.78411e-05,-0.000409633 -0.000273059,-0.000219778 -0.000106802,-0.000197736 -0.000491548,-0.000323542 -0.000106632,-0.000181485 -0.000421586,-5.68611e-05 0.000209929,-5.5089e-05 -0.000315822,4.06521e-05 0.000272881,-0.000179343 -0.00044275,-0.000383564 0.000110347,-0.000128275 3.71931e-05,-0.00022607 0.000105203,4.33388e-05 3.92958e-05,0.000168521 0.00015354,0.000130512 0.000200039,3.98108e-05 0.000556812,0.000423212 0.00127768,0.000559651 0.000177812,0.000183577 0.000292048,0.000144662 0.000549687,2.05281e-05 -5.618e-05,-8.07835e-05 0.000134541,1.32837e-05 -3.02255e-05,-5.57242e-05 8.83366e-05,-5.85562e-05 -4.33727e-05,-0.00103807 5.72254e-05,-0.00010434 -0.000233177,-0.000185805 -0.000313335,-0.000101134 0.000195787,1.09482e-05 -3.554e-05,-9.17981e-05 0.000154303,1.31129e-05 0.000128654,-7.78679e-05 -4.74356e-05,-0.000572089 5.64276e-05,-0.000467337 -6.29217e-05,-0.000159286 5.68467e-05,-0.000236174 -7.26626e-05,-0.000145657 -0.000314418,-1.53397e-05 -0.000413133,0.000185978 -0.000682216,-3.20278e-05 -0.000488924,0.000215526 -0.000188793,-3.78693e-06 0.000493921,-0.000210151 0.000446288,-3.81713e-05 -4.00869e-05,-5.38332e-05 -0.00043732,4.53177e-05 0.000734488,-0.000168888 -0.000170261,-2.74238e-05 0.000478668,-0.000155842 0.000120341,-0.000212342 0.000161251,-7.90525e-05 -0.000104395,-0.000156218 0.000174867,9.0593e-05 -8.22438e-05,-0.000116678 0.000143805,4.93238e-05 0.00017736,-5.02963e-05 3.25956e-05,-9.69026e-05 -8.76057e-05,-0.000157266 -0.000216518,-0.00010468 6.7919e-06,-0.000107515 -0.000233285,-6.10911e-06 5.70909e-05,7.35519e-05 -0.000281439,-0.000170941 6.23431e-05,-8.72268e-05 0.000393728,3.99384e-05 1.90331e-05,-7.05984e-05 -0.000208713,-0.000305213 4.22861e-05,-0.000497014 -7.63577e-05,-0.000311776 -0.000689853,-0.000962048 -0.000134955,-0.000435884 -0.000232701,-0.000332098 -0.000105324,-0.000628479 -0.000154755,-0.000153075 9.96308e-05,-1.71147e-05 -7.75209e-05,-4.26741e-05 5.55165e-05,-0.000173855 -5.58215e-05,-0.00138381 0.000141987,-0.00041209 4.65414e-05,-0.000468155 0.000122983,-0.000243066 -6.64821e-05,-2.65155e-05 0.000109397,-2.80352e-05 4.04415e-05,-0.000198106 0.000117335,0.000166041 0.000305564,-0.000551663 0.00137794,-0.000149173 1.60638e-05,-0.00016629 0.000116084,-0.000145484 -9.60999e-05,-0.000119267 -5.38755e-06,-0.00023383 0.0001109,-0.000168917 0.000125931,-5.34637e-05 1.75249e-05,-0.000215968 -0.000150698,4.7357e-05 9.04986e-05,0.00015092 -0.000125298,1.91443e-05 -4.76408e-05,-0.000210889 0.000104096,-0.000158022 -0.000137155,1.92468e-05 -9.95368e-05,-6.95725e-05 -3.1906e-05,-0.000218249 -8.52732e-05,-2.81582e-05 2.12066e-05,-0.000242187 -9.86604e-05,-8.04162e-05 0.000137727,-0.000154701 -3.07083e-05,-0.000102676 3.409e-05,4.75639e-05 0.000132459,-0.00018626 0.000126528,4.32314e-06 -0.000149811,3.74162e-05 -3.52263e-05,0.000224248 -0.00011944,0.000107587 0.000101905,0.000107478 -7.93189e-05,0.000165032 0.000193577,-9.80186e-06 1.69712e-05,-7.87076e-05 6.75722e-05,3.64382e-05 -0.000121723,-0.000112724 5.13908e-05,-0.000190074 6.13255e-05,5.79032e-06 1.80029e-06,-0.000207705 0.000297076,-0.000129894 -1.00062e-05,-0.00010737 -0.000111819,-1.52862e-05 7.15483e-05,-5.66051e-05 -2.80252e-05,-0.000129789 0.00028796,0.000134763 -0.00018402,-0.00040295 0.000289721,-7.65537e-05 3.99622e-05,4.20949e-05 0.00015114,-9.97353e-05 0.000130078,-0.00022507 -4.21349e-05,-6.1039e-05 0.000132446,3.36808e-06 0.000182495,-0.000125291 9.52277e-05,3.52951e-05 -5.2259e-05,-8.44291e-05 8.60776e-05,-8.47243e-05 4.3006e-05,0.00014501 0.000139367,-9.1507e-05 -7.72741e-05,-1.91965e-05 0.000105586,-0.000109274 0.000207598,-8.66803e-05 0.00028771,1.55668e-05 2.86295e-05,-9.77718e-05 0.000173859,-5.11887e-06 6.27464e-05,-0.000238032 0.000100397,-3.78932e-05 8.0437e-05,-0.000247215 0.000159323,-7.27181e-05 -6.17462e-05,-4.64205e-05 0.000121625,-0.000277372 0.000130256,-0.000112198 -0.000118224,-6.12817e-05 7.88349e-05,-0.000211082 -0.000103673,0.000102938 -0.000219682,-3.06033e-05 8.8166e-05,0.000116625 -0.000242627,4.36412e-05 1.56533e-05,-0.000110301 -7.03383e-05,-1.74503e-05 -0.000246564,0.000140295 -0.000195647,-9.49253e-05 -3.38132e-05,7.43387e-05 -0.000103726,2.70469e-06 -0.000381089,-6.35206e-05 -6.09541e-05,-6.53909e-05 -3.64593e-05,0.000105063 -0.000148496,-2.67069e-05 7.38364e-05,-0.000121641 -5.78119e-05,-4.82612e-05 -0.000235341,-1.60221e-05 -2.49495e-05,7.15528e-05 -0.000149784,-5.55921e-05 4.8986e-05,-0.000135874 -0.000165354,6.28353e-05 8.22734e-05,0.000120289 -0.000285192,-5.89353e-05 -3.33012e-07,6.32127e-05 -0.000124325,1.73299e-05 2.27287e-05,9.5521e-05 -9.84299e-05,3.69717e-05 7.44774e-05,3.54754e-05 -2.9005e-05,6.16548e-05 9.20228e-05,0.000107563 0.000128343,-1.10438e-05 -9.20245e-05,8.29692e-05 -0.000198862,-0.000119281 -0.000151279,8.61908e-05 -0.000389317,6.59058e-07 -0.000291766,-0.000121187 -4.68585e-05,-0.00032648 -6.10996e-05,1.58793e-05 6.56441e-05,-0.000149562 5.36907e-05,3.20436e-05 -3.16607e-05,-0.000194774 0.000137253,-0.000295564 0.000126151,-3.1793e-05 4.10608e-05,-0.000233329 0.000155361,-7.35837e-05 -0.00013387,0.000240452 0.000382544,-8.18702e-05 0.000146931,6.64535e-05 2.8247e-05,-0.000134791 0.000153553,-5.73147e-05 7.43642e-06,-4.52142e-05 -9.41962e-05,6.4025e-05 8.69805e-05,-9.28585e-05 -4.18716e-05,-3.57575e-05 0.000276402,-0.000121588 -8.04825e-07,-7.76508e-05 -6.06961e-05,5.51143e-05 1.63497e-06,-0.000128649 0.000122394,-1.27984e-05 -9.71919e-05,-3.43756e-05 3.77096e-05,-7.97902e-05 0.000278643,-6.06142e-07 -8.95778e-05,-6.24343e-05 0.000173537,-3.58163e-05 -1.05772e-05,-0.000162448 0.000195821,-7.84504e-05 0.000472417,9.45339e-06 4.21713e-05,-0.000125882 5.39621e-05,5.82274e-05 6.20111e-05,-0.000213645 0.000195441,-1.97533e-05 0.000169204,-0.000167618 0.000183939,-0.000366405 0.00030623,-8.07239e-06 0.000468182,0.000172928 -0.000117967,-0.00032225 -2.21529e-05,-0.000420605 -5.92059e-05,7.73734e-06 0.000147821,-0.000133119 -2.71826e-05,-4.85261e-05 0.000246309,-6.89578e-05 -0.000107913,7.49817e-05 0.000341221,3.13543e-05 -1.42387e-05,5.61093e-05 0.000196915,2.71876e-05 -7.84783e-05,5.48607e-05 0.00015792,7.80936e-05 9.20009e-05,-8.4777e-05 6.29643e-05,0.000163799 -6.90579e-05,1.05322e-05 0.000200067,4.52197e-05 -2.40624e-05,6.16126e-05 0.000136081,6.83498e-05 3.87043e-05,-7.88967e-05 0.000270289,0.000146648 6.63824e-05,0.000112298 0.000128442,-1.11515e-06 -0.000112716,-0.000101963 9.12473e-05,-6.2196e-05 0.000104331,0.000150798 0.000341831,0.000184855 -0.000434662,-0.000370066 -9.20307e-05,-0.000203278 8.78254e-05,-0.000201228 0.000151232,5.00786e-06 -0.000105351,3.61316e-05 -7.71825e-05,0.000179463 2.03798e-05,5.94208e-05 6.09565e-05,-2.94252e-05 -2.06474e-05,0.000104927 0.000101097,2.98241e-05 -4.42754e-05,-0.000266903 0.000316826,-0.000129171 -0.00056465,-0.000137771 0.000122155,-0.000320721 -9.50084e-05,-1.45261e-05 9.65833e-05,-0.000119131 -0.00031131,8.93901e-05 0.000115515,-0.000103944 -3.70631e-05,-4.84401e-05 0.000429107,-6.87412e-05 6.20259e-06,-6.86816e-05 0.000130888,-5.08014e-05 -0.000137492,-1.4157e-05 0.000291642,-8.01904e-05 0.00017792,-0.000183951 2.7634e-05,9.18656e-05 -0.000321737,0.000226738 0.000350878,-0.000180035 0.000406333,2.17537e-05 -8.4854e-05,-8.32414e-05 9.45947e-05,-2.52028e-05 -5.55161e-05,-1.75775e-05 5.24553e-05,-0.000371587 4.89741e-05,0.000148569 4.3898e-05,-0.000149376 9.82927e-05,-4.9616e-05 0.000220484,1.34347e-05 -3.56821e-05,8.42888e-05 9.68335e-05,6.13126e-08 -7.65097e-05,5.39418e-05 0.00051725,0.000140886 0.000214272,0.000270842 -0.000169332,-0.000319994 -0.000181114,-0.000123039 -5.02604e-05,-0.000461897 8.9325e-05,-5.67624e-05 0.000135675,2.95222e-05 -6.69666e-05,-7.34634e-05 0.000494685,-3.3198e-05 -0.000174339,-4.18275e-05 0.000364166,5.28181e-05 1.66647e-05,-0.000107602 0.000607975,0.000692726 0.000314147,0.000183283 -0.00049481,-0.000452609 -0.000137745,-0.000228162 5.80002e-05,-2.84976e-05 -7.96794e-05,-6.07104e-05 -4.68124e-05,5.91021e-05 -0.000129605,-0.000300473 0.000462739,-0.000159342 0.000118343,-0.000116614 0.000178714,-1.23916e-05 -0.000143899,-6.01512e-05 0.000973566,-6.5366e-05 -3.71677e-05,-5.8371e-05 -0.000345778,4.81746e-06 6.72575e-05,-0.000182991 -0.000120582,-3.46494e-06 6.07764e-06,-0.000175234 -9.65302e-05,0.000218463 2.37678e-05,-8.96036e-05 -0.000355036,0.000159309 -0.000149619,-0.00013505 -8.96623e-05,2.42583e-05 -2.09735e-05,-0.000116304 -0.000133812,0.000338885 -0.000550603,7.16123e-05 -0.000163309,-0.000216202 -6.04765e-05,0.000265104 -0.000142319,9.15374e-05 -0.00039693,0.000121744 2.21693e-05,-5.34695e-05 -0.000123905,5.70629e-05 -0.000284815,-2.37113e-05 -3.48232e-05,-0.000687781 0.00028623,-0.000409739 -0.000277353,0.000123412 -7.6792e-05,0.000121669 -0.000210563,-9.90927e-06 6.33876e-05,0.00020443 -7.95873e-05,0.000137947 4.24917e-06,0.000218488 -0.000241299,0.000170054 -8.03373e-05,-2.9101e-05 -1.37587e-05,0.000102158 6.6714e-05,-4.57294e-05 1.4433e-05,5.76664e-05 -0.000285456,0.00048468 -0.000165514,4.65873e-05 8.33298e-05,3.17842e-05 -6.00426e-05,2.21934e-05 3.34302e-05,7.91734e-05 -0.000436851,0.000178975 -0.000105366,-6.04891e-05 0.000222131,-1.81825e-05 0.000243428,-0.000155623 -0.000253015,8.88847e-05 -0.000194361,-6.69403e-05 -0.000221552,0.000168978 -1.90938e-05,6.42785e-05 0.000161263,-7.54456e-05 -3.4592e-05,9.4212e-05 -0.00039687,0.000128058 -0.000439605,9.23222e-06 -1.48449e-05,-9.73949e-05 0.000284188,-3.67795e-05 2.13852e-06,-7.94823e-05 0.000100345,-4.24086e-05 -0.000190684,1.65453e-06 -0.000191741,-0.00019519 -1.33195e-05,0.000144595 -4.2858e-05,-0.000606442 -7.97216e-05,0.000125305 7.50823e-05,-0.000381716 8.57711e-05,-0.000113619 3.9998e-05,4.57059e-05 4.19711e-05,-0.000144844 6.90281e-05,-1.32408e-05 -3.47799e-05,7.61535e-05 7.81076e-05,4.74033e-06 0.000139594,-0.000163751 4.84922e-05,-0.000468173 -6.65922e-05,5.74667e-05 -5.97201e-05,-4.19227e-05 9.72322e-05,-0.000151644 0.000106656,-5.44047e-06 1.92625e-05,-4.8026e-05 -8.0724e-05,2.86934e-05 7.78381e-05,-0.000116259 5.59276e-05,5.73065e-05 -3.71623e-05,-0.000153187 0.00012574,-7.0622e-05 0.000143163,-0.00029562 5.78096e-05,4.82601e-05 9.23541e-05,-5.04665e-05 5.19621e-05,-0.000134095 -9.00751e-05,-1.54721e-05 0.000136635,-6.80079e-05 -0.000273058,-3.37497e-05 -2.09043e-05,-0.000109984 -9.23915e-05,4.68547e-05 7.62667e-05,-0.000457579 -5.12968e-05,-8.71456e-05 -8.50403e-05,0.000278861 -0.000268211,0.000242525 -8.64855e-05,-0.000145535 -4.31272e-05,0.0001286 -0.000374981,-0.000238751 0.00022719,0.000184047 0.000156294,0.000397769 -3.45919e-05,9.42118e-05 -1.93405e-05,-0.00014973 -0.000107396,-6.58902e-05 1.50321e-05,0.000115453 6.69952e-05,-1.86411e-05 2.25081e-06,0.0002167 -9.12386e-05,0.000157913 -6.18083e-05,-5.27407e-05 -6.41098e-05,0.000106207 0.000107828,0.000107424 2.17572e-05,0.00019215 -0.000301475,0.00046495 -7.44497e-05,6.20495e-05 -0.000279279,-6.16911e-05 0.000337518,-3.90467e-05 -7.82387e-05,-1.73814e-05 5.22018e-05,-0.000206336 -0.000353325,3.91837e-05 4.87545e-05,0.000127803 -0.000164934,-8.79668e-05 -4.08864e-05,5.90493e-05 -9.37707e-05,-8.58749e-05 0.000237618,0.000426864 -7.57904e-05,-6.70677e-05 -1.65186e-05,0.000122048 -2.75248e-05,-0.000176749 -9.22768e-05,-3.71259e-05 3.45718e-05,0.00018933 -4.82858e-05,-8.26572e-05 -8.44975e-05,0.000236415 -0.000453728,7.61721e-05 0.000194612,9.13223e-05 0.000100261,0.000139999 3.0078e-06,0.000289836 -0.000119205,0.000129259 7.02282e-05,0.000102333 0.00032408,-0.000382068 -0.000202508,-0.000280883 0.000414094,-0.000277198 -8.75509e-05,0.000132597 5.16944e-05,3.02537e-05 -0.00029917,0.000116371 0.000183047,0.000119415 7.17092e-05,0.000244994 -0.000264622,0.00039871 -0.000184863,8.64841e-05 -7.63886e-05,0.00025621 -0.000145681,5.36364e-05 7.42877e-05,1.74162e-05 -0.000166143,0.000176621 -0.000276749,8.72796e-05 -6.95538e-05,-3.73233e-05 -0.000130525,8.60124e-05 -1.77046e-05,0.000103095 -0.00014283,4.2775e-05 0.000145368,1.13829e-05 -0.000116824,7.32517e-05 -0.000394137,0.000106355 -0.000202054,-0.000141827 -2.43311e-05,0.000131145 -0.000604664,0.000195766 -7.60711e-05,-9.41566e-05 -0.000343217,-0.000128868 4.92883e-05,-1.12623e-05 -7.7408e-05,-0.000223274 7.69024e-05,-0.000111734 -3.53537e-05,-0.000265176 0.000122069,-0.000425465 0.000188505,-0.000212029 -1.42845e-05,-0.000138938 0.000103525,-2.16647e-05 -7.85103e-05,-4.35676e-05 -1.78656e-06,-0.000172457 0.000117982,-0.000247539 -0.000101,-2.07981e-05 0.000116842,-7.14448e-05 -3.25455e-05,-0.000184833 2.69039e-05,0.000117157 3.8064e-05,-4.54793e-05 4.26693e-05,-0.00026856 -7.96042e-05,-0.000149209 6.73517e-05,1.56712e-05 6.67845e-06,-0.000118351 -5.53368e-05,-4.24171e-07 0.000170088,-0.000368089 -9.51648e-05,-2.98784e-05 0.000116414,-1.72614e-05 0.0001131,-0.000146362 0.000199264,-3.15236e-05 8.15308e-05,-0.000141573 8.92555e-05,3.17353e-05 4.72132e-05,-0.000115992 -0.000146652,-4.02684e-05 0.000359696,-9.16079e-05 0.000181293,-0.000239961 -0.000199661,8.84167e-05 -0.000242242,-1.59627e-05 -9.4461e-05,-0.000152692 -1.43449e-05,-0.000240073 -9.52234e-05,0.00034577 -0.000289026,0.000141563 -0.000181496,-0.000160969 -3.72603e-05,-0.00016312 -5.36713e-05,0.000160295 4.38523e-05,0.000227176 -8.82883e-05,0.000156983 0.000140528,2.13591e-05 -6.3003e-05,0.000117935 -0.000193682,-1.93634e-06 1.0787e-05,8.74975e-05 -0.000234956,0.000210625 -0.000385446,-9.30856e-06 -0.000171859,-0.000184532 -8.25903e-05,-0.000342425 3.75512e-05,-0.00038139 -0.000101185,-3.88572e-05 -3.02733e-05,-0.000347393 -0.000141685,-0.000133322 -5.44927e-05,0.000176556 -7.52499e-05,-0.000206136 5.99278e-05,-0.000128744 -0.000118485,-8.74699e-05 -8.66215e-05,-0.0002548 0.000191582,-0.000391751 -0.000114539,7.31085e-06 2.98488e-06,9.74981e-05 -0.000157515,5.55411e-05 9.93015e-05,4.79039e-05 -0.000412466,0.000148044 -0.000203599,-0.000101183 1.68311e-05,-9.22513e-05 -0.000133275,-8.46338e-05 -0.000377433,5.50239e-07 -0.000179776,-0.000186272 -3.86415e-05,8.52155e-05 0.000100197,0.000134585 0.000277156,0.000143893 -7.77884e-05,2.59557e-05 -2.91617e-05,0.000142023 0.000150441,-7.083e-05 -3.99266e-05,0.000152049 0.000158935,8.17034e-05 -1.18897e-05,0.000187926 9.60221e-05,0.000112949 -9.87756e-05,0.000194095 3.23062e-05,6.65429e-05 6.03396e-05,-8.9015e-05 0.000113339,6.7649e-05 -4.0524e-05,9.42619e-05 0.000177928,0.000389462 -7.48288e-05,0.000312181 5.5626e-05,2.84154e-05 -0.000173678,0.000117084 -0.000627728,-0.000220329 7.31029e-05,9.41838e-05 -7.97921e-05,0.000118982 0.000103784,-9.20989e-05 0.000146289,0.000100776 0.000254551,0.000250641 6.94428e-05,0.000217926 -1.25993e-05,0.000119305 -8.16297e-05,3.6825e-05 -0.000245132,8.69988e-05 -0.000153605,-4.38236e-05 0.000265175,0.000131354 9.2968e-05,0.000199663 0.000132083,-3.09398e-05 4.63628e-05,8.80934e-05 0.000112566,-7.29335e-06 0.000215671,0.000408098 -3.73062e-05,0.000214333 -9.13308e-05,0.000149784 -0.00013679,5.35556e-05 7.13228e-05,1.74438e-05 -7.06111e-05,0.000146896 -0.000198773,7.93748e-05 -0.000229963,-7.02538e-05 -6.5899e-05,-6.62528e-05 5.30347e-05,-3.11599e-05 -0.000111086,-4.05787e-05 5.97639e-05,-4.9278e-05 -0.000161791,-7.08429e-05 8.45386e-05,-4.22679e-05 -0.000232107,-8.64899e-05 -0.000140093,-0.00017036 4.31757e-05,0.000162167 -5.94735e-05,0.000172986 -9.60577e-05,0.000170593 -8.65627e-05,-5.79478e-05 -0.000100197,0.000152569 -0.000344142,-2.77324e-05 -0.000359168,-0.000238905 -0.000405994,-8.49926e-05 -0.00014258,-0.000315723 -4.73773e-05,0.000100641 -0.000223847,4.34677e-05 0.000239245,0.000299539 0.000392181,0.000278354 1.02561e-06,9.93211e-05 0.000278394,0.000167363 0.000219805,0.000234689 7.09399e-06,0.000112814 7.99626e-05,-0.000102729 6.06882e-05,4.01113e-05 -4.16354e-05,8.25321e-05 0.000178961,0.000106816 0.00064509,0.000273458 0.000115834,0.000213011 -5.62204e-05,0.000200951 5.82181e-05,-7.72669e-06 -7.49009e-05,0.000114425 -0.000494565,0.000141525 2.6323e-05,6.11767e-05 -0.000115457,0.000110259 -5.38101e-05,-4.37825e-05 -3.08961e-05,0.000261233 3.51416e-05,0.000149594 6.61683e-05,-9.89979e-05 -4.25784e-06,0.000161673 -0.000218041,0.000414552 -0.00056459,0.000154769 -4.81517e-05,0.000121417 -2.71994e-05,-0.000146051 -0.000102624,1.35271e-05 0.000104993,0.000215814 -5.19054e-06,0.000262817 6.15003e-05,2.29475e-05 -2.26972e-05,-9.28131e-05 0.000107826,0.00010743 -1.85657e-05,0.00030718 6.22093e-05,9.15692e-05 -7.92094e-05,0.000175865 6.11369e-05,-1.22664e-05 1.16587e-06,0.000112865 -0.000218335,0.000482279 -0.00018466,0.000107243 5.06511e-05,2.48471e-05 -7.39811e-05,0.000203813 -2.28372e-05,-0.000106357 -4.93083e-05,0.000200891 -0.000137021,0.000127601 -0.000120821,-2.60482e-05 8.44037e-05,0.000327061 5.27392e-05,-6.00527e-05 -7.86145e-05,0.000233651 8.16166e-05,5.70881e-05 1.18106e-05,0.000282537 -0.000179098,7.19782e-05 -0.000376037,-0.000148462 4.61774e-05,-2.5682e-05 -0.000379896,5.20361e-05 0.000122779,2.42259e-05 -0.000275778,8.72583e-05 -0.000188046,-2.90818e-05 -0.000192281,0.000326736 -0.000230832,3.81081e-05 -0.000154181,-0.000194623 6.08589e-05,-3.9353e-05 -5.97976e-06,-0.000388238 6.07935e-05,-4.56735e-05 -7.61531e-05,-0.000102286 0.00013267,-0.000166391 -1.6954e-05,-0.000110923 0.000134357,-9.8681e-05 8.41887e-05,1.91408e-05 9.75937e-05,-0.000118231 0.000139854,0.000146887 1.13177e-05,-0.000243907 -0.000218507,8.31522e-05 6.40746e-05,-0.000110718 0.000154023,-1.21628e-05 -0.000138735,-0.000134255 7.73691e-05,-0.00045036 7.16804e-05,-0.000139679 0.000159074,-1.37049e-06 -0.000130048,3.72404e-05 1.09236e-05,0.000101042 -9.39761e-05,8.56915e-05 0.000106548,0.000270885 0.000553044,-0.000795793 -8.11769e-05,-0.000110369 0.000124977,-4.98391e-05 -0.000116465,-0.000370129 -0.000216723,-0.000127261 -1.78503e-05,8.95507e-05 -0.000534027,-0.000330412 -1.81903e-05,-0.000422447 0.000158953,-0.000204544 0.000243045,-9.87146e-05 -6.57124e-05,-4.81958e-05 0.000182542,-2.50507e-05 0.00013398,-0.000134798 0.000103947,1.89702e-05 2.20007e-06,-7.40649e-05 0.000782268,-0.000413093 4.86173e-05,-0.000267707 -0.00016333,-0.00050698 -2.44765e-05,0.000117601 -9.07198e-05,-0.000173497 5.5254e-05,-7.70035e-06 -0.00019447,-0.000269223 7.26838e-05,-4.21645e-05 -0.00014615,8.48382e-06 -0.000129736,-0.000124399 -0.000307765,0.000146229 -0.000264171,-3.38439e-05 -0.000203174,-0.000155372 -1.29642e-05,-0.000107345 -5.8703e-05,5.64916e-05 -0.000369574,-0.00038601 -0.000432745,3.7255e-06 1.6385e-05,5.58449e-05 -0.00014273,5.26995e-05 -0.000299654,-2.54142e-05 -0.000266646,-0.000178306 2.5612e-06,-0.000326908 7.44927e-05,-5.84329e-05 -8.12764e-05,-2.45848e-05 0.000145453,-7.62004e-05 2.22516e-05,-0.000141962 0.000119345,-0.000116611 7.35118e-05,3.81964e-05 1.02279e-05,-0.000158113 0.000153029,-0.000107871 -5.57929e-05,-4.46698e-05 0.000118935,-0.00015634 -7.07616e-05,-5.8989e-05 0.000227268,-9.4965e-05 6.66221e-05,-0.000438528 0.000365338,-0.000407689 6.74064e-05,2.10916e-05 0.000151183,-0.000190932 0.000233351,-7.96677e-05 0.000129482,4.3027e-06 -7.06133e-05,5.11762e-05 0.00029496,-4.58849e-05 5.91106e-05,7.89547e-05 0.000200197,-3.6942e-05 5.40871e-05,7.08709e-05 0.000117915,-6.33232e-05 1.03495e-06,-9.12119e-05 0.000206563,-9.02743e-05 0.000208725,2.34847e-05 -1.85664e-05,-0.00017141 0.000141505,0.00011617 0.000179104,-0.000261608 0.000254395,-0.000146674 4.34144e-05,-0.000197228 -5.89625e-05,-0.000255943 -0.000181563,0.000214674 -0.000332146,-1.51962e-05 5.38913e-05,-4.38086e-05 -0.000156398,-2.75477e-05 -0.000182887,-0.000200695 -4.58833e-05,-0.000424917 -0.000211546,-0.000201352 -0.000127901,-0.000521735 -0.000141916,0.000418409 -0.000130813,5.80159e-05 3.50818e-05,4.84598e-05 -0.000297379,2.56156e-06 -0.000196408,-0.000170781 -7.06366e-05,-0.000238687 0.000115611,8.1044e-07 -0.000260017,-0.000302975 5.26267e-05,-0.000262323 -0.000430789,9.65488e-08 -1.76141e-05,-7.93124e-05 -0.000185326,-5.4391e-05 0.000160325,0.000217146 -5.43583e-05,9.43799e-05 6.11886e-05,-6.84765e-06 1.39584e-05,0.000203958 3.24277e-05,-0.000113154 7.46913e-05,0.000152867 -0.000130396,0.000194364 -0.000229238,9.49819e-05 -0.000300872,-4.88821e-05 -0.000292309,-0.000368619 -0.000111222,4.15917e-05 -4.10992e-05,-0.000153157 0.000151995,7.99627e-05 -0.00011747,-0.000181396 -0.000119658,8.59111e-05 -4.80983e-05,-0.000161223 -9.21315e-05,-2.35887e-05 2.00433e-05,-0.000164518 -7.15263e-05,5.84071e-05 4.68432e-05,3.93292e-05 -6.91945e-05,-3.01702e-06 -8.46432e-05,-0.000160006 -8.22471e-05,0.000456722 -0.000146791,0.000137615 -0.000378722,-0.000124971 -6.28396e-05,3.84661e-05 -3.03821e-05,-7.1979e-05 -4.27863e-05,0.000162908 6.56888e-05,4.63915e-05 -9.40797e-05,-2.08636e-05 -1.78848e-05,-0.000297837 -8.5333e-05,-0.000131105 -9.48862e-05,0.000380979 5.72112e-06,-0.000212254 -9.45995e-05,-7.14273e-05 -0.000449393,1.6502e-05 -9.78508e-05,-9.93928e-05 -9.18382e-05,0.000101022 0.000141219,8.90874e-05 1.93948e-05,0.000252674 -5.2288e-05,7.67304e-06 0.000285351,0.00055741 9.71962e-05,-6.04329e-05 9.00831e-05,-0.000271674 -4.33891e-05,-0.000183839 0.000101376,5.78242e-05 -9.36798e-05,0.000498358 -9.4028e-05,8.02718e-05 -0.000167339,-3.46827e-05 -0.000212992,-0.000438835 -9.90091e-06,-0.000386399 -0.000157222,-0.000107913 0.000121634,-0.000278266 -0.000373662,0.000174778 -0.000195009,-3.53491e-05 -9.13149e-05,-0.000136472 0.000198799,0.000115684 0.000164873,-0.000108872 0.000124687,1.87956e-05 2.06771e-05,-0.00010312 -0.000109177,-4.78247e-05 7.47695e-05,-3.1344e-05 -0.000377884,-4.37122e-05 -0.000432708,-0.000379159 0.0001894,-0.000221957 0.000124626,0.000109097 -1.85022e-05,-0.000165993 0.000118944,3.69052e-05 0.000277007,-0.000157694 -6.62628e-05,-0.000102373 0.000246015,9.54121e-05 -1.84885e-05,-6.84693e-05 9.24407e-05,-4.23317e-05 0.000115048,4.23562e-05 -0.000159722,-0.00082419 -0.00110078,0.000132431 -0.000627161,0.000175596 -0.000851502,0.000447502 -0.000481524,0.000407069 -0.000394179,0.000479162 -0.000294139,0.000535827 -0.00133368,0.00327522 -0.00041952,0.000561712 -0.000524404,0.00048253 -0.000611763,0.000387221 -0.00493531,0.00254774 -0.000860299,0.000517903 -0.00637315,0.00521339 -0.000900076,0.000482148 -0.00100669,0.000250413 -0.000695959,2.88954e-05 -0.0025636,-0.000280621 0.000397544,0.00098999 5.89488e-05,-9.36887e-07 -0.000200713,8.6575e-05 7.55324e-05,4.27073e-05 -5.02649e-05,1.30659e-05 0.000121222,6.58001e-05 9.13301e-05,-0.000154281 -5.20958e-05,0.000321006 6.30581e-05,0.00017736 -0.000141312,-9.81388e-05 2.49966e-05,0.000224637 4.93441e-05,-0.000104262 0.000139683,0.000132467 -0.000111454,2.08061e-05 -4.69211e-05,0.000148488 6.94767e-05,3.01162e-05 2.21366e-05,-0.000156406 4.01621e-05,6.28716e-05 1.91782e-05,-5.7954e-05 3.54101e-05,0.000179399 0.000357852,0.00011076 -0.000152425,7.35263e-05 8.17993e-05,7.60653e-05 0.000651842,-3.52999e-05 0.000353825,0.000201092 -8.62136e-05,-0.00031713 -5.8665e-05,6.18996e-05 -8.30731e-05,-0.000397524 4.5904e-05,-0.000151189 8.85313e-05,0.000155472 7.43222e-06,-0.000144543 0.00041786,0.000572588 -2.63608e-05,0.000129352 -2.68959e-05,-0.000118969 -5.26572e-06,0.000261013 6.63377e-05,0.000110509 0.000242064,9.36739e-05 -6.44839e-05,7.2785e-05 7.60821e-05,9.68818e-05 0.000134619,2.23409e-05 8.47637e-05,0.000173564 6.09608e-05,-3.03142e-05 8.42249e-05,0.000120291 0.00018644,6.52468e-05 0.000161119,-0.000288517 -0.000120018,5.33886e-05 -0.000136596,-2.23238e-05 -2.54518e-05,-7.38312e-05 0.00031396,-2.79375e-05 9.44911e-05,6.06056e-05 0.000849749,-0.000399089 0.000519867,8.24386e-06 0.000268141,0.000131375 0.000387051,-3.12695e-05 -0.000234227,-0.000490154 -0.000246731,-0.000164064 -0.000149184,-0.000289505 0.000254846,0.000184765 0.000105863,1.2649e-05 -2.77401e-05,-0.000104514 -0.000219786,-4.0581e-05 -6.32654e-05,-9.9698e-05 0.00013976,4.21614e-05 -3.69988e-05,-0.000140555 -0.000488271,-0.000401317 0.000132943,-4.53719e-05 -9.30446e-05,-0.000112991 1.26715e-05,-0.000114789 0.00016049,0.000235229 -9.82872e-05,5.23028e-05 0.000265777,9.34696e-05 0.000248276,0.000219135 -0.000183428,-0.000255804 -0.000292721,-0.000216953 -3.4839e-05,-0.000122514 0.000520621,0.000375759 0.000188724,-0.000196646 -2.96143e-05,0.000198008 0.000111779,-0.000475926 -3.45261e-05,0.000395808 0.00013923,0.00018484 1.58027e-05,0.000389061 0.000568489,0.000710364 -8.03817e-07,0.000115591 3.38048e-05,-7.70416e-05 0.00025891,9.804e-05 0.000155556,0.000235269 0.00015506,8.89863e-05 0.000336997,2.56171e-06 3.30271e-05,-5.62662e-05 -0.000329562,-0.000243726 -0.000274399,-6.6303e-05 4.71005e-06,-0.000120139 6.17933e-05,5.18506e-05 3.0318e-05,-0.000128483 4.11731e-05,0.000162192 1.89373e-05,-8.14308e-05 4.06051e-05,0.00010621 3.27156e-05,-8.69655e-05 0.000204895,0.000131005 -9.06958e-05,-7.59866e-05 7.78213e-05,-2.41377e-05 1.82589e-05,-0.000148247 -0.000114457,-0.000177825 -0.000238847,-0.000165935 2.87019e-05,0.000101796 -0.000259384,-4.74675e-05 -2.69912e-05,-0.000127998 -0.00018462,-0.000178134 -4.37474e-06,-0.000139025 0.000209602,-8.66579e-05 0.000571736,0.000445754 0.000171083,-0.000182051 -4.27555e-05,-0.000123349 7.19912e-05,-0.00011168 0.000226183,8.65768e-05 0.000171239,0.000320017 0.000107629,-8.13671e-06 0.000104469,-0.000124597 9.9185e-05,3.61819e-05 7.48705e-05,0.000171839 -5.5782e-05,0.00034542 -0.000154922,-7.54413e-05 1.66899e-05,8.65467e-05 -6.80157e-05,-8.06934e-05 -4.5943e-05,0.000146676 -1.85193e-05,-7.20832e-05 4.02894e-05,0.000269656 0.000167972,0.000192721 6.10603e-05,-2.0384e-05 0.000137179,0.000274252 0.000297231,0.000173564 0.000323213,0.000396384 0.000111487,-0.000114725 9.74913e-06,-0.000401919 -6.1455e-05,-1.84414e-05 3.51676e-05,-0.0003317 -5.78756e-05,4.20293e-05 -0.000204758,-0.000700798 0.000156795,-0.000323703 -4.41884e-05,-0.000264205 0.000134753,0.000230025 4.62719e-05,-0.000114171 -7.61134e-05,-9.95873e-05 0.000121593,0.00010191 2.77278e-05,0.000200231 0.000187946,0.000213319 0.000107609,0.000475872 0.000105031,-0.000263666 0.000203718,-8.20971e-05 -7.47123e-06,-0.000151641 0.00040465,-0.000243636 -4.26203e-05,-0.000109804 7.53519e-05,2.4644e-05 0.000205595,0.000199623 1.49751e-06,0.000147177 -0.000480798,0.000723777 9.97121e-06,0.000203091 -5.52233e-05,1.13051e-05 -2.77201e-05,-0.000199328 -1.65552e-05,0.000121143 -4.8145e-05,-7.00253e-05 -0.000144751,0.000147516 -3.94526e-06,0.000195082 7.34041e-05,2.73697e-05 6.92938e-05,0.000206199 -4.78679e-05,0.000248732 6.95898e-05,4.09471e-05 -9.78243e-05,0.000194976 0.000157174,0.000490801 0.000248075,0.000100835 0.000213203,-0.000218532 -4.34115e-05,-0.000187456 0.000113279,-0.000132801 -3.60128e-05,-4.30381e-05 0.00031772,-4.6947e-05 -7.88835e-05,0.00021107 8.03304e-06,0.000206719 4.68135e-05,-6.0899e-05 8.65844e-06,7.39726e-05 -0.000119254,0.000128337 0.000107865,0.000111959 9.50396e-06,0.000157042 -0.000166959,0.000101652 -5.38451e-05,-4.74016e-05 0.000114198,-4.25085e-05 -0.000173853,6.89534e-06 -4.39464e-05,0.000148466 6.80279e-05,8.15952e-05 0.000211208,-2.61759e-05 0.00020823,0.000263713 -5.16257e-05,7.3582e-05 8.09566e-05,0.000283757 -1.45598e-05,0.000705368 0.000176861,0.00028836 6.75705e-05,0.000424739 0.000273783,0.000489808 0.000117083,0.000143485 0.000314711,0.000141803 0.000173047,-8.63544e-05 -0.000135564,-0.000114431 0.00016198,-8.60212e-06 2.04068e-05,6.30365e-05 0.000103822,-9.11836e-05 -0.000136602,-2.23157e-05 9.56041e-05,-0.000121816 -3.7643e-05,-0.000202855 6.04176e-05,-8.35902e-05 -8.55715e-06,-0.000839719 -3.32282e-05,3.64028e-05 2.46515e-05,-0.000102249 -8.41248e-05,-0.00010945 0.000119563,-1.0173e-06 7.6978e-05,8.69361e-05 0.000219916,0.000827987 -0.000227713,-0.00101123 -0.000173357,5.56551e-05 0.000125431,-0.000104009 9.31042e-05,2.08798e-05 0.000160474,0.000231609 7.04045e-05,0.000314548 -5.51786e-05,1.58207e-05 7.88811e-05,7.96958e-05 -7.84025e-05,-3.27438e-05 7.66162e-05,0.000148343 -7.50885e-05,1.5421e-06 3.61366e-05,0.000248921 0.000225606,2.87817e-05 0.000195858,-0.000756577 -0.000278185,0.000726575 3.97648e-05,-0.000267627 -7.94611e-05,-0.00013658 0.000173395,-0.000342811 2.01248e-05,-0.000352342 0.000102363,0.000153542 5.79983e-05,-0.000126914 0.000117065,0.000432444 -4.46309e-05,0.000274892 -3.44341e-05,-8.18799e-05 -3.4639e-05,0.00057641 -0.000127871,0.000155502 -6.01164e-05,-8.07583e-05 -0.000165435,5.73944e-05 1.1506e-06,0.000112865 0.000150687,-5.00448e-05 -6.60149e-05,0.000406913 -5.19661e-05,4.01744e-05 -2.93555e-05,-6.83782e-05 -5.22915e-05,0.000105193 8.60598e-05,8.29746e-06 -7.46017e-05,0.000340164 3.29615e-05,-6.25877e-05 2.6695e-05,9.81999e-05 0.000676539,0.00044574 6.08687e-05,-3.93475e-05 -0.000115647,-9.92481e-05 3.18653e-05,-0.000170036 0.000147179,0.000284095 4.09308e-05,-5.63347e-05 -0.000385358,-0.000576445 0.000347635,0.000172222 0.000170888,0.000186369 -0.000134276,1.19798e-05 6.84463e-05,0.000122225 0.00019459,-8.88176e-06 -0.000149414,7.8028e-05 -6.95291e-05,-3.46247e-05 5.59807e-05,6.27332e-05 0.000378474,9.52025e-05 -3.4046e-06,-0.000139936 -6.9133e-05,4.20109e-06 6.32892e-05,-9.26454e-05 8.14074e-05,-6.02918e-05 0.000140555,2.22802e-05 0.000100095,0.000124664 -0.000140528,-1.95713e-05 0.000248833,0.000173964 -2.76329e-05,0.000100469 0.000142654,-6.26201e-05 0.00036333,6.37242e-05 0.000948659,0.000479528 0.000278951,0.000219757 0.000333826,0.000560622 6.65871e-06,-0.000121962 -0.000223985,-0.000449588 0.000267289,0.000238819 4.41343e-05,-3.28848e-05 -7.79341e-05,-0.000179935 -0.000157725,-5.82514e-05 0.00010926,-4.24708e-05 -0.000208829,-0.00051383 -0.000173737,-0.000174602 -0.000107401,-0.000259148 -0.00012915,-6.66229e-05 6.86252e-05,-5.38626e-05 -0.000196738,-0.000298117 6.45996e-05,-0.000157673 -0.00036912,4.64932e-05 -0.000220574,-0.000116412 0.000497216,1.38185e-05 -0.000494888,-7.61454e-05 0.000535569,-4.56873e-06 -6.15762e-05,-0.000223419 -0.000300825,-0.000136496 -0.000103569,1.89434e-05 2.08879e-05,0.000109988 -0.000461023,-5.02485e-05 -0.000408574,-0.000236715 0.00036955,9.25678e-05 0.000672815,-1.56709e-05 -0.000341486,-5.39764e-05 0.000162626,-4.2022e-05 -0.000476557,7.3595e-05 -0.000328104,-9.8339e-05 0.000560289,-9.9592e-05 0.000296142,6.51994e-05 -6.36159e-05,-0.000229723 -3.82985e-05,0.000120426 -0.000199193,-0.000151811 -0.000390465,-0.000108643 -0.00025256,-0.00015226 6.00748e-05,-0.000116999 -3.78029e-05,-0.000218204 0.000291817,0.000125739 0.000324529,3.8771e-05 -6.97995e-06,-0.000102883 -0.000201684,-0.000202359 -1.26454e-05,-0.000367414 5.02894e-05,0.00018288 0.000160481,3.83637e-05 -0.000152193,-0.000291275 0.000116661,0.000101947 8.76524e-05,0.000261123 0.000271861,0.000106945 0.000299804,0.000327038 -0.000176329,-4.18398e-05 9.04256e-05,0.000145515 0.00019032,5.70713e-05 0.000186535,-0.000119885 -6.26277e-05,-0.000326352 -6.70262e-05,1.68259e-05 -0.00015131,-0.000204593 6.67964e-05,-0.00013602 0.000181952,0.000108614 -9.52646e-05,-0.00013554 -1.66644e-05,-0.000470321 -0.000348328,-0.000434081 0.000117262,-3.26053e-05 -8.95296e-05,-5.79314e-05 0.000417602,-3.96827e-05 6.43127e-05,-0.000282285 8.04897e-05,-5.30609e-05 3.55564e-05,-0.000388594 -0.00020317,-5.78644e-05 -0.000534936,0.000161685 -0.000299917,0.000241853 -0.000141095,-7.55521e-05 0.000495558,-0.000630909 0.000525875,-0.000177862 9.11468e-05,-0.000170542 -0.000209227,-7.04549e-05 -0.000469975,3.9226e-05 -0.000272456,-6.90137e-05 -0.00048175,4.7451e-05 0.000431239,-0.00015538 -0.000434738,0.000103036 0.000734698,-0.000340374 -0.000558558,-0.000119852 -9.78564e-05,-9.9399e-05 2.19427e-05,-7.69422e-05 0.000525748,0.000100266 0.000356381,-0.000131266 0.000256026,0.000105273 0.000189771,-0.000189443 -6.2498e-05,-0.000120469 0.000119117,-0.000140982 -1.5411e-05,-0.000154282 -0.00016101,-0.000283975 -0.000422031,-0.000201381 0.000151177,-1.28946e-06 -7.28404e-05,-6.89098e-05 7.75791e-05,-4.76178e-05 -3.57992e-05,-0.000215512 -0.000239535,-0.00042598 -0.0002985,-0.000104009 1.29665e-05,-8.49927e-05 0.000226022,-0.000122929 -0.000251778,-0.000367181 -0.000311953,-6.68718e-05 7.77629e-05,-2.95589e-05 1.42608e-05,-0.000151826 -0.000364344,-0.000262377 -0.00077026,-4.76182e-05 -7.67997e-05,-6.97801e-05 0.000130357,-0.000201577 0.000352602,-1.65485e-05 0.000128304,-0.000112162 6.90404e-05,-0.000206473 6.71516e-05,-4.18418e-06 -7.10162e-05,-0.000568286 -0.000252641,-0.000258815 0.000248411,-5.90054e-05 2.2958e-05,-7.42418e-05 -0.000261231,-0.00051971 7.18081e-05,-0.000128838 0.000449147,5.21592e-05 0.000168733,-0.000313877 9.18235e-06,-0.00103672 -8.049e-05,-0.000141085 -0.000159729,-6.2752e-05 0.000347617,-0.000116741 0.000341851,9.28041e-05 -4.88306e-05,5.64024e-05 0.000158822,0.000167507 7.07516e-05,0.000542101 0.000149984,0.000366243 -4.54804e-05,0.000771551 -0.000161162,0.000474547 0.000219145,0.000752138 0.000681011,0.000694016 0.000662733,0.00122513 0.000172027,8.46412e-06 0.000313997,-0.000216693 6.36615e-05,-0.000152248 0.000177438,5.44703e-05 1.93086e-05,-0.000141033 0.000137065,-0.000124882 -8.78822e-05,0.000296032 -0.000139143,0.000114967 0.00010047,-3.15603e-05 0.00011409,-0.000245688 0.000130472,-9.32209e-05 -8.07067e-05,0.000321255 -0.00027089,0.000276827 -0.00020263,0.000574233 0.000116382,0.000364721 0.000202724,1.45222e-05 -0.000213168,0.000316968 1.472e-05,8.65623e-05 0.000158012,8.71442e-05 -0.000129726,0.000166357 6.52069e-05,0.000578266 2.03532e-05,5.76182e-05 0.000245344,2.67998e-05 5.10952e-05,6.81914e-05 -0.00010351,2.43625e-05 0.000123808,2.78381e-05 -0.000151447,7.17281e-05 -8.80047e-05,0.000187673 6.48758e-05,0.000545761 0.000362766,0.000202784 -8.54285e-05,0.000149725 -0.000299867,0.000149752 -4.74601e-06,0.000115625 0.000297506,0.000198827 -0.000245965,0.000105947 -7.2935e-05,0.000115304 -1.7166e-05,0.00025389 0.000205694,1.44963e-05 1.33069e-06,0.000130021 -0.000214143,0.000222162 6.26435e-05,0.000713738 -0.000113697,0.000381135 4.22867e-05,7.63937e-05 -7.1967e-05,1.68689e-05 -0.000143286,0.000386805 0.000149551,0.000321996 0.000121585,-0.000286387 7.7859e-05,-2.05313e-05 -1.28008e-05,-0.000188618 6.12747e-05,0.000193621 -7.73858e-05,0.000356443 0.000119925,0.000130813 0.000184069,-7.11042e-05 -7.45814e-05,-4.54155e-05 0.000283101,-0.000340142 -0.000134197,0.000405691 -0.000121577,9.40482e-05 -2.7167e-05,0.000242236 0.000252848,-0.000399481 8.12907e-05,-0.000360992 0.000125778,-6.97034e-05 -0.000222756,0.000732431 2.3061e-05,0.000128932 0.000167291,2.74657e-05 -0.000231039,2.00352e-05 -7.22182e-05,-0.000104131 -4.29595e-05,0.000147556 5.74424e-05,0.000108772 6.63892e-05,-7.91285e-05 0.000205209,-3.33594e-05 -0.000150528,0.000162021 -6.77481e-05,-5.36008e-05 0.000197429,0.00036493 9.62798e-05,0.00110264 -5.29616e-05,0.000811347 0.000478913,0.00102352 0.000206926,0.00013368 -0.000136952,0.000329863 0.00010252,0.000939145 0.000887673,0.000213638 0.000210859,-6.14034e-05 2.2253e-05,-0.000142864 0.000119911,0.000321344 0.000636994,-4.24795e-05 0.000400163,0.000184394 -0.000287612,-0.00067659 -0.000333471,-0.000138011 -0.000418978,-0.000381089 -0.000220731,-0.00032319 -3.5001e-05,-0.000329295 -0.000172862,-0.000281159 -0.000326667,-5.31898e-05 3.75202e-05,-9.9651e-05 -9.56758e-05,1.79758e-05 5.55178e-05,-0.000175657 0.000217825,-0.000152665 -0.000169931,-0.000188175 0.000111669,-9.66737e-05 0.000272675,-7.75215e-06 9.68342e-05,-0.000194071 -0.000535214,-0.000152541 -0.000253706,2.6552e-05 -0.000126985,-0.000144296 0.000228888,-0.000133796 0.000529325,-3.61354e-05 -0.000194918,-0.000119333 -0.000143628,-0.000225424 -0.000264557,-6.81701e-05 7.46088e-05,-4.84974e-05 0.00026561,7.44819e-05 0.000514539,0.000353183 -3.25097e-05,-8.64096e-05 -0.000273951,-0.000116851 -0.000112043,-0.000132685 -0.000302496,-0.000105771 0.000174273,-6.28954e-05 0.000538298,0.000260874 0.000151365,0.000112482 8.69257e-05,0.000188885 7.33102e-06,-5.60487e-05 0.000577648,-0.000142204 -9.45049e-07,-9.20978e-05 -0.000251848,-0.00027416 -9.0579e-05,-6.33371e-05 -0.000128098,3.63141e-05 0.000152088,-0.000106051 -0.000189879,8.28962e-05 -0.000183252,-4.17747e-05 0.00016666,-0.000130556 -9.9521e-05,-0.000164397 1.67189e-05,-0.000200609 -0.000180805,-9.23638e-05 -0.000124529,-0.000193982 -0.000211196,-6.8626e-05 0.000315883,6.23117e-05 0.000257811,0.000277722 4.70233e-05,-4.01347e-05 8.70918e-05,0.000205138 0.000232624,0.00013436 -0.000171146,-0.000403078 -4.97561e-05,6.27331e-05 -2.0476e-05,-6.93556e-05 -0.000206043,-4.79005e-05 -0.000213258,-0.000173356 0.000464237,0.000170304 -8.40176e-06,-0.000241029 -0.00051309,-0.000212326 -0.000254118,-1.40787e-05 -0.000472633,-0.000411335 -2.0984e-05,-0.000119016 0.000288458,0.000279268 0.000108251,-4.42704e-05 -0.000223496,-0.000111865 -9.43281e-05,-0.000140061 0.000486814,0.000252286 0.000169931,-4.16369e-06 3.09445e-05,-6.61839e-05 0.000131737,2.95741e-05 -7.56419e-05,4.39916e-05 0.000110319,-3.52585e-05 1.89016e-05,-8.41408e-05 -0.000348156,-0.000415108 -0.000236924,-0.00055422 0.00037559,0.000392299 -2.90007e-05,-0.000129784 -0.000245884,-0.000271504 -0.000112896,-2.34148e-05 4.49355e-05,-5.09526e-05 0.000351833,0.000195648 0.000149416,0.000211829 0.000243184,0.000104472 1.0937e-05,0.000102848 0.000173417,0.000142995 6.1987e-05,-0.000219057 0.000200217,0.000154504 4.90915e-05,-3.11225e-05 0.000115305,-0.000319747 -3.71225e-07,-0.000614036 -0.000168586,-0.000153872 -0.000264866,-9.88673e-05 2.0306e-05,-4.35179e-05 -0.000177068,-1.74466e-05 -4.25474e-05,-0.000101675 0.000198618,-9.74189e-05 0.000482888,6.26855e-05 -0.000735838,-0.000445197 -0.000497959,-0.000183561 0.000510867,9.31505e-05 0.000377225,0.000166533 -0.000439229,-0.000238242 0.000264815,-2.26765e-06 0.00045788,0.000129722 0.000102292,-4.69294e-05 5.14033e-05,-0.000190973 -0.00013074,-0.0001253 -0.000515109,-0.000217726 -0.00103319,-0.000243996 0.000205701,-8.12243e-05 -0.000107933,7.49697e-05 0.000683811,9.43798e-05 -0.000538818,-0.000120905 0.000161337,-7.09119e-05 0.000489632,4.63762e-05 0.00015128,-8.79834e-05 0.000564935,0.000162216 0.000215241,-1.80982e-05 -0.000148612,-0.000229895 -0.000249738,-0.000165818 -4.1738e-05,-0.000215459 0.000195744,0.000200595 -9.80046e-05,-0.000209559 -0.000327426,-0.000129033 0.000182669,-1.42065e-05 0.000294906,0.00023406 0.000107342,-3.61367e-05 0.000263753,8.71368e-05 -2.90472e-05,-0.000904557 -0.000163614,-0.000151205 0.000212357,-9.94671e-06 -0.000163583,-5.18752e-05 0.000132025,-3.81543e-05 -8.59814e-06,-0.00054895 -0.000143755,-4.57242e-05 -3.4466e-05,-8.45867e-05 0.000203299,-0.000218462 0.000120904,-0.0003514 -5.58332e-05,-4.82835e-05 -0.000406847,0.000123585 -0.000104941,-1.8967e-05 0.000103221,-5.23553e-05 -0.000162046,1.38818e-06 0.00042001,-0.000285334 0.000467709,-0.000644235 0.000162797,-0.00060189 -0.000118637,-0.000101925 0.000230719,-0.000242176 -5.75381e-05,-0.000214421 6.40315e-05,-0.000211851 -6.06058e-05,-3.19884e-05 0.000219611,2.34012e-05 0.000220973,0.000348469 0.000220154,-1.99482e-05 0.000184473,-0.000415156 1.97179e-05,-0.00115872 0.000255448,-0.000720076 0.000272475,-0.00031297 -0.000518984,-0.000405509 0.000559123,0.000369045 7.03371e-05,1.74564e-05 4.96017e-05,-7.71807e-05 -0.000239562,-4.21911e-05 -0.000453044,-0.000431359 0.000506399,0.000430901 0.000174309,-5.74819e-05 9.08032e-05,8.59087e-05 -0.000173645,0.000602888 -5.08167e-05,0.000535915 0.000185521,0.000840907 3.99998e-06,0.000389159 -0.000126981,0.000528442 -0.000181999,0.000367277 -0.000118476,0.000971741 -0.000303672,0.000836074 -2.73813e-06,0.00108001 0.000265265,0.000618987 -0.000163236,0.000270495 -0.00029996,0.00158282 -9.24433e-07,0.000968023 0.000283893,-6.92577e-05 0.000223607,-0.000261983 7.50415e-05,-6.06205e-06 -6.80362e-05,0.00011075 9.44421e-05,-4.14455e-05 -0.000454768,0.000750683 -2.39006e-05,0.000174484 -0.00033835,0.000540187 -0.0001287,0.000362304 0.00030622,-1.25598e-05 -0.00011024,0.000139105 0.000136971,-3.8198e-05 -3.46173e-05,9.33059e-05 8.33005e-05,2.81813e-05 0.000169997,2.15335e-06 9.86326e-05,-0.000114624 0.000184466,-3.22851e-05 -4.27912e-05,6.71892e-05 9.44157e-05,-4.41543e-05 6.11354e-05,0.000179172 -0.000780237,0.000910597 8.12365e-05,0.000308129 0.000336267,2.60107e-05 0.000139269,8.91047e-05 -5.08727e-05,0.00024244 -0.000221327,0.000388383 6.73894e-05,1.83847e-05 -3.72508e-06,0.000118325 0.000231567,0.000127141 -0.000259667,-7.27204e-05 -0.00016679,-0.000266759 -7.96833e-05,0.000131618 0.00043882,0.000292418 -0.000301142,-6.96557e-05 -0.000134552,-0.000110817 -0.000398428,0.00046485 0.00051311,0.000308939 4.52422e-05,0.000171182 0.00021716,0.000263618 0.000332195,-8.23152e-05 0.000164562,0.000338115 0.000299897,4.43808e-05 0.000260402,-4.82894e-05 0.000160731,-0.000130509 0.000162094,-0.000478176 0.000178987,1.11041e-05 0.000256767,0.000174781 -4.11952e-06,0.000271838 0.000126226,0.000261688 0.000251738,7.00759e-05 0.000274697,-0.000195603 8.02136e-05,-0.000175871 0.000230856,5.76125e-05 -0.000147964,2.65565e-05 -8.74958e-05,0.000236435 0.000107826,-0.000181527 0.000126457,-3.79658e-06 -0.000120523,0.000579858 0.000326715,0.000249126 7.18814e-05,0.000166436 -0.000151174,9.88242e-05 -0.000639395,9.83698e-07 -2.01178e-05,0.000349633 -0.000108834,-0.000204045 3.59224e-05,0.000225441 -0.000267041,-0.000308336 -0.00033628,6.97119e-05 -0.000172757,0.000114359 -0.000539594,9.5838e-05 -6.06391e-05,0.000157642 7.58003e-05,0.000259412 0.000280209,0.000147491 5.61644e-05,0.000367941 0.00025778,0.000176579 -3.76378e-05,8.79142e-05 0.0001834,5.53129e-05 -0.000341541,3.90546e-05 -0.000326146,0.000190625 -9.59844e-05,-1.18176e-05 7.96253e-05,-4.13188e-05 -0.00011848,1.09506e-05 -0.000232689,0.000437243 3.94682e-05,0.000570356 0.000457832,2.49636e-05 0.0001366,0.000117119 -2.50334e-05,6.43279e-05 -0.000230644,5.97732e-05 -0.000276642,0.00029585 2.76608e-05,0.000479254 0.000196895,-0.000266269 8.03687e-05,0.000318971 0.000273088,3.10648e-05 0.000135285,-0.000106813 0.000208555,9.84405e-05 -0.000126063,4.26212e-05 0.000122854,2.96461e-05 -0.000210491,9.75266e-05 -0.000154991,0.000304739 7.92611e-05,0.000595297 0.000208318,0.000267303 0.00015482,0.000446556 0.000119893,-6.60464e-05 4.9156e-05,-0.000217142 0.000119339,7.21169e-05 6.53458e-05,-8.45405e-05 0.000128803,3.14005e-05 0.000215323,-0.000123069 z "/>
</g></g></svg>