<?xml version="1.0" encoding="UTF-8" standalone="no"?>
<!DOCTYPE svg PUBLIC "-//W3C//DTD SVG 1.1//EN" "http://www.w3.org/Graphics/SVG/1.1/DTD/svg11-flat.dtd"
[
<!ATTLIST g xmlns:fme CDATA #FIXED "http://www.safe.com/fme" >
<!ATTLIST path fme:district_id CDATA #IMPLIED fme:precinct_id CDATA #IMPLIED fme:id CDATA #IMPLIED >
<!ATTLIST ellipse fme:district_id CDATA #IMPLIED fme:precinct_id CDATA #IMPLIED fme:id CDATA #IMPLIED >
<!ATTLIST text fme:district_id CDATA #IMPLIED fme:precinct_id CDATA #IMPLIED fme:id CDATA #IMPLIED >
<!ATTLIST use fme:district_id CDATA #IMPLIED fme:precinct_id CDATA #IMPLIED fme:id CDATA #IMPLIED >
]>
<svg xmlns="http://www.w3.org/2000/svg"  viewBox="-0.000467179 -0.000467179 0.0383086 0.0385356"><g xmlns:fme="http://www.safe.com/fme" fill="none" stroke="black" stroke-width="0.000004671786558" transform="translate(0,0.0376012) scale(1, -1)">
<g id="21" >
<path d="M 0.0235893,0.0017319 l 0.000126326,3.5062e-05 -1.14644e-05,-0.00015793 0.000177909,-0.00023997 -0.00326918,-0.000981439 -0.000920635,-0.00038257 -0.000149986,1.03028e-06 -0.00308715,0.00263446 -0.00105779,0.00070674 -0.000798005,0.000327605 -0.00745868,0.00240057 -0.000736734,0.000319176 -0.000664303,0.000432013 -0.000816619,0.000829606 -0.00492302,0.00667138 0.00510808,0.00804225 0.00238698,0.00260578 -0.000232531,0.000302239 -0.000225086,0.000122866 -0.000107042,-3.16228e-05 -0.000437345,0.000243818 -1.09278e-05,9.40034e-05 0.000712593,0.000107885 0.000399286,-9.54112e-05 0.000334205,0.000118237 0.000503692,0.000367869 0.000360584,0.000685106 0.000195453,0.000177176 0.000735101,0.00177645 -1.50594e-05,0.000672866 0.000205276,0.000767661 3.52516e-05,-3.28007e-05 2.53398e-05,0.000163234 0.000173612,0.00016652 0.000266071,0.000122408 -5.86027e-05,0.00026868 6.46918e-05,0.000344069 0.00150761,0.00165695 0.00457569,0.00462739 0.000339719,-0.00022407 5.38067e-05,4.37985e-05 4.40874e-05,-0.000137625 4.78322e-05,3.93333e-05 1.0758e-05,-0.000110256 0.000266092,-0.000273122 0.000293459,-0.000204722 9.02719e-05,3.35608e-05 0.000171008,-0.000194671 0.000392506,-0.000182975 6.53445e-06,6.04468e-05 -0.000197442,0.000120845 0.000243541,-5.71168e-05 5.23978e-05,-9.70592e-05 -7.50871e-05,2.43302e-06 1.29591e-05,-8.76998e-05 9.18906e-05,-0.000101001 0.000244357,-7.42812e-05 0.000327382,2.52584e-05 0.000584947,-0.000309201 0.000252569,-4.36495e-05 0.00027203,-0.00027137 -0.00023871,-0.000151515 -0.000458599,9.59399e-05 -0.000535909,-0.000123749 -0.000763237,0.000170721 -0.000511117,-1.65029e-05 -0.000613485,-0.000172774 -3.8707e-05,-0.000115262 -0.000296112,-0.000160072 0.000105532,-2.16492e-05 -0.000276461,-7.26443e-05 0.000328282,-8.2202e-05 5.70679e-05,7.35706e-05 0.000156012,-1.39433e-05 0.000197698,-0.000193989 0.000181236,0.000136648 0.000787106,4.21929e-05 0.000133783,-6.25214e-05 -6.25516e-05,-0.000127705 0.000103139,-6.31686e-05 0.000252888,8.72857e-05 0.000315514,-7.39729e-05 0.00062947,9.13618e-05 -4.87359e-05,-0.000129625 -0.000202174,-5.61028e-05 -0.000249095,-0.000201998 -0.000180697,-0.000280228 -2.9289e-05,-0.000359152 -0.000187571,-0.000177229 4.11974e-05,-3.10463e-05 -0.000145947,3.19211e-05 -0.000502857,-0.000278442 -4.71358e-05,3.01927e-05 6.6656e-05,-5.47368e-05 0.000708042,0.000240608 5.29565e-05,-4.10776e-05 -3.23091e-05,-6.83586e-05 -0.000170634,3.39334e-05 -0.000653645,-0.000236548 8.75436e-05,-4.1366e-05 0.000594073,0.000209052 6.68274e-05,-3.75814e-05 -0.000188755,-0.000493271 -0.000119586,-9.92351e-05 -6.69446e-05,2.58431e-05 -0.000148213,-0.000194715 4.41889e-05,-2.83621e-05 0.000414661,0.000254797 0.000270901,0.000801413 0.000133648,0.000121692 3.48394e-05,0.000321179 0.000395741,0.00043736 -0.000362142,-0.000437641 -2.87295e-05,-0.00030317 -0.000208627,-0.000306182 -4.39221e-05,-0.000340066 -0.000104881,-0.000111097 -0.000260892,-0.000986613 0.000274746,0.000198173 -3.3642e-05,0.000193524 0.000183158,0.00032897 -5.81771e-05,1.3128e-05 2.90698e-05,0.000139723 0.000399671,0.000731708 8.06137e-05,0.000352402 0.00015419,0.000199179 0.000223233,8.66287e-05 0.000367697,0.000301239 0.000466044,5.57007e-05 0.00022878,0.00024551 6.71442e-05,-5.9798e-06 -0.000102481,-0.000167102 -1.44825e-05,-0.00026175 -0.000590871,-0.000973916 -0.00010648,-0.000369342 -0.000181028,-0.000115877 -0.000228618,-0.000328589 3.07783e-05,-0.000281995 8.05256e-05,-5.12414e-05 0.000169455,0.000243298 -7.38253e-05,2.95133e-05 -0.000116583,-0.000194075 0.00016293,0.00047994 0.000206974,0.000140945 0.00027471,0.000391413 -0.000543344,-0.00076843 0.000118183,5.77074e-05 6.77244e-05,-4.66195e-05 5.65271e-06,0.000169718 0.000157774,6.36972e-05 0.000669528,0.000835098 0.000246839,0.000174021 0.000313118,0.000475972 0.000610876,1.11396e-05 0.000455553,0.000290564 8.87311e-05,-0.00011994 -0.000164025,3.18013e-06 4.44067e-05,-0.000105121 -0.000211721,-0.000121035 -8.65982e-05,-0.00016001 -0.00015882,-6.91043e-05 -0.00131081,-0.00121712 -4.9329e-05,-0.000386074 -3.19431e-05,0.000165517 -0.00033603,-0.000790932 -4.59048e-05,0.000152992 -0.000243034,-0.000584019 -4.62906e-06,-0.0004623 0.000140118,0.000175818 7.26348e-06,-6.41742e-05 -0.000156245,-0.000207288 0.000200879,0.000124741 0.000273634,0.000481723 6.68711e-05,-3.30675e-05 -3.93579e-05,0.000115914 8.00522e-05,2.33487e-07 0.000240467,0.000327586 0.000160825,0.000269556 4.80358e-05,0.000256955 2.6303e-05,-0.000136574 4.71546e-05,0.000366226 0.000165391,3.47362e-05 -0.000121211,-6.40021e-05 -2.39864e-05,-0.000125317 0.00036014,0.000434944 0.00017318,-7.54961e-05 2.82205e-05,0.000153275 -1.19747e-05,-0.000110066 6.71974e-05,-5.62552e-07 0.000423234,0.000419063 0.000493337,0.000313725 0.000126398,0.000186766 0.000420105,-0.000287064 -0.000142427,-0.000208303 5.14228e-05,-9.52465e-05 -0.000128992,4.71343e-05 9.07516e-05,-0.00021387 -0.000247719,-0.000261602 -0.000281926,-2.65342e-05 -9.70146e-05,-0.000114772 0.000218201,-0.000119219 -6.51374e-05,-0.00028661 -0.000268199,-3.74857e-05 -0.000200456,-0.000180728 -9.13402e-05,5.67512e-05 -3.2908e-05,-0.000127951 -2.69267e-05,7.42719e-05 -0.000476975,-0.000259685 0.000198021,-0.000160587 0.000207239,-2.97282e-05 0.000249702,6.56345e-05 2.558e-06,-0.000139084 -6.70155e-05,1.86213e-05 -0.000273766,-0.000494361 -0.000366236,4.09919e-05 -0.000175397,-4.72944e-05 -0.000384524,-0.000304708 -8.45732e-06,-5.50126e-05 9.52453e-05,3.71294e-05 -2.04512e-05,-6.84573e-05 -0.000109016,-3.06932e-05 0.000157104,-0.000101548 0.000418724,6.87367e-05 7.89894e-05,9.14455e-05 0.000125718,-7.78078e-05 -6.8554e-05,-0.000134877 -0.000499705,-0.000260399 -5.60275e-05,3.02679e-05 -0.000152492,-0.000227185 -5.83566e-05,-4.92988e-06 2.56633e-05,9.5504e-05 -0.000272804,-0.000201798 -0.00015462,-0.000242519 9.1821e-05,-0.000107323 0.000536132,4.96959e-05 0.000250594,0.000155026 -9.58607e-05,1.08535e-05 0.00016445,0.000127635 8.00964e-05,4.74773e-06 -0.000116729,-0.000110093 0.000100386,-4.14753e-05 9.84339e-05,0.000158105 0.000276787,0.000106044 8.9422e-05,-0.000445027 4.95056e-05,0.000206374 6.09806e-05,-0.00032469 -7.44749e-05,-3.54967e-05 0.000219935,5.41449e-05 4.68978e-05,-5.367e-05 8.26611e-05,6.34212e-05 0.000118424,0.00027894 -4.81931e-05,-7.54488e-05 -9.92217e-05,0.000551664 -6.0805e-05,4.65625e-05 2.55678e-05,-0.000209711 -0.000101132,0.000262718 0.000390363,0.000394053 0.000147604,-0.000457254 0.000186485,-0.000127983 0.000122588,4.3909e-06 5.87535e-05,0.000536796 -0.000101293,-4.88165e-05 -4.96102e-05,0.00037426 5.71687e-05,0.000181928 -6.07418e-05,5.28833e-05 0.000161698,0.000356235 0.000119109,-0.000145479 9.48354e-06,-0.000236667 0.000226611,-6.87217e-05 0.000115944,0.000228391 -9.83107e-05,-4.70352e-05 1.16038e-06,0.000115575 0.000106361,-3.70118e-05 3.4242e-05,6.38263e-05 -4.61999e-05,0.000123196 -1.31366e-05,-0.000127214 -2.12142e-05,5.25521e-05 3.16404e-06,0.000315122 0.000150187,0.0005875 0.000121031,4.59415e-05 5.35523e-05,-0.000178341 0.000107967,2.43788e-05 0.000176435,0.00034708 7.57311e-05,0.000455382 0.00019891,0.000124752 0.000148501,-7.25832e-05 3.72258e-05,6.5607e-05 5.86113e-05,-6.82171e-05 3.50981e-05,0.000345556 0.000492027,0.000182792 0.000304651,0.00022229 0.000286291,0.000558362 5.44949e-05,-8.44371e-05 -6.24171e-05,-0.000310109 -0.000182787,-0.000290135 -3.54458e-05,-0.000379867 -0.000370249,-0.000652473 -3.97483e-05,-0.000218193 -5.4894e-05,4.4708e-05 3.93073e-05,-0.000218857 -5.33351e-05,3.15668e-06 -0.000100147,-0.000327853 -0.000181402,-0.000152892 -8.8133e-05,-0.000312603 -0.000319966,-0.000370257 -3.29088e-05,6.89044e-05 -5.34084e-05,-0.000200922 -2.41234e-05,0.000156422 -8.23281e-05,-0.000128439 -0.000242369,-0.000516292 4.2536e-05,-0.000291124 0.00022913,-1.45636e-05 0.000177111,0.000119517 0.00029156,0.000297352 1.42882e-05,4.50304e-05 -0.000151627,-4.20721e-05 0.000100324,0.000149057 0.000187673,8.87258e-05 -5.03327e-05,0.000105171 0.000170304,0.00013041 9.17013e-05,-2.06357e-05 1.62533e-05,-0.000152744 -7.31783e-06,-0.000138098 -0.000103143,-3.61576e-05 0.000296569,-0.000187605 0.0001153,6.58545e-05 0.000115361,0.000464982 -8.59613e-05,0.000100052 -1.0006e-05,0.000184297 -6.79228e-05,-7.16702e-05 -1.27179e-05,0.000111176 0.000186118,0.000228704 6.13947e-05,1.21266e-05 4.93895e-05,-0.000100648 -2.04101e-05,-0.000162369 9.87696e-05,-0.000202199 -6.68802e-05,-6.62608e-05 0.000194832,-0.000182237 0.000132843,4.13256e-05 7.89118e-05,0.000574551 -0.000141946,0.000429216 -5.41161e-05,-7.44949e-05 2.71574e-06,0.000269976 8.14767e-05,4.35629e-05 -5.81488e-05,1.58395e-05 7.27776e-05,0.000259454 0.0001567,0.000153098 0.000295484,-0.000590338 -3.50294e-06,-0.000151675 0.000218523,-8.67186e-05 0.00011154,8.48481e-05 7.36245e-05,0.000343426 -5.84941e-05,-1.84715e-05 -9.97682e-06,0.000187006 -0.000125107,0.000138308 -0.000150046,0.000606274 2.00232e-05,0.000221971 0.000368177,0.000838506 0.000440419,-0.000133735 5.48815e-05,-0.000732798 0.000180886,0.000297373 -0.000101821,-0.000297135 2.07462e-05,9.735e-05 0.000146572,3.03725e-05 0.000271827,0.000495269 0.000997885,-2.82638e-05 0.00106254,0.00011115 -0.000128431,-0.000191258 -0.000146892,-6.19728e-05 -4.67242e-05,-0.000321076 -0.000267515,-0.00026323 -0.00116491,-0.000168989 -0.000156111,-9.4405e-05 -6.59337e-06,-6.58638e-05 0.000232503,0.000123561 5.63871e-05,-9.25809e-05 0.000155219,5.91782e-06 -0.000135801,-4.03954e-05 -0.000138573,-0.000217361 -0.000151954,2.38536e-05 -1.54633e-05,-0.000161508 0.000316757,0.000246564 0.000820957,-0.000127913 3.44275e-05,-0.000114068 -0.00041759,-0.000249325 -0.00016616,-0.000209001 -0.000160847,2.39288e-05 -5.83357e-05,9.53063e-05 -1.556e-05,-7.30124e-05 -0.000318879,-6.50423e-05 2.51319e-06,5.32561e-05 -0.000116734,-1.166e-05 -0.000175531,-0.000158355 -0.00023675,-5.48982e-05 1.7766e-05,-0.000100383 -6.08583e-05,4.1147e-05 -1.45985e-05,-7.57296e-05 0.000212939,-5.2359e-05 -5.78787e-05,-5.54995e-05 0.000142299,-1.19679e-06 0.000359507,0.000173965 0.00012382,-6.96701e-05 -0.000127834,-0.000132569 -0.000702582,-0.000286664 -0.000404221,-0.000296399 -1.49436e-05,-0.000110041 0.000263614,-0.000123219 0.000218515,1.08048e-05 0.00026499,0.00011155 -2.03676e-06,9.21236e-05 0.000127994,5.03947e-05 -0.000162978,-0.000285785 6.98936e-05,-0.000125202 0.000310128,7.95647e-05 0.000241947,0.000178565 0.000128042,0.000349288 0.000376004,0.000339977 8.69932e-05,-0.0002915 -0.000101377,-5.69388e-05 6.07757e-05,-4.92738e-05 -6.38709e-05,-0.000257721 0.000125376,-0.000111222 0.00016131,2.212e-05 0.000111245,0.000153477 3.60296e-05,0.000240799 -5.50377e-05,3.02626e-05 3.35749e-05,0.000487339 0.000422193,0.000215874 5.53342e-05,9.70583e-05 7.18644e-05,-2.76955e-05 1.348e-05,0.000160621 0.000261704,0.000470969 0.000292953,0.00023773 0.000293075,0.000445419 0.000466107,0.000355465 0.000248644,0.000546929 0.000155072,8.89921e-05 0.000254282,-6.89677e-05 0.000150349,-0.000182772 -5.46499e-05,-0.000126862 -0.00024616,-0.00010538 3.2805e-05,-7.8838e-05 0.000289004,-5.57159e-05 2.1309e-05,5.49034e-05 -0.000114577,6.38492e-06 0.00015017,-4.87931e-06 3.18608e-06,-7.58791e-05 -0.000512734,-0.000470653 -7.00832e-05,-0.000187233 -0.00034471,-0.000175887 2.72562e-05,-0.000236817 -0.000286222,-0.000158321 -0.000159799,-0.00036166 -0.000305179,-0.000176222 5.91271e-05,-1.67524e-05 -0.000103337,-5.51153e-05 0.000115199,-4.25091e-05 3.23312e-05,-0.00012579 -0.000187089,-0.000421932 -0.000156001,-8.35677e-05 -0.000243001,1.10775e-05 -0.000162094,-9.97709e-05 -6.52247e-05,-9.7878e-05 4.40443e-05,-0.000140337 0.000602789,-5.07875e-06 3.9082e-05,0.000151375 0.000130987,5.30762e-05 0.00017901,-8.45852e-05 -4.5707e-06,0.000134586 -0.000107761,9.39177e-05 -0.000679291,-0.000230863 -4.90263e-05,3.83392e-05 0.000500234,0.000114982 0.000218949,0.000151665 0.000129377,0.000285162 -7.19443e-05,-0.000273907 0.000106795,-0.000189628 3.7957e-06,-0.000211335 -0.000111821,-0.00021036 5.29132e-05,0.000248783 -6.05378e-05,7.27506e-05 -0.000119978,-0.0003331 -6.65489e-05,6.46741e-05 -1.44907e-05,-6.48941e-05 0.000156787,-0.000132257 0.000186269,4.7192e-05 0.000174158,0.000217962 -0.000120448,1.18515e-05 6.26712e-05,0.000138534 -5.51192e-05,2.21368e-05 -2.22554e-05,0.00034062 0.00021541,0.000388281 0.000166544,5.09698e-05 0.000192541,0.000276501 0.000242112,9.6385e-05 0.0008658,0.000789142 0.000173612,-3.21679e-05 -1.55332e-05,-0.000167827 -0.000495752,-0.000746211 -2.72993e-05,-0.000158698 -0.000678032,-0.000594777 -1.13291e-05,5.24698e-05 -8.14961e-05,-4.53658e-05 -2.8563e-05,-8.82534e-05 0.000805072,0.000452837 -0.000385393,-0.000290224 1.75072e-05,-0.000125665 8.61424e-05,0.000113955 0.000165503,-5.19647e-05 -3.243e-05,0.000115858 9.96263e-05,-0.000116425 0.000354511,0.000363627 0.000238986,0.000373632 0.000512724,0.000469747 0.000128256,-0.000119377 -1.48004e-06,-0.000146274 -0.000147235,-0.000291329 -0.000229495,-0.000119064 -0.000276777,-0.000299266 7.67332e-05,-0.000132486 -7.30321e-05,-8.78777e-05 2.82504e-05,-0.000235922 0.000132217,0.000370018 0.000246731,0.000162263 0.000255298,3.21577e-05 0.000388057,0.000455447 0.000177582,-0.000127921 3.51615e-06,-0.000238422 -0.000118965,-0.000134445 5.77544e-05,-5.46682e-05 -6.96662e-05,-4.81734e-05 3.42951e-05,-0.00012671 -0.000187085,-0.000127549 4.91453e-05,-0.000124127 0.000104362,5.87163e-05 -0.000108627,8.14191e-06 0.000203984,0.000137339 -8.60242e-05,-0.00019974 0.000226502,0.000116379 0.000356682,0.00067514 0.000308058,-0.000222937 -0.000101607,-0.000372081 0.000131987,-0.000238606 -5.42207e-05,-0.000181948 0.000164769,0.000168371 -6.28505e-05,0.000136885 0.000115132,4.86915e-05 7.86147e-05,0.00015104 0.000100172,-6.22515e-05 9.29985e-05,0.000205098 3.56112e-05,-9.42135e-05 0.000949256,-0.000241008 0.000916903,7.7117e-05 0.000630629,0.000303483 -6.75373e-05,-0.000130363 8.50274e-05,-9.37299e-05 -9.92216e-06,-0.000198576 -7.45734e-05,-0.000142042 -0.000532135,-0.000141777 -0.000290819,-0.000221481 -0.000210718,7.58309e-05 -8.90648e-05,-0.000109412 -0.000409324,-1.82064e-05 7.3927e-06,-5.06307e-05 -0.000378096,-5.73009e-05 -0.000442052,-0.000322244 -0.000286112,4.75703e-05 -0.000156854,-7.00106e-05 -0.00044046,0.000127436 -0.000126231,0.000123875 -8.59884e-05,-9.86035e-05 1.03296e-06,0.000102031 -9.8532e-05,-0.000166223 -0.000116915,-2.9714e-05 -0.000260877,2.20449e-06 4.51923e-06,5.5948e-05 -0.000244645,-5.39193e-05 -0.000391446,8.81887e-05 3.7989e-05,4.30233e-05 -0.000209235,-7.04733e-05 6.20174e-05,-2.40018e-05 -4.7761e-05,-3.21048e-05 -0.000126486,1.06802e-06 -4.71766e-05,2.56824e-05 7.55942e-05,4.81239e-05 -0.000298246,2.0578e-05 -0.000257966,-0.000100765 0.000177303,4.00416e-05 -0.000159568,-0.000143134 -8.92026e-05,7.20901e-05 -0.000363672,-9.71647e-05 0.000480756,-5.1916e-05 4.03027e-05,7.64151e-05 6.08655e-06,-8.22247e-05 0.000279385,6.89789e-05 0.000144695,-5.72078e-05 -0.00102027,-3.83453e-05 0.000232944,-2.81525e-05 0.000129535,-9.04904e-05 0.000284721,1.02391e-05 -7.77003e-05,3.6776e-05 0.000293119,5.893e-05 0.00126175,-0.000317678 -0.000133618,-0.000313116 -0.000118341,-7.30464e-05 3.7579e-05,-9.51328e-05 -0.000143896,-5.92855e-05 -0.000239008,1.4661e-05 -0.000495167,0.000287725 -0.000499181,8.63871e-05 -0.000425249,-2.98227e-05 -0.000314648,-0.000331457 -0.000132551,0.000281049 -0.000267994,-1.76061e-05 -0.000199504,0.000110043 -9.75404e-05,0.000127243 8.369e-05,6.70197e-05 -4.54593e-05,9.79077e-05 -4.90859e-05,-6.55055e-05 -6.57004e-05,0.000148646 7.83572e-05,2.82356e-05 -2.6903e-05,7.60791e-05 -5.50459e-05,2.93602e-05 -1.55701e-05,-7.39151e-05 -5.26684e-05,6.90723e-05 -4.01376e-05,-6.01629e-05 1.32528e-05,0.000138048 -0.000251097,-0.000203769 9.4992e-05,1.18415e-05 -1.46912e-05,-8.47585e-05 -0.000126212,2.81538e-05 7.5525e-05,-0.000546051 -0.000203668,-0.000106644 -0.000174668,2.49498e-05 -8.31236e-05,0.000184913 -0.000151048,0.000113245 -3.05647e-05,0.000105006 0.000128913,-5.43632e-05 -0.000155998,0.000112384 -2.67396e-05,9.23316e-05 9.34753e-05,-4.05195e-05 -2.12569e-05,4.80383e-05 -0.000257124,0.000178251 0.000145207,-6.641e-06 -0.000313023,0.000221163 -0.000123649,-1.16009e-05 -9.23961e-05,-0.000146412 -9.24383e-06,-0.000132664 5.41807e-05,8.08142e-05 5.35893e-05,-0.000173828 -3.56921e-05,-0.00020739 -0.000364556,-8.72314e-05 -7.17773e-05,0.000134249 2.8133e-05,4.58164e-05 7.246e-05,-6.65292e-05 -3.27239e-05,8.69638e-05 -0.000125776,7.1493e-05 -3.03836e-05,0.000123064 -0.000114337,2.98584e-05 0.000107141,4.06365e-05 -0.000267982,8.17195e-05 -0.000187724,-0.000191663 3.29336e-05,-6.61964e-05 4.8242e-05,7.99615e-05 4.27534e-05,-0.000268552 2.07825e-05,0.000100962 2.44566e-05,-0.000318966 -0.000435291,5.24242e-05 2.94028e-05,7.3799e-05 -0.000300785,-3.53964e-05 -1.16608e-05,0.000215916 7.4437e-05,-6.65453e-05 -4.02117e-05,0.000128565 -0.000402774,4.31188e-05 3.10373e-06,0.000111946 8.70137e-05,4.68647e-06 -0.00019872,9.01651e-05 5.57741e-05,4.28754e-05 -0.000190433,0.000128021 -0.000179539,3.22112e-05 -0.000105192,-4.33632e-05 -1.82603e-05,-0.00043961 5.01678e-05,0.000271383 0.000112542,-0.000404589 6.18755e-05,5.99813e-05 0.000132491,-0.000189842 -0.000429749,0.0002104 -0.000124655,-1.34007e-05 9.05754e-05,-3.41722e-05 -7.83744e-05,-3.00436e-05 -0.000136502,8.60293e-05 0.000136549,1.69129e-05 -5.50831e-05,2.57469e-05 -0.00019961,1.67694e-06 4.19281e-05,-5.63385e-05 -0.000108753,-4.50447e-06 6.66505e-05,-5.47402e-05 -0.000201714,-1.09477e-05 -8.99307e-05,9.82798e-05 0.000167989,-1.41094e-06 -0.000277447,0.000123333 -0.00021747,-5.39793e-06 0.000178053,1.6565e-05 -8.14007e-05,6.20879e-05 -0.000209775,-0.000124659 -4.56571e-05,-0.00011791 9.10736e-05,-8.29381e-05 -7.40325e-05,-8.9679e-05 -0.000237477,6.88159e-05 0.000139641,2.953e-05 -0.00017301,9.17528e-05 -0.000170826,1.40758e-05 -0.000138272,-9.00431e-05 -9.28475e-06,-0.000137179 0.000106869,0.000111979 -1.28846e-05,-0.000200359 -0.000204398,-8.13613e-05 -0.000347273,5.88997e-05 -0.000458284,-0.000170437 -0.000515969,8.83051e-05 -0.00018408,-0.000124878 2.43238e-05,-0.000136558 0.000252218,-7.70634e-05 8.40213e-05,-9.64229e-05 6.22996e-05,-0.00029129 0.000115579,9.38466e-05 -2.50306e-05,-0.000130726 0.000276731,0.000100622 1.40613e-05,0.000120885 0.000492759,6.08834e-05 -0.0001667,0.000129625 0.000183037,-7.73879e-05 -3.13142e-05,-0.00016589 -0.000107139,-4.06395e-05 -4.06695e-05,-0.000113438 -1.57754e-05,-0.000193111 7.33137e-05,-8.00794e-05 0.000409689,0.000153686 0.000162188,0.000208136 -4.17004e-05,0.000177339 0.000189465,7.06503e-05 0.000193299,-3.95487e-05 9.72577e-05,4.07218e-05 -0.000142775,5.17668e-05 0.000367417,7.72828e-05 4.9343e-05,-0.000105163 -3.91633e-05,3.6449e-05 -6.9914e-06,-0.000105593 -0.000126775,-2.78317e-05 -1.33107e-05,-0.000144369 -7.55724e-05,-4.63218e-05 0.000113773,-8.58377e-05 0.000133583,1.69385e-05 0.000260035,0.000209119 1.75182e-05,0.000169618 0.000355921,1.50704e-05 0.00013435,-0.000201596 9.69672e-05,1.18273e-05 3.0808e-05,0.000115326 0.000543733,-7.86162e-05 0.00033238,0.00013085 0.000207405,-1.25802e-05 -8.86317e-05,-0.000165407 -7.30058e-05,1.2353e-05 -1.3222e-05,-0.00013534 -2.70593e-05,6.07288e-05 -4.61829e-05,-7.1852e-05 -0.00031101,-6.96256e-05 -0.000330578,-0.000246451 -0.000122205,3.35351e-05 -0.000439026,-0.000122732 8.44184e-05,-5.66955e-05 -0.000184143,-3.27674e-05 4.20275e-05,-4.64063e-05 -6.97978e-05,-6.17211e-05 -4.5744e-05,6.99156e-05 -0.000173122,-0.000214364 3.44147e-05,8.09814e-05 -8.68488e-05,1.15654e-05 -0.00035776,-9.99387e-05 -0.000216468,-0.000594166 6.35659e-05,-0.000164881 0.000167152,1.3948e-05 -1.3244e-05,5.88065e-05 0.000153029,8.35978e-05 0.000153036,-1.3927e-05 -6.70596e-05,-8.43194e-05 9.63756e-05,-4.68625e-05 0.000184205,3.90883e-05 -0.000182445,3.76523e-05 0.00036684,2.03973e-05 -0.000199243,3.77936e-05 0.000285939,3.37185e-05 -8.37385e-05,2.59875e-05 3.34174e-05,8.00867e-05 4.70498e-05,-3.83214e-05 0.000112372,0.000167918 0.000321779,0.000158031 -0.000151867,3.19782e-05 0.000215908,4.6948e-05 -4.76456e-05,-0.000610031 8.41448e-05,-8.37836e-05 0.00021344,-1.79383e-06 0.000245476,0.000235427 -0.00016078,-6.81798e-05 0.000118626,0.000101945 -5.44547e-05,8.80492e-05 0.000114534,0.000284387 -0.000115244,-6.04355e-05 0.000100321,0.000345007 0.000161621,-4.47031e-05 3.73985e-05,-0.000211618 -5.79403e-05,-6.18202e-05 6.8707e-05,-4.66309e-05 0.000194333,6.33822e-05 -2.71346e-05,0.000249457 7.50698e-05,0.000192612 8.73217e-05,3.53858e-05 9.87794e-05,-4.44284e-06 7.5166e-05,-0.000190263 -4.08179e-05,-0.000127883 0.000181123,2.73725e-05 7.58636e-05,0.000565546 0.00026488,0.000199141 0.000477022,6.82254e-05 -0.00013069,-0.000416088 0.000247194,0.000209222 -0.000242412,-0.000323041 0.0003257,0.000154381 0.000243916,0.000276071 0.000425355,-0.000155287 0.000422017,3.66837e-06 1.56869e-05,-0.000110299 -0.000404243,-0.000103149 -0.00027479,-0.000201764 -4.34152e-05,-0.000189265 -0.000218596,-0.000117356 -0.000273131,-3.74325e-05 -1.98534e-05,-0.000204815 0.000108641,0.000189619 -3.59097e-05,-0.000229061 -0.000228245,3.72741e-06 -0.000325746,-0.000257324 -0.000431985,-1.26195e-05 4.49454e-05,-5.09464e-05 -0.00011478,-1.43855e-05 -4.49182e-05,5.36551e-05 -9.82117e-06,-9.20239e-05 -0.000206399,-8.40495e-05 3.70069e-06,-0.000221267 8.90937e-05,-8.29227e-05 8.38105e-05,-1.8765e-05 -2.19087e-05,8.14547e-05 0.000802921,4.74247e-05 7.54228e-05,-6.65541e-05 -0.000349361,-5.12402e-05 0.00023236,1.24927e-05 0.00020874,-7.58033e-05 0.000139323,9.63517e-05 1.0345e-05,0.000241918 0.000175526,-3.75979e-05 -0.000171769,-7.98243e-05 0.000342832,-8.30456e-06 3.72078e-05,0.000259752 0.00011738,-2.17576e-05 7.2039e-06,-6.9592e-05 -0.000105181,-4.24584e-05 0.000299796,-6.21232e-05 0.000103938,0.000213136 -6.5423e-05,-0.000117742 2.73776e-05,0.000362777 0.000210381,8.67221e-05 0.000181243,0.00023506 0.000132777,3.50013e-05 6.97032e-05,-4.57376e-05 3.99675e-06,-0.000191471 -6.21689e-05,-0.000284825 -3.71994e-05,-6.28968e-05 -6.3774e-05,4.56876e-05 1.05444e-05,-0.000326073 0.000117694,-8.85832e-05 0.000130672,2.23768e-05 5.61854e-05,0.000279458 0.000114645,0.000196792 5.80547e-05,-2.48705e-05 3.32191e-06,0.000231141 0.000250179,0.000700428 0.000401559,-6.47907e-05 0.000331415,3.51305e-05 5.1078e-06,-8.13134e-05 -0.000321251,-0.000300699 0.000327578,0.000144426 -0.000318626,-0.000236608 0.000231906,-3.26583e-05 4.30562e-05,5.5623e-05 0.000371846,2.66616e-05 -1.98569e-05,8.86619e-05 7.16515e-05,-4.84639e-05 0.000292295,0.000662144 0.000167752,-0.000122419 7.20728e-05,-0.000495454 0.000113977,-6.50756e-05 0.000225249,0.000188632 -4.05162e-05,9.78665e-05 9.66364e-05,7.68422e-05 0.000704609,-5.34364e-07 0.000488183,0.000194535 0.000543355,0.00056791 0.000699837,0.000113276 0.000613741,0.000296408 2.6872e-05,-7.87887e-05 -0.000117931,-0.000227461 -0.000545813,-0.000419792 -0.000199114,-0.000242126 -0.000525937,-1.90295e-05 -0.000743968,-0.000372972 -0.000332757,-0.00026538 -0.000380326,-0.000669525 -0.00127243,4.05416e-05 -0.000576917,-0.000174831 -0.000187675,8.80683e-06 -9.49196e-06,-0.000157043 0.000123777,-7.32842e-05 0.000152101,-8.5069e-06 3.7437e-05,8.63726e-05 0.000222259,-9.09897e-06 -0.000469992,4.00845e-05 8.02558e-07,7.94576e-05 8.64187e-05,-5.40061e-05 0.00025998,0.000105265 0.000324083,-0.000298919 0.000315473,2.26219e-05 0.000893011,-0.000229679 -7.95627e-05,-4.98962e-05 -0.000580771,3.01878e-05 -0.000196382,-7.05827e-05 -0.000326118,-0.000195909 -0.000112035,-0.000329554 -0.000278466,-0.00017464 -6.41589e-05,0.00010529 -0.000307022,0.00012901 1.73553e-05,-0.000238539 -0.00027196,7.81455e-05 -0.000265513,-6.639e-05 -0.000339088,0.000280983 3.05008e-05,8.46254e-05 -0.000201453,1.43396e-05 -6.60645e-05,-8.34228e-05 1.39402e-06,0.000138148 -3.50363e-05,-0.000142379 0.000111108,-0.000153544 8.84361e-06,9.29349e-05 1.64015e-05,-0.000137395 -2.24255e-05,0.00022594 6.626e-05,4.8597e-06 7.77206e-05,-0.000132494 -2.38896e-05,-0.000212908 -0.000294884,-3.90536e-05 -0.000191671,0.000200276 4.89106e-05,4.83502e-05 -0.000342597,0.000129306 -0.000669849,1.64758e-05 -0.000438051,7.14119e-05 5.67773e-06,7.30956e-05 -9.06724e-05,2.4241e-05 -0.000695124,5.82213e-05 -0.000318242,9.47823e-05 -0.000692372,-6.10032e-05 -0.000156001,-8.44748e-05 -6.28728e-05,-0.000159304 1.41189e-07,-0.000182408 0.000240624,0.000342926 0.000787691,-9.06001e-05 0.000173316,3.73719e-05 -7.06369e-05,5.11622e-05 0.000237308,1.33555e-05 -9.47191e-05,-8.31829e-05 0.000153859,-3.01901e-05 -0.00034226,-3.3242e-05 0.000693698,-0.000101553 0.00018583,-9.36699e-05 -0.000791432,0.000111406 -1.97567e-05,-9.73584e-05 0.000251066,-9.24118e-05 -0.000345976,-9.73276e-06 7.84993e-05,4.26842e-05 -7.39831e-05,1.32641e-05 -0.000105434,-6.77419e-05 -0.000113315,0.000130985 -6.87024e-05,-0.000149321 3.64766e-05,-0.000106861 0.000100554,-2.43234e-05 0.00020365,0.000105745 0.000536631,2.71096e-06 0.000263356,-0.000147599 -9.08982e-06,7.86379e-05 0.000303709,-6.57659e-05 -7.39547e-06,5.06305e-05 0.000140288,-3.88967e-06 0.000577541,-0.000252285 -0.000416569,-5.24793e-05 -0.000163879,-8.16971e-05 -4.16238e-05,-0.000109816 -1.14026e-05,4.52462e-05 -0.000417032,-9.85304e-05 3.2157e-05,5.30067e-05 -0.00024074,3.81454e-05 -0.000207711,-0.000116547 1.04661e-05,-0.000138248 0.00033314,0.00010917 0.000143721,-5.53894e-05 1.29604e-05,-8.67975e-05 -0.000600287,-0.000338093 -0.000105966,-2.2587e-05 4.90366e-05,6.0992e-05 -0.000123389,1.36796e-05 -0.000326621,-0.000148959 0.00021426,-1.80553e-05 -7.16543e-05,-4.99659e-05 0.000190266,5.25806e-05 0.000175832,-6.89659e-06 -0.000212938,-4.69717e-05 0.000258028,1.04723e-05 0.000709757,0.000512354 0.000236218,3.43015e-06 -0.000262273,-3.93311e-05 -0.000625793,-0.000515769 -4.8855e-05,-0.000337313 5.49984e-05,-3.38737e-05 -6.94778e-05,-3.01179e-05 -2.48e-05,8.87031e-05 -0.000140241,-0.000285976 -6.20367e-05,0.000218146 -9.54508e-05,-5.78928e-05 4.07556e-05,-7.43891e-05 -8.16261e-05,-5.89121e-05 0.000162837,-0.000119663 0.000264992,0.000113356 6.63347e-05,0.000110512 -8.29296e-05,7.9215e-06 7.89439e-05,8.69276e-05 5.28948e-05,-4.64981e-05 6.60289e-05,0.00017824 -9.79244e-05,-9.10941e-06 -3.27231e-05,8.69637e-05 0.000101435,6.32602e-05 5.05093e-05,-8.71133e-05 0.000317523,0.000226692 -0.000154854,2.9296e-05 0.000201163,5.51969e-05 0.000128422,0.000289687 7.18786e-05,-2.5889e-05 1.49782e-05,-0.000180727 -8.90589e-05,-1.18926e-05 5.34424e-05,-0.000188275 -9.76516e-05,1.79788e-05 6.8419e-05,-0.00017305 0.000130305,-1.37386e-05 0.000135787,0.00013792 -3.29046e-05,6.89053e-05 -4.77213e-05,-2.84945e-05 6.31296e-05,0.000184585 -7.33672e-05,-2.37636e-05 6.91168e-06,9.74663e-05 0.000208012,0.000146342 0.00031565,4.06869e-05 5.61643e-05,-0.000114251 7.5544e-05,4.36111e-05 -2.89333e-05,-0.000125274 0.00020324,6.51108e-05 1.37017e-05,8.4767e-05 0.000473783,0.00014049 0.000794639,1.13631e-05 3.81486e-05,-0.000136675 -0.000373025,-0.000535949 -4.08906e-05,6.08459e-05 -2.66755e-05,-9.72997e-05 -0.000344141,-0.000220142 -0.000443499,-7.75345e-05 0.000204883,-6.5839e-05 3.82041e-05,-0.000131257 -0.000270882,-0.000207215 -0.000173554,3.66787e-05 -4.19377e-05,-0.000238943 -5.74661e-05,0.000181085 -5.03935e-05,-0.000195528 -0.000180593,-7.3429e-05 0.000216889,4.69362e-05 -0.000305431,-0.000497693 0.000553457,0.000104604 0.000161759,0.000165694 -4.41555e-05,3.10741e-05 0.00037084,0.0001242 0.000230064,0.000275284 0.000156136,-9.79372e-05 9.81062e-05,2.71663e-05 1.41268e-05,0.000224729 9.45902e-06,-0.000433522 -7.95284e-05,-0.000144713 -3.17772e-05,0.000278393 -6.59669e-05,2.4034e-05 3.83895e-05,-0.000210724 -5.82077e-05,9.52057e-06 1.57631e-05,-0.0002006 0.000144396,-8.60993e-05 0.000110692,9.93006e-05 5.18082e-05,0.000335481 5.23465e-05,-0.000100675 -0.000118308,0.000223136 8.43517e-06,0.000248255 0.000236504,0.000129845 0.000122844,-0.000165382 -5.88749e-05,0.000237084 0.000116031,-0.000252916 -3.05053e-05,0.000306376 0.000212555,0.00030252 0.000278709,0.000199019 0.000113108,-0.000150853 -1.37518e-05,-0.000285233 0.000144035,0.000367211 6.59595e-05,0.000562015 0.000513852,9.58972e-05 0.000302155,-0.000316796 6.283e-05,0.000349835 -5.99585e-05,0.000129636 9.50482e-05,0.000213209 0.000139252,8.91246e-05 0.000171807,-1.40929e-05 0.000207168,-0.000426161 0.000186551,0.000271131 2.82677e-05,0.000254408 0.000359093,0.000134222 0.000386173,0.000466298 0.000143567,0.000710353 0.000260649,0.000171173 7.05785e-05,0.000138466 0.000179586,-2.68029e-05 9.4763e-05,-0.000595881 -8.1411e-05,-0.000232286 -7.18507e-05,2.86008e-05 0.000212267,-0.00011738 -0.000198797,-0.000406476 -0.000636504,-0.000204115 0.000236402,2.14796e-05 6.07164e-05,-0.000152218 -0.000241471,6.34456e-05 0.000339443,-0.00014735 3.86109e-05,-9.06268e-05 -5.54438e-05,-0.000205416 -0.00054943,-0.000584114 4.89127e-05,-4.91756e-05 -0.000210653,-1.62798e-05 7.09086e-05,-0.000121602 -0.000170874,0.000106192 -6.64314e-05,-0.000119538 -0.000245163,-0.000106289 -0.000178129,7.2842e-05 -9.13258e-05,-0.000138291 3.19322e-05,-6.7092e-05 -0.000114878,-2.43139e-05 1.45278e-05,6.85056e-05 -8.99903e-05,-0.000103988 -0.000180623,-7.61331e-05 -1.33772e-05,4.52631e-05 -0.000271289,-0.000246939 -0.000241886,-7.56167e-05 -9.61827e-05,-0.000130124 -2.71563e-05,5.07974e-05 -0.000112905,-0.000220283 -4.69187e-05,5.09641e-05 -1.8662e-05,-8.65309e-05 -0.000379741,-0.000222547 -0.000427755,-0.000475888 4.9743e-05,3.29917e-05 0.000147031,-0.00011863 0.0001744,4.72913e-05 0.00023663,0.000142485 -0.00015797,1.39747e-05 0.00029883,3.90172e-05 0.000292513,0.000196193 -0.00010128,-4.79075e-05 1.27881e-05,9.19985e-05 -0.00021225,-7.67704e-05 5.99529e-05,6.54135e-05 0.000276514,7.984e-05 1.57119e-05,-0.00010759 0.000159321,0.000119658 -0.000141741,5.53766e-05 0.000109934,0.000121881 2.86395e-05,-9.95722e-05 0.000179837,-1.51806e-06 -0.000151604,5.7266e-05 0.000145363,9.60898e-06 -1.75025e-06,0.000120114 5.04053e-05,-9.7047e-05 0.00028086,0.000118631 -0.000188858,-1.10474e-05 0.000286368,0.000174571 6.99007e-05,-2.58744e-05 -7.52796e-05,-1.74243e-05 4.4942e-05,-5.09477e-05 0.000166882,-1.22455e-05 0.000100922,0.000207741 0.000784436,0.000175779 -0.000296255,-0.000565486 -7.47222e-05,3.76545e-05 -3.49728e-05,-0.000331107 -8.57726e-05,-7.78366e-05 0.000132407,-1.11872e-06 -0.000226158,-8.38746e-05 8.33789e-05,-0.00015873 0.000126615,1.24753e-05 -1.45279e-05,-6.85055e-05 -7.9935e-05,-8.6916e-05 -3.30111e-05,5.80711e-05 -0.000170052,-0.000203545 -0.000312197,7.15192e-06 0.000226801,-0.000145493 -7.20588e-05,7.83267e-06 -0.000125028,-0.000246367 -0.000187685,7.00297e-06 6.6404e-05,1.93054e-05 -0.00022346,8.49632e-05 2.04104e-05,6.3941e-05 -0.000233791,0.000138327 0.000356806,-0.00038408 -0.000393485,-1.835e-05 0.000182856,-9.36501e-05 -0.000178619,2.4083e-05 1.33497e-05,-4.79719e-05 0.000252243,-7.25638e-05 -0.000200565,-9.40252e-05 -0.000184093,-0.000224197 -0.000239413,-2.68756e-05 -0.000121229,0.00012925 5.55489e-05,-0.000174749 -0.000105584,0.000112863 -2.08204e-05,-0.000104573 -4.43852e-05,0.000106026 -0.000135291,-0.000186683 -0.000163955,0.000106132 7.34903e-05,-0.000159549 -0.000176767,-8.61004e-05 -0.000151754,0.000237867 -0.000151721,4.55267e-05 5.59538e-05,6.09325e-05 -0.000526608,0.000107382 -0.000101224,-4.2491e-05 0.000540149,-0.000136392 3.8904e-05,-6.17324e-05 -0.000152718,4.4632e-05 0.000325442,-0.000261004 -0.000285659,0.000188428 -0.000446097,0.00015366 0.000194864,-0.000176826 0.000289891,-6.29454e-05 0.000209165,-0.000228418 -0.000140617,-0.000127041 -0.000271289,4.56316e-05 7.12377e-05,-8.90951e-05 -4.02897e-05,-7.55127e-05 -2.4119e-05,5.79956e-05 -0.000322913,-7.58394e-05 0.000178915,0.00010324 -0.000299053,-6.15927e-05 5.12756e-05,-0.000108793 -6.70174e-05,1.77219e-05 -5.32075e-05,-8.2628e-05 -0.000349435,0.000135686 -0.000316241,-0.000100279 -0.000158769,0.000130467 -4.6805e-05,0.000160226 -3.88455e-05,-3.0375e-05 8.1047e-05,-0.000292353 -6.45085e-05,-2.74499e-05 0.000202455,-0.000110066 0.000129331,-1.19254e-05 0.000134322,9.0975e-05 0.000448194,-4.35086e-05 0.000246751,0.000105497 -0.00217376,-0.00541348 0.000686071,-6.1666e-05 0.0001064,-3.15979e-05 -3.01058e-05,-4.57999e-05 0.000228859,5.94776e-05 0.000235657,0.000439585 8.3379e-05,0.000429128 -6.18243e-05,-5.54657e-05 -7.34812e-05,0.000356403 -0.000236872,0.000224134 -2.42149e-05,0.000146491 0.000273426,-0.000322869 0.000100518,-2.70337e-05 -2.66095e-05,0.000104973 -0.000248956,0.000201661 4.92389e-05,0.000179283 -0.00010642,2.97923e-05 7.60353e-06,0.000166089 0.000118373,-0.000118387 7.12191e-06,-0.000273671 0.000269168,-5.91562e-05 -0.000142773,-4.75599e-05 0.000185046,-7.19929e-05 4.40484e-05,-0.000139434 0.000384361,9.51896e-05 -5.9438e-05,0.000181102 9.46636e-05,0.000176191 0.000291824,-0.000164097 -0.000134718,6.52487e-05 5.04457e-06,-8.7634e-05 0.000222938,-3.79991e-05 -0.000218121,-7.22082e-05 3.81113e-05,5.56652e-05 -0.000122228,2.99262e-05 -2.7761e-05,8.87284e-05 -4.53292e-05,-0.000281356 -0.000306072,-0.000170798 2.6846e-05,-8.14966e-05 0.00042392,0.00029442 0.000249229,2.13777e-05 -0.000503995,-0.000395784 9.96615e-05,-0.000111909 -0.000108898,-0.00080366 0.000168702,-2.67055e-05 0.000274793,0.000106948 9.75842e-05,-0.000121825 8.65081e-05,-0.000435978 0.000103763,9.31368e-07 0.00021379,-0.000160731 0.000259929,5.03237e-06 0.000271452,-0.000126001 -0.000238021,-0.000184012 9.47983e-05,-0.000299694 1.70072e-05,-0.000272851 -5.29803e-05,3.747e-05 -1.24674e-05,-6.03962e-05 -0.000591895,0.000586526 -0.000212898,5.32657e-05 0.000241477,-0.000256683 0.000152737,-0.000531352 -2.57397e-05,-0.000592155 -0.000167885,-0.00018641 -0.000100417,-0.000354938 -6.92441e-05,-7.54348e-06 1.54998e-05,0.000165119 0.000222193,0.000574245 -6.65144e-05,0.00036086 -1.09312e-05,-0.000495658 -0.000122262,-0.000169638 -0.000115388,-0.000467688 2.47007e-06,0.000440646 0.000116343,0.000170591 1.5946e-06,0.000158013 -9.48401e-05,0.000393607 -0.000233645,0.000249392 7.08615e-05,6.98373e-05 0.000182369,-4.30751e-05 -0.000201492,0.000106447 -4.67925e-05,0.000161129 -0.000188817,-0.000204294 -0.000173841,6.8825e-06 -3.69808e-05,0.00025225 0.000102138,0.000133687 -0.000120437,0.000109375 4.61241e-05,6.64339e-05 -0.000447088,-1.71003e-05 4.00176e-05,-7.69958e-05 -0.000169265,-2.92769e-05 4.14384e-05,9.17577e-05 -0.000542388,0.000107509 0.000105362,-0.000134532 -3.2963e-05,-0.00032932 0.000140813,-0.000146569 5.44213e-05,-0.000286711 2.9804e-05,0.000211955 1.34705e-05,-0.000428138 7.51819e-05,8.39714e-06 -8.93284e-06,-0.000101964 -0.000150574,0.000158391 -0.000126499,0.00039026 -0.000197601,0.000198518 7.61264e-05,-0.000192078 -9.92629e-05,-0.000142743 -0.000180643,0.000410582 -0.000209071,0.000139016 -7.83217e-05,0.000170424 -8.01228e-05,-8.35604e-06 -6.41624e-05,-0.00146504 -8.22885e-05,0.000267079 -2.26643e-05,-9.1916e-05 1.21775e-05,-0.00016445 0.000114145,-0.000145441 -0.000183962,8.10118e-05 -3.17618e-06,0.00017521 -5.84214e-05,-1.21508e-05 8.2583e-05,0.000154623 -6.71411e-05,5.0797e-06 -0.000115346,0.000320634 -2.56713e-05,0.000590782 -8.25081e-05,0.000245408 -0.00068988,-0.000212728 0.000297356,-0.000694202 -8.35187e-06,-0.000829793 -1.63346e-05,0.000340571 -6.56507e-05,0.00015316 3.0349e-05,-0.000322628 -0.000129016,0.000337003 9.73075e-06,0.000181423 -0.000237922,0.000217818 -0.000208513,-1.86001e-06 9.23747e-07,0.000386479 -0.000290543,0.000291403 -0.000885282,-9.0091e-05 -0.000966009,0.000136333 -0.000520928,-0.000116634 0.000131945,-0.000243112 -0.000264035,0.000274922 0.000205069,-0.00034125 -0.000154171,9.61083e-05 -0.000141907,0.000235068 -0.000252667,-0.000167648 -8.64397e-05,-0.000145563 -0.000761281,-0.00023924 1.78593e-05,-0.000189781 -0.000193033,0.000162352 0.000174777,-0.000209155 -0.000401346,0.00018035 -0.000646198,-0.000489439 -0.000532458,-0.000183371 -0.000819397,-0.000123182 -0.000390832,-0.000151148 -0.000210629,-0.000114728 -8.75723e-05,-0.000259335 -0.000153114,-9.44398e-05 -0.000153016,-0.000282266 -0.000404434,-0.000128462 -0.000351703,-0.00038897 -0.000448298,-6.84994e-05 -2.0843e-05,-0.000108187 0.000431212,3.97458e-05 8.24234e-05,-4.09847e-05 -5.0373e-05,-3.14648e-05 0.000165064,-1.99148e-05 0.000106001,-0.000128694 0.000231283,-9.22319e-05 0.000967834,4.79018e-05 0.00112524,-0.000119574 0.000241681,0.000156908 0.000263049,2.12774e-05 0.000235468,-6.8793e-05 0.000265872,-0.000190051 0.00118108,0.000226697 0.000622798,2.90947e-05 0.000242908,0.000180371 2.50539e-05,-0.000260276 -8.64926e-05,-0.00015098 -0.000141006,-6.92524e-05 8.39003e-05,-0.000304114 -0.000122722,-0.000118168 -0.000372392,0.000209007 0.000105953,2.25902e-05 -5.98342e-05,4.38458e-05 0.000134859,-4.89761e-06 0.000204231,-0.000174934 -0.000106323,0.000334402 0.000301267,0.000284932 9.00405e-07,8.96909e-05 -0.000155881,-0.000172974 -0.000277171,-5.00511e-05 9.86395e-05,-0.000213937 -0.000222268,0.000103903 -0.000671925,-0.000100022 0.000788856,3.49288e-05 -0.000278594,-9.33841e-05 8.68913e-05,-6.14617e-06 -3.84688e-05,-9.17844e-05 -0.000415548,4.41169e-05 -0.00020052,-0.000190661 -0.000644213,-9.57426e-05 -0.000571474,6.34784e-05 -0.000234791,-0.000159674 -0.00112951,-0.000109752 -0.000680488,-0.000265216 -7.43231e-05,-0.000120382 7.54719e-05,-0.000555078 -0.00024449,-0.000734813 -0.000199677,-0.000206025 -0.000445025,-0.000236485 -0.000281106,-0.000642402 -0.00231208,-0.00351015 0.00148188,-0.000608349 0.000175083,-5.45951e-06 0.00183495,-0.000862597 0.000501361,-7.17621e-05 0.00107271,-0.000497748 0.000147107,-1.7609e-05 0.000354729,0.000150544 0.000456882,-8.33783e-06 0.000144519,0.000125212 9.84332e-05,-3.69442e-05 0.000199491,0.000187962 6.29725e-05,-0.000124691 0.000104663,9.16821e-05 0.000111125,-0.000249258 0.000514846,-0.000139763 6.97903e-05,6.2626e-05 -3.9724e-05,0.000226085 z "/>
<path d="M 0.016033,0.0190833 l 0.00770816,-0.00532056 -0.000112365,-0.000168824 -0.000761281,-0.00023924 1.78593e-05,-0.000189781 -0.000193033,0.000162352 0.000174777,-0.000209155 -0.000401346,0.00018035 -0.000646198,-0.000489439 -0.000532458,-0.000183371 -0.000819397,-0.000123182 -0.000569608,-0.000242664 -0.000119424,-0.000282547 -0.000153114,-9.44398e-05 -0.000153016,-0.000282266 -0.000404434,-0.000128462 -0.000351703,-0.00038897 -0.000439333,-6.13501e-05 -2.98074e-05,-0.000115336 0.000431212,3.97458e-05 8.24234e-05,-4.09847e-05 -5.0373e-05,-3.14648e-05 0.000165064,-1.99148e-05 0.000106001,-0.000128694 0.000231283,-9.22319e-05 0.000967834,4.79018e-05 0.00112524,-0.000119574 0.000241681,0.000156908 0.000263049,2.12774e-05 0.000235468,-6.8793e-05 0.000265872,-0.000190051 0.00118108,0.000226697 0.000622798,2.90947e-05 0.000266444,0.000175678 -1.27767e-05,-0.000301517 -0.000213204,-0.000174299 8.42719e-05,-0.000267094 -8.04824e-05,-0.000142903 -0.000154022,1.21272e-05 -0.000264073,0.000171979 0.000109044,3.52064e-05 -5.98342e-05,4.38458e-05 0.000134859,-4.89761e-06 0.000204231,-0.000174934 -0.000106323,0.000334402 0.000301267,0.000284932 9.00405e-07,8.96909e-05 -0.000155881,-0.000172974 -0.000277171,-5.00511e-05 9.86395e-05,-0.000213937 -0.000222268,0.000103903 -0.000671925,-0.000100022 0.000788856,3.49288e-05 -0.000278594,-9.33841e-05 8.68913e-05,-6.14617e-06 -3.84688e-05,-9.17844e-05 -0.000415548,4.41169e-05 -0.00020052,-0.000190661 -0.000644213,-9.57426e-05 -0.000571474,6.34784e-05 -0.000234791,-0.000159674 -0.00112951,-0.000109752 -0.000680488,-0.000265216 -7.43231e-05,-0.000120382 7.54719e-05,-0.000555078 -0.00024449,-0.000734813 -0.000199677,-0.000206025 -0.000445025,-0.000236485 -0.000281106,-0.000642402 -0.00231208,-0.00351015 0.00148188,-0.000608349 0.000175083,-5.45951e-06 0.00183495,-0.000862597 0.000501361,-7.17621e-05 0.00107271,-0.000497748 0.000147107,-1.7609e-05 0.000354729,0.000150544 0.000456882,-8.33783e-06 0.000144519,0.000125212 9.84332e-05,-3.69442e-05 0.000199491,0.000187962 6.29725e-05,-0.000124691 0.000104663,9.16821e-05 0.000111125,-0.000249258 0.000514846,-0.000139763 6.97903e-05,6.2626e-05 -2.93917e-05,0.000271149 0.000115994,-1.00018e-05 -1.14644e-05,-0.00015793 0.000177909,-0.00023997 -0.00326918,-0.000981439 -0.000941684,-0.000387624 -0.000221749,5.65153e-05 -0.00332494,0.00284631 -0.000727187,0.000444453 -0.000798005,0.000327605 -0.00745868,0.00240057 -0.00107928,0.000521833 0.00997159,0.012486 z "/>
<path d="M 0.016033,0.0190833 l -0.00853792,0.00589234 -0.000258043,0.00032051 -0.000199573,0.000104594 -0.000107042,-3.16228e-05 -0.000462331,0.000315362 0.000145029,7.55565e-05 0.000515848,-6.54946e-07 6.57724e-05,5.54424e-05 0.000450795,-8.31954e-05 0.000447677,0.000200374 0.000338711,0.000273516 0.000360584,0.000685106 0.000195453,0.000177176 0.000355127,0.000732106 0.000257696,0.000871976 0.000122278,0.000172364 -1.50594e-05,0.000672866 0.000205276,0.000767661 3.52516e-05,-3.28007e-05 2.53398e-05,0.000163234 0.000173612,0.00016652 0.000266071,0.000122408 -5.86027e-05,0.00026868 6.46918e-05,0.000344069 0.00150761,0.00165695 0.00457569,0.00462739 0.000339719,-0.00022407 5.38067e-05,4.37985e-05 4.40874e-05,-0.000137625 4.78322e-05,3.93333e-05 1.0758e-05,-0.000110256 0.000266092,-0.000273122 0.000293459,-0.000204722 9.02719e-05,3.35608e-05 0.000171008,-0.000194671 0.000392506,-0.000182975 6.53445e-06,6.04468e-05 -0.000197442,0.000120845 0.000243541,-5.71168e-05 5.23978e-05,-9.70592e-05 -7.50871e-05,2.43302e-06 1.29591e-05,-8.76998e-05 9.18906e-05,-0.000101001 0.000244357,-7.42812e-05 0.000327382,2.52584e-05 0.000584947,-0.000309201 0.000252569,-4.36495e-05 0.00027203,-0.00027137 -0.00023871,-0.000151515 -0.000458599,9.59399e-05 -0.000535909,-0.000123749 -0.000763237,0.000170721 -0.000511117,-1.65029e-05 -0.000613485,-0.000172774 -3.8707e-05,-0.000115262 -0.000296112,-0.000160072 0.000105532,-2.16492e-05 -0.000276461,-7.26443e-05 0.000328282,-8.2202e-05 5.70679e-05,7.35706e-05 0.000156012,-1.39433e-05 0.000197698,-0.000193989 0.000181236,0.000136648 0.000787106,4.21929e-05 0.000133783,-6.25214e-05 -6.25516e-05,-0.000127705 0.000103139,-6.31686e-05 0.000252888,8.72857e-05 0.000315514,-7.39729e-05 0.00062947,9.13618e-05 -4.87359e-05,-0.000129625 -0.000202174,-5.61028e-05 -0.000249095,-0.000201998 -0.000180697,-0.000280228 -2.9289e-05,-0.000359152 -0.000187571,-0.000177229 4.11974e-05,-3.10463e-05 -0.000145947,3.19211e-05 -0.000502857,-0.000278442 -4.71358e-05,3.01927e-05 6.6656e-05,-5.47368e-05 0.000708042,0.000240608 5.29565e-05,-4.10776e-05 -3.23091e-05,-6.83586e-05 -0.000170634,3.39334e-05 -0.000653645,-0.000236548 8.75436e-05,-4.1366e-05 0.000594073,0.000209052 6.68274e-05,-3.75814e-05 -0.000188755,-0.000493271 -0.000119586,-9.92351e-05 -6.69446e-05,2.58431e-05 -0.000148213,-0.000194715 4.41889e-05,-2.83621e-05 0.000414661,0.000254797 0.000270901,0.000801413 0.000133648,0.000121692 3.48394e-05,0.000321179 0.000395741,0.00043736 -0.000362142,-0.000437641 -2.87295e-05,-0.00030317 -0.000208627,-0.000306182 -4.39221e-05,-0.000340066 -0.000104881,-0.000111097 -0.000260892,-0.000986613 0.000274746,0.000198173 -3.3642e-05,0.000193524 0.000183158,0.00032897 -5.81771e-05,1.3128e-05 2.90698e-05,0.000139723 0.000399671,0.000731708 8.06137e-05,0.000352402 0.00015419,0.000199179 0.000223233,8.66287e-05 0.000367697,0.000301239 0.000466044,5.57007e-05 0.00022878,0.00024551 6.71442e-05,-5.9798e-06 -0.000102481,-0.000167102 -1.44825e-05,-0.00026175 -0.000590871,-0.000973916 -0.00010648,-0.000369342 -0.000181028,-0.000115877 -0.000228618,-0.000328589 3.07783e-05,-0.000281995 8.05256e-05,-5.12414e-05 0.000169455,0.000243298 -7.38253e-05,2.95133e-05 -0.000116583,-0.000194075 0.00016293,0.00047994 0.000206974,0.000140945 0.00027471,0.000391413 -0.000543344,-0.00076843 0.000118183,5.77074e-05 6.77244e-05,-4.66195e-05 5.65271e-06,0.000169718 0.000157774,6.36972e-05 0.000669528,0.000835098 0.000246839,0.000174021 0.000313118,0.000475972 0.000610876,1.11396e-05 0.000455553,0.000290564 8.87311e-05,-0.00011994 -0.000164025,3.18013e-06 4.44067e-05,-0.000105121 -0.000211721,-0.000121035 -8.65982e-05,-0.00016001 -0.00015882,-6.91043e-05 -0.00131081,-0.00121712 -4.9329e-05,-0.000386074 -3.19431e-05,0.000165517 -0.00033603,-0.000790932 -4.59048e-05,0.000152992 -0.000243034,-0.000584019 -4.62906e-06,-0.0004623 0.000140118,0.000175818 7.26348e-06,-6.41742e-05 -0.000156245,-0.000207288 0.000200879,0.000124741 0.000273634,0.000481723 6.68711e-05,-3.30675e-05 -3.93579e-05,0.000115914 8.00522e-05,2.33487e-07 0.000240467,0.000327586 0.000160825,0.000269556 4.80358e-05,0.000256955 2.6303e-05,-0.000136574 4.71546e-05,0.000366226 0.000165391,3.47362e-05 -0.000121211,-6.40021e-05 -2.39864e-05,-0.000125317 0.00036014,0.000434944 0.00017318,-7.54961e-05 2.82205e-05,0.000153275 -1.19747e-05,-0.000110066 6.71974e-05,-5.62552e-07 0.000423234,0.000419063 0.000493337,0.000313725 0.000126398,0.000186766 0.000420105,-0.000287064 -0.000142427,-0.000208303 5.14228e-05,-9.52465e-05 -0.000128992,4.71343e-05 9.07516e-05,-0.00021387 -0.000247719,-0.000261602 -0.000281926,-2.65342e-05 -9.70146e-05,-0.000114772 0.000218201,-0.000119219 -6.51374e-05,-0.00028661 -0.000268199,-3.74857e-05 -0.000200456,-0.000180728 -9.13402e-05,5.67512e-05 -3.2908e-05,-0.000127951 -2.69267e-05,7.42719e-05 -0.000476975,-0.000259685 0.000198021,-0.000160587 0.000207239,-2.97282e-05 0.000249702,6.56345e-05 2.558e-06,-0.000139084 -6.70155e-05,1.86213e-05 -0.000273766,-0.000494361 -0.000366236,4.09919e-05 -0.000175397,-4.72944e-05 -0.000384524,-0.000304708 -8.45732e-06,-5.50126e-05 9.52453e-05,3.71294e-05 -2.04512e-05,-6.84573e-05 -0.000109016,-3.06932e-05 0.000157104,-0.000101548 0.000418724,6.87367e-05 7.89894e-05,9.14455e-05 0.000125718,-7.78078e-05 -6.8554e-05,-0.000134877 -0.000499705,-0.000260399 -5.60275e-05,3.02679e-05 -0.000152492,-0.000227185 -5.83566e-05,-4.92988e-06 2.56633e-05,9.5504e-05 -0.000272804,-0.000201798 -0.00015462,-0.000242519 9.1821e-05,-0.000107323 0.000536132,4.96959e-05 0.000250594,0.000155026 -9.58607e-05,1.08535e-05 0.00016445,0.000127635 8.00964e-05,4.74773e-06 -0.000116729,-0.000110093 0.000100386,-4.14753e-05 9.84339e-05,0.000158105 0.000276787,0.000106044 8.9422e-05,-0.000445027 4.95056e-05,0.000206374 6.09806e-05,-0.00032469 -7.44749e-05,-3.54967e-05 0.000219935,5.41449e-05 4.68978e-05,-5.367e-05 8.26611e-05,6.34212e-05 0.000118424,0.00027894 -4.81931e-05,-7.54488e-05 -9.92217e-05,0.000551664 -6.0805e-05,4.65625e-05 2.55678e-05,-0.000209711 -0.000101132,0.000262718 0.000390363,0.000394053 0.000147604,-0.000457254 0.000186485,-0.000127983 0.000122588,4.3909e-06 5.87535e-05,0.000536796 -0.000101293,-4.88165e-05 -4.96102e-05,0.00037426 5.71687e-05,0.000181928 -6.07418e-05,5.28833e-05 0.000161698,0.000356235 0.000119109,-0.000145479 9.48354e-06,-0.000236667 0.000226611,-6.87217e-05 0.000115944,0.000228391 -9.83107e-05,-4.70352e-05 1.16038e-06,0.000115575 0.000106361,-3.70118e-05 3.4242e-05,6.38263e-05 -4.61999e-05,0.000123196 -1.31366e-05,-0.000127214 -2.12142e-05,5.25521e-05 3.16404e-06,0.000315122 0.000150187,0.0005875 0.000121031,4.59415e-05 5.35523e-05,-0.000178341 0.000107967,2.43788e-05 0.000176435,0.00034708 7.57311e-05,0.000455382 0.00019891,0.000124752 0.000148501,-7.25832e-05 3.72258e-05,6.5607e-05 5.86113e-05,-6.82171e-05 3.50981e-05,0.000345556 0.000492027,0.000182792 0.000304651,0.00022229 0.000286291,0.000558362 5.44949e-05,-8.44371e-05 -6.24171e-05,-0.000310109 -0.000182787,-0.000290135 -3.54458e-05,-0.000379867 -0.000370249,-0.000652473 -3.97483e-05,-0.000218193 -5.4894e-05,4.4708e-05 3.93073e-05,-0.000218857 -5.33351e-05,3.15668e-06 -0.000100147,-0.000327853 -0.000181402,-0.000152892 -8.8133e-05,-0.000312603 -0.000319966,-0.000370257 -3.29088e-05,6.89044e-05 -5.34084e-05,-0.000200922 -2.41234e-05,0.000156422 -8.23281e-05,-0.000128439 -0.000242369,-0.000516292 4.2536e-05,-0.000291124 0.00022913,-1.45636e-05 0.000177111,0.000119517 0.00029156,0.000297352 1.42882e-05,4.50304e-05 -0.000151627,-4.20721e-05 0.000100324,0.000149057 0.000187673,8.87258e-05 -5.03327e-05,0.000105171 0.000170304,0.00013041 9.17013e-05,-2.06357e-05 1.62533e-05,-0.000152744 -7.31783e-06,-0.000138098 -0.000103143,-3.61576e-05 0.000296569,-0.000187605 0.0001153,6.58545e-05 0.000115361,0.000464982 -8.59613e-05,0.000100052 -1.0006e-05,0.000184297 -6.79228e-05,-7.16702e-05 -1.27179e-05,0.000111176 0.000186118,0.000228704 6.13947e-05,1.21266e-05 4.93895e-05,-0.000100648 -2.04101e-05,-0.000162369 9.87696e-05,-0.000202199 -6.68802e-05,-6.62608e-05 0.000194832,-0.000182237 0.000132843,4.13256e-05 7.89118e-05,0.000574551 -0.000141946,0.000429216 -5.41161e-05,-7.44949e-05 2.71574e-06,0.000269976 8.14767e-05,4.35629e-05 -5.81488e-05,1.58395e-05 7.27776e-05,0.000259454 0.0001567,0.000153098 0.000295484,-0.000590338 -3.50294e-06,-0.000151675 0.000218523,-8.67186e-05 0.00011154,8.48481e-05 7.36245e-05,0.000343426 -5.84941e-05,-1.84715e-05 -9.97682e-06,0.000187006 -0.000125107,0.000138308 -0.000150046,0.000606274 2.00232e-05,0.000221971 0.000368177,0.000838506 0.000440419,-0.000133735 5.48815e-05,-0.000732798 0.000180886,0.000297373 -0.000101821,-0.000297135 2.07462e-05,9.735e-05 0.000146572,3.03725e-05 0.000271827,0.000495269 0.000997885,-2.82638e-05 0.00106254,0.00011115 -0.000128431,-0.000191258 -0.000146892,-6.19728e-05 -4.67242e-05,-0.000321076 -0.000267515,-0.00026323 -0.00116491,-0.000168989 -0.000156111,-9.4405e-05 -6.59337e-06,-6.58638e-05 0.000232503,0.000123561 5.63871e-05,-9.25809e-05 0.000155219,5.91782e-06 -0.000135801,-4.03954e-05 -0.000138573,-0.000217361 -0.000151954,2.38536e-05 -1.54633e-05,-0.000161508 0.000316757,0.000246564 0.000820957,-0.000127913 3.44275e-05,-0.000114068 -0.00041759,-0.000249325 -0.00016616,-0.000209001 -0.000160847,2.39288e-05 -5.83357e-05,9.53063e-05 -1.556e-05,-7.30124e-05 -0.000318879,-6.50423e-05 2.51319e-06,5.32561e-05 -0.000116734,-1.166e-05 -0.000175531,-0.000158355 -0.00023675,-5.48982e-05 1.7766e-05,-0.000100383 -6.08583e-05,4.1147e-05 -1.45985e-05,-7.57296e-05 0.000212939,-5.2359e-05 -5.78787e-05,-5.54995e-05 0.000142299,-1.19679e-06 0.000359507,0.000173965 0.00012382,-6.96701e-05 -0.000127834,-0.000132569 -0.000702582,-0.000286664 -0.000404221,-0.000296399 -1.49436e-05,-0.000110041 0.000263614,-0.000123219 0.000218515,1.08048e-05 0.00026499,0.00011155 -2.03676e-06,9.21236e-05 0.000127994,5.03947e-05 -0.000162978,-0.000285785 6.98936e-05,-0.000125202 0.000310128,7.95647e-05 0.000241947,0.000178565 0.000128042,0.000349288 0.000376004,0.000339977 8.69932e-05,-0.0002915 -0.000101377,-5.69388e-05 6.07757e-05,-4.92738e-05 -6.38709e-05,-0.000257721 0.000125376,-0.000111222 0.00016131,2.212e-05 0.000111245,0.000153477 3.60296e-05,0.000240799 -5.50377e-05,3.02626e-05 3.35749e-05,0.000487339 0.000422193,0.000215874 5.53342e-05,9.70583e-05 7.18644e-05,-2.76955e-05 1.348e-05,0.000160621 0.000261704,0.000470969 0.000292953,0.00023773 0.000293075,0.000445419 0.000466107,0.000355465 0.000248644,0.000546929 0.000155072,8.89921e-05 0.000254282,-6.89677e-05 0.000150349,-0.000182772 -5.46499e-05,-0.000126862 -0.00024616,-0.00010538 3.2805e-05,-7.8838e-05 0.000289004,-5.57159e-05 2.1309e-05,5.49034e-05 -0.000114577,6.38492e-06 0.00015017,-4.87931e-06 3.18608e-06,-7.58791e-05 -0.000512734,-0.000470653 -7.00832e-05,-0.000187233 -0.00034471,-0.000175887 2.72562e-05,-0.000236817 -0.000286222,-0.000158321 -0.000159799,-0.00036166 -0.000305179,-0.000176222 5.91271e-05,-1.67524e-05 -0.000103337,-5.51153e-05 0.000115199,-4.25091e-05 3.23312e-05,-0.00012579 -0.000187089,-0.000421932 -0.000156001,-8.35677e-05 -0.000243001,1.10775e-05 -0.000162094,-9.97709e-05 -6.52247e-05,-9.7878e-05 4.40443e-05,-0.000140337 0.000602789,-5.07875e-06 3.9082e-05,0.000151375 0.000130987,5.30762e-05 0.00017901,-8.45852e-05 -4.5707e-06,0.000134586 -0.000107761,9.39177e-05 -0.000679291,-0.000230863 -4.90263e-05,3.83392e-05 0.000500234,0.000114982 0.000218949,0.000151665 0.000129377,0.000285162 -7.19443e-05,-0.000273907 0.000106795,-0.000189628 3.7957e-06,-0.000211335 -0.000111821,-0.00021036 5.29132e-05,0.000248783 -6.05378e-05,7.27506e-05 -0.000119978,-0.0003331 -6.65489e-05,6.46741e-05 -1.44907e-05,-6.48941e-05 0.000156787,-0.000132257 0.000186269,4.7192e-05 0.000174158,0.000217962 -0.000120448,1.18515e-05 6.26712e-05,0.000138534 -5.51192e-05,2.21368e-05 -2.22554e-05,0.00034062 0.00021541,0.000388281 0.000166544,5.09698e-05 0.000192541,0.000276501 0.000242112,9.6385e-05 0.0008658,0.000789142 0.000173612,-3.21679e-05 -1.55332e-05,-0.000167827 -0.000495752,-0.000746211 -2.72993e-05,-0.000158698 -0.000678032,-0.000594777 -1.13291e-05,5.24698e-05 -8.14961e-05,-4.53658e-05 -2.8563e-05,-8.82534e-05 0.000805072,0.000452837 -0.000385393,-0.000290224 1.75072e-05,-0.000125665 8.61424e-05,0.000113955 0.000165503,-5.19647e-05 -3.243e-05,0.000115858 9.96263e-05,-0.000116425 0.000354511,0.000363627 0.000238986,0.000373632 0.000512724,0.000469747 0.000128256,-0.000119377 -1.48004e-06,-0.000146274 -0.000147235,-0.000291329 -0.000229495,-0.000119064 -0.000276777,-0.000299266 7.67332e-05,-0.000132486 -7.30321e-05,-8.78777e-05 2.82504e-05,-0.000235922 0.000132217,0.000370018 0.000246731,0.000162263 0.000255298,3.21577e-05 0.000388057,0.000455447 0.000177582,-0.000127921 3.51615e-06,-0.000238422 -0.000118965,-0.000134445 5.77544e-05,-5.46682e-05 -6.96662e-05,-4.81734e-05 3.42951e-05,-0.00012671 -0.000187085,-0.000127549 4.91453e-05,-0.000124127 0.000104362,5.87163e-05 -0.000108627,8.14191e-06 0.000203984,0.000137339 -8.60242e-05,-0.00019974 0.000226502,0.000116379 0.000356682,0.00067514 0.000308058,-0.000222937 -0.000101607,-0.000372081 0.000131987,-0.000238606 -5.42207e-05,-0.000181948 0.000164769,0.000168371 -6.28505e-05,0.000136885 0.000115132,4.86915e-05 7.86147e-05,0.00015104 0.000100172,-6.22515e-05 9.29985e-05,0.000205098 3.56112e-05,-9.42135e-05 0.000949256,-0.000241008 0.000916903,7.7117e-05 0.000630629,0.000303483 -6.75373e-05,-0.000130363 8.50274e-05,-9.37299e-05 -9.92216e-06,-0.000198576 -7.45734e-05,-0.000142042 -0.000532135,-0.000141777 -0.000290819,-0.000221481 -0.000210718,7.58309e-05 -8.90648e-05,-0.000109412 -0.000409324,-1.82064e-05 7.3927e-06,-5.06307e-05 -0.000378096,-5.73009e-05 -0.000442052,-0.000322244 -0.000286112,4.75703e-05 -0.000156854,-7.00106e-05 -0.00044046,0.000127436 -0.000126231,0.000123875 -8.59884e-05,-9.86035e-05 1.03296e-06,0.000102031 -9.8532e-05,-0.000166223 -0.000116915,-2.9714e-05 -0.000260877,2.20449e-06 4.51923e-06,5.5948e-05 -0.000244645,-5.39193e-05 -0.000391446,8.81887e-05 3.7989e-05,4.30233e-05 -0.000209235,-7.04733e-05 6.20174e-05,-2.40018e-05 -4.7761e-05,-3.21048e-05 -0.000126486,1.06802e-06 -4.71766e-05,2.56824e-05 7.55942e-05,4.81239e-05 -0.000298246,2.0578e-05 -0.000257966,-0.000100765 0.000177303,4.00416e-05 -0.000159568,-0.000143134 -8.92026e-05,7.20901e-05 -0.000363672,-9.71647e-05 0.000480756,-5.1916e-05 4.03027e-05,7.64151e-05 6.08655e-06,-8.22247e-05 0.000279385,6.89789e-05 0.000144695,-5.72078e-05 -0.00102027,-3.83453e-05 0.000232944,-2.81525e-05 0.000129535,-9.04904e-05 0.000284721,1.02391e-05 -7.77003e-05,3.6776e-05 0.000293119,5.893e-05 0.00126175,-0.000317678 -0.000133618,-0.000313116 -0.000118341,-7.30464e-05 3.7579e-05,-9.51328e-05 -0.000143896,-5.92855e-05 -0.000239008,1.4661e-05 -0.000495167,0.000287725 -0.000499181,8.63871e-05 -0.000425249,-2.98227e-05 -0.000314648,-0.000331457 -0.000132551,0.000281049 -0.000267994,-1.76061e-05 -0.000199504,0.000110043 -9.75404e-05,0.000127243 8.369e-05,6.70197e-05 -4.54593e-05,9.79077e-05 -4.90859e-05,-6.55055e-05 -6.57004e-05,0.000148646 7.83572e-05,2.82356e-05 -2.6903e-05,7.60791e-05 -5.50459e-05,2.93602e-05 -1.55701e-05,-7.39151e-05 -5.26684e-05,6.90723e-05 -4.01376e-05,-6.01629e-05 1.32528e-05,0.000138048 -0.000251097,-0.000203769 9.4992e-05,1.18415e-05 -1.46912e-05,-8.47585e-05 -0.000126212,2.81538e-05 7.5525e-05,-0.000546051 -0.000203668,-0.000106644 -0.000174668,2.49498e-05 -8.31236e-05,0.000184913 -0.000151048,0.000113245 -3.05647e-05,0.000105006 0.000128913,-5.43632e-05 -0.000155998,0.000112384 -2.67396e-05,9.23316e-05 9.34753e-05,-4.05195e-05 -2.12569e-05,4.80383e-05 -0.000257124,0.000178251 0.000145207,-6.641e-06 -0.000313023,0.000221163 -0.000123649,-1.16009e-05 -9.23961e-05,-0.000146412 -9.24383e-06,-0.000132664 5.41807e-05,8.08142e-05 5.35893e-05,-0.000173828 -3.56921e-05,-0.00020739 -0.000364556,-8.72314e-05 -7.17773e-05,0.000134249 2.8133e-05,4.58164e-05 7.246e-05,-6.65292e-05 -3.27239e-05,8.69638e-05 -0.000125776,7.1493e-05 -3.03836e-05,0.000123064 -0.000114337,2.98584e-05 0.000107141,4.06365e-05 -0.000267982,8.17195e-05 -0.000187724,-0.000191663 3.29336e-05,-6.61964e-05 4.8242e-05,7.99615e-05 4.27534e-05,-0.000268552 2.07825e-05,0.000100962 2.44566e-05,-0.000318966 -0.000435291,5.24242e-05 2.94028e-05,7.3799e-05 -0.000300785,-3.53964e-05 -1.16608e-05,0.000215916 7.4437e-05,-6.65453e-05 -4.02117e-05,0.000128565 -0.000402774,4.31188e-05 3.10373e-06,0.000111946 8.70137e-05,4.68647e-06 -0.00019872,9.01651e-05 5.57741e-05,4.28754e-05 -0.000190433,0.000128021 -0.000179539,3.22112e-05 -0.000105192,-4.33632e-05 -1.82603e-05,-0.00043961 5.01678e-05,0.000271383 0.000112542,-0.000404589 6.18755e-05,5.99813e-05 0.000132491,-0.000189842 -0.000429749,0.0002104 -0.000124655,-1.34007e-05 9.05754e-05,-3.41722e-05 -7.83744e-05,-3.00436e-05 -0.000136502,8.60293e-05 0.000136549,1.69129e-05 -5.50831e-05,2.57469e-05 -0.00019961,1.67694e-06 4.19281e-05,-5.63385e-05 -0.000108753,-4.50447e-06 6.66505e-05,-5.47402e-05 -0.000201714,-1.09477e-05 -8.99307e-05,9.82798e-05 0.000167989,-1.41094e-06 -0.000277447,0.000123333 -0.00021747,-5.39793e-06 0.000178053,1.6565e-05 -8.14007e-05,6.20879e-05 -0.000209775,-0.000124659 -4.56571e-05,-0.00011791 9.10736e-05,-8.29381e-05 -7.40325e-05,-8.9679e-05 -0.000237477,6.88159e-05 0.000139641,2.953e-05 -0.00017301,9.17528e-05 -0.000170826,1.40758e-05 -0.000138272,-9.00431e-05 -9.28475e-06,-0.000137179 0.000106869,0.000111979 -1.28846e-05,-0.000200359 -0.000204398,-8.13613e-05 -0.000347273,5.88997e-05 -0.000458284,-0.000170437 -0.000383554,8.71952e-05 -0.000290313,-7.52252e-05 -2.72875e-05,-0.0001587 0.000277648,-0.000103464 0.000130755,-0.000166346 1.55658e-05,-0.000221367 0.000115579,9.38466e-05 -2.50306e-05,-0.000130726 -0.00754611,-0.00944676 z "/>
<path d="M 0.0237411,0.0137628 l -0.00770816,0.00532056 0.00754611,0.00944676 0.000276731,0.000100622 1.40613e-05,0.000120885 0.000492759,6.08834e-05 -0.0001667,0.000129625 0.000197369,-0.00012627 -0.000193455,-0.000271085 -1.57754e-05,-0.000193111 7.33137e-05,-8.00794e-05 0.000409689,0.000153686 0.000162188,0.000208136 -4.17004e-05,0.000177339 0.000189465,7.06503e-05 0.000193299,-3.95487e-05 9.72577e-05,4.07218e-05 -0.000142775,5.17668e-05 0.000367417,7.72828e-05 4.9343e-05,-0.000105163 -3.91633e-05,3.6449e-05 -6.9914e-06,-0.000105593 -0.000126775,-2.78317e-05 -1.33107e-05,-0.000144369 -7.55724e-05,-4.63218e-05 0.000113773,-8.58377e-05 0.000133583,1.69385e-05 0.000260035,0.000209119 1.75182e-05,0.000169618 0.000355921,1.50704e-05 0.00013435,-0.000201596 9.69672e-05,1.18273e-05 3.0808e-05,0.000115326 0.000543733,-7.86162e-05 0.00033238,0.00013085 0.000207405,-1.25802e-05 -8.86317e-05,-0.000165407 -7.30058e-05,1.2353e-05 -1.3222e-05,-0.00013534 -2.70593e-05,6.07288e-05 -4.61829e-05,-7.1852e-05 -0.00031101,-6.96256e-05 -0.000330578,-0.000246451 -0.000122205,3.35351e-05 -0.000439026,-0.000122732 8.44184e-05,-5.66955e-05 -0.000184143,-3.27674e-05 4.20275e-05,-4.64063e-05 -6.97978e-05,-6.17211e-05 -4.5744e-05,6.99156e-05 -0.000173122,-0.000214364 3.44147e-05,8.09814e-05 -8.68488e-05,1.15654e-05 -0.00035776,-9.99387e-05 -0.000216468,-0.000594166 6.35659e-05,-0.000164881 0.000167152,1.3948e-05 -1.3244e-05,5.88065e-05 0.000153029,8.35978e-05 0.000153036,-1.3927e-05 -6.70596e-05,-8.43194e-05 9.63756e-05,-4.68625e-05 0.000184205,3.90883e-05 -0.000182445,3.76523e-05 0.00036684,2.03973e-05 -0.000199243,3.77936e-05 0.000285939,3.37185e-05 -8.37385e-05,2.59875e-05 3.34174e-05,8.00867e-05 4.70498e-05,-3.83214e-05 0.000112372,0.000167918 0.000321779,0.000158031 -0.000151867,3.19782e-05 0.000215908,4.6948e-05 -4.76456e-05,-0.000610031 8.41448e-05,-8.37836e-05 0.00021344,-1.79383e-06 0.000245476,0.000235427 -0.00016078,-6.81798e-05 0.000118626,0.000101945 -5.44547e-05,8.80492e-05 0.000114534,0.000284387 -0.000115244,-6.04355e-05 0.000100321,0.000345007 0.000161621,-4.47031e-05 3.73985e-05,-0.000211618 -5.79403e-05,-6.18202e-05 6.8707e-05,-4.66309e-05 0.000194333,6.33822e-05 -2.71346e-05,0.000249457 7.50698e-05,0.000192612 8.73217e-05,3.53858e-05 9.87794e-05,-4.44284e-06 7.5166e-05,-0.000190263 -4.08179e-05,-0.000127883 0.000181123,2.73725e-05 7.58636e-05,0.000565546 0.00026488,0.000199141 0.000477022,6.82254e-05 -0.00013069,-0.000416088 0.000247194,0.000209222 -0.000242412,-0.000323041 0.0003257,0.000154381 0.000243916,0.000276071 0.000425355,-0.000155287 0.000422017,3.66837e-06 1.56869e-05,-0.000110299 -0.000404243,-0.000103149 -0.00027479,-0.000201764 -4.34152e-05,-0.000189265 -0.000218596,-0.000117356 -0.000273131,-3.74325e-05 -1.98534e-05,-0.000204815 0.000108641,0.000189619 -3.59097e-05,-0.000229061 -0.000228245,3.72741e-06 -0.000325746,-0.000257324 -0.000431985,-1.26195e-05 4.49454e-05,-5.09464e-05 -0.00011478,-1.43855e-05 -4.49182e-05,5.36551e-05 -9.82117e-06,-9.20239e-05 -0.000206399,-8.40495e-05 3.70069e-06,-0.000221267 8.90937e-05,-8.29227e-05 8.38105e-05,-1.8765e-05 -2.19087e-05,8.14547e-05 0.000802921,4.74247e-05 7.54228e-05,-6.65541e-05 -0.000349361,-5.12402e-05 0.00023236,1.24927e-05 0.00020874,-7.58033e-05 0.000139323,9.63517e-05 1.0345e-05,0.000241918 0.000175526,-3.75979e-05 -0.000171769,-7.98243e-05 0.000342832,-8.30456e-06 3.72078e-05,0.000259752 0.00011738,-2.17576e-05 7.2039e-06,-6.9592e-05 -0.000105181,-4.24584e-05 0.000299796,-6.21232e-05 0.000103938,0.000213136 -6.5423e-05,-0.000117742 2.73776e-05,0.000362777 0.000210381,8.67221e-05 0.000181243,0.00023506 0.000132777,3.50013e-05 6.97032e-05,-4.57376e-05 3.99675e-06,-0.000191471 -6.21689e-05,-0.000284825 -3.71994e-05,-6.28968e-05 -6.3774e-05,4.56876e-05 1.05444e-05,-0.000326073 0.000117694,-8.85832e-05 0.000130672,2.23768e-05 5.61854e-05,0.000279458 0.000114645,0.000196792 5.80547e-05,-2.48705e-05 3.32191e-06,0.000231141 0.000250179,0.000700428 0.000401559,-6.47907e-05 0.000331415,3.51305e-05 5.1078e-06,-8.13134e-05 -0.000321251,-0.000300699 0.000327578,0.000144426 -0.000318626,-0.000236608 0.000231906,-3.26583e-05 4.30562e-05,5.5623e-05 0.000371846,2.66616e-05 -1.98569e-05,8.86619e-05 7.16515e-05,-4.84639e-05 0.000292295,0.000662144 0.000167752,-0.000122419 7.20728e-05,-0.000495454 0.000113977,-6.50756e-05 0.000225249,0.000188632 -4.05162e-05,9.78665e-05 9.66364e-05,7.68422e-05 0.000472082,-2.92718e-05 0.000458557,9.90675e-05 0.000288028,0.000142046 0.00051748,0.000550068 0.000699837,0.000113276 0.000613741,0.000296408 -6.5074e-05,-0.000277574 -0.000571798,-0.000448468 -0.000199114,-0.000242126 -0.000319906,2.79902e-05 -0.000469794,-0.00013509 -0.000782045,-0.00052255 -0.000411242,-0.000697256 -0.00127243,4.05416e-05 -0.000576917,-0.000174831 -0.000187675,8.80683e-06 -9.49196e-06,-0.000157043 0.000123777,-7.32842e-05 0.000152101,-8.5069e-06 3.7437e-05,8.63726e-05 0.000222259,-9.09897e-06 -0.000469992,4.00845e-05 8.02558e-07,7.94576e-05 8.64187e-05,-5.40061e-05 0.00025998,0.000105265 0.000324083,-0.000298919 0.000315473,2.26219e-05 0.000893011,-0.000229679 -7.95627e-05,-4.98962e-05 -0.000580771,3.01878e-05 -0.000196382,-7.05827e-05 -0.000326118,-0.000195909 -0.000112035,-0.000329554 -0.000278466,-0.00017464 -6.41589e-05,0.00010529 -0.000307022,0.00012901 1.73553e-05,-0.000238539 -0.00027196,7.81455e-05 -0.000265513,-6.639e-05 -0.000339088,0.000280983 3.05008e-05,8.46254e-05 -0.000201453,1.43396e-05 -6.60645e-05,-8.34228e-05 1.39402e-06,0.000138148 -3.50363e-05,-0.000142379 0.000111108,-0.000153544 8.84361e-06,9.29349e-05 1.64015e-05,-0.000137395 -2.24255e-05,0.00022594 6.626e-05,4.8597e-06 7.77206e-05,-0.000132494 -2.38896e-05,-0.000212908 -0.000294884,-3.90536e-05 -0.000191671,0.000200276 4.89106e-05,4.83502e-05 -0.000342597,0.000129306 -0.000669849,1.64758e-05 -0.000438051,7.14119e-05 5.67773e-06,7.30956e-05 -9.06724e-05,2.4241e-05 -0.000695124,5.82213e-05 -0.000318242,9.47823e-05 -0.000692372,-6.10032e-05 -0.000156001,-8.44748e-05 -6.28728e-05,-0.000159304 1.41189e-07,-0.000182408 0.000240624,0.000342926 0.000787691,-9.06001e-05 0.000173316,3.73719e-05 -7.06369e-05,5.11622e-05 0.000237308,1.33555e-05 -9.47191e-05,-8.31829e-05 0.000153859,-3.01901e-05 -0.00034226,-3.3242e-05 0.000693698,-0.000101553 0.00018583,-9.36699e-05 -0.000791432,0.000111406 -1.97567e-05,-9.73584e-05 0.000251066,-9.24118e-05 -0.000345976,-9.73276e-06 7.84993e-05,4.26842e-05 -7.39831e-05,1.32641e-05 -0.000105434,-6.77419e-05 -0.000113315,0.000130985 -6.87024e-05,-0.000149321 3.64766e-05,-0.000106861 0.000100554,-2.43234e-05 0.00020365,0.000105745 0.000536631,2.71096e-06 0.000263356,-0.000147599 -9.08982e-06,7.86379e-05 0.000303709,-6.57659e-05 -7.39547e-06,5.06305e-05 0.000140288,-3.88967e-06 0.000577541,-0.000252285 -0.000416569,-5.24793e-05 -0.000163879,-8.16971e-05 -4.16238e-05,-0.000109816 -1.14026e-05,4.52462e-05 -0.000417032,-9.85304e-05 3.2157e-05,5.30067e-05 -0.00024074,3.81454e-05 -0.000207711,-0.000116547 1.04661e-05,-0.000138248 0.00033314,0.00010917 0.000143721,-5.53894e-05 1.29604e-05,-8.67975e-05 -0.000600287,-0.000338093 -0.000105966,-2.2587e-05 4.90366e-05,6.0992e-05 -0.000123389,1.36796e-05 -0.000326621,-0.000148959 0.00021426,-1.80553e-05 -7.16543e-05,-4.99659e-05 0.000190266,5.25806e-05 0.000175832,-6.89659e-06 -0.000212938,-4.69717e-05 0.000258028,1.04723e-05 0.000709757,0.000512354 0.000236218,3.43015e-06 -0.000262273,-3.93311e-05 -0.000625793,-0.000515769 -4.8855e-05,-0.000337313 5.49984e-05,-3.38737e-05 -6.94778e-05,-3.01179e-05 -2.48e-05,8.87031e-05 -0.000140241,-0.000285976 -6.20367e-05,0.000218146 -9.54508e-05,-5.78928e-05 4.07556e-05,-7.43891e-05 -8.16261e-05,-5.89121e-05 0.000162837,-0.000119663 0.000264992,0.000113356 6.63347e-05,0.000110512 -8.29296e-05,7.9215e-06 7.89439e-05,8.69276e-05 5.28948e-05,-4.64981e-05 6.60289e-05,0.00017824 -9.79244e-05,-9.10941e-06 -3.27231e-05,8.69637e-05 0.000101435,6.32602e-05 5.05093e-05,-8.71133e-05 0.000317523,0.000226692 -0.000154854,2.9296e-05 0.000201163,5.51969e-05 0.000128422,0.000289687 7.18786e-05,-2.5889e-05 1.49782e-05,-0.000180727 -8.90589e-05,-1.18926e-05 5.34424e-05,-0.000188275 -9.76516e-05,1.79788e-05 6.8419e-05,-0.00017305 0.000130305,-1.37386e-05 0.000135787,0.00013792 -3.29046e-05,6.89053e-05 -4.77213e-05,-2.84945e-05 6.31296e-05,0.000184585 -7.33672e-05,-2.37636e-05 6.91168e-06,9.74663e-05 0.000208012,0.000146342 0.00031565,4.06869e-05 5.61643e-05,-0.000114251 7.5544e-05,4.36111e-05 -2.89333e-05,-0.000125274 0.00020324,6.51108e-05 1.37017e-05,8.4767e-05 0.000473783,0.00014049 0.000794639,1.13631e-05 3.81486e-05,-0.000136675 -0.000373025,-0.000535949 -4.08906e-05,6.08459e-05 -2.66755e-05,-9.72997e-05 -0.000344141,-0.000220142 -0.000443499,-7.75345e-05 0.000204883,-6.5839e-05 3.82041e-05,-0.000131257 -0.000270882,-0.000207215 -0.000173554,3.66787e-05 -4.19377e-05,-0.000238943 -5.74661e-05,0.000181085 -5.03935e-05,-0.000195528 -0.000180593,-7.3429e-05 0.000216889,4.69362e-05 -0.000305431,-0.000497693 0.000553457,0.000104604 0.000161759,0.000165694 -4.41555e-05,3.10741e-05 0.00037084,0.0001242 0.000230064,0.000275284 0.000156136,-9.79372e-05 9.81062e-05,2.71663e-05 1.41268e-05,0.000224729 9.45902e-06,-0.000433522 -7.95284e-05,-0.000144713 -3.17772e-05,0.000278393 -6.59669e-05,2.4034e-05 3.83895e-05,-0.000210724 -5.82077e-05,9.52057e-06 1.57631e-05,-0.0002006 0.000144396,-8.60993e-05 0.000110692,9.93006e-05 5.18082e-05,0.000335481 5.23465e-05,-0.000100675 -0.000118308,0.000223136 8.43517e-06,0.000248255 0.000236504,0.000129845 0.000122844,-0.000165382 -5.88749e-05,0.000237084 0.000116031,-0.000252916 -3.05053e-05,0.000306376 0.000212555,0.00030252 0.000278709,0.000199019 0.000113108,-0.000150853 -1.37518e-05,-0.000285233 0.000144035,0.000367211 6.59595e-05,0.000562015 0.000513852,9.58972e-05 0.000302155,-0.000316796 6.283e-05,0.000349835 -5.99585e-05,0.000129636 9.50482e-05,0.000213209 0.000139252,8.91246e-05 0.000171807,-1.40929e-05 0.000207168,-0.000426161 0.000186551,0.000271131 2.82677e-05,0.000254408 0.000359093,0.000134222 0.000386173,0.000466298 0.000143567,0.000710353 0.000260649,0.000171173 7.05785e-05,0.000138466 0.000179586,-2.68029e-05 9.4763e-05,-0.000595881 -8.1411e-05,-0.000232286 -7.18507e-05,2.86008e-05 0.000212267,-0.00011738 -0.000198797,-0.000406476 -0.000636504,-0.000204115 0.000236402,2.14796e-05 6.07164e-05,-0.000152218 -0.000241471,6.34456e-05 0.000339443,-0.00014735 3.86109e-05,-9.06268e-05 -5.54438e-05,-0.000205416 -0.00054943,-0.000584114 4.89127e-05,-4.91756e-05 -0.000210653,-1.62798e-05 7.09086e-05,-0.000121602 -0.000170874,0.000106192 -6.64314e-05,-0.000119538 -0.000245163,-0.000106289 -0.000178129,7.2842e-05 -9.13258e-05,-0.000138291 3.19322e-05,-6.7092e-05 -0.000114878,-2.43139e-05 1.45278e-05,6.85056e-05 -8.99903e-05,-0.000103988 -0.000180623,-7.61331e-05 -1.33772e-05,4.52631e-05 -0.000271289,-0.000246939 -0.000241886,-7.56167e-05 -9.61827e-05,-0.000130124 -2.71563e-05,5.07974e-05 -0.000112905,-0.000220283 -4.69187e-05,5.09641e-05 -1.8662e-05,-8.65309e-05 -0.000379741,-0.000222547 -0.000427755,-0.000475888 4.9743e-05,3.29917e-05 0.000147031,-0.00011863 0.0001744,4.72913e-05 0.00023663,0.000142485 -0.00015797,1.39747e-05 0.00029883,3.90172e-05 0.000292513,0.000196193 -0.00010128,-4.79075e-05 1.27881e-05,9.19985e-05 -0.00021225,-7.67704e-05 5.99529e-05,6.54135e-05 0.000276514,7.984e-05 1.57119e-05,-0.00010759 0.000159321,0.000119658 -0.000141741,5.53766e-05 0.000109934,0.000121881 2.86395e-05,-9.95722e-05 0.000179837,-1.51806e-06 -0.000151604,5.7266e-05 0.000145363,9.60898e-06 -1.75025e-06,0.000120114 5.04053e-05,-9.7047e-05 0.00028086,0.000118631 -0.000188858,-1.10474e-05 0.000286368,0.000174571 6.99007e-05,-2.58744e-05 -7.52796e-05,-1.74243e-05 4.4942e-05,-5.09477e-05 0.000166882,-1.22455e-05 0.000100922,0.000207741 0.000784436,0.000175779 -0.000296255,-0.000565486 -7.47222e-05,3.76545e-05 -3.49728e-05,-0.000331107 -8.57726e-05,-7.78366e-05 0.000132407,-1.11872e-06 -0.000226158,-8.38746e-05 8.33789e-05,-0.00015873 0.000126615,1.24753e-05 -1.45279e-05,-6.85055e-05 -7.9935e-05,-8.6916e-05 -3.30111e-05,5.80711e-05 -0.000170052,-0.000203545 -0.000312197,7.15192e-06 0.000226801,-0.000145493 -7.20588e-05,7.83267e-06 -0.000125028,-0.000246367 -0.000187685,7.00297e-06 6.6404e-05,1.93054e-05 -0.00022346,8.49632e-05 2.04104e-05,6.3941e-05 -0.000233791,0.000138327 0.000356806,-0.00038408 -0.000393485,-1.835e-05 0.000182856,-9.36501e-05 -0.000178619,2.4083e-05 1.33497e-05,-4.79719e-05 0.000252243,-7.25638e-05 -0.000200565,-9.40252e-05 -0.000184093,-0.000224197 -0.000239413,-2.68756e-05 -0.000121229,0.00012925 5.55489e-05,-0.000174749 -0.000105584,0.000112863 -2.08204e-05,-0.000104573 -4.43852e-05,0.000106026 -0.000135291,-0.000186683 -0.000163955,0.000106132 7.34903e-05,-0.000159549 -0.000176767,-8.61004e-05 -0.000151754,0.000237867 -0.000151721,4.55267e-05 5.59538e-05,6.09325e-05 -0.000526608,0.000107382 -0.000101224,-4.2491e-05 0.000540149,-0.000136392 3.8904e-05,-6.17324e-05 -0.000152718,4.4632e-05 0.000325442,-0.000261004 -0.000285659,0.000188428 -0.000446097,0.00015366 0.000194864,-0.000176826 0.000289891,-6.29454e-05 0.000209165,-0.000228418 -0.000140617,-0.000127041 -0.000271289,4.56316e-05 7.12377e-05,-8.90951e-05 -4.02897e-05,-7.55127e-05 -2.4119e-05,5.79956e-05 -0.000322913,-7.58394e-05 0.000178915,0.00010324 -0.000299053,-6.15927e-05 5.12756e-05,-0.000108793 -6.70174e-05,1.77219e-05 -5.32075e-05,-8.2628e-05 -0.000349435,0.000135686 -0.000316241,-0.000100279 -0.000158769,0.000130467 -4.6805e-05,0.000160226 -3.88455e-05,-3.0375e-05 8.1047e-05,-0.000292353 -6.45085e-05,-2.74499e-05 0.000202455,-0.000110066 0.000129331,-1.19254e-05 0.000134322,9.0975e-05 0.000448194,-4.35086e-05 0.000246751,0.000105497 -0.00217376,-0.00541348 0.000686071,-6.1666e-05 0.0001064,-3.15979e-05 -3.01058e-05,-4.57999e-05 0.000228859,5.94776e-05 0.000235657,0.000439585 8.3379e-05,0.000429128 -6.18243e-05,-5.54657e-05 -7.34812e-05,0.000356403 -0.000236872,0.000224134 -2.42149e-05,0.000146491 0.000273426,-0.000322869 0.000100518,-2.70337e-05 -2.66095e-05,0.000104973 -0.000248956,0.000201661 4.92389e-05,0.000179283 -0.00010642,2.97923e-05 7.60353e-06,0.000166089 0.000118373,-0.000118387 7.12191e-06,-0.000273671 0.000269168,-5.91562e-05 -0.000142773,-4.75599e-05 0.000185046,-7.19929e-05 4.40484e-05,-0.000139434 0.000384361,9.51896e-05 -5.9438e-05,0.000181102 9.46636e-05,0.000176191 0.000291824,-0.000164097 -0.000134718,6.52487e-05 5.04457e-06,-8.7634e-05 0.000222938,-3.79991e-05 -0.000218121,-7.22082e-05 3.81113e-05,5.56652e-05 -0.000122228,2.99262e-05 -2.7761e-05,8.87284e-05 -4.53292e-05,-0.000281356 -0.000306072,-0.000170798 2.6846e-05,-8.14966e-05 0.00042392,0.00029442 0.000249229,2.13777e-05 -0.000503995,-0.000395784 9.96615e-05,-0.000111909 -0.000108898,-0.00080366 0.000168702,-2.67055e-05 0.000274793,0.000106948 9.75842e-05,-0.000121825 8.65081e-05,-0.000435978 0.000103763,9.31368e-07 0.00021379,-0.000160731 0.000259929,5.03237e-06 0.000271452,-0.000126001 -0.000238021,-0.000184012 9.47983e-05,-0.000299694 1.70072e-05,-0.000272851 -5.29803e-05,3.747e-05 -1.24674e-05,-6.03962e-05 -0.000591895,0.000586526 -0.000212898,5.32657e-05 0.000241477,-0.000256683 0.000152737,-0.000531352 -2.57397e-05,-0.000592155 -0.000167885,-0.00018641 -0.000100417,-0.000354938 -6.92441e-05,-7.54348e-06 1.54998e-05,0.000165119 0.000222193,0.000574245 -6.65144e-05,0.00036086 -1.09312e-05,-0.000495658 -0.000122262,-0.000169638 -0.000115388,-0.000467688 2.47007e-06,0.000440646 0.000116343,0.000170591 1.5946e-06,0.000158013 -9.48401e-05,0.000393607 -0.000233645,0.000249392 7.08615e-05,6.98373e-05 0.000182369,-4.30751e-05 -0.000201492,0.000106447 -4.67925e-05,0.000161129 -0.000188817,-0.000204294 -0.000173841,6.8825e-06 -3.69808e-05,0.00025225 0.000102138,0.000133687 -0.000120437,0.000109375 4.61241e-05,6.64339e-05 -0.000447088,-1.71003e-05 4.00176e-05,-7.69958e-05 -0.000169265,-2.92769e-05 4.14384e-05,9.17577e-05 -0.000542388,0.000107509 0.000105362,-0.000134532 -3.2963e-05,-0.00032932 0.000140813,-0.000146569 5.44213e-05,-0.000286711 2.9804e-05,0.000211955 1.34705e-05,-0.000428138 7.51819e-05,8.39714e-06 -8.93284e-06,-0.000101964 -0.000150574,0.000158391 -0.000126499,0.00039026 -0.000197601,0.000198518 7.61264e-05,-0.000192078 -9.92629e-05,-0.000142743 -0.000180643,0.000410582 -0.000209071,0.000139016 -7.83217e-05,0.000170424 -8.01228e-05,-8.35604e-06 -6.41624e-05,-0.00146504 -8.22885e-05,0.000267079 -2.26643e-05,-9.1916e-05 1.21775e-05,-0.00016445 0.000114145,-0.000145441 -0.000183962,8.10118e-05 -3.17618e-06,0.00017521 -5.84214e-05,-1.21508e-05 8.2583e-05,0.000154623 -6.71411e-05,5.0797e-06 -0.000115346,0.000320634 -2.56713e-05,0.000590782 -8.25081e-05,0.000245408 -0.00068988,-0.000212728 0.000297356,-0.000694202 -8.35187e-06,-0.000829793 -1.63346e-05,0.000340571 -6.56507e-05,0.00015316 3.0349e-05,-0.000322628 -0.000129016,0.000337003 9.73075e-06,0.000181423 -0.000237922,0.000217818 -0.000208513,-1.86001e-06 9.23747e-07,0.000386479 -0.000290543,0.000291403 -0.000885282,-9.0091e-05 -0.000966009,0.000136333 -0.000520928,-0.000116634 0.000131945,-0.000243112 -0.000264035,0.000274922 0.000205069,-0.00034125 -0.000154171,9.61083e-05 -0.000116182,0.000238465 -0.000252468,-0.000147783 z "/>
<path d="M 0.00749506,0.0249757 l 0.00853792,-0.00589234 -0.00997159,-0.012486 -0.000620242,0.000483641 -0.000518133,0.000575322 -0.00492302,0.00667138 0.00510808,0.00804225 0.00238698,0.00260578 z "/>
</g></g></svg>