<?xml version="1.0" encoding="UTF-8" standalone="no"?>
<!DOCTYPE svg PUBLIC "-//W3C//DTD SVG 1.1//EN" "http://www.w3.org/Graphics/SVG/1.1/DTD/svg11-flat.dtd"
[
<!ATTLIST g xmlns:fme CDATA #FIXED "http://www.safe.com/fme" >
<!ATTLIST path fme:district_id CDATA #IMPLIED fme:precinct_id CDATA #IMPLIED fme:id CDATA #IMPLIED >
<!ATTLIST ellipse fme:district_id CDATA #IMPLIED fme:precinct_id CDATA #IMPLIED fme:id CDATA #IMPLIED >
<!ATTLIST text fme:district_id CDATA #IMPLIED fme:precinct_id CDATA #IMPLIED fme:id CDATA #IMPLIED >
<!ATTLIST use fme:district_id CDATA #IMPLIED fme:precinct_id CDATA #IMPLIED fme:id CDATA #IMPLIED >
]>
<svg xmlns="http://www.w3.org/2000/svg"  viewBox="-0.00150248 -0.00150248 0.196663 0.0931536"><g xmlns:fme="http://www.safe.com/fme" fill="none" stroke="black" stroke-width="0.000015024777434" transform="translate(0,0.0901487) scale(1, -1)">
<g id="24" >
<path d="M 0.113246,0.0249962 l -0.00132971,0.000562123 0.00250783,0.000704791 -0.000938756,0.00279583 0.00337476,0.000947808 0.00780022,-0.00310327 -0.000992151,-0.0020871 0.00241766,-0.00110429 6.56205e-05,0.000273873 0.000222329,0.000337375 0.000496361,0.000364707 0.000512022,5.37155e-06 0.000168465,-0.00017281 0.000288061,-2.84571e-05 0.000360567,-0.000299966 0.000631326,0.000452709 0.000144377,0.000208044 1.72316e-05,0.000184642 0.000280662,0.000213045 0.000394202,8.9244e-05 0.000553253,-0.000116918 0.000244423,0.000400719 2.08093e-05,0.000304936 0.000813629,0.000626336 -9.37486e-05,0.000407457 0.000301705,0.000429152 -5.1373e-05,0.000222574 5.789e-05,0.000218804 0.000377321,0.000313113 -0.000174634,0.000282556 -4.03188e-05,0.000239106 0.000135605,0.000402289 -0.000544385,0.000216625 0.00148159,0.00311301 0.0086164,-0.00265175 0.000391337,0.000116247 0.00235642,-0.00072428 0.00240967,-0.00130707 0.00141966,-0.000369458 0.00537914,-0.00165559 0.00257695,0.000254159 0.000437003,-0.000157678 2.01768e-05,4.68344e-05 0.0228438,-0.00885416 7.5607e-05,-0.000185469 0.000163402,-7.5974e-05 0.000158294,-0.000420055 0.000228794,-0.00033708 0.000361412,-0.000330508 0.00042745,-0.000234149 0.000864129,-0.000161568 0.00167438,0.00022474 0.000216948,-0.000267541 0.000849097,-0.000112344 0.0028024,-0.00104267 0.0028526,-0.00116544 0.00142424,-0.000716535 0.000561369,-0.00040193 0.000373757,-0.000305723 0.000743708,-0.000970761 0.000637046,-0.00140418 4.4707e-05,-0.00035783 -0.000548761,-0.00134395 -0.00369512,-0.0023692 -0.00144403,-0.00108161 -0.00193015,-0.00162559 -0.00226096,-0.00241148 -0.0086976,0.00323532 -0.00343032,0.00155916 -0.00667091,0.00130063 -0.00676264,0.00254353 -0.00395782,0.0010855 -0.00489687,0.00118905 -0.0242279,0.00925222 -0.0118897,0.00483076 z M 0.12639,0.0354707 l 0.00246583,-0.00162184 -0.00122342,-0.00178393 -0.00415307,0.00238412 -8.00841e-05,-0.000594326 -0.000385619,-0.000621232 -0.000228998,-8.989e-05 -0.000403582,3.60025e-05 -0.000179153,-0.000106129 9.11552e-05,-0.000445633 -0.000220561,-0.000496867 -0.00017939,-0.000175655 -0.000476303,-9.79318e-05 -0.000844844,2.25202e-05 -8.37024e-05,-0.00100172 -0.000265407,-0.000552956 -0.000371622,-0.000237269 -0.000723985,-1.56321e-05 -0.00218333,0.000863046 -0.000934745,0.00278398 -0.00202865,-0.000570057 -0.00109577,0.00326325 0.000660505,0.000185607 -0.000465068,0.00138497 0.00188668,0.000546881 0.00267538,0.00208142 0.000300051,0.000122212 0.000312048,3.66395e-06 0.000317557,-0.000124239 0.0078181,-0.00514236 z M 0.114265,0.0428158 l 0.00126391,-0.000201391 0.00231434,-0.00152208 -0.000507668,-0.000234165 -0.00247148,-0.0019407 -0.000534953,-0.000196633 -1.97701e-06,0.000157255 -0.00102468,0.000161759 -0.000255887,0.000403274 -0.00245517,2.46649e-05 -0.000878347,0.000675566 0.000249248,0.000369686 -0.000246584,0.000566747 -0.000496511,0.000114309 -0.000202833,0.00053306 0.000212094,0.000312998 0.000333793,0.00152488 0.00470271,-0.000749228 z M 0.115433,0.0439674 l 0.0136871,-0.00215002 0.00193186,-0.000455732 0.000198084,-0.000243337 -0.000231864,-0.000697245 0.000138395,-0.000547091 0.000215947,-0.000257549 0.000372875,-0.000246848 0.000296492,-7.0658e-05 0.00050644,7.37258e-06 8.86453e-05,-0.000760235 0.00055239,-0.000749626 0.000755482,0.00100522 0.00052971,0.000120772 0.000379363,0.000264928 0.00018897,0.000308558 8.4621e-05,0.000440971 0.000154679,0.000146625 0.000221431,2.2149e-05 0.00168584,-0.00050492 0.000997811,-0.000535468 0.0094842,-0.00665946 0.000444561,-0.000449584 0.000235199,-0.000478594 5.21739e-05,-0.00052256 -0.000148747,-0.000535047 -0.000219774,-0.00033121 -0.000300787,-0.000272773 -0.000363953,-0.000198149 -0.000405523,-0.000111768 -0.000453253,-1.6472e-05 -0.000466003,9.93727e-05 -0.00116438,0.000650779 -0.000432713,-0.000434963 -0.014394,0.00442985 -0.0136861,0.00900213 -0.00964261,0.00153174 0.000754119,0.000447596 0.00795343,-0.00124876 z M 0.102491,0.0400867 l -0.00549081,0.00155869 -0.001959,0.000748421 -0.00256108,0.00310557 -0.000102874,1.8952e-05 -0.00119575,0.00115008 -0.00613288,0.0034291 0.000386865,0.0011223 -0.000609414,0.000451248 0.000449952,0.000508393 0.00441143,-0.0032349 0.00114683,-0.000663597 0.000657926,-0.000295209 0.00138273,-0.000441218 0.000715905,-0.000143169 0.0045724,-0.00072291 0.00116649,-0.000655152 0.000532278,-0.000394479 0.000942591,-0.000907916 0.00040321,-0.000506593 0.000655074,-0.00109939 0.000409382,-0.00225351 0.000218729,-0.000774728 z M 0.0536125,0.0681624 l 7.22382e-05,-2.87378e-05 -0.000433376,-0.000909126 0.0138148,-0.00554185 0.000279182,-0.000974298 0.00108614,-0.000435663 0.00118394,0.000388962 0.0052508,-0.00215686 0.000729313,-0.000443282 0.00942332,-0.00695602 -0.000331311,-0.000961148 -0.00133349,0.000686203 -0.000451183,-0.000446819 -0.00166441,0.00131452 -0.000838734,-0.000888514 0.0016269,-0.00129379 0.000448326,3.0013e-05 0.000262715,-0.000119706 0.000109676,-0.000402392 -0.000196481,-0.000441804 0.000640159,0.000322963 0.000828144,-5.07997e-05 0.000236349,-0.000285648 0.000482779,-0.000204704 0.000144263,-0.000217168 -2.57849e-05,-0.000541197 -0.000248281,-0.000739108 -0.000259508,-0.000148612 -0.000943268,-3.82774e-05 0.000171081,-0.000260751 0.000166127,-0.000112495 4.40486e-05,-0.000239042 -3.46654e-05,-0.00129591 -0.000153194,-0.000172854 0.000166676,-0.00015949 0.000513873,1.22506e-06 -0.000136496,0.000382701 0.000234766,0.000358092 0.000493321,0.00024527 0.000250101,0.000299532 0.000196149,3.0145e-05 0.000111163,0.00021096 0.000250367,7.68917e-05 0.000901751,-4.94214e-05 0.00037708,-0.000117679 0.000437662,-0.000438101 0.000278077,-4.14403e-05 0.000294374,-0.000181363 2.85391e-05,-0.000439629 0.000182427,-0.000187813 0.000163028,0.000232761 0.000400554,-2.71281e-06 0.000541282,-0.000253296 9.2235e-05,-0.000160098 0.000187094,-2.08251e-05 0.000453416,-0.000251007 0.000103767,-0.00026932 -0.000372195,-0.000776036 0.000769482,0.000702075 0.000666362,-5.18351e-06 0.00217596,-0.000731581 0.000237657,0.000339996 0.000536775,-0.000650901 -0.000553239,-0.00150085 0.000351808,3.63359e-05 0.000386516,-0.000495438 0.000210385,0.000193914 0.000260468,5.30926e-05 0.000327105,-0.000116636 0.00019796,3.5045e-05 0.000231993,-0.000135852 0.000149719,-0.000378517 -7.4768e-05,-0.000154838 0.000287792,-0.00017673 4.93731e-05,-0.00018014 0.000205914,-0.000144652 0.000306612,-0.000447538 9.05891e-05,-0.000301894 0.000294208,-0.000292834 0.0001577,0.000459069 0.00162071,-0.000465899 -0.000201238,-0.000585787 0.00162915,-0.000468346 0.00034034,0.000990664 -0.000565982,0.000162711 0.000480919,0.00139985 0.00192772,-0.0005542 0.00092123,-0.00272331 0.0003087,-0.0013498 0.000447196,8.25346e-05 2.06055e-05,-0.000153552 4.86189e-05,-0.00161215 -0.000486563,-0.0048361 -0.0123971,0.00533899 -0.00848252,0.00262775 -0.010489,0.00432867 -0.00492474,0.0028496 -0.00288569,0.0028178 -0.00207612,0.00119381 -0.0111504,0.00582348 -0.00269288,0.00113244 -0.00195325,0.000624777 -0.00234915,0.000197817 -0.00484964,0.000970146 -0.00477338,0.000754357 -0.00313284,0.000203774 -0.00324701,-0.000117327 -0.00872907,-0.00144987 -0.00611317,-4.82901e-05 -0.00500951,0.00065978 -0.00369258,0.00184419 -0.00264912,0.00169277 -0.00150069,0.0015884 -0.000508067,0.00158082 8.94112e-05,0.00151652 0.000652456,0.00279051 0.00305875,0.00879314 0.00109091,0.00357559 0.00241289,0.00977864 0.0335516,-0.016856 0.0127565,-0.00513024 z "/>
</g></g></svg>