<?xml version="1.0" encoding="UTF-8" standalone="no"?>
<!DOCTYPE svg PUBLIC "-//W3C//DTD SVG 1.1//EN" "http://www.w3.org/Graphics/SVG/1.1/DTD/svg11-flat.dtd"
[
<!ATTLIST g xmlns:fme CDATA #FIXED "http://www.safe.com/fme" >
<!ATTLIST path fme:district_id CDATA #IMPLIED fme:precinct_id CDATA #IMPLIED fme:id CDATA #IMPLIED >
<!ATTLIST ellipse fme:district_id CDATA #IMPLIED fme:precinct_id CDATA #IMPLIED fme:id CDATA #IMPLIED >
<!ATTLIST text fme:district_id CDATA #IMPLIED fme:precinct_id CDATA #IMPLIED fme:id CDATA #IMPLIED >
<!ATTLIST use fme:district_id CDATA #IMPLIED fme:precinct_id CDATA #IMPLIED fme:id CDATA #IMPLIED >
]>
<svg xmlns="http://www.w3.org/2000/svg"  viewBox="-0.000628636 -0.000628636 0.0603657 0.0389754"><g xmlns:fme="http://www.safe.com/fme" fill="none" stroke="black" stroke-width="0.000006286355616" transform="translate(0,0.0377181) scale(1, -1)">
<g id="25" >
<path d="M 0.0510803,0.0337296 l 7.6896e-05,5.88617e-05 0.00359885,-0.00250755 0.0015256,-0.00147111 0.00122905,-0.00168738 0.000491713,-0.000909571 0.00040483,-0.000944702 0.000537806,-0.00196689 0.000163347,-0.00202194 -6.06712e-05,-0.00101314 -0.0004038,-0.00199353 -0.000340166,-0.000965785 -0.000944402,-0.00183427 -0.000597312,-0.000855038 -0.00269326,-0.00319753 -0.000167433,-8.59505e-05 -0.0101081,0.00511599 -0.000967561,0.000566354 -0.00100519,0.000770879 -0.00687395,0.0061029 -0.00125958,0.000922701 0.00672682,0.00666825 0.00849927,0.0028371 0.000720386,-0.000491058 -0.000103668,-0.000423672 0.000176312,-0.000342808 -4.03863e-05,-8.90626e-05 -0.000145634,5.17812e-05 -0.000455836,-0.000159653 -0.000183064,0.000259786 -6.91454e-06,-0.00039727 7.76267e-05,-0.000237236 0.000615298,-9.00037e-05 0.000395695,-0.000227242 7.29976e-05,9.15e-05 0.000103029,-0.000165207 0.000285888,-0.000132996 0.000140914,0.000153823 -2.02748e-05,0.000145555 0.000114953,4.05812e-05 9.98963e-05,0.000313418 0.000320067,0.000111113 z M 0.0367673,0.0226456 l 0.00478406,-0.00424739 0.00109038,-0.000816801 0.000867146,-0.000503202 0.00988205,-0.00504902 0.000111391,-0.000142151 -4.56405e-05,-0.000188544 -0.00377466,-0.00438054 -0.000544573,-0.000977763 -0.000350911,-0.00113301 -0.00051717,-0.000870886 -0.000524818,-0.000683556 -0.00454095,-0.00297452 -0.000765787,-0.0003285 -0.000817435,-0.000198739 -0.00141061,-0.000150914 -0.00136975,0.000181011 -0.00160082,0.000471459 -0.00148043,0.000729797 -0.0130604,0.00961023 -0.0015883,0.00102438 -0.00288174,0.00122316 -0.0182284,0.00729888 0.00769301,0.0107836 0.004103,0.0054426 0.00340469,0.000953001 -0.000639731,-0.00194716 -6.73718e-05,-0.000805939 0.000108614,-0.000546839 0.000240415,-0.000531629 0.000362259,-0.000475027 0.000386272,-0.000336917 0.000601205,-0.000335758 0.0163822,-0.00683615 0.000858432,-0.000477866 0.000815152,-0.000568855 0.00251922,-0.00221045 z "/>
</g></g></svg>