<?xml version="1.0" encoding="UTF-8" standalone="no"?>
<!DOCTYPE svg PUBLIC "-//W3C//DTD SVG 1.1//EN" "http://www.w3.org/Graphics/SVG/1.1/DTD/svg11-flat.dtd"
[
<!ATTLIST g xmlns:fme CDATA #FIXED "http://www.safe.com/fme" >
<!ATTLIST path fme:district_id CDATA #IMPLIED fme:precinct_id CDATA #IMPLIED fme:id CDATA #IMPLIED >
<!ATTLIST ellipse fme:district_id CDATA #IMPLIED fme:precinct_id CDATA #IMPLIED fme:id CDATA #IMPLIED >
<!ATTLIST text fme:district_id CDATA #IMPLIED fme:precinct_id CDATA #IMPLIED fme:id CDATA #IMPLIED >
<!ATTLIST use fme:district_id CDATA #IMPLIED fme:precinct_id CDATA #IMPLIED fme:id CDATA #IMPLIED >
]>
<svg xmlns="http://www.w3.org/2000/svg"  viewBox="-0.000424162 -0.000424162 0.0347812 0.0398028"><g xmlns:fme="http://www.safe.com/fme" fill="none" stroke="black" stroke-width="0.000004241615122" transform="translate(0,0.0389545) scale(1, -1)">
<g id="26" >
<path d="M 0.0151888,0.0370329 l 0.000206088,-0.00139885 0.000367724,-0.000920422 0.000760211,-0.00311092 0.00104198,-0.00304193 0.00131644,-0.00295164 0.00158167,-0.00284069 0.0018358,-0.00270985 0.00207707,-0.00256005 0.00230379,-0.00239233 0.00251438,-0.00220787 0.00270735,-0.00200796 0.00203157,-0.00138503 -0.00849927,-0.0028371 -0.00672682,-0.00666825 -0.00142297,0.000737108 -0.0160239,0.00667166 -0.000497934,0.000330495 -0.000367489,0.000401066 -0.000268535,0.00050582 -0.00011846,0.000524194 9.60182e-05,0.000826578 0.00634451,0.0191581 3.58634e-05,0.00059162 -0.000842872,0.00908568 0.000162928,0.000122127 0.00348211,-0.00032069 0.00236279,-0.000353544 0.00115897,-0.000276153 0.000903659,-0.000456299 0.00147733,-0.000514876 z "/>
<path d="M 0.0220986,0.0203814 l -0.00881574,7.24144e-05 -0.00959719,0.000341966 0.00279497,0.0085551 -0.000862565,0.00936531 8.9462e-05,0.000193879 9.64269e-05,4.43788e-05 0.00348211,-0.00032069 0.00236279,-0.000353544 0.00115897,-0.000276153 0.000903659,-0.000456299 0.00146559,-0.000490749 0.000217819,-0.00142298 0.000367724,-0.000920422 0.000760211,-0.00311092 0.00104198,-0.00304193 0.00131644,-0.00295164 0.00158167,-0.00284069 0.00163566,-0.00238703 z "/>
<path d="M 0.0132829,0.0204538 l -0.000330977,-0.0179144 -0.0117293,0.00488841 -0.000515723,0.000360391 -0.000393813,0.000474448 -0.000241134,0.000552033 -7.19554e-05,0.000594411 0.000103555,0.000587814 0.00358214,0.0107989 0.00959719,-0.000341966 z "/>
<path d="M 0.0129519,0.00253942 l 0.000330977,0.0179144 0.00881574,-7.24144e-05 0.00227721,-0.00288287 0.00230379,-0.00239233 0.00251438,-0.00220787 0.00270735,-0.00200796 0.00203157,-0.00138503 -0.00849927,-0.0028371 -0.00672682,-0.00666825 -0.00133113,0.000697587 -0.00442379,0.00184183 z "/>
</g></g></svg>