<?xml version="1.0" encoding="UTF-8" standalone="no"?>
<!DOCTYPE svg PUBLIC "-//W3C//DTD SVG 1.1//EN" "http://www.w3.org/Graphics/SVG/1.1/DTD/svg11-flat.dtd"
[
<!ATTLIST g xmlns:fme CDATA #FIXED "http://www.safe.com/fme" >
<!ATTLIST path fme:district_id CDATA #IMPLIED fme:precinct_id CDATA #IMPLIED fme:id CDATA #IMPLIED >
<!ATTLIST ellipse fme:district_id CDATA #IMPLIED fme:precinct_id CDATA #IMPLIED fme:id CDATA #IMPLIED >
<!ATTLIST text fme:district_id CDATA #IMPLIED fme:precinct_id CDATA #IMPLIED fme:id CDATA #IMPLIED >
<!ATTLIST use fme:district_id CDATA #IMPLIED fme:precinct_id CDATA #IMPLIED fme:id CDATA #IMPLIED >
]>
<svg xmlns="http://www.w3.org/2000/svg"  viewBox="-0.000285163 -0.000285163 0.0233834 0.0327591"><g xmlns:fme="http://www.safe.com/fme" fill="none" stroke="black" stroke-width="0.000002851634864" transform="translate(0,0.0321888) scale(1, -1)">
<g id="3" >
<path d="M 0.0148584,0.0186464 l 0.000803648,0.00138517 0.00101334,0.00125613 0.00183663,0.0016936 0.000746557,0.000538223 0.00107763,0.000957523 0.000282382,1.90018e-05 0.000772195,-0.00056388 0.00129527,-0.00232505 0.000127054,-0.0022345 -0.00158528,-0.00753696 -0.00294514,-0.0117468 -0.0013564,-8.88567e-05 -0.00156676,0.0010672 -0.00230045,0.001062 -0.000434706,0.000333278 -0.000514029,0.000618541 -0.000234769,0.000472313 -0.000139309,0.000502953 -1.89651e-05,0.000794444 0.00057449,0.00351441 0.001878,0.00837319 0.000297854,0.000977586 0.000390759,0.000930443 z M 0.016024,0.0306592 l 0.000203404,0.000369531 0.000213324,0.000197741 0.000172609,0.000944323 0.000455333,1.80007e-05 0.000197388,-0.00188207 0.000563229,-0.00181919 0.000910795,-0.00169733 0.00114433,-0.00157187 3.83353e-05,-0.000169181 -0.00313675,-0.00285136 -0.000738321,-0.000751534 -0.00101731,-0.00131981 -0.000787942,-0.00141875 -0.000656964,-0.00187631 -0.00187396,-0.00835752 -0.000937529,-0.0032508 -0.000291061,-0.000614369 -0.000453732,-0.000525425 -0.000585988,-0.000401259 -0.000678963,-0.000250197 -0.000726424,-8.2363e-05 -0.00803781,0.00122487 0.00154877,0.0123762 0.000173178,-9.30058e-05 0.000117128,-0.000230767 0.00031228,-0.000227225 0.000342482,0.000158744 0.000357319,0.000702233 0.000371752,0.00132158 0.000267443,-1.12933e-05 0.000211501,0.000114297 0.000440918,-3.49365e-05 0.000257242,5.38085e-05 0.000227315,-0.000171692 0.000182323,-3.2247e-05 0.000819716,0.000123087 4.66471e-05,0.000121512 0.000502191,6.34678e-05 0.000409905,0.000196992 -8.55192e-05,0.000320573 -0.000133632,0.000184265 -0.000488118,0.000545948 -0.000318259,0.000160726 -0.000241066,-1.60169e-05 -0.00033712,-0.000141625 -0.000273408,-0.000479894 -0.000221704,-0.000119126 -0.000121739,0.000132871 -4.89222e-05,0.00023881 -0.00031177,0.000119129 -0.000104353,-6.77456e-05 6.76061e-05,0.00014391 -0.00020804,0.000223 0.000502754,-0.000174024 7.97275e-05,7.3372e-05 0.000253314,-4.18782e-05 0.000185142,0.000148332 -4.11887e-05,0.000124965 -0.000129369,-3.11842e-06 2.21823e-05,4.55651e-05 -0.000142892,2.64948e-05 -7.49377e-05,0.00010719 0.000140735,5.29888e-05 0.000174,0.000217959 -0.000104874,0.000173364 -0.000163204,6.82056e-05 -0.000113916,-3.69618e-05 9.89613e-05,-0.000107394 -0.000276773,5.3801e-07 -6.77534e-05,0.00013422 -0.000232308,6.53785e-05 -0.000352617,-0.000108286 -8.33138e-08,0.000186925 0.000202236,8.13655e-05 5.44803e-05,0.000115125 -3.24694e-05,0.000108637 -0.000155504,5.21245e-05 -7.20919e-05,0.000190004 0.000154868,8.35725e-05 0.000149832,-2.38438e-05 0.000215144,0.000186005 -0.000166158,0.000264184 -0.00027886,0.000152261 -0.00011161,-0.000113485 -0.000205639,-4.57094e-05 3.17958e-05,0.000327996 0.000177568,9.75985e-05 0.000114137,-3.88927e-05 0.000114373,0.000179635 7.57748e-06,0.000163382 -0.000200174,0.000220224 5.40146e-05,0.000166601 -0.000128393,0.000109799 0.000140797,-5.482e-05 0.000194351,8.23351e-05 0.000168674,-1.58764e-05 -2.80088e-05,6.16422e-05 0.000187532,-6.10307e-06 0.000382414,0.000128601 6.04148e-05,0.000115977 -0.00017765,0.000201974 3.25505e-06,0.000321446 0.000224427,-6.78212e-05 0.000251102,3.1284e-05 3.64377e-05,8.81866e-05 0.000261514,8.44731e-05 7.76292e-05,0.000158273 -0.000109621,0.000192368 0.000366766,-0.000149397 0.000266854,0.000124159 2.82932e-05,6.38741e-05 -0.000242159,0.000266636 -7.61016e-05,-7.48193e-06 -0.000123761,0.000355934 -0.00022408,0.00019966 0.000355058,-0.000135753 0.000185297,0.000162777 0.000265995,-5.82426e-05 0.000145423,0.000125189 9.90964e-05,0.000230331 5.24609e-05,-8.44253e-05 0.000355783,3.3102e-05 0.000126402,0.000196687 0.000277391,0.000189085 0.000110095,-0.000145417 0.000252613,-1.47868e-05 5.34187e-05,0.000204531 0.000128184,-0.000211491 0.000161564,-3.56866e-05 0.000441845,0.000146147 0.000153024,-9.88256e-05 0.000187471,-1.24292e-05 3.29492e-05,-0.0001029 0.000432122,0.000162591 -0.000393662,0.000360507 -0.000207089,2.52382e-05 -0.000226773,0.000225874 -0.000145952,1.74942e-05 2.28388e-05,0.000109974 -9.7288e-05,0.0001426 -0.000243442,0.000140229 -0.000143279,-3.85149e-05 -6.45735e-05,-0.000109317 0.000288352,-0.000481349 -4.00777e-05,-5.74525e-05 -0.000333895,0.00017802 -0.000198243,-7.59761e-05 -7.22244e-05,8.27874e-05 -2.05794e-05,-8.19995e-05 -0.000256563,1.48199e-05 -0.000198725,0.000460417 -0.000165515,3.5719e-05 -0.00033203,0.000362216 -0.00021524,0.000390122 0.000360782,0.000136004 0.000561394,-0.000235935 0.000295894,6.61173e-05 0.000455414,-4.17935e-05 0.000215615,0.000198638 0.00140131,0.000119931 0.000163265,-6.27933e-05 0.000291198,8.96306e-05 -0.00028781,-0.000381283 3.76199e-05,-0.000142143 0.000171603,-1.95198e-05 0.000237903,9.18896e-05 -9.49906e-05,0.000368334 0.000172899,0.000107794 1.0654e-06,0.00010474 -0.000107701,8.94115e-05 3.95144e-05,9.89952e-05 0.000251281,-4.90947e-05 5.48563e-05,-4.29084e-05 -8.17475e-05,-7.69635e-05 5.48056e-05,-0.000144948 0.000229569,-4.80073e-05 8.66339e-05,0.000169029 -0.000245903,9.23941e-05 0.000168321,0.00014305 1.20087e-05,0.000112774 0.000122768,-6.42558e-05 0.00016215,0.00011872 0.000304453,3.35284e-05 0.000133714,-0.000152845 -3.31229e-05,-5.29957e-05 0.000213355,8.11612e-06 0.000587503,0.000195464 0.00105477,-0.00104567 0.000519118,0.000195304 -0.000134058,0.00019605 8.83931e-05,5.07176e-05 -0.000515037,0.00071416 -2.82976e-05,0.00032352 -0.000307782,0.000221153 -7.35109e-06,0.000247488 -0.000236779,0.000115798 -0.000247142,0.000455419 -0.000193173,0.00013168 -0.000498092,0.000634546 -6.75424e-05,0.000251613 0.000144073,-8.45137e-06 8.07142e-05,-0.000121691 0.000675382,-0.000219883 0.000447331,-6.60077e-05 0.00033613,-0.000152766 0.000307208,1.27307e-05 0.000313669,-0.000128195 0.000390556,5.26536e-05 0.00017217,-6.10684e-05 8.65611e-05,-0.000128967 0.000466698,-3.28814e-05 0.000296505,-0.000165075 -5.90621e-05,-7.89605e-05 0.000470611,-0.000616262 0.000391655,-0.00073445 0.000563274,0.000211901 -0.000161974,0.00082099 -0.000199543,0.000570603 5.39979e-05,0.00027663 z "/>
</g></g></svg>