<?xml version="1.0" encoding="UTF-8" standalone="no"?>
<!DOCTYPE svg PUBLIC "-//W3C//DTD SVG 1.1//EN" "http://www.w3.org/Graphics/SVG/1.1/DTD/svg11-flat.dtd"
[
<!ATTLIST g xmlns:fme CDATA #FIXED "http://www.safe.com/fme" >
<!ATTLIST path fme:district_id CDATA #IMPLIED fme:precinct_id CDATA #IMPLIED fme:id CDATA #IMPLIED >
<!ATTLIST ellipse fme:district_id CDATA #IMPLIED fme:precinct_id CDATA #IMPLIED fme:id CDATA #IMPLIED >
<!ATTLIST text fme:district_id CDATA #IMPLIED fme:precinct_id CDATA #IMPLIED fme:id CDATA #IMPLIED >
<!ATTLIST use fme:district_id CDATA #IMPLIED fme:precinct_id CDATA #IMPLIED fme:id CDATA #IMPLIED >
]>
<svg xmlns="http://www.w3.org/2000/svg"  viewBox="-0.000518437 -0.000518437 0.0425118 0.0677828"><g xmlns:fme="http://www.safe.com/fme" fill="none" stroke="black" stroke-width="0.000005184367155" transform="translate(0,0.0667459) scale(1, -1)">
<g id="4" >
<path d="M 0.038928,0.0280938 l -7.10661e-05,-0.000290169 -0.00012399,-5.5841e-05 -2.30291e-05,6.61148e-05 -8.597e-05,-6.49696e-06 -9.3639e-05,-8.13823e-05 9.88603e-06,-0.000291757 -0.000323868,2.96525e-08 -0.000208587,-0.000121949 -8.81051e-05,-0.000217785 3.84083e-05,-0.000205309 0.000126661,-7.06029e-05 7.74897e-05,-0.000246275 0.000212353,0.000103857 2.44482e-05,-0.000218736 0.000123772,-0.00016088 -0.000174862,-0.000106883 0.000105643,-9.84189e-05 0.000263419,-2.11911e-05 -0.000100165,-4.34005e-05 0.000117648,-0.00027822 -0.000180767,-0.000105027 3.15598e-05,-0.00019893 0.000299384,-0.000272533 0.000185466,-1.60172e-05 0.000102443,-0.000219396 0.000257502,-2.02392e-05 -5.33148e-05,9.79767e-05 0.000246249,-5.89739e-05 0.000241441,-0.000241342 0.000530662,-0.000151684 -2.54688e-05,-0.00037002 0.000416609,-0.000298814 -0.000246667,0.000114966 -0.000304753,-6.33392e-05 2.12998e-05,5.58065e-05 -0.000197093,0.000135315 -0.000287233,-0.000477015 0.000105317,-0.000131883 -0.000543468,0.000349551 -0.000108657,-4.49871e-06 -0.000249343,-0.000247123 -0.000114947,5.69592e-05 -8.32756e-05,-0.000326187 -0.000128457,-9.74977e-06 -0.000208095,-0.000171619 -4.46621e-05,-0.000218152 -0.000107704,-0.000105645 -1.02346e-05,-0.000231085 0.000168221,3.65043e-05 0.000150845,-0.00011957 -3.935e-05,-0.000278699 0.000332585,-1.54549e-05 0.000115111,-0.000138232 0.00020037,9.13154e-05 -5.40152e-05,-0.000166601 0.000105767,-8.57782e-05 3.73238e-05,7.82465e-05 0.000320801,-9.03571e-06 -0.000192974,-0.000238569 1.30545e-05,-7.59637e-05 0.000165058,-8.08621e-05 -0.000138692,-0.000143309 3.68411e-05,-0.00016466 -0.00028669,-0.000230552 -7.5213e-05,-0.000212475 0.000194056,-0.000337563 0.000244412,-4.45098e-05 3.6301e-05,-0.000120408 0.000204126,-0.000122732 0.000137723,4.75971e-05 -0.000114538,-0.000488464 -0.000281156,-0.000269428 0.000114979,-0.000515574 -4.88558e-05,-7.28482e-05 -6.5164e-05,1.08521e-05 2.9202e-05,4.54391e-05 -0.000502455,-8.78565e-05 -0.000140793,3.91175e-05 -0.00029461,-0.00013567 -0.0001336,6.70497e-05 -0.000132343,-0.00019935 -0.000322125,0.000365735 -0.000378268,0.0001838 -0.000134954,-7.31012e-05 0.000140123,-9.94184e-05 -0.000169735,8.6582e-06 -6.29356e-05,-7.26126e-05 -0.000267017,5.46304e-05 -0.000230574,-0.000149759 -4.70543e-05,-0.000162145 -0.000248988,-1.7764e-05 -0.000147395,6.98735e-05 -7.48639e-05,-8.06395e-05 -0.000123133,2.81298e-05 -9.34666e-05,-6.51313e-05 -0.000329958,0.000177066 -0.000372999,2.1207e-05 -0.000275184,-6.99203e-05 -3.73658e-05,-8.27624e-05 0.000244249,-0.000354236 0.000287539,2.75147e-06 8.07448e-05,-9.97719e-05 0.000235151,-8.14495e-05 -0.000100076,-3.52762e-05 -2.68706e-05,-0.000118971 0.000204673,-6.85502e-05 7.88953e-05,-0.000204747 -6.44771e-05,-0.000127684 8.61485e-05,-7.29683e-05 0.000503511,-2.44418e-06 0.000150443,3.66564e-05 5.82262e-05,9.5228e-05 6.14306e-05,-7.63721e-05 0.000152391,6.65674e-05 6.03266e-05,-0.000218264 0.00023184,-0.000115738 -9.60684e-05,-0.000149089 0.000198197,-3.48029e-06 0.000164372,0.0001449 0.000108104,-4.96763e-05 -7.76751e-05,-0.000261218 0.000269205,-3.29774e-05 0.000123297,-0.000109404 -0.000140911,-0.000363627 0.000112006,-5.42245e-05 0.000180696,-0.000291395 0.00018653,9.05308e-05 -3.63216e-05,-0.000272404 -9.18214e-05,-1.2681e-07 -9.15423e-05,-0.000233107 -6.37771e-05,6.86017e-06 7.36881e-05,-0.000133366 -0.000165911,9.35099e-05 -0.000421929,-3.43614e-05 -0.00012388,5.16154e-05 -0.000166149,-0.000614453 8.02775e-05,-6.75013e-05 0.000172394,4.91848e-05 0.000254132,-0.000119393 -1.51021e-07,-0.000139282 -0.000291579,6.56746e-05 -9.59949e-05,-0.000120193 0.000207134,-1.98102e-05 8.76459e-05,-0.000119939 -7.65424e-05,-0.000149254 3.58045e-05,-0.000365121 0.000249422,-0.000188129 0.000389052,5.9923e-05 -4.39263e-05,-0.000243443 0.000231102,-0.000187975 -0.000151333,-0.000860204 -0.000199508,-0.00015182 -7.06469e-05,-0.000286417 -0.000173178,9.30058e-05 -0.00154877,-0.0123762 -0.0150575,0.00236453 -0.00161398,0.000831805 -0.000613744,0.000437603 -0.000523479,0.000526676 -0.000417972,0.000600414 -0.000403438,0.00100018 -0.000108525,0.00070485 0.000333961,0.00240493 -8.26381e-05,0.00056153 0.000141142,0.000556693 0.00038665,0.000893638 0.000563026,0.000811456 0.00632207,0.00741564 0.000688497,0.0008888 0.000601496,0.000940131 0.000531718,0.00103185 0.000415631,0.00103905 0.000313787,0.00106854 0.000306976,0.00207201 -4.48063e-05,0.00183783 -0.000277927,0.00157909 -0.000357469,0.00117192 -0.000424758,0.00101913 -0.000520072,0.000981486 -0.000611448,0.000936403 -0.000666189,0.00084706 -0.000811649,0.000862507 -0.000855194,0.000760206 -0.0024371,0.00172063 0.00015329,0.000209006 -7.49898e-05,0.000104907 8.39556e-05,0.000199769 0.000231537,-5.25016e-05 0.000380955,0.000472709 -5.59717e-05,0.000130502 -0.000349978,0.000157338 -0.000300765,4.22431e-05 0.000146124,9.63062e-05 -0.000193925,0.000556071 0.000298985,0.000273828 -2.63679e-05,0.000128448 0.000853246,2.88053e-05 0.000250272,0.000117298 5.02443e-05,-0.000156661 0.000482127,-0.000147753 0.000139164,-0.000323005 0.000127472,-1.45783e-05 2.74164e-05,5.50489e-05 8.65728e-05,-7.4428e-05 0.000159782,0.000103376 0.000100855,0.000210462 6.64765e-05,-6.73791e-05 0.000218082,8.30595e-05 0.000200249,0.000274648 -5.89801e-05,0.000224441 0.000246174,0.000127072 6.78258e-05,0.000220137 -9.76308e-05,0.00015667 -0.00023263,0.000141011 -0.000438013,6.50371e-05 0.000174282,0.000125899 4.07798e-05,0.000127887 -3.14774e-05,0.000209763 -0.000156572,0.000143083 -0.000200534,9.19785e-05 -0.000188727,-1.10643e-05 -0.000350623,-0.000202957 0.000138662,0.000139711 -0.000104006,-3.16392e-05 -3.83783e-05,0.000112295 -0.000190877,7.02245e-05 0.000141426,0.000119822 6.32483e-05,0.000301079 0.000303481,0.000228635 3.46565e-05,0.000108072 -0.000127948,0.000438129 -0.00015901,9.70489e-05 2.3114e-05,0.000138871 -0.000101846,8.57348e-05 0.000139953,7.10714e-05 0.000754298,-0.000116475 0.000117395,8.66105e-05 -0.000150089,0.000199016 -0.000375297,0.000156947 -8.6468e-05,0.000159358 0.000133952,-0.000113997 0.000739329,6.51541e-05 0.000177126,-0.000359076 0.000537148,-0.000105634 0.000367494,1.31773e-05 0.000213975,0.000165266 0.000389072,9.69755e-05 -0.000161107,-0.00011243 -5.35636e-05,-0.00022079 0.000203744,-0.000264484 0.000245448,5.39304e-05 0.00019355,-9.91476e-05 0.00036406,-3.37541e-05 0.000277155,6.44994e-05 0.000165999,0.00030473 -0.000132609,0.000169073 0.000317506,-0.000146242 0.000626214,1.19036e-05 6.74905e-05,-6.46804e-05 7.6197e-05,0.000114043 0.000284337,-0.000400616 0.000134474,1.69314e-05 6.73193e-05,0.000115021 0.000454361,-0.000206613 0.000229316,0.00033542 -9.69578e-05,0.000178708 -0.000290652,0.000164984 5.74194e-05,0.000210823 -7.35954e-05,0.0001451 0.000196244,0.00026745 1.77776e-06,0.000176976 -6.7011e-05,1.4108e-05 -0.000101433,0.000323228 -0.000181157,0.000153228 0.000162786,-1.58152e-05 0.000123235,0.000175956 0.0001038,-8.75612e-05 9.98605e-05,1.18034e-05 9.01869e-05,0.000130179 0.000164658,-0.000222622 0.00024778,-9.30617e-06 0.000214789,0.000147192 3.8758e-05,0.000122484 -6.61853e-05,9.62758e-05 0.0002105,-8.30407e-05 0.000105388,7.04521e-05 0.00013212,-2.09771e-05 0.000130679,-6.61158e-05 -3.20891e-05,-4.84929e-05 0.000172806,-1.45315e-06 -2.8643e-05,9.77664e-05 0.000227948,0.000277114 -9.00332e-05,0.000277983 -0.000238304,6.79241e-05 7.70454e-05,0.000198015 -7.72357e-05,0.000175834 -0.000198679,8.02328e-05 -8.33616e-05,0.000198963 -0.000170113,0.000128253 -0.000134978,0.00032622 8.15268e-05,5.43986e-05 -7.60408e-05,0.000196593 0.000120461,-0.000100344 9.51246e-05,3.17088e-05 0.000212582,-0.000269079 0.00039187,-0.000117075 0.000381783,5.81933e-05 3.19688e-05,-6.16739e-05 0.000520422,-0.000100099 0.000182352,-0.000132472 5.27451e-05,4.01916e-05 -6.21618e-05,0.000103467 0.00015521,0.000114279 5.49458e-05,-0.000231634 0.000315159,-0.000183257 0.000709499,-5.47395e-05 0.000172739,8.97487e-05 0.000103976,0.000223974 -0.000108171,0.000143588 5.88847e-06,0.000388246 -0.000266474,0.000408601 -0.000131676,6.52234e-05 -8.08866e-05,-8.87168e-05 -0.000112445,1.35894e-05 -6.82917e-05,0.000181178 -0.000165169,7.36323e-05 0.000103106,0.000235721 -0.000171295,5.38175e-05 0.000123068,0.00012294 0.000165327,-2.24256e-05 -1.78806e-06,-7.94501e-05 0.00019048,-0.000109966 0.000226261,1.07357e-05 0.000160432,0.000142227 8.89098e-05,-0.000193091 0.000132746,3.05485e-06 0.000299224,-0.000256831 8.79818e-05,0.000106717 0.000226401,-7.32471e-05 0.000162767,7.98984e-05 8.6095e-05,-0.000276145 0.00013781,-4.45071e-05 0.000194038,4.71257e-05 0.000175406,0.000255879 0.000220369,-0.000181559 0.000186551,-9.70166e-06 0.000270698,0.000303836 -0.000144744,-0.000446672 0.000110886,-0.000167993 0.000221076,-1.36057e-05 -7.98035e-06,-0.000399064 0.000294397,-8.73693e-05 0.000122645,0.000116356 -1.17902e-05,-0.000189533 4.76564e-05,-7.26435e-05 0.000105805,1.35545e-05 -5.90088e-05,-7.35486e-05 5.12066e-05,-0.000321797 -0.000151552,-0.000128862 0.000140551,-0.000457209 -9.34029e-05,-0.000154529 0.000315201,-0.000373801 7.25225e-05,4.27319e-05 -2.67183e-05,9.2333e-05 0.000280605,-8.36421e-05 0.000469719,6.28528e-05 0.000217531,0.000222108 0.000286236,-1.50626e-05 9.8744e-05,0.000194216 0.00012295,-0.000146425 -2.29025e-05,-0.000116295 0.000378398,1.66652e-05 0.000127255,-0.000111244 0.000175457,6.53381e-05 0.000174543,-0.000122481 0.000133252,9.09793e-05 8.65856e-05,-3.14354e-05 -7.53851e-05,-3.27733e-05 4.03306e-05,-0.000113218 -0.00044399,-0.000155172 -5.99773e-05,-0.000266784 -0.000212467,-0.000111982 -3.28974e-05,6.71012e-05 -0.000247574,-0.000263391 -0.000130344,1.10244e-06 -0.000125497,-0.000105494 -5.45436e-05,-0.000315593 -8.97105e-05,-8.23186e-05 0.000151758,-0.000129511 -0.000175296,-0.00024504 0.000124447,-9.58686e-05 -1.7715e-06,-0.000175169 -0.000143061,1.29488e-05 -0.00011937,-8.568e-05 -0.000103373,-0.000456953 7.7498e-05,-0.000148749 0.000236987,-9.9529e-05 -2.42815e-05,-0.000155113 0.00042877,-0.00027453 0.000170908,6.68145e-06 0.000201225,0.000172579 0.000274251,-2.76049e-05 0.00010368,9.66479e-05 0.000153711,-3.38094e-05 5.81213e-05,8.34882e-05 0.000188006,-6.02873e-05 0.000151736,0.000258783 0.000218132,8.66481e-05 0.000165918,0.000196355 0.000196765,-7.30046e-05 0.0001133,7.12812e-05 0.000107273,-0.000244964 0.000284262,-9.78859e-05 0.00031733,-0.000259145 0.000321667,7.13201e-05 0.000325641,-0.000121056 -0.000263007,-0.000132408 3.74476e-05,-0.000102268 -0.00051781,-0.000229491 -3.53023e-05,-0.00017037 0.000104987,-6.68097e-05 -0.000106515,-8.39804e-05 -6.35375e-05,-0.000422974 7.80495e-05,-0.000288722 -0.000137664,-3.94689e-05 2.67228e-05,-0.000188956 0.000265496,-0.000111515 1.52749e-05,-0.000246652 0.00018536,-2.86616e-05 0.000130849,-0.000145591 -4.37875e-05,-0.000228091 0.000347889,-6.88696e-05 -0.000113409,-0.000179641 5.43887e-05,-8.98594e-05 -0.000112969,-0.0001363 6.90139e-05,-0.000303094 -0.000607841,4.48852e-05 -0.000220666,0.000247489 -0.000182917,7.46939e-05 -0.000214287,-9.7516e-05 -0.000209285,6.28777e-06 -0.000153086,-9.98409e-05 -0.000182991,-0.000225107 0.000165948,-0.00028766 -0.000205563,-1.63196e-05 -0.000137597,-0.000130675 -0.000227871,2.36013e-05 -0.000109968,0.000159861 -0.000244273,-3.58593e-05 -0.000495935,7.64369e-05 -0.000246379,0.000244091 -0.00018631,3.2278e-05 -0.000150452,-3.48484e-05 -0.000158074,-0.000202745 4.00456e-05,-4.36832e-05 -0.00016199,-4.04867e-06 -0.000184076,-0.000137508 -2.7746e-05,-0.000107224 -0.000256295,-5.29179e-05 0.000110564,-0.000101169 -5.08504e-05,-4.8333e-05 -9.51122e-05,6.67237e-05 1.61604e-05,-0.000257495 -0.000284981,-0.00015562 0.000113444,-0.00010932 -6.17206e-05,-4.91443e-05 5.98231e-05,-0.000138666 -0.000118577,-0.000105554 0.000135643,-0.000160076 -7.81686e-05,-1.55939e-05 -3.27803e-05,-0.00021464 0.000153058,-9.79155e-05 0.000117609,-0.000381162 0.000262133,4.47416e-05 0.000104426,-2.43609e-05 3.05927e-05,-9.959e-05 0.000493403,-3.30675e-05 0.000271335,-0.000314737 0.000319318,0.000133654 0.000210781,-0.00015078 0.000451986,-0.000124828 0.000732833,-8.47662e-05 0.000378086,-0.00020638 1.84855e-05,-0.000124772 -0.000747833,-3.15936e-05 -0.000246955,-0.000203796 -0.000149387,-2.7632e-05 -3.46162e-07,-0.000174905 0.000154214,-0.000135227 -0.000262606,-9.16909e-05 3.87104e-05,-0.000273038 -0.000108885,-0.000123694 0.000157999,-9.70564e-05 -4.74836e-05,-0.000301205 0.000151508,-0.000250514 -0.000158912,6.76294e-06 -5.78979e-05,-6.1818e-05 0.000390241,-0.000370829 -0.00026125,4.19437e-05 -0.000142198,-9.81281e-05 -3.82142e-05,-6.83057e-05 8.77111e-05,-1.69964e-05 -1.10551e-06,-0.000109255 -0.000515123,0.000227402 -0.000122744,-2.96643e-05 -0.000152198,-0.000208212 -0.00025048,3.28205e-05 -0.000113847,-0.000126362 -0.000179333,0.000428642 -0.000365239,0.000207168 -0.000243668,-7.46971e-05 -0.000607007,0.000125228 -0.00022475,-0.000157033 -0.000244795,9.2909e-06 -1.38749e-05,-0.000102826 -9.99156e-05,-1.81198e-05 0.000123874,-0.000151849 -0.000245547,-0.000163179 -6.76537e-06,-0.000278974 -0.000376305,-0.00031048 -3.08576e-05,-0.000114113 -5.28802e-05,4.37909e-05 7.34621e-05,0.000136638 -9.13419e-05,4.86304e-05 -0.000302793,-0.000650325 9.13142e-05,-5.13391e-05 -5.38144e-05,-0.000146737 0.000119155,-0.000130136 -7.10287e-05,-8.79387e-05 0.000312752,-2.96865e-05 0.000443556,0.000117261 7.92404e-05,0.000122141 0.00041564,-7.12105e-06 5.14646e-05,0.000207259 0.000236898,-0.000204276 0.000255999,2.49281e-05 8.31453e-05,0.000117592 9.64508e-05,-3.15173e-05 -1.30614e-05,-0.000119991 -0.000118462,-9.47187e-05 -3.49016e-05,-0.000131545 7.72712e-05,-7.28939e-05 -8.20391e-05,-0.000105863 7.16007e-06,-7.32046e-05 0.00014888,-2.2027e-05 -0.000104073,-3.88534e-05 -5.18962e-05,-0.000152171 0.000180347,-3.49351e-05 9.62333e-05,-0.000150713 5.53591e-05,-0.000580203 0.000181144,-0.000151431 0.000367529,2.03721e-05 -3.01148e-05,4.90173e-05 0.000249668,8.27727e-05 0.000115758,-7.50258e-05 0.000193646,0.00010853 0.000122431,-1.03537e-06 3.68433e-05,-6.71346e-05 0.000329882,8.04584e-06 0.000197706,2.18057e-05 9.38425e-05,0.000101247 4.46961e-05,-7.17163e-05 0.000146008,-1.29748e-05 -8.35933e-05,-0.000259361 0.000110081,-0.000245648 -5.28217e-05,-0.000145841 0.000173498,-0.000126084 -5.71371e-05,-8.43997e-05 -0.000166137,-2.47814e-05 -4.1036e-05,-0.000347313 -0.000255077,-0.000227207 0.000153311,-7.17322e-05 -0.000116174,-0.00016156 0.000204579,-7.93901e-05 -2.65285e-05,-0.000182184 0.00016898,-0.000182033 -7.606e-05,-0.000100494 3.37714e-05,-0.00017547 -0.000120691,-2.24571e-05 -6.7826e-06,-8.48259e-05 -0.000171849,-3.96414e-06 z M 0.0214605,0.0429119 l -6.45675e-05,6.10411e-05 -0.000244386,-4.67231e-05 3.93317e-05,-0.000115914 -0.00012604,-0.000161491 -0.000357869,-3.85527e-05 -0.000156381,-0.00043124 1.22839e-05,-0.000154518 0.000136209,-0.000105886 -6.84475e-05,-9.69548e-05 -0.00030569,-8.77519e-05 -0.000264147,5.09656e-05 -0.000133271,-9.46086e-05 1.7417e-05,-0.000234027 0.000193894,-0.00036192 0.000245651,-0.000123053 -0.000305179,-0.000300869 -0.000359712,-2.58977e-05 -0.000134115,-0.000179486 7.9709e-05,-0.000127087 -1.94387e-05,-0.000166896 -0.00046478,3.36728e-05 -0.000177415,-6.53452e-05 -9.48598e-05,-0.000204195 0.000373921,-0.000331814 -0.000167886,-0.000297971 -0.00327804,0.00223449 -0.0026452,0.00218737 -0.00245518,0.00215618 -0.00224974,0.00233612 -0.00202857,0.00249975 -0.00179322,0.00264592 -0.00154532,0.00277361 -0.00128662,0.00288192 -0.0010189,0.0029701 -0.000744051,0.00303752 1.67582e-05,0.0010062 -8.66092e-05,0.00071132 0.000706254,-0.000204322 0.00108054,-0.000118812 0.00215307,-0.000474873 0.0021905,-0.000299286 0.00221084,-0.000121365 0.00221393,5.75046e-05 0.00438218,0.00049447 0.000222393,-0.000145719 0.000107499,-0.000214908 0.000184171,-0.000102669 0.00016543,-1.3754e-06 -0.00014678,-0.000258848 -0.000189839,-0.000119426 -0.000134586,7.33599e-05 -0.000299313,-3.83369e-06 -0.000169413,-0.000250534 -0.000240135,-0.000111785 -6.08903e-05,-0.000163843 8.73503e-05,4.35222e-05 1.2484e-06,-7.31546e-05 -0.000110487,-0.000185103 0.000146528,-0.00016376 -0.000125074,-0.000460402 -0.000117336,-0.000178726 -0.00011002,-3.8819e-05 1.43216e-05,-0.000149117 -0.000189294,-0.000363246 -0.000120336,1.63504e-05 -0.000363948,-0.000247114 9.75019e-05,-0.0010388 -0.000344989,-0.000127151 -0.000300464,-0.000305035 1.54898e-05,-0.000131066 0.000240025,-0.000197043 -0.000344417,-7.11899e-05 -1.12002e-06,-0.000112868 0.000129889,-0.000148269 -0.000290642,0.000172178 -0.000214719,-3.9758e-05 2.73368e-05,-0.000330731 0.000130189,-0.000317135 0.000385738,-0.000243402 -0.000224701,-5.0511e-05 -0.000100165,-0.000140943 6.72708e-06,-0.000118351 0.000163905,-0.000104303 -0.000326513,4.06347e-05 -4.90341e-05,-0.000163942 -0.000132873,-5.30792e-05 -0.000254344,3.75494e-05 -0.000186689,-9.16863e-05 1.01947e-05,-0.000167143 0.000234142,-0.000192477 -0.000296109,-8.06231e-05 -1.01207e-05,-0.000223864 0.000109973,-6.50257e-05 0.000162258,2.84546e-05 0.000162379,-0.000158471 -0.000350496,-8.73962e-05 -8.9371e-05,-0.000148257 -0.000288234,0.0002155 -0.000135978,-6.75026e-05 -0.000125935,4.89032e-05 7.14664e-05,-6.38032e-05 -0.000192233,-6.34248e-05 -0.000439389,1.17661e-05 -0.000173955,0.000186559 -0.000158695,3.20164e-05 -0.00022569,-0.000150742 -9.19302e-05,-0.000506735 0.000173284,-0.000254279 0.000149797,-3.28456e-05 -0.000107158,-4.96819e-05 2.70683e-06,-0.000325109 0.00018046,-0.000127916 0.000573752,9.2775e-05 5.15998e-05,-0.000374276 0.000232012,-0.00020781 0.000182949,2.37688e-05 0.000124677,0.000222915 6.10408e-05,-1.94692e-05 -1.5076e-05,7.32693e-05 0.000302447,-7.65539e-05 0.000134613,2.95868e-05 -4.45145e-05,9.24767e-05 8.70844e-05,1.73385e-05 0.00046096,-0.000126632 0.000208407,0.000200547 5.82482e-05,-2.28916e-06 -2.14465e-05,-7.11604e-05 0.000120939,4.50507e-05 0.000106769,0.000209517 0.000347905,-3.59108e-05 0.000161602,0.000223123 0.000333987,-0.000182472 0.000132638,2.96014e-05 0.000129207,0.000181337 0.000165642,-2.8466e-05 -3.74745e-05,0.000105061 0.000140674,4.30796e-05 8.02073e-05,0.000120338 -7.24445e-05,0.000263379 0.000180858,0.000210707 -1.29473e-05,0.000187935 0.000327793,-0.000110182 8.61336e-05,0.000120288 4.00063e-05,-0.000247759 0.000182251,-0.000145997 0.000185788,1.10981e-05 0.000131508,0.000114493 0.000304422,-7.65782e-05 0.000349608,9.73274e-05 0.000120673,0.000216623 -0.000112312,0.000226688 0.000128133,-2.63502e-05 0.000250719,0.000183935 -3.0585e-05,0.000300959 6.99371e-05,-0.000117974 0.000338928,0.000115475 0.000216843,0.000550841 -0.000409732,0.000510905 -0.000447106,3.08103e-05 -0.000117791,0.000172553 -0.000247363,5.44322e-05 -0.000170511,0.000135064 0.000167046,0.000112391 9.23481e-05,-4.95308e-05 0.000144664,4.66566e-05 0.000103256,-0.000144438 0.000248441,5.39201e-05 0.000113681,0.000109222 -4.47819e-05,6.53897e-05 -7.52993e-05,-2.37549e-05 8.48886e-05,9.41103e-05 0.000271512,-0.000208147 -1.32484e-05,0.000256567 0.000104772,-0.000190505 0.000132148,-2.00632e-05 9.90704e-05,-0.000167882 0.000116409,-1.36113e-05 0.000211075,7.04838e-05 9.9462e-05,0.000168939 0.000205886,4.52422e-05 -7.50398e-05,0.000398855 -0.000519784,0.000171386 -5.70075e-05,0.000226228 0.000233279,1.88272e-05 0.000143316,-8.87858e-05 0.000176896,5.08376e-05 7.35425e-05,0.000104201 8.67104e-05,-2.05885e-05 -9.63144e-05,0.000147091 0.000131206,-1.55411e-05 4.70828e-05,6.64309e-05 -7.01532e-05,9.63039e-05 0.000135787,4.76317e-05 3.5702e-05,0.000212814 -0.000204431,0.000101035 -0.000130341,0.000201555 0.00022659,-5.78743e-05 0.000139918,6.56575e-05 6.38118e-05,0.000159302 -0.000277431,0.000209102 -1.74316e-05,0.000118751 0.00027301,5.6111e-05 2.96602e-05,-0.000128531 0.000288271,-8.00053e-05 0.000146394,-0.000176405 0.000228016,-0.000112971 1.86265e-05,-0.000113032 0.000278176,-0.000134159 -2.07005e-05,0.000103116 7.2347e-05,2.46812e-05 0.00013208,-0.000225049 9.67125e-05,-8.03063e-06 -2.66078e-05,0.000104972 0.000200356,-1.43132e-05 0.000268046,-0.00015936 0.000198011,-5.13178e-05 0.000143814,6.02049e-05 5.64964e-05,-7.90337e-05 0.000329334,-5.51235e-05 0.000484666,-0.000226188 -0.000284594,-0.00011321 -0.000298676,-0.000237709 -7.38292e-05,-0.000272094 -3.23791e-05,0.000120371 -0.000127592,-0.00011723 -0.000123657,-0.000514589 6.11672e-05,-6.83149e-06 0.000112816,-0.000274555 -3.18319e-05,-0.000121641 -0.000120719,-2.2471e-05 0.000191448,-0.000213806 9.36908e-05,-0.000310516 0.000289292,-0.000318321 0.000331763,-0.000194358 0.000262406,-3.10877e-05 7.7364e-05,-0.000164995 0.000265093,4.02274e-05 0.000184535,-0.000114418 -0.000215093,-0.000176097 1.19221e-05,-0.000190636 0.000151544,-5.54469e-05 0.000384097,8.8898e-05 1.69367e-05,-8.41219e-05 0.000118616,9.84483e-06 -1.77926e-05,-0.000297846 -0.000166198,-0.000323696 2.35735e-05,-0.000210599 9.46615e-05,-1.52393e-05 5.18516e-06,-7.40905e-05 -0.000166975,-0.00010516 -8.86621e-06,-9.65485e-05 0.000226091,-0.000106639 0.00010274,-0.000195007 -6.20229e-05,-7.89469e-05 4.21683e-05,-9.16671e-05 0.000169753,-4.91685e-05 9.59755e-05,-0.00057512 -0.000649225,0.00016255 7.25245e-05,4.27387e-05 -0.00011741,1.18172e-05 4.98108e-05,4.29285e-05 -0.000133405,9.14161e-05 -0.000342712,9.85824e-05 -0.000182377,0.00013246 -5.24803e-05,-0.000112439 -0.000245707,-7.74137e-05 -0.00016976,-0.00018641 -0.000291779,-4.27153e-05 9.74071e-05,-3.69336e-05 1.86963e-05,-0.000105809 4.58421e-05,4.1156e-05 6.9718e-06,-9.30687e-05 -0.000504406,-0.000269404 6.50715e-05,-0.000209139 -0.000117628,-0.000306947 3.20175e-05,-0.000156489 0.000359675,-0.000377753 0.000226787,6.22212e-05 0.000215438,-0.000184207 0.000435406,0.000158543 0.000197174,0.00018835 0.000422884,1.81395e-05 0.000110381,0.000174263 0.000227983,8.29781e-05 -4.20654e-05,-0.000256105 0.00017137,-0.000245246 0.000252822,-9.96391e-05 0.000143091,8.72991e-05 -0.000133338,-0.000198451 5.09341e-05,-0.000239725 0.000436139,-3.88646e-05 -3.62649e-05,-7.10349e-05 9.98252e-05,-9.11364e-05 -0.000291654,-0.000129401 -0.000174513,-0.000266736 0.000100719,-1.74514e-06 -2.62538e-05,-5.75734e-05 -0.000323874,6.31969e-06 -4.79612e-05,-5.5586e-05 7.3711e-06,-0.000151768 0.000161052,-9.16478e-05 -0.000498949,7.82175e-05 -0.000199288,-7.78001e-05 -6.47409e-05,-0.000252303 8.82136e-05,-0.000165989 0.000111576,-0.000101167 0.000295987,-2.9564e-05 9.73621e-06,-0.000409147 -0.000161134,-0.000114239 0.00024801,-0.000185385 -0.000219469,-0.000120976 4.69389e-05,-0.000244206 -0.000363848,-4.12075e-05 -2.65246e-05,-0.000282422 -0.000392769,-0.000168292 -3.35172e-05,-0.000290491 0.000261879,-0.000180984 2.44795e-05,-0.000218734 0.000331382,-0.000143639 -9.67766e-05,-0.000196952 0.000326283,3.79093e-05 0.000114937,-0.000159891 0.000224181,-6.77675e-08 0.000148194,0.000104414 0.000838219,-2.41673e-05 0.000134596,0.000127102 0.000232837,-0.000130176 0.000154095,1.13526e-05 0.000191662,0.000204283 0.000155038,-1.29783e-06 9.52445e-06,-0.000133726 0.000220087,-1.44848e-05 0.000258451,0.000167603 -8.10082e-05,-0.000199791 -0.000146856,-6.92054e-05 -7.32342e-05,-0.000212498 -0.000137787,-5.12213e-05 1.50445e-05,-0.000272836 -0.000285561,8.36617e-05 -0.00023458,-5.22177e-05 -0.000139461,-0.000119837 -1.51624e-05,-0.000133519 0.000110421,-0.000117413 -5.10466e-05,-0.000166631 9.69848e-05,-7.84708e-05 -0.000343214,4.62164e-05 -5.46528e-05,-0.000132286 0.000120995,-0.000146398 -0.000274993,-4.46564e-05 -0.000204868,-0.000142769 -8.13925e-05,-0.000238618 0.000129767,-0.000256639 0.000169766,-9.54703e-06 0.000296522,-0.000172247 1.70127e-06,7.1324e-05 0.000125591,1.70095e-05 1.58229e-05,-0.000195184 0.000132802,4.67486e-05 0.000147854,-0.000126756 0.000453106,0.000178616 -5.60775e-05,-8.42776e-05 7.99659e-05,-0.000154778 0.000186497,-5.34767e-05 0.000221938,7.21887e-05 -6.23273e-05,-0.000109646 0.000184634,-0.000102684 -0.000250205,6.35005e-05 -0.000272451,-0.000185546 8.36641e-07,-0.0001135 0.000283898,-0.000150759 1.47325e-05,-0.000106679 -0.000217801,-0.000141103 0.000155417,-0.00027015 -0.000410446,3.77509e-05 -7.15863e-05,-4.81636e-05 -3.56893e-05,-0.000211007 0.000127461,-0.0001907 -0.000117792,7.14212e-05 -0.000366768,-3.84693e-05 -0.000122255,-0.000374631 0.000158958,-0.000102468 4.94887e-06,-9.75671e-05 -0.000243094,0.000181734 -0.000196657,-0.000112135 6.28033e-05,-0.000138687 -0.000462923,2.37381e-05 -0.000301553,-0.000133834 3.75214e-05,-0.000198074 0.000149935,-0.000115937 -0.000272313,-0.000271337 -5.49839e-05,-0.000165695 0.000144555,-0.000160139 0.000250146,-6.89146e-05 -0.000122393,-0.000191319 -1.15505e-05,-0.000266293 -0.000326595,2.80146e-05 -0.000362852,-0.00014145 -2.07056e-05,-9.55467e-05 -3.88665e-05,6.35359e-05 -0.000140581,-0.000430467 -0.000427381,-7.67985e-05 -5.04187e-05,-0.000104329 -7.36664e-05,0.000138777 -0.000157451,5.54957e-05 -0.000235681,-6.48555e-05 -0.000160155,-0.000215387 0.000108486,-0.000409972 z "/>
</g></g></svg>