<?xml version="1.0" encoding="UTF-8" standalone="no"?>
<!DOCTYPE svg PUBLIC "-//W3C//DTD SVG 1.1//EN" "http://www.w3.org/Graphics/SVG/1.1/DTD/svg11-flat.dtd"
[
<!ATTLIST g xmlns:fme CDATA #FIXED "http://www.safe.com/fme" >
<!ATTLIST path fme:district_id CDATA #IMPLIED fme:precinct_id CDATA #IMPLIED fme:id CDATA #IMPLIED >
<!ATTLIST ellipse fme:district_id CDATA #IMPLIED fme:precinct_id CDATA #IMPLIED fme:id CDATA #IMPLIED >
<!ATTLIST text fme:district_id CDATA #IMPLIED fme:precinct_id CDATA #IMPLIED fme:id CDATA #IMPLIED >
<!ATTLIST use fme:district_id CDATA #IMPLIED fme:precinct_id CDATA #IMPLIED fme:id CDATA #IMPLIED >
]>
<svg xmlns="http://www.w3.org/2000/svg"  viewBox="-0.00025533 -0.00025533 0.0209371 0.0388475"><g xmlns:fme="http://www.safe.com/fme" fill="none" stroke="black" stroke-width="0.000002553299356" transform="translate(0,0.0383369) scale(1, -1)">
<g id="5" >
<path d="M 0.00493418,0.00157546 l -0.00406339,-0.00157546 -0.000870797,0.0198599 0.00184228,0.0081984 0.00358295,0.00592951 0.00676603,0.00434906 0.000121803,-0.000173198 7.51315e-05,-0.000400199 0.000134172,7.5654e-05 0.000175801,-0.000213651 0.000400187,-0.000261922 0.000138047,-4.5696e-05 0.000107416,0.000132999 8.10979e-05,-0.000195265 0.000114281,-3.7429e-05 5.0355e-05,9.5223e-05 0.000231287,-9.89748e-05 8.43553e-05,-0.000142605 0.000444333,-0.000122012 0.000340052,0.000162657 0.000281966,0.000530456 0.00100583,0.000269395 7.34077e-05,-7.28453e-05 -8.99911e-05,-0.000105362 5.29518e-05,-0.00014266 -0.000105171,-0.000141358 -3.34336e-05,-0.000383504 -0.000171478,-0.000350762 1.90973e-05,-6.78829e-05 8.50265e-05,0.000103146 -6.67808e-06,-0.000176032 8.27997e-05,-0.000122588 0.000103678,-9.88388e-06 -3.83613e-05,-7.51287e-05 8.14523e-05,-6.51926e-05 0.000204085,0.000149573 8.46016e-05,-0.000190329 0.00032844,-1.85085e-05 0.000198537,-0.000412505 0.000422211,-3.05703e-05 0.00042065,-0.000188585 0.000445963,0.000122743 3.40535e-05,-5.44615e-05 -0.000397933,-0.000263105 -0.000316642,-3.80244e-05 -0.000381932,-0.000644761 1.32903e-05,-0.000363042 -0.000460702,-7.2618e-05 -0.000411543,-0.000176183 -0.000607858,-0.000805087 0.000199837,-0.000532914 0.000138187,-1.61901e-05 -0.000112793,-5.22215e-05 -2.06799e-06,-0.000140741 0.000100371,-2.3641e-05 0.00016043,-0.000267709 6.94877e-05,3.10331e-05 -2.91335e-05,0.000302748 0.000355585,-2.0989e-05 -6.29671e-05,-0.000121388 -0.000103853,-8.17467e-06 3.84601e-05,-0.000108678 -0.000105167,-0.000141358 3.40312e-05,-5.67184e-05 0.000138886,5.30366e-05 -6.05477e-06,-0.000112826 -0.000188164,-3.90856e-05 -0.000179662,-0.000179122 0.000185803,-0.000200192 -0.000161655,-0.00010703 -0.000253625,-1.14568e-05 9.85239e-05,-0.000453132 0.000193107,-0.000233904 0.000253138,0.000156546 0.00023962,-4.23136e-06 6.49024e-05,6.7191e-05 0.000139261,-0.000159174 0.000254399,-8.8689e-06 0.000168866,8.66517e-05 9.7685e-05,-0.000115939 -0.000135125,-0.000172716 -0.000442429,-0.000267257 -0.000940312,-3.54386e-05 -0.000359244,-0.000386756 3.2207e-05,-0.000126349 0.000161786,-0.000131236 0.000459818,-1.52476e-05 0.000116621,-4.68089e-05 -2.2036e-05,-0.000114439 0.000103587,-9.63717e-05 0.000425802,-7.22797e-05 0.000222167,5.54799e-05 0.000281192,0.00019792 0.000607113,0.000681282 0.000244493,-1.10464e-05 0.000342271,0.000132628 0.000129784,0.000132123 0.000313863,-0.000241887 0.000215166,0.000271384 0.000118206,-3.93537e-05 -0.000138497,-0.000513572 -0.000170115,-0.000213061 5.28339e-05,-0.000153948 -0.000386114,-6.90545e-05 -4.612e-05,-0.000166676 -0.000233633,-0.000140297 -0.000180352,-0.000249098 -0.00030294,-0.000153271 -0.000305199,-0.000269939 6.68693e-05,-0.000219647 -0.000222249,-0.000330565 0.000460965,-0.000731802 0.000209378,2.63941e-05 0.000483828,-0.000292954 0.000110652,-0.000303421 0.000371939,-0.000364273 0.000402416,-3.04119e-05 0.000472138,-0.000225136 0.000323879,-0.000476755 0.000250443,-0.000157838 -0.000101542,-0.000274579 -0.000117776,8.22438e-05 -0.000378355,-3.52529e-05 -0.000599256,-0.000387862 -0.000110938,-8.35781e-05 -0.000183287,-0.000410442 -4.99336e-05,-0.000319639 0.000100678,-7.37958e-05 -0.000118204,-4.61798e-05 -0.000119979,-0.000821367 0.000203536,0.000111562 3.30461e-05,-0.000156042 -8.88e-05,1.42779e-05 -7.53608e-05,-0.0001258 -9.83246e-05,-2.13315e-05 2.30408e-05,-0.000106002 0.000222659,4.03316e-05 8.32344e-05,-7.74427e-05 2.36044e-05,-0.000361399 -0.000179913,4.43776e-05 -0.000109993,-0.000129293 2.38532e-05,-0.000337304 0.000157969,-1.48486e-05 -0.000350997,-0.000322621 -0.000106113,-0.000366877 0.000253475,-0.000166682 -0.00028288,-8.49768e-05 -1.90559e-05,-0.000187384 4.53945e-05,-0.000264725 0.000253054,-0.000528438 0.00017267,-6.46353e-05 -0.000147038,-8.45458e-05 1.37625e-05,-9.3344e-05 0.000303326,0.000135851 -0.000205109,-0.000255666 5.28302e-05,-0.000153948 -8.87737e-05,-9.25215e-05 0.000166026,-0.000271578 0.000511071,-0.000101292 -8.55524e-05,-0.000157321 -0.000264196,-5.27478e-06 0.000108276,-0.000177115 0.000298395,-0.00016441 0.000365112,0.000211673 0.000255857,4.25129e-05 -0.00510808,-0.00804225 -0.00526429,-0.00115677 -0.00490933,-0.00815944 z "/>
</g></g></svg>