<?xml version="1.0" encoding="UTF-8" standalone="no"?>
<!DOCTYPE svg PUBLIC "-//W3C//DTD SVG 1.1//EN" "http://www.w3.org/Graphics/SVG/1.1/DTD/svg11-flat.dtd"
[
<!ATTLIST g xmlns:fme CDATA #FIXED "http://www.safe.com/fme" >
<!ATTLIST path fme:district_id CDATA #IMPLIED fme:precinct_id CDATA #IMPLIED fme:id CDATA #IMPLIED >
<!ATTLIST ellipse fme:district_id CDATA #IMPLIED fme:precinct_id CDATA #IMPLIED fme:id CDATA #IMPLIED >
<!ATTLIST text fme:district_id CDATA #IMPLIED fme:precinct_id CDATA #IMPLIED fme:id CDATA #IMPLIED >
<!ATTLIST use fme:district_id CDATA #IMPLIED fme:precinct_id CDATA #IMPLIED fme:id CDATA #IMPLIED >
]>
<svg xmlns="http://www.w3.org/2000/svg"  viewBox="-0.000343353 -0.000343353 0.0348588 0.0212879"><g xmlns:fme="http://www.safe.com/fme" fill="none" stroke="black" stroke-width="0.000003433530083" transform="translate(0,0.0206012) scale(1, -1)">
<g id="LFG-P1" >
<path d="M 0.0161573,0.0129596 l 0.00639377,-0.0086477 -0.00322154,-0.0012598 -0.00223002,-0.000998203 -0.0109031,0.00810523 0.00249403,0.000957638 0.00283556,0.00709054 0.000108487,6.44864e-05 0.00013018,-0.000285621 0.000118569,1.02153e-05 -0.000110214,-0.000250955 9.45989e-05,-6.80256e-05 9.50053e-06,-0.000308374 0.000193425,-0.00030894 4.14408e-05,-0.000275789 0.00032278,-0.000345197 0.000246854,-0.000152089 -6.41306e-05,-0.000225169 -0.000169407,-0.000147462 -2.05168e-06,-0.000189794 0.000116045,-0.00033111 0.000183318,-2.92351e-05 8.39036e-05,-0.000119738 -0.000157559,-9.96929e-05 3.63846e-05,-0.000515037 0.000325058,0.000164113 7.30732e-05,0.000139303 0.000145392,-1.93758e-05 -2.24506e-05,-0.000250378 -0.000104468,-7.58092e-05 -5.12689e-05,-0.000176861 0.000202185,-0.0002821 0.000159586,-3.82398e-05 -1.45353e-05,-0.000203043 0.000230814,-0.000464194 0.000141448,-7.13965e-05 0.000192834,7.67189e-05 0.000131464,-0.000165987 9.88484e-05,1.26497e-05 0.000157654,0.000201746 7.62985e-05,-1.8751e-05 -9.01022e-05,-0.000116573 7.93521e-05,-0.000192605 -7.78865e-05,-0.000127971 -0.000252471,-6.99531e-05 -9.54274e-05,-0.000152645 -0.000366954,-0.000159217 0.000140273,-0.000338826 0.00024911,-0.000165862 0.000532838,-1.83709e-05 0.000297862,0.000159841 0.000183111,0.000273754 0.000166107,7.07343e-05 0.000244801,0.000273195 6.87487e-05,-3.22281e-05 -4.45666e-05,-0.000469154 0.000152008,-9.16776e-05 0.000316338,0.000498294 0.000204099,0.000160688 z "/>
</g><g id="LFG-P3" >
<path d="M 0.022551,0.00431188 l -0.00648065,0.00882909 5.03783e-05,9.43576e-05 0.000411786,9.27309e-05 0.000184048,0.0001436 0.000769211,0.000934206 0.000414031,0.0010653 0.000303676,0.000217086 0.00026736,0.000561195 0.000189992,0.000230116 6.86263e-05,0.000190552 -5.12722e-05,0.000278137 0.000218351,0.000108632 6.15275e-05,0.000211644 0.000189795,0.000205963 8.74552e-05,0.00032654 -0.000177921,0.000432797 -0.000196504,8.53131e-05 -0.000133498,-2.13616e-05 -3.35908e-05,8.83472e-05 0.000166313,8.87879e-05 -0.000365718,0.000183922 0.000369804,-3.49655e-05 2.09181e-05,0.000108169 -0.000140868,0.000208969 0.000229639,1.14577e-05 0.000179044,0.000124792 5.35077e-05,0.000466783 0.000258366,0.000714022 0.000410935,0.000340121 0.000457003,-3.28125e-05 0.000504933,-0.000203129 0.000411316,-7.59841e-05 0.000200717,7.49267e-05 0.000170431,0.000239999 0.000154832,-0.000739607 -2.60053e-05,-0.000420907 0.000215112,-0.000343845 -0.000190195,-0.000242076 -4.82015e-05,-0.000347213 -0.000300225,-0.000247458 1.92499e-05,-9.20278e-05 0.000114033,-3.37358e-05 0.000141623,-0.00059255 0.000303442,-0.000301848 0.000306314,9.29194e-05 -0.000109951,-0.000125417 0.000123282,-1.01532e-05 4.2549e-05,-0.000171956 0.000145294,-2.84138e-05 -0.000170904,-0.000242251 0.000229569,-0.00110507 0.000469161,-0.000332849 0.000167408,3.03892e-05 7.55521e-05,0.000139275 0.000158417,4.37052e-05 1.29361e-05,-0.000171687 -0.000154613,-0.000147584 0.000136266,-0.000177326 0.000104295,-0.000358555 0.000230321,-0.000341065 0.000593735,-0.000264704 0.000642713,-0.000101733 0.000561929,0.00021804 0.00118135,0.000176158 0.000102973,0.00039008 -9.23639e-05,0.000355269 6.35103e-05,0.000617969 0.000218134,8.83051e-05 0.000222033,-6.54509e-06 0.000259096,0.000223379 -1.00933e-05,0.000431271 -0.000249746,0.000180625 0.00025283,0.000101532 0.000156053,0.000187373 0.000261466,0.000531202 0.000223811,-0.00029552 0.000293202,-4.33178e-05 8.15269e-05,-0.000443212 0.000194494,-0.000268163 0.00040246,-0.000308118 0.000269855,-4.56893e-05 0.00023393,0.000178456 -1.54413e-05,0.000392943 0.000243031,-0.000117358 0.000385048,0.00023125 0.000112347,-0.000107131 0.000175199,-1.60577e-06 0.000228552,0.000137869 0.000110696,-3.26196e-05 0.00039625,0.0001273 0.000615296,0.000748354 0.000282363,0.000543719 0.000148973,8.21594e-05 0.000275672,-0.000291488 -5.54514e-05,-0.000105592 -0.000118198,2.36597e-05 -0.000192894,-0.000711593 -0.000119386,-8.46886e-05 1.76615e-05,-0.000215974 -8.54818e-05,-0.00018072 0.000180819,-0.000100988 0.000578258,7.14464e-05 0.000393695,0.000344036 0.000466337,0.000216949 0.000230539,0.000318444 0.000251696,-2.31292e-06 3.38523e-05,-6.35205e-05 -0.000119164,-6.43717e-05 6.42207e-05,-0.000219565 -0.000200718,-7.49098e-05 -0.000117478,8.9121e-05 -0.000125982,-0.000235878 -0.000402377,-0.000235597 -4.62499e-05,-0.000166629 -0.000118593,-1.24558e-05 -6.11196e-05,-0.000135665 -0.000385111,-0.000268684 -0.000206828,-0.000293245 5.13787e-05,-0.000159238 0.000345312,-1.67148e-05 1.07123e-05,7.66559e-05 5.91227e-05,-9.57274e-06 0.000101756,-0.000172503 0.000191331,-0.000105601 -0.000356757,9.80899e-05 -0.000484188,-4.52199e-05 5.58959e-05,-0.000528763 0.000306414,-0.000187926 0.0002243,-2.4634e-05 1.36165e-05,-0.000108484 -0.000217293,-1.15499e-05 -0.000179199,-0.000138319 -0.00019345,5.3517e-05 -3.88024e-05,-0.000433268 -0.000536836,-0.000711874 -5.25698e-05,-0.000239461 3.6117e-05,-0.000213983 0.000245185,-0.000337285 0.000139314,-3.28216e-05 4.26084e-05,-0.000165187 0.000153357,3.24549e-05 0.000156477,-0.000358118 0.000254612,-0.000160258 2.99061e-05,-0.000129221 0.000271232,-0.00011711 8.92806e-05,-0.000181763 -4.00338e-05,-0.000275045 -0.000812108,-0.000245383 -0.000180678,-0.000273755 -0.000304099,-0.00023429 2.40425e-05,-0.00050502 0.000180454,-0.000576149 0.000401991,-0.000138875 -0.000113923,-3.73318e-05 1.28529e-05,-0.000416719 0.000292921,-5.33857e-05 6.08195e-05,-7.957e-05 -2.21654e-05,-0.00022103 -0.000153847,-7.75999e-05 -0.000181344,-0.000428149 0.000215302,-0.000658704 -0.00620137,-0.00175121 -0.00379927,-0.00122894 z "/>
</g><g id="6" >
<path d="M 0.0319882,0.00951518 l 5.09062e-05,-0.000111793 0.000401991,-0.000138875 -0.000113923,-3.73318e-05 1.28529e-05,-0.000416719 0.000292921,-5.33857e-05 6.08195e-05,-7.957e-05 -2.21654e-05,-0.00022103 -0.000153847,-7.75999e-05 -0.000181344,-0.000428149 0.000215302,-0.000658704 -0.00620137,-0.00175121 -0.00462496,-0.00153098 -0.00298279,-0.0012167 -0.00604939,-0.00279313 -0.0126932,0.00627471 0.00194928,0.000832578 -0.00161778,0.000799634 0.0083589,0.00320982 0.00283556,0.00709054 8.62051e-05,5.79154e-05 7.62043e-05,-2.77789e-05 7.62572e-05,-0.000251271 0.000118569,1.02153e-05 -0.000110214,-0.000250955 9.45989e-05,-6.80256e-05 9.50053e-06,-0.000308374 0.000193425,-0.00030894 4.14408e-05,-0.000275789 0.00032278,-0.000345197 0.000246854,-0.000152089 -6.41306e-05,-0.000225169 -0.000169407,-0.000147462 -2.05168e-06,-0.000189794 0.000116045,-0.00033111 0.000183318,-2.92351e-05 8.39036e-05,-0.000119738 -0.000157559,-9.96929e-05 3.63846e-05,-0.000515037 0.000325058,0.000164113 7.30732e-05,0.000139303 0.000145392,-1.93758e-05 -2.24506e-05,-0.000250378 -0.000104468,-7.58092e-05 -5.12689e-05,-0.000176861 0.000202185,-0.0002821 0.000159586,-3.82398e-05 -1.45353e-05,-0.000203043 0.000230814,-0.000464194 0.000141448,-7.13965e-05 0.000192834,7.67189e-05 0.000131464,-0.000165987 9.88484e-05,1.26497e-05 0.000157654,0.000201746 7.62985e-05,-1.8751e-05 -9.01022e-05,-0.000116573 7.93521e-05,-0.000192605 -7.78865e-05,-0.000127971 -0.000252471,-6.99531e-05 -9.54274e-05,-0.000152645 -0.000366954,-0.000159217 0.000140273,-0.000338826 0.00024911,-0.000165862 0.000532838,-1.83709e-05 0.000297862,0.000159841 0.000183111,0.000273754 0.000166107,7.07343e-05 0.000244801,0.000273195 6.87487e-05,-3.22281e-05 -4.45666e-05,-0.000469154 0.000152008,-9.16776e-05 0.000316338,0.000498294 0.000204099,0.000160688 -8.64584e-05,0.000219761 0.000542266,0.000201818 0.000872741,0.0010247 0.000414031,0.0010653 0.000303676,0.000217086 0.00026736,0.000561195 0.000189992,0.000230116 6.86263e-05,0.000190552 -5.12722e-05,0.000278137 0.000218351,0.000108632 6.15275e-05,0.000211644 0.000189795,0.000205963 8.74552e-05,0.00032654 -0.000177921,0.000432797 -0.000364009,0.000113925 0.000166729,0.000127161 -0.000365718,0.000183922 0.000369804,-3.49655e-05 2.09181e-05,0.000108169 -0.000140868,0.000208969 0.000229639,1.14577e-05 0.000179044,0.000124792 5.35077e-05,0.000466783 0.000258366,0.000714022 0.000410935,0.000340121 0.000457003,-3.28125e-05 0.000504933,-0.000203129 0.000411316,-7.59841e-05 0.000200717,7.49267e-05 0.000170431,0.000239999 0.000154832,-0.000739607 -2.60053e-05,-0.000420907 0.000215112,-0.000343845 -0.000190195,-0.000242076 -4.82015e-05,-0.000347213 -0.000300225,-0.000247458 1.92499e-05,-9.20278e-05 0.000114033,-3.37358e-05 0.000141623,-0.00059255 0.000303442,-0.000301848 0.000306314,9.29194e-05 -0.000109951,-0.000125417 0.000123282,-1.01532e-05 4.2549e-05,-0.000171956 0.000145294,-2.84138e-05 -0.000170904,-0.000242251 0.000229569,-0.00110507 0.000469161,-0.000332849 0.000167408,3.03892e-05 7.55521e-05,0.000139275 0.000158417,4.37052e-05 1.29361e-05,-0.000171687 -0.000154613,-0.000147584 0.000136266,-0.000177326 0.000104295,-0.000358555 0.000230321,-0.000341065 0.000593735,-0.000264704 0.000642713,-0.000101733 0.000561929,0.00021804 0.00118135,0.000176158 0.000102973,0.00039008 -9.23639e-05,0.000355269 6.35103e-05,0.000617969 0.000218134,8.83051e-05 0.000222033,-6.54509e-06 0.000259096,0.000223379 -1.00933e-05,0.000431271 -0.000249746,0.000180625 0.00025283,0.000101532 0.000156053,0.000187373 0.000261466,0.000531202 0.000223811,-0.00029552 0.000293202,-4.33178e-05 8.15269e-05,-0.000443212 0.000194494,-0.000268163 0.00040246,-0.000308118 0.000269855,-4.56893e-05 0.00023393,0.000178456 -1.54413e-05,0.000392943 0.000243031,-0.000117358 0.000385048,0.00023125 0.000112347,-0.000107131 0.000175199,-1.60577e-06 0.000228552,0.000137869 0.000110696,-3.26196e-05 0.00039625,0.0001273 0.000615296,0.000748354 0.000282363,0.000543719 0.000148973,8.21594e-05 0.000275672,-0.000291488 -5.54514e-05,-0.000105592 -0.000118198,2.36597e-05 -0.000192894,-0.000711593 -0.000119386,-8.46886e-05 1.76615e-05,-0.000215974 -8.54818e-05,-0.00018072 0.000180819,-0.000100988 0.000578258,7.14464e-05 0.000393695,0.000344036 0.000466337,0.000216949 0.000230539,0.000318444 0.000251696,-2.31292e-06 3.38523e-05,-6.35205e-05 -0.000119164,-6.43717e-05 6.42207e-05,-0.000219565 -0.000200718,-7.49098e-05 -0.000117478,8.9121e-05 -0.000125982,-0.000235878 -0.000402377,-0.000235597 -4.62499e-05,-0.000166629 -0.000118593,-1.24558e-05 -6.11196e-05,-0.000135665 -0.000385111,-0.000268684 -0.000206828,-0.000293245 5.13787e-05,-0.000159238 0.000345312,-1.67148e-05 1.07123e-05,7.66559e-05 5.91227e-05,-9.57274e-06 0.000101756,-0.000172503 0.000191331,-0.000105601 -0.000356757,9.80899e-05 -0.000484188,-4.52199e-05 5.58959e-05,-0.000528763 0.000306414,-0.000187926 0.0002243,-2.4634e-05 1.36165e-05,-0.000108484 -0.000217293,-1.15499e-05 -0.000179199,-0.000138319 -0.00019345,5.3517e-05 -3.88024e-05,-0.000433268 -0.000536836,-0.000711874 -5.21359e-05,-0.000273633 3.56832e-05,-0.00017981 0.000245185,-0.000337285 0.000139314,-3.28216e-05 4.26084e-05,-0.000165187 0.000153357,3.24549e-05 0.000156477,-0.000358118 0.000254612,-0.000160258 2.99061e-05,-0.000129221 0.000271232,-0.00011711 8.92806e-05,-0.000181763 -4.00338e-05,-0.000275045 -0.000812108,-0.000245383 -0.000180678,-0.000273755 -0.000268417,-0.000173621 -1.16395e-05,-0.000565689 0.000129548,-0.000464356 z "/>
</g><g id="LFG-P2" >
<path d="M 0.00619637,0.0101591 l 0.0109031,-0.00810523 -0.00440631,-0.00205388 -0.0126932,0.00627471 0.00194928,0.000832578 -0.00161778,0.000799634 0.00586488,0.00225218 z "/>
</g></g></svg>