<?xml version="1.0" encoding="UTF-8" standalone="no"?>
<!DOCTYPE svg PUBLIC "-//W3C//DTD SVG 1.1//EN" "http://www.w3.org/Graphics/SVG/1.1/DTD/svg11-flat.dtd"
[
<!ATTLIST g xmlns:fme CDATA #FIXED "http://www.safe.com/fme" >
<!ATTLIST path fme:district_id CDATA #IMPLIED fme:precinct_id CDATA #IMPLIED fme:id CDATA #IMPLIED >
<!ATTLIST ellipse fme:district_id CDATA #IMPLIED fme:precinct_id CDATA #IMPLIED fme:id CDATA #IMPLIED >
<!ATTLIST text fme:district_id CDATA #IMPLIED fme:precinct_id CDATA #IMPLIED fme:id CDATA #IMPLIED >
<!ATTLIST use fme:district_id CDATA #IMPLIED fme:precinct_id CDATA #IMPLIED fme:id CDATA #IMPLIED >
]>
<svg xmlns="http://www.w3.org/2000/svg"  viewBox="-0.000413848 -0.000413848 0.0339355 0.0443655"><g xmlns:fme="http://www.safe.com/fme" fill="none" stroke="black" stroke-width="0.000004138478862" transform="translate(0,0.0435378) scale(1, -1)">
<g id="7" >
<path d="M 0.00406339,0.0348363 l 0.00490933,0.00815944 0.000783894,0.000172265 0.00310311,-0.00598831 0.000464022,-0.000614131 0.000395794,-0.000342679 0.0159391,-0.00852829 0.000113975,-0.00013734 -7.99485e-05,-0.000230796 -0.00188772,-0.00129329 -0.00160792,-0.00128441 -0.00150388,-0.00138569 -0.00139222,-0.00147995 -0.00223629,-0.00260775 -0.00125479,-0.00164863 -0.00119541,-0.00176147 -0.00171395,-0.00297143 -0.00142632,-0.0030958 -0.00112802,-0.00319697 -0.000821284,-0.00327418 -0.000508418,-0.00332685 -0.0109383,0.00103992 -0.00121843,0.0126101 -0.000859745,0.0196108 0.00406339,0.00157546 z M 0.0304145,0.027919 l -0.0163257,0.00872771 -0.000465319,0.000438249 -0.000237914,0.000344874 -0.00278072,0.00536733 0.00337068,0.000740659 0.00469545,-0.00636295 0.000584278,-0.000648766 0.000699422,-0.00054538 0.00121706,-0.000588448 0.00782852,-0.00253533 0.000991838,-0.00055286 0.00304,-0.00260312 7.57234e-05,-0.000137706 -6.51747e-05,-0.000180892 -0.000549792,-0.000402967 -0.0018194,-0.00105697 -0.00025898,-3.43382e-06 z "/>
</g></g></svg>