<?xml version="1.0" encoding="UTF-8" standalone="no"?>
<!DOCTYPE svg PUBLIC "-//W3C//DTD SVG 1.1//EN" "http://www.w3.org/Graphics/SVG/1.1/DTD/svg11-flat.dtd"
[
<!ATTLIST g xmlns:fme CDATA #FIXED "http://www.safe.com/fme" >
<!ATTLIST path fme:district_id CDATA #IMPLIED fme:precinct_id CDATA #IMPLIED fme:id CDATA #IMPLIED >
<!ATTLIST ellipse fme:district_id CDATA #IMPLIED fme:precinct_id CDATA #IMPLIED fme:id CDATA #IMPLIED >
<!ATTLIST text fme:district_id CDATA #IMPLIED fme:precinct_id CDATA #IMPLIED fme:id CDATA #IMPLIED >
<!ATTLIST use fme:district_id CDATA #IMPLIED fme:precinct_id CDATA #IMPLIED fme:id CDATA #IMPLIED >
]>
<svg xmlns="http://www.w3.org/2000/svg"  viewBox="-0.00042938 -0.00042938 0.0352091 0.041121"><g xmlns:fme="http://www.safe.com/fme" fill="none" stroke="black" stroke-width="0.000004293795937" transform="translate(0,0.0402622) scale(1, -1)">
<g id="8" >
<path d="M 0.0151831,0.0012044 l 5.6332e-05,-0.000392369 -0.000364609,-5.41193e-05 -0.000937632,-0.000366781 -0.00287091,-0.000337279 -0.00214893,-5.38518e-05 -0.00214565,0.000121064 -0.00212539,0.00029502 -0.00208828,0.00046664 -0.000901648,0.000448701 -0.00125882,0.000422565 -0.000125918,0.00126781 -0.000258137,0.000953972 -1.35643e-05,0.00310766 0.000264643,0.00309825 0.000541093,0.00306806 0.000813934,0.00301729 0.00108133,0.00294628 0.0013415,0.00285551 0.00159268,0.00274557 0.00141991,0.00206701 0.000976132,0.00126769 0.00221296,0.00257993 0.00134868,0.00143365 0.00145684,0.00134234 0.00155763,0.00124423 0.000643289,0.000689897 0.00310296,0.00192888 0.000909176,0.000451654 0.00352846,0.00107597 0.00111376,0.000107018 0.00253118,-0.000105123 0.000704273,3.5059e-05 -6.06898e-05,0.000977871 0.00610994,0.000351741 0.000298838,-0.0006539 0.000605436,-0.000217317 0.00018327,4.81178e-05 7.31366e-05,-9.54333e-05 -0.000189077,-0.000133854 -0.000250965,9.69346e-05 -0.000598605,-0.00032906 -0.000209753,1.983e-05 -0.000261867,-0.000116458 -0.0001396,-0.000163113 -6.52843e-05,-0.000255436 0.000102764,-0.000172798 -0.00022213,-0.00043893 0.000183713,-5.53839e-05 4.58862e-05,-0.000348045 -0.00026961,-0.000282174 -2.13534e-05,-0.000157846 0.00016708,-8.71946e-05 0.000202887,3.44091e-05 -0.00027694,-0.000323349 0.000257632,-0.000121219 9.95516e-05,-0.000170153 6.87819e-05,-0.000282018 -8.51879e-05,-0.000119682 3.94486e-06,-0.000343176 7.42833e-05,-0.000226378 0.000140001,-7.79366e-05 0.000210431,4.789e-05 0.000223387,-0.000381148 0.000434545,-0.000261025 0.000268928,-2.93607e-05 -0.000286165,-0.000209791 -0.000551801,-9.91888e-05 -0.000152288,-0.000405068 9.71249e-05,-0.000165618 -0.000314598,0.000153908 -0.000183535,-7.52076e-05 -0.000202691,-0.000260163 -0.000126047,-7.96722e-06 -0.000938372,-0.000714497 -4.76419e-05,-0.000315651 -0.00013926,-9.36426e-05 -0.000239698,-1.15261e-05 -0.000217483,0.000232099 -0.000381086,-7.12895e-05 -0.000269479,0.000131968 -0.000232235,-0.000163866 -4.27494e-05,0.000169674 -0.000261986,0.000227956 -0.000196802,1.15246e-05 -0.000416677,-0.000593512 -0.000543236,-0.000453993 -0.0004494,-0.000836888 -4.93331e-06,-0.000402712 0.000120424,-5.97074e-05 -0.000199502,-0.00012047 -0.000126518,-0.000391419 6.70037e-05,-0.000273122 0.000415129,-0.0001464 -0.000266661,-0.000217199 0.000266844,-0.00054133 0.000184615,-2.18692e-05 -0.000118105,-0.000100839 5.75459e-05,-9.55081e-05 0.000162399,8.1167e-06 4.11208e-05,-8.61315e-05 -8.38082e-05,-0.00022956 0.000133527,-0.000527272 6.44117e-05,7.18438e-05 5.67951e-05,-0.000246547 0.000331944,-0.000147272 -0.000278612,-9.1529e-05 0.000164163,-0.000237107 7.38541e-06,-0.000401655 0.000200638,-3.35388e-05 0.000109405,-0.000172492 -0.000192885,-0.000269281 -0.00024211,-6.99457e-06 7.37992e-06,-0.00024839 0.000202431,-0.000254544 0.000633181,-0.000154322 -3.82708e-05,-0.000121584 0.000516049,-1.33719e-05 -0.000184794,-0.000201622 -0.000224867,-1.16533e-05 -0.000219018,-0.00024272 -3.98693e-05,-0.00020435 -6.93294e-05,-1.74771e-05 1.14459e-06,-0.000377016 -0.00020004,-0.000244388 1.04782e-05,-0.000431275 -0.000362427,-0.000135973 -0.000173977,-0.000387802 0.000413567,-0.000147934 0.000426009,-0.000615372 -0.000232027,-0.000232831 3.78764e-05,-0.00016286 -0.000440769,0.000130127 -0.00049012,-0.000111015 -0.000359215,1.25167e-05 -0.000715765,-0.000842016 4.31386e-05,-0.000205792 -0.000683389,-0.00062099 -0.000910232,-0.001485 -9.33986e-05,-0.000350633 -0.000177779,-0.000299069 -6.01635e-05,-0.000479602 -0.0014538,-0.000649954 -0.000268263,0.000112362 -0.000834717,-0.000198064 -0.000439187,0.000130952 -0.000307301,-1.59993e-05 -0.00091792,-0.000501956 -0.000499132,-0.000613883 -0.000586049,-0.000184103 -7.68639e-05,7.86112e-05 7.59258e-05,0.000282912 -4.63844e-05,0.000103331 -0.000256336,0.00014933 -0.000400692,-6.16739e-05 -3.30505e-05,-0.000144206 -0.000287831,6.19995e-05 -0.000208529,-0.000108429 -0.000243619,0.000235911 -0.000170982,-8.50784e-06 -0.000299603,-0.000226868 -9.51094e-05,-0.000225864 9.35704e-05,-0.00022563 0.000212362,-0.000200433 -0.000205141,-0.00075953 -0.000639942,0.000116402 -0.000132229,-3.54708e-05 -0.000189999,-0.000281512 -0.000162403,5.9145e-05 -6.19995e-05,-0.000274 -5.93457e-05,-7.63308e-06 -0.000342522,0.000124758 -2.03558e-06,0.000192359 -8.89589e-05,9.37507e-05 -0.000576764,0.000112257 -0.000135494,-0.000183348 -3.44138e-05,-0.000610794 -0.000339947,-0.00021209 -1.39012e-05,-0.000205772 0.000310339,-0.000217784 -5.32707e-06,-0.000102613 -0.000364153,-0.000262458 -0.000195573,-0.0003957 6.72407e-06,-0.00071434 0.00016698,-9.53015e-05 0.000212613,0.000122848 0.000264558,-1.75512e-05 0.000184042,0.000130309 0.000216133,-1.98582e-05 2.40011e-05,-6.97317e-05 0.000869724,0.000144468 0.000307766,0.000180463 0.000111176,0.000277508 0.000201062,-0.000194939 0.000200705,-8.1137e-05 0.00140735,0.000367535 0.000204808,-6.58222e-05 0.000202627,-0.000284333 -1.79438e-05,-0.000313196 -0.000356264,-0.000366082 -0.000175489,-6.11234e-05 -0.000104258,-0.000251974 -2.50664e-05,-0.000433237 -0.000602066,-0.000247825 -0.000719939,-0.00047892 -0.00064717,-0.000115615 -0.000562887,0.000114852 -0.000709008,-7.62764e-05 -0.000112322,-0.000269067 0.000174608,-0.000221787 2.99174e-05,-0.000170015 0.000185883,-0.000135547 0.0004078,-6.08305e-05 0.000399412,0.000133934 6.40825e-05,-0.000111604 0.000257745,-0.000105992 9.90818e-05,-0.000167882 -0.00016045,-0.000142243 -3.71239e-05,-0.000256147 0.000366521,-0.000292016 0.000298427,-8.73685e-05 0.000286898,-5.47645e-05 0.000111369,7.40223e-05 5.5163e-05,0.000182852 0.000732645,0.000169079 0.000250724,0.00027965 0.000240417,3.86307e-05 0.000203477,-6.46263e-05 0.00013142,6.7875e-05 -7.66574e-05,-0.000257343 6.59198e-05,-0.000125166 -0.000335013,-0.000510461 0.000123698,-0.000274301 0.000426602,-1.16858e-05 9.20228e-05,-8.2942e-05 -1.99491e-05,-0.000145939 -0.000845591,-7.71096e-05 -0.000105722,-0.000102062 -2.2366e-05,-0.000261687 8.61238e-05,-8.01832e-05 0.000157958,-8.5412e-06 5.16594e-05,-0.000168391 1.42433e-05,-0.000453432 -0.000450296,-8.6547e-05 -0.000135363,-0.000499141 0.00021502,-0.000229352 0.000963124,-9.29153e-05 0.000498335,-0.000246166 0.000195004,4.1717e-05 0.00028931,-0.000498684 0.000225198,-0.000147426 0.000246471,-4.99497e-06 0.000388143,-0.000201905 0.000124966,-0.000211769 0.0006246,0.000272511 -0.000554093,2.7927e-05 -0.000409303,0.000258972 -5.85923e-05,6.73124e-05 5.81783e-05,8.89123e-05 0.000882387,3.2359e-05 0.000241214,0.000118987 -0.00102868,5.55539e-05 -1.41679e-05,0.000361324 0.000358594,0.000102656 7.56195e-05,0.000153783 0.000134957,-9.28573e-06 0.000339489,-0.000254748 0.000286552,1.02463e-05 6.43405e-05,0.000112339 -3.5243e-05,0.000130329 -0.000161115,-0.000109723 -0.000141683,5.53653e-05 -0.000102098,0.00016159 9.20825e-05,0.000219565 -8.42481e-05,0.000168665 -0.000180745,1.51089e-06 -0.000233567,-0.000144336 -0.000195696,-1.19099e-05 -0.000112619,-0.000335011 -0.000133126,-3.94927e-05 -0.000415915,0.000289729 -0.000443466,-4.37396e-05 -5.85597e-05,0.000316126 -0.000326919,0.00029982 -2.11346e-05,0.000257535 -0.000192991,6.12094e-05 -5.16312e-05,0.0001711 4.09229e-05,0.000141432 0.000475745,6.28523e-05 4.89107e-05,0.000248823 -0.00019086,0.000373635 -0.000349866,0.000277436 -1.72e-05,0.000199062 0.000223723,-9.24239e-05 0.000343655,0.00018857 -0.000140989,0.000224221 0.000194433,-1.60714e-05 0.000150451,0.00032744 0.000311221,-9.19973e-05 0.000427613,0.000187867 -0.000217573,0.000171584 0.000155254,0.000294721 0.000369738,-2.72839e-05 -5.01058e-05,0.000103797 0.000165757,3.02202e-05 0.00036138,-0.000115522 0.000801112,0.00031376 0.000322651,0.000640431 8.95321e-05,-8.0366e-05 0.000932396,0.000308804 0.000437348,4.32806e-05 0.000746834,-0.000462779 0.000300977,-4.00353e-05 0.000226745,0.000129265 -0.00290826,-0.00608757 -0.000292473,-0.00251873 -0.00710736,-0.00100313 5.76147e-05,0.000330692 -6.22654e-05,0.000194666 -0.000122737,7.32617e-05 4.15493e-05,0.00020509 -0.000142174,0.000601687 -0.000313871,0.00022159 -0.000781234,0.000155489 -0.000139013,0.000174985 0.000199707,0.000217322 0.000336118,2.88129e-05 0.000332459,-9.08069e-05 0.000487566,0.000111081 0.00127576,0.00114976 0.000728049,0.000206146 0.000542272,-9.93338e-05 0.000183979,0.000124889 3.7363e-06,0.00037472 -0.000315784,2.97217e-05 -0.000346039,0.000215091 -0.0003772,6.18372e-05 -0.000186844,0.000331156 1.39418e-06,0.000139956 8.15733e-05,8.35097e-06 6.61106e-05,0.00019134 -1.11044e-05,0.000372586 -0.000187839,-1.64963e-05 -0.000285937,-0.000196283 2.82403e-05,0.000108127 -6.88229e-05,3.21783e-05 -0.000528594,-0.000510319 -0.000327416,-0.000146274 -6.01667e-06,-0.000108312 -0.000167411,5.10581e-05 -0.000454915,-0.000303242 -0.00106476,-4.53332e-05 -1.03703e-05,-4.95797e-05 -0.000615636,0.00017217 -0.000467038,0.000216085 -0.00119495,2.34572e-05 -0.000108197,4.60478e-05 -0.000370661,0.00047264 -0.000201937,5.58544e-05 -8.51689e-05,0.000127128 -5.45016e-05,-1.76087e-05 4.60197e-05,-9.06828e-05 -0.00012669,-7.57066e-05 -0.000117761,7.77319e-05 4.06485e-05,0.000114798 -0.000115359,7.09394e-05 -0.000926266,-2.39353e-05 -0.000557673,-0.000207593 -0.000274919,-0.000331841 -0.000599601,-0.000202735 -0.000711546,-0.000535928 1.82359e-05,-0.000153663 -0.00016014,3.74438e-05 -0.000331569,-0.000317832 -0.000723363,-0.000233326 4.5911e-05,-0.000101968 -0.000278147,9.034e-05 8.94045e-06,-9.48905e-05 -0.000125437,5.07012e-05 -0.000353859,-0.00013482 -0.000243859,0.000121691 2.86129e-05,0.000397091 -0.000115205,8.67369e-05 0.000125999,0.00025632 -0.000102547,0.000118238 -4.35025e-05,0.00059635 0.000106291,0.000260998 -1.63894e-05,0.000341024 0.000371127,0.000572611 -8.84464e-05,4.58806e-05 9.0274e-05,0.000139223 -9.52747e-05,0.000104633 0.000941758,9.15582e-05 0.000244528,0.00025534 1.1327e-05,0.000146647 0.000237739,6.802e-05 7.02915e-05,-0.000133776 0.000141818,0.00010719 0.000252727,0.000584872 5.11433e-05,0.000676839 0.000424137,0.000548657 0.000452755,0.000833598 0.000166177,4.78226e-06 0.000497048,0.000318101 0.000300439,-3.94288e-05 0.000301484,-0.000160523 0.000217971,2.07706e-05 0.000130733,0.000505837 0.000116174,0.000169379 0.00115947,0.000105322 0.000838667,-9.72565e-05 -2.44218e-05,0.000152709 -0.000175478,8.20352e-05 -0.00141914,1.02026e-06 -0.000449648,-0.000129885 -0.000346666,-0.000193987 -9.42055e-05,-0.000136478 3.21062e-05,-0.000142512 -5.88246e-05,3.79838e-05 4.95937e-06,-4.9296e-05 -0.000185592,-3.89747e-05 -0.000292937,0.000146371 -0.00035292,-2.77823e-05 -0.000403463,-0.000244089 -0.000417407,-5.61474e-05 3.79582e-05,-5.72038e-05 -0.000153127,-0.000101678 2.67896e-05,-8.7814e-05 -0.000102024,-0.000128288 4.04748e-05,-0.000102375 -0.000125886,-4.41102e-05 -3.43271e-05,-0.000174901 -0.000154019,-0.000191972 -0.000155008,7.60209e-06 -0.000108794,-0.000113784 -0.000205372,8.92091e-06 5.7165e-05,-0.000212681 -9.58347e-05,-0.000301719 5.31457e-05,-0.000119637 0.000110337,-2.98081e-05 -0.000235487,-0.000191619 5.39957e-05,-0.000181633 -0.000234451,-0.000177229 5.9459e-05,-0.000138284 -0.000120404,-8.93072e-05 -4.33392e-05,-0.000187469 -5.87381e-05,-4.64718e-05 -9.51108e-05,7.12206e-05 -0.000212095,-0.000271863 -0.000291547,8.45811e-05 -6.72305e-05,0.0001938 -0.000158059,-1.4046e-06 2.0479e-07,-6.95917e-05 -0.000227816,-0.000173248 -0.00022589,-6.85717e-05 7.59674e-05,-0.000309458 -0.000237153,-8.87993e-06 -0.000109405,-0.000176089 -0.000134227,0.000111275 -0.000121603,-0.000110971 6.17512e-05,-0.000148604 -0.000219909,-6.3204e-05 3.43633e-05,-0.000121288 0.00020898,-4.32619e-05 -1.5769e-06,-0.000159821 -0.000189014,-3.54652e-05 -0.00020254,-0.000205121 0.000227173,-0.000401909 -0.000236554,-0.000140726 -0.000145211,-0.000309441 4.27811e-05,-6.89819e-05 0.000251734,-1.47174e-05 -0.000150333,-0.000119765 4.67929e-06,-0.000126461 8.65059e-05,-4.22519e-05 -0.000146719,-5.38746e-05 -9.44622e-05,-0.00016357 0.000190336,-0.0001307 0.000258337,0.000135987 -0.000230666,-0.000234644 0.000290249,-0.000215505 -0.00034015,6.33064e-05 -0.00012387,-0.000240988 -0.000480124,-0.000108018 -0.000129359,-0.00029693 6.89765e-05,-1.68226e-05 1.89431e-05,-0.000182566 0.000190815,1.82942e-05 -0.000160999,-9.98114e-05 -1.5932e-06,-0.000161627 0.00010922,-0.000343143 0.000122737,-7.41557e-05 -7.83367e-05,-3.09601e-05 2.1052e-05,-6.88028e-05 0.000232766,-0.000234897 0.000220505,-7.58648e-05 0.000103669,9.57683e-05 0.000254591,-0.000225144 0.000279383,8.52889e-05 -1.91169e-05,0.000216307 0.000315262,-0.000234101 0.000564761,-2.272e-05 -5.40669e-05,0.000726472 0.0002688,-0.000186434 0.000105923,0.000123742 0.000188608,-5.16912e-06 0.000132536,0.000118104 4.77902e-05,-0.000361601 0.000167206,-7.18161e-05 9.52256e-05,4.07523e-05 0.000231362,0.000323175 1.1126e-05,0.00012633 -0.000157499,5.4579e-05 0.000285426,0.000596342 0.000277969,-5.82838e-05 0.000239156,0.000212038 2.71081e-05,0.000144259 0.00025202,0.000114406 0.000158642,0.000260563 0.000261814,5.96217e-06 0.000228371,0.000120018 5.37944e-05,0.000145844 0.000287914,4.8187e-05 0.000168181,0.000199071 -6.5833e-05,6.19571e-05 0.000169988,9.42951e-06 0.000116019,0.000145328 0.000708103,0.000120838 0.000274113,-8.20138e-05 0.000162737,-0.000124158 0.000176526,-2.85529e-05 -5.77145e-05,-0.000341765 0.000282146,-0.000135081 0.000101981,2.44393e-05 4.36601e-05,-0.000179159 0.000126923,4.95169e-05 -2.27946e-05,-5.5798e-05 0.00032788,-5.68989e-05 8.97234e-05,8.32365e-05 1.09474e-05,-9.12953e-05 0.000143913,-3.00898e-05 0.000185608,9.05684e-05 0.000147055,-1.20558e-05 5.54779e-05,0.000116029 0.000142451,-7.79379e-05 7.2618e-05,0.000151104 0.000136114,-0.000218756 0.000199022,0.000148249 4.80072e-05,-0.000205383 0.00024633,5.17971e-06 4.515e-05,5.95683e-05 0.000492072,-0.000269916 0.000640906,8.49781e-05 0.000204707,0.000123818 0.000354313,-0.000128464 0.000579349,0.000152308 0.000485255,0.000423993 0.000140357,9.66847e-06 0.000235249,0.000314098 9.18537e-05,-7.644e-07 7.06574e-05,-0.000443065 0.000533824,-0.000154344 -0.00111709,-0.000490973 -0.00173791,-0.000344953 -0.00011728,-0.000163375 -0.000270764,7.8102e-05 -0.000450411,-0.000215069 -0.000229923,-0.000368388 0.000121794,-0.000753092 0.000630286,-0.000434992 0.000378333,-5.08693e-05 -2.31282e-05,-0.000140678 0.000306045,-0.000114516 0.000215873,6.7314e-05 -0.000235346,-0.000337154 -7.54102e-05,-0.000233254 6.02286e-05,-0.000101638 z "/>
</g></g></svg>