<?xml version="1.0" encoding="UTF-8" standalone="no"?>
<!DOCTYPE svg PUBLIC "-//W3C//DTD SVG 1.1//EN" "http://www.w3.org/Graphics/SVG/1.1/DTD/svg11-flat.dtd"
[
<!ATTLIST g xmlns:fme CDATA #FIXED "http://www.safe.com/fme" >
<!ATTLIST path fme:district_id CDATA #IMPLIED fme:precinct_id CDATA #IMPLIED fme:id CDATA #IMPLIED >
<!ATTLIST ellipse fme:district_id CDATA #IMPLIED fme:precinct_id CDATA #IMPLIED fme:id CDATA #IMPLIED >
<!ATTLIST text fme:district_id CDATA #IMPLIED fme:precinct_id CDATA #IMPLIED fme:id CDATA #IMPLIED >
<!ATTLIST use fme:district_id CDATA #IMPLIED fme:precinct_id CDATA #IMPLIED fme:id CDATA #IMPLIED >
]>
<svg xmlns="http://www.w3.org/2000/svg"  viewBox="-0.000501836 -0.000501836 0.0411506 0.0442337"><g xmlns:fme="http://www.safe.com/fme" fill="none" stroke="black" stroke-width="0.000005018360504" transform="translate(0,0.04323) scale(1, -1)">
<g id="PV-9C" >
<path d="M 0.027637,0.0303159 l -0.0013175,0.000629337 -0.00133468,0.000880304 -0.000985657,0.000973016 -0.000865409,0.00122456 -0.000323048,0.000341112 -0.000668728,0.000455144 -0.00154521,0.000714831 -0.0031695,0.00250964 -0.000789878,0.00042547 -0.00349732,0.00138565 -0.000263357,0.000163173 -0.000472847,0.000546701 -0.000150972,0.000422038 -3.90149e-06,0.000569279 -0.00177921,0.00101049 -0.000263139,0.000541673 0.00224188,-0.000119373 0.00292455,-0.000410089 0.00144907,-0.000307442 0.00268224,-0.000760352 0.00234267,-0.00088645 0.00225055,-0.00106616 0.00228773,-0.00134384 0.00177575,-0.00124275 0.00130965,-0.00105158 0.00204552,-0.00194931 0.000938191,-0.00103702 0.00187895,-0.00246088 0.00100222,-0.00161167 0.000733402,-0.00136563 0.00201425,-0.0047768 -0.000549152,-5.86317e-05 -0.000507428,5.25935e-05 -0.000485559,0.00015534 -0.000437517,0.00024313 -0.000531453,0.00052104 -0.0016581,0.00232661 -0.000476446,0.000507684 -0.00205539,0.00121797 -0.00159428,0.00154175 -0.000466644,0.000294177 -0.00168428,0.000795271 z "/>
</g><g id="PV-9A" >
<path d="M 0.0356801,0.0155006 l -0.000162948,-0.000975394 -0.000478676,-0.00126627 -0.000640528,-0.00100514 -0.00137542,-0.00160407 -0.00051976,-0.000776228 -0.000514215,-0.0010487 -0.000161298,0.000101343 -0.00062743,0.000734022 -0.000747684,0.000566105 -0.000431133,0.000446379 -0.000495369,-0.000162591 0.000239482,-0.000112213 0.00040508,-0.000424721 0.000721091,-0.000541252 -6.02079e-05,-0.000330382 0.000846919,-0.000535791 0.000748062,-0.000245707 -0.000292229,-0.00115957 -6.94008e-05,-0.00059723 5.53058e-05,-0.00151241 0.000253491,-0.00109778 0.000445489,-0.00108456 -0.000312995,-0.00063541 0.000520441,-0.000777367 -0.00281981,-0.000935354 -0.00229703,-0.000463021 -0.00107071,0.00131492 -0.00130701,0.00116157 0.000701393,0.00134208 -0.000139293,0.00115679 0.000269369,0.000976889 -0.000447835,0.00130624 -0.000780047,0.000356157 -0.00106801,5.44996e-05 -3.87491e-05,0.000451253 0.000674436,0.000166059 0.000257753,0.000189586 7.73547e-05,-8.79532e-05 0.000292793,8.26299e-05 0.000677186,0.000613291 -2.53407e-05,0.00119853 0.000118856,0.000410514 0.000658851,0.000192356 0.000333574,0.000455385 4.57733e-05,0.000269208 -0.000299269,0.000741651 -0.000245511,0.000392878 -0.000756974,0.000798067 0.000281859,0.000284335 0.000264342,9.07939e-05 0.00115483,0.000134096 0.000235083,0.000162095 0.000296634,0.000541261 9.26879e-05,0.000709177 -8.33386e-05,0.000658198 -0.000467738,0.000442068 -0.000100493,0.000433372 0.00018375,0.000372847 0.000401658,0.00049492 5.31517e-05,0.000374117 -0.000477308,0.000616916 -0.000512988,0.000348384 -0.0010681,0.000504613 -0.000367899,5.14241e-06 -0.00111873,-0.000343846 -6.03935e-05,5.50776e-05 3.47626e-05,0.000280329 0.00017304,0.000233987 0.000726325,0.000569885 0.00016665,0.000260147 0.000388052,0.000225876 -3.07888e-05,0.000688275 -0.000122309,0.000316662 -0.000484605,0.000256272 -0.000730813,5.39243e-05 -0.000186934,0.000117232 -0.000610906,0.000172166 -0.000470853,-6.29987e-05 -0.000189556,4.86525e-05 -8.42613e-05,0.00032335 0.000517063,0.000282261 0.000481488,-0.00015761 0.00162884,0.00104147 0.000394526,0.000305229 0.000526817,0.000572839 0.000282264,0.00063438 0.000102768,0.000612748 -1.72355e-05,0.00053656 -0.000150547,0.000511728 -4.33009e-05,0.000496094 0.000215299,0.000999035 0.000734597,-0.000374145 0.00296772,-0.00205603 0.00111488,-0.000866875 0.000422186,-0.000490265 0.000651293,-0.000246203 0.000263484,-0.000201001 0.000159856,-0.000277638 5.86511e-05,-0.000524422 0.000107933,-0.000213759 0.000803943,-0.000940662 0.000670909,-0.000265313 0.000265212,-0.000293349 0.000150984,-0.00033499 0.00047043,-0.00015334 0.000236592,-0.000197977 0.000117258,-0.000272953 -4.13846e-05,-0.000440779 5.34475e-05,-0.000140921 0.000499298,-0.000282574 0.000170136,-0.000416819 0.00029249,-0.000205884 0.000176324,-0.000440365 0.000342878,-0.000379839 8.35333e-05,-0.000416896 0.00176483,-0.00397103 0.000307273,-0.000332543 -0.000363267,-0.0040316 -0.00238246,0.0001795 -0.00042301,0.000226462 -0.000300917,-7.37119e-05 -0.0019314,0.000544365 -0.000351717,0.000174931 0.000565344,0.000653164 0.000699724,0.000996722 0.000457729,0.000975665 0.000246475,0.000815206 0.00011951,0.000623264 4.86359e-05,0.00111584 -9.6041e-05,0.000855863 -0.000233313,0.000895618 -0.000554808,-0.000202431 0.000272886,-0.00111024 1.28734e-06,-0.00120339 z M 0.0108215,0.0413632 l 0.000252837,-0.000446752 -3.18406e-05,-0.000388442 0.000376945,-0.000183795 0.000140965,-0.00032083 0.000364714,-0.000196124 0.000275348,-0.00029234 0.00019252,-2.9363e-05 0.000313312,7.46318e-05 0.000388056,-0.000143646 0.000125195,-0.000184593 0.000687276,-0.000349095 0.000118944,-0.000352621 0.000131778,-0.000129063 0.000393114,-2.76648e-06 0.000284517,-0.000101128 0.000671585,-7.73076e-05 0.000648798,-0.000223183 0.000225001,-0.000171992 0.00016663,-0.000279738 0.00027408,6.16542e-06 0.000430881,-0.00011598 0.000186808,-0.000170815 2.88517e-05,-0.000377414 0.00012019,-0.000150169 0.000184448,-8.76583e-05 0.000494726,-4.94904e-05 0.000562762,-0.000404097 0.00030963,-0.000547527 0.000389575,-0.000466876 0.000113681,-0.000313191 -8.6222e-05,-0.000236283 8.44572e-05,-0.000108437 0.000160401,-2.2118e-05 0.000373428,0.000177454 0.000313275,-0.000263376 0.000374739,3.00276e-05 0.000137537,-0.000191392 0.000428871,-0.000119683 0.000510222,-0.000518182 0.000685764,-0.000229663 0.00065071,-0.000412862 0.000167357,-0.000425401 0.000238632,-0.000244956 -5.43839e-05,-0.00031873 -0.00018193,-0.000270701 -0.00128152,0.000596458 -0.00221503,0.000512318 -0.000804656,0.000286359 -0.00074329,0.000380117 -0.000944888,0.000708635 -0.00125981,0.00134396 -0.00114909,0.00091827 -0.00145071,0.000774925 -0.00168148,0.000612199 -0.000997088,0.000608652 -0.000574264,0.000529845 -0.000966408,0.00135155 -0.000331546,0.000254615 -0.000603831,0.000214414 -0.00173811,7.90303e-05 -0.000393564,0.000100412 -0.000390163,0.000207246 -0.000778976,0.00060179 -0.000287753,0.000537208 -5.53833e-05,0.000399865 0.00200337,0.00024476 0.00158209,9.78319e-05 0.000169825,-0.000660082 0.000295232,-0.000422405 0.000112767,-0.000314095 0.00015045,-2.04463e-05 0.000383346,0.000387158 0.000254445,-6.03708e-06 0.000201231,0.000115937 0.000252257,-4.80101e-05 0.000285745,6.3279e-05 0.000294005,-0.000448874 -0.000143632,-0.000155999 0.000182247,-0.000221384 z M 0.0157604,0.0312444 l -0.000145037,-0.000575631 5.8854e-05,-0.00104912 -0.000215945,-0.000643967 -0.000339163,-0.000396754 -0.00045188,-0.000279368 -0.000502879,-0.000120214 -0.000474248,1.60019e-05 0.000225859,-0.000378354 0.000442973,2.11371e-05 0.000476336,0.00013453 0.000322772,0.000170972 0.000475741,0.000419141 0.000220431,0.000325995 0.000173425,0.000456425 4.83107e-05,0.000438224 -6.67897e-05,0.000881884 0.000232118,0.000667401 0.000285465,0.000355063 0.000993591,0.000683878 0.000632093,0.000640048 0.00135695,-0.000604442 0.00197997,-0.000440007 0.00133373,-0.000522581 0.00102316,-0.000669488 0.000854199,-0.000766149 0.000564475,-0.000402243 0.00125227,-0.000587496 -0.000250479,-0.00102226 0.000213328,-0.00155144 -9.43132e-05,-0.000654842 -0.000390758,-0.00071597 -0.000724958,-0.00042618 -0.000146204,-0.00057507 -0.000346786,-0.000504555 -0.000268887,-7.4889e-05 -0.000398846,9.23025e-06 -0.000126235,2.73957e-05 -0.000169376,0.000174011 -0.000845861,-0.000429422 -0.000752397,0.00128246 -0.00079382,0.000263464 -0.000697473,-1.7886e-05 -0.00109911,0.000303014 -0.000962798,0.000106849 -0.000922496,-9.03644e-05 -0.000224723,-0.000205064 -0.000225753,-0.000545688 -0.000273151,-0.000421339 -0.000453903,-3.17318e-05 -0.000610615,0.000202007 -0.000697408,3.49824e-05 -0.000736265,-0.000515283 0.000397791,-0.00131826 -0.00083727,-0.000340413 -0.000385699,-0.00101184 -0.000934168,0.000367033 -0.000938854,-4.46987e-05 -5.9892e-05,4.88294e-05 0.000661334,0.00203267 -0.000437901,0.00111231 -0.000448981,0.00033083 0.000543328,0.00128105 -4.21551e-05,0.000657975 -0.000686461,0.000651633 -0.00193716,-5.03774e-05 0.000208686,0.0015115 0.000679077,0.00107167 -0.000105547,0.000943905 0.00122288,0.000302492 1.84087e-05,0.000138042 -0.00020736,0.000100001 -0.000216793,0.00023574 -0.000225138,8.39195e-05 -6.3659e-05,0.000234404 -0.000520903,0.000364871 -0.000504473,0.0001769 -0.000371381,0.000338642 -8.86993e-05,0.000407327 4.54209e-05,0.000480701 0.000142011,0.000377129 -2.22721e-05,0.000339274 -0.00025398,0.000736413 -0.000673214,0.000514028 -0.00110852,0.000310471 -0.000124886,0.000746318 0.00166772,3.83149e-05 8.66817e-05,0.000385217 -0.00108212,0.000664635 -0.00103275,0.000980521 -0.000998015,0.000107486 -0.000980026,0.000674007 -0.00123029,0.000187477 -0.000948426,0.000355883 -0.000339512,-0.000271408 0.000376099,-0.00151835 -0.000455672,-0.00053966 -0.00135483,-0.000567104 -0.000623008,-0.000651586 -0.000160347,7.47215e-05 0.00013086,0.000693768 0.000352786,0.000613239 6.93834e-06,0.000692595 0.000655986,0.000793167 -8.59034e-05,0.000819064 0.00133401,5.02761e-05 0.000139089,0.000561381 -0.000225849,0.00111245 -0.000349161,0.000395401 0.00208013,0.000254288 9.76552e-05,-0.000528762 0.000356225,-0.000640083 0.000288777,-0.000289708 0.000771746,-0.00053414 0.000780035,-0.000296034 0.00171301,-8.57873e-05 0.000364411,-7.49075e-05 0.000473852,-0.000375291 0.000729795,-0.00107575 0.000941006,-0.000854537 0.00116058,-0.000641657 0.00181265,-0.000670458 0.000905366,-0.000501608 0.000669197,-0.000481417 0.000569568,-0.000508003 0.000887203,-0.000987964 0.00110171,-0.000917816 -0.000633472,-0.00061568 -0.000976976,-0.000682539 -0.000457803,-0.00067044 z M 0.0323988,0.00549328 l -0.000133589,0.000956495 1.33638e-05,0.00071021 0.00018681,0.000650139 0.000369211,0.000681293 1.48109e-05,0.000278951 -0.000128399,0.000270382 0.000563268,0.000984739 0.000868454,0.00105986 0.000351717,-0.000174931 -0.000552218,-0.00028332 0.00018905,-0.00136704 -0.000607358,-0.000786 0.000976186,-0.00113956 0.000823209,-0.000193259 -0.000211355,-0.000862515 0.00177435,-0.00167046 0.00036417,-0.00177889 -0.000451336,-0.000249001 -0.00325638,0.000738401 -0.000579073,-0.000136253 -5.44714e-05,-0.000113738 -0.000164307,0.000621677 -0.000441201,0.00068638 -5.37495e-05,0.000497342 0.000138835,0.000619101 z "/>
</g><g id="9" >
<path d="M 0.00215469,0.0422255 l 0.00497496,0.000738296 0.00193443,0.000205311 0.00270075,6.09223e-05 0.00245857,-0.000191869 0.00209347,-0.000340335 0.00204969,-0.000505662 0.00199156,-0.000666771 0.00191906,-0.000822612 0.00183247,-0.000972098 0.0017323,-0.00111415 0.00161921,-0.00124773 0.00139607,-0.00127901 0.00533223,-0.0053744 0.00100977,-0.00138536 0.000863384,-0.00146575 0.000709413,-0.00153326 0.00278535,-0.0069043 0.000333834,-0.00120491 0.000187551,-0.00112583 6.81343e-05,-0.00113709 -1.18527e-05,-0.00245286 -0.000751883,-0.00994582 -0.000455333,-1.80007e-05 -0.00132183,-0.00054801 0.000198367,-0.000686178 -9.84508e-06,-0.000190451 -0.000266433,-8.08004e-05 -0.000160331,0.000156688 -0.000251541,2.3821e-05 -0.000403975,0.00018044 -0.00113523,0.000316713 -0.000186443,-7.96806e-05 -0.000560773,6.58839e-06 -0.000583885,0.000257821 6.38688e-05,6.62785e-05 -9.1326e-05,0.000146163 -0.000126066,-0.000162371 -0.000244191,6.70975e-05 -0.000134057,0.000119437 -0.000609071,1.51206e-05 -0.000185166,-0.000148323 -0.000373199,-0.000966658 -0.000379368,-0.000117775 0.000264597,-2.25154e-06 0.000329597,-0.00030983 0.000109823,-0.00026913 -5.11661e-05,-0.000176555 -9.53033e-05,0.000143487 -0.000242756,1.38053e-05 -0.000235331,-0.000129837 -0.000114797,7.14117e-05 -7.0627e-06,-0.000111913 -0.000119523,-0.000101927 -0.00019115,3.95526e-05 -0.000170021,-0.000115946 -0.000127983,0.000212767 -0.000233723,4.67642e-05 0.0001413,-0.000281135 0.000218409,-7.77104e-05 -1.14846e-05,-6.13072e-05 -0.000276186,2.7633e-05 -0.000307801,-7.14302e-05 -3.54892e-05,0.000199868 -0.00020664,-0.000318813 -0.000181148,5.21082e-05 -0.000103614,-9.12269e-05 -0.000406013,7.74965e-05 -0.000233552,-5.21971e-05 -0.000300855,-0.000165406 -0.00015961,-0.00025781 -0.000357354,7.54849e-06 -0.000516694,-0.000126552 -0.000268842,6.49633e-05 -0.000174717,-8.73882e-05 -0.000230513,5.25236e-05 7.43579e-06,-0.000119712 -0.000314889,0.000228423 -0.000529475,0.000853321 -0.00127933,0.000909335 -0.000291281,0.000487836 -3.06953e-05,0.000381783 8.64347e-05,0.000247597 0.000350451,0.000480146 0.00018398,0.000129379 8.70994e-05,0.00031306 -0.000142773,0.00101484 0.000309503,0.000823636 -0.00029252,0.000853568 6.74254e-06,0.000178288 -0.000257578,0.000404022 -0.000700425,0.000308439 -0.00108568,4.98195e-05 -0.000123103,0.00027646 2.03107e-06,0.000200903 0.00013505,0.000172688 0.000346945,0.000132518 0.00102388,0.000185484 0.000165062,0.000210811 0.000516308,0.000280077 -0.000100541,0.000310134 8.184e-06,0.000808127 8.79504e-05,0.000396581 0.000100178,0.000141376 0.000629088,0.000202363 0.000250642,0.000372626 8.77029e-05,0.000371749 -0.000129979,0.000328444 -0.000181797,8.73271e-05 -0.000252798,0.000605572 -0.000315512,0.000431965 -0.000504168,0.000319295 -8.10714e-05,0.000282878 0.00048177,0.000280368 0.000236976,-2.00771e-06 0.000171903,-8.95003e-05 8.56905e-05,0.000173104 8.39749e-05,3.80337e-06 9.74589e-05,-0.000127248 0.000282233,7.88787e-05 0.000367761,-7.63331e-06 0.000221116,0.000138092 0.000118442,-5.51971e-06 0.000100045,0.000127831 0.000289518,0.000796709 5.56622e-06,0.000548533 -7.94407e-05,0.00044315 -0.000473837,0.000502934 -0.000129501,0.000375848 0.000217655,0.000526416 0.000288713,0.000230076 6.58551e-05,0.000164241 8.72305e-05,0.000324344 -8.10684e-05,0.000282879 -0.000503675,0.000482869 -0.000728279,0.000245474 -0.000646816,0.000488593 -0.000661589,5.60445e-06 -0.000822962,-0.000327147 -0.000201649,7.84626e-05 0.000186836,0.000409289 0.000387801,0.000506919 0.000180484,2.55622e-05 0.000379851,0.000452804 0.000268397,0.000173814 5.72869e-05,0.00078062 -8.11439e-05,0.000276106 -0.000349224,0.000133895 -0.000141765,0.000141167 -0.000657031,-3.05577e-05 -0.000816949,0.000268786 -0.000701286,-1.21297e-05 -0.000894386,0.00189034 -0.000764715,0.000308968 -0.00126156,6.13216e-06 -0.00083074,0.000372726 -0.00114549,9.65224e-06 -0.000769459,-0.000160799 -0.000171418,-0.000127287 -0.000164759,-0.000648512 -0.000215694,-0.000334558 -0.000656676,5.52344e-06 -0.000590947,0.00015848 -0.000444368,3.73432e-06 -0.000255048,-7.46134e-05 -0.000431576,-0.000443367 3.25213e-05,-0.000203451 0.000117046,-0.000145465 -2.94763e-06,-0.000293455 9.2495e-05,-0.000131714 9.84691e-05,-0.00052006 -5.03712e-05,-9.89085e-05 -0.000698568,-0.000233433 -0.000264398,-0.000268685 -0.00013691,-0.000357799 1.1766e-06,-0.000374761 -0.000124271,-8.24861e-05 -0.000291119,2.05027e-05 -0.000436069,0.000337773 -0.00116027,9.72538e-06 -0.000104071,0.000250611 0.000163833,0.000292955 0.000170579,0.000761618 0.000272728,0.000607249 -3.03074e-05,0.000424671 -0.000158613,0.000432519 -0.000228168,0.000390208 -0.000377197,0.000301155 -8.22631e-05,0.000167747 0.00019079,0.000314457 -3.78259e-05,0.000167375 6.92152e-05,8.45026e-06 0.000290421,0.000647737 9.69828e-05,6.91708e-05 -0.000139912,0.000820658 -0.000299425,0.000178597 -0.000170778,0.000204609 -0.00195563,-1.97506e-05 -9.3091e-05,7.30198e-05 0.000209509,0.000704857 -4.61148e-05,0.000819872 0.000571882,0.000893714 0.000137068,0.000373604 -3.23145e-05,0.000718167 0.000303279,0.000205154 0.000622105,-9.7247e-06 0.000415219,4.16721e-05 6.48237e-05,6.26678e-05 -0.000161134,0.000181953 -0.000343378,0.00022863 -0.000167611,2.84943e-05 -0.000175904,0.000186591 -0.000316013,8.09926e-06 -0.000324311,0.000155289 2.10166e-05,0.000126246 -0.000201408,0.000105532 -0.000635448,0.000650972 -0.000128171,0.00051579 0.000113948,0.00102397 -4.77069e-05,0.000167457 -0.000104056,-3.52502e-05 -7.56178e-05,0.000339263 -6.89041e-05,2.31516e-05 6.92518e-06,0.000198605 -0.000146397,0.000175054 -0.000702121,0.000405453 -0.000439066,4.43046e-05 -0.000509403,0.000171313 -0.000236128,0.000338345 -2.98755e-05,0.000469817 5.14313e-05,0.000205006 0.000176515,0.000120433 0.00018975,-3.77054e-05 0.000255251,9.26842e-05 0.000342239,-9.76761e-05 0.000573388,5.39032e-05 0.000557581,-4.52983e-05 -3.97138e-05,0.000226086 -0.00130329,0.00078523 -0.000468182,0.00059087 -0.000167103,8.04094e-05 5.88524e-06,9.47673e-05 -8.85685e-05,3.23451e-05 -3.03723e-05,-7.4245e-05 -6.19166e-05,0.000228528 -0.000233913,-0.000180907 -8.29317e-05,0.000102281 7.48368e-05,7.61314e-05 -0.000118197,3.25922e-05 -0.000277476,-9.25004e-05 -0.000389337,8.00052e-05 -0.000378493,0.000176988 -0.000268056,0.000356669 -0.000258662,6.08528e-05 2.54558e-05,7.6544e-05 -0.000152179,9.15702e-05 -0.00045695,-1.42515e-05 -0.000705242,9.61772e-05 -0.00042193,0.000278933 -0.000323174,2.9781e-05 -0.000263134,-0.000140035 -0.000179077,-0.000377776 0.000179359,-0.000337866 0.000118243,-2.80746e-05 -5.57344e-05,-0.000141761 8.1092e-05,-0.000287382 0.000114204,6.22605e-05 0.000103339,-3.69808e-05 -1.88837e-06,-0.000189617 -0.00015418,-0.000109336 0.000136668,-0.000161423 -0.000139815,-0.000154606 5.2722e-05,-0.000160724 -0.000117635,8.90231e-05 -0.000493467,-0.000458689 -0.00117852,-0.000319801 -0.000611857,-0.000446424 -0.000249724,-0.000282376 -3.96119e-05,-0.000507617 0.000128008,-0.0005361 0.000107644,0.000396433 -3.63135e-05,-0.000424116 0.000144008,-0.000168254 -0.000297485,-0.000119436 -0.000244425,2.02986e-06 -9.00953e-05,0.00012717 0.000107317,0.00160648 0.000181308,0.000603515 0.000270801,0.000415395 -9.44303e-05,0.00043649 3.22977e-05,0.000268379 0.000563114,0.000758369 -6.91105e-05,0.000251161 -8.93788e-05,-4.89231e-05 -6.28034e-05,0.000140489 -9.63371e-05,-3.71455e-06 0.000147019,0.000134231 3.10199e-05,0.00013971 4.7877e-05,-0.000151653 5.50819e-05,7.62985e-05 -8.30724e-05,0.000585393 0.000145988,3.03922e-05 0.000371883,-9.79081e-05 -3.87413e-05,7.70784e-05 0.000224863,1.61906e-05 7.55972e-05,-9.54452e-05 0.000276578,2.21481e-06 0.000260326,-0.000142133 0.00045004,6.39813e-05 8.7657e-06,0.000880367 -0.000102394,0.000380118 -0.000221225,0.000349502 -0.000237695,0.000152192 z "/>
</g></g></svg>