<?xml version="1.0" encoding="UTF-8" standalone="no"?>
<!DOCTYPE svg PUBLIC "-//W3C//DTD SVG 1.1//EN" "http://www.w3.org/Graphics/SVG/1.1/DTD/svg11-flat.dtd"
[
<!ATTLIST g xmlns:fme CDATA #FIXED "http://www.safe.com/fme" >
<!ATTLIST path fme:district_id CDATA #IMPLIED fme:precinct_id CDATA #IMPLIED fme:id CDATA #IMPLIED >
<!ATTLIST ellipse fme:district_id CDATA #IMPLIED fme:precinct_id CDATA #IMPLIED fme:id CDATA #IMPLIED >
<!ATTLIST text fme:district_id CDATA #IMPLIED fme:precinct_id CDATA #IMPLIED fme:id CDATA #IMPLIED >
<!ATTLIST use fme:district_id CDATA #IMPLIED fme:precinct_id CDATA #IMPLIED fme:id CDATA #IMPLIED >
]>
<svg xmlns="http://www.w3.org/2000/svg"  viewBox="-0.00164306 -0.00164306 0.193842 0.10187"><g xmlns:fme="http://www.safe.com/fme" fill="none" stroke="black" stroke-width="0.000016430581019" transform="translate(0,0.0985835) scale(1, -1)">
<g id="99" >
<path d=""/>
<path d="M 0.124802,0.0245678 l 0.0104798,-0.00404646 -0.0010936,-0.000584577 -0.0010319,-0.000671919 -0.000961894,-0.000753849 -0.000884137,-0.000829706 -0.000799262,-0.000898882 -0.00194961,-0.00250439 -0.00297568,-0.00632208 -0.000333657,-0.000351582 -0.000420448,-0.000262342 -0.000479565,-0.000155835 -0.00050712,-3.90695e-05 -0.000514262,8.40065e-05 -0.000827402,0.000309357 -0.00102759,9.66646e-05 -0.00365335,0.00142937 0.00697965,0.0155013 z "/>
<path d="M 0.160293,0.0122439 l 0.0035762,-0.00162147 -0.00400528,-0.00212027 -0.011682,-0.00693539 -0.00226276,-0.00118444 -0.000434833,-0.000118397 -0.000995704,-0.000114442 -0.00394382,-0.000149525 -0.00103886,0.000157108 -0.00367625,0.00190442 -0.00549497,0.00219625 -0.00074941,0.00069409 -0.000864003,0.00034652 -0.000620781,0.000394929 -0.000484744,0.000530907 -0.000376927,0.000853177 -5.46275e-05,0.000689973 0.000146482,0.000678675 0.000968875,0.00238139 0.00209315,0.00466478 0.000673296,0.000913781 0.000760137,0.000854877 0.000840858,0.000789088 0.000914807,0.000716945 0.000981388,0.000639025 0.00104007,0.00055596 0.00109037,0.000468415 0.00113189,0.000377099 0.00325574,0.000932997 0.0192118,-0.00949646 z "/>
<path d="M 0.135282,0.0205214 l -0.0104798,0.00404646 0.00715845,0.0158938 0.00420659,-0.00356053 0.00529607,-0.0050576 0.00116217,-0.00133221 0.000445149,-0.000967376 0.000259477,-0.00102239 2.61959e-05,-0.00157182 -0.00022528,-0.00102915 -0.000412683,-0.000979343 -0.000942878,-0.00131423 -0.00086891,-0.000774259 -0.00106434,-0.000648157 -0.000577701,-0.000252008 -0.00283597,-0.000938652 -0.00114649,-0.000492527 z "/>
<path d="M 0.0960779,0.0582063 l 0.00168798,-0.00875054 -0.0018065,-2.10522e-05 -0.000691248,6.95412e-05 -0.00135038,0.000299671 -0.00127476,0.000505829 -0.00116183,0.00069718 -0.000527776,0.000414172 -0.00206892,0.00200653 -0.000855975,0.00104039 -0.000675032,0.00114235 -0.000486285,0.00118499 -0.000295557,0.00123304 -0.000100254,0.00107045 2.77824e-05,0.00106061 0.00411718,0.000590933 0.00176405,-0.00393847 0.00369753,0.00139439 z "/>
<path d="M 0.0942705,0.0651752 l -0.00100494,0.00420655 0.000883374,0.000225951 0.000737604,0.00032555 0.0013667,0.000823051 0.00368106,0.00314907 0.000195089,6.0758e-05 0.00046184,-0.000481342 0.000351449,-0.000888891 5.16517e-05,-0.000471444 -8.87979e-05,-0.00107252 2.43725e-05,-0.0009262 0.0001923,-0.000909627 0.00035488,-0.000867772 0.000814404,-0.00117091 0.00261589,-0.00233765 0.000678354,-0.00105474 0.00034429,-0.000864125 -0.00560917,-0.000972979 -0.00268251,0.00386309 -0.00336784,-0.000635828 z "/>
<path d="M 0.0977659,0.0494558 l -0.00168798,0.00875054 0.00251137,-0.00104566 0.00235621,0.00324592 0.00493232,-0.000291665 -9.45538e-05,-0.0017911 0.000160807,-0.00085559 0.00032126,-0.000816908 0.00120692,-0.00242002 0.000190907,-0.000622316 8.06046e-05,-0.000642127 1.21834e-05,-0.00299902 -6.38482e-05,-0.000122508 -0.000171795,-7.17043e-05 -0.00975439,-0.000317856 z "/>
<path d=""/>
<path d="M 0.0510803,0.0698529 l 7.6896e-05,5.88617e-05 0.00359885,-0.00250755 0.0015256,-0.00147111 0.00122905,-0.00168738 0.000491713,-0.000909571 0.00040483,-0.000944702 0.000537806,-0.00196689 0.000163347,-0.00202194 -6.06712e-05,-0.00101314 -0.0004038,-0.00199353 -0.000340166,-0.000965785 -0.000944402,-0.00183427 -0.000597312,-0.000855038 -0.00269326,-0.00319753 -0.000167433,-8.59505e-05 -0.0101081,0.00511599 -0.000967561,0.000566354 -0.00100519,0.000770879 -0.00687395,0.0061029 -0.00125958,0.000922701 0.00672682,0.00666825 0.00849927,0.0028371 0.000720386,-0.000491058 -0.000103668,-0.000423672 0.000176312,-0.000342808 -4.03863e-05,-8.90626e-05 -0.000145634,5.17812e-05 -0.000455836,-0.000159653 -0.000183064,0.000259786 -6.91454e-06,-0.00039727 7.76267e-05,-0.000237236 0.000615298,-9.00037e-05 0.000395695,-0.000227242 7.29976e-05,9.15e-05 0.000103029,-0.000165207 0.000285888,-0.000132996 0.000140914,0.000153823 -2.02748e-05,0.000145555 0.000114953,4.05812e-05 9.98963e-05,0.000313418 0.000320067,0.000111113 z "/>
<path d="M 0.163869,0.0106225 l -0.0035762,0.00162147 0.00663633,0.00305208 0.00239585,0.000957752 0.00301311,0.00103428 0.00781322,0.00224791 5.42372e-05,-0.000183355 0.000223758,-0.000211305 -0.000203485,-0.000160728 0.000143133,-0.000579373 0.000323784,-0.000214974 0.000174304,-0.000306743 0.000465868,-4.67871e-05 0.000353875,9.15637e-05 0.000456415,-8.70852e-06 0.000315389,0.000182215 0.00108363,3.06704e-05 0.00046837,0.000180804 0.000355601,2.38171e-05 0.000139862,0.000152221 0.000429623,2.31343e-05 0.000359758,0.000177285 4.45476e-06,0.000180557 0.000215351,0.000284716 9.32218e-05,-0.000274014 0.00033838,2.84869e-05 0.000248231,0.000133161 0.000158777,0.000301038 -7.90873e-05,0.000212932 0.00015283,-1.49536e-05 0.000161456,-0.000127907 0.00018398,0.000124722 -5.76649e-05,-0.000306485 0.000350868,4.1914e-05 0.000379722,0.000420903 0.000528693,0.000279564 5.98026e-06,9.47588e-05 0.000642694,-0.000255966 0.00146869,-9.7189e-05 0.00017506,-0.000236395 0.000288849,-0.000121865 -0.0171863,-0.00484475 -0.00281885,-0.000967247 -0.00229415,-0.000918026 -0.00438758,-0.00200118 z "/>
<path d="M 0.114052,0.0287178 l 0.0107505,-0.00414996 -0.00697965,-0.0155013 -0.00478552,0.00185464 0.00390499,0.00863197 -0.00623667,0.00224874 0.000198196,0.000267525 -3.28079e-05,0.000291784 0.00052696,-7.68357e-05 0.000320846,0.000151911 0.00099965,-0.000597449 0.000485015,3.07222e-05 0.000244239,0.000157458 -4.24711e-05,0.000592961 -0.000779069,0.000468183 0.00025643,-4.034e-06 0.000416809,0.000136319 -5.18082e-05,0.000422611 -0.000556722,0.000369404 -0.000191273,0.000254088 0.000682279,-2.91846e-05 0.000174284,0.000241914 -5.89021e-05,0.000291027 -0.000135995,0.000119211 -0.000870159,2.38515e-05 -0.000818006,0.000297906 0.000117413,0.000183908 3.93705e-06,0.000242352 -0.000257064,0.000250666 0.000289639,3.2512e-05 0.00100418,-0.000324027 0.000308364,1.53677e-05 0.000196264,0.00015849 -2.90067e-05,0.000349775 -0.00130941,0.000252592 -0.000180412,6.7006e-05 2.25343e-05,8.09577e-05 -0.000168489,0.00010728 -0.000295224,5.62742e-05 -0.000185041,0.000118541 0.000328178,3.47636e-05 5.81866e-05,6.2284e-05 0.000349747,-0.000159803 0.000298134,-3.65672e-05 0.00051585,0.000181752 0.000725808,0.00011171 0.000582404,0.000259958 0.000529527,7.83687e-05 0.000155397,0.000163646 4.00016e-05,0.0001684 -0.000119983,0.000261232 -0.000135104,5.70349e-05 -0.000387118,-5.03108e-05 -0.000795886,0.000403322 0.000423197,3.78512e-05 0.000492807,0.000341197 z "/>
<path d="M 0.124802,0.0245678 l -0.0107505,0.00414996 0.000279348,0.000255096 6.51237e-05,0.000343909 -0.000369963,0.000297162 -0.000516722,3.0181e-05 0.000196386,0.00024227 -5.46773e-05,0.000181546 -0.000572364,0.000703398 -0.000757891,-7.48755e-05 -0.000941607,-0.000290147 -0.000131393,9.41704e-05 -0.000222234,1.30336e-05 -0.000299419,-7.538e-05 -0.000158474,-0.000129059 -0.000344194,1.50329e-05 -0.00022825,0.000132436 0.000271941,5.4887e-05 0.000265542,0.000183791 0.000345312,0.000373847 6.18832e-05,0.000286744 -0.000198763,0.000295993 0.000105644,0.00024119 -5.92834e-05,0.000235165 -0.000494506,0.000245189 -0.00104764,-3.09362e-05 -0.000468455,8.5008e-05 -0.000161808,0.000257788 -0.000588818,0.000159386 -6.7506e-05,0.000252963 -0.000379612,0.000126953 0.00145538,5.78511e-05 0.000122576,-0.000391466 0.000154653,-0.000158088 0.000326416,4.46889e-05 -4.65485e-05,0.000358685 9.89748e-05,1.76629e-05 0.000208918,-0.000235894 0.000255992,-3.03381e-06 0.000130803,0.00014009 -5.04033e-05,0.000192417 0.000284546,0.00030977 2.91857e-05,0.000136931 -0.000167655,0.000141907 -6.12474e-05,0.000173218 -0.000929345,0.000500825 -0.000353,5.15112e-05 0.000204087,0.000187798 -5.18615e-05,0.000325092 0.000203143,3.19858e-05 -2.30473e-05,-0.000192199 0.000122033,-2.40961e-05 0.000167564,-0.000263452 0.000264207,-0.000156983 0.000406523,-3.54338e-06 0.000234267,0.000191437 0.000150155,2.37392e-05 0.000563191,-0.00018732 0.000266904,2.98996e-05 0.000184447,9.6485e-05 2.99421e-05,0.00012771 -9.50668e-06,0.000106956 -0.000161266,7.14897e-05 -7.74038e-05,0.000224415 0.00014245,8.97422e-05 9.26191e-05,-0.000104523 0.000198754,7.80234e-05 -0.000179729,-0.000194826 0.000103576,-0.000221891 0.000109805,3.43754e-05 0.000141662,0.000198296 8.28371e-05,0.00030067 -0.000162899,0.000430405 -0.00041261,0.000195394 -1.83129e-05,8.13835e-05 0.000267604,0.000220665 0.000420374,2.14979e-05 0.000685868,-0.000255698 3.73584e-05,0.000267619 -0.000136296,1.5003e-05 -2.02008e-05,0.000115788 -0.000301738,2.97238e-05 -0.000355289,0.000166193 -0.000159151,-8.98323e-05 -0.000341148,2.16409e-06 -0.00037688,-0.000334417 -4.80913e-05,-0.000211626 0.000126157,-0.000288001 0.000286513,-0.000109591 -0.000443131,-6.20241e-05 -0.000183699,-0.0002693 -0.00076813,0.000113298 -0.000232911,-6.39498e-05 -0.000192812,0.000314136 0.00037493,-3.71678e-05 8.36359e-05,8.70396e-05 -7.47496e-05,0.000555784 0.000128255,0.000254325 0.000573817,0.000130357 0.000561082,0.000320012 0.000603283,-0.000132311 0.000397306,-0.000286074 0.000244469,6.01552e-05 -2.95344e-05,0.000252693 -0.000192474,0.00026974 0.000182642,8.83118e-05 0.000191738,0.000276628 -3.78967e-05,0.000152496 -0.000147524,0.00011981 -0.000184741,6.57188e-05 -0.000605866,-0.000120206 -2.46674e-05,0.000383258 -0.000253692,4.42466e-05 -0.000992901,-0.000262924 -0.000225861,0.000129075 -0.000243909,-5.09026e-05 -8.32142e-06,6.45138e-05 0.000485179,8.95243e-05 0.000155286,0.000104429 2.24983e-05,0.00031207 -0.000223216,0.000128792 0.000343926,0.000278896 0.000181949,-4.40375e-06 0.000389128,-0.000183466 0.000937934,-9.08403e-05 0.00015105,0.000477924 -5.03922e-06,9.35855e-05 -0.000113118,5.95082e-05 -0.000141479,-0.00026074 -0.000723744,6.10622e-05 -0.00071764,0.000160233 -0.000347768,-8.69831e-05 -0.000106506,-0.000227325 -0.000366449,1.09453e-06 -0.000177653,-8.74419e-05 -4.93244e-05,-0.000174776 0.000107512,-0.00020633 0.000450816,-0.000102946 -0.000571021,-0.00014989 -1.69306e-05,-0.000265607 0.000151056,-0.000317253 0.000235738,-1.1988e-05 8.02646e-05,6.68271e-05 0.000145591,-0.000129544 0.000288726,-7.77058e-06 0.000465911,0.000106105 0.000320731,0.000180028 8.51628e-05,-7.55393e-05 5.97514e-05,-0.000304297 0.000234527,-3.91985e-05 0.000448155,0.000103954 9.58028e-05,-5.47768e-05 -0.000236097,-0.000135203 -4.91189e-05,-0.000181152 -0.000805068,0.000199954 -0.000390066,-0.000293872 -0.000873558,-0.00022347 -0.00036627,-0.000389131 -2.32345e-05,-0.000304398 -0.000605013,0.000392662 -0.000362984,0.000148792 -0.000150574,-9.21256e-06 0.000178172,0.000270275 -5.71964e-05,0.000230975 -0.000189005,0.000115416 -0.000539405,8.74804e-05 8.19552e-05,0.000253101 -0.000132639,0.000199657 -0.000611289,3.71388e-05 -9.69526e-05,0.000195889 -0.000203691,0.000104328 -0.000314231,9.33683e-05 -0.000155307,-3.22552e-05 2.55674e-05,0.000274199 -0.000153086,0.000243806 -0.000675263,0.000245784 4.70021e-05,0.00021292 0.000400714,-8.08547e-05 0.000352678,-0.000153725 4.05543e-05,-0.000114033 0.000283902,-0.000201437 0.000997985,-0.00027992 0.000576698,3.11005e-05 0.000236471,8.97624e-05 6.28854e-05,0.000508179 0.000612422,-2.79575e-05 0.000294506,0.000169663 2.01242e-05,0.000297927 -0.000137571,9.2538e-05 -0.000228363,2.47862e-05 2.24111e-05,0.000146072 -7.69053e-05,0.000130043 -0.000312002,6.5485e-05 0.000219409,0.000156013 0.000554496,3.18468e-05 0.000250476,0.000226454 4.43036e-05,0.00020163 -0.000207711,0.000280813 -0.000715892,6.90304e-05 -0.000295842,0.000155255 0.000424477,9.09271e-06 0.000393537,0.000155769 0.000295909,4.2278e-06 0.000129006,0.000106126 4.66692e-05,0.000267533 -0.000189092,0.000171434 0.000144562,7.64282e-05 0.000745512,2.05278e-05 0.000172033,0.000110626 2.15345e-05,0.000198392 -5.47933e-05,0.00018098 -0.000359239,0.000164367 -0.000956579,-0.000135692 0.000245159,0.000608984 0.000689241,-3.81132e-05 0.000191366,0.000355261 -0.000169675,0.000229746 -0.000395599,0.000177128 -0.000327613,5.51447e-05 -0.000413412,-3.39511e-05 -0.000222826,0.000259837 7.25985e-05,6.37338e-05 1.51439e-05,0.000202956 0.000417853,-0.000349222 0.000873703,-2.38448e-05 0.000625673,-0.000259673 0.000327578,-2.85879e-06 0.00017005,0.000251608 -6.7195e-05,0.000205959 -0.000494491,0.000197821 -1.24283e-05,0.000221166 -0.000383206,0.000183606 -0.000187731,0.000217763 -0.000463853,0.000145086 0.000229849,6.42259e-05 0.000347432,-0.00019872 -2.35528e-05,-4.13112e-05 0.000361882,-6.87297e-05 0.000336979,0.000115817 7.37769e-05,0.000265107 0.000266313,-9.78716e-05 0.000242571,5.28654e-05 0.000164094,-0.000338404 0.00041011,-0.000263397 0.000319586,5.84924e-05 9.38888e-05,0.000195272 -0.000168485,0.000314063 -0.000123689,-4.72104e-05 -9.18685e-06,-0.000175686 -0.000118158,3.9148e-05 7.95831e-06,0.000166307 -0.000197545,5.04372e-05 -0.000204142,0.000443788 -0.000158376,2.76171e-05 -0.000176137,-0.000206428 -0.000162577,8.40082e-05 -0.000189819,0.000288096 -0.000119404,0.00043044 -0.000181953,-0.000521482 5.03021e-05,-0.000114629 -0.000124461,1.29922e-05 3.77733e-05,0.00034272 -0.000400571,6.71756e-05 -3.19768e-05,0.000446572 0.000228107,-0.000153262 0.000174123,1.61011e-05 0.000220109,0.000162426 0.00017277,-0.000183666 0.000131001,4.36321e-05 0.000207389,0.00011326 1.08957e-06,0.000104401 -0.000187921,0.000224759 0.000676913,-0.000114271 0.000214211,0.000202719 -0.000117442,0.000229878 6.74955e-05,4.55748e-05 0.000436925,-0.000284763 0.000218466,5.17818e-05 0.000150179,-7.04954e-05 0.000215136,2.31345e-05 0.000265862,-0.000224852 0.000472225,-2.59065e-05 0.000106959,0.00010814 7.5998e-06,0.00025206 0.000210353,5.73084e-05 4.27224e-05,0.000135289 0.000294828,-1.19729e-06 0.000276303,-0.000150046 0.000330052,-0.000236945 3.90839e-05,-0.000128587 0.000226696,-0.000214227 0.000296201,3.66117e-05 0.000187621,0.000247897 1.14591e-05,0.00021907 0.000418447,-0.000188723 0.000883013,0.00224966 0.000462867,-0.000106967 0.00124903,-0.000366194 0.00114436,-0.000436853 0.00476647,-0.00211667 0.00150229,-0.0010233 0.00529262,-0.0044073 -0.00715845,-0.0158938 z "/>
<path d="M 0.0932656,0.0693817 l 0.00100494,-0.00420655 -0.0029302,-0.000553272 -0.000723991,-0.00387153 -0.00411718,-0.000590933 0.000739466,0.00848942 0.000203597,0.000116707 0.00434668,0.000238431 0.00147669,0.000377724 z "/>
<path d="M 0.100946,0.0604066 l -0.00235621,-0.00324592 -0.00251137,0.00104566 -0.00369753,-0.00139439 -0.00176405,0.00393847 0.000723991,0.00387153 0.00629804,0.0011891 0.00268251,-0.00386309 -0.00409007,-0.000622908 0.000195253,-0.0004771 0.00451943,-0.000441355 z "/>
<path d="M 0.0386444,0.0571019 l 0.00299225,-0.00265324 0.00115467,-0.000839126 0.0105996,-0.00545704 0.000117286,-0.000181641 -5.15349e-05,-0.000149054 -0.00377466,-0.00438054 -0.000544573,-0.000977763 -0.000350911,-0.00113301 -0.00051717,-0.000870886 -0.000524818,-0.000683556 -0.00454095,-0.00297452 -0.00116965,-0.000444585 -0.00182418,-0.000233568 -0.00136975,0.000181011 -0.000812202,0.000202245 -0.00109208,0.000402629 -0.00117697,0.000596382 -0.0130604,0.00961023 -0.0015883,0.00102438 -0.00288174,0.00122316 -0.0182284,0.00729888 0.00769301,0.0107836 0.004103,0.0054426 0.00340469,0.000953001 -0.000639731,-0.00194716 -6.73718e-05,-0.000805939 0.000108614,-0.000546839 0.000240415,-0.000531629 0.000362259,-0.000475027 0.000386272,-0.000336917 0.000601205,-0.000335758 0.0166354,-0.00696564 0.000811709,-0.000480892 0.000826851,-0.000611322 0.00417812,-0.00370248 z "/>
<path d="M 0.0806239,0.0966113 l -0.000468302,0.00038783 -0.000733866,0.000422696 -0.00118235,0.000520962 -0.0012481,0.000371268 -0.00129129,0.000214864 -0.00131115,5.4577e-05 -0.00130731,-0.000106697 -0.00127984,-0.000266043 -0.00158479,-0.000544555 -0.000747384,-0.000124144 0.0014305,-0.000793322 0.00137153,-0.000876038 0.00130685,-0.000955103 0.00123673,-0.00103019 0.00335955,-0.003324 0.00160061,0.00143853 0.000622644,0.000282106 0.00215016,0.000661779 0.000290585,0.000200573 0.000185192,0.000286611 0.000150354,0.000440456 -8.83451e-05,0.000289371 -0.00246198,0.00244847 z "/>
</g></g></svg>