<?xml version="1.0" encoding="UTF-8" standalone="no"?>
<svg
   width="1280"
   height="720"
   overflow="hidden"
   version="1.1"
   id="svg21"
   sodipodi:docname="Public Golf - 11.svg"
   inkscape:version="1.1.2 (b8e25be833, 2022-02-05)"
   xmlns:inkscape="http://www.inkscape.org/namespaces/inkscape"
   xmlns:sodipodi="http://sodipodi.sourceforge.net/DTD/sodipodi-0.dtd"
   xmlns="http://www.w3.org/2000/svg"
   xmlns:svg="http://www.w3.org/2000/svg">
  <sodipodi:namedview
     id="namedview23"
     pagecolor="#ffffff"
     bordercolor="#666666"
     borderopacity="1.0"
     inkscape:pageshadow="2"
     inkscape:pageopacity="0.0"
     inkscape:pagecheckerboard="0"
     showgrid="false"
     inkscape:zoom="0.75694444"
     inkscape:cx="640.07339"
     inkscape:cy="359.33945"
     inkscape:window-width="1366"
     inkscape:window-height="705"
     inkscape:window-x="-8"
     inkscape:window-y="-8"
     inkscape:window-maximized="1"
     inkscape:current-layer="svg21" />
  <defs
     id="defs5">
    <clipPath
       id="clip0">
      <rect
         x="0"
         y="0"
         width="1280"
         height="720"
         id="rect2" />
    </clipPath>
  </defs>
  <rect
     x="0"
     y="0"
     width="1280"
     height="720"
     fill="#ffffff"
     id="rect7" />
  <path
     d="M 442.167,699 400.613,603.431 C 399.409,522.288 398.204,441.143 397,360 c 0.602,-22.24 1.204,-44.478 1.806,-66.718 l 153.569,-63.112 -3.613,-7.213 23.487,-48.686 57.814,-21.638 39.748,-50.49 -3.614,-19.8349 61.428,-32.457 9.033,-28.8511 23.487,7.2128 -5.42,46.8826 28.907,1.8037 -3.613,23.4409 37.94,55.9 27.101,1.803 v 14.425 l -45.167,-5.41 v 19.836 l -12.648,21.638 45.168,-3.607 32.52,-30.654 18.067,12.623 -28.907,28.851 -5.42,27.048 -1.807,10.819 18.067,37.866 -7.226,12.623 -19.874,-3.606 37.94,46.882 -27.1,7.213 -48.78,-5.41 -16.261,9.017 -7.227,21.638 -90.334,28.851 -7.227,19.835 -23.487,18.032 -25.294,25.244 -27.1,68.522 z"
     fill="#44546a"
     fill-rule="evenodd"
     fill-opacity="0.0588235"
     id="D11-PublicGolf" />
  <path
     d="m 617.762,165.048 -13.311,2.571 -9.082,11.275 -13.189,4.917 -3.466,13.254 -12.114,24.34 -7.487,20.013 -9.983,-9.172 -14.142,12.508 -28.284,16.678 -24.957,7.505 -22.877,8.182 -10.294,-4.743 -4.576,12.457 4.679,8.651 0.208,5.941 6.916,13.916 3.067,7.192 14.09,2.815 6.136,-4.378 18.457,5.837 16.014,7.87 11.803,6.358 9.358,-3.7 14.143,-21.838 11.646,-2.554 8.059,3.232 8.839,8.078 4.783,3.179 0.78,7.557 c 0.087,4.17 0.173,8.339 0.26,12.509 l -2.392,8.547 -7.643,14.958 -11.854,10.006 -5.355,11.831 -0.572,3.909 -6.083,4.951 c 0.017,1.876 0.034,3.752 0.051,5.629 l -2.651,4.169 c -0.451,0.634 1.785,0.843 1.768,5.629 0.208,1.025 -5.148,3.709 -5.46,7.557 -0.312,3.848 0.746,10.293 1.768,14.749 h 5.147 l 8.683,6.567 11.127,-4.326 9.775,-1.511 9.046,5.055 17.366,-17.355 23.657,-7.765 h 15.182 l 15.91,8.443 8.423,6.879 10.607,-8.547 2.495,-0.834 12.288,-14.297 16.534,-9.971 15.685,-12.422 36.187,-5.838 3.328,-9.173 -7.488,-12.508 -6.291,-6.463 40.919,-29.186 -1.82,-10.84 -10.346,-16.052 v -8.339 l -9.151,-10.007 -2.496,-11.674 5.823,-4.17 8.319,-13.342 -4.991,-10.84 -10.815,-7.505 -9.982,-5.003 -26.621,-7.505 0.832,-20.014 16.638,-10.84 18.301,5.003 14.974,-2.501 20.798,-8.339 L 817,172.206 c -1.386,-5.281 -1.498,-11.079 -4.159,-15.844 -1.466,-2.623 -7.487,-5.003 -7.487,-5.003 l -0.78,-6.202 c -8.735,-14.009 -3.84,-6.767 -9.203,-12.143 v 0 c -2.953,-3.947 -4.996,-5.849 -6.655,-10.007 -0.103,-0.258 0,-0.556 0,-0.834 l -1.664,-5.003 c 0.277,-1.112 -7.349,-12.995 -6.655,-13.342 -2.219,-3.058 -4.957,-9.5379 -6.343,-10.5803 6.984,-2.3452 8.769,-12.7166 9.982,-10.8926 -12.652,-11.7959 -56.534,-10.3887 -56.88,-10.215 -8.319,-0.139 -7.817,5.9935 -9.983,8.3389 -1.109,1.8068 -15.668,-2.1889 -14.974,-1.6677 -2.357,0.1389 -15.979,14.4887 -15.806,15.0099 -3.189,3.1965 -16.777,25.8158 -17.47,26.6838 -3.327,4.17 -11.127,23.697 -11.646,23.349 -1.941,4.031 -5.928,1.546 -21.63,8.339 -3.605,2.085 -6.655,24.982 -6.655,25.85 z"
     fill="#a6a6a6"
     fill-rule="evenodd"
     fill-opacity="0.698039"
     id="11b-GolfCourse" />
  <path
     d="m 579,309.167 8.84,-17.953 10.2,-6.214 13.6,3.452 1.36,9.667 -9.52,8.286 -9.52,7.595 z"
     fill="#a6a6a6"
     fill-rule="evenodd"
     fill-opacity="0.698039"
     id="11b-Clubhouse" />
  <path
     d="m 670,440.958 -12.262,-12.933 -15.908,-7.959 -15.576,-0.331 -22.205,7.627 -17.234,15.918 -14.25,17.244 -8.286,12.933 5.303,10.612 20.216,15.586 32.147,-21.224 13.257,-10.28 c 0.607,3.814 0.262,5.776 0.331,5.638 0.166,0.884 -27.314,70.704 -27.176,70.635 1.602,-18.295 1.782,-18.709 1.989,-18.571 0.386,-3.04 -6.698,-26.93 -6.629,-26.861 -6.517,1.437 -21.155,4.048 -20.879,3.979 l -3.645,-7.959 c -0.552,-1.271 -17.634,-13.997 -17.565,-13.928 -3.148,5.14 -6.352,11.483 -6.628,11.275 -1.215,1.99 -19.747,13.79 -19.885,13.928 3.756,13.928 20.078,89.538 20.216,89.538 l -83.516,79.257 c -7.788,-31.007 -10.329,-39.062 -10.605,-39.131 13.312,-22.495 29.965,-49.937 29.827,-50.075 l 55.015,-12.601 c 4.695,14.48 7.167,24.54 6.959,24.54 -12.041,13.485 -98.167,92.715 -98.098,92.853 -10.771,-20.671 -14.181,-27.856 -14.25,-27.856 5.357,-5.361 16.184,-11.869 15.907,-11.938 -0.165,-6.854 -1.726,-18.101 -1.657,-18.239 -0.331,-2.985 10.675,-22.951 10.606,-22.882 1.878,-3.758 8.478,-9.355 8.616,-9.286 1.657,-1.713 13.063,-17.106 12.925,-17.244 -4.142,-2.763 -17.564,-11.081 -17.564,-10.943 -7.568,2.155 -55.512,12.601 -55.512,12.601 0.11,13.376 0.442,21.348 0.166,21.556 -0.166,3.039 27.189,56.209 26.844,56.209 -2.099,2.1 0.207,-0.829 0,-0.829 -0.884,0.498 -26.306,-54.911 -26.513,-55.049 -0.552,-13.209 0.138,-27.787 0,-27.856 9.224,-1.382 54.089,-12.201 54.02,-12.27 -4.695,-20.616 -10.467,-45.432 -10.605,-45.432 l -43.415,11.939 c -1.767,-12.491 -1.118,-47.56 -1.326,-47.422 15.024,-3.869 39.439,-7.696 39.439,-7.627 13.09,-18.46 25.988,-34.558 25.85,-34.489 -3.093,-15.807 -17.427,-66.849 -17.565,-66.987 0.166,-16.47 0.193,-23.213 0.331,-23.213 0.166,-4.035 4.833,-24.996 4.971,-25.204 -1.657,-0.939 -6.421,-0.925 -6.628,-0.994 -1.325,-0.056 -6.352,-5.113 -6.628,-4.975 -1.049,-0.995 2.251,-6.093 2.32,-6.3 0.055,-1.051 -6.021,-8.084 -6.297,-8.291 -1.27,-1.492 0.608,-8.152 0.332,-8.29 -0.111,-1.327 -4.433,-4.38 -4.64,-4.311 -0.829,-0.719 -14.513,7.295 -14.582,7.295 -2.431,1.106 -12.926,90.007 -12.926,89.869 -4.529,16.029 -4.902,22.813 -4.971,22.882 -0.718,4.035 1.188,69.032 1.326,69.309 0.165,11.606 0.732,95.106 0.663,95.175 0.055,15.862 -0.097,27.027 -0.166,27.027 5.082,11.33 26.347,54.413 26.347,54.551 4.53,9.009 13.782,29.846 13.92,29.846 18.89,-16.249 101.826,-95.507 101.412,-95.507 16.736,-15.862 53.564,-51.801 53.357,-51.732 8.672,-20.671 26.375,-70.165 26.513,-70.304 0.497,-7.019 0.926,-6.37 0.995,-6.301 0.11,-1.05 25.587,-20.228 25.518,-20.228 z"
     fill="#a6a6a6"
     fill-rule="evenodd"
     fill-opacity="0.698039"
     id="ResidentialBuildingsPhase2" />
  <path
     d="m 572.018,372.571 7.319,-15.218 1.33,-8.932 c 0.111,-6.065 0.222,-12.13 0.333,-18.195 l -4.657,-3.97 -9.315,-6.948 -7.984,-3.308 -11.644,3.308 -13.64,21.835 -8.649,2.977 -6.654,-0.992 -3.992,-5.955 -9.647,-4.962 -9.315,-3.309 -13.64,-4.3 -4.99,6.947 -11.311,-3.308 -1.996,11.578 -1.996,14.226 -0.998,24.151 17.965,64.842 -26.282,35.729 -39.255,7.278 0.333,47.639 44.578,-12.571 -8.982,-41.684 3.16,-0.993 c 0.222,0.827 19.933,89.985 19.794,89.985 3.438,2.04 6.862,3.832 6.654,3.97 1.109,0.662 32.934,-57.564 32.934,-57.564 11.367,-7.664 16.024,-9.525 16.301,-9.594 -3.437,-17.424 -14.429,-65.904 -14.637,-65.835 l -9.98,2.647 c -1.83,0.276 -33.462,41.16 -33.601,41.023 -5.71,1.929 -15.413,4.066 -15.136,4.135 3.271,15.108 17.396,81.949 17.465,81.88 13.418,8.16 18.699,10.848 18.63,10.917 l 53.893,-11.579 c -6.155,-22.993 -14.097,-59.273 -14.305,-59.549 -9.592,5.018 -15.774,6.879 -15.636,6.948 -2.384,4.245 -33.794,59.162 -33.932,58.887 -5.489,-4.191 -8.192,-6.148 -7.985,-6.286 -1.552,-1.103 -20.348,-89.916 -20.625,-89.985 21.901,-26.466 26.544,-35.398 26.614,-35.398 11.2,-8.271 14.831,-9.994 14.97,-9.925 2.384,-1.599 19.766,-5.032 19.628,-4.963 -2.551,-15.107 -15.179,-73.705 -14.971,-73.774 -1.441,-2.923 -3.063,-5.431 -2.994,-5.293 -0.665,-1.103 -0.124,-20.236 -0.332,-20.512 l 9.98,3.639 c -1.22,7.168 -0.056,21.904 -0.333,21.835 -0.055,3.749 7.652,38.9 7.652,39.038 4.435,6.506 6.445,13.233 6.653,13.233 4.713,-0.607 9.856,-0.662 9.648,-0.662 1.22,-0.276 15.982,-4.301 15.635,-4.301 0.111,-2.205 1.4,-7.871 1.331,-7.94 0.166,-1.213 12.711,-10.724 12.642,-10.586 2.162,-1.82 6.916,-3.57 6.986,-3.639 z"
     fill="#a6a6a6"
     fill-rule="evenodd"
     fill-opacity="0.698039"
     id="ResidentialBuildingsPhase1" />
</svg>
