<?xml version="1.0" encoding="UTF-8" standalone="no"?>
<svg
   width="1280"
   height="720"
   overflow="hidden"
   version="1.1"
   id="svg95"
   sodipodi:docname="Resort Core - 1.svg"
   inkscape:version="1.1.2 (b8e25be833, 2022-02-05)"
   xmlns:inkscape="http://www.inkscape.org/namespaces/inkscape"
   xmlns:sodipodi="http://sodipodi.sourceforge.net/DTD/sodipodi-0.dtd"
   xmlns="http://www.w3.org/2000/svg"
   xmlns:svg="http://www.w3.org/2000/svg">
  <sodipodi:namedview
     id="namedview97"
     pagecolor="#ffffff"
     bordercolor="#666666"
     borderopacity="1.0"
     inkscape:pageshadow="2"
     inkscape:pageopacity="0.0"
     inkscape:pagecheckerboard="0"
     showgrid="false"
     inkscape:zoom="0.75694444"
     inkscape:cx="640.0734"
     inkscape:cy="359.33945"
     inkscape:window-width="1366"
     inkscape:window-height="705"
     inkscape:window-x="-8"
     inkscape:window-y="-8"
     inkscape:window-maximized="1"
     inkscape:current-layer="svg95" />
  <defs
     id="defs5">
    <clipPath
       id="clip0">
      <rect
         x="0"
         y="0"
         width="1280"
         height="720"
         id="rect2" />
    </clipPath>
  </defs>
  <rect
     x="0"
     y="0"
     width="1280"
     height="720"
     fill="#ffffff"
     id="rect7" />
  <path
     d="m 853.742,85.805 c 0.148,0.0736 0.667,-6.6597 2.222,-8.4355 1.555,-1.7759 6.738,-4.143 7.997,-8.8777 -0.963,-4.7346 -1.555,-12.9459 -0.889,-17.3107 l 4.443,-5.7707 c 9.329,0 4.443,2.2197 7.997,0.4442 l 8.439,2.6654 7.998,-2.6655 c 5.331,2.368 3.553,0.7415 7.551,1.7779 l -1.777,6.6581 2.222,14.6478 4.886,19.5304 10.663,2.2193 38.65,-64.3615 8.441,-5.3265 15.104,9.7651 v 2.6633 l -15.104,23.0814 -29.321,37.729 7.108,11.0972 h 7.108 l 37.317,-14.648 17.323,-30.1834 23.99,-9.7651 c 0.15,7.3978 0.3,14.7958 0.45,22.1936 l 4.44,2.6633 -9.77,22.1935 2.66,6.2141 0.45,7.546 5.77,4.883 c 0,6.51 0,13.02 0,19.53 l -8.44,2.663 -3.55,6.658 -6.22,3.551 -15.108,2.664 -7.108,4.438 -7.552,7.99 c -1.407,1.258 -7.367,13.409 -7.552,13.316 -1.037,2.22 -0.278,6.214 0,6.214 -0.075,1.258 -2.296,10.117 -2.666,10.209 -0.37,1.628 -9.422,14.297 -9.329,14.204 -1.481,2.516 -11.199,4.698 -11.107,4.883 -1.629,0.813 -8.274,-1.332 -7.996,-1.332 -1.333,-0.148 -3.11,2.127 -3.11,2.219 -0.74,0.518 -17.937,-1.072 -18.215,-0.888 -3.035,-0.074 -14.66,15.443 -14.66,15.536 0.888,3.995 3.739,10.116 3.554,10.209 0.518,1.701 -1.684,2.663 -1.777,2.663 -0.222,0.296 1.24,13.057 1.333,12.872 0.222,2.22 2.221,5.678 2.221,5.771 -2.814,4.512 -5.683,21.749 -5.775,21.749 3.776,5.105 10.736,16.239 11.106,16.424 1.777,2.515 -1.592,13.501 -1.777,13.316 -0.222,2.145 -3.646,4.531 -3.554,4.438 -0.962,1.036 -84.834,38.247 -85.297,38.617 -14.068,6.51 -12.18,5.234 -11.995,5.327 -2.221,0.813 -9.496,7.194 -9.774,7.101 -1.48,1.406 -3.479,7.898 -3.109,7.99 -0.666,1.48 -6.923,8.693 -7.108,8.878 -1.185,1.627 0,7.804 0,7.989 -0.222,1.48 5.609,15.794 5.331,15.979 -1.629,4.069 -2.85,11.005 -2.665,11.097 -0.445,1.997 -8.441,14.463 -8.441,14.648 -1.481,2.441 -7.904,9.062 -7.997,8.877 -1.407,1.258 -17.678,8.267 -17.77,7.99 -3.11,1.109 -10.921,0.721 -11.106,0.443 -1.926,0.074 -8.793,-3.273 -8.885,-3.551 -1.629,-0.665 -6.035,-1.682 -6.22,-1.775 -1.036,-0.518 -14.216,0.721 -14.216,0.444 -2.665,0.37 -8.07,7.62 -8.441,7.989 -2.073,1.258 -18.843,11.634 -18.658,11.541 -2.962,1.998 -7.738,12.336 -7.553,12.429 -1.11,2.071 -5.071,-1.332 -4.886,-1.332 -1.185,-0.148 -3.462,-7.638 -3.554,-7.546 -0.518,-1.332 -48.516,0.536 -48.424,0.444 l -27.987,3.107 c -10.292,11.023 -4.536,6.917 -18.659,22.638 -5.554,2.663 -36.966,-3.459 -36.874,-3.552 -7.404,-3.551 -20.083,-6.843 -19.991,-6.658 -3.11,-1.035 -18.122,-3.199 -18.214,-3.107 -3.258,-0.666 -28.507,14.74 -28.877,14.648 -5.035,2.663 -28.802,34.437 -28.432,34.622 -4.887,5.918 -18.474,24.228 -18.659,24.413 -2.813,4.217 -14.031,5.77 -14.216,5.77 -2.295,1.035 -4.535,5.678 -4.443,5.77 -1.11,1.036 12.014,23.877 11.551,23.969 2.073,4.217 4.258,16.59 4.443,16.867 -9.478,5.475 -27.989,21.75 -27.544,24.413 -4.591,3.847 -10.051,21.306 -9.774,21.306 -1.851,3.551 -21.046,15.536 -21.324,15.536 -3.332,2.737 1.943,1.146 2.221,1.331 0.296,0.518 40.613,-15.628 40.428,-15.535 6.886,-2.59 33.578,-2.219 33.763,-2.219 l 34.652,8.877 c 19.103,-0.444 67.971,7.287 67.971,7.102 l 21.769,17.755 c 3.776,3.107 12.698,-6.4 12.883,-6.215 2.147,-0.74 8.181,0.259 7.996,0.444 1.481,0.148 19.899,7.805 19.992,7.99 6.664,2.589 16.141,6.14 19.992,7.546 3.85,1.405 6.589,2.071 7.107,2.219 1.407,0.37 -5.145,-15.092 -5.33,-15.092 -0.963,-2.737 -1.685,-8.156 -1.777,-8.434 -0.593,-1.479 19.473,-13.223 19.103,-13.315 3.109,-2.146 12.975,-9.414 12.883,-9.322 1.11,-10.653 8.996,-25.56 8.44,-25.745 1.852,-4.439 27.082,-5.419 27.545,-5.326 6.886,3.699 41.667,30.886 41.759,31.071 7.701,5.918 8.275,11.097 7.997,11.097 2.221,3.847 6.571,13.501 6.664,13.316 0.962,2.071 7.293,-24.949 7.108,-24.857 -6.812,-7.989 -13.327,-17.94 -13.327,-17.755 -2.296,-3.255 -3.018,-6.288 -3.11,-6.658 -0.445,-3.033 4.424,-39.486 4.887,-39.948 0.74,-6.954 11.198,-26.263 11.106,-26.633 1.851,-4.512 -7.997,-80.692 -7.997,-80.785 -7.552,2.368 -13.772,4.18 -13.772,3.995 -2.295,0.222 -33.763,2.331 -33.763,1.776 -5.701,0.592 -19.899,-7.472 -19.992,-7.102 -3.257,-1.48 7.46,-14.722 7.553,-15.092 1.258,-2.293 21.768,-11.374 21.768,-11.097 3.85,-1.923 13.939,-1.683 14.216,-1.775 2.148,-0.222 10.94,3.902 10.663,3.995 1.851,0.739 1.24,7.009 1.332,7.101 0.223,1.406 -34.744,10.487 -34.652,10.21 -5.405,1.479 21.232,-2.664 21.325,-2.664 3.554,-0.592 11.995,-3.366 11.995,-3.55 2.221,-0.592 19.269,-0.001 19.547,-0.001 3.11,3.773 7.737,15.702 7.552,15.98 1.481,2.737 8.608,75.81 8.885,75.902 -2.961,23.525 -4.35,50.768 -4.442,51.045 4.442,5.105 12.18,14.463 11.995,14.648 1.629,2.737 4.813,23.525 4.442,23.525 0.889,3.995 -4.183,3.015 -3.998,3.108 -0.889,0.444 -0.611,4.975 -0.889,4.882 -0.222,0.814 -13.679,37.286 -13.771,37.286 -12.884,-0.37 -22.75,-1.868 -22.658,-1.776 -3.776,-0.37 -1.333,-7.453 -1.333,-7.546 -0.222,-1.257 -46.202,-44.831 -46.202,-44.831 l -15.549,6.214 c -2.665,1.036 -5.942,8.952 -6.219,9.322 -1.333,1.775 -3.554,16.515 -3.554,16.423 -1.037,3.477 -6.646,9.488 -7.108,9.765 -1.407,0.814 -10.755,15.461 -10.663,15.092 -0.074,3.624 -0.796,18.365 -0.888,18.642 -2.666,1.184 -9.959,3.181 -9.774,3.551 -1.703,0.444 -32.782,-11.799 -32.875,-11.984 -6.886,-5.179 -15.012,-11.116 -15.104,-10.653 -2.592,-1.924 -7.016,1.072 -7.108,0.888 -1.407,0.148 -15.087,9.839 -15.55,10.208 -2.517,1.554 -9.421,-2.034 -9.329,-2.219 -1.406,-0.444 -48.164,-21.657 -47.979,-21.75 -8.145,-3.773 -18.474,-6.473 -18.659,-6.658 -3.48,-1.109 -12.421,-0.444 -12.883,-0.444 -1.999,-0.222 -8.626,5.956 -8.441,5.771 -1.481,1.035 -19.011,5.234 -19.103,5.326 -3.332,0.814 -16.697,-5.234 -16.882,-5.326 -2.739,-0.888 -38.299,6.658 -38.206,6.658 -6.516,1.035 -6.923,-2.571 -7.108,-2.663 -1.111,-0.666 -32.079,-0.611 -31.986,-0.888 -5.776,-0.074 -18.826,4.513 -19.103,4.883 -1.925,-4.957 -2.851,-11.911 -2.666,-11.541 -0.222,-1.998 17.493,-10.561 17.771,-10.653 2.961,-1.701 18.214,-15.351 18.214,-15.536 3.11,-10.061 7.46,-19.345 7.552,-19.53 1.333,-3.403 11.459,-18.458 11.551,-18.643 1.925,-2.885 14.66,-8.267 14.66,-7.989 -0.148,-4.735 -0.296,-9.47 -0.444,-14.204 0.074,-2.442 -7.737,-11.449 -7.552,-11.541 -1.481,-1.85 -11.717,-8.082 -11.995,-7.99 -2.147,-1.11 -10.477,-21.139 -9.774,-22.194 -1.629,-3.994 -8.885,-14.277 -8.885,-14.647 -1.406,-2.367 -4.091,-8.97 -3.998,-8.878 -0.888,-1.923 -12.606,-12.761 -12.884,-13.316 -2.147,-2.145 -15.993,-12.077 -15.993,-11.985 -2.665,-2.071 -15.549,-17.218 -15.549,-17.31 -2.591,-3.107 -12.975,-11.8 -12.883,-11.985 -2.295,-1.998 -11.365,-10.653 -11.55,-10.653 -1.703,-1.923 -16.715,-29.555 -16.438,-29.739 -2.813,-5.179 -5.683,-20.585 -5.775,-20.863 L 281.1,394.293 c -0.222,-2.515 2.036,-32.403 2.221,-32.403 0.222,-5.474 -2.924,-14.999 -3.109,-15.092 -0.371,-2.663 -3.74,-15.35 -3.555,-15.535 -0.962,-2.885 -14.197,-12.503 -14.66,-12.872 -2.517,-2.368 0.537,-7.713 0.445,-7.99 -0.296,-1.258 100.142,-109.285 99.957,-109.193 1.481,-8.359 12.088,-11.189 11.995,-11.097 1.777,-1.923 7.83,-7.453 7.552,-7.546 1.037,-1.479 12.717,-5.493 12.439,-5.77 2.74,-1.036 13.328,-7.028 13.328,-6.658 1.925,-1.11 35.91,-2.663 35.54,-2.663 17.77,3.994 71.155,10.209 71.525,10.209 1.037,-6.288 1.167,-11.985 0.889,-11.985 l 40.427,4.439 c 6.442,-3.773 10.922,-7.01 11.107,-7.102 1.554,-1.332 5.701,4.624 5.331,4.439 1.11,0.813 71.247,3.015 71.525,3.107 11.624,0.444 17.696,-7.454 17.326,-7.546 2.961,-1.036 7.904,-7.823 15.104,-15.979 1.259,-3.551 4.795,-22.638 4.887,-22.638 0.741,-3.847 17.419,-3.902 17.326,-3.995 2.74,-0.444 5.072,3.274 4.887,3.551 1.036,0.518 7.719,-4.346 7.997,-4.438 0.962,-0.592 17.344,0.702 16.881,0.887 3.11,0 17.4,-8.249 17.77,-8.433 3.184,-1.184 10.662,1.498 10.662,1.775 1.481,0.222 3.48,-3.014 3.11,-3.107 0.667,-0.592 14.457,-0.351 15.105,-0.444 2.221,0 8.811,-6.306 8.441,-6.214 8.515,-4.5127 12.68,-2.034 13.328,-2.219 2.073,-0.074 14.845,3.624 14.66,3.994 2.666,0.74 23.268,-4.531 23.546,-4.438 z"
     fill="#44546a"
     fill-rule="evenodd"
     fill-opacity="0.0588235"
     id="D12-ResortCore" />
  <path
     d="m 718.377,453.325 -29.622,3.239 -29.621,-1.031 h -53.938 l -12.38,-2.65 -17.39,9.423 5.011,10.011 -7.074,10.6 -12.379,-1.767 -21.221,-9.717 -16.801,-4.416 -13.558,-3.239 -22.401,9.128 -21.221,10.305 -23.874,35.039 -10.317,20.906 c -11.986,6.281 -24.562,9.029 -40.085,19.433 l 4.127,12.072 13.263,8.539 7.074,9.717 v 15.9 l -15.032,8.833 -10.611,16.783 -6.189,14.134 c -2.799,7.456 -0.873,5.287 -3.537,7.95 l -15.032,13.25 -18.569,10.6 1.768,11.483 17.685,-5.3 36.254,1.767 4.421,3.533 40.674,-7.067 9.727,4.417 22.106,-2.65 10.611,-6.183 11.494,-0.884 26.527,8.834 38.022,17.666 13.264,2.65 13.263,-9.716 7.074,-1.767 16.801,12.367 30.063,11.483 11.496,-4.417 0.884,-17.666 9.726,-15.9 7.074,-6.184 3.537,-16.783 7.958,-12.367 14.148,-6.183 45.98,45.933 0.884,7.067 22.106,1.767 12.379,-30.034 7.074,-15.016 -4.421,-22.967 -5.305,-7.067 -6.19,-8.833 1.768,-24.733 1.769,-24.734 -8.843,-79.5 -6.189,-12.366 h -19.453 l -15.916,3.533 -20.338,2.65 37.138,-9.717 -0.884,-8.833 -10.611,-2.65 -15.916,0.883 -22.99,13.25 -5.306,12.367 17.685,7.95 34.485,-1.767 15.032,-5.3 8.842,82.15 -11.495,25.617 -5.305,37.984 c -1.032,5.741 15.216,24.585 15.032,23.849 2.505,4.122 -4.421,27.2 -4.421,27.384 0,3.975 -10.795,-18.55 -10.611,-18.55 -1.621,-3.681 -42.627,-32.831 -42.443,-33.567 -7.222,-5.594 -28.996,0.884 -29.18,0.884 -4.716,0.147 -10.795,25.616 -10.611,25.616 -1.768,4.564 -30.063,21.715 -30.063,22.083 -5.011,4.417 6.189,22.93 6.189,23.85 1.179,3.681 -47.933,-15.532 -47.748,-15.9 -7.959,-1.913 -17.685,6.147 -17.685,7.067 -3.537,1.03 -22.253,-18.366 -22.99,-18.55 -3.832,-2.797 -70.739,-9.201 -70.739,-8.833 -11.2,-1.178 -32.569,-8.318 -31.832,-7.95 -5.6,-1.473 -33.232,1.95 -33.601,1.766 -6.632,0.736 -42.037,16.232 -43.327,16.784 -3.831,-0.295 16.948,-12.367 20.337,-18.55 2.506,-2.798 7.774,-20.501 7.958,-20.317 1.916,-3.533 27.559,-24.549 28.296,-24.733 4.568,-4.27 -15.732,-38.683 -15.916,-38.867 1.277,-8.146 14.688,-7.165 21.221,-13.544 2.211,-2.503 17.795,-24.918 17.979,-24.734 3.39,-1.766 24.391,-31.8 24.759,-31.8 6.042,-3.091 27.301,-14.722 27.116,-14.722 2.358,-3.68 17.685,1.215 17.685,1.767 9.137,-1.62 23.506,6.735 23.874,6.183 4.716,2.503 32.533,4.564 32.717,5.3 5.158,0.442 22.474,-22.415 22.106,-22.967 4.274,-3.386 74.423,-5.41 75.159,-4.858 6.853,3.607 4.053,11.852 10.611,9.275 4.79,-6.11 5.379,-8.465 9.727,-13.25 z"
     fill="#a6a6a6"
     fill-rule="evenodd"
     fill-opacity="0.698039"
     id="IconiccliffLoop" />
  <path
     d="m 555.904,212 0.514,20.919 -6.174,18.078 36.528,11.88 23.408,-3.874 55.82,37.964 -12.862,0.258 -35.755,-9.297 -3.602,10.072 -62.25,-19.111 -4.373,10.33 L 506,275.79 l 16.463,-42.355 8.489,3.358 -1.029,-24.276 z"
     fill="#a6a6a6"
     fill-rule="evenodd"
     fill-opacity="0.698039"
     id="WestVillagePrecinct1-North" />
  <path
     d="m 506.805,325 -30.488,-18.085 -5.854,-6.028 -3.902,-3.836 -3.902,-9.865 -1.22,-4.658 -2.439,-6.85 1.219,-5.206 2.196,-9.317 9.268,-24.935 0.732,-5.206 4.39,-3.014 17.073,2.466 25.122,9.864 -11.463,30.964 -1.952,4.658 -2.195,2.192 25.61,21.099 z"
     fill="#a6a6a6"
     fill-rule="evenodd"
     fill-opacity="0.698039"
     id="MusicPark" />
  <path
     d="m 557.521,187.209 26.958,-1.105 15.914,-1.104 27.282,1.841 c 0.108,5.89 0.217,11.781 0.325,17.671 l -0.65,2.578 -0.974,1.472 -37.675,49.702 -3.248,0.736 -4.872,-0.736 -28.581,-11.045 6.171,-17.672 c 0.108,-13.867 0.217,-27.734 -0.65,-42.338 z"
     fill="#a6a6a6"
     fill-rule="evenodd"
     fill-opacity="0.698039"
     id="KidsThemePark" />
  <path
     d="m 299,282.164 49.928,-56.363 15.238,-19.032 12.32,-10.979 10.698,-8.784 17.832,-9.516 15.886,-2.928 11.996,-2.196 10.05,-0.366 77.81,11.712 3.242,4.026 -0.973,24.521 -7.132,20.862 -21.398,-7.686 -17.831,-1.464 -6.484,4.026 -1.946,2.562 -1.621,3.66 -11.671,35.135 -0.649,3.66 0.649,2.562 0.972,3.66 6.485,19.032 -0.973,0.732 -135.195,-10.614 -10.374,-1.098 -9.078,-2.196 h -3.242 z"
     fill="#a6a6a6"
     fill-rule="evenodd"
     fill-opacity="0.698039"
     id="MovieThemePark" />
  <path
     d="m 603,249.412 32.559,-42.878 -1.215,-3.824 -0.972,-5.189 0.729,-3.824 v -2.731 l -0.972,-3.277 4.616,0.546 7.047,-0.819 9.962,-1.092 8.261,-3.824 8.99,-4.37 6.074,-6.008 4.617,-4.643 2.916,-4.916 2.429,-3.823 4.617,-4.097 4.13,-3.551 3.402,-1.092 2.43,0.273 2.187,3.277 7.775,4.916 8.261,6.009 -1.944,3.55 -0.486,6.555 2.916,-0.819 1.215,-2.185 -0.972,3.823 1.458,5.462 0.243,3.551 -0.486,2.731 -1.701,3.004 -0.729,1.366 v 5.735 l 1.701,3.55 -0.243,2.458 -5.103,6.828 0.486,5.462 -2.429,-0.546 -1.701,1.639 v 0 l -0.243,4.642 1.458,0.82 1.701,1.092 1.214,-1.092 0.486,6.554 5.589,12.563 1.943,2.732 h 3.645 l 2.187,0.819 h 3.159 l 5.345,1.912 3.645,1.365 3.401,6.282 0.486,1.911 0.972,2.732 0.729,6.008 L 750,267.983 642.119,280 Z"
     fill="#a6a6a6"
     fill-rule="evenodd"
     fill-opacity="0.698039"
     id="WaterThemePark" />
  <path
     d="m 471.995,326 20.718,12.621 8.287,1.372 -0.975,28.533 -12.674,27.437 v 0 l -2.925,-0.275 v 0 l -2.437,5.213 0.731,1.646 -0.488,1.372 -30.71,21.4 -1.707,1.646 -1.218,1.921 -1.219,2.744 -17.549,35.392 -1.218,1.921 -3.657,2.195 -15.599,8.231 -6.093,1.646 -1.95,-1.372 -7.556,3.841 -0.731,2.744 -5.118,5.213 -26.324,15.638 -4.875,1.921 -0.974,-1.097 -22.424,-20.029 -9.262,-7.133 -6.825,-7.134 -7.556,-11.523 -5.362,-9.328 -5.849,-11.524 -5.85,-12.346 -4.875,-16.462 c 0.081,-2.56 0.163,-5.121 0.244,-7.682 L 287,393.493 l 0.244,-9.328 87.501,-6.859 8.043,-0.275 4.144,-1.097 5.606,-2.469 28.517,-20.303 3.899,-1.921 4.388,-0.274 14.38,0.823 4.631,-1.372 5.606,-3.018 z"
     fill="#a6a6a6"
     fill-rule="evenodd"
     fill-opacity="0.698039"
     id="CulturalThemeParkJanadriyah" />
  <path
     d="M 891.647,199.375 905.75,220 l 7.051,-5.5 2.188,-1.925 h 2.918 l 6.565,-0.825 4.133,-0.825 h 5.349 l 4.62,-0.55 h 5.835 l 6.079,-0.275 3.647,-1.1 4.863,-2.2 2.675,-2.2 2.431,-2.475 1.945,-3.85 1.702,-3.85 1.216,-6.6 2.918,-6.325 2.188,-6.6 3.404,-5.775 5.836,-8.25 5.106,-4.675 5.592,-5.225 6.809,-3.85 12.16,-5.225 5.59,-6.875 1.94,-6.875 0.49,-6.6 -0.73,-10.725 -4.13,-7.15 -5.6,-2.475 -4.37,-2.2 -5.35,0.5499 -9.484,3.3001 -44.252,13.2 -2.675,1.375 -1.215,2.2 -0.973,1.1 -1.945,1.65 -1.702,0.275 -2.431,0.275 -2.918,-1.375 -1.945,-1.1 -1.702,0.825 -2.675,1.375 -2.674,1.65 -3.161,3.3 -7.538,5.775 -6.565,6.875 -5.592,7.425 -4.377,7.15 -2.674,5.225 -2.432,7.15 -3.404,10.175 L 888,184.8 v 7.15 z"
     fill="#a6a6a6"
     fill-rule="evenodd"
     fill-opacity="0.698039"
     id="DiscoveryGardensThemePark" />
  <path
     d="m 764.367,146.767 -1.952,-9.584 0.488,-3.834 1.951,-1.643 3.66,-1.095 9.025,-2.465 10.733,-3.012 9.514,-1.917 12.685,-0.274 10.001,-0.274 10.246,-2.738 11.221,-3.834 9.269,-5.202 7.562,-6.846 6.099,-6.5723 6.83,-4.1074 8.538,-1.3693 7.806,1.9169 5.854,2.4644 6.587,4.9287 7.074,2.739 6.098,4.107 4.635,0.548 5.123,0.274 3.659,0.821 2.195,2.739 0.732,3.286 -2.439,2.738 -12.197,6.572 -6.83,6.846 -3.659,3.833 -5.367,7.942 -5.367,7.393 -4.635,10.132 -3.171,9.31 -2.927,12.323 c 0.081,3.56 0.163,7.119 0.244,10.679 v 6.572 l -0.244,1.917 -37.322,24.919 -1.464,-11.501 -1.464,-6.024 -4.39,-13.144 -2.196,-1.37 -7.806,3.834 -2.439,1.917 -1.952,1.917 -0.732,3.56 v 3.559 l -0.244,5.751 -2.683,3.56 -2.927,2.738 -5.123,1.917 -6.098,1.917 -6.587,-0.822 -4.634,-1.917 -6.099,-1.916 -2.439,-2.739 -2.439,-5.203 -3.416,-9.31 -1.707,-6.572 -0.244,-2.464 -4.391,-7.394 -3.171,-8.489 -2.927,1.643 -1.952,-3.56 -0.732,-1.369 -1.219,-1.369 -2.44,-2.464 -3.171,-6.846 0.976,-5.751 1.219,-3.833 1.464,-1.917 z"
     fill="#a6a6a6"
     fill-rule="evenodd"
     fill-opacity="0.698039"
     id="SixFlags" />
  <path
     d="m 610,300.835 5.201,-12.776 34.129,12.411 15.277,-2.19 -20.477,-17.522 108.89,-10.951 -3.251,-12.776 -2.275,-2.92 -2.926,-5.111 19.178,4.745 5.851,2.191 8.126,2.92 5.526,2.92 3.9,2.921 1.95,5.11 2.276,3.286 1.3,5.475 0.325,2.19 -2.6,4.016 -11.052,0.365 0.325,3.65 -9.426,6.571 2.925,6.206 -32.179,54.755 -3.901,-3.285 -10.726,17.157 -10.727,9.856 -22.753,9.126 L 679.56,391 h -2.601 l -1.3,-1.095 -2.925,-8.396 -2.276,-2.92 -2.6,-1.46 -3.901,-1.826 -0.975,-1.46 -7.801,-4.015 18.853,4.38 18.852,1.46 9.427,-2.555 4.875,-1.825 11.377,-6.571 2.275,-2.19 0.65,-3.65 v -2.921 l -4.55,-15.696 z"
     fill="#a6a6a6"
     fill-rule="evenodd"
     fill-opacity="0.698039"
     id="MotorSportsPark" />
  <path
     d="M 472,325.706 482.341,312 l 24.621,12.061 11.326,-11.513 18.712,11.513 -2.462,8.772 -5.909,2.193 h -2.462 l -0.493,3.29 -0.492,4.386 v 7.675 l 3.939,6.579 4.924,7.127 1.97,5.483 0.985,7.675 v 6.579 l -5.417,9.869 -3.939,8.223 -6.402,7.127 -5.416,4.386 -15.758,23.575 -23.144,-12.61 -2.954,-4.386 -0.493,-3.289 14.281,-11.513 3.446,-1.645 1.97,-4.934 -1.97,-2.741 12.311,-24.123 v -31.25 l -7.386,-0.549 -7.879,-1.644 z"
     fill="#a6a6a6"
     fill-rule="evenodd"
     fill-opacity="0.698039"
     id="WestVillagePrecinct2-South" />
  <path
     d="m 702,146.444 6.502,-6.588 5.201,-1.464 5.202,-1.464 5.526,-0.366 22.431,-1.098 3.576,-0.366 5.527,-1.098 2.925,2.562 -0.325,3.66 -1.3,1.83 -0.65,2.562 0.975,2.928 0.975,1.464 1.626,2.928 0.325,1.464 -2.276,4.392 -0.975,4.392 v 5.123 l 4.551,7.32 4.877,8.784 6.176,16.47 4.551,12.078 5.527,7.686 8.452,6.954 2.601,2.196 -5.526,32.207 -7.803,-6.222 -9.427,-4.026 -13.654,-2.196 -13.329,-4.392 -7.477,-3.66 -8.777,-3.66 -5.201,-4.392 -3.251,-9.149 -0.65,-3.66 -1.951,1.464 h -2.276 l -0.975,-2.928 1.301,-2.196 2.275,-0.366 1.301,-5.49 5.201,-5.856 -0.65,-4.758 -1.301,-2.196 v -5.49 l 2.276,-4.758 0.325,-5.856 -1.625,-7.686 -2.926,-1.83 0.65,-3.294 1.625,-4.025 v -1.83 l -14.629,-8.784 -2.275,-0.732 z"
     fill="#a6a6a6"
     fill-rule="evenodd"
     fill-opacity="0.698039"
     id="EastVillageNorth" />
  <path
     d="m 790,265.785 6.207,-37.178 4.901,1.094 3.92,1.458 9.802,-1.094 4.247,-3.644 6.207,-3.645 2.94,-4.739 v -5.467 l 0.981,-6.925 4.9,-3.645 h 2.94 l 4.248,12.393 1.306,8.747 1.307,6.196 4.247,5.103 41.819,-30.981 V 202 l 11.761,21.14 v 7.29 l 1.96,4.738 1.307,4.374 -0.98,5.467 -2.287,5.832 -7.841,5.103 -3.267,4.009 -2.614,5.103 -3.267,8.748 7.841,2.916 c -0.109,4.009 -0.218,8.018 -0.326,12.028 h -3.268 l -1.633,2.916 -22.216,3.644 -9.148,-7.654 -10.128,4.374 0.654,5.832 -22.543,19.682 -9.474,1.458 -4.574,-1.822 -1.634,-2.552 -3.267,-12.392 -7.187,-13.851 -7.514,-3.28 3.92,-4.738 -0.653,-4.739 z"
     fill="#a6a6a6"
     fill-rule="evenodd"
     fill-opacity="0.698039"
     id="EastVillageSouth" />
  <path
     d="m 405,498.438 3.417,-7.693 -0.977,-6.593 25.382,-14.287 17.084,-36.815 20.988,-15.385 4.393,9.341 23.429,12.089 18.06,-25.276 16.108,-20.331 3.905,-7.692 v -9.341 l -1.953,-8.242 -2.44,-6.594 -3.417,-4.396 -3.417,-7.692 -0.976,-4.946 v -7.692 l 2.929,-2.198 6.833,-3.847 3.417,-7.692 -19.036,-12.638 10.25,-10.99 -24.405,-22.528 41.977,13.737 4.393,-10.99 165.468,61.541 4.881,14.836 v 6.594 l -2.441,1.648 -7.321,4.396 -5.857,2.198 -14.155,4.396 -36.12,-4.946 6.345,4.946 7.81,4.396 3.416,1.648 1.465,7.143 0.976,2.198 h 5.369 l 13.179,-1.099 20.989,-9.89 11.714,-9.342 10.739,-18.132 3.416,4.396 32.703,-54.398 -2.44,-6.594 8.298,-7.143 -0.488,-2.198 h 10.738 l 7.322,2.198 7.809,15.385 2.441,10.44 2.44,3.297 5.37,1.649 8.785,-2.198 23.43,-20.331 v -4.945 l 8.297,-3.847 9.762,7.693 23.43,-4.945 0.976,-2.198 20.988,2.747 2.929,5.495 4.393,9.891 -1.952,5.494 -4.881,7.693 -96.157,40.661 -1.953,2.747 -1.952,2.748 -10.251,13.187 -5.369,7.693 -1.464,2.747 -0.976,5.495 1.464,1.648 1.952,2.748 v 0 l 2.441,17.033 -1.464,6.045 -2.441,9.341 -5.857,6.044 -4.393,3.297 -4.881,3.846 -4.393,2.198 -4.393,3.297 -6.346,0.549 -5.369,1.099 -8.786,-2.747 -8.297,-1.099 h -5.37 -10.25 l -1.952,0.549 -1.953,1.099 -2.928,2.198 -3.905,1.099 -6.834,0.549 -7.809,1.099 -98.11,-3.296 -2.928,1.099 -20.501,4.945 -4.393,1.648 -5.857,3.847 -3.417,1.648 -9.762,2.747 -6.833,0.55 -40.513,-2.748 -41.489,17.584 -35.144,54.947 -8.298,-14.836 0.488,-2.747 v 0 l 4.881,-4.396 0.488,-3.297 -2.928,-5.495 -2.929,-0.549 -3.905,0.549 -3.416,1.099 h -3.417 l -3.905,-4.945 z"
     fill="#a6a6a6"
     fill-rule="evenodd"
     fill-opacity="0.698039"
     id="SpeedTrack" />
  <g
     id="g984">
    <text
       fill="#ffffff"
       font-family="Calibri, Calibri_MSFontService, sans-serif"
       font-weight="400"
       font-size="15px"
       id="text39"
       x="385.40424"
       y="237">MOVIE</text>
    <text
       fill="#ffffff"
       font-family="Calibri, Calibri_MSFontService, sans-serif"
       font-weight="400"
       font-size="15px"
       id="text41"
       x="367.18399"
       y="251">THEME PARK</text>
    <text
       fill="#ffffff"
       font-family="Calibri, Calibri_MSFontService, sans-serif"
       font-weight="400"
       font-size="15px"
       id="text43"
       x="573.71997"
       y="213">KIDS</text>
    <text
       fill="#ffffff"
       font-family="Calibri, Calibri_MSFontService, sans-serif"
       font-weight="400"
       font-size="15px"
       id="text45"
       x="571.38702"
       y="227">PARK</text>
    <text
       fill="#ffffff"
       font-family="Calibri, Calibri_MSFontService, sans-serif"
       font-weight="400"
       font-size="15px"
       id="text47"
       x="648.573"
       y="229">WATER</text>
    <text
       fill="#ffffff"
       font-family="Calibri, Calibri_MSFontService, sans-serif"
       font-weight="400"
       font-size="15px"
       id="text49"
       x="631.40698"
       y="243">THEME PARK</text>
    <text
       fill="#ffffff"
       font-family="Calibri, Calibri_MSFontService, sans-serif"
       font-weight="400"
       font-size="15px"
       id="text51"
       x="810.16998"
       y="163">SIX FLAGS</text>
    <text
       fill="#ffffff"
       font-family="Calibri, Calibri_MSFontService, sans-serif"
       font-weight="400"
       font-size="15px"
       id="text53"
       x="908.53198"
       y="159">DISCOVERY</text>
    <text
       fill="#ffffff"
       font-family="Calibri, Calibri_MSFontService, sans-serif"
       font-weight="400"
       font-size="15px"
       id="text55"
       x="913.19897"
       y="173">GARDENS</text>
    <text
       fill="#ffffff"
       font-family="Calibri, Calibri_MSFontService, sans-serif"
       font-weight="400"
       font-size="13px"
       id="text57"
       x="507.10999"
       y="361">WEST</text>
    <text
       fill="#ffffff"
       font-family="Calibri, Calibri_MSFontService, sans-serif"
       font-weight="400"
       font-size="13px"
       id="text59"
       x="500.27701"
       y="373">VILLAGE</text>
    <text
       fill="#ffffff"
       font-family="Calibri, Calibri_MSFontService, sans-serif"
       font-weight="400"
       font-size="13px"
       id="text61"
       x="515.53003"
       y="386">(S)</text>
    <text
       fill="#ffffff"
       font-family="Calibri, Calibri_MSFontService, sans-serif"
       font-weight="400"
       font-size="15px"
       id="text63"
       x="544.57397"
       y="262">WEST</text>
    <text
       fill="#ffffff"
       font-family="Calibri, Calibri_MSFontService, sans-serif"
       font-weight="400"
       font-size="15px"
       id="text65"
       x="525.987"
       y="276">VILLAGE (N)</text>
    <text
       fill="#ffffff"
       font-family="Calibri, Calibri_MSFontService, sans-serif"
       font-weight="400"
       font-size="15px"
       id="text67"
       x="360.86301"
       y="414">JANADRIYAH</text>
    <text
       fill="#ffffff"
       font-family="Calibri, Calibri_MSFontService, sans-serif"
       font-weight="400"
       font-size="15px"
       id="text69"
       x="833.47101"
       y="249">EAST</text>
    <text
       fill="#ffffff"
       font-family="Calibri, Calibri_MSFontService, sans-serif"
       font-weight="400"
       font-size="15px"
       id="text71"
       x="814.05103"
       y="268">VILLAGE</text>
    <text
       fill="#ffffff"
       font-family="Calibri, Calibri_MSFontService, sans-serif"
       font-weight="400"
       font-size="15px"
       id="text73"
       x="866.71802"
       y="268">(S)</text>
    <text
       fill="#ffffff"
       font-family="Calibri, Calibri_MSFontService, sans-serif"
       font-weight="400"
       font-size="15px"
       id="text75"
       x="465.43701"
       y="261">MUSIC</text>
    <text
       fill="#ffffff"
       font-family="Calibri, Calibri_MSFontService, sans-serif"
       font-weight="400"
       font-size="15px"
       id="text77"
       x="463.85001"
       y="278">THEME</text>
    <text
       fill="#ffffff"
       font-family="Calibri, Calibri_MSFontService, sans-serif"
       font-weight="400"
       font-size="15px"
       id="text79"
       x="469.604"
       y="296">PARK</text>
    <text
       fill="#ffffff"
       font-family="Calibri, Calibri_MSFontService, sans-serif"
       font-weight="400"
       font-size="15px"
       id="text81"
       x="617.354"
       y="413">SPEED TRACK</text>
    <text
       fill="#ffffff"
       font-family="Calibri, Calibri_MSFontService, sans-serif"
       font-weight="400"
       font-size="15px"
       id="text83"
       x="739.716"
       y="191">EAST</text>
    <text
       fill="#ffffff"
       font-family="Calibri, Calibri_MSFontService, sans-serif"
       font-weight="400"
       font-size="15px"
       id="text85"
       x="729.797"
       y="210">VILLAGE</text>
    <text
       fill="#ffffff"
       font-family="Calibri, Calibri_MSFontService, sans-serif"
       font-weight="400"
       font-size="15px"
       id="text87"
       x="745.216"
       y="229">(N)</text>
    <text
       fill="#ffffff"
       font-family="Calibri, Calibri_MSFontService, sans-serif"
       font-weight="400"
       font-size="15px"
       id="text89"
       x="681.21301"
       y="307">MOTORSPORT</text>
    <text
       fill="#ffffff"
       font-family="Calibri, Calibri_MSFontService, sans-serif"
       font-weight="400"
       font-size="15px"
       id="text91"
       x="708.38"
       y="321">PARK</text>
  </g>
</svg>
