<?xml version="1.0" encoding="UTF-8" standalone="no"?>
<svg
   width="1280"
   height="720"
   overflow="hidden"
   version="1.1"
   id="svg53"
   sodipodi:docname="D18 - Uptown.svg"
   inkscape:version="1.1.2 (b8e25be833, 2022-02-05)"
   xmlns:inkscape="http://www.inkscape.org/namespaces/inkscape"
   xmlns:sodipodi="http://sodipodi.sourceforge.net/DTD/sodipodi-0.dtd"
   xmlns="http://www.w3.org/2000/svg"
   xmlns:svg="http://www.w3.org/2000/svg">
  <sodipodi:namedview
     id="namedview55"
     pagecolor="#ffffff"
     bordercolor="#666666"
     borderopacity="1.0"
     inkscape:pageshadow="2"
     inkscape:pageopacity="0.0"
     inkscape:pagecheckerboard="0"
     showgrid="false"
     inkscape:zoom="0.75694444"
     inkscape:cx="640.0734"
     inkscape:cy="359.33945"
     inkscape:window-width="1366"
     inkscape:window-height="705"
     inkscape:window-x="-8"
     inkscape:window-y="-8"
     inkscape:window-maximized="1"
     inkscape:current-layer="svg53" />
  <defs
     id="defs5">
    <clipPath
       id="clip0">
      <rect
         x="0"
         y="0"
         width="1280"
         height="720"
         id="rect2" />
    </clipPath>
  </defs>
  <rect
     x="0"
     y="0"
     width="1280"
     height="720"
     fill="#ffffff"
     id="rect7" />
  <path
     d="m 1060.94,545 -3.3,1.094 -1.86,0.798 -2.98,1.281 -2.07,0.053 -0.91,-2.679 -5.15,-1.76 1.17,-8.606 -2.29,1.276 -6.01,-1.063 0.9,-4.885 -2.97,-2.626 -4.31,-2.866 -1.12,-1.456 -3.93,-1.116 -0.64,-2.211 0.32,-3.722 -2.23,-1.228 -0.38,-1.749 -3.24,-0.999 -1.49,0.58 -0.9,-2.68 -2.02,-2.041 1.8,-0.521 9.84,1.33 4.57,0.807 3.89,-2.663 0.74,1.808 -0.69,1.972 6.06,4.438 9.73,1.308 9.95,8.059 -1.44,-3.61 0.53,-2.849 3.4,0.181 4.84,1.701 3.83,5.714 5.58,1.861 3.78,1.483 2.76,3.843 6.86,-1.722 3.78,-0.165 2.6,10.536 2.93,0.94 2.29,6.693 6.06,6.512 4.52,5.449 3.13,1.807 3.14,-2.371 7.02,1.239 5.85,1.876 1.97,-1.329 -5.21,-5.544 -4.37,-0.766 -7.6,2.419 0.32,-5.815 -5.37,-4.726 2.07,-1.738 8.19,0.197 2.87,-2.435 -1.54,-3.205 -5.48,-7.692 -4.41,-2.456 -5.05,-0.484 4.04,-3.477 5.42,0.537 3.14,1.813 5.58,1.414 5.06,4.263 4.52,5.826 5.21,-6.209 0.95,-5.289 -8.4,0.617 -8.19,-2.291 -7.92,-3.28 -6.91,-2.291 -5.85,0.218 -5.32,0.739 -2.39,-0.006 -2.55,0.808 -3.35,-0.595 -2.5,-1.286 -3.56,0.632 -2.45,-1.696 0.32,-3.72 -3.62,-1.058 -1.8,-3.264 -2.61,-0.882 v -2.09 l 4.41,0.362 3.83,-2.259 -0.8,-3.089 -2.92,-3.03 3.14,-0.282 9.46,6.714 4.1,-1.791 -3.73,-6.118 4.26,-0.511 2.12,3.322 3.78,1.93 3.99,2.807 9.2,2.466 1.33,-3.545 -6.7,-10.839 0.1,-2.499 5.32,3.041 2.82,3.44 1.17,3.146 3.24,3.089 1.92,4.545 4.52,-2.137 2.07,-5.933 -0.32,-5.932 0.43,-2.44 2.23,1.228 2.87,3.03 1.28,-5.231 3.4,2.281 4.68,-1.265 -0.37,-3.844 4.78,-3.768 2.82,-15.873 -5.9,2.312 -4.68,-0.829 -3.72,-0.245 -0.85,4.885 -3.67,5.226 -2.77,2.031 -3.99,-4.902 -5.31,-0.946 -1.17,2.732 v 3.78 l -2.93,2.844 -5.47,-0.133 -2.5,-3.381 -2.61,1.212 -2.34,1.68 -3.19,-3.498 -2.44,2.089 -2.29,3.365 -1.97,1.334 -6.54,-1.999 -4.52,0.453 -6.17,5.623 -5.05,-0.478 -1.91,0.925 -2.71,-0.064 -4.74,3.36 -2.02,1.738 -2.5,-1.696 0.54,-2.849 -1.6,-0.702 -2.71,1.621 -1.7,-1.982 -0.37,-1.744 3.72,-1.445 -0.16,-1.282 5,-0.797 4.57,-4.641 -2.13,-1.637 -0.8,-3.083 5.38,-1.148 1.43,-2.265 5.8,-1.903 4.57,-0.452 0.85,-4.885 v 0 l 2.66,-1.212 1.75,-4.3 3.94,1.116 6.64,-4.285 7.77,-1.143 1.22,-3.135 -1.22,-2.738 5.74,0.601 6.01,-1.032 5.74,0.596 2.13,-4.237 3.19,-2.376 7.87,-3.641 2.02,-7.618 -2.71,-2.158 -5.85,-1.882 -4.31,3.014 -3.3,4.88 -5.1,1.61 -5.96,0.623 -2.87,2.843 1.12,3.147 -6.27,-3.221 -4.68,1.265 -1.07,5.699 -4.41,1.733 -4.15,2.2 -2.12,2.148 -5.59,4.46 -0.96,3.195 -2.6,1.217 -3.35,-0.59 -2.45,0.399 -3.72,1.44 -3.77,3.944 -3.99,-0.707 -0.75,4.072 -4.14,0.101 -2.66,-0.473 -1.17,2.732 -2.77,-1.754 -1.86,2.615 -3.99,3.068 -2.65,3.311 -1.49,2.669 -3.19,2.376 -0.64,-2.211 -4.26,-1.175 -1.64,-2.392 4.09,-3.477 3.94,-0.978 0.95,-5.289 2.34,-1.68 1.12,-4.417 4.78,-1.674 4.15,-3.886 -8.03,0.675 -2.5,4.178 -1.86,-1.164 -1.75,2.115 -2.08,2.233 -3.45,1.909 -3.3,1.1 -0.74,2.381 -4.79,1.675 -0.48,2.849 -2.87,-1.35 -4.62,0.861 -0.86,4.885 -2.02,3.423 -0.58,5.353 -2.66,-0.473 0.59,-11.227 -3.67,1.446 -4.79,3.764 -0.371,5.815 -1.968,1.334 -1.701,-1.982 -1.754,2.206 -3.244,-1 -1.329,1.452 -1.33,-0.24 -3.722,1.856 -3.562,0.627 1.754,-2.206 5.052,-3.301 3.296,-4.875 -3.669,-0.654 -2.126,-1.632 -3.776,-1.929 -3.775,-0.244 0.426,-2.446 -0.958,-2.27 1.915,-0.925 3.828,1.526 5.264,1.35 6.008,1.063 2.553,-2.896 0.691,-3.663 -4.36,-0.771 0.425,-2.44 5.318,-0.744 1.225,2.738 4.41,-1.734 3.14,-1.966 8.67,-0.559 3.88,-4.348 -6.38,-0.717 -3.14,-1.813 2.23,-2.961 5.37,-1.148 1.92,-3.019 3.82,1.525 4.26,-6.39 19.73,-4.48 5.53,-6.151 18.61,-8.027 1.91,-4.71 7.13,0.431 4.04,-3.482 3.29,-1.095 4.15,-3.886 0.21,-3.311 5.16,0.069 4.63,-2.951 8.98,-0.089 3.67,0.647 -0.85,-4.773 -5.58,0.276 -7.5,-0.489 -3.67,3.541 -4.09,-0.303 0.85,-2.791 2.55,-2.903 3.67,-3.13 5.16,-2.02 0.05,-2.095 -5.69,1.09 -4.2,4.295 -4.79,3.763 -6.06,1.032 -1.7,1.797 2.87,1.35 -0.85,4.88 -3.35,3.189 -3.61,-0.648 -0.64,-2.212 -2.29,-0.824 -4.2,2.201 -3.45,4.003 v 0 l -3.73,1.85 -5.1,3.301 -2.87,2.844 -4.42,-2.456 -3.08,4.061 -3.19,2.376 -1.28,3.136 -8.18,5.678 -1.28,-4.423 -3.24,2.786 -2.45,-0.011 -2.23,2.961 -1.23,-2.738 1.07,-4.008 -3.83,0.159 -3.94,4.764 -4.2,0.51 -2.76,3.715 -0.43,2.44 -3.03,-0.127 -1.33,-2.328 -2.82,2.434 -4.834,-0.016 -2.659,-0.473 -3.084,1.972 -4.519,0.043 -0.638,-3.897 4.626,-0.861 0.691,-4.067 -3.031,-2.221 3.137,-0.282 4.52,1.642 1.381,-3.949 5.32,-0.744 1.65,-3.488 4.68,-1.265 -1.81,-3.263 2.23,-2.956 4.15,-2.201 3.67,0.649 3.45,-1.909 0.96,-1.509 3.88,-0.569 1.07,-6.108 1.7,-1.797 0.85,-4.885 4.78,-1.669 4.15,1.988 3.67,2.339 0.96,-1.51 -1.44,-3.614 2.82,-2.026 1.12,-8.196 -4.95,2.482 -1.33,3.546 -3.29,1.095 -2.45,-3.381 -5.74,-0.596 -0.38,5.816 -0.58,3.253 -3.56,6.507 -5.11,-0.075 0.11,-4.592 -2.87,0.749 -0.85,2.785 -3.14,0.282 -4.52,5.922 -3.35,-2.275 -0.05,-5.47 0.53,-3.259 -4.1,0.106 -1.32,1.452 -0.43,4.534 -3.457,-0.186 -0.478,4.944 -2.658,3.311 -4.786,-4.204 -2.818,2.435 -2.925,0.748 0.691,3.897 -1.914,1.334 -3.669,-0.648 -2.658,3.307 -3.775,-1.93 -1.117,11.981 -4.413,-0.361 0.691,7.676 -5.03,12.96 -3.51,2.318 0.319,-3.722 -1.903,-2.859 0.941,-5.29 -0.425,-3.434 -3.313,3.19 -1.202,4.827 -3.982,3.072 v 0 l -0.797,4.476 -5.408,-0.542 0.536,-4.939 3.361,-1.504 2.329,-9.244 4.371,-7.198 1.127,-4.417 -4.647,2.95 -1.654,3.487 -3.812,0.165 -1.128,4.418 -2.403,-0.011 -1.202,4.826 -5.418,5.337 -1.01,5.699 -1.766,2.206 -0.685,-3.902 -3.361,1.504 -0.388,4.126 -3.525,-1.462 -3.956,0.978 -1.245,3.136 -2.259,-0.818 0.718,-4.072 -5.217,0.335 -2.377,-2.1 9.274,-3.817 8.215,-9.456 -5.483,-0.133 -3.913,2.668 -2.116,-1.637 -4.621,0.861 -2.435,2.084 -2.712,-2.158 2.058,-3.833 -3.382,-2.281 -4.142,0.107 -2.77,2.025 -1.781,-1.574 -8.912,1.776 -2.51,2.493 -0.68,-3.896 -2.712,-2.164 0.505,-2.843 5.594,1.408 3.174,-2.376 2.956,-1.154 3.579,-2.722 7.289,-0.387 9.928,2.179 7.221,0.021 3.765,-1.849 6.002,1.063 1.766,-2.206 4.248,-2.605 0.053,-4.189 -4.376,-2.456 2.984,-3.248 9.698,-0.377 6.056,-3.126 2.17,-2.551 3.626,-1.037 -0.686,-3.902 6.992,-0.999 8.785,-0.813 3.243,-4.471 -2.339,-2.509 -5.158,-0.074 -2.127,2.556 -7.833,-0.547 -1.51,2.674 -3.935,4.757 -4.987,2.892 -5.785,-2.286 0.101,-2.498 3.477,-0.224 0.362,-2.035 -8.481,-0.665 -1.361,1.861 -9.39,2.53 -2.191,-1.228 -2.218,0.867 -0.085,-3.376 3.579,-2.722 4.1,-1.791 -1.713,-1.983 -3.738,-0.244 -5.561,6.15 -4.291,0.92 -7.795,3.232 -9.061,2.594 -3.111,7.841 -2.738,-0.064 -1.233,-2.738 1.579,-3.078 -1.856,-1.169 -2.627,1.212 -7.476,-0.484 -3.216,0.686 -2.383,-2.1 3.536,-4.412 4.408,0.362 5.099,-1.611 3.653,-3.131 2.765,-2.031 5.525,1.818 0.792,-4.475 3.478,-0.224 1.058,-4.008 3.738,0.245 1.127,-4.417 5.482,0.132 0.792,-4.481 4.812,0.016 2.478,-0.399 -0.016,-3.785 2.813,-0.34 1.898,2.86 5.004,0.882 2.882,-0.744 0.175,-2.907 3.191,1.403 2.828,3.439 5.403,0.543 3.668,0.648 -3.163,-3.498 1.031,-1.919 3.286,-1.095 -1.35,-4.019 -5.158,-3.853 -0.234,-2.563 3.334,0.596 4.737,0.42 4.121,1.987 5.7,8.57 1.792,-4.301 0.16,-6.687 4.839,1.701 3.19,3.498 2.074,-2.148 5.423,0.543 4.52,1.642 2.499,-2.498 -3.137,-1.813 -1.223,-4.423 0.478,-4.943 3.616,1.057 3.669,0.654 1.967,2.446 5.477,0.133 2.501,-0.399 2.87,1.345 0.69,-4.072 2.77,-2.025 0.26,-3.318 -4.15,-1.988 -1.7,1.797 -2.39,2.089 -4.201,-1.584 0.479,-2.849 0.744,-1.972 -2.818,-1.754 -1.701,1.796 -0.904,3.195 -1.914,3.019 -2.499,-1.286 -1.17,-3.142 -3.244,0.686 -2.552,2.902 -0.425,6.225 -2.765,2.026 -1.489,-3.201 -3.35,-0.595 -0.266,-4.247 -4.36,1.329 -0.585,-2.621 1.861,-4.705 0.532,-2.849 -2.765,-0.069 -2.085,2.148 -2.594,-0.883 -2.43,2.09 -1.234,-2.738 0.936,-5.289 9.321,-4.221 2.978,0.941 2.392,-2.089 10.688,1.892 6.593,-4.284 -1.329,-6.114 -3.669,-0.648 2.393,-3.774 3.669,0.649 4.466,4.14 3.987,0.713 1.44,-4.359 -2.29,-4.604 6.38,-0.967 2.34,-1.68 2.71,-1.621 -0.95,-4.37 -7.24,2.073 -5.738,-0.595 -2.553,2.902 -2.446,-0.01 -2.074,-3.727 -6.487,-0.308 -3.934,4.758 0.106,9.249 -6.646,0.505 -1.17,2.727 0.159,2.972 -1.435,2.264 -4.999,-0.887 -1.042,-1.867 -1.526,-1.11 -0.766,2.381 -0.573,3.259 -4.047,-2.398 -1.813,0.521 -2.319,3.365 -0.34,5.815 -1.016,5.699 -3.126,4.061 -3.291,1.095 -1.755,-3.668 1.462,-4.359 -2.972,-2.626 -1.462,4.36 -1.84,2.609 -0.723,4.072 -2.297,7.15 -2.409,-0.005 -0.495,-3.03 -0.744,-9.367 -2.436,2.089 0.495,3.025 -1.361,1.855 -1.648,3.488 -4.307,-2.866 -3.127,4.067 -2.111,8.021 -4.408,-0.361 -3.823,6.038 -2.786,-1.754 1.329,-9.42 -6.667,-1.185 -4.292,0.92 -4.243,2.604 -1.058,4.014 -5.838,1.903 -0.984,3.604 -4.477,0.043 -3.435,1.908 -3.254,8.66 -6.854,7.601 0.75,-6.167 -2.712,-2.158 4.578,-2.546 0.319,-3.721 1.313,-3.546 -2.116,-1.631 3.914,-2.669 0.579,-3.253 3.414,-5.693 0.649,-3.663 -4.764,1.674 -7.158,5.449 -5.365,1.148 -2.009,5.518 -5.509,1.962 0.723,-4.067 2.77,-2.03 2.675,-5.401 4.083,-5.571 4.584,-2.547 1.052,-4.013 2.813,-0.34 5.504,-1.961 12.075,1.722 3.462,-4.003 3.435,-1.913 6.338,1.126 5.434,-1.557 4.11,-7.666 13.059,-1.881 -8.741,-1.133 -2.047,-2.041 -4.334,-0.771 -2.042,-2.041 5.227,-6.208 8.482,0.664 0.749,-6.161 7.508,-1.611 6.651,-2.594 -0.685,-3.902 4.046,2.398 2.957,-1.154 -3.829,-3.62 0.649,-3.662 5.216,-0.335 1.882,-0.925 -2.445,-1.696 -4.813,-0.01 -0.021,-3.785 6.753,-5.098 9.002,1.6 2.771,-2.031 2.972,2.626 -1.059,4.014 3.643,2.743 3.27,-1.095 1.222,2.737 6.275,-0.159 v -3.78 l -3.669,-2.743 -2.074,-3.731 1.277,-1.452 23.024,-3.886 4.359,0.766 8.77,2.817 7.18,-3.758 v -7.564 l 2.29,-1.271 4.2,5.364 6.96,-2.541 0.75,-4.066 4.73,0.419 7.5,-3.705 5.42,-3.237 -3.99,-0.712 -5.58,2.37 -8.51,-0.664 -4.25,0.866 -7.44,1.25 -2.77,2.03 -5.1,-0.483 -3.83,2.259 -6.117,-2.344 -1.595,3.077 -3.563,2.727 -3.987,-2.806 0.903,-4.885 -3.881,-3.615 -3.882,2.663 -2.127,8.022 -3.722,-0.245 -0.106,-7.155 -2.446,-1.69 -3.084,3.652 -0.585,3.258 1.17,1.457 -2.34,3.365 -2.978,-0.532 0.745,-4.476 -1.181,-4.832 8.519,-11.084 -1.01,-9.834 -2.712,5.402 -4.573,4.64 -2.17,6.337 -6.375,6.841 0.468,5.124 -4.769,1.669 -0.421,-3.428 -5.215,0.329 0.313,-3.721 4.158,-5.98 4.201,-4.29 1.531,-4.768 -4.408,-0.361 -3.578,2.726 -3.441,7.783 -1.201,4.826 -2.201,4.646 0.653,5.996 -2.169,2.552 -4.19,-1.584 -2.568,-2.971 -1.914,3.019 2.424,3.785 0.899,2.679 -1.718,3.891 -4.493,5.921 -3.855,-1.52 -2.462,4.179 -0.648,3.662 -1.622,1.393 -6.61,4.284 -0.35,-3.838 -3.308,-2.689 -5.317,2.838 -0.489,6.629 -4.95,10.456 -2.218,0.867 -4.519,-1.644 -0.963,-8.143 -2.866,4.529 -2.765,11.684 -2.217,0.867 -2.924,-0.941 1.419,3.609 -5.838,1.903 -0.723,4.072 -1.882,0.925 -2.441,-7.57 -12.692,9.505 -3.76,11.503 -4.668,-0.824 -15.782,5.598 10.358,-9.92 6.03,-1.031 -2.233,-2.913 -4.148,0.101 -0.308,-2.153 6.418,-5.156 2.015,-5.523 -0.829,-3.083 2.142,-0.458 2.904,3.031 1.462,-4.359 3.621,-1.037 1.462,-4.358 8.997,-8.06 -0.133,-5.06 7.04,-6.73 0.622,-1.568 9.226,-5.497 -0.872,-4.773 4.105,-1.791 4.663,0.829 4.854,-7.958 -8.364,0.617 -7.47,-6.363 -0.224,7.096 -1.202,4.827 -4.94,4.582 -1.972,-2.45 0.893,-6.98 -6.024,10.685 0.393,5.528 -5.067,9.175 -7.486,5.39 -0.341,-9.717 3.924,-8.537 1.819,-6.395 1.579,-3.077 0.633,-7.442 -9.247,1.716 -1.053,4.009 -1.877,10.583 -3.998,8.947 -6.359,0.972 -1.57,-2.796 0.389,-4.13 -4.525,-1.642 0.803,5.177 -0.723,4.072 7.061,6.708 0.543,4.715 -3.579,2.722 -1.303,7.325 -2.153,6.336 -3.722,3.541 -1.755,-3.674 -5.769,1.499 -0.495,-3.029 1.516,-8.548 -3.01,5.348 -5.828,5.682 -0.935,5.289 -4.435,1.733 2.414,9.664 1.223,8.612 -1.617,11.046 -4.445,7.612 -2.786,-1.754 1.734,-9.771 -2.191,-1.228 -3.435,1.914 -3.26,-0.999 -2.504,2.493 0.819,-6.57 3.722,-3.541 1.128,-4.417 -4.717,-12.168 -4.833,11.732 -0.112,8.378 -1.345,5.64 -7.184,7.543 -5.057,3.301 2.68,-15.586 -1.09,-1.138 -6.779,4.779 -2.51,3.966 -4.669,4.524 -1.791,2.833 -3.536,-1.887 3.142,-5.938 2.472,-5.347 0.256,-4.365 -2.159,0.564 -2.478,5.225 -2.802,-0.18 -1.829,1.568 -4.434,1.727 -2.096,3.094 -0.585,-1.047 -0.675,-2.01 -1.143,-0.834 -0.782,-1.398 -4.774,0.728 -7.216,-1.297 -6.732,-1.489 1.67,-5.06 1.792,-2.828 3.573,-1.255 5.514,3.812 1.733,1.881 3.271,-0.994 0.781,1.398 3.472,-0.642 2.43,-2.09 -0.728,-1.706 -6.056,-0.755 3.562,-4.093 0.739,-2.701 3.717,-0.6 2.738,-2.35 7.253,1.287 4.977,-4.785 3.249,0.575 1.717,-0.952 -3.1,-4.327 -6.157,-4.555 3.344,-2.871 2.079,-1.52 7.503,1.329 3.595,-2.828 1.749,0.313 4.275,-0.819 7.333,-4.996 8.097,-2.025 3.207,-3.525 1.058,-4.534 6.641,-5.433 -1.569,-2.796 4.956,-22.108 4.281,-5.22 -6.142,-1.723 -2.738,2.35 -0.782,5.842 -3.228,5.098 -1.169,5.146 0.473,6.065 -1.834,5.969 -4.212,7.756 -4.307,-0.452 -5.051,6.661 -12.171,3.195 0.846,-3.312 1.717,-0.957 0.255,-4.364 -3.727,-2.233 -1.265,-3.056 2.902,-3.264 1.229,1.791 -0.239,2.791 1.175,2.1 3.185,-1.956 0.435,-2.441 5.743,-6.224 -1.792,-4.412 0.463,-1.175 -0.957,-3.317 -3.414,0.335 -2.935,1.999 -3.834,-1.622 -1.579,1.605 -0.377,2.137 -4.866,4.179 -0.866,4.88 -5.227,4.741 -2.84,-1.446 -3.248,18.313 -9.401,9.351 -6.807,10.759 1.372,-9.202 -4.03,-1.977 -7.301,13.507 -6.486,1.68 -4.488,2.041 -3.164,0.382 -2.01,4.052 -1.978,-1.925 -2.983,-2.105 2.239,-2.435 3.132,-1.648 1.451,-3.838 6.089,-5.214 -1.319,-2.754 -3.249,-0.579 -2.015,-3.19 7.991,-1.414 3.164,-3.795 -1.266,10.238 10.609,-11.748 6.556,-30.087 -0.479,-13.141 5.227,-6.825 14.207,0.899 10.056,-6.916 36.907,-6.118 6.215,-8.448 -1.861,-4.789 -23.348,-12.992 -37.497,1.01 -0.739,-7.001 8.221,-4.247 16.175,-4.842 17.19,0.983 -2.063,-19.105 4.658,-6.958 2.664,-8.67 7.194,-12.561 -2.584,-6.82 -6.429,-8.351 -15.531,-13.002 -13.384,-6.9 -17.547,15.681 -17.472,0.192 -17.451,5.156 -4.934,-1.733 1.398,-5.874 19.439,-5.927 2.335,-19.918 -12.033,-25.197 -13.49,1.138 -7.763,12.423 -9.63,7.638 -11.644,0.957 -2.872,-8.128 -14.867,-23.389 -9.241,-1.579 -14.734,8.909 -6.258,-1.488 -3.744,-12.0563 -14.505,-4.6935 -47.424,4.8581 0.542,-4.7521 -14.825,-13.4487 -2.775,-18.6528 -9.289,-13.9967 -15.356,-3.6516 -29.245,4.2152 -21.599,-2.6525 -22.002,4.0773 -15.446,9.3557 -4.382,5.7835 -5.344,12.3805 -13.021,11.7956 -5.052,16.1703 11.974,10.291 13.798,5.141 18.164,29.757 13.256,12.46 3.77,13.375 -56.304,6.464 -25.023,25.861 -8.758,-3.88 h -11.256 v -1.292 l -12.511,-9.053 -5.631,0.09 -5.483,1.579 -3.902,0.919 -18.765,7.757 -13.761,-6.465 -15.016,9.053 -7.507,7.756 v 15.517 l -31.276,11.636 5.003,11.641 17.515,1.292 23.773,-3.881 15.011,-1.292 12.511,12.928 10.013,9.053 8.757,-6.464 v -12.933 l 15.01,-12.928 h 23.774 l 5.003,-11.636 25.023,6.464 26.273,-19.397 36.285,9.052 5.003,5.173 11.256,-3.881 1.255,6.47 6.254,5.166 6.258,-10.339 13.761,2.584 7.763,-17.798 15.989,14.316 9.443,26.701 12.629,4.04 12.798,-5.88 8.194,-9.935 14.213,-0.43 14.133,13.619 2.361,10.105 12.607,-0.425 6.168,5.762 3.855,12.141 11.73,7.533 0.207,2.562 -5.184,1.509 1.138,5.236 -0.346,3.402 -2.664,0.474 -1.287,-1.489 -15.042,0.484 1.622,2.493 9.135,6.655 0.122,2.228 -4.349,2.69 -6.556,-0.846 -1.532,-1.531 -3.663,0.293 -6.009,3.343 1.154,3.668 6.141,1.717 1.494,4.673 -0.595,3.36 5.923,2.939 4.254,0.755 0.208,3.184 9.32,4.173 -0.51,4.247 -1.462,8.309 -0.436,2.445 -2.271,1.169 -3.998,-0.712 -0.819,-2.663 -0.176,-1.919 -1.584,-1.223 -1.643,-0.925 -1.239,2.615 -1.685,2.223 -2.106,0.255 -2.558,-0.139 -1.122,-2.402 -3.296,-4.678 -3.856,-0.059 -2.371,-2.62 -4.142,-1.366 -3.983,-2.281 -1.196,-0.526 -1.749,-0.308 1.568,2.796 2.175,2.275 3.589,1.579 2.978,2.105 4.424,2.674 2.121,2.577 1.101,3.977 -1.462,8.239 -1.521,1.302 -1.021,1.393 -2.143,-1.004 -1.956,-3.498 -2.037,-1.622 -1.946,-0.659 -1.718,-0.956 -2.706,-1.717 -1.228,-1.792 -0.447,-0.393 -2.499,-0.447 1.904,3.801 0.643,0.744 1.196,0.527 2.728,2.057 0.654,3.583 6.907,4.688 -0.303,7.501 -1.696,-0.617 -1.483,2.573 -0.437,2.44 -1.925,-2.228 -1.84,-1.27 -2.392,-1.058 -0.856,0.478 0.425,1.967 -1.063,4.534 1.941,5.067 -0.936,2.349 0.229,1.616 -3.196,-0.882 -1.479,-1.834 -1.122,-2.403 -1.477,-1.839 -0.766,-2.967 -1.281,-1.488 -2.255,-0.398 -2.106,0.255 -0.973,5.496 1.425,2.142 3.217,6.549 2.813,7.426 -1.712,8.197 -2.579,1.436 -2.074,1.52 -2.249,-0.399 -1.175,-2.1 -3.818,-3.194 -1.09,-1.138 -1.207,-1.031 -2.111,-2.079 -2.393,-1.052 -1.159,0.739 -0.436,2.44 1.479,1.839 0.892,0.787 0.516,2.923 1.139,0.835 1.536,1.531 3.1,4.327 -0.771,1.441 0.622,2.312 -0.899,3.62 -1.435,2.264 -2.893,-1.143 -1.047,-4.279 -3.589,-1.584 -2.871,-2.711 -0.479,-1.658 -1.228,-1.792 -2.053,-0.053 -0.58,1.791 0.484,1.659 0.117,2.222 1.122,2.403 3.318,3.109 4.493,5.204 2.016,3.19 0.664,6.416 -1.436,2.264 -2.105,0.256 -1.25,-0.223 -0.872,-2.355 -1.515,-3.105 -2.978,-2.1 -3.498,-0.621 -1.016,-3.014 -2.749,-0.489 -2.174,-2.276 -3.861,-0.053 -2.536,-1.711 -2.249,-0.399 -0.74,2.705 -2.249,-0.398 -0.595,3.354 -0.856,0.479 0.978,1.748 -0.133,2.18 -3.095,2.913 -3.78,5.315 -1.346,3.222 -2.642,-1.095 -2.148,3.397 1.175,2.094 0.064,2.53 -3.648,3.132 -0.186,2.487 -0.771,1.435 2.137,5.417 -1.584,6.017 -1.989,2.483 -1.861,0.298 -1.233,2.615 -3.733,-2.238 -3.797,-4.763 -2.589,-1.403 -4.174,-2.632 -1.893,-0.967 -2.164,0.564 -3.344,2.87 -1.894,-0.968 -1.393,-0.876 -1.653,-3.754 -2,-0.356 -1.978,-1.924 -3.754,-0.665 -1.424,-2.141 -2.697,-0.798 -2.403,-3.886 -0.861,0.473 0.713,3.275 0.531,1.355 -0.377,2.137 0.584,1.048 -0.095,3.449 1.536,1.532 2.696,0.791 2.1,4.152 1.553,-0.042 3.254,7.819 8.885,-0.627 4.706,1.493 6.221,2.334 5.658,11.71 2.536,1.707 3.445,0.925 1.261,3.056 1.983,1.93 1.011,3.014 -1.989,2.477 -4.844,-0.552 -15.718,-8.527 -7.072,-6.613 -4.53,-1.744 -1.127,2.786 2.259,2.089 3.962,3.137 0.851,3.136 v 3.13 l -1.133,2.09 -2.265,-1.042 -1.415,-4.178 -3.673,-2.791 h -7.36 l -1.696,1.744 -0.282,6.617 2.829,3.482 3.393,0.351 1.414,1.393 2.265,-0.351 1.133,1.047 4.243,2.435 2.828,-1.393 1.133,0.351 -0.569,3.482 1.132,2.089 -0.563,2.44 -2.829,0.345 -1.414,-0.345 -3.68,-2.44 -3.393,0.696 -3.397,2.44 -4.806,1.042 -1.133,2.089 -2.547,0.697 -0.845,3.136 h -0.569 l -1.697,2.089 -3.679,1.392 -5.658,5.226 -2.26,0.696 -3.961,4.529 h -4.525 l -3.679,4.875 h -5.939 l -8.205,4.178 -5.376,-2.435 h -4.243 l -1.414,-1.398 -6.221,-1.392 -0.282,-2.089 h -3.962 l -1.132,1.393 -4.046,-1.059 -7.269,-2.073 -2.547,-1.743 -2.829,3.482 -0.282,2.785 -2.829,1.743 -0.281,1.744 -4.813,0.696 -0.563,2.09 h -1.133 l -0.281,-2.09 -7.642,0.346 -0.845,1.744 -5.376,-0.697 -1.414,1.739 -5.093,-1.739 -1.128,1.042 -4.53,0.351 2.828,3.131 0.287,3.487 2.543,3.482 v 2.435 l 3.115,6.272 1.978,6.964 0.282,2.785 v 3.833 l -2.547,-0.351 -0.564,17.069 -1.696,3.131 -3.111,1.393 -0.569,2.79 h -1.977 l -0.282,3.482 -0.569,1.393 -2.547,3.131 -2.829,-0.346 -0.282,3.482 -0.845,2.09 -2.547,-0.346 -1.414,2.089 -1.697,3.482 -1.701,0.696 -3.962,4.875 -1.696,-0.697 -1.132,1.393 h -4.525 l -1.414,-0.346 -2.261,3.132 -1.983,0.35 -0.845,3.136 -1.984,-1.047 -2.828,3.136 -2.829,-0.35 -8.487,5.225 h -9.049 l -7.923,4.529 -0.845,3.482 -5.663,9.053 -5.658,2.44 -7.492,-0.521 -2.972,-0.176 -2.547,-1.743 -2.547,0.351 0.287,-1.744 -1.414,-1.393 -4.243,2.089 -5.376,0.351 -2.829,-3.482 -2.547,-0.351 -2.265,-2.785 h -1.978 l -4.807,-2.44 -6.226,-0.346 -0.282,-2.439 -1.696,0.351 -1.415,-1.744 -3.961,0.351 -2.829,-3.136 v 0.696 l -1.132,0.346 -2.829,0.35 v 1.744 h -1.696 l -0.569,3.131 -0.845,3.136 -2.266,-1.744 -1.696,3.482 1.978,0.351 1.133,1.047 1.132,-2.094 h 5.094 l 4.244,6.273 6.789,0.696 3.675,3.827 1.978,1.398 2.546,2.786 v 2.089 l 1.702,1.042 2.26,-1.739 1.696,3.828 3.116,0.351 0.563,3.482 h 3.68 l 2.542,1.743 4.243,5.571 -1.127,-5.922 -5.094,-3.827 v -3.136 l 0.85,-2.786 1.697,-2.785 h 2.547 l 3.674,0.696 h 3.68 l 8.204,1.738 h 2.26 l 1.414,2.089 3.962,1.393 1.696,-3.482 3.679,-1.738 -0.569,-5.922 2.547,-1.047 5.658,-7.66 h 3.398 l 3.961,-5.571 1.127,1.739 3.961,-3.131 h 6.791 l 4.806,0.696 h 5.376 l 5.094,-2.44 1.133,-1.047 3.955,-1.739 1.702,-2.089 3.674,0.346 0.851,0.696 0.845,1.047 3.398,-1.743 h 2.547 l 3.111,-1.393 0.563,1.393 1.983,1.047 2.548,-0.696 -0.288,-1.744 -1.127,-3.131 h -4.812 l -0.846,-1.047 -0.568,-5.571 3.397,-3.136 h 2.829 l 1.127,0.696 h 2.266 l 4.243,-1.042 3.392,-4.88 v -2.434 l 1.983,-1.744 0.564,-9.404 2.265,-1.738 0.563,-6.272 2.83,-3.482 1.132,-2.44 1.696,-0.345 1.697,-2.786 4.243,-2.785 h 3.679 l 4.243,-2.089 0.851,-6.969 1.696,-1.739 0.846,-1.743 v -8.011 l -1.415,-2.786 h 2.547 l 1.702,-1.743 1.978,-1.042 1.414,0.346 h 2.265 l 2.829,-1.393 3.11,-0.697 1.415,1.048 3.674,-0.696 2.265,2.434 2.265,1.393 4.243,3.487 1.415,-1.393 h 1.127 l 1.983,0.346 1.697,1.392 3.392,-0.345 h 4.812 l 1.696,-0.697 2.548,3.482 3.11,-0.696 0.851,1.738 1.978,0.351 1.983,1.738 1.978,-0.696 2.265,2.44 h 4.243 l 0.282,-1.393 -0.282,-6.267 -1.701,-3.137 -0.846,-2.785 -0.282,-3.481 -1.132,-4.184 0.282,-4.178 4.243,-0.697 3.68,2.089 4.806,1.393 9.619,-3.827 2.829,-3.833 v -3.482 l 1.696,-1.047 1.415,0.697 0.85,3.135 v 3.833 l -0.569,4.179 1.415,4.529 -3.111,3.827 -0.564,4.178 -2.265,2.094 v 3.132 l 1.415,2.089 0.563,2.785 1.702,1.398 1.978,2.435 1.696,6.272 1.696,2.089 0.288,5.22 0.845,1.048 1.983,8.356 0.845,-9.404 0.569,-2.434 1.415,-4.529 v -2.44 l -2.265,-5.571 0.563,-2.786 1.414,-2.439 2.548,-2.089 2.546,1.743 2.829,2.785 6.509,3.482 V 577.16 l -0.851,-1.744 v -4.874 l 3.111,-5.226 h 1.414 l 0.85,3.482 1.415,2.089 2.829,2.089 0.85,-2.089 0.282,-5.22 1.696,-4.183 6.222,0.696 -4.807,-16.367 v -4.875 l 0.851,-5.921 0.563,-0.346 v -5.576 l -2.265,-2.089 -1.127,-3.833 1.415,-1.738 1.127,-2.44 3.961,-0.696 0.537,-1.393 5.046,6.299 4.87,-4.173 1.006,-4.231 3.86,0.053 2.621,2.668 5.7,1.329 1.042,4.279 -0.659,0.824 6.386,6.172 9.736,-1.105 12.931,4.183 3.51,3.455 -0.421,5.279 -2.148,3.396 -1.935,2.175 0.904,3.625 -10.065,6.203 -0.453,0.745 -0.106,0.611 -7.396,9.706 -1.904,3.445 -6.402,2.642 -0.43,2.44 2.174,2.275 7.684,-1.153 1.436,-2.265 1.76,-4.099 2.897,-3.263 7.763,-3.03 5.334,-5.353 3.466,-0.643 1.176,2.099 -1.814,4.402 -5.482,9.101 -6.045,2.078 -2.047,7.192 -1.542,2.876 -3.872,4.348 0.229,1.616 3.738,-2.169 4.828,-1.036 1.936,-2.174 1.005,-4.232 7.614,-10.929 3.749,-6.576 4.993,5.295 -2.005,11.296 0.101,3.796 1.425,2.142 4.807,0.536 2.727,2.057 0.57,2.621 -5.195,6.002 -4.403,2.998 -8.508,2.903 -5.136,5.698 -2.053,7.192 -1.127,2.004 1.228,1.792 4.063,-4.003 4.849,-2.6 6.333,-5.177 3.998,0.712 -0.292,3.094 -4.169,4.614 -2.312,4.311 -1.92,5.013 -1.962,8.154 -2.207,3.7 -1.914,0.606 -3.302,-0.271 -2.334,5.884 4.737,-1.993 2.106,-0.255 4.185,-1.781 6.465,-7.352 2.919,-4.832 2.282,-5.581 1.414,-0.691 2.281,1.663 0.569,2.621 2.632,-1.738 0.984,-2.658 1.802,-7.538 1.909,-7.548 1.93,-2.174 2.611,-0.171 2.196,0.707 3.472,6.598 2.133,5.416 -0.506,4.317 -1.488,2.567 -2.686,2.047 -5.333,5.347 -2.148,3.397 -4.041,9.675 0.925,2.052 1.287,1.488 1.866,-4.704 2.004,-4.051 5.004,-2.44 3.425,-1.419 1.036,-2.966 1.686,-2.223 1.393,0.878 0.207,3.189 -1.637,6.32 -1.824,1.563 -3.063,4.178 -3.126,8.894 4.732,2.413 3.663,-0.292 3.43,-1.914 0.564,-4.619 0.244,-7.198 1.479,-5.406 2.488,-2.392 2.031,1.616 0.351,3.843 3.424,2.498 3.393,1.229 5.492,-1.861 1.999,0.356 -0.185,2.488 -0.93,2.35 0.871,2.36 -1.042,2.966 -4.695,6.092 4.62,3.024 0.819,2.664 -3.11,11.726 -1.718,0.957 -2.392,-1.058 -2.462,-3.582 -2.085,-1.314 -0.489,2.743 -0.096,3.45 -0.542,3.051 -2.356,0.213 -4.003,-0.712 -3.642,-1.276 -2.499,-0.441 -3.739,2.168 3.01,3.371 -1.148,3.572 -1.606,0.345 -6.025,0.506 -2.249,-0.399 -3.807,-0.362 -2.605,0.171 -1.33,1.653 -3.217,0.691 -0.68,2.397 -0.181,1.148 0.622,0.436 1.994,-0.5 1.616,-0.265 1.26,0.032 0.649,0.207 0.676,0.26 1.791,1.297 -0.281,0.112 1.371,0.85 5.02,-0.202 5.109,-0.441 5.531,-4.215 2.828,-1.744 0.83,-0.249 0.537,-0.122 1.308,0.042 1.085,0.457 0.665,0.478 0.722,0.644 0.607,0.744 0.244,0.521 44.814,-23.602 -5.195,-1.239 -1.675,-2.184 -0.675,-2.01 7.954,-2.684 4.61,0.191 2.988,-2.307 -4.157,-4.2 -1.26,-3.056 1.02,-1.393 4.445,1.101 7.726,-4.296 5.185,-1.6 2.004,0.357 1.479,1.839 4.987,-1.951 -2.622,-2.668 -4.732,-2.414 -2.674,-2.365 0.633,-2.089 2.498,0.441 2.782,1.754 1.982,1.925 5.286,2.195 1.925,2.232 1.138,0.83 1.111,-0.431 0.564,-4.625 -0.479,-1.658 -1.505,-0.266 -1.175,-2.095 3.414,-0.34 1.632,-1.919 1.846,-3.131 0.238,-2.796 0.772,-1.435 4.088,1.669 3.127,-1.648 1.478,-5.406 4.685,-3.274 2.993,-1.999 2.59,-1.722 3.552,0.319 1.989,-2.483 1.361,-0.388 -2.143,-1.01 0.595,-3.359 -3.807,-0.362 -2.914,0.431 -4.891,-1.499 -4.823,1.036 -2.935,1.999 -1.309,0.08 -0.781,-1.398 0.239,-2.791 -1.829,1.568 -3.323,1.297 -1.627,1.914 -1.542,2.876 -1.218,1.042 -1.068,-2.706 0.845,-3.312 0.914,-0.786 1.798,-7.235 -2.196,-0.708 -2.967,0.734 -2.324,1.478 -0.574,1.786 -1.282,5.757 -2.376,1.781 -0.32,-2.573 -0.978,-1.749 -3.382,1.605 -2.259,4.008 -1.293,2.919 -0.484,2.748 0.532,1.35 -0.76,4.274 -2.18,2.132 -2.079,1.52 -2.387,-1.052 -0.756,-0.133 -2.467,0.824 -0.755,4.273 -1.717,0.952 -3.807,-0.361 -2.393,-1.053 -0.782,-1.398 -0.478,-1.658 -0.644,-0.745 -8.948,9.749 -6.685,1.329 -3.296,-4.672 1.287,-2.924 2.61,-0.165 2.999,-6.708 v 0 l 2.127,-1.829 0.899,-3.62 -1.388,-0.877 0.324,-1.829 5.063,-3.827 7.433,-1.196 1.435,-2.265 0.181,-2.487 -1.76,-3.147 -1.839,-1.271 -4.631,1.383 -2.623,-2.669 -2.073,1.52 -4.738,1.994 -1.249,-0.224 -0.319,-2.572 0.324,-1.829 1.218,-1.047 0.627,-2.089 0.271,-1.526 -3.52,0.947 -2.366,4.619 -1.095,3.269 -3.791,2.477 -1.755,-0.314 -5.844,2.43 -2.611,0.165 -0.872,-2.361 0.708,-3.965 2.669,-4.88 1.686,-2.222 3.051,0.229 1.793,-2.828 -1.835,-1.271 -3.45,-0.93 -1.554,0.042 -3.509,3.785 -2.86,0.122 -1.734,2.526 -1.611,0.345 -1.6,-4.061 -3.882,1.514 -2.605,0.165 -4.328,1.122 -1.777,-5.98 10.294,-1.324 0.867,-4.885 -1.839,-1.27 -6.956,2.859 -2.28,-1.663 -1.244,-4.63 0.323,-1.829 1.947,0.659 5.327,-0.946 -0.781,-1.398 -3.201,-0.882 -3.759,-3.498 0.595,-3.36 3.106,-0.08 2.807,0.186 5.514,3.812 1.606,-0.346 1.154,-3.572 5.466,-0.292 2.068,2.886 0.957,3.317 5.546,-2.164 2.946,0.835 3.068,3.068 3.738,-2.175 0.213,-1.217 3.504,0.617 0.51,2.929 2.882,-1.696 3.377,-1.605 1.839,1.27 2.026,6.028 5.062,-3.827 -1.01,-3.009 3.11,-0.08 0.936,2.276 1.872,5.15 3.642,1.276 6.041,-2.078 3.137,5.592 3.163,-0.383 3.845,-2.78 1.946,0.659 1.292,-2.918 3.254,0.574 0.67,-5.231 -1.424,-2.142 -2.777,1.079 -1.51,-3.099 -1.728,-1.882 -3.663,0.298 -2.701,-0.797 -2.43,2.089 -1.426,-2.143 -2.982,-2.104 -2.415,0.52 -0.738,-4.539 -3,-0.532 -4.471,0.463 -1.659,0.653 -2.18,-2.275 0.978,-5.496 -1.287,-1.489 -2.552,-0.138 -3.434,1.914 -2.989,2.301 -3.935,1.824 -0.457,-3.232 1.957,-3.748 1.733,-2.525 0.542,-3.051 1.686,-2.222 1.595,-3.179 -1.249,-0.223 -2.882,1.696 -2.521,1.127 -1.489,2.567 -2.323,1.478 -3.34,-1.536 -2.498,0.754 -2.883,0.495 0.266,2.881 -1.882,1.872 -0.872,-2.361 -2.791,2.652 0.228,1.617 -3.323,1.297 -1.871,-2.536 -4.196,-1.058 -3.414,0.34 -2.52,1.127 -1.888,-5.374 -1.674,-2.185 -6.817,-3.726 -3.323,1.297 -2.063,-7.293 3.131,-1.648 1.447,0.574 1.781,1.574 2.892,1.142 3.456,-3.481 1.75,0.313 1.84,1.271 9.076,-0.282 5.078,-0.989 3.377,-1.6 -0.314,-2.578 -4.11,-0.095 -2.153,-3.849 -1.16,-3.668 -1.175,-2.1 -2.499,-0.441 -2.404,-3.891 4.419,-4.566 -1.425,-2.143 -2.76,-6.108 15.761,-12.444 1.217,0.925 0.825,9.903 2.121,2.584 1.994,4.757 2.834,1.452 2.755,0.489 1.52,-1.308 0.931,-2.355 2.882,-1.69 3.493,5.028 2.291,-2.742 0.442,-6.847 0.931,-2.355 2.004,0.356 -0.75,7.107 4.244,5.162 5.519,-7.841 0.117,-5.012 -0.995,-4.588 1.404,-3.53 2.77,-1.079 2.569,2.972 1.547,4.37 0.809,7.069 -0.633,13.742 2.775,6.155 1.377,-1.956 3.345,-2.871 3.525,-0.951 6.392,1.765 4.796,4.943 1.525,5.938 0.718,-1.132 0.463,-8.42 -1.047,-4.28 -2.707,-3.625 -12.219,-0.909 -1.441,-4.975 -2.526,-6.119 -0.632,-5.151 3.089,1.494 3.1,4.327 5.945,1.371 1.154,-3.571 -5.068,-3.419 -3.286,-1.844 -2.249,-0.399 -0.048,-4.098 -1.494,-4.673 -2.249,-0.399 0.398,-3.71 -2.738,-4.896 -2.505,-0.441 0.49,-2.748 -3.536,-9.128 3.834,-5.618 5.955,4.205 4.222,4.295 10.794,12.853 2.781,1.755 4.971,-0.383 0.192,-6.89 0.713,-1.132 -0.836,-1.095 1.686,-2.217 1.117,2.403 2.967,-0.734 -0.33,6.236 2.664,6.772 -1.526,5.709 0.707,3.275 2.568,2.971 2.749,0.489 0.564,-4.619 1.717,-0.957 5.679,10.137 -2.871,8.936 6.939,5.954 5.407,-7.23 1.17,-5.14 2.983,2.1 1.164,6.506 -0.18,9.728 5.477,6.953 -0.33,1.828 3.78,6.337 5.248,0.936 1.729,1.876 0.388,5.108 2.909,-0.43 1.264,3.062 5.611,0.361 -1.388,6.368 -0.314,4.668 4.265,3.588 2.993,4.938 0.223,6.023 1.404,3.71 -0.511,4.322 2.016,3.189 2.276,-5.576 1.6,-3.184 4.604,0.192 4.723,-0.426 2.823,-1.387 3.292,-2.568 -5.951,-8.611 -3.392,-1.228 -0.542,3.051 -3.186,1.956 -2.456,-3.588 -7.056,-0.936 1.005,-4.225 4.956,-3.217 -0.729,-1.706 -2.696,-0.792 -2.727,-2.057 1.659,-0.649 -1.729,-1.882 1.968,-0.908 1.749,0.308 2.143,1.01 5.057,0.579 0.627,-2.089 -0.904,-3.625 -2.998,-0.532 -2.245,-4.805 0.761,-4.274 -2.765,-3.322 -0.596,3.354 -4.684,1.691 -3.339,-1.537 0.739,-2.705 -5.2,-1.234 -6.44,-5.863 -3.408,0.335 0.287,-3.094 1.255,0.223 0.862,-4.885 -1.367,-2.45 -2.558,-0.139 0.846,-3.311 2.361,-0.213 0.585,1.052 1.504,0.266 0.835,1.09 4.142,1.366 6.371,-3.907 4.631,-1.382 -0.819,-2.663 -4.945,-1.196 0.43,-2.44 -1.643,-0.92 0.761,-4.274 3.913,-0.249 4.791,-2.302 -2.531,-1.707 -3.286,-1.844 -1.436,2.264 -11.027,4.03 -2.457,3.657 -8.699,-1.86 -3.302,-0.272 -2.068,-2.886 2.499,0.446 6.545,-1.988 0.771,-1.435 -1.622,-2.493 -4.195,-1.058 -0.973,-6.156 -2.036,-1.621 -3.999,-0.707 -3.967,0.553 -2.175,-2.275 1.718,-0.957 8.008,-2.982 7.215,0.016 3.127,2.759 7.694,1.679 2.935,-1.998 -0.261,-2.881 -5.785,-2.281 -5.711,-4.162 0.564,-4.625 -2.143,-1.01 -9.938,0.76 -2.594,2.999 -2.85,-4.28 -5.753,-1.02 -2.542,2.695 -2.478,-2.015 1.074,-1.696 -0.122,-2.227 -8.338,-2.424 1.021,-1.393 -5.929,-2.939 -1.425,-2.143 -3.802,-0.361 -0.983,-1.744 -3.499,-0.621 -0.319,-2.579 -1.76,-3.147 2.164,-0.558 2.031,1.621 4.642,1.452 4.254,0.755 2.021,-1.218 0.377,-2.136 1.446,0.574 1.069,2.705 5.163,-0.026 8.502,1.504 5.392,1.59 0.325,-1.834 -1.101,-3.972 1.999,0.357 2.483,2.009 2.84,1.451 2.323,-1.478 -0.675,-2.009 -3.674,-2.541 -2.59,-1.403 -1.515,-3.099 -2.425,-2.323 -3.945,-1.015 -0.128,2.185 -1.653,3.481 -1.893,-0.962 0.383,-2.137 1.159,-0.739 0.217,-1.223 -0.946,-0.483 -1.085,-1.138 1.431,-2.264 1.633,-1.914 7.002,1.244 2.834,1.446 4.057,0.404 0.377,-2.137 -1.871,-2.536 -5.795,-5.119 -6.355,-4.906 -5.067,-3.418 -3.749,-0.665 -5.205,3.168 0.972,-5.491 -8.252,-1.461 -1.185,-4.939 -4.674,-2.716 1.627,-1.914 3.382,-1.605 6.359,0.499 11.555,1.734 6.024,-0.505 1.627,-1.914 5.338,1.887 2.34,1.36 2.653,3.934 5.429,2.855 2.371,2.621 5.631,1.211 0.091,3.376 2.493,3.381 0.947,4.364 2.234,2.913 0.159,2.966 2.855,1.351 2.303,-7.15 5.099,-1.616 2.265,0.824 -0.665,9.536 3.813,-0.165 -1.053,4.014 -2.866,4.529 -1.292,1.451 -1.531,4.763 -0.032,2.094 9.454,2.935 3.477,-0.224 1.303,-7.324 2.504,-2.494 1.776,-8.08 -0.611,-4.306 3.945,4.897 3.568,3.152 -1.75,5.985 3.164,3.503 -2.419,5.869 -0.027,2.089 -1.201,4.827 -2.154,6.336 3.361,-1.504 1.244,-3.137 3.19,1.404 8.348,-4.396 2.042,2.041 -0.649,3.662 -2.052,3.833 -3.318,3.189 -2.956,1.159 -2.202,4.646 0.234,2.557 8.221,0.202 1.276,4.423 -1.202,4.827 -0.388,4.124 0.829,3.089 -1.388,3.949 0.638,2.212 -1.605,5.177 0.941,4.365 3.174,-2.377 3.435,-1.908 0.84,-2.791 2.739,0.064 v 0 l 1.813,-0.515 1.186,1.047 0.08,9.249 -1.665,-0.292 -1.249,3.136 -0.718,4.072 0.345,3.838 -2.387,3.774 0.947,4.364 8.332,1.478 v 0 l 1.122,1.457 -1.723,3.896 -2.218,0.867 0.235,2.556 2.445,1.696 2.813,-0.34 0.957,-1.515 1.829,3.264 -0.797,4.476 -0.909,3.194 2.584,6.756 3.839,-2.259 -2.377,-2.099 -1.015,-3.96 -0.048,-1.685 1.621,-1.393 2.957,-1.154 1.031,-1.918 1.34,-5.635 0.623,-1.569 3.264,0.994 2.015,4.136 0.468,5.125 2.063,5.82 2.016,4.136 3.19,1.408 3.031,-1.562 0.313,-3.721 1.409,-0.176 1.447,1.52 3.86,1.521 1.053,-4.008 2.51,-2.493 2.43,-2.089 -0.522,-0.931 -1.855,-1.169 -1.452,-1.521 -2.93,-0.935 -3.089,-3.907 -6.524,-1.999 0.654,-3.662 -1.526,-1.106 -3.191,-1.409 -2.664,-0.473 -3.147,0.282 -0.085,-3.375 3.355,-1.526 2.244,-0.84 3.334,0.59 4.216,-0.51 0.622,-1.568 -1.191,-1.053 -1.664,-0.292 -2.233,-2.919 -1.787,-1.573 -2.595,-0.883 -5.407,-0.537 -5.1,1.611 -2.259,-0.819 -0.638,-2.211 3.142,-0.282 1.813,-0.52 1.622,-1.393 0.574,-3.253 0.84,-2.791 -0.855,-0.989 -2.808,0.34 -2.191,-1.228 -2.148,0.458 -0.117,-1.281 0.553,-1.159 1.84,-2.616 0.218,-1.217 -2.334,-0.414 -2.617,-4.663 -0.303,-2.153 -0.042,-1.685 -4.525,-1.642 -0.899,-2.679 1.547,-0.984 5.642,3.099 2.611,4.663 4.004,0.707 6.046,2.753 0.43,-2.445 -1.494,-3.2 0.696,-1.978 -1.568,-2.796 -1.595,-0.702 -2.845,-7.224 -2.005,-0.356 -1.924,-0.76 -1.09,-3.551 -1.638,-2.392 -0.133,-5.06 2.116,1.636 1.925,0.761 0.904,2.679 7.684,5.14 1.026,-1.913 2.552,-0.808 0.898,2.679 3.994,6.581 -0.537,4.943 0.712,1.807 0.639,2.212 2.482,-0.399 -0.165,-2.966 -0.446,-1.34 1.622,-1.392 1.117,1.456 1.898,2.855 1.015,3.96 2.526,1.286 0.595,0.527 0.941,4.364 6.673,1.186 1.08,-6.109 0.409,-0.345 1.197,-4.827 -0.856,-0.988 -2,-0.356 -1.233,-2.738 2.882,-0.75 3.483,-0.223 0.824,3.088 2.525,1.287 1.133,5.236 -0.388,4.13 -1.202,4.827 1.048,1.861 -1.436,2.269 3.722,-3.54 3.562,-6.506 0.724,-4.067 1.664,0.292 0.829,3.089 -1.095,11.976 -0.936,5.295 0.713,1.802 0.771,7.277 3.579,-2.727 0.733,-9.946 1.297,-7.325 3.233,-5.028 1.952,-2.866 1.334,0.234 1.521,1.111 -0.718,4.072 0.99,6.049 1.536,4.891 0.133,5.06 -0.893,6.98 2.132,5.417 2.696,-1.622 1.807,-10.174 0.128,-4.593 -1.09,-3.556 1.478,-0.574 3.669,0.649 3.307,2.684 2.085,3.731 -0.24,3.318 1.67,9.951 -1.244,3.136 -1.345,5.64 -1.936,5.114 1.962,8.324 2.196,-4.651 4.743,0.42 1.276,4.428 0.713,1.802 2.451,1.696 4.35,4.55 0.143,-0.813 -0.495,-3.025 -2.637,-2.568 -1.919,-6.639 -1.106,-7.33 0.579,-3.259 2.595,0.882 5.774,8.16 3.701,2.339 1.596,0.702 1.276,-1.451 1.382,0.233 2.18,2.919 1.755,5.762 -0.798,6.57 0.054,5.471 1.382,3.609 1.914,2.854 2.339,2.509 4.786,0.016 -1.222,-2.737 0.106,-4.598 -2.606,-4.657 0.372,-2.036 1.755,-0.112 2.286,2.51 2.606,0.876 4.785,7.985 3.722,0.244 0.905,-1.105 4.573,1.238 2.29,2.504 2.34,-3.365 -0.16,-8.84 -1.6,-4.486 -3.35,-0.59 -3.19,0.685 -5.955,-1.467 -1.17,-3.147 -4.838,-1.701 -3.297,-8.559 -4.413,-0.361 -4.094,-9.961 -3.563,-1.059 -1.489,-3.2 -12.112,-5.507 0.579,-3.253 3.435,-1.908 -2.037,-7.921 -1.855,-1.169 1.435,-2.265 0.505,-2.849 2.563,2.977 0.235,2.557 3.424,1.877 2.552,5.065 4.732,2.514 -1.329,-6.113 1.648,-1.387 3.031,2.216 3.563,3.153 2.605,6.756 3.882,-2.669 0.957,2.276 0.797,3.492 2.712,2.158 1.117,-4.417 -2.021,-4.135 1.489,-2.675 -0.425,-3.428 5.37,0.946 4.467,7.516 1.01,6.05 2.39,-3.774 2.18,-2.552 3.57,-0.627 -1.07,11.572 5.48,0.133 4.15,1.989 1.27,-5.231 6.28,3.216 0.53,8.898 5.95,1.069 0.59,2.615 -2.13,4.242 2.93,3.035 0.63,11.865 -0.79,4.481 0.05,3.37 4.2,3.679 3.46,-0.223 2.28,-1.271 1.7,0.293 1.86,-4.705 3.67,0.649 2.93,0.94 2.66,-1.621 0.42,-4.13 3.41,3.965 3.03,-1.562 4.2,1.584 2.07,-2.148 2.82,1.754 4.84,-2.078 4.78,0.016 8.35,-2.307 -4.2,-3.673 -4.09,-1.994 -2.98,-0.531 -2.39,-4.195 -3.67,-0.648 -3.67,1.441 -3.14,0.281 -4.73,-0.42 -1.65,-4.481 -0.8,-3.088 2.45,-0.399 1.43,-2.265 -1.43,-1.514"
     fill="#44546a"
     fill-rule="evenodd"
     fill-opacity="0.0588235"
     id="D18-Uptown" />
  <path
     d="m 477.583,176 51.39,15.081 7.52,11.311 2.507,6.284 -3.76,7.54 -5.014,11.311 -13.787,-2.513 -6.267,10.054 -6.267,-5.027 -1.254,-6.284 -11.28,3.77 -5.014,-5.027 -36.348,-8.797 -26.321,18.851 -25.068,-6.284 -5.013,11.311 h -23.815 l -15.041,12.568 v 12.567 l -8.774,6.284 -10.027,-8.797 -12.533,-12.568 -15.041,1.257 -23.815,3.77 -17.547,-1.256 -5.014,-11.311 31.335,-11.311 v -15.081 l 7.52,-7.541 15.041,-8.797 13.787,6.283 18.801,-7.54 c 11.689,-2.604 7.429,-2.514 12.534,-2.514 h 2.507 l 12.534,8.798 v 1.256 h 11.28 l 8.774,3.771 25.068,-25.135 z"
     fill="#a6a6a6"
     fill-rule="evenodd"
     fill-opacity="0.698039"
     id="D18-Precinct8" />
  <path
     d="m 549.578,171.191 -6.465,-53.666 16.462,-3.532 12.88,-11.21 2.654,-11.16 -14.826,-13.4547 -2.773,-18.6562 -9.289,-13.9997 -15.355,-3.6513 -29.242,4.2165 -21.6,-2.6542 -21.999,4.0772 -15.444,9.3593 -4.38,5.7848 -5.348,12.3809 -13.02,11.7976 -5.048,16.1758 11.972,10.294 13.799,5.143 18.158,29.761 13.259,12.462 4.34,19.649 46.782,12.986 10.546,8.714 8.909,-9.672 0.21,-18.568 z"
     fill="#a6a6a6"
     fill-rule="evenodd"
     fill-opacity="0.698039"
     id="D18-Precinct6" />
  <path
     d="m 696.796,186.257 22.797,-17.54 1.397,-5.873 19.435,-5.928 2.334,-19.924 -12.032,-25.202 -13.489,1.136 -7.762,12.428 -9.628,7.639 -11.643,0.955 -2.873,-8.13 -14.866,-23.393 -9.239,-1.577 -14.735,8.907 -6.256,-1.487 -3.741,-12.0602 -14.507,-4.6908 -47.42,4.8584 -2.385,7.5006 -12.6,10.035 -16.183,2.358 1.477,14.004 65.059,1.818 28.315,12.318 43.001,26.361 z"
     fill="#a6a6a6"
     fill-rule="evenodd"
     fill-opacity="0.698039"
     id="D18-Precinct7C" />
  <path
     d="m 697.448,186.732 22.937,-18.128 4.979,1.805 17.449,-5.159 17.47,-0.19 17.549,-15.685 13.379,6.905 15.534,13.002 6.426,8.355 2.584,6.82 -7.194,12.562 -2.663,8.675 -4.66,6.96 2.066,19.108 -17.191,-0.985 -16.172,4.842 -8.221,4.251 0.738,7.002 37.494,-1.013 14.945,7.898 8.401,5.1 1.865,4.788 -6.215,8.451 -36.905,6.118 -10.057,6.917 -14.207,-0.896 -5.228,6.824 0.479,13.146 -6.554,30.09 -10.606,11.752 6.595,-55.525 -7.673,-35.956 -15.365,-41.508 z"
     fill="#a6a6a6"
     fill-rule="evenodd"
     fill-opacity="0.698039"
     id="D18-Precinct7B" />
  <path
     d="m 549.205,173.48 -4.42,-38.345 26.146,-3.746 13.697,0.49 23.46,2.895 24.332,7.884 18.693,8.752 21.239,13.409 21.052,18.861 17.423,20.841 11.111,18.821 12.943,32.937 7.443,33.148 -5.107,-1.115 -4.379,7.055 -1.702,3.502 -4.467,2.918 -0.372,-3.94 -2.587,-0.289 -0.223,-2.364 -1.955,2.419 -2.983,1.81 -2.191,-2.387 -2.49,1.533 -1.3,4.482 -2.007,2.665 -3.1,-0.14 -1.103,-5.038 2.815,-4.21 -7.827,1.35 0.421,-6.175 -6.571,-28.159 -11.903,-27.226 -17.314,-22.877 -23.51,-19.38 -24.282,-12.678 -26.552,-8.01 -19.912,-1.459 z"
     fill="#a6a6a6"
     fill-rule="evenodd"
     fill-opacity="0.698039"
     id="D18-Precinct7A" />
  <path
     d="m 535.398,206.947 6.482,-7.898 3.053,-3.817 -1.546,-18.518 25.77,-3.482 21.586,1.126 30.14,7.737 21.726,11.109 24.361,19.903 16.562,23.405 10.644,25.587 6.891,27.025 -5.405,-5.946 -3.032,0.303 -2.471,3.34 -3.689,-2.667 -3.179,-2.044 -21.136,4.718 -11.728,-7.539 -3.855,-12.14 -6.165,-5.764 -12.607,0.427 -2.358,-10.109 -14.134,-13.624 -14.212,0.431 -8.197,9.939 -12.796,5.878 -12.627,-4.039 -9.445,-26.707 z"
     fill="#a6a6a6"
     fill-rule="evenodd"
     fill-opacity="0.698039"
     id="D18-Precinct5" />
  <path
     d="m 605.559,411.798 v 0 l 12.477,15.44 11.689,-12.097 12.643,-16.022 7.926,-15.6 4.166,-11.857 4.288,-9.631 c 0.571,-2.733 1.142,-5.466 1.713,-8.199 l -5.426,-2.852 -1.792,2.831 -2.271,1.172 -4.001,-0.71 -0.817,-2.664 -0.175,-1.921 -1.588,-1.226 -1.642,-0.921 -1.237,2.614 -1.684,2.221 -2.108,0.256 -2.555,-0.139 -1.121,-2.403 -1.425,-2.142 -1.872,-2.537 -3.859,-0.054 -2.371,-2.625 -4.142,-1.365 -3.98,-2.281 -1.196,-0.527 -1.75,-0.31 1.567,2.797 2.175,2.275 3.588,1.582 2.98,2.103 4.426,2.674 2.121,2.581 1.1,3.974 -0.866,4.885 -0.596,3.359 -1.521,1.304 -1.021,1.394 -2.142,-1.01 -1.959,-3.497 -2.034,-1.62 -1.946,-0.66 -1.642,-0.921 -2.784,-1.754 -1.229,-1.793 -0.446,-0.394 -2.5,-0.443 1.904,3.802 0.642,0.743 1.196,0.527 2.73,2.059 0.654,3.58 6.906,4.689 -0.3,7.505 -1.696,-0.616 -1.488,2.571 -0.433,2.442 -1.926,-2.231 -1.837,-1.271 -2.392,-1.054 -0.859,0.478 0.425,1.965 -1.062,4.535 1.938,5.067 -0.934,2.354 0.23,1.615 -3.197,-0.882 -1.479,-1.837 -1.121,-2.403 -1.48,-1.837 -0.763,-2.97 -1.283,-1.487 -2.251,-0.399 -2.108,0.255 -0.488,2.748 -0.487,2.748 1.425,2.142 3.222,6.555 0.479,1.66 2.33,5.767 c -0.553,2.631 -1.106,5.262 -1.658,7.893 z"
     fill="#a6a6a6"
     fill-rule="evenodd"
     fill-opacity="0.698039"
     id="SouthCliffHotelandCliffResidentialPrecinct" />
  <path
     d="m 506.879,482.467 -3.255,-7.82 -1.554,0.039 -2.101,-4.152 -2.696,-0.793 -1.533,-1.532 0.095,-3.447 -0.587,-1.049 0.379,-2.137 -0.534,-1.354 -0.708,-3.275 0.858,-0.477 2.405,3.89 2.696,0.793 1.425,2.143 3.751,0.665 1.98,1.926 2,0.355 1.654,3.757 1.392,0.877 1.892,0.965 v 0 l 3.347,-2.87 2.163,-0.561 1.892,0.966 4.175,2.63 2.588,1.404 2.121,2.58 1.676,2.187 3.73,2.236 1.237,-2.614 1.859,-0.3 1.988,-2.482 v 0 l 1.583,-6.017 -2.134,-5.417 0.771,-1.438 0.183,-2.487 3.651,-3.131 -0.067,-2.531 -1.175,-2.099 2.15,-3.397 2.642,1.099 1.346,-3.226 2.042,-2.787 1.737,-2.526 2.184,-2.131 0.913,-0.783 0.129,-2.182 -0.98,-1.748 0.859,-0.478 0.596,-3.358 2.25,0.399 0.737,-2.703 2.251,0.399 2.534,1.709 3.859,0.055 2.175,2.275 2.75,0.488 1.013,3.014 3.501,0.621 2.979,2.104 1.513,3.102 0.871,2.359 1.251,0.222 2.108,-0.256 1.434,-2.265 -0.667,-6.416 -2.013,-3.192 -2.763,-3.324 -1.73,-1.882 -3.317,-3.107 -1.121,-2.404 -0.121,-2.225 -0.479,-1.66 0.575,-1.788 2.054,0.05 1.23,1.793 0.479,1.659 2.871,2.714 3.588,1.581 1.046,4.28 2.893,1.143 1.433,-2.265 0.9,-3.619 -0.621,-2.315 0.771,-1.438 -3.101,-4.329 -1.533,-1.532 -1.142,-0.832 -0.513,-2.925 -0.892,-0.788 -1.479,-1.837 0.433,-2.443 1.163,-0.738 2.392,1.054 1.979,1.926 1.338,1.182 1.088,1.138 v 0 l 3.817,3.196 1.176,2.098 2.25,0.399 2.075,-1.521 2.576,-1.433 12.227,15.396 -2.15,3.397 -8.714,6.957 -8.192,5.475 -12.573,6.902 7.401,-2.466 5.135,24.844 6.014,3.901 -1.988,2.482 -1.454,3.836 -1.367,4.796 1.963,10.74 -14.91,5.543 -16.673,2.395 -16.186,-0.352 -8.61,-0.897 -6.842,9.493 -6.602,-4.95 8.61,0.897 1.988,-2.481 -1.013,-3.014 -1.98,-1.926 -1.262,-3.058 -3.447,-0.927 -2.534,-1.709 -5.659,-11.711 -6.285,-2.374 -4.642,-1.454 z"
     fill="#a6a6a6"
     fill-rule="evenodd"
     fill-opacity="0.698039"
     id="StadiumPrecinct" />
  <path
     d="m 682.562,392.078 35.264,20.742 10.113,-29.382 -38.031,-12.415 -3.721,12.251 z"
     fill="#a6a6a6"
     fill-rule="evenodd"
     fill-opacity="0.698039"
     id="AquaticCenterPrecinct" />
  <path
     d="m 607.228,475.077 30,-20.816 21.877,-24.461 19.543,-37.471 8.813,-22.055 -27.929,-6.845 -9.038,27.684 -13.118,21.606 -23.073,23.934 -18.549,11.51 3.873,21.786 z"
     fill="#a6a6a6"
     fill-rule="evenodd"
     fill-opacity="0.698039"
     id="E-GamesandIndoorArenaPrecinct" />
  <g
     id="UptownEastandSouthCliffVillas">
    <path
       d="m 520.495,500.359 24.505,13.234 -1.14,2.786 -3.989,0.697 -1.14,2.438 -1.424,1.741 0.569,1.742 0.57,2.089 2.28,2.09 v 5.572 l -0.57,0.349 -0.855,5.92 v 4.876 l 4.844,16.369 -6.269,-0.696 -1.709,4.179 -0.285,5.224 -0.855,2.09 -2.849,-2.09 -1.425,-2.09 -0.855,-3.482 h -1.425 l -3.134,5.224 v 4.876 l 0.855,1.741 v 10.448 0 l -6.554,-3.483 -2.849,-2.786 -2.565,-1.741 -2.564,2.09 -1.425,2.437 -0.57,2.787 2.28,5.572 V 593 l -1.425,4.528 -0.57,2.438 -0.855,9.403 -1.994,-8.359 -0.855,-1.044 -0.285,-5.225 -1.71,-2.089 -1.709,-6.269 -1.995,-2.438 -1.71,-1.393 -0.569,-2.786 -1.425,-2.09 v -3.134 l 2.279,-2.09 0.57,-4.18 3.135,-3.831 -1.425,-4.527 0.57,-4.18 v -3.831 l -0.855,-3.134 -1.425,-0.696 -1.709,1.044 v 3.483 l -2.85,3.831 -9.688,3.831 -4.844,-1.393 -3.704,-2.09 -1.995,0.349 -2.279,0.348 -0.285,4.179 1.14,4.179 0.285,3.483 0.854,2.787 1.71,3.134 0.285,6.269 -0.285,1.393 h -4.274 l -2.28,-2.438 -1.994,0.697 -1.995,-1.742 -1.994,-0.348 -0.855,-1.741 -3.135,0.696 -2.564,-3.482 -1.71,0.696 h -4.844 l -3.419,0.348 -1.71,-1.393 -1.994,-0.348 h -1.14 l -1.425,1.393 -4.274,-3.483 -2.279,-1.393 -2.28,-2.438 -3.704,0.697 -1.425,-1.045 -3.134,0.696 -2.85,1.394 h -2.279 l -1.425,-0.349 -1.994,1.045 -1.71,1.742 h -2.564 l 1.424,2.786 v 8.01 l -0.855,1.741 -1.709,1.742 -0.855,6.965 -4.274,2.09 h -3.704 l -2.565,1.741 -1.709,1.045 -1.71,2.786 -1.71,0.349 -1.14,2.438 -2.849,3.482 -0.57,6.269 -2.279,1.742 -0.57,9.403 -1.995,1.742 v 2.437 l -3.419,4.876 -4.274,1.045 h -2.28 l -1.14,-0.696 h -2.849 l -3.419,3.134 0.57,5.573 0.854,1.044 h 4.844 l 1.14,3.135 0.285,1.741 -2.564,0.697 -1.995,-1.045 -0.57,-1.393 -3.134,1.393 h -2.565 l -1.424,0.696 -1.995,1.045 -0.855,-1.045 -0.855,-0.696 -3.704,-0.348 -1.71,2.089 -3.989,1.742 -1.139,1.045 -5.129,2.437 h -5.414 l -4.844,-0.696 h -2.85 -3.989 l -3.989,3.134 -1.14,-1.741 -1.709,2.438 -2.28,3.134 h -3.419 l -5.699,7.663 -2.565,1.044 0.57,5.921 -3.704,1.741 -1.71,3.483 -3.989,-1.393 -1.424,-2.09 h -2.28 l -8.263,-1.741 h -3.705 l -3.704,-0.697 h -2.564 l -1.71,2.787 -0.855,2.786 v 3.134 l 5.129,3.831 1.14,5.921 -4.274,-5.572 -2.565,-1.742 h -3.134 -0.57 l -0.57,-3.482 -3.134,-0.349 -1.71,-3.831 -2.279,1.742 -1.71,-1.045 v -2.09 l -2.564,-2.786 -1.995,-1.393 -3.704,-3.831 -6.839,-0.697 -4.274,-6.269 h -5.129 l -1.14,2.09 -1.139,-1.045 -1.995,-0.348 1.71,-3.483 2.279,1.741 0.855,-3.134 0.57,-3.135 h 1.71 V 653.6 l 2.849,-0.348 1.14,-0.348 v -0.697 l 2.849,3.134 3.989,-0.348 1.425,1.742 1.71,-0.349 0.285,2.438 6.268,0.348 4.844,2.438 h 1.995 l 2.28,2.787 2.564,0.348 2.849,3.483 5.414,-0.349 4.274,-2.089 1.425,1.393 -0.285,1.741 2.565,-0.348 2.564,1.741 1.71,0.349 2.564,-0.349 6.269,0.697 5.699,-2.438 2.849,-4.528 2.85,-4.527 0.854,-3.483 4.844,-2.786 3.135,-1.742 h 4.844 4.274 l 3.989,-2.438 4.559,-2.786 2.849,0.348 2.85,-3.134 1.995,1.045 0.854,-3.135 1.995,-0.348 2.279,-3.134 1.425,0.348 h 1.71 2.849 l 1.14,-1.393 1.71,0.696 3.989,-4.876 1.709,-0.696 1.71,-3.483 1.425,-2.089 2.564,0.348 0.855,-2.09 0.285,-3.483 2.849,0.349 2.565,-3.135 0.57,-1.393 0.285,-3.483 h 1.994 l 0.57,-2.786 3.135,-1.393 1.709,-3.135 0.57,-17.065 2.565,0.348 v -3.831 l -0.285,-2.786 -1.995,-6.965 -3.134,-6.269 v -2.438 l -2.565,-3.483 -0.285,-3.483 -2.849,-3.134 4.559,-0.349 1.14,-1.045 5.129,1.742 1.424,-1.742 5.414,0.697 0.855,-1.741 7.693,-0.349 0.285,2.09 h 1.14 l 0.57,-2.09 4.844,-0.696 0.285,-1.742 2.849,-1.741 0.285,-2.786 2.85,-3.483 2.564,1.742 5.984,1.741 5.414,1.393 1.14,-1.393 h 3.989 l 0.285,2.09 6.269,1.393 1.424,1.393 h 4.274 l 5.414,2.438 8.263,-4.18 h 5.984 l 3.704,-4.875 h 4.559 l 3.99,-4.528 2.279,-0.697 5.699,-5.224 3.704,-1.393 1.71,-2.09 h 0.57 l 0.855,-3.134 2.564,-0.697 1.14,-2.089 4.844,-1.045 3.419,-2.438 3.419,-0.696 3.705,2.437 1.424,0.349 2.85,-0.349 0.57,-2.437 -1.14,-2.09 0.57,-3.483 -1.14,-0.348 -2.849,1.393 -4.274,-2.438 -1.14,-1.045 -2.28,0.348 -1.424,-1.393 -3.42,-0.348 -2.849,-3.483 0.285,-6.617 1.709,-1.741 h 7.409 l 3.704,2.786 1.425,4.179 2.279,1.045 1.14,-2.09 v -3.134 l -0.855,-3.135 -3.989,-3.134 -2.279,-2.09 1.139,-2.786 4.559,1.741 z"
       fill="#a6a6a6"
       fill-rule="evenodd"
       fill-opacity="0.698039"
       id="path27" />
    <path
       d="m 783.298,384.442 -3.522,23.728 4.595,1.235 0.089,3.375 2.495,3.382 0.945,4.366 2.234,2.916 0.161,2.968 2.856,1.346 v 0 l 2.3,-7.15 5.101,-1.614 2.261,0.821 -0.66,9.54 3.811,-0.163 -1.055,4.011 -2.867,4.53 -1.289,1.451 -1.534,4.767 -0.027,2.094 5.523,1.82 3.928,1.116 v 0 l 3.479,-0.222 0.722,-4.071 0.577,-3.257 2.506,-2.494 1.056,-4.012 0.722,-4.07 -0.611,-4.308 v 0 l 3.945,4.899 3.567,3.152 -1.75,5.988 3.162,3.5 -1.317,3.545 -1.1,2.325 -0.028,2.094 -1.2,4.826 -2.155,6.335 3.361,-1.503 1.245,-3.138 3.189,1.406 3.768,-1.851 4.578,-2.547 2.045,2.042 -0.65,3.664 -2.056,3.834 -3.317,3.19 -2.956,1.156 -1.1,2.324 -1.1,2.324 0.233,2.561 4.073,0.302 4.145,-0.104 1.278,4.425 -1.199,4.826 -0.389,4.13 0.828,3.086 -1.389,3.953 0.639,2.212 -1.606,5.174 0.945,4.366 3.173,-2.376 3.433,-1.91 0.839,-2.79 2.74,0.066 1.811,-0.519 1.189,1.051 0.134,5.062 -0.056,4.189 -1.667,-0.295 -1.244,3.138 -0.722,4.071 0.35,3.841 v 0 l -2.389,3.775 0.945,4.366 3.667,0.651 4.667,0.828 1.117,1.458 -1.722,3.893 -2.217,0.866 0.233,2.561 2.451,1.694 2.811,-0.341 0.956,-1.51 1.828,3.264 -0.794,4.478 -0.911,3.197 2.584,6.757 v 0 l 3.839,-2.258 -2.378,-2.102 -1.017,-3.959 -0.045,-1.688 1.623,-1.391 2.956,-1.155 1.028,-1.918 1.344,-5.639 0.622,-1.57 3.262,0.999 2.017,4.137 0.467,5.121 2.062,5.824 2.017,4.137 3.189,1.406 3.028,-1.562 0.317,-3.723 1.406,-0.171 1.45,1.517 3.856,1.524 1.056,-4.011 2.506,-2.495 2.433,-2.088 -0.522,-0.932 -1.856,-1.169 -1.45,-1.517 -2.928,-0.939 -3.09,-3.907 -6.523,-1.998 0.65,-3.663 -1.523,-1.11 v 0 l -3.189,-1.406 -2.667,-0.473 v 0 l -3.145,0.282 -0.089,-3.375 3.361,-1.503 2.217,-0.866 3.334,0.591 4.217,-0.511 0.623,-1.569 -1.189,-1.051 -1.667,-0.296 -2.234,-2.915 -1.784,-1.577 -2.595,-0.88 v 0 l -5.406,-0.539 v 0 l -5.101,1.614 -2.261,-0.821 -0.64,-2.212 3.145,-0.282 1.812,-0.519 1.622,-1.391 0.578,-3.257 0.839,-2.79 -0.856,-0.992 -2.811,0.341 -2.19,-1.228 -2.144,0.459 -0.117,-1.28 0.55,-1.162 1.839,-2.613 0.217,-1.221 -2.334,-0.414 v 0 l -2.612,-4.663 -0.306,-2.153 -0.044,-1.688 -2.262,-0.821 -2.261,-0.821 -0.9,-2.679 1.55,-0.984 3.451,1.871 2.189,1.228 2.611,4.663 4.001,0.709 6.046,2.752 0.433,-2.442 -1.495,-3.204 0.695,-1.977 -1.567,-2.797 -1.595,-0.703 -2.845,-7.223 -2.001,-0.354 -1.928,-0.762 -1.089,-3.553 -1.639,-2.39 -0.134,-5.062 2.117,1.635 1.928,0.762 0.901,2.679 7.684,5.142 1.028,-1.917 2.551,-0.807 0.9,2.679 3.99,6.586 -0.534,4.944 0.712,1.806 0.639,2.213 2.478,-0.4 -0.161,-2.968 -0.45,-1.34 1.622,-1.391 1.117,1.457 1.9,2.857 1.017,3.959 2.523,1.288 0.595,0.525 0.944,4.366 6.668,1.183 1.083,-6.106 0.406,-0.348 1.2,-4.826 -0.856,-0.991 -2,-0.355 -1.234,-2.738 2.884,-0.748 3.478,-0.223 0.828,3.086 2.523,1.288 1.134,5.239 -0.389,4.13 -1.2,4.826 1.045,1.865 -1.434,2.265 3.723,-3.539 3.561,-6.506 0.722,-4.071 1.667,0.296 0.828,3.086 -0.244,3.316 -0.85,8.667 -0.939,5.292 0.712,1.805 0.772,7.275 3.579,-2.724 0.733,-9.947 1.3,-7.327 2.866,-4.53 2.317,-3.368 1.334,0.236 1.522,1.11 -0.722,4.071 0.99,6.054 1.539,4.892 0.133,5.062 -0.894,6.979 1.423,3.612 0.711,1.805 2.695,-1.621 1.011,-5.699 0.794,-4.478 0.128,-4.596 -1.089,-3.552 1.478,-0.578 3.667,0.651 3.306,2.686 2.089,3.73 -0.244,3.315 1.673,9.955 -1.245,3.138 -1.344,5.64 -1.939,5.114 1.962,8.326 2.2,-4.648 4.74,0.421 v 0 l 1.278,4.425 0.711,1.806 2.45,1.694 4.351,4.551 0.145,-0.814 -0.495,-3.027 -2.639,-2.568 -1.918,-6.638 -0.494,-3.027 -0.612,-4.307 0.578,-3.257 2.595,0.881 5.774,8.162 3.711,2.338 1.595,0.703 1.289,-1.451 1.334,0.236 2.233,2.916 1.729,5.765 -0.822,6.572 0.061,5.47 1.423,3.611 1.9,2.857 2.306,2.508 4.812,0.014 -1.234,-2.738 0.128,-4.596 -2.612,-4.662 0.361,-2.036 1.739,-0.111 2.306,2.508 2.595,0.881 4.774,7.984 3.739,0.244 0.883,-1.103 4.596,1.235 2.31,2.509 2.31,-3.368 -0.15,-8.844 -1.61,-4.485 -3.33,-0.592 -3.22,0.689 -5.929,-1.471 -1.162,-3.146 -4.856,-1.701 -3.295,-8.562 -4.406,-0.362 -4.079,-9.961 -3.595,-1.058 -1.495,-3.204 -6.974,-3.337 -5.117,-2.167 0.578,-3.257 3.433,-1.91 -2.034,-7.919 -1.855,-1.169 1.433,-2.265 0.506,-2.849 2.567,2.974 0.233,2.561 3.451,1.872 2.539,5.069 4.712,2.516 -1.322,-6.113 1.622,-1.392 3.045,2.22 3.567,3.152 1.612,4.485 0.972,2.272 3.912,-2.666 0.972,2.272 0.756,3.493 2.712,2.161 1.128,-4.419 -2.018,-4.136 1.506,-2.672 -0.422,-3.434 5.334,0.946 4.509,7.518 0.99,6.054 2.39,-3.775 2.17,-2.553 3.55,-0.63 -1.02,11.575 v 0 l 5.48,0.132 4.12,1.991 1.27,-5.233 6.31,3.218 0.48,8.903 6,1.065 0.57,2.62 -2.13,4.241 2.9,3.034 0.35,3.841 0.3,8.03 -0.8,4.478 0.09,3.375 4.16,3.677 3.48,-0.222 2.29,-1.274 1.67,0.296 v 0 l 1.86,-4.708 3.67,0.651 2.93,0.94 2.69,-1.622 0.39,-4.13 3.43,3.967 3.02,-1.563 4.19,1.583 2.1,-2.146 2.79,1.753 4.84,-2.08 4.81,0.014 2.48,-0.401 5.84,-1.903 -4.16,-3.677 -4.12,-1.99 -3,-0.533 -2.35,-4.196 -3.67,-0.65 -3.69,1.444 -3.15,0.281 -4.74,-0.42 -1.61,-4.485 -0.83,-3.086 2.48,-0.4 1.43,-2.265 -1.45,-1.517 -1.52,-1.11 -3.29,1.096 -4.84,2.08 -2.07,0.053 -0.9,-2.679 -5.19,-1.761 v 0 l 1.18,-8.608 -2.29,1.274 -6,-1.065 0.87,-4.885 -2.97,-2.626 -4.31,-2.864 -1.12,-1.458 -3.93,-1.116 -0.64,-2.213 0.32,-3.723 -2.19,-1.228 -0.38,-1.747 -3.26,-0.998 -1.48,0.577 -0.9,-2.679 -2.04,-2.042 1.81,-0.518 10.41,1.426 4,0.71 3.91,-2.665 0.71,1.805 -0.69,1.977 6.09,4.439 9.74,1.308 6.61,5.372 3.31,2.686 -1.43,-3.611 0.51,-2.85 3.4,0.184 4.86,1.702 3.8,5.713 5.19,1.76 4.19,1.583 2.76,3.848 6.84,-1.726 3.81,-0.163 2.6,10.539 2.93,0.939 2.25,6.697 6.32,7.001 4.28,4.958 3.12,1.812 3.17,-2.376 7,1.242 5.86,1.879 1.95,-1.333 -5.2,-5.542 -4.34,-0.769 -7.65,2.421 0.35,-5.817 -5.35,-4.728 2.02,-1.74 8.22,0.199 2.84,-2.436 -1.49,-3.204 -5.52,-7.696 -4.37,-2.457 -5.08,-0.48 4.06,-3.479 5.4,0.539 3.12,1.813 5.6,1.412 5.09,4.262 2.49,3.382 1.97,2.45 5.23,-6.211 0.94,-5.292 -8.36,0.616 -8.19,-2.293 -7.38,-2.988 -7.45,-2.582 -5.89,0.216 -5.28,0.741 -2.41,-0.007 -2.55,0.807 -3.33,-0.591 -2.53,-1.288 -3.55,0.63 -2.45,-1.694 0.32,-3.723 -3.6,-1.058 -1.83,-3.263 -2.59,-0.88 0.03,-2.095 4.4,0.362 3.84,-2.258 -0.82,-3.086 -2.91,-3.034 3.15,-0.282 9.47,6.718 4.1,-1.791 -3.73,-6.12 4.22,-0.512 2.16,3.323 3.78,1.931 3.98,2.804 9.19,2.47 1.31,-3.545 -2.68,-4.255 -3.99,-6.586 0.1,-2.502 5.31,3.041 2.82,3.441 1.17,3.145 3.23,3.093 1.94,4.544 4.51,-2.14 2.08,-5.928 -0.32,-5.936 0.43,-2.442 2.19,1.228 2.9,3.034 v 0 l 1.28,-5.233 3.38,2.279 4.69,-1.267 -0.35,-3.841 4.8,-3.768 2.81,-15.876 -5.91,2.311 -4.67,-0.828 -3.74,-0.244 -0.86,4.885 -3.68,5.226 -2.77,2.028 -3.94,-4.899 -5.34,-0.946 -1.17,2.731 0.02,3.782 -2.92,2.843 -5.47,-0.132 -2.5,-3.382 -2.62,1.214 -2.36,1.681 -3.16,-3.501 -2.44,2.088 -2.32,3.368 -1.95,1.332 -6.52,-1.997 -4.56,0.453 -6.15,5.626 -5.07,-0.48 -1.89,0.925 -2.74,-0.066 -4.72,3.361 -2.03,1.74 -2.45,-1.695 0.51,-2.849 -1.6,-0.703 -2.69,1.621 -1.71,-1.983 -0.38,-1.746 3.69,-1.444 -0.11,-1.281 4.95,-0.8 4.61,-4.641 -2.12,-1.636 -0.83,-3.086 5.37,-1.148 1.43,-2.265 5.84,-1.903 4.55,-0.452 0.87,-4.885 2.62,-1.214 1.79,-4.301 3.93,1.117 6.61,-4.286 7.77,-1.142 1.24,-3.138 -1.23,-2.738 5.74,0.598 6.02,-1.03 5.74,0.599 2.13,-4.241 3.18,-2.377 4.43,-1.732 3.43,-1.911 0.84,-2.79 1.2,-4.826 -2.71,-2.16 -5.86,-1.879 -4.31,3.013 -3.28,4.878 -5.1,1.614 -5.95,0.623 -2.91,2.843 1.16,3.145 -4.12,-1.99 -2.19,-1.228 -4.69,1.266 -1.02,5.699 -4.43,1.733 -4.17,2.199 -2.1,2.146 v 0 l -3.18,2.377 -2.43,2.087 -0.91,3.198 -2.62,1.214 -3.34,-0.591 -2.47,0.4 -2.96,1.155 -0.74,0.289 -3.79,3.945 -4.01,-0.71 -0.72,4.071 -4.14,0.105 -2.67,-0.474 -1.17,2.732 -2.79,-1.754 -1.84,2.613 -3.98,3.072 -2.65,3.309 -1.5,2.672 -3.18,2.376 -0.64,-2.212 -4.26,-1.176 -1.64,-2.391 4.06,-3.479 3.95,-0.978 0.94,-5.292 2.36,-1.68 1.13,-4.419 4.77,-1.673 4.13,-3.887 -8.03,0.675 -2.46,4.183 -1.86,-1.169 -3.87,4.352 -3.43,1.91 -3.29,1.096 -0.76,2.383 -4.77,1.674 -0.51,2.849 -2.85,-1.346 -4.63,0.859 -0.86,4.885 -1.99,3.427 -0.6,5.351 -2.67,-0.473 0.62,-11.227 -3.7,1.444 -4.79,3.768 -0.347,5.817 -1.956,1.333 -1.712,-1.984 -1.767,2.206 -3.261,-0.998 -1.289,1.451 -1.334,-0.237 -3.767,1.851 -3.55,0.63 1.766,-2.206 5.057,-3.302 3.272,-4.878 -3.667,-0.65 -2.117,-1.636 -3.784,-1.931 -3.74,-0.243 0.434,-2.443 -0.973,-2.272 1.884,-0.925 3.856,1.524 5.262,1.353 6.001,1.065 2.578,-2.902 0.65,-3.663 -4.334,-0.769 0.433,-2.443 5.29,-0.741 1.235,2.738 4.43,-1.732 3.1,-1.97 8.7,-0.556 3.87,-4.353 -6.41,-0.717 -3.12,-1.812 2.25,-2.961 5.36,-1.148 1.91,-3.02 3.86,1.524 4.22,-6.388 10.06,-2.415 9.65,-2.067 5.56,-6.151 11.57,-5.087 7.05,-2.947 1.87,-4.707 7.15,0.428 4.05,-3.48 3.29,-1.095 4.13,-3.887 0.24,-3.316 5.15,0.074 4.65,-2.954 8.96,-0.091 3.66,0.651 -0.87,-4.774 -5.55,0.275 -7.48,-0.487 -3.72,3.538 -4.07,-0.302 0.84,-2.791 2.57,-2.901 3.65,-3.132 5.18,-2.021 0.02,-2.095 -5.69,1.089 -4.2,4.294 -4.8,3.768 -6.03,1.03 -1.69,1.799 2.86,1.346 -0.87,4.885 -3.32,3.19 -3.66,-0.65 -0.64,-2.213 -2.27,-0.821 -4.17,2.199 -3.46,4.004 -3.77,1.851 -5.05,3.302 -2.91,2.843 -4.38,-2.457 -3.13,4.064 -3.17,2.377 -1.25,3.138 -8.23,5.678 -1.28,-4.426 -3.24,2.784 -2.41,-0.007 -2.24,2.961 -1.23,-2.738 1.05,-4.012 -3.81,0.163 -3.94,4.76 -4.22,0.512 -2.72,3.715 -0.43,2.443 -3.08,-0.125 -1.3,-2.331 -2.84,2.435 -4.812,-0.014 -2.668,-0.473 -3.1,1.969 -4.478,0.045 -0.684,-3.9 4.623,-0.859 0.722,-4.071 -3.045,-2.22 3.145,-0.281 4.523,1.642 1.384,-3.953 2.48,-0.4 2.81,-0.341 1.65,-3.486 4.7,-1.266 -1.83,-3.264 2.25,-2.961 4.17,-2.199 3.67,0.651 3.43,-1.91 0.96,-1.51 3.88,-0.571 1.08,-6.106 1.7,-1.799 0.86,-4.885 4.77,-1.673 4.12,1.99 3.71,2.338 0.96,-1.51 -1.43,-3.611 2.77,-2.029 1.11,-8.2 -4.91,2.487 -1.32,3.546 -3.29,1.096 -2.49,-3.382 -5.74,-0.599 -0.35,5.818 -0.57,3.256 -3.56,6.506 -5.15,-0.073 0.13,-4.596 -2.89,0.748 -0.83,2.791 -3.15,0.282 -1.84,2.613 -2.65,3.308 -3.38,-2.279 -0.06,-5.469 0.58,-3.257 -4.15,0.105 -1.28,1.451 -0.47,4.537 -3.402,-0.185 -0.533,4.944 -2.651,3.309 -4.756,-4.203 -2.839,2.436 -2.884,0.748 0.684,3.9 -1.956,1.332 -3.668,-0.65 -2.65,3.309 -3.784,-1.931 -1.094,11.982 -4.406,-0.362 v 0 l 0.7,7.683 -2.894,6.624 -2.156,6.336 -3.506,2.317 0.316,-3.723 -1.9,-2.856 0.939,-5.292 -0.423,-3.434 -3.317,3.19 -1.2,4.826 -3.983,3.072 -0.795,4.478 -5.406,-0.539 0.533,-4.944 3.362,-1.503 2.327,-9.245 4.373,-7.202 1.128,-4.418 -4.651,2.953 -1.65,3.487 -3.812,0.163 -1.128,4.419 -2.405,-0.007 -1.2,4.826 -5.418,5.337 -1.011,5.699 -1.767,2.206 -0.683,-3.901 -3.362,1.503 -0.389,4.13 -3.522,-1.464 -3.956,0.977 -1.245,3.139 -2.262,-0.821 0.723,-4.071 -5.218,0.334 -2.378,-2.102 9.273,-3.813 8.212,-9.46 -5.478,-0.132 -3.912,2.665 -2.117,-1.635 -4.623,0.859 -2.433,2.088 -2.712,-2.161 2.056,-3.834 -3.379,-2.279 -4.145,0.104 -2.767,2.029 -1.783,-1.576 -8.913,1.778 -2.506,2.494 -0.683,-3.9 -2.712,-2.16 0.506,-2.85 5.595,1.413 3.173,-2.377 2.956,-1.155 3.578,-2.724 7.29,-0.386 9.929,2.181 7.218,0.021 3.767,-1.851 6.001,1.064 1.767,-2.205 4.245,-2.606 0.055,-4.189 -4.378,-2.457 2.984,-3.249 9.695,-0.38 6.057,-3.124 2.172,-2.554 3.623,-1.037 -0.684,-3.9 5.29,-0.741 10.507,-1.075 3.201,-4.471 -2.306,-2.508 -5.146,-0.073 -2.172,2.553 -7.812,-0.546 -1.506,2.672 -3.939,4.76 -4.984,2.895 -5.785,-2.286 0.1,-2.502 3.478,-0.223 0.362,-2.035 -3.407,-0.184 -5.073,-0.48 -1.361,1.858 -9.39,2.532 -2.189,-1.228 -2.217,0.867 -0.089,-3.375 3.578,-2.724 4.1,-1.792 -1.711,-1.983 -3.74,-0.244 -5.561,6.151 -4.29,0.919 -7.795,3.236 -9.057,2.592 -1.867,4.707 -1.245,3.138 -2.739,-0.066 -1.233,-2.738 1.577,-3.079 -1.855,-1.169 -2.623,1.214 -3.073,-0.125 -4.406,-0.362 -3.217,0.689 -2.378,-2.101 3.533,-4.412 4.407,0.362 5.1,-1.615 3.651,-3.131 2.767,-2.028 5.523,1.819 0.794,-4.477 3.479,-0.223 1.055,-4.012 3.74,0.244 1.127,-4.419 5.479,0.132 0.794,-4.477 4.812,0.013 2.479,-0.4 -0.017,-3.782 2.811,-0.341 1.901,2.857 5,0.887 2.884,-0.748 0.172,-2.909 3.19,1.406 2.828,3.441 5.407,0.539 3.667,0.651 -3.162,-3.5 1.028,-1.917 3.289,-1.096 -1.35,-4.019 -2.117,-1.635 -3.045,-2.22 -0.234,-2.561 3.334,0.592 4.74,0.421 4.117,1.99 2.684,4.255 3.018,4.314 1.794,-4.3 0.155,-6.691 4.857,1.702 3.162,3.5 2.1,-2.147 5.406,0.539 4.523,1.642 2.506,-2.494 -3.117,-1.813 -1.278,-4.425 0.533,-4.944 3.595,1.057 3.667,0.651 1.973,2.449 5.478,0.132 2.482,-0.4 2.85,1.347 0.72,-4.071 2.77,-2.028 0.25,-3.316 -4.12,-1.99 -1.7,1.799 -2.429,2.087 -4.19,-1.583 0.505,-2.849 0.695,-1.977 -2.784,-1.753 -1.695,1.799 -0.911,3.197 -1.911,3.02 -2.523,-1.287 -1.161,-3.146 -3.217,0.689 -2.578,2.902 -0.417,6.224 -2.767,2.029 -1.495,-3.205 -3.333,-0.591 -0.278,-4.248 -4.362,1.326 -0.567,-2.62 1.867,-4.708 0.505,-2.849 -2.739,-0.066 -2.1,2.146 -2.595,-0.88 -2.434,2.088 -1.233,-2.739 0.938,-5.291 9.346,-4.221 2.928,0.94 2.434,-2.088 10.668,1.893 3.912,-2.665 2.695,-1.622 -1.323,-6.113 -3.667,-0.65 2.389,-3.775 3.667,0.65 4.423,4.144 3.997,0.71 1.47,-4.36 -2.283,-4.603 6.363,-0.971 2.36,-1.68 2.7,-1.621 -0.95,-4.367 -7.25,2.074 -5.735,-0.599 -2.578,2.902 -2.406,-0.007 -2.089,-3.73 -6.479,-0.309 -3.939,4.759 0.078,9.252 -6.623,0.504 -1.173,2.731 0.162,2.968 -1.434,2.265 -5.001,-0.887 -1.044,-1.865 -1.523,-1.11 -0.767,2.384 -0.577,3.256 v 0 l -4.046,-2.397 -1.811,0.518 -2.317,3.368 -0.344,5.818 -1.011,5.699 -3.128,4.063 -3.29,1.096 -1.756,-3.67 1.462,-4.36 -2.973,-2.627 -1.461,4.36 -1.839,2.613 -0.723,4.071 -2.3,7.149 -2.406,-0.006 -0.494,-3.027 -0.745,-9.37 -2.434,2.088 0.495,3.027 -1.361,1.857 -1.651,3.487 -4.306,-2.864 -3.128,4.064 -2.111,8.023 -4.406,-0.362 -3.823,6.04 -2.784,-1.753 1.328,-9.422 -2.667,-0.473 -4.001,-0.71 v 0 l -4.29,0.919 -4.245,2.606 -1.055,4.011 -5.84,1.903 -0.983,3.605 -4.479,0.045 -3.433,1.91 -3.256,8.66 -6.851,7.602 0.75,-6.165 -2.712,-2.161 4.579,-2.546 0.316,-3.723 1.317,-3.546 -2.117,-1.635 3.912,-2.665 0.577,-3.256 3.417,-5.693 0.65,-3.663 -4.767,1.673 -7.157,5.449 -5.361,1.148 -2.012,5.522 -5.506,1.962 0.722,-4.071 2.767,-2.028 2.678,-5.403 4.084,-5.574 4.578,-2.547 1.056,-4.012 2.811,-0.341 5.507,-1.962 12.074,1.722 3.461,-4.004 3.434,-1.91 6.335,1.123 5.434,-1.555 4.111,-7.668 13.058,-1.883 -8.741,-1.13 -2.044,-2.043 -4.334,-0.768 -2.045,-2.043 2.578,-2.901 2.65,-3.309 8.479,0.664 0.75,-6.165 7.507,-1.607 6.651,-2.599 -0.684,-3.901 4.045,2.398 2.956,-1.156 -3.828,-3.618 0.65,-3.664 5.217,-0.334 1.884,-0.925 -2.451,-1.695 -4.812,-0.013 -0.016,-3.782 6.75,-5.101 9.002,1.597 2.767,-2.028 2.973,2.626 -1.056,4.012 3.64,2.745 3.289,-1.096 1.234,2.738 6.217,-0.156 -0.017,-3.782 -3.639,-2.745 -2.089,-3.73 1.289,-1.451 23.042,-3.89 4.334,0.769 8.787,2.818 7.2,-3.761 -0.03,-7.564 2.28,-1.273 4.21,5.365 6.99,-2.54 0.72,-4.071 v 0 l 4.74,0.421 7.53,-3.702 5.39,-3.243 -4,-0.709 -5.58,2.369 -8.48,-0.664 -4.29,0.918 -7.43,1.201 -2.77,2.028 -5.07,-0.48 -3.84,2.258 -6.119,-2.345 -1.578,3.079 -3.578,2.724 -3.973,-2.804 0.867,-4.885 -3.829,-3.618 -3.911,2.665 -2.111,8.023 -3.74,-0.243 -0.106,-7.157 -2.45,-1.695 -3.056,3.657 -0.578,3.257 1.117,1.457 -2.317,3.368 -3,-0.532 0.794,-4.478 -1.206,-4.832 8.501,-11.089 -1.006,-9.836 -2.678,5.404 -4.606,4.641 -2.156,6.336 -6.373,6.847 0.467,5.121 -4.767,1.674 -0.423,-3.434 -5.217,0.334 0.317,-3.723 4.156,-5.981 4.2,-4.293 1.533,-4.767 -4.406,-0.362 -3.578,2.725 -3.445,7.786 -1.2,4.826 -2.2,4.648 0.656,5.995 -2.172,2.554 -4.19,-1.583 -2.567,-2.975 -1.912,3.02 2.423,3.789 0.9,2.679 -1.722,3.893 -2.245,2.961 -2.244,2.961 -3.856,-1.524 -2.462,4.182 -0.65,3.664 -1.622,1.391 -6.607,4.287 -0.35,-3.841 -3.306,-2.686 -5.317,2.835 -0.489,6.632 -4.95,10.458 -2.217,0.867 -4.523,-1.642 -0.962,-8.149 -2.867,4.53 -2.761,11.687 -2.217,0.866 -2.928,-0.939 1.422,3.611 -5.839,1.904 -0.723,4.07 -1.883,0.926 v 0 l -2.44,-7.571 -10.734,8.173 -1.956,1.332 -3.761,11.51 -4.668,-0.828 -15.78,5.598 10.357,-9.92 6.029,-1.029 -2.234,-2.916 -4.145,0.104 -0.306,-2.153 6.417,-5.16 2.012,-5.522 -0.828,-3.086 2.144,-0.459 2.901,3.034 1.461,-4.36 3.623,-1.036 1.461,-4.36 8.996,-8.061 -0.134,-5.063 7.04,-6.728 0.622,-1.57 9.229,-5.5 -0.873,-4.774 4.101,-1.792 4.667,0.828 4.851,-7.957 -8.362,0.616 -7.469,-6.363 -0.227,7.097 -1.2,4.826 -4.94,4.582 -1.972,-2.449 0.894,-6.98 -6.023,10.689 0.395,5.528 -5.067,9.179 -7.49,5.389 -0.339,-9.718 3.922,-8.541 1.823,-6.395 1.577,-3.079 0.634,-7.446 -9.246,1.719 -1.056,4.012 -1.877,10.583 -3.995,8.949 -6.362,0.971 -1.567,-2.797 0.389,-4.13 -4.523,-1.642 0.8,5.18 -0.722,4.071 7.062,6.711 0.539,4.715 -3.578,2.724 -1.3,7.327 -2.155,6.336 -3.723,3.538 -1.756,-3.67 -5.768,1.496 -0.494,-3.027 1.516,-8.549 -3.011,5.344 -4.534,4.235 -1.289,1.451 -0.939,5.291 -4.434,1.733 2.412,9.666 1.223,8.614 -1.617,11.05 -4.444,7.609 -2.784,-1.753 1.733,-9.77 -2.189,-1.228 -3.434,1.91 -3.262,-0.999 -2.506,2.495 0.822,-6.572 3.723,-3.539 1.128,-4.418 -4.718,-12.174 -3.039,7.439 -1.795,4.3 -0.11,8.378 -1.345,5.64 -7.184,7.543 z"
       fill="#a6a6a6"
       fill-rule="evenodd"
       fill-opacity="0.698039"
       id="path37" />
  </g>
  <path
     d="m 726.818,381.035 3.412,-19.234 -1.283,-1.488 -3.163,0.384 -2.009,4.052 -1.979,-1.925 -2.98,-2.104 2.238,-2.437 3.129,-1.649 1.455,-3.836 6.084,-5.219 -1.317,-2.753 -3.251,-0.576 -2.013,-3.192 7.989,-1.416 6.051,-6.485 1.954,-3.747 -2.101,-4.152 4.159,-7.45 0.083,-6.283 -0.133,-5.062 0.045,-14.793 -3.926,-2.586 -3.555,-0.316 -3.267,8.238 -3.333,5.707 -3.684,1.866 -1.35,-4.019 -2.197,-0.704 -0.675,-2.01 -2.258,4.008 -2.717,0.778 -0.817,-2.664 -4.955,3.215 -0.921,5.19 -2.542,2.698 -2.5,-0.444 -0.721,-6.111 1.921,-5.013 -8.781,4.426 -0.37,16.625 -0.867,4.885 -4.338,-1.715 2.684,-2.043 -3.663,0.295 -3.33,-5.944 -1.609,0.344 -1.15,3.575 -6.867,3.82 -1.676,-2.187 -0.1,-3.796 -3.121,-2.758 1.541,-2.876 7.531,-4.647 1.291,-2.92 -5.642,-1.631 -6.068,-3.596 0.183,-2.487 3.542,-2.52 6.306,0.803 10.63,-0.318 -3.371,-2.803 -3.209,-3.718 -3.392,-1.232 -2.588,-1.404 -0.338,-1.004 -21.736,6.221 1.133,5.239 -0.345,3.403 -2.663,0.472 -1.284,-1.487 -15.044,0.48 1.621,2.492 9.135,6.659 0.121,2.226 -4.346,2.693 -6.555,-0.848 -1.534,-1.531 -3.663,0.294 -6.009,3.343 1.154,3.669 6.143,1.72 1.492,4.673 -0.596,3.358 5.926,2.941 4.251,0.754 0.209,3.186 9.318,4.173 -0.508,4.318 -1.463,8.244 4.001,0.709 2.892,1.143 -0.246,7.2 -0.075,1.876 30.093,6.283 z"
     fill="#a6a6a6"
     fill-rule="evenodd"
     fill-opacity="0.698039"
     id="PerformanceArtsPrecinct" />
  <path
     d="m 781.448,392.931 -20.808,-3.376 -24.604,-8.144 -6.751,-1.198 4.15,-21.938 6.488,-1.683 7.297,-13.506 4.034,1.975 c -0.459,3.068 -0.917,6.136 -1.375,9.204 l 6.809,-10.759 9.397,-9.355 3.249,-18.318 2.838,1.448 5.226,-4.741 0.867,-4.885 4.867,-4.175 0.379,-2.137 1.575,-1.61 3.839,1.625 2.933,-1.999 3.413,-0.339 0.959,3.319 -0.467,1.177 1.796,4.413 -5.746,6.223 -0.433,2.443 -3.184,1.954 -1.175,-2.098 0.237,-2.792 -1.229,-1.793 -2.901,3.265 1.263,3.058 3.73,2.236 -0.258,4.363 -1.717,0.955 -0.846,3.314 12.173,-3.194 5.05,-6.661 4.305,0.448 4.213,-7.755 1.833,-5.973 -0.471,-6.067 1.171,-5.146 3.225,-5.096 0.779,-5.845 2.738,-2.349 6.143,1.72 -4.28,5.224 -1.246,7.022 -1.475,5.407 -2.233,9.681 1.567,2.797 -6.638,5.436 -1.063,4.535 -3.204,3.525 -8.097,2.028 -7.334,4.997 -4.272,0.817 -1.75,-0.311 -3.597,2.826 -7.501,-1.331 -2.075,1.522 -3.346,2.87 6.155,4.556 3.101,4.329 -1.717,0.955 -3.251,-0.576 -4.975,4.785 -7.251,-1.286 -2.738,2.348 -3.718,0.601 -0.737,2.703 -3.563,4.091 6.055,0.76 0.73,1.704 -2.434,2.087 -3.467,0.645 -0.784,-1.399 -3.271,0.995 -1.73,-1.882 -5.513,-3.812 -3.576,1.255 -1.791,2.831 -1.671,5.057 6.697,1.503 7.251,1.287 4.771,-0.729 0.784,1.399 1.142,0.833 0.675,2.009 0.588,1.049 2.096,-3.092 4.434,-1.733 1.825,-1.566 2.804,0.183 2.476,-5.229 2.162,-0.561 -0.258,4.363 -2.529,5.534 -3.084,5.751 3.534,1.887 1.792,-2.831 4.671,-4.525 2.509,-3.964 6.78,-4.78 1.088,1.137 c -1.51,8.025 -3.02,16.05 -4.529,24.075 z"
     fill="#a6a6a6"
     fill-rule="evenodd"
     fill-opacity="0.698039"
     id="EastResidenitalPrecinct-3" />
  <path
     d="m 664.85,491.913 18.044,-18.843 11.514,-14.018 7.992,-13.068 8.081,6.787 10.385,6.881 14.223,8.506 11.19,6.709 9.702,9.279 9.214,12.027 0.296,4.147 -1.016,8.637 -5.409,7.228 -6.939,-5.955 2.875,-8.937 -5.68,-10.14 -1.717,0.955 -0.563,4.624 -2.75,-0.488 -2.567,-2.975 -0.709,-3.275 1.529,-5.712 -2.667,-6.771 0.333,-6.239 -2.967,0.733 -1.121,-2.404 v 0 l -1.684,2.221 0.838,1.093 -0.717,1.133 -0.191,6.894 -4.967,0.379 -2.784,-1.754 -4.047,-4.812 -2.121,-2.58 -5.135,-5.95 -3.709,-3.807 -5.959,-4.206 -3.834,5.618 3.059,7.47 0.48,1.66 -0.488,2.748 2.501,0.443 2.742,4.896 -0.4,3.708 2.25,0.399 1.492,4.673 0.046,4.102 2.251,0.4 3.284,1.842 5.067,3.418 -1.15,3.575 -5.947,-1.37 -3.1,-4.329 -3.088,-1.492 0.633,5.151 2.526,6.116 1.438,4.979 6.109,0.454 6.11,0.454 2.708,3.63 1.047,4.279 -0.463,8.421 -0.716,1.132 -1.526,-5.939 -4.797,-4.945 -6.392,-1.764 -3.522,0.95 -3.346,2.87 -1.379,1.96 -2.776,-6.161 0.408,-8.115 0.225,-5.628 -0.809,-7.072 -1.546,-4.368 -2.567,-2.975 -2.771,1.083 -1.4,3.531 0.991,4.584 -0.116,5.018 -5.517,7.839 -4.243,-5.161 0.454,-4.014 0.292,-3.097 -2,-0.355 -0.934,2.354 -0.15,3.752 -0.291,3.097 -2.292,2.743 -2.459,-3.585 -1.034,-1.443 v 0 l -2.879,1.693 -0.933,2.354 -1.521,1.305 -2.751,-0.488 -2.838,-1.449 -1.992,-4.762 -2.121,-2.58 z"
     fill="#a6a6a6"
     fill-rule="evenodd"
     fill-opacity="0.698039"
     id="EastResidenitalPrecinct-1" />
  <path
     d="m 703.692,443.064 12.492,-31.165 10.559,-28.988 10.414,0.903 15.995,7.246 13.644,3.051 13.894,3.094 -1.95,10.991 -2.372,-2.625 -5.426,-2.852 -2.654,-3.935 -2.338,-1.359 -5.339,-1.892 -1.629,1.915 -6.022,0.506 -4.805,-0.537 -6.751,-1.198 -6.359,-0.498 -3.38,1.605 -1.629,1.915 4.676,2.719 1.188,4.934 8.251,1.464 -0.596,3.358 -0.379,2.138 5.205,-3.171 3.75,0.666 5.068,3.418 6.351,4.906 5.797,5.122 1.871,2.536 -0.379,2.137 -4.055,-0.404 -2.838,-1.448 -7.001,-1.242 -1.629,1.915 -1.433,2.265 1.087,1.138 0.946,0.482 -0.216,1.222 -1.163,0.738 -0.379,2.137 1.892,0.966 1.65,-3.487 0.129,-2.181 3.947,1.015 2.425,2.32 1.513,3.102 2.588,1.404 3.675,2.542 0.676,2.009 -2.326,1.477 -2.838,-1.448 -2.479,-2.015 -2.001,-0.355 1.101,3.975 -0.325,1.831 -5.393,-1.586 -8.501,-1.508 -5.164,0.028 -1.066,-2.708 -1.447,-0.572 -0.379,2.138 -2.021,1.216 -4.251,-0.755 -4.642,-1.453 -2.034,-1.62 -2.163,0.561 1.763,3.147 v 0 l 0.317,2.575 3.501,0.621 0.979,1.748 3.805,0.36 1.425,2.143 5.926,2.941 -1.021,1.393 8.339,2.424 0.121,2.226 -1.075,1.699 2.48,2.014 2.542,-2.698 5.751,1.02 2.85,4.285 2.596,-3.003 9.935,-0.757 2.142,1.01 -0.562,4.624 5.709,4.161 5.785,2.286 0.262,2.881 -2.933,1.999 -7.698,-1.68 -3.121,-2.759 -7.218,-0.02 -5.846,2.426 -2.163,0.561 -1.717,0.955 2.175,2.276 3.967,-0.556 4.001,0.71 2.034,1.62 0.6,3.886 0.371,2.27 4.197,1.059 1.621,2.492 -0.771,1.438 -2.717,0.778 -3.826,1.21 -2.5,-0.443 2.067,2.886 3.305,0.271 8.697,1.858 2.454,-3.658 11.031,-4.027 1.434,-2.265 3.283,1.843 2.534,1.709 -4.792,2.299 -3.913,0.25 -0.758,4.274 1.642,0.922 -0.434,2.442 4.947,1.193 0.817,2.664 -4.63,1.383 -6.368,3.909 -4.142,-1.365 -0.838,-1.093 -1.5,-0.267 -0.587,-1.049 -2.359,0.212 -0.846,3.314 2.555,0.138 1.371,2.448 -0.867,4.885 -1.25,-0.222 -0.292,3.097 3.413,-0.339 6.439,5.866 3.251,0.577 1.946,0.66 -0.738,2.703 3.338,1.537 4.684,-1.688 0.596,-3.359 2.763,3.325 -0.758,4.274 2.242,4.807 3.001,0.532 0.904,3.624 -0.629,2.093 -5.055,-0.582 -2.142,-1.009 -1.75,-0.311 -1.967,0.911 1.729,1.881 -1.663,0.65 2.73,2.059 2.696,0.793 0.73,1.704 -4.955,3.215 -1.008,4.23 7.055,0.936 2.459,3.586 3.184,-1.955 0.541,-3.053 3.393,1.232 5.951,8.613 -3.292,2.566 -2.826,1.388 -4.717,0.423 -4.609,-0.188 -1.596,3.181 -2.28,5.579 -2.012,-3.192 0.508,-4.318 -1.405,-3.714 -0.221,-6.022 -2.992,-4.94 -4.263,-3.59 0.312,-4.668 1.387,-6.368 -5.609,-0.365 -1.263,-3.058 -2.913,0.428 -0.383,-5.107 -1.73,-1.881 -5.251,-0.932 -3.776,-6.338 0.326,-1.832 -5.472,-6.954 0.178,-9.73 -1.167,-6.506 -2.979,-2.103 -0.234,-8.859 -10.336,-14.43 -13.648,-10.294 -10.527,-7.536 -9.243,-6.049 -8.744,-5.96 z"
     fill="#a6a6a6"
     fill-rule="evenodd"
     fill-opacity="0.698039"
     id="EastResidenitalPrecinct-2" />
  <g
     id="MixedUsePrecinct">
    <path
       d="m 613.171,523.473 -10.442,-34.184 3.689,-11.102 31.699,-21.669 26.519,-29.305 15.257,-31.724 35.145,20.931 -20.035,39.273 -27.764,32.445 -32.898,26.494 z"
       fill="#a6a6a6"
       fill-rule="evenodd"
       fill-opacity="0.698039"
       id="path23" />
    <path
       d="m 618.065,527.385 -1.008,4.23 15.792,49.094 2.788,8.997 10.293,-1.323 0.867,-4.885 -1.838,-1.27 -6.955,2.86 -2.284,-1.665 -1.242,-4.629 0.325,-1.832 1.946,0.66 5.326,-0.945 -0.783,-1.398 -3.197,-0.882 -3.763,-3.502 0.596,-3.359 3.109,-0.078 2.804,0.183 5.514,3.812 1.608,-0.344 1.15,-3.575 5.468,-0.29 2.067,2.886 0.959,3.319 5.542,-2.166 2.946,0.838 3.068,3.064 3.738,-2.172 0.216,-1.221 3.501,0.621 0.512,2.926 2.88,-1.694 1.413,-0.694 1.967,-0.911 1.838,1.271 2.025,6.028 v 0 l 5.063,-3.826 -1.013,-3.014 3.109,-0.078 1.263,3.058 1.546,4.368 3.643,1.276 6.042,-2.077 3.134,5.595 3.163,-0.384 3.846,-2.781 1.947,0.66 1.291,-2.92 3.251,0.577 0.671,-5.235 -1.426,-2.142 -2.771,1.083 -1.513,-3.103 -1.729,-1.881 -3.663,0.294 -2.697,-0.793 -2.433,2.088 -1.425,-2.142 -2.98,-2.104 -2.413,0.517 -0.742,-4.54 -3,-0.533 -4.468,0.467 -1.663,0.65 -2.175,-2.275 0.975,-5.496 -1.284,-1.487 -2.554,-0.138 v 0 l -3.434,1.91 v 0 l -2.988,2.304 -3.934,1.821 -0.458,-3.23 1.954,-3.747 1.738,-2.526 0.541,-3.053 1.684,-2.221 1.596,-3.181 -1.25,-0.222 -2.88,1.694 -2.521,1.127 -1.488,2.57 -2.325,1.477 -3.338,-1.536 -2.163,0.56 -3.217,0.689 0.262,2.881 -1.879,1.871 -0.871,-2.359 -2.792,2.654 0.229,1.615 -3.325,1.3 -1.871,-2.537 -4.197,-1.059 -3.413,0.339 -2.521,1.128 -1.884,-5.373 -1.675,-2.187 -3.98,-2.281 -2.838,-1.448 -3.326,1.3 -2.059,-7.294 3.13,-1.649 1.446,0.572 1.784,1.576 2.892,1.143 3.454,-3.481 1.751,0.31 1.837,1.271 9.077,-0.279 5.076,-0.989 3.379,-1.605 -0.316,-2.576 -2.305,-0.094 -1.804,-0.005 -2.155,-3.846 -1.155,-3.669 -1.175,-2.098 -2.5,-0.443 -2.405,-3.891 v 0 l 4.421,-4.569 -1.425,-2.143 -2.25,-0.399 z"
       fill="#a6a6a6"
       fill-rule="evenodd"
       fill-opacity="0.698039"
       id="path35" />
    <path
       d="m 584.136,557.266 34.647,-12.118 -14.604,-44.16 -19.737,6.576 -4.542,2.344 -34.23,-0.405 -3.421,4.747 6.559,8.092 4.867,-4.175 1.009,-4.23 3.859,0.055 2.621,2.669 5.697,1.326 1.046,4.279 -0.663,0.827 6.385,6.171 9.739,-1.106 12.927,4.183 3.513,3.457 -0.42,5.279 -2.15,3.398 -1.934,2.176 0.904,3.624 z"
       fill="#a6a6a6"
       fill-rule="evenodd"
       fill-opacity="0.698039"
       id="path41" />
    <path
       d="m 617.533,544.926 -21.562,8.142 -4.988,1.949 c -0.793,0.594 -2.639,0.582 -3.521,0.95 -0.882,0.368 -0.995,0.034 -1.771,1.26 l -0.109,0.611 -7.396,9.71 -1.901,3.442 -6.4,2.643 -0.434,2.442 2.176,2.276 7.684,-1.156 1.434,-2.265 1.758,-4.097 2.9,-3.264 7.76,-3.033 5.334,-5.352 3.467,-0.644 1.175,2.098 -1.812,4.402 -5.484,9.104 -6.043,2.077 -0.629,2.093 -1.421,5.102 -1.542,2.875 -3.867,4.353 0.23,1.615 3.738,-2.171 4.825,-1.033 1.934,-2.177 1.008,-4.23 7.614,-10.931 3.746,-6.578 v 0 l 4.992,5.295 -2.004,11.296 0.1,3.796 1.426,2.143 4.805,0.537 2.729,2.059 0.567,2.62 -5.192,6.007 -4.401,2.998 -4.934,1.644 -3.575,1.255 -5.138,5.702 -2.05,7.194 -1.13,2.004 1.23,1.793 4.063,-4.003 4.846,-2.604 6.334,-5.175 4.001,0.71 -0.291,3.097 -4.172,4.614 -2.312,4.313 -1.921,5.013 -1.963,8.155 -2.204,3.702 -1.913,0.606 -3.305,-0.272 -1.812,4.402 -0.521,1.483 2.521,-1.128 2.217,-0.866 2.109,-0.256 4.184,-1.777 3.204,-3.525 3.259,-3.831 2.921,-4.835 2.279,-5.579 1.413,-0.694 2.284,1.665 0.566,2.62 2.63,-1.738 0.988,-2.659 2.07,-8.765 1.638,-6.323 1.933,-2.176 2.609,-0.167 2.196,0.704 3.472,6.599 2.134,5.417 -0.508,4.319 -1.488,2.57 -2.684,2.044 -5.334,5.352 -2.15,3.397 -3.05,7.017 -0.988,2.659 0.926,2.053 1.283,1.488 1.867,-4.708 2.009,-4.052 2.825,-1.388 1.967,-0.911 1.663,-0.65 1.966,-0.91 1.042,-2.965 1.684,-2.22 1.392,0.876 0.208,3.186 -1.637,6.323 -1.826,1.566 -3.062,4.18 -3.126,8.893 4.73,2.414 3.663,-0.295 3.434,-1.91 0.563,-4.624 0.204,-4.058 0.041,-3.142 1.475,-5.406 2.488,-2.393 2.034,1.62 0.35,3.841 3.426,2.498 3.392,1.231 3.271,-0.994 2.217,-0.866 2.001,0.355 -0.184,2.486 -0.933,2.354 0.871,2.359 -1.042,2.964 -1.325,1.655 -3.367,4.441 v 0 l 4.622,3.024 0.817,2.664 -3.113,11.73 -1.717,0.955 -2.392,-1.054 -2.459,-3.586 -2.088,-1.315 -0.487,2.748 -0.096,3.447 -0.541,3.053 -2.359,0.211 -4.001,-0.709 -3.642,-1.276 -2.5,-0.444 -3.738,2.171 3.013,3.369 -1.15,3.575 -1.609,0.344 -6.022,0.507 -2.25,-0.4 -3.805,-0.36 -2.609,0.167 -1.325,1.655 -3.217,0.689 -0.683,2.398 -0.596,3.358 -3.463,7.888 0.284,1.31 3.75,0.666 11.152,-1.801 67.688,-35.543 -5.196,-1.237 -1.676,-2.187 -0.675,-2.009 7.955,-2.683 4.609,0.188 2.988,-2.304 -4.155,-4.201 -1.262,-3.058 1.02,-1.394 4.447,1.104 7.726,-4.298 5.184,-1.599 2,0.354 1.48,1.837 4.988,-1.949 -2.621,-2.669 -4.73,-2.414 -2.676,-2.364 0.629,-2.093 2.501,0.444 2.784,1.753 1.979,1.926 5.285,2.197 1.925,2.231 1.142,0.833 1.108,-0.434 0.563,-4.623 -0.48,-1.66 -1.5,-0.266 -1.175,-2.098 3.413,-0.34 1.629,-1.915 1.846,-3.136 0.238,-2.792 0.771,-1.438 4.088,1.67 3.129,-1.649 1.475,-5.407 4.401,-2.998 3.792,-2.477 2.075,-1.521 3.555,0.316 1.988,-2.482 1.358,-0.389 -2.142,-1.01 0.596,-3.358 -3.805,-0.36 -2.913,0.428 -4.892,-1.498 -4.826,1.034 -2.934,1.998 -1.304,0.084 -0.783,-1.399 0.237,-2.792 -1.825,1.566 -3.326,1.299 -1.629,1.916 -1.542,2.875 -1.217,1.044 -1.067,-2.708 0.846,-3.315 0.913,-0.782 1.8,-7.239 -2.196,-0.704 -2.968,0.733 -2.325,1.477 -0.575,1.787 -1.279,5.757 -2.379,1.782 -0.317,-2.576 -0.98,-1.748 -3.379,1.605 -2.259,4.008 -1.292,2.92 -0.487,2.748 0.533,1.354 -0.758,4.274 -2.183,2.132 -2.076,1.521 -2.392,-1.054 -0.75,-0.133 -2.467,0.822 -0.487,2.748 -0.271,1.526 -1.717,0.955 -3.805,-0.36 -2.392,-1.054 -0.783,-1.398 -0.48,-1.66 -0.642,-0.744 -1.575,1.61 -2.596,3.004 -1.933,2.176 -2.847,2.959 -3.217,0.689 -3.467,0.645 -1.871,-2.537 -1.425,-2.142 1.291,-2.92 2.609,-0.167 2.996,-6.712 2.13,-1.826 0.9,-3.619 -1.392,-0.877 0.325,-1.832 5.063,-3.825 7.434,-1.201 1.434,-2.265 0.183,-2.487 -1.763,-3.147 -1.838,-1.27 -4.63,1.383 -2.621,-2.67 -2.075,1.522 -4.738,1.993 -1.251,-0.222 -0.316,-2.575 0.325,-1.832 1.216,-1.044 0.63,-2.093 0.27,-1.526 v 0 l -3.521,0.95 -1.183,2.309 -1.184,2.309 -1.096,3.27 -3.792,2.476 -1.75,-0.31 -5.847,2.427 -2.609,0.167 -0.871,-2.359 0.705,-3.969 2.67,-4.88 1.684,-2.22 3.055,0.227 v 0 l 1.792,-2.832 -1.838,-1.27 v 0 l -3.447,-0.927 -1.554,0.039 -1.271,1.35 -2.238,2.437 -2.859,0.122 -1.737,2.526 -1.609,0.345 v 0 l -1.6,-4.063 v 0 l -3.88,1.516 -2.609,0.167 -4.325,1.122 z"
       fill="#a6a6a6"
       fill-rule="evenodd"
       fill-opacity="0.698039"
       id="path49" />
  </g>
</svg>
