<?xml version="1.0" encoding="UTF-8" standalone="no"?>
<svg
   width="1280"
   height="720"
   overflow="hidden"
   version="1.1"
   id="svg35"
   sodipodi:docname="Adrenaline - 5.svg"
   inkscape:version="1.1.2 (b8e25be833, 2022-02-05)"
   xmlns:inkscape="http://www.inkscape.org/namespaces/inkscape"
   xmlns:sodipodi="http://sodipodi.sourceforge.net/DTD/sodipodi-0.dtd"
   xmlns="http://www.w3.org/2000/svg"
   xmlns:svg="http://www.w3.org/2000/svg">
  <sodipodi:namedview
     id="namedview37"
     pagecolor="#ffffff"
     bordercolor="#666666"
     borderopacity="1.0"
     inkscape:pageshadow="2"
     inkscape:pageopacity="0.0"
     inkscape:pagecheckerboard="0"
     showgrid="false"
     inkscape:zoom="0.75694444"
     inkscape:cx="441.90826"
     inkscape:cy="344.80734"
     inkscape:window-width="1366"
     inkscape:window-height="705"
     inkscape:window-x="-8"
     inkscape:window-y="-8"
     inkscape:window-maximized="1"
     inkscape:current-layer="svg35" />
  <defs
     id="defs5">
    <clipPath
       id="clip0">
      <rect
         x="0"
         y="0"
         width="1280"
         height="720"
         id="rect2" />
    </clipPath>
  </defs>
  <rect
     x="0"
     y="0"
     width="1280"
     height="720"
     fill="#ffffff"
     id="rect7" />
  <path
     d="m 565.044,129.024 -60.645,-17.894 -73.05,-4.13 9.648,85.341 c 0.46,23.859 0.919,47.718 1.378,71.576 L 420.322,357.518 402.405,481.4 390,562.612 l 9.648,19.27 42.727,23.4 L 635.337,692 698.739,619.047 860,570.871 817.273,539.212 708.387,442.859 665.66,389.176 635.337,334.118 596.745,241.894 Z"
     fill="#44546a"
     fill-rule="evenodd"
     fill-opacity="0.0588235"
     id="D5-AdrenalineZone" />
  <path
     d="m 475.919,140 -25.675,5.14 16.432,137.752 -25.676,61.68 v 47.288 l 76,5.14 z"
     fill="#a6a6a6"
     fill-rule="evenodd"
     fill-opacity="0.698039"
     id="D5-Precinct3" />
  <path
     d="m 646.855,612.763 c 0.115,-8.872 1.265,-16.194 1.38,-25.066 l 23.716,-10.982 31.694,13.136 -16.17,31.009 -13.152,12.92 c 2.443,1.58 3.507,4.537 5.95,6.116 l -45.837,52.673 c -31.493,-13.466 -193.313,-85.92 -193.268,-85.965 -26.563,-15.799 -43.671,-23.398 -43.725,-23.3 -1.164,-7.501 -9.206,-20.673 -9.314,-20.673 2.587,-21.534 8.409,-45.48 7.762,-45.48 l 127.293,5.168 c 2.329,-14.815 4.98,-23.041 4.657,-23.257 -2.328,-7.838 -28.46,-73.991 -28.46,-74.422 -46.915,-0.172 -83.633,-1.981 -83.309,-1.55 -6.468,37.555 -13.152,93.437 -12.937,93.544 -8.279,1.809 -7.869,-0.215 -7.761,0 l 22.767,-155.046 c 9.228,-33.421 21.927,-96.732 22.251,-97.162 1.293,-36.092 -0.733,-74.229 -0.518,-73.906 -1.638,-13.437 -9.831,-81.033 -9.831,-81.141 29.495,0.172 71.818,2.778 71.926,3.101 l 64.164,18.606 c 16.472,-5.255 17.097,-5.578 16.558,-5.685 9.918,4.737 66.341,21.706 66.234,21.706 20.956,-3.273 137.663,-12.188 137.124,-12.404 -0.948,-7.666 -1.552,-14.061 -1.552,-13.954 -0.345,-2.153 -28.87,-5.383 -28.977,-5.168 5.002,-8.786 20.698,-26.1425 20.698,-26.3578 5.605,-2.8425 18.197,-6.6326 19.663,-8.786 1.466,-2.1534 -11.082,-4.1345 -10.867,-4.1345 -1.725,-0.9476 -27.532,1.1413 -27.425,1.0337 -4.484,0.1722 -34.777,10.8532 -34.669,10.8532 1.639,-8.3553 4.14,-19.23 4.14,-19.1224 0.948,-3.4455 -19.987,11.4778 -19.663,11.3702 -1.294,4.3929 -13.346,17.6795 -13.454,17.5719 -5.951,0.5168 -18.003,0.3015 -18.111,0.5168 -1.552,5.0819 -10.241,12.6189 -10.349,12.4039 -3.363,-2.929 -13.346,-3.833 -13.454,-3.618 -1.897,-0.603 -11.297,2.067 -10.866,2.067 l -19.146,-2.584 c -3.105,-0.517 -6.317,-11.2622 -6.209,-11.3698 -1.294,-1.895 7.05,-7.7523 6.727,-7.7523 1.38,-1.206 0.733,-15.8277 0.517,-15.5047 C 616.411,68.895 586.658,67.2584 579.586,67 c -2.415,9.0444 3.105,58.918 2.587,58.918 -4.829,2.584 -16.364,5.362 -16.472,5.254 1.423,6.245 2.286,13.157 2.717,13.48 1.035,3.101 -7.87,4.113 -7.977,4.006 11.815,48.667 26.497,129.313 26.39,129.205 16.73,23.602 84.969,140.059 84.862,140.059 -30.961,22.998 -64.057,35.962 -64.164,36.177 -9.746,-32.732 -12.311,-57.367 -12.419,-57.367 -10.263,-2.67 -28.654,0.022 -28.977,-0.517 -1.294,-10.681 -0.928,-28.748 -1.035,-28.425 8.796,-6.546 23.716,-16.344 23.285,-16.021 -2.76,-6.461 -34.26,-47.849 -34.152,-48.065 -4.829,-21.362 -18.413,-80.086 -18.628,-80.624 -3.622,-13.523 -11.772,-75.865 -12.419,-75.973 22.337,0.086 36.329,1.658 36.222,1.551 5.864,0.43 9.659,-3.015 9.443,-2.8 -0.905,-5.599 -3.773,-15.397 -3.234,-15.504 -22.207,-4.393 -64.789,-18.714 -64.681,-18.391 -31.522,-3.101 -71.236,-3.101 -71.021,-3.101 3.968,21.965 10.651,80.517 10.867,80.625 0.431,60.295 -0.927,75.046 -1.035,74.939 -14.144,69.426 -21.388,96.925 -21.604,97.033 -3.665,16.301 -21.652,155.66 -21.732,155.822 -3.623,25.647 -8.409,45.625 -8.409,45.222 5.39,6.998 10.107,21.83 9.702,21.964 10.134,1.723 43.849,22.611 43.984,22.611 7.222,3.877 192.885,85.787 192.75,85.922 36.114,-40.7 46.544,-53.109 46.14,-52.974 -5.678,-5.491 -29.215,-23.338 -29.754,-23.472 z"
     fill="#a6a6a6"
     fill-rule="evenodd"
     fill-opacity="0.698039"
     id="D5-Precinct2Phase2" />
  <path
     d="m 530.966,572.176 c -0.179,21.915 -0.68,44.798 -0.86,66.712 L 399.968,581.223 399,584.13 442.595,607.767 634.443,693 l 44.992,-52.497 -40.477,-33.113 -8.385,-6.946 -5.967,21.484 c -4.264,-0.288 -11.046,-0.916 -25.802,-1.293 0.224,-4.54 0.538,-15.453 1.613,-26.652 1.702,-6.99 6.88,-28.994 9.676,-40.382 l 23.544,-8.722 c -2.276,-1.014 -8.977,-3.742 -14.675,-5.815 -5.698,-2.073 -9.434,-3.393 -20.158,-6.785 -1.012,-7.556 -3.117,-28.105 -5.805,-45.227 l 27.576,-8.4 c 2.562,2.647 9.407,10.149 15.481,16.153 1.568,-0.691 6.558,-2.531 9.514,-3.877 -2.356,-3.006 -11.691,-13.757 -14.513,-18.576 L 674.759,452 c 4.202,3.051 20.507,13.299 25.641,17.768 -1.497,5.124 -6.908,21.429 -9.031,30.529 1.675,1.112 4.3,3.419 9.837,6.945 2.858,-4.244 9.219,-13.595 17.578,-25.682 L 772,526.949 c -3.512,4.047 -11.987,13.084 -21.286,24.229 -5.233,-1.606 -26.582,-9.018 -31.931,-9.853 -0.349,2.396 -0.456,2.504 -0.967,4.038 4.067,4.263 16.261,16.853 24.351,25.522 -5.206,1.893 -17.229,5.815 -31.447,11.145 -4.587,-3.572 -17.604,-14.349 -27.253,-21.322 -4.614,0.063 -14.084,-0.323 -26.931,0.162 -3.7,4.074 -18.007,17.606 -22.415,24.391 -0.663,2.62 -1.156,3.607 -3.548,15.345 7.024,5.474 31.204,24.767 41.606,33.598 -5.77,3.724 -25.587,18.71 -34.672,22.614 -3.404,0.143 -12.309,1.023 -19.996,0.969 -1.281,-1.93 -2.957,-4.846 -7.58,-11.307 6.11,-5.429 26.313,-22.103 37.091,-32.144 14.352,10.634 25.533,20.164 32.575,26.167 -7.732,8.786 -20.346,23.52 -45.476,52.497 L 443.347,607.928 c -7.131,-3.984 -37.001,-18.97 -44.132,-23.529 0.609,3.679 0.735,-18.055 1.236,-27.244 l 1.989,-27.083 129.225,6.892 z"
     fill="#a6a6a6"
     fill-rule="evenodd"
     fill-opacity="0.698039"
     id="D5-Precinct1Phase1" />
  <text
     fill="#ffffff"
     font-family="Calibri, Calibri_MSFontService, sans-serif"
     font-weight="400"
     font-size="15px"
     x="440.60699"
     y="468"
     id="text876">ACTION</text>
  <text
     fill="#ffffff"
     font-family="Calibri, Calibri_MSFontService, sans-serif"
     font-weight="400"
     font-size="15px"
     id="text19"
     x="440.353"
     y="482">CENTER</text>
  <text
     fill="#ffffff"
     font-family="Calibri, Calibri_MSFontService, sans-serif"
     font-weight="400"
     font-size="15px"
     id="text21"
     x="430.69901"
     y="574">AERODROME</text>
  <text
     fill="#ffffff"
     font-family="Calibri, Calibri_MSFontService, sans-serif"
     font-weight="400"
     font-size="15px"
     id="text23"
     x="629.79303"
     y="528">MOTION HUB</text>
  <text
     fill="#ffffff"
     font-family="Calibri, Calibri_MSFontService, sans-serif"
     font-weight="400"
     font-size="15px"
     transform="rotate(-48.610912)"
     id="text25"
     x="-69.927284"
     y="905.27228">TECHNOLOGY</text>
  <text
     fill="#ffffff"
     font-family="Calibri, Calibri_MSFontService, sans-serif"
     font-weight="400"
     font-size="15px"
     transform="rotate(-48.610912)"
     id="text27"
     x="-41.667221"
     y="919.18964">HUB</text>
  <text
     fill="#ffffff"
     font-family="Calibri, Calibri_MSFontService, sans-serif"
     font-weight="400"
     font-size="15px"
     transform="rotate(-90)"
     id="text29"
     x="-365"
     y="490.42401">HOSPITALITY</text>
  <text
     fill="#ffffff"
     font-family="Calibri, Calibri_MSFontService, sans-serif"
     font-weight="400"
     font-size="15px"
     id="text31"
     x="651.362"
     y="128">CLIFF CENTER</text>
</svg>
