<?xml version="1.0" encoding="UTF-8" standalone="no"?>
<svg
   width="1280"
   height="720"
   overflow="hidden"
   version="1.1"
   id="svg95"
   sodipodi:docname="Delta B - 10.svg"
   inkscape:version="1.1.2 (b8e25be833, 2022-02-05)"
   xmlns:inkscape="http://www.inkscape.org/namespaces/inkscape"
   xmlns:sodipodi="http://sodipodi.sourceforge.net/DTD/sodipodi-0.dtd"
   xmlns="http://www.w3.org/2000/svg"
   xmlns:svg="http://www.w3.org/2000/svg">
  <sodipodi:namedview
     id="namedview97"
     pagecolor="#ffffff"
     bordercolor="#666666"
     borderopacity="1.0"
     inkscape:pageshadow="2"
     inkscape:pageopacity="0.0"
     inkscape:pagecheckerboard="0"
     showgrid="false"
     inkscape:zoom="0.75694444"
     inkscape:cx="657.24771"
     inkscape:cy="392.36697"
     inkscape:window-width="1366"
     inkscape:window-height="705"
     inkscape:window-x="-8"
     inkscape:window-y="-8"
     inkscape:window-maximized="1"
     inkscape:current-layer="svg95" />
  <defs
     id="defs5">
    <clipPath
       id="clip0">
      <rect
         x="0"
         y="0"
         width="1280"
         height="720"
         id="rect2" />
    </clipPath>
  </defs>
  <rect
     x="0"
     y="0"
     width="1280"
     height="720"
     fill="#ffffff"
     id="rect7" />
  <path
     d="m 289.666,272.566 48.599,-2.429 63.178,9.719 57.104,23.084 83.832,60.747 55.889,57.102 31.589,40.093 37.664,86.26 25.514,66.822 V 664.991 682 l 64.393,-7.29 53.459,-20.654 59.533,-58.316 -3.645,-25.514 -18.224,-40.093 -4.86,-106.914 13.365,-76.541 -23.085,-6.075 -12.149,-18.224 -3.645,-14.579 4.86,-27.944 10.934,-18.224 10.935,-18.224 27.944,-25.514 12.15,-21.869 -3.645,-7.289 -12.15,3.645 -17.009,3.644 -6.075,8.505 h -23.084 l -4.86,-10.934 1.215,-10.935 -9.72,-6.074 -20.654,-2.43 c -17.772,-11.424 -13.996,-4.906 -18.225,-13.365 l 7.29,-2.43 -3.645,-26.728 -8.505,-14.579 3.645,-17.009 -10.935,-19.4394 -12.149,-10.9345 -6.075,6.0747 -13.365,-2.4299 -9.719,-4.8597 -6.075,-8.5046 -8.505,10.9345 v 14.5792 c -1.329,13.2892 1.663,9.2715 -3.645,14.5797 v 0 l -3.645,10.934 -1.215,2.43 -6.075,10.934 -4.86,3.645 -19.439,2.43 -17.01,-4.86 -9.719,-17.009 6.075,-9.7194 -4.86,-8.5046 1.215,-9.7194 3.645,-10.9345 v 0 l -4.86,-10.9344 c -7.792,-12.4668 -6.075,-5.899 -6.075,-19.439 L 620.137,27.1494 610.417,15 l -1.215,10.9344 7.29,13.3643 -1.215,8.5046 -6.075,9.7195 -2.429,2.4298 -8.505,8.5046 v 0 L 570.323,75.7468 543.594,62.3825 530.23,53.878 V 35.6539 l -14.58,3.6448 -14.58,-6.0747 -13.364,-13.3643 -1.215,19.439 3.645,7.2896 9.719,14.5793 12.15,20.6539 6.075,14.5792 h -8.505 l -7.29,12.1493 8.505,6.075 -20.654,7.289 19.439,1.215 c 11.319,3.773 7.093,3.645 12.15,3.645 h 2.43 l 13.364,-1.215 c 3.963,10.568 2.098,6.625 4.86,12.15 v 0 l -2.43,10.934 -12.149,2.43 9.719,7.289 c 18.585,4.289 10.446,2.881 24.3,4.86 v 0 c 2.025,3.24 4.179,6.403 6.075,9.72 8.595,15.042 -0.173,1.564 6.074,10.934 h 1.215 l 4.86,12.149 v 1.215 l 1.215,10.935 c -3.736,16.189 -3.645,10.391 -3.645,17.009 v 0 l -10.934,9.719 -2.43,1.215 -17.01,7.29 c -1.184,0.488 -2.533,0.58 -3.645,1.215 -7.229,4.131 -2.146,3.645 -7.29,3.645 v 0 l -10.934,4.86 -10.935,7.289 -10.935,-20.654 h -8.504 l -15.795,-6.074 -9.72,-8.505 -4.86,-9.72 c -3.645,-1.619 -7.489,-2.85 -10.934,-4.859 -1.484,-0.866 -2.43,-2.43 -3.645,-3.645 l -2.43,-2.43 -6.075,-3.645 c -2.606,-11.725 -2.43,-7.2 -2.43,-13.364 v -2.43 c -1.215,-3.24 -1.725,-6.84 -3.645,-9.719 -1.438,-2.158 -4.123,-3.153 -6.075,-4.86 -1.293,-1.132 -2.43,-2.43 -3.645,-3.645 h -4.859 l -4.86,-15.794 -10.935,-12.15 -4.86,-4.859 h -18.224 l -3.645,2.43 c -7.503,1.154 -27.337,3.964 -34.019,6.074 -1.931,0.61 -4.86,3.645 -4.86,3.645 l -2.43,7.29 c -4.678,14.032 -0.309,9.028 -12.15,15.794 l -2.43,1.215 c -2.835,2.43 -6.024,4.499 -8.505,7.289 -0.85,0.958 -0.642,2.5 -1.215,3.645 -1.46,2.921 -3.491,5.54 -4.859,8.505 -2.439,5.283 -2.448,7.975 -3.645,13.364 -0.363,1.63 -0.81,3.24 -1.215,4.86 l -2.43,10.934 -3.645,14.58 -2.43,6.074 c -9.375,14.731 -8.505,8.084 -8.505,18.224 z"
     fill="#44546a"
     fill-rule="evenodd"
     fill-opacity="0.0588235"
     id="D10-DeltaB" />
  <path
     d="m 800,261.723 -2.318,-5.637 -26.082,26.528 -5.878,4.476 -15.152,14.507 -4.471,5.554 -7.287,12.766 -3.643,6.964 -10.929,5.968 -2.981,3.814 -2.732,5.471 -9.936,10.942 -8.942,-6.88 -6.21,-9.367 -2.484,-6.715 -1.242,-4.726 -2.732,-11.688 9.687,-5.72 2.484,-3.979 -0.497,-7.958 2.484,-5.223 c 0,-0.083 5.217,-7.378 5.217,-7.461 l 0.248,-5.471 2.235,-5.72 -3.974,-4.725 c -0.787,-0.746 -2.235,0.829 -4.719,0.248 1.242,-4.559 0.704,-18.942 0.993,-24.62 1.946,-1.575 2.567,-0.954 2.981,-2.238 0.414,-1.285 1.821,-5.057 1.739,-7.212 -0.083,-2.156 -2.029,-0.912 -2.733,-5.223 l -1.49,-19.398 -4.719,1.99 -3.975,5.72 0.745,4.974 4.72,11.191 -1.987,9.45 4.222,2.736 1.242,11.688 -1.242,9.948 -7.7,5.969 -3.974,6.466 -4.968,23.874 1.49,8.953 3.478,14.424 4.471,11.938 5.961,7.958 8.943,7.461 c 0,-1.658 2.483,1.409 2.483,-0.249 l 4.472,-3.233 27.323,-22.88 11.426,-16.911 z"
     fill="#a6a6a6"
     fill-rule="evenodd"
     fill-opacity="0.698039"
     id="OnePieceResidentialPhase1" />
  <path
     d="m 775.735,297 -15.936,16.225 -7.47,17.973 -39.59,28.956 3.237,34.448 -5.976,7.489 41.333,37.443 31.872,-0.998 25.895,7.987 9.462,8.488 10.956,6.989 4.482,-4.992 -1.494,-1.997 -0.498,-13.48 c 0.083,-2.663 0.166,-4.077 0.249,-6.74 l -65.901,-6.989 -13.28,0.582 -8.134,-2.662 -28.385,-31.203 -2.241,-22.882 47.724,-38.442 2.739,-12.73 c 0,0.083 20.667,-19.305 20.418,-19.221 z"
     fill="#a6a6a6"
     fill-rule="evenodd"
     fill-opacity="0.698039"
     id="NeoTokyoResidentialPhase1" />
  <path
     d="m 770.532,599 -72.41,57.566 -3.165,3.154 -3.957,-1.183 v 4.337 l 46.691,5.126 24.136,-3.154 28.094,-13.012 11.079,-9.068 z"
     fill="#a6a6a6"
     fill-rule="evenodd"
     fill-opacity="0.698039"
     id="OperationsHub-1" />
  <path
     d="m 713,372.237 1.588,20.921 30.96,33.158 6.747,1.579 h 15.48 l 65.89,7.105 -1.588,-22.895 2.778,-7.5 L 842,360 l -10.32,-3.947 -5.954,-5.527 -6.748,-5.921 -5.556,-9.473 -4.367,-9.474 -1.587,-8.29 -1.191,-10.658 -20.243,-6.71 -21.831,20.526 -1.984,11.842 z"
     fill="#a6a6a6"
     fill-rule="evenodd"
     fill-opacity="0.698039"
     id="NeoTokyoThemePark" />
  <path
     d="M 670.439,416 629,456.782 c 0.132,6.335 0.263,12.67 0.395,19.005 l 51.305,121.949 6.709,19.401 5.131,27.716 4.736,5.147 5.525,-0.396 59.199,-50.68 -1.973,-8.315 -13.813,-20.193 -13.419,-10.69 -18.943,-12.274 -8.683,-5.939 -8.288,-18.609 -3.946,-1.188 -2.368,-0.792 -1.973,-0.792 -0.79,-2.772 -1.578,-3.167 -0.395,-3.564 -1.184,-8.71 v -5.939 -7.523 l 1.184,-5.147 2.763,-9.107 1.578,-8.315 3.157,-5.939 1.579,-4.355 -1.579,-6.731 -1.184,-5.939 -11.445,-24.548 -1.973,0.395 z"
     fill="#a6a6a6"
     fill-rule="evenodd"
     fill-opacity="0.698039"
     id="SuperRobotThemePark" />
  <path
     d="m 576,405.213 14.226,-16.222 10.274,-5.934 17.782,-4.748 12.25,-8.309 10.274,16.617 9.089,-9.1 7.113,5.54 7.508,-1.187 3.952,5.934 -1.186,7.913 6.718,6.727 -5.532,9.1 1.58,4.352 -48.209,45.104 -15.016,-20.178 -12.25,-14.244 -12.25,-14.639 z"
     fill="#a6a6a6"
     fill-rule="evenodd"
     fill-opacity="0.698039"
     id="TransitHub" />
  <path
     d="m 651.07,378 8.302,5.926 -9.093,18.568 L 662.93,392.222 674,404.469 638.023,442 624.581,425.407 628.535,421.852 623,417.506 Z"
     fill="#a6a6a6"
     fill-rule="evenodd"
     fill-opacity="0.698039"
     id="TransitHub-1" />
  <path
     d="m 631,369 6.766,14.182 3.582,3.545 8.756,-9.454 8.359,5.909 h 4.776 l 5.174,5.121 -1.99,7.879 6.368,6.697 -5.174,8.273 3.184,3.545 23.084,6.303 2.787,-9.848 14.328,-14.576 -1.99,-40.97 -13.134,-8.667 -6.368,-11.03 -1.195,-5.909 -11.542,2.364 -1.592,6.303 -3.582,1.969 -4.378,1.576 -5.572,0.788 h -6.766 l -5.573,0.394 -13.93,13.394 v 3.939 z"
     fill="#a6a6a6"
     fill-rule="evenodd"
     fill-opacity="0.698039"
     id="AnimeHub" />
  <path
     d="m 462,310.053 9.897,2.763 21.774,-7.895 17.814,-4.342 33.254,-1.579 24.941,5.132 19.794,8.684 17.023,14.21 13.855,16.185 14.648,11.842 -0.792,5.526 -5.146,8.289 -12.272,9.079 -14.648,3.158 -13.064,6.316 L 574.43,404 526.924,356.237 502.776,334.132 483.378,323.079 Z"
     fill="#a6a6a6"
     fill-rule="evenodd"
     fill-opacity="0.698039"
     id="Expansion" />
  <path
     d="m 372,194.882 12.258,87.36 22.539,6.72 32.028,10.278 17.003,7.906 11.862,1.186 6.327,-0.395 13.049,-5.535 18.584,-6.324 14.235,-1.977 15.817,-0.79 18.98,2.767 13.444,2.767 13.444,3.162 14.631,7.906 12.257,8.301 8.7,10.673 20.561,24.113 10.281,-9.487 -64.057,-66.409 -2.768,-3.163 v -2.767 l -0.791,-4.743 0.791,-8.697 v -6.325 l -1.977,-5.534 -1.582,-3.953 -4.745,-1.581 -4.745,0.791 -3.954,4.743 -5.536,5.534 -15.421,5.535 -7.117,1.185 -3.955,3.953 -3.558,3.163 -6.327,4.348 -6.327,0.791 -4.745,-2.768 -2.768,-1.185 -3.558,-3.953 -1.977,-3.558 -39.147,-14.626 -6.722,-3.162 -3.954,-3.953 -39.146,-47.831 -1.582,-4.348 z"
     fill="#a6a6a6"
     fill-rule="evenodd"
     fill-opacity="0.698039"
     id="LostLandsThemePark" />
  <path
     d="m 383,281 -25.143,-3.923 -19.557,-1.962 -20.753,-1.569 -21.951,-0.393 -1.596,-11.378 2.794,-16.086 13.569,-27.072 16.762,1.177 13.57,-0.784 7.583,-1.962 7.184,-5.101 7.982,-7.454 2.794,-2.354 6.385,-3.139 z"
     fill="#a6a6a6"
     fill-rule="evenodd"
     fill-opacity="0.698039"
     id="OperationsHub-2" />
  <path
     d="m 309,214.604 6.327,-16.647 4.745,-14.664 15.027,-15.061 13.445,-9.512 11.072,-6.738 12.258,-1.586 7.909,-0.396 7.118,3.567 4.35,2.774 3.954,2.775 6.723,3.171 3.954,7.134 7.118,11.097 v 1.586 l -41.126,12.683 -4.745,2.774 -7.118,2.774 -5.536,5.153 -4.745,5.152 -4.35,2.378 -7.118,1.982 z"
     fill="#a6a6a6"
     fill-rule="evenodd"
     fill-opacity="0.698039"
     id="LostLandsResidentialPhase1" />
  <path
     d="m 548.304,138 18.844,-21.068 2.356,-3.578 4.318,-1.987 51.822,-6.361 v -5.1675 l 1.178,-5.9626 1.178,-3.9753 -3.533,-5.5651 -5.889,-6.7579 -9.815,-2.7825 -10.6,1.9876 -9.422,2.7826 -4.711,3.1801 -8.245,0.3975 h -6.281 L 551.837,79.5653 544.378,76.7827 534.956,74 l -7.067,1.9875 -2.748,6.3603 -3.141,9.938 0.785,9.9382 z"
     fill="#a6a6a6"
     fill-rule="evenodd"
     fill-opacity="0.698039"
     id="DragonBallResidentialPhase3" />
  <path
     d="m 549,140.117 21.728,-24.444 1.581,-1.182 1.58,-0.395 2.37,-0.394 0.79,-0.394 48.198,-6.308 0.79,1.971 0.395,5.52 1.58,4.336 1.976,3.549 1.975,2.759 3.16,4.731 2.371,2.366 4.345,2.365 4.741,4.337 3.556,1.971 4.741,1.183 3.555,0.394 5.926,2.366 h 3.16 l 2.371,-0.394 -12.642,33.116 c 0.132,5.651 0.263,11.302 0.395,16.953 l 1.58,4.731 7.506,-1.577 h 3.161 2.765 l 1.58,2.759 1.581,1.972 v 3.154 l -0.79,4.336 -2.371,5.126 -1.185,6.308 0.395,4.336 1.975,5.914 3.161,15.376 v 9.462 9.067 l -0.79,5.914 -3.951,11.827 -1.975,6.703 -3.161,4.336 -2.765,6.308 -1.58,2.366 v 2.365 l 6.321,34.3 -4.346,0.394 -13.432,-0.394 -65.58,-68.599 -0.79,-4.337 1.58,-9.462 v -9.462 l -2.371,-8.673 -3.555,-3.549 -5.531,-3.154 10.667,-15.769 1.185,-5.52 1.185,-5.519 0.79,-7.491 v -6.308 l -1.975,-3.942 -3.161,-3.943 z"
     fill="#a6a6a6"
     fill-rule="evenodd"
     fill-opacity="0.698039"
     id="DragonBallThemePark" />
  <path
     d="m 686,312.2 9.841,-4.753 1.968,-3.565 v 0 -6.735 l 1.574,-6.337 4.33,-5.942 1.181,-3.565 0.393,-2.773 1.181,-3.961 0.787,-3.169 -2.755,-3.565 -3.149,-0.396 -3.149,-0.396 2.756,-7.923 0.393,-6.338 -1.574,-11.487 h 3.149 l 1.574,-3.961 0.394,-3.565 -2.362,-5.546 -0.787,-6.338 -0.787,-9.506 v -5.546 l 2.755,-4.357 1.574,-4.358 2.756,-7.526 2.755,-8.318 -0.787,-6.734 -0.394,-7.13 2.362,-7.527 2.755,-7.922 18.5,-3.565 5.117,-0.396 1.968,0.792 5.117,2.773 4.33,3.565 47.234,99.029 -27.553,29.313 -4.724,2.773 -13.776,13.468 -4.723,5.941 -8.66,15.053 -1.968,4.753 -10.628,6.338 -4.33,4.753 -2.361,5.15 -7.086,7.526 -3.148,2.773 -9.841,-6.734 -6.691,-10.695 -1.575,-7.922 -1.968,-2.377 z"
     fill="#a6a6a6"
     fill-rule="evenodd"
     fill-opacity="0.698039"
     id="OnePieceThemePark" />
  <path
     d="M 776,206.589 804.026,192 821,227.88 801.658,261 Z"
     fill="#a6a6a6"
     fill-rule="evenodd"
     fill-opacity="0.698039"
     id="OperationsHub-3" />
  <path
     d="M 734.336,147.158 715,150.71 719.341,140.447 718.946,129 l 1.184,-35.9212 0.395,-4.7368 3.551,-1.9737 v 0 L 731.179,84 l 5.13,1.9736 7.498,6.3158 7.498,14.2106 4.341,12.237 4.735,11.052 5.525,15.395 v 6.711 l 1.184,7.105 0.394,4.342 -0.789,1.579 4.341,2.763 25.65,15.395 4.736,3.947 1.578,3.158 -27.623,13.816 -23.678,-48.158 -2.762,-4.342 -2.762,-1.184 -1.184,-1.184 z"
     fill="#a6a6a6"
     fill-rule="evenodd"
     fill-opacity="0.698039"
     id="OnePieceResidentialPhase2" />
  <path
     d="m 682,419 11.842,24.461 3.947,12.625 -4.736,9.469 -2.369,6.312 -3.158,8.285 -1.184,9.469 -0.395,7.102 1.185,10.257 1.184,5.918 v 4.735 l 2.368,1.972 3.948,0.395 1.973,-2.367 -1.973,-9.075 -0.79,-7.89 v -8.285 l 1.579,-6.313 4.342,-10.258 3.553,-7.89 1.973,-5.918 6.711,-7.496 -1.184,-4.735 -15.395,-27.222 z"
     fill="#a6a6a6"
     fill-rule="evenodd"
     fill-opacity="0.698039"
     id="SuperRobotResidentialPhase1" />
  <path
     d="m 704,504 c 0,-32.585 29.325,-59 65.5,-59 36.175,0 65.5,26.415 65.5,59 0,32.585 -29.325,59 -65.5,59 -36.175,0 -65.5,-26.415 -65.5,-59 z"
     fill="#a6a6a6"
     fill-rule="evenodd"
     fill-opacity="0.698039"
     id="LeafVillage" />
  <path
     d="m 809.531,635 2.354,-14.245 -1.177,-11.87 -1.177,-3.561 c -0.131,-3.429 -0.262,-6.859 -0.393,-10.288 L 806,585.935 v -9.1 l 0.785,-9.893 5.1,-7.913 9.023,-10.288 5.884,-5.144 5.493,-9.101 3.53,-9.496 1.962,11.87 17.262,44.713 1.961,12.662 -3.923,5.539 -30.208,26.115 -4.315,4.749 z"
     fill="#a6a6a6"
     fill-rule="evenodd"
     fill-opacity="0.698039"
     id="NarutoVillageSouth-ResidentialB" />
  <path
     d="m 669.345,341 4.362,-1.576 3.172,-7.091 -2.775,-17.727 -1.587,-5.909 -0.396,-7.485 3.569,-8.667 2.776,-11.03 2.775,-11.424 2.38,-5.515 1.586,-8.273 0.793,-8.273 -1.586,-9.454 -2.776,-5.909 -3.569,-7.091 v -6.303 l 0.397,-5.515 4.362,-15.758 -9.914,0.394 1.982,4.333 0.397,3.94 -1.586,7.091 -3.569,6.303 1.19,5.515 1.982,6.697 1.19,7.091 1.983,11.818 0.396,13 v 8.273 l -3.569,7.878 -3.569,8.273 -0.793,3.152 -2.776,4.727 -1.586,4.333 -1.586,5.515 1.19,9.455 z"
     fill="#a6a6a6"
     fill-rule="evenodd"
     fill-opacity="0.698039"
     id="DragonBallResidentialPhase1" />
  <path
     d="m 670.436,144.681 -11.855,29.915 -1.186,9.447 c -0.132,3.411 -0.263,6.822 -0.395,10.234 l 1.186,1.968 2.37,2.755 h 7.904 l 15.806,-2.362 19.758,-61.797 1.976,-2.362 -1.976,-4.33 -2.766,-2.362 -3.161,-0.787 -6.718,2.755 -0.395,3.149 -5.137,5.511 -1.976,1.181 -2.371,2.755 z"
     fill="#a6a6a6"
     fill-rule="evenodd"
     fill-opacity="0.698039"
     id="DragonBallResidentialPhase2" />
  <path
     d="m 746,559.328 13.158,3.965 13.557,1.586 10.766,-1.983 13.557,-4.361 8.772,-3.966 3.19,-3.569 -6.38,9.517 -5.582,21.017 8.772,19.035 1.196,11.103 v 13.88 l -2.791,11.5 -0.399,5.948 z"
     fill="#a6a6a6"
     fill-rule="evenodd"
     fill-opacity="0.698039"
     id="NarutoVillageSouth-ResidentialA" />
  <path
     d="m 714.286,469 5.158,-15.006 -0.793,-5.529 -5.556,-8.293 -4.762,-11.057 -3.968,-4.344 -4.365,-6.714 0.397,-7.898 3.571,-3.159 44.842,38.306 1.19,1.184 -6.746,1.58 -6.746,3.949 -4.762,3.554 -7.143,3.554 z"
     fill="#a6a6a6"
     fill-rule="evenodd"
     fill-opacity="0.698039"
     id="NarutoVillageNorth-KyotoStreet" />
  <path
     d="m 809,305 -1.2,-11.849 4.8,-9.479 1.2,-3.554 2.4,-4.345 1.6,-5.924 2.4,-1.58 0.8,-1.185 -2.4,-5.529 L 813.8,258 777,295.126 Z"
     fill="#a6a6a6"
     fill-rule="evenodd"
     fill-opacity="0.698039"
     id="NeoTokyoResidentialPhase2" />
  <text
     fill="#ffffff"
     font-family="Calibri, Calibri_MSFontService, sans-serif"
     font-weight="400"
     font-size="13px"
     id="text61"
     x="604.83301"
     y="229">DRAGON</text>
  <text
     fill="#ffffff"
     font-family="Calibri, Calibri_MSFontService, sans-serif"
     font-weight="400"
     font-size="13px"
     id="text63"
     x="616.07898"
     y="243">BALL</text>
  <text
     fill="#ffffff"
     font-family="Calibri, Calibri_MSFontService, sans-serif"
     font-weight="400"
     font-size="13px"
     id="text65"
     x="723.10303"
     y="260">ONE PIECE</text>
  <text
     fill="#ffffff"
     font-family="Calibri, Calibri_MSFontService, sans-serif"
     font-weight="400"
     font-size="13px"
     id="text67"
     x="750.78497"
     y="383">NEO TOKYO</text>
  <text
     fill="#ffffff"
     font-family="Calibri, Calibri_MSFontService, sans-serif"
     font-weight="400"
     font-size="13px"
     id="text69"
     x="676.61798"
     y="586">SUPER ROBOT</text>
  <text
     fill="#ffffff"
     font-family="Calibri, Calibri_MSFontService, sans-serif"
     font-weight="400"
     font-size="13px"
     id="text71"
     x="412.80301"
     y="273">LOST LANDS</text>
  <text
     fill="#ffffff"
     font-family="Calibri, Calibri_MSFontService, sans-serif"
     font-weight="400"
     font-size="13px"
     id="text73"
     x="785.229"
     y="586">NARUTO</text>
  <text
     fill="#ffffff"
     font-family="Calibri, Calibri_MSFontService, sans-serif"
     font-weight="400"
     font-size="13px"
     id="text75"
     x="786.56299"
     y="600">VILLAGE</text>
  <text
     fill="#ffffff"
     font-family="Calibri, Calibri_MSFontService, sans-serif"
     font-weight="400"
     font-size="13px"
     id="text77"
     x="333.42401"
     y="245">OPS</text>
  <text
     fill="#ffffff"
     font-family="Calibri, Calibri_MSFontService, sans-serif"
     font-weight="400"
     font-size="13px"
     id="text79"
     x="332.258"
     y="259">HUB</text>
  <text
     fill="#ffffff"
     font-family="Calibri, Calibri_MSFontService, sans-serif"
     font-weight="400"
     font-size="13px"
     id="text81"
     x="590.04901"
     y="414">TRANSIT HUB</text>
  <text
     fill="#ffffff"
     font-family="Calibri, Calibri_MSFontService, sans-serif"
     font-weight="400"
     font-size="13px"
     id="text83"
     x="530.54797"
     y="344">EXPANSION</text>
  <text
     fill="#ffffff"
     font-family="Calibri, Calibri_MSFontService, sans-serif"
     font-weight="400"
     font-size="13px"
     id="text85"
     x="730.09003"
     y="506">LEAF VILLAGE</text>
  <text
     fill="#ffffff"
     font-family="Calibri, Calibri_MSFontService, sans-serif"
     font-weight="400"
     font-size="12px"
     id="text87"
     x="644.34253"
     y="374.66992"><tspan
       sodipodi:role="line"
       id="tspan1575"
       x="644.34253"
       y="374.66992">ANIME HUB</tspan></text>
  <text
     fill="#ffffff"
     font-family="Calibri, Calibri_MSFontService, sans-serif"
     font-weight="400"
     font-size="13px"
     id="text89"
     x="746.39001"
     y="634">OPS</text>
  <text
     fill="#ffffff"
     font-family="Calibri, Calibri_MSFontService, sans-serif"
     font-weight="400"
     font-size="13px"
     id="text91"
     x="745.22302"
     y="648">HUB</text>
</svg>
